<?xml version="1.0" encoding="utf-8"?>
<!-- Generator: Adobe Illustrator 17.0.0, SVG Export Plug-In . SVG Version: 6.00 Build 0)  -->
<!DOCTYPE svg PUBLIC "-//W3C//DTD SVG 1.1//EN" "http://www.w3.org/Graphics/SVG/1.1/DTD/svg11.dtd">
<svg version="1.1" id="Layer_1" xmlns="http://www.w3.org/2000/svg" xmlns:xlink="http://www.w3.org/1999/xlink" x="0px" y="0px"
	 width="1204px" height="212px" viewBox="0 124.5 1204 212" enable-background="new 0 124.5 1204 212" xml:space="preserve">
<g>
	<g>
		<path d="M763.576,181.819v95.361h370.221v-95.361H763.576z M770.186,188.43h178.501v82.141H770.186V188.43z M1015.886,224.317
			c2.654,0,4.296,1.423,4.296,4.161v9.851h-3.393v-8.647c0-1.642-0.685-2.463-2.052-2.463c-1.751,0-3.229,1.805-3.229,5.281v5.829
			h-3.393v-19.375h3.393v7.8C1012.52,225.138,1013.997,224.317,1015.886,224.317z M1037.135,227.218
			c-1.231,0-2.025,0.519-2.381,1.586l-2.873-0.655c0.437-2.3,2.489-3.832,5.254-3.832c3.859,0,5.8,1.915,5.8,5.773v8.238h-2.792
			l-0.356-1.751c-1.067,1.313-2.489,1.971-4.24,1.971c-2.436,0-4.187-1.532-4.187-4.187c0-2.735,2.381-4.516,5.884-4.516h2.297
			v-0.602C1039.541,227.902,1038.747,227.218,1037.135,227.218z M1057.59,222.127c-0.85,0.85-2.273,0.85-3.12,0
			c-0.848-0.848-0.848-2.27,0-3.118c0.848-0.85,2.27-0.85,3.12,0C1058.438,219.857,1058.438,221.279,1057.59,222.127z
			 M1057.727,224.536v13.792h-3.393v-13.792L1057.727,224.536L1057.727,224.536z M1077.054,224.317c0.519,0,1.067,0.083,1.669,0.273
			l-0.628,3.147c-0.412-0.246-0.904-0.382-1.422-0.382c-2.163,0-3.695,1.888-3.695,6.075v4.899h-3.393v-13.792h3.393v2.243
			C1073.963,225.22,1075.439,224.317,1077.054,224.317z"/>
		<path d="M1034.918,234.306c0,0.738,0.52,1.34,1.423,1.34c0.848,0,1.586-0.273,2.217-0.794c0.655-0.519,0.984-1.203,0.984-2.051
			v-0.275h-2.27C1035.711,232.526,1034.918,233.127,1034.918,234.306z"/>
		<path d="M823.577,224.317c-1.889,0-3.366,0.821-4.379,2.436v-7.8h-3.395v19.375h3.395v-5.829c0-3.476,1.477-5.281,3.229-5.281
			c1.368,0,2.052,0.821,2.052,2.463v8.647h3.393v-9.851C827.873,225.739,826.231,224.317,823.577,224.317z"/>
		<path d="M843.812,224.317c-4.734,0-6.623,3.832-6.623,7.115s1.889,7.115,6.623,7.115c3.009,0,5.09-1.342,6.266-4.024l-2.737-1.011
			c-0.821,1.423-1.943,2.134-3.338,2.134c-1.971,0-3.174-1.449-3.257-3.12h9.496v-1.396c0-1.559-0.493-3.174-1.479-4.514
			C847.78,225.22,846,224.317,843.812,224.317z M840.829,229.844c0.246-1.449,1.368-2.626,2.983-2.626
			c1.587,0,2.572,0.874,2.955,2.626H840.829z"/>
		<rect x="859.286" y="218.953" width="3.393" height="19.375"/>
		<rect x="872.018" y="218.953" width="3.393" height="19.375"/>
		<path d="M891.591,224.317c-2.162,0-3.858,0.685-5.118,2.024c-1.258,1.342-1.888,3.038-1.888,5.091c0,2.054,0.63,3.776,1.888,5.118
			c1.259,1.34,2.956,1.997,5.118,1.997s3.858-0.658,5.118-1.997c1.258-1.342,1.888-3.064,1.888-5.118s-0.63-3.749-1.888-5.091
			C895.449,225.001,893.753,224.317,891.591,224.317z M894.108,234.443c-0.63,0.794-1.451,1.203-2.517,1.203
			s-1.888-0.409-2.518-1.203c-0.63-0.821-0.931-1.834-0.931-3.011s0.301-2.19,0.931-2.984c0.63-0.821,1.451-1.23,2.518-1.23
			s1.888,0.409,2.517,1.23c0.63,0.794,0.931,1.808,0.931,2.984C895.039,232.608,894.738,233.622,894.108,234.443z"/>
	</g>
</g>
<g>
	<path d="M200.242,278.399l-2.944-1.14l-2.294,5.927l2.944,1.14c1.729,0.669,3.345-0.234,3.977-1.868
		C202.535,280.881,201.97,279.068,200.242,278.399z"/>
	<polygon points="117.435,284.149 117.943,276.461 113.104,282.473 	"/>
	<path d="M224.085,240.309c-0.564-0.244-1.114-0.353-1.634-0.353c-1.723,0-3.134,1.201-3.786,2.711
		c-0.457,1.058-0.533,2.191-0.213,3.191c0.343,1.071,1.109,1.889,2.215,2.366c2.436,1.05,4.572-0.391,5.421-2.358
		c0.459-1.063,0.533-2.2,0.208-3.202C225.95,241.598,225.186,240.783,224.085,240.309z"/>
	<path d="M156.839,132.482c-53.582,0-97.018,43.436-97.018,97.018s43.436,97.018,97.018,97.018
		c53.582,0,97.018-43.436,97.018-97.018S210.421,132.482,156.839,132.482z M94.249,253.911l-1.728-0.669l2.257-5.831l-6.192-2.397
		l-2.257,5.831l-1.728-0.669l5.147-13.296l1.728,0.669l-2.287,5.907l6.192,2.397l2.287-5.907l1.728,0.669L94.249,253.911z
		 M97.219,206.966l2.408-6.599l-3.979-1.449l-2.408,6.599l-6.212-2.262l6.805-18.651l6.212,2.262l-2.454,6.725l3.979,1.449
		l2.454-6.726l6.238,2.271l-6.805,18.652L97.219,206.966z M119.096,288.942l-1.824-0.706l0.084-2.304l-5.395-2.088l-1.47,1.768
		l-1.823-0.707l9.725-11.524l1.253,0.485L119.096,288.942z M142.383,163.691l-6.123-2.299l-0.799,2.125l6.123,2.299l-1.768,4.702
		l-6.123-2.299l-0.752,1.999l6.123,2.299l-1.834,4.879l-12.313-4.623l6.987-18.583l12.313,4.623L142.383,163.691z M154.92,302.048
		l-1.785-0.691l5.147-13.296l1.785,0.691L154.92,302.048z M186.673,173.385l-2.102,5.41l-10.747-4.192l7.191-18.506l6.159,2.402
		l-5.089,13.096L186.673,173.385z M203.655,283.127c-0.75,1.938-2.544,3.187-4.591,3.115l1.042,5.601l-1.975-0.765l-1.001-5.258
		l-2.735-1.059l-1.64,4.236l-1.729-0.668l5.147-13.296l4.673,1.809C203.6,277.908,204.596,280.696,203.655,283.127z
		 M215.973,187.122l6.173,2.369l-5.03,13.117l4.599,1.765l-2.078,5.42l-10.771-4.134L215.973,187.122z M222.885,254.862
		c-1.46,0-3.022-0.312-4.647-1.013c-2.927-1.262-4.997-3.35-5.986-6.038c-0.911-2.474-0.807-5.238,0.292-7.782
		c2.057-4.761,7.516-8.126,13.97-5.344c2.937,1.266,5.015,3.357,6.008,6.047c0.913,2.474,0.811,5.239-0.289,7.784
		C230.694,252.081,227.24,254.862,222.885,254.862z"/>
</g>
<g>
	<g>
		<path d="M405.395,181.208h4.782v38.047h-4.782v-17.936h-16.742v17.936h-4.782v-38.047h4.782v15.545h16.742V181.208z"/>
		<path d="M467.46,206.536h-21.415c0.271,5.436,3.588,9.022,8.424,9.022c3.914,0,6.848-1.794,8.805-5.435l3.642,1.902
			c-2.664,5.11-6.794,7.664-12.447,7.664c-3.913,0-7.066-1.358-9.511-4.022c-2.392-2.663-3.587-6.032-3.587-10.109
			c0-3.969,1.196-7.338,3.533-10.056c2.392-2.717,5.598-4.076,9.566-4.076c4.077,0,7.284,1.25,9.567,3.804
			c2.283,2.501,3.424,5.654,3.424,9.403v1.903H467.46z M446.371,202.405h16.252c-0.815-4.348-3.75-6.848-8.153-6.848
			C450.176,195.557,447.296,198.111,446.371,202.405z"/>
		<path d="M501.968,185.339h-7.555v-4.131h12.121v27.72c0,4.402,1.903,6.63,5.761,6.63c3.533,0,5.654-2.228,6.359-6.63l4.131,0.815
			c-0.924,6.523-4.782,9.947-10.49,9.947c-6.359,0-10.327-3.968-10.327-10.761V185.339z"/>
		<path d="M556.223,185.339h-7.555v-4.131h12.121v27.72c0,4.402,1.903,6.63,5.761,6.63c3.534,0,5.652-2.228,6.359-6.63l4.132,0.815
			c-0.925,6.523-4.783,9.947-10.491,9.947c-6.359,0-10.327-3.968-10.327-10.761L556.223,185.339L556.223,185.339z"/>
		<path d="M606.629,205.558c0-3.914,1.251-7.229,3.696-10.001s5.706-4.131,9.782-4.131s7.34,1.359,9.784,4.131
			c2.445,2.772,3.696,6.087,3.696,10.001c0,3.913-1.251,7.228-3.696,10c-2.445,2.773-5.708,4.131-9.784,4.131
			c-4.077,0-7.337-1.358-9.782-4.131C607.88,212.786,606.629,209.471,606.629,205.558z M611.303,205.558
			c0,2.772,0.816,5.109,2.392,7.065c1.576,1.957,3.75,2.935,6.413,2.935c2.665,0,4.839-0.978,6.415-2.935
			c1.576-1.956,2.392-4.293,2.392-7.065c0-2.773-0.816-5.11-2.392-7.066c-1.576-1.957-3.75-2.935-6.415-2.935
			c-2.663,0-4.837,0.978-6.413,2.935C612.119,200.448,611.303,202.785,611.303,205.558z"/>
	</g>
	<g>
		<path d="M467.595,277.515v-17.617h2.19v8.204c0.679-1.409,2.038-2.315,4.051-2.315c2.643,0,4.278,1.535,4.278,4.983v6.745h-2.189
			v-6.065c0-2.115-0.756-3.725-2.869-3.725c-2.214,0-3.271,1.913-3.271,3.902v5.889h-2.19V277.515z"/>
		<path d="M497.671,265.788c1.987,0,3.447,0.932,4.152,2.265v-1.963h2.165v11.425h-2.165v-1.988
			c-0.705,1.309-2.114,2.265-4.128,2.265c-3.322,0-5.738-2.768-5.738-5.99C491.957,268.607,494.373,265.788,497.671,265.788z
			 M497.973,275.829c2.341,0,3.851-1.838,3.851-4.027c0-2.165-1.51-4.052-3.851-4.052s-3.851,1.888-3.851,4.052
			C494.122,273.992,495.632,275.829,497.973,275.829z"/>
		<path d="M520.498,259.974c0.956,0,1.763,0.831,1.763,1.787s-0.807,1.737-1.763,1.737c-0.93,0-1.761-0.755-1.761-1.737
			C518.736,260.805,519.516,259.974,520.498,259.974z M519.415,277.515V266.09h2.165v11.425L519.415,277.515L519.415,277.515z"/>
		<path d="M537.009,277.515V266.09h2.19v2.24c0.605-1.435,2.162-2.416,3.826-2.416c0.401,0,0.779,0.075,1.057,0.176v2.013
			c-0.48-0.101-0.707-0.125-1.008-0.125c-2.693,0-3.875,1.837-3.875,4.53v5.008L537.009,277.515L537.009,277.515z"/>
	</g>
</g>
<g>
	<path fill="none" stroke="#3700FF" stroke-width="5" stroke-linecap="round" stroke-miterlimit="10" d="M1155.866,161.34
		c0.044,8.78-7.253,21.347-5.397,29.009"/>
	<path fill="none" stroke="#3700FF" stroke-width="5" stroke-linecap="round" stroke-miterlimit="10" d="M1139.675,171.459
		c5.308-0.2,26.325,1.387,27.66,6.072"/>
	<path fill="none" stroke="#3700FF" stroke-width="5" stroke-linecap="round" stroke-miterlimit="10" d="M1170.708,164.038
		c-11.904,0.338-21.044,13.906-31.708,16.866"/>
	<path fill="none" stroke="#3700FF" stroke-width="5" stroke-linecap="round" stroke-miterlimit="10" d="M1144.397,162.689
		c4.965,5.46,12.755,12.473,13.493,20.239"/>
</g>
</svg>
