<?xml version="1.0" encoding="utf-8"?>
<!-- Generator: Adobe Illustrator 17.0.0, SVG Export Plug-In . SVG Version: 6.00 Build 0)  -->
<!DOCTYPE svg PUBLIC "-//W3C//DTD SVG 1.1//EN" "http://www.w3.org/Graphics/SVG/1.1/DTD/svg11.dtd">
<svg version="1.1" id="Layer_1" xmlns="http://www.w3.org/2000/svg" xmlns:xlink="http://www.w3.org/1999/xlink" x="0px" y="0px"
	 width="1204px" height="564px" viewBox="0 0 1204 564" enable-background="new 0 0 1204 564" xml:space="preserve">
<rect x="302.5" y="340" fill="#FFFFFF" width="599" height="146"/>
<g>
	<path d="M298.84,334.912v156.175h606.32V334.912H298.84z M309.665,345.738H602v134.524H309.665V345.738z M712.054,404.511
		c4.346,0,7.035,2.33,7.035,6.814v16.133h-5.557v-14.162c0-2.689-1.121-4.033-3.361-4.033c-2.868,0-5.288,2.956-5.288,8.649v9.547
		h-5.557v-31.731h5.557V408.5C706.541,405.855,708.96,404.511,712.054,404.511z M746.853,409.262c-2.017,0-3.317,0.85-3.9,2.597
		l-4.705-1.073c0.716-3.766,4.077-6.275,8.605-6.275c6.319,0,9.498,3.135,9.498,9.455v13.492h-4.572l-0.582-2.868
		c-1.747,2.15-4.077,3.227-6.943,3.227c-3.989,0-6.858-2.509-6.858-6.858c0-4.48,3.9-7.396,9.636-7.396h3.762v-0.985
		C750.794,410.383,749.494,409.262,746.853,409.262z M780.354,400.925c-1.393,1.393-3.722,1.393-5.11,0
		c-1.388-1.388-1.388-3.718,0-5.106c1.388-1.393,3.718-1.393,5.11,0C781.742,397.207,781.742,399.536,780.354,400.925z
		 M780.577,404.87v22.588h-5.557V404.87H780.577z M812.229,404.511c0.85,0,1.747,0.136,2.733,0.447l-1.029,5.154
		c-0.674-0.403-1.48-0.626-2.33-0.626c-3.543,0-6.052,3.092-6.052,9.949v8.023h-5.557V404.87h5.557v3.674
		C807.167,405.991,809.584,404.511,812.229,404.511z"/>
	<path d="M743.223,420.871c0,1.209,0.852,2.194,2.33,2.194c1.388,0,2.597-0.447,3.63-1.301c1.073-0.85,1.612-1.971,1.612-3.359
		v-0.451h-3.718C744.521,417.955,743.223,418.94,743.223,420.871z"/>
	<path d="M397.104,404.511c-3.094,0-5.513,1.344-7.171,3.989v-12.774h-5.559v31.731h5.559v-9.547c0-5.693,2.419-8.649,5.288-8.649
		c2.24,0,3.361,1.344,3.361,4.033v14.162h5.557v-16.133C404.14,406.841,401.451,404.511,397.104,404.511z"/>
	<path d="M430.244,404.511c-7.753,0-10.847,6.275-10.847,11.653c0,5.378,3.094,11.653,10.847,11.653
		c4.929,0,8.336-2.198,10.263-6.591l-4.482-1.655c-1.344,2.33-3.181,3.495-5.467,3.495c-3.227,0-5.198-2.374-5.334-5.11h15.553
		v-2.286c0-2.553-0.808-5.198-2.422-7.392C436.742,405.991,433.828,404.511,430.244,404.511z M425.359,413.563
		c0.403-2.373,2.24-4.3,4.885-4.3c2.599,0,4.213,1.432,4.839,4.3H425.359z"/>
	<rect x="455.586" y="395.726" width="5.557" height="31.731"/>
	<rect x="476.437" y="395.726" width="5.557" height="31.731"/>
	<path d="M508.492,404.511c-3.541,0-6.319,1.121-8.382,3.315c-2.06,2.198-3.092,4.975-3.092,8.338c0,3.363,1.031,6.183,3.092,8.382
		c2.063,2.194,4.841,3.271,8.382,3.271s6.319-1.077,8.382-3.271c2.06-2.198,3.092-5.018,3.092-8.382c0-3.363-1.031-6.14-3.092-8.338
		C514.811,405.632,512.033,404.511,508.492,404.511z M512.615,421.095c-1.031,1.301-2.376,1.971-4.123,1.971
		s-3.092-0.67-4.123-1.971c-1.031-1.344-1.524-3.004-1.524-4.931s0.493-3.587,1.524-4.887c1.031-1.344,2.376-2.014,4.123-2.014
		s3.092,0.67,4.123,2.014c1.031,1.301,1.524,2.96,1.524,4.887S513.646,419.75,512.615,421.095z"/>
</g>
<g>
	<path d="M298.84,12.912v156.175h606.32V12.912H298.84z M309.665,23.738H602v134.524H309.665V23.738z M712.054,82.511
		c4.346,0,7.035,2.33,7.035,6.814v16.133h-5.557V91.296c0-2.689-1.121-4.033-3.361-4.033c-2.868,0-5.288,2.956-5.288,8.649v9.547
		h-5.557V73.726h5.557V86.5C706.541,83.855,708.96,82.511,712.054,82.511z M746.853,87.262c-2.017,0-3.317,0.85-3.9,2.597
		l-4.705-1.073c0.716-3.766,4.077-6.275,8.605-6.275c6.319,0,9.498,3.135,9.498,9.455v13.492h-4.572l-0.582-2.868
		c-1.747,2.15-4.077,3.227-6.943,3.227c-3.989,0-6.858-2.509-6.858-6.858c0-4.48,3.9-7.396,9.636-7.396h3.762v-0.985
		C750.794,88.383,749.494,87.262,746.853,87.262z M780.354,78.925c-1.393,1.393-3.722,1.393-5.11,0
		c-1.388-1.388-1.388-3.718,0-5.106c1.388-1.393,3.718-1.393,5.11,0C781.742,75.207,781.742,77.536,780.354,78.925z M780.577,82.87
		v22.588h-5.557V82.87H780.577z M812.229,82.511c0.85,0,1.747,0.136,2.733,0.447l-1.029,5.154c-0.674-0.403-1.48-0.626-2.33-0.626
		c-3.543,0-6.052,3.092-6.052,9.949v8.023h-5.557V82.87h5.557v3.674C807.167,83.991,809.584,82.511,812.229,82.511z"/>
	<path d="M743.223,98.871c0,1.209,0.852,2.194,2.33,2.194c1.388,0,2.597-0.447,3.63-1.301c1.073-0.85,1.612-1.971,1.612-3.359
		v-0.451h-3.718C744.521,95.955,743.223,96.94,743.223,98.871z"/>
	<path d="M397.104,82.511c-3.094,0-5.513,1.344-7.171,3.989V73.726h-5.559v31.731h5.559v-9.547c0-5.693,2.419-8.649,5.288-8.649
		c2.24,0,3.361,1.344,3.361,4.033v14.162h5.557V89.325C404.14,84.841,401.451,82.511,397.104,82.511z"/>
	<path d="M430.244,82.511c-7.753,0-10.847,6.275-10.847,11.653c0,5.378,3.094,11.653,10.847,11.653
		c4.929,0,8.336-2.198,10.263-6.591l-4.482-1.655c-1.344,2.33-3.181,3.495-5.467,3.495c-3.227,0-5.198-2.373-5.334-5.11h15.553
		v-2.286c0-2.553-0.808-5.198-2.422-7.392C436.742,83.991,433.828,82.511,430.244,82.511z M425.359,91.563
		c0.403-2.373,2.24-4.3,4.885-4.3c2.599,0,4.213,1.432,4.839,4.3H425.359z"/>
	<rect x="455.586" y="73.726" width="5.557" height="31.731"/>
	<rect x="476.437" y="73.726" width="5.557" height="31.731"/>
	<path d="M508.492,82.511c-3.541,0-6.319,1.121-8.382,3.315c-2.06,2.198-3.092,4.975-3.092,8.338c0,3.363,1.031,6.183,3.092,8.382
		c2.063,2.194,4.841,3.271,8.382,3.271s6.319-1.077,8.382-3.271c2.06-2.198,3.092-5.018,3.092-8.382c0-3.363-1.031-6.14-3.092-8.338
		C514.811,83.632,512.033,82.511,508.492,82.511z M512.615,99.095c-1.031,1.301-2.376,1.971-4.123,1.971s-3.092-0.67-4.123-1.971
		c-1.031-1.344-1.524-3.004-1.524-4.931c0-1.927,0.493-3.587,1.524-4.887c1.031-1.344,2.376-2.014,4.123-2.014
		s3.092,0.67,4.123,2.014c1.031,1.301,1.524,2.96,1.524,4.887C514.139,96.091,513.646,97.75,512.615,99.095z"/>
</g>
<path fill="none" stroke="#3700FF" stroke-width="5" stroke-miterlimit="10" d="M322.537,504.332
	C253.528,483.119,210,452.942,210,418.358c0-73.408,194.562-137.638,434.964-137.842c112.491-0.096,210.272,14.218,278.408,37.349"
	/>
<path fill="none" stroke="#3700FF" stroke-width="5" stroke-miterlimit="10" d="M853.23,314.693
	C931.087,338.644,980,373.269,980,411.777c0,72.289-172.37,130.891-385,130.891c-106.315,0-202.565-14.651-272.236-38.337"/>
</svg>
