<?xml version="1.0" encoding="utf-8"?>
<!-- Generator: Adobe Illustrator 17.0.0, SVG Export Plug-In . SVG Version: 6.00 Build 0)  -->
<!DOCTYPE svg PUBLIC "-//W3C//DTD SVG 1.1//EN" "http://www.w3.org/Graphics/SVG/1.1/DTD/svg11.dtd">
<svg version="1.1" id="Layer_1" xmlns="http://www.w3.org/2000/svg" xmlns:xlink="http://www.w3.org/1999/xlink" x="0px" y="0px"
	 width="371px" height="43px" viewBox="0 0 371 43" enable-background="new 0 0 371 43" xml:space="preserve">
<g>
	<path fill="#FFFFFF" d="M5.458,35.295l1.799-0.199c1.433-0.232,2.149-0.533,2.149-0.9V6.75c0-0.199-0.159-0.35-0.474-0.45
		C8.614,6.2,7.906,6.084,6.807,5.95L5.507,5.75L5.358,4.9h2.774c1.15,0,2.925-0.008,5.324-0.024c2.4-0.016,4.366-0.024,5.898-0.024
		c1.533,0,2.233,0,2.1,0c5.632,0,9.981,1.349,13.048,4.048c3.065,2.701,4.598,6.501,4.598,11.4c0,4.331-1.724,8.056-5.174,11.172
		c-3.45,3.116-7.673,4.675-12.674,4.675H5.307L5.458,35.295z M27.704,31.147c1.632-2.634,2.45-5.933,2.45-9.9
		c0-10.132-3.434-15.198-10.299-15.198h-2.251v28.346l3.401,0.751C23.838,35.112,26.071,33.778,27.704,31.147z"/>
	<path fill="#FFFFFF" d="M46.793,24.048l-1.15,3.299c-1.099,3.299-1.616,5.3-1.549,6c0.1,0.8,0.733,1.315,1.899,1.549
		c0.299,0.067,0.7,0.134,1.199,0.199l1.05,0.151l0.151,0.9H37.143l0.151-0.9l0.9-0.151c1.567-0.232,2.666-0.792,3.299-1.675
		c0.635-0.883,1.683-3.256,3.151-7.124L50.493,10.2l-0.45-1.85c1.066-0.267,2.174-0.816,3.324-1.649
		c1.15-0.834,1.942-1.734,2.375-2.701h1.199l9.149,25.647c0.767,2.066,1.476,3.458,2.125,4.174c0.649,0.716,1.476,1.123,2.475,1.225
		l1.301,0.199l0.1,0.9H55.09l0.151-0.9l1.15-0.151c1.166-0.1,1.826-0.458,1.974-1.075c0.151-0.617-0.075-1.742-0.674-3.375
		l-2.251-6.598H46.793z M55.042,22.847l-3.749-10.948h-0.201l-3.849,10.948H55.042z"/>
	<path fill="#FFFFFF" d="M80.332,11.25h-0.151v19.596c0,1.634,0.267,2.725,0.8,3.275s1.567,0.875,3.1,0.975l1.549,0.199l0.151,0.851
		H74.033l0.149-0.851l1.4-0.199c1.301-0.1,2.157-0.474,2.575-1.123c0.417-0.651,0.625-1.842,0.625-3.576L78.932,9.65
		c-1.368-2.033-2.967-3.199-4.799-3.501l-0.95-0.399L73.032,4.9H86.33l16.048,19.598h0.199l-0.051-14.198
		c0-1.632-0.267-2.742-0.8-3.324c-0.533-0.584-1.549-0.926-3.049-1.026l-1.5-0.199L97.028,4.9h11.65l-0.151,0.851l-1.4,0.199
		c-1.266,0.1-2.117,0.493-2.55,1.174c-0.434,0.684-0.649,1.893-0.649,3.625l-0.151,25.696h-2.448L80.332,11.25z"/>
	<path fill="#FFFFFF" d="M119.05,35.295l1.799-0.199c1.433-0.232,2.149-0.533,2.149-0.9V6.75c0-0.199-0.151-0.342-0.45-0.425
		c-0.299-0.081-1.016-0.191-2.149-0.324l-1.301-0.151L118.95,4.9h14.497c4.932,0,8.489,0.56,10.673,1.675
		c2.182,1.117,3.275,2.941,3.275,5.475c0,1.834-0.8,3.324-2.4,4.474s-3.751,1.942-6.45,2.375v0.151
		c3.1,0.299,5.575,1.15,7.425,2.548c1.848,1.4,2.774,3.267,2.774,5.599c0,5.965-4.85,8.949-14.548,8.949h-15.297L119.05,35.295z
		 M131.947,19.049c2.066,0.065,3.782-0.46,5.149-1.575c1.366-1.117,2.05-2.774,2.05-4.974c0-2.066-0.659-3.657-1.974-4.775
		c-1.317-1.115-3.024-1.675-5.125-1.675L131.196,6.1v12.949H131.947z M133.696,35.095c1.866-0.167,3.425-0.948,4.675-2.349
		c1.25-1.4,1.875-3.167,1.875-5.3c0-2.3-0.775-4.115-2.324-5.448s-3.458-2.001-5.723-2.001c-0.6,0-0.934,0.018-1.001,0.051v14.447
		l2.2,0.7L133.696,35.095z"/>
	<path fill="#FFFFFF" d="M154.185,26.997V6.701c0-0.401-0.832-0.651-2.499-0.751l-1.4-0.199L150.135,4.9h16.299l-0.151,0.851
		l-1.799,0.199c-1.4,0.134-2.1,0.417-2.1,0.851v18.246c0,2.866,0.676,5.05,2.025,6.55c1.349,1.5,3.324,2.249,5.925,2.249
		c2.898,0,5.031-0.765,6.399-2.3c1.366-1.533,2.05-3.999,2.05-7.398l-0.051-13.848c0-1.632-0.267-2.742-0.8-3.324
		c-0.533-0.584-1.549-0.926-3.049-1.026l-1.551-0.199L173.182,4.9h11.697l-0.149,0.851l-1.351,0.199
		c-1.266,0.1-2.125,0.484-2.575,1.15c-0.45,0.668-0.674,1.883-0.674,3.649l-0.051,13.799c-0.065,8.398-4.199,12.596-12.397,12.596
		C158.685,37.145,154.185,33.762,154.185,26.997z"/>
	<path fill="#FFFFFF" d="M186.955,35.295l1.799-0.199c1.433-0.199,2.149-0.499,2.149-0.9V6.75c0-0.199-0.159-0.35-0.474-0.45
		c-0.318-0.1-1.026-0.216-2.125-0.35l-1.301-0.199L186.855,4.9l16.396-0.049c8.799,0,13.199,2.567,13.199,7.7
		c0,1.931-0.659,3.598-1.976,4.999c-1.317,1.4-3.157,2.365-5.524,2.898l6.2,10.15c1.066,1.799,1.875,2.974,2.424,3.523
		s1.341,0.891,2.375,1.026l0.7,0.149l0.199,0.851h-11.947l-1.001-1.999l-6.749-12.999c-0.1-0.033-0.307-0.067-0.625-0.1
		c-0.315-0.033-0.598-0.075-0.849-0.124c-0.25-0.051-0.442-0.108-0.576-0.175v13.547c0,0.434,0.818,0.7,2.45,0.8l1.549,0.199
		l0.151,0.851h-16.447L186.955,35.295z M205.877,17.948c1.25-1.199,1.874-2.898,1.874-5.098c0-2.133-0.643-3.808-1.925-5.025
		c-1.282-1.215-3.008-1.84-5.174-1.875h-1.551v13.748c0.067,0,0.293,0.024,0.676,0.075c0.383,0.049,0.641,0.075,0.775,0.075
		C202.853,19.782,204.626,19.149,205.877,17.948z"/>
	<path fill="#FFFFFF" d="M223.025,35.295l1.799-0.199c1.433-0.199,2.149-0.499,2.149-0.9V6.75c0-0.199-0.159-0.35-0.474-0.45
		c-0.318-0.1-1.026-0.216-2.125-0.35l-1.301-0.199L222.925,4.9l16.396-0.049c8.799,0,13.199,2.567,13.199,7.7
		c0,1.931-0.659,3.598-1.976,4.999c-1.317,1.4-3.157,2.365-5.524,2.898l6.2,10.15c1.066,1.799,1.875,2.974,2.424,3.523
		s1.341,0.891,2.375,1.026l0.7,0.149l0.199,0.851h-11.947l-1.001-1.999l-6.749-12.999c-0.1-0.033-0.307-0.067-0.625-0.1
		c-0.315-0.033-0.598-0.075-0.849-0.124c-0.25-0.051-0.442-0.108-0.576-0.175v13.547c0,0.434,0.818,0.7,2.451,0.8l1.549,0.199
		l0.151,0.851h-16.447L223.025,35.295z M241.947,17.948c1.25-1.199,1.875-2.898,1.875-5.098c0-2.133-0.643-3.808-1.925-5.025
		c-1.282-1.215-3.008-1.84-5.174-1.875h-1.551v13.748c0.067,0,0.293,0.024,0.676,0.075c0.383,0.049,0.641,0.075,0.775,0.075
		C238.922,19.782,240.695,19.149,241.947,17.948z"/>
	<path fill="#FFFFFF" d="M261.795,32.346c-3.151-2.965-4.726-6.881-4.726-11.748c0-4.565,1.75-8.432,5.249-11.597
		c3.501-3.167,7.632-4.75,12.399-4.75c5.098,0,9.224,1.5,12.373,4.5c3.151,3,4.724,6.932,4.724,11.797
		c0,4.6-1.732,8.459-5.198,11.575c-3.466,3.116-7.616,4.673-12.448,4.673C269.067,36.795,264.944,35.313,261.795,32.346z
		 M280.866,32.046c1.333-2.332,2.001-6.116,2.001-11.349c0-5.031-0.735-8.815-2.2-11.349c-1.467-2.532-3.582-3.798-6.35-3.798
		c-2.866,0-4.982,1.174-6.348,3.523c-1.366,2.351-2.05,6.124-2.05,11.324c0,10.097,2.917,15.147,8.748,15.147
		C277.467,35.545,279.533,34.379,280.866,32.046z"/>
	<path fill="#FFFFFF" d="M295.74,10.999c-0.8-1.999-1.459-3.307-1.974-3.924c-0.517-0.617-1.242-0.975-2.176-1.075l-1.099-0.199
		L290.34,4.9h16.698l-0.151,0.902l-1.649,0.1c-1.134,0.065-1.799,0.35-2.001,0.849c-0.199,0.501-0.083,1.284,0.35,2.351
		l6.849,18.297h0.25l5.098-14.098l-0.749-2.349c-0.666-1.801-1.274-3.059-1.824-3.775c-0.552-0.716-1.242-1.107-2.076-1.174
		l-1.449-0.199L309.537,4.9h17.147l-0.151,0.902l-1.498,0.1c-1.168,0.065-1.885,0.332-2.151,0.8
		c-0.267,0.466-0.165,1.382,0.301,2.75l5.748,17.546h0.25l4.199-12.348c0.468-1.333,0.792-2.3,0.975-2.898
		c0.185-0.6,0.368-1.292,0.552-2.076c0.183-0.784,0.232-1.325,0.149-1.624c-0.083-0.301-0.24-0.633-0.474-0.999
		c-0.234-0.368-0.584-0.617-1.05-0.751c-0.466-0.132-1.083-0.25-1.85-0.35l-1.15-0.149L330.334,4.9h11.699l-0.1,0.902l-0.9,0.199
		c-1.702,0.267-2.833,0.824-3.401,1.675c-0.566,0.849-1.533,3.173-2.898,6.973l-7.95,22.046h-2.599l-7.549-21.597h-0.199
		l-8.05,21.597h-2.699L295.74,10.999z"/>
	<path fill="#FFFFFF" d="M342.663,35.146l-0.749-9.149h1.549l2.55,5.799c1.999,2.467,4.415,3.7,7.248,3.7
		c2.033,0,3.574-0.476,4.624-1.425c1.05-0.95,1.575-2.259,1.575-3.926c0-0.798-0.159-1.524-0.474-2.174
		c-0.318-0.649-0.676-1.183-1.075-1.6c-0.401-0.417-1.018-0.841-1.85-1.274c-0.834-0.434-1.524-0.759-2.076-0.975
		c-0.55-0.218-1.39-0.525-2.524-0.926c-2.965-1.032-5.208-2.182-6.725-3.448c-1.516-1.268-2.273-3.118-2.273-5.55
		c0-2.9,1.075-5.282,3.224-7.148c2.149-1.866,4.875-2.801,8.174-2.801c1.966,0,4.382,0.401,7.25,1.201L363.46,4.7l0.151,9.749h-1.4
		l-4.4-8.098c-1.199-0.568-2.583-0.851-4.148-0.851c-1.634,0-2.959,0.425-3.975,1.276c-1.016,0.849-1.524,1.907-1.524,3.173
		c0,0.8,0.167,1.5,0.499,2.1c0.334,0.6,0.918,1.142,1.75,1.624c0.834,0.484,1.559,0.851,2.176,1.101
		c0.617,0.248,1.592,0.607,2.925,1.075c1.498,0.499,2.766,0.991,3.798,1.474c1.034,0.484,2.025,1.117,2.976,1.901
		c0.948,0.782,1.657,1.732,2.125,2.849c0.466,1.115,0.7,2.408,0.7,3.873c0,3.033-1.142,5.599-3.425,7.7s-5.19,3.149-8.723,3.149
		C348.995,36.795,345.564,36.245,342.663,35.146z"/>
</g>
</svg>
