<?xml version="1.0" encoding="utf-8"?>
<!-- Generator: Adobe Illustrator 17.0.0, SVG Export Plug-In . SVG Version: 6.00 Build 0)  -->
<!DOCTYPE svg PUBLIC "-//W3C//DTD SVG 1.1//EN" "http://www.w3.org/Graphics/SVG/1.1/DTD/svg11.dtd">
<svg version="1.1" id="Layer_1" xmlns:sketch="http://www.bohemiancoding.com/sketch/ns"
	 xmlns="http://www.w3.org/2000/svg" xmlns:xlink="http://www.w3.org/1999/xlink" x="0px" y="0px" width="166.645px"
	 height="41.694px" viewBox="0 0 166.645 41.694" enable-background="new 0 0 166.645 41.694" xml:space="preserve">
<title>Imported Layers</title>
<desc>Created with Sketch.</desc>
<g id="Welcome" sketch:type="MSPage">
	<path id="Imported-Layers" sketch:type="MSShapeGroup" fill="#3100FF" d="M160.735,21.223c-0.002-0.403-0.005-0.805-0.009-1.42
		c-1.351-0.159-2.751-0.343-4.153-0.485c-0.717-0.073-1.448-0.127-2.182-0.082c-0.405,0.024-0.911-0.767-1.264,0.276
		c-0.077-0.057-0.147-0.126-0.232-0.172c-1.051-0.586-2.168-0.417-3.433,0.303c-0.062-0.618-0.525-0.801-1.127-0.368
		c-0.375,0.269-0.604,0.749-1.138,1.062c0.09-0.254,0.181-0.507,0.279-0.786c-0.686-0.712-1.263-0.036-1.925,0.524
		c-0.04-0.382-0.077-0.72-0.139-1.309c-0.711,0.951-1.37,1.284-2.098,0.69c0.21-0.083,0.402-0.156,0.695-0.272
		c-0.302-0.727-1.149-0.288-1.739-0.737c-0.23,0.594-0.399,1.034-0.57,1.471c-0.181-0.469-0.361-0.938-0.485-1.261
		c-0.841,0.085-1.57,0.302-2.176,0.184c-0.709-0.137-1.073,0.132-1.508,0.866c0.736-0.064,1.423-0.205,2.063-0.154
		c0.679,0.051,1.316,0.287,1.976,0.436c0.023,0.007,0.078-0.067,0.119-0.102c0.169,0.064,0.359,0.228,0.505,0.177
		c0.717-0.257,1.237-0.08,1.728,0.316c0.748,0.606,1.635,0.856,2.754,0.437c0.106-0.041,0.247,0.078,0.405,0.133
		c-0.421,1.24-1.112,0.031-1.701,0.562c0.323,0.167,0.609,0.312,0.919,0.474c-0.091,0.215-0.186,0.436-0.278,0.651
		c0.85,0.589,0.997-0.262,1.262-0.681c0.755-0.241,1.447-0.463,2.243-0.717c0.867,0.978,2.3,0.862,3.749,0.742l-0.038-0.043
		c0.31,0.342,0.63,0.568,1.166,0.065c0.348-0.325,0.748-0.606,1.09-0.874c0.73,0.38,1.458,0.764,2.327,1.219
		c-1.21,1.027-1.698,2.108-1.002,3.375c-0.758,0.156-1.442,0.457-1.975,0.357c-0.513-0.096-0.869-0.607-1.266-0.913
		c0.122-0.171,0.256-0.359,0.39-0.547c0.777,0.174,0.777,0.174,1.306-0.394c-0.39,0.04-0.68,0.071-0.972,0.099
		c0.069-0.083,0.201-0.178,0.197-0.243c-0.035-0.439-0.098-0.872-0.156-1.342c-0.401,0.036-0.746,0.069-1.162,0.105
		c0.113,0.398,0.201,0.705,0.299,1.054c-0.428,0-0.779,0.002-1.192,0.001c0.014-0.438,0.031-0.886,0.047-1.336
		c-0.085-0.016-0.169-0.032-0.254-0.046c-0.146,0.215-0.295,0.431-0.409,0.597c-0.547-0.139-1.14-0.337-1.767-0.431
		c-0.635-0.093-1.301-0.083-1.995-0.02c0.783,0.319,1.28,0.862,1.6,1.571l0.033-0.038c-1.153-0.157-2.3-0.312-3.531-0.479
		c-0.081,0.462-0.143,0.804-0.202,1.146c0.076,0.023,0.153,0.046,0.229,0.071c0.246-0.267,0.491-0.533,0.787-0.853
		c0.039,0.538,0.073,0.973,0.107,1.439c-1.158-0.162-2.27-0.318-3.312-0.465c-0.218-0.607-0.4-1.12-0.574-1.609
		c-0.642,0.008-0.957,0.208-0.857,0.822c0.012,0.08-0.191,0.224-0.335,0.383c-0.249-0.257-0.42-0.43-0.6-0.614
		c-0.439,0.196-0.859,0.384-1.305,0.585c0.166,0.263,0.32,0.51,0.575,0.915c-1.054,0.035-1.914,0.062-3.101,0.1
		c0.472,0.263,0.636,0.354,0.745,0.417c-0.182,0.234-0.343,0.444-0.646,0.836c0.736,0.001,1.268-0.037,1.776,0.017
		c0.362,0.038,0.824,0.092,1.012,0.329c0.535,0.666,1.172,0.567,1.945,0.231l0.348-1.546c1.149,0.235,2.814-0.539,2.967,1.17
		c0.596,0.119,1.298,0.048,1.585,0.352c0.87,0.917,1.832,0.584,3.023,0.029c-0.633-0.666,0.024-0.981,0.496-1.353l-0.068,0.049
		c0.776-0.241,1.559-0.52,2.592-0.154c-0.519,0.185-0.795,0.283-1.416,0.503c0.669,0.212,1.094,0.348,1.561,0.497
		c0.051,0.233,0.119,0.549,0.188,0.86c1.409-0.179,2.708-0.19,3.873,0.376c0.298,0.147,0.707,0.148,1.079,0.159
		c1.804,0.05,2.163,0.531,1.664,2.251c-0.053,0.188-0.034,0.383-0.055,0.677c-0.861-0.063-1.574-0.077-1.793-0.93
		c-0.067-0.264-0.452-0.414-0.691-0.618c-0.257,0.291-0.514,0.58-0.835,0.942c-0.554-0.134-1.193-0.291-1.905-0.466
		c-0.556-0.322-0.032-1.649-1.044-1.497c-0.344,0.548-0.604,0.964-0.915,1.463c-0.367-0.258-0.6-0.422-1.007-0.709
		c0.145,0.823,0.253,1.419,0.368,2.073c-0.186,0.193-0.455,0.47-0.849,0.877c1.022,0.284,1.9,0.531,2.786,0.778
		c0.044,0.122,0.088,0.244,0.133,0.367c-0.215,0.055-0.474,0.052-0.639,0.174c-1.181,0.865-1.201,0.865-1.372-0.489
		c-0.282,0.16-0.529,0.3-0.823,0.469c-0.523-0.288-1.083-0.596-1.921-1.055c0.675-0.142,0.999-0.208,1.381-0.288
		c-0.085-0.125-0.128-0.285-0.237-0.326c-0.474-0.178-1.183-0.102-0.988-0.99c0.305-0.099,0.64-0.208,0.961-0.314
		c0.024-0.142,0.086-0.304,0.049-0.323c-0.749-0.396-1.488-0.803-2.268-1.137c-0.236-0.101-0.799-0.079-0.869,0.038
		c-0.431,0.73-0.811,0.252-1.257,0.263c-0.65,0.015-1.304-0.615-2.091,0.218c0.825,0.717,1.861,0.6,3.018,0.436
		c-0.432,0.929-0.91,1.553-1.769,1.845c-0.08-0.188-0.098-0.46-0.249-0.554c-0.96-0.601-2.093-0.415-3.239-0.166
		c-0.075,0.515-0.002,0.924,0.674,0.591c0.687-0.337,1.251-0.26,1.85-0.001c0.284,0.124,0.672,0.066,1.014,0.088
		c-0.041,0.366-0.04,0.668,0.451,0.72c0.534,0.058,0.716,0.03,1.327-0.482c0.43,0.725,0.858,1.446,1.343,2.262
		c-0.759,0.137-1.376,0.364-2.008-0.297c-0.495-0.519-1.606-0.429-1.717-1.434c-0.009-0.078-0.297-0.189-0.367-0.144
		c-0.998,0.65-1.637-0.175-2.437-0.299c-0.1,0.1-0.201,0.199-0.3,0.299c0.173,0.339,0.349,0.675,0.522,1.015
		c0.114-0.051,0.227-0.103,0.343-0.154c-0.312,0.008-0.623,0.014-0.998,0.023c0.101,0.187,0.185,0.342,0.268,0.5
		c-0.684,0.49-1.758-0.096-2.28,1.075l0.938,0.086c0.001,1.108,1.023,2.063,0.448,3.411c0.399-0.455,0.801-0.911,1.227-1.397
		c-0.075-0.118-0.188-0.297-0.41-0.649l3.096,0.296c-0.049,0.338-0.089,0.607-0.129,0.878c0.707,0.045,1.413,0.136,1.959-0.814
		c-0.636-0.409-1.246-0.804-1.924-1.239c0.822-0.82,1.59,0.805,2.455-0.322c-0.806-0.142-1.58-0.276-2.351-0.412
		c0.019-0.082,0.036-0.164,0.056-0.244c0.751,0.044,1.51,0.071,2.26,0.147c0.235,0.022,0.58,0.131,0.627,0.294
		c0.332,1.157,1.426,0.959,2.37,1.005c1.382,0.066,2.785,0.077,4.376,0.119c-0.832,1.43-0.409,2.364,0.619,3.106
		c0.256-0.671,0.51-1.332,0.704-1.833c1.323,0.02,2.477,0.265,3.532-0.027c0.716-0.199,1.284-1.162,1.982-1.847
		c-0.396-0.105-0.641-0.168-1.016-0.268c0.413-0.237,0.731-0.421,1.014-0.583c0.432-1.166-1.125-0.202-1.13-0.9
		c1.173-0.755,1.455-0.782,1.91,0.059c0.367,0.675,0.558,1.447,0.862,2.268c-0.356,0.009-0.756,0.02-1.155,0.03
		c-0.014,0.068-0.027,0.136-0.04,0.203l2.246,0.202c-0.694,0.33-1.018,0.485-1.654,0.788l3.018,0.279
		c-0.019,0.102-0.038,0.204-0.056,0.305c-2.213,0.045-4.397,0.089-6.556,0.133c-0.01,0.085-0.025,0.171-0.037,0.258
		c0.741,0.007,1.5-0.042,2.226,0.042c0.743,0.084,1.705-0.108,1.989,0.783c-0.563,0.678-0.859,0.14-1.263-0.009
		c-0.878-0.325-1.06-0.227-1.564,0.724c-0.522,0.06-1.047,0.114-1.672,0.179c0.69,0.264,1.304,0.497,2.243,0.854
		c-0.331-0.579-0.468-0.819-0.606-1.058c0.696,0.218,1.396,0.436,2.139,0.669c0.228-0.295,0.423-0.545,0.674-0.865l2.412,0.238
		c0.288,0.71-0.637,0.691-1.133,1.097c0.732,0.168,1.281,0.292,1.831,0.418c-0.018,0.074-0.035,0.149-0.055,0.221
		c-1.676-0.105-3.336-0.207-4.983-0.311c-0.76-0.049-1.589,0.039-2.247-0.194c-0.596-0.21-0.444,0.877-0.984,0.405
		c-0.288-0.25-0.617-0.471-0.967-0.645c-0.629-0.316-1.5-0.055-2.131,0.664c-0.755-0.305-1.535-0.619-2.299-0.935
		c0.347-0.224,0.688-0.449,1.197-0.784c-0.782-0.204-1.316-0.397-1.964,0.12c0.314,0.259,0.558,0.46,0.802,0.662
		c-0.972,0.16-1.882,0.179-2.383-0.65c-0.453,0.147-0.431,0.762-1.162,0.575c-0.68-0.172-1.579,0.223-2.376,0.367l0.021,0.023
		c-0.8-0.842-1.971-0.693-3.053-0.746c-0.441-0.021-0.893,0.033-1.333,0.017c-0.189-0.006-0.515-0.07-0.523-0.155
		c-0.111-1.318-1.288-1.003-2.126-1.201c-0.214-0.052-0.395-0.2-0.669-0.344c0.288-0.427,0.532-0.788,0.799-1.185
		c-0.178-0.156-0.322-0.391-0.441-0.366c-1.261,0.25-2.507,0.541-3.716,0.811c-0.089,0.881,0.581,0.513,0.872,0.698
		c0.284,0.18,0.538,0.401,0.687,0.812l-2.106-0.221c-0.016,0.503-0.032,0.976-0.051,1.564c-0.658-0.004-1.455-0.007-2.247-0.01
		c-0.018-0.102-0.035-0.206-0.053-0.309c0.329-0.153,0.658-0.308,0.98-0.458c-0.555-0.435-0.764-1.389-1.89-0.917
		c-0.143,0.553-0.569,0.999-1.458,0.892c0.288-0.141,0.504-0.247,0.692-0.34c-0.085-0.975-1.732,0.113-1.479-1.333
		c0.751,0.182,1.519-0.822,2.24-0.045c0.014,0.016,0.32-0.24,0.539-0.408c-1.711-0.866-3.358-1.217-5.377-0.131
		c0.426,0.301,0.762,0.541,1.324,0.94c-0.993,0.005-1.738,0.069-2.447-0.02c-0.237-0.029-0.386-0.443-0.642-0.765
		c-0.435,0.213-0.927,1.092-1.514,0.547c-0.289-0.267-0.273-0.873-0.413-1.395c0.409-0.096,0.664-0.158,1.009-0.238
		c-0.115-0.084-0.199-0.126-0.261-0.192c-0.404-0.415-0.388-0.821,0.016-1.164c0.307-0.259,0.598-0.541,0.837-0.759
		c0.375,0.33,0.753,0.664,1.13,0.998l-0.03-0.056l-0.261,1.253c0.538-0.197,0.881-0.32,1.224-0.447
		c0.339-0.003,0.68-0.005,1.021-0.008c0.538,0.508,0.743-0.337,1.137-0.412c2.373,0.994,3.225,0.752,3.537-0.96
		c-0.753,0.056-1.51,0.132-2.258,0.157c-0.579,0.02-1.004-0.184-1.318-0.706c-0.228-0.38-0.709-0.583-1.129-0.902
		c0.205-0.279,0.391-0.532,0.567-0.77c-0.515-0.728-1.31,0.748-1.796-0.131c0.179-0.217,0.371-0.449,0.519-0.629
		c-0.926-0.152-1.805-0.296-2.834-0.465c0.158-0.605,0.282-1.084,0.435-1.672c0.616,0.007,1.302,0.016,1.983,0.026
		c0.022-0.055,0.058-0.102,0.049-0.124c-0.171-0.412-0.256-0.914-0.546-1.204c-0.353-0.35-0.89-0.499-1.32-0.77
		c-0.152-0.094-0.232-0.298-0.346-0.452c-0.891,0.651-0.09,1.239-0.362,1.933c-1.31,0.275-1.63,1.297-1.686,2.581
		c0.699-0.124,1.302,0.468,2.106-0.055c0.097-0.064,0.434,0.323,0.831,0.634c-0.465,0.1-0.733,0.158-1.017,0.219l-0.489,2.376
		c-0.395-0.414-0.668-0.647-0.879-0.93c-0.653-0.87-1.52-1.487-2.453-1.948c-0.743-0.367-1.643-0.391-2.531-0.263
		c-0.352,0.051-0.705,0.047-1.179,0.076c0.788,0.428,0.788,0.428,0.371,0.959c0.23,0.36,0.455,0.708,0.68,1.06
		c-0.075,0.091-0.152,0.185-0.227,0.275c-0.243-0.135-0.582-0.203-0.71-0.422c-0.361-0.618-0.755-1.128-1.491-1.285
		c-0.206-0.046-0.34-0.333-0.518-0.519c0.139-0.233,0.264-0.443,0.437-0.733c-0.532-0.014-0.978-0.025-1.42-0.037
		c-0.688,0.991-0.599,1.732,0.283,2.364c0.184,0.132,0.51,0.236,0.526,0.407c0.11,1.132,0.954,1.089,1.68,0.921
		c1.006-0.233,1.933-0.087,2.899-0.028c0.293,0.017,0.617-0.132,0.926-0.206c-0.004-0.09-0.007-0.181-0.011-0.27
		c-0.164-0.016-0.342-0.089-0.492-0.038c-0.977,0.338-1.084,0.276-1.009-0.692c0.013-0.176,0.068-0.353,0.1-0.512
		c1.127-0.555,1.08-0.517,1.714,0.393c0.422,0.606,1.007,1.084,1.602,1.707c-0.325,0.255-0.63,0.507-0.945,0.741
		c-0.694,0.516-1.32-0.246-2.108,0.204c-0.54,0.307-1.323,0.106-1.984,0.064c-0.221-0.013-0.408-0.235-0.608-0.36
		c-0.21,0.161-0.412,0.315-0.68,0.519c-0.156-0.362-0.284-0.659-0.479-1.108c-0.497,0.382-0.955,0.735-1.461,1.125
		c-0.123-0.372-0.235-0.709-0.316-0.958c-0.718,0.149-1.35,0.278-2.054,0.424c-0.038,0.158-0.095,0.404-0.158,0.668
		c-0.888,0.429-1.558-0.05-2.258-0.383c0.04-0.118,0.102-0.239,0.118-0.361c0.008-0.072-0.053-0.148-0.096-0.254
		c-0.1-0.01-0.227-0.067-0.331-0.028c-0.624,0.24-1.119,0.181-1.419-0.457c-0.048-0.101-0.172-0.248-0.244-0.23
		c-1.03,0.259-1.558-0.946-2.726-0.585c0.388-0.66,0.668-1.137,0.966-1.645c0.733,0.078-0.082,0.69,0.171,1.046
		c0.506,0.001,1,0.396,1.635-0.289c0.206-0.222,0.859,0.045,1.493,0.105c0.123-0.218,0.323-0.57,0.619-1.094
		c-0.592,0.063-1.013,0.202-1.373,0.125c-0.589-0.128-1.259-0.249-1.656-0.647c-0.278-0.275-0.208-1.004-0.213-1.54
		c-0.005-0.656,0.075-1.323,0.117-1.967c-1.8-0.053-1.8-0.053-1.958,1.305c0.388,0.173,0.923,0.007,1.229,0.423
		c-0.746,0.134-1.451,0.262-2.15,0.389c-0.02,0.086-0.042,0.172-0.061,0.258c0.227,0.124,0.456,0.248,0.759,0.412
		c-0.651,0.472-0.648,1.185-0.827,1.833c-0.212-0.052-0.516-0.231-0.611-0.138c-0.408,0.399-0.66,0.403-1.088,0.086
		c-0.338-0.248-0.902-0.195-1.429,0.261c0.717,0.236,1.337,0.443,1.861,0.617c0.495-0.326,0.895-0.587,1.298-0.85
		c-0.062,0.472-0.121,0.943-0.189,1.468c0.175,0.168,0.423,0.405,0.856,0.821c-1.462,0.324-2.583-0.012-3.733,0.105
		c-1.059,0.109-2.12-0.376-3.357-0.055c-0.281-0.367-0.68-0.887-1.176-1.534c0.932-0.151,1.275-0.779,1.312-1.651
		c0.013-0.295,0.254-0.684-0.248-0.762c-0.074-0.012-0.03-0.56-0.042-0.898c-1.002-0.79-1.002-0.79-1.706-0.46
		c0.173,0.2,0.332,0.38,0.52,0.595c-0.627,0.208-1.207,0.403-1.916,0.638c0.563,0.401,1.023,0.728,1.485,1.056l-0.026-0.041
		c-0.091,0.634-0.408,0.917-0.943,0.797c-0.63-0.143-1.245-0.333-1.871-0.466c-0.508-0.109-1.027-0.164-1.598-0.021
		c0.613,0.245,1.205,0.649,1.852,0.698c0.845,0.061,1.32,0.561,1.815,1.313c-1.149,1.231-2.139,0.333-3.159,0.137
		c0.209-0.822,0.143-0.981-0.705-1.574c0.089,0.265,0.141,0.425,0.214,0.648c-1.105,0.367-1.926-1.159-3.255-0.157
		c0.514,0.099,0.578,0.951,1.215,0.331c0.057-0.056,0.248,0.056,0.365,0.117c0.445,0.232,0.886,0.476,1.189,0.639
		c-0.248,0.107-0.631,0.324-1.027,0.426c-0.261,0.067-0.538-0.046-0.811-0.044c-0.495,0.003-1.019-0.332-1.46,0.314l0.036-0.02
		c-0.436-0.15-0.86-0.395-1.31-0.42c-0.412-0.023-0.852,0.192-1.181,0.276c-0.3,0.473-0.502,0.991-0.836,1.249
		c-0.226,0.176-0.642,0.027-0.961-0.034c-0.776-0.149-1.532-0.371-2.305-0.484c-0.514-0.075-0.754-0.42-0.853-1.103
		c-0.223,0.238-0.349,0.375-0.569,0.613c-0.157-0.054-0.414-0.159-0.678-0.229c-0.258-0.067-0.524-0.097-0.839-0.151
		c0.422,2.277,0.422,2.277-0.126,2.947c0.229,0.238,0.456,0.473,0.739,0.768c0.611-0.616,1.252-0.471,1.912-0.095
		c-0.152,0.045-0.304,0.112-0.457,0.131c-0.164,0.019-0.336-0.059-0.488-0.006c-0.934,0.328-1.554-0.184-2.247-0.756
		c-0.468-0.387-1.179-0.41-1.794-0.481c-0.465-0.053-0.596-0.287-0.511-0.804c0.279,0.082,0.557,0.161,0.836,0.244
		c0.011-0.078,0.023-0.155,0.036-0.232c-0.29-0.004-0.58-0.009-0.87-0.013c-0.227-0.131-0.469-0.258-0.147-0.628
		c0.296,0.094,0.599,0.31,0.89,0.262c0.756-0.13,1.259,0.178,1.507,1.013c0.542-0.466,0.739-1.346,0.476-1.896
		c-0.256-0.536-1.092-0.633-1.618-0.19l0.035-0.034c-0.468-0.164-0.923-0.375-1.401-0.475c-0.312-0.065-0.554,0.155-0.514,0.567
		c0.237,0.288,0.447,0.539,0.657,0.793c-0.544-0.084-1.084-0.33-1.581,0.356c-0.093,0.13-0.4,0.031-0.781,0.042
		c0.298-0.584,0.522-1.019,0.784-1.534c-0.534-0.034-0.856-1.074-1.576-0.09c0.247,0.163,0.458,0.305,0.715,0.475
		c-0.243,0.391-0.452,0.724-0.687,1.1c-0.151-0.07-0.311-0.142-0.517-0.237c-0.012,0.176-0.073,0.399-0.021,0.446
		c0.223,0.208,0.48,0.364,0.808,0.598c-1.008-0.068-1.949-0.131-2.918-0.198c0.008-0.366,0.013-0.606,0.017-0.816
		c-0.347-0.14-0.68-0.202-0.948-0.393c-0.95-0.674-0.968-0.689-1.762,0.117c0.004-0.139,0.007-0.28,0.011-0.465
		c-0.681-0.173-1.033,0.758-1.606,0.86l0.003-0.001c-0.211-0.376-0.422-0.75-0.643-1.147c-0.202,0.072-0.395,0.081-0.532,0.199
		c-0.783,0.683-1.468,0.469-2.105-0.134c-0.23-0.219-0.417-0.354-0.664,0.147c0.176,0.117,0.342,0.23,0.597,0.402
		c-0.481,0.315-0.864,0.565-1.362,0.89c-0.475-0.07-0.611-0.714-0.774-1.335c-0.757-0.005-0.167,0.867-0.664,1.218
		c-0.272-0.009-0.698-0.026-1.091-0.04c-0.437-0.592,0.803-0.844,0.167-1.426c-0.195,0.021-0.411,0.072-0.621,0.059
		c-0.184-0.011-0.362-0.093-0.686-0.184c0.205,0.467,0.346,0.792,0.557,1.276c-0.843-0.046-1.567-0.084-2.414-0.13
		c0.023,0.034-0.076-0.051-0.104-0.168c-0.147-0.616-0.266-1.242-0.955-0.908c-0.055,0.027-0.167-0.192-0.258-0.308
		c0.246-0.473,0.539-0.4,0.832-0.368c0.147,0.123,0.287,0.249,0.495,0.435c-0.13-0.471-0.13-0.471-0.512-0.421
		c0.37-0.391,0.359-0.844,0.181-1.398c-0.175,0.164-0.319,0.381-0.484,0.432c-0.173,0.053-0.38-0.011-0.549-0.095
		c-0.396-0.198-0.703-0.02-1.017,0.452c0.147,0.113,0.286,0.22,0.338,0.261c-0.029,0.431-0.053,0.778-0.081,1.175l-0.468-0.056
		c0.115,0.254,0.201,0.442,0.295,0.651c-0.865,0.352-1.484,0.059-1.962-0.82c-0.057-0.105-0.492-0.024-0.517,0.067
		c-0.141,0.536-0.465,0.322-0.735,0.404c0.108-0.187,0.218-0.373,0.327-0.56c-0.454-0.5-0.894-0.121-1.337,0.133
		c0.006,0.194,0.012,0.373,0.019,0.583l-1.21-0.156c-0.008,0.044-0.016,0.089-0.025,0.133c0.153,0.132,0.307,0.263,0.478,0.41
		c-0.06,0.071-0.105,0.147-0.119,0.139c-0.374-0.233-0.91-0.12-1.045-0.873c-0.013-0.073-0.178-0.078-0.27-0.127
		c-0.362-0.194-0.722-0.392-1.083-0.587c-0.091-0.05-0.179-0.13-0.274-0.146c-0.878-0.15-1.751-0.29-2.618-0.424
		c-0.034-0.006-0.077,0.065-0.209,0.185c0.249,0.106,0.456,0.306,0.627,0.247c0.555-0.192,0.706,0.319,0.883,0.822l-0.001-0.006
		c-0.38-0.32-0.822-0.001-1.23-0.151c-0.307-0.112-0.669,0.042-1.002,0.026c-0.333-0.016-0.416,0.242-0.432,0.615
		c-0.131-0.17-0.246-0.452-0.397-0.486c-0.491-0.11-0.993-0.17-1.491-0.168c-0.278,0.002-0.562,0.163-0.842,0.251
		c0.005,0.073,0.01,0.147,0.015,0.218c0.432,0.057,0.864,0.14,1.3,0.169c0.469,0.029,0.943,0.007,1.418,0.009
		c0.297,0.061,0.593,0.123,0.891,0.185c-0.901,0.505-1.741,0.01-2.598-0.005c-0.868-0.014-1.726-0.102-2.582-0.11
		c-0.823-0.007-1.601-0.329-2.409-0.38c-0.833-0.052-1.655-0.211-2.461-0.508c0.332,0.037,0.666,0.08,1,0.113
		c0.177,0.016,0.356,0.014,0.535,0.018c0.404,0.011,0.827-0.076,1.212,0.049c0.789,0.258,1.568,0.149,2.365-0.101
		c0.104-0.032,0.22,0.047,0.329,0.035c0.192-0.022,0.384-0.078,0.706-0.146c-0.161-0.235-0.216-0.388-0.274-0.387
		c-0.448,0.005-0.881-0.172-1.335-0.033c-0.25,0.077-0.511,0.253-0.743-0.152c-0.1-0.175-0.379-0.133-0.604-0.199
		c-0.084,0.772-0.429,0.48-0.737,0.56c-0.655,0.172-1.218-0.2-1.819-0.359c0.11,0.005,0.233-0.031,0.328,0.024
		c0.393,0.227,0.805-0.036,1.212,0.032c0.167,0.028,0.267-0.331,0.062-0.672c-0.221,0.434-0.519,0.622-0.847,0.396
		c-0.259-0.179-0.568,0.067-0.829-0.354c-0.218-0.351-0.627-0.444-1.047-0.315c-0.5,0.154-1.021,0.11-1.594,0.158
		c0.14,0.288,0.241,0.493,0.347,0.711c-0.195,0.127-0.354,0.234-0.515,0.334c-0.046,0.029-0.137,0.066-0.139,0.057
		c-0.137-0.524-0.512-0.205-0.735-0.416c-0.05-0.048-0.159-0.089-0.182-0.052c-0.422,0.675-0.831,0.05-1.241,0.062
		c-0.265,0.008-0.53,0.052-0.796,0.148c0.932,0.662,1.947,0.8,2.962,0.977c0.03,0.67,0.291,1.024,0.686,0.973
		c0.138-0.019,0.277,0.018,0.416,0.028c0.683,0.27,1.369,0.54,2.06,0.81l-0.478-0.069c-0.008,0.047-0.015,0.095-0.023,0.142
		c0.164,0.075,0.327,0.151,0.509,0.235c-0.011-0.153-0.017-0.244-0.024-0.336l1.185,0.171c-0.119-0.72-0.608-0.113-0.678-0.355
		c-0.172-0.592-0.521-0.305-0.778-0.414c-0.27-0.116-0.566-0.118-0.852-0.146c-0.307-0.029-0.615-0.028-0.923-0.039
		c0.095-0.198,0.189-0.396,0.247-0.519c0.258,0.124,0.502,0.337,0.754,0.342c0.579,0.009,1.183,0.346,1.747-0.327
		c0.095-0.113,0.431,0.009,0.556,0.177c0.511,0.682,1.07,0.799,1.777,0.6c0.424-0.119,0.895,0.145,1.342,0.264
		c0.182,0.047,0.308,0.152,0.471-0.178c0.076-0.157,0.406-0.071,0.705-0.103c-0.115,0.232-0.161,0.325-0.215,0.436
		c0.066,0.033,0.159,0.116,0.185,0.086c0.404-0.476,0.836-0.246,1.268-0.209c0.493,0.042,0.992,0.072,1.491,0.052
		c0.575-0.023,1.378,0.414,1.703,1.067c-1.226-0.026-2.363-0.525-3.643-0.243c0.583,0.297,1.042,0.583,1.526,0.757
		c0.234,0.084,0.565,0.072,0.761-0.104c0.38-0.345,0.519-0.2,0.612,0.308c0.016,0.091,0.069,0.167,0.134,0.32
		c-0.688-0.025-1.331-0.039-1.969-0.075c-0.113-0.007-0.258-0.06-0.324-0.168c-0.225-0.38-0.496-0.252-0.781-0.187
		c-0.646,0.146-1.313-0.028-1.935,0.397c-0.081,0.054-0.257-0.013-0.319-0.112c-0.253-0.406-0.612-0.475-0.937-0.662
		c-0.311-0.178-0.578-0.21-0.908,0.033c-0.189,0.139-0.503,0.101-0.703-0.029c-0.772-0.497-1.589-0.609-2.412-0.667
		c-0.081-0.006-0.164,0.039-0.267,0.066c0.349,0.527,0.484,0.6,1.018,0.665c0.532,0.063,1.063,0.156,1.616,0.355
		c-0.101,0.061-0.21,0.189-0.303,0.173c-0.487-0.091-0.965-0.245-1.449-0.321c-0.277-0.044-0.565,0.052-0.843,0.028
		c-1.136-0.101-2.262-0.186-3.369-0.349c-0.543-0.082-1.069-0.329-1.601-0.492c-0.162-0.05-0.327-0.108-0.492-0.105
		c-0.46,0.007-0.932,0.148-1.374,0.048c-1.052-0.242-2.136-0.092-3.133-0.68c-0.229-0.135-0.508-0.069-0.76-0.123
		c-0.152-0.033-0.298-0.119-0.534-0.217c0.331-0.334,0.565-0.032,0.797-0.059c0.257-0.031,0.514-0.07,0.873-0.122
		c-0.183-0.131-0.277-0.199-0.373-0.268c0.05-0.083,0.097-0.16,0.25-0.411c-0.314,0.094-0.495,0.147-0.742,0.221
		c0.061-0.22,0.081-0.472,0.167-0.548c0.097-0.086,0.263-0.057,0.381,0.004c0.295,0.153,0.58,0.35,0.895,0.546
		c-0.116,0.212-0.173,0.318-0.295,0.543c1.1-0.591,2.129-0.244,3.193-0.25c-0.104-0.112-0.209-0.225-0.382-0.411
		c0.376-0.054,0.705,0.01,0.923-0.425c0.244,0.017,0.486,0.036,0.729,0.054c-0.255-0.299-0.508-0.367-0.743-0.029
		c-0.007-0.549-0.273-0.661-0.557-0.69c-0.223-0.023-0.451,0.022-0.758,0.043c0.13,0.143,0.201,0.22,0.333,0.366
		c-0.169,0.005-0.277,0.007-0.365,0.008c-0.348-0.625,0.052-1.091,0.119-1.578c0.168,0.169,0.33,0.333,0.555,0.558
		c-0.037-0.491-0.061-0.807-0.088-1.151c-0.914,0.135-1.841,0.272-2.757,0.407c0.673,0.813,0.673,0.813,1.141,0.146
		c0.011,0.31,0.021,0.601,0.032,0.898c0.207,0.119,0.393,0.227,0.714,0.412c-0.236,0.093-0.344,0.185-0.437,0.164
		c-0.537-0.123-1.066-0.279-1.597-0.407c-0.134-0.032-0.277-0.03-0.412,0.003c-0.6,0.143-1.18,0.054-1.744-0.211
		c-0.028-0.014-0.041-0.096-0.089-0.22c0.155-0.152,0.515,0.07,0.473-0.477c-0.154-0.052-0.309-0.105-0.487-0.164
		c-0.08,0.136-0.172,0.428-0.31,0.499c-0.25,0.129-0.004,0.698-0.332,0.747c-0.048,0.007-0.148,0.235-0.248,0.085
		c-0.262-0.393-0.367-0.06-0.498,0.269c0.083,0.141,0.17,0.289,0.302,0.513l-0.721-0.106c0.031-0.109,0.064-0.218,0.105-0.361
		c-0.196,0.013-0.379,0.027-0.561,0.041c-0.003,0.056-0.005,0.111-0.007,0.166c0.161,0.044,0.321,0.088,0.482,0.133
		c-0.07,0.165-0.098,0.449-0.292,0.299c-0.169-0.13-0.357-0.241-0.488-0.437c-0.213-0.317-0.494-0.294-0.629-0.049
		c-0.39,0.706-0.903,0.604-1.382,0.707c-0.353,0.076-0.71,0.075-0.986,0.101c-0.319-0.245-0.587-0.45-0.854-0.654
		c0.35,0.057,0.69,0.039,1.109-0.368c-0.255-0.212-0.432-0.359-0.652-0.542c0.177-0.252,0.292-0.066,0.419-0.01
		c0.289,0.128,0.583,0.242,0.88,0.324c0.088,0.023,0.191-0.087,0.288-0.137c-0.059-0.128-0.102-0.312-0.182-0.372
		c-0.221-0.166-0.452-0.318-0.689-0.406c-0.238-0.09-0.49-0.087-0.733-0.143c-0.215-0.049-0.427-0.121-0.638-0.183
		c-0.091,0.516,0.274,0.329,0.368,0.574c-0.562,0.301-0.562,0.301-1.133,0.15c-0.142,0.335-0.272,0.642-0.402,0.95
		c-0.038-0.011-0.076-0.021-0.114-0.031c-0.029-0.408-0.057-0.815-0.085-1.223c-0.031-0.057-0.062-0.113-0.093-0.171
		c-0.061,0.175-0.121,0.35-0.181,0.524c-0.016-0.02-0.031-0.039-0.047-0.059l0.031-0.454c-0.297-0.455-0.746-0.41-1.034-0.872
		c-0.056-0.089-0.239,0.005-0.356,0.057c-0.026,0.011-0.023,0.203-0.037,0.349c0.211,0.046,0.395,0.087,0.58,0.128
		c-0.3,0.307-0.596,0.508-0.961,0.333c-0.017-0.316-0.053-0.635-0.046-0.951c0.009-0.376,0.219-0.751,0.411-0.685
		c0.503,0.17,0.957-0.323,1.453-0.214c0.031-0.065,0.061-0.131,0.091-0.195c-0.095-0.079-0.189-0.157-0.261-0.218
		c0.018-0.485,0.492-0.518,0.346-1.065c0.108,0.122,0.216,0.241,0.324,0.36c0.094,0.766,0.544,0.39,0.819,0.627
		c-0.024,0.132-0.049,0.267-0.096,0.525c0.742,0.169,1.476,0.338,2.214,0.507c-0.118,0.105-0.236,0.21-0.424,0.377
		c0.192,0.092,0.346,0.093,0.408,0.214c0.076,0.146,0.076,0.394,0.118,0.662c0.24-0.516,0.434-0.932,0.625-1.342
		c-0.068-0.063-0.188-0.175-0.308-0.285c0.008-0.047,0.016-0.094,0.024-0.142c0.282-0.009,0.566-0.017,0.873-0.027
		c-0.069,0.29-0.119,0.505-0.179,0.763c0.282,0.145,0.53,0.272,0.874,0.448c-0.483,0.03-0.874,0.056-1.275,0.082
		c0.065,0.583,0.283,0.727,0.586,0.709c0.322-0.02,0.647-0.121,0.945,0.222c0.082,0.095,0.278-0.043,0.38-0.065
		c-0.083-0.685,0.242-0.929,0.437-1.312c-0.202-0.528-0.566-0.205-0.84-0.343c-0.005-0.134-0.011-0.269-0.018-0.446
		c-0.152,0.12-0.285,0.227-0.479,0.38c-0.039-0.319-0.07-0.559-0.104-0.844c-0.169-0.114-0.373-0.253-0.58-0.391
		c-0.102,0.19-0.184,0.343-0.278,0.519c-0.124-0.184-0.226-0.336-0.327-0.487c-0.118,0.081-0.216,0.122-0.293,0.209
		c-0.544,0.621-1.07,0.514-1.596,0.03c-0.078-0.071-0.182-0.17-0.255-0.136c-0.325,0.148-0.473-0.238-0.668-0.483
		c0.072,0.029,0.145,0.091,0.215,0.079c0.32-0.055,0.622-0.097,0.871,0.338c0.082,0.142,0.266,0.133,0.379,0.183
		c0.111-0.415,0.199-0.744,0.31-1.159c-0.387,0.195-0.741,0.05-1.094,0.059c-0.223,0.006-0.45,0.336-0.674,0.52
		c-0.201,0.009-0.402,0.018-0.601,0.026c0.114-0.788,0.485-0.351,0.808-0.366c-0.53-0.587-0.802-0.567-1.112,0.006
		c-0.346,0.322-0.69,0.642-1.033,0.962c0.148-0.448,0.254-0.932,0.622-0.969c0.086-0.009,0.198-0.194,0.246-0.342
		c0.064-0.196,0.14-0.484,0.094-0.641c-0.047-0.161-0.238-0.309-0.359-0.29c-0.265,0.041-0.525,0.191-0.778,0.445
		c0.167,0.006,0.334,0.01,0.501,0.015c-0.14,1.133-0.574,1.554-1.203,1.19c-0.203-0.116-0.413-0.204-0.685-0.337
		c0.274-0.086,0.395-0.309,0.512-0.68c0.102-0.322,0.447-0.449,0.714-0.689c-0.25-0.481-0.785-0.036-0.892-0.679
		c0.526-0.258,1.04-0.511,1.557-0.765c0.017-0.073,0.034-0.147,0.051-0.22c-0.137-0.14-0.275-0.279-0.414-0.42
		c0.225-0.278,0.352-0.539,0.503-0.593c0.148-0.054,0.321,0.102,0.498,0.088c-0.245-0.563-0.641-0.507-0.98-0.501
		c-0.501,0.008-0.826-0.474-1.305-0.773c0.448-0.256,0.759-0.503,0.902-1.152c0.037-0.167,0.248-0.243,0.398-0.38
		c-0.214-0.298-0.453-0.045-0.711-0.039c-0.015-0.153-0.03-0.31-0.046-0.467l-0.01,0.015c0.247-0.016,0.495-0.032,0.752-0.048
		c-0.108-0.208-0.231-0.447-0.333-0.643c0.285-0.166,0.524-0.305,0.791-0.46c-0.21-0.636-0.434-0.206-0.635-0.142
		c-0.163-0.227-0.134-0.755-0.444-0.77c-0.005,0.001,0.006-0.337,0.013-0.708c0.364,0.584,0.736,0.715,1.131,0.649
		c0.033,0.318,0.011,0.632,0.098,0.778c0.074,0.126,0.279,0.024,0.413,0.086c0.536,0.249,1.109-0.098,1.652,0.111
		c0.015,0.006,0.047-0.081,0.071-0.125c-0.236-0.25-1.165-0.488-1.891-0.477l0.04-0.602c-0.144-0.169-0.298-0.351-0.441-0.518
		c0.091-0.089,0.186-0.179,0.289-0.28c-0.034-0.062-0.054-0.126-0.07-0.122c-0.166,0.041-0.356,0.023-0.488,0.159
		c-0.22,0.229-0.295-0.039-0.435-0.188c0.064-0.188,0.126-0.372,0.196-0.581c0.473,0.036,0.944,0.072,1.42,0.105
		c0.104,0.138,0.208,0.278,0.323,0.432c0.408-0.254,0.812-0.505,1.218-0.758c-0.448-0.119-0.876-0.091-1.3-0.008
		c-0.089,0.018-0.169,0.238-0.254,0.364c-0.357-0.917-0.932-0.906-1.514-0.776c-0.699,0.157-1.392,0.36-2.081,0.541
		c-0.32-0.395-0.607,0.122-0.909,0.172c-0.32,0.054-0.64,0.127-0.958,0.189c-0.042,0.004-0.097,0.025-0.121-0.007
		c-0.047-0.065-0.076-0.163-0.13-0.29c0.333-0.143,0.718-0.125,0.914-0.436c0.301-0.478,0.674,0.125,0.877-0.476
		c-0.09-0.106-0.219-0.257-0.433-0.51c0.318-0.259,0.555-0.451,0.807-0.656c-0.072-0.195-0.131-0.401-0.215-0.57
		c-0.168-0.333-0.396-0.328-0.612-0.012c-0.31,0.455-0.316,0.459-0.464-0.148c-0.116-0.476-0.214-0.965-0.323-1.461
		c0.146-0.269,0.295-0.544,0.43-0.792c-0.135-0.144-0.269-0.289-0.507-0.544c0.327-0.198,0.534-0.323,0.809-0.49
		c-0.514-0.022-0.926,0.103-1.288,0.753c0.069,0.21,0.14,0.427,0.21,0.64C5.59,15.635,5.44,16.143,5.3,16.616
		c0.227,0.352,0.408,0.633,0.609,0.944c-0.46,0.244-0.846,0.448-1.333,0.707c0.167,0.241,0.245,0.354,0.339,0.49
		c-0.085,0.201-0.185,0.438-0.301,0.711C4.419,19.387,4.223,19.307,4,19.215c0.027-0.22,0.016-0.458,0.08-0.606
		c0.486-1.14,0.514-1.317,0.306-2.277c0.222-0.371,0.432-0.724,0.649-1.084c-0.079-0.193-0.126-0.308-0.196-0.479
		c-0.062,0.245-0.108,0.424-0.152,0.597c-0.207,0.006-0.402,0.011-0.626,0.018c-0.002-0.166-0.003-0.336-0.005-0.523
		c0.846-0.7,1.758-1.181,2.514-2.311c-0.196-0.857,0.486-0.817,0.639-1.46c-0.489-0.143-0.976-0.108-1.47,0.064
		c-0.408,0.143-0.409,0.134-0.771-0.332c0.295-0.611,0.686-0.628,1.144-0.698c-0.103,0.254-0.173,0.428-0.27,0.667
		c0.31-0.069,0.59-0.056,0.665-0.683c0.542-0.447,0.98-1.423,1.632-1.337c0.645,0.085,1.15-0.482,1.634-1.059
		c0.768-0.917,1.604-1.507,2.491-1.974c0.3-0.159,0.593-0.383,0.9-0.585l0.039-0.581c1.031,0.236,1.909-0.551,2.882-1.668
		c-0.41-0.105-0.727-0.149-1.024-0.274c-0.282-0.115-0.544-0.316-0.862-0.507c0.288-0.562,0.595-0.216,0.86-0.377
		c0.286-0.173,0.593-0.229,0.892-0.311c0.298-0.081,0.599-0.132,0.92-0.201c-0.002-0.261-0.003-0.476-0.004-0.683
		c0.056-0.039,0.099-0.096,0.129-0.085c0.697,0.254,1.418-0.219,2.133-0.285c0.263-0.024,0.51-0.175,0.753,0.126
		c0.127,0.158,0.406,0.022,0.668,0.017c-0.468,0.406-0.883,0.763-1.352,1.169c0.162,0.223,0.258,0.355,0.384,0.527
		c-0.078,0.041-0.139,0.108-0.173,0.087c-0.465-0.301-0.902-0.196-1.345,0.471c0.34,0.654,0.859,0.715,1.344,0.876
		c0.514,0.17,1.006-0.101,1.502-0.563c0.003,0.15,0.004,0.241,0.008,0.404c0.196-0.071,0.394-0.142,0.616-0.222
		c0.083,0.116,0.154,0.304,0.26,0.345c0.16,0.062,0.377,0.127,0.511,0.005c0.761-0.688,0.756-0.707,1.251,0.077
		c0.369-0.079,0.765-0.016,0.947-0.529c0.468-0.046,0.858-0.084,1.376-0.134c-0.206-0.457-0.24-0.816-0.099-1.177
		c-0.355-0.272-0.671-0.515-1.053-0.808c0.357-0.526,0.871-0.561,0.934-1.325c0.002-0.023,0.154-0.048,0.237-0.072
		c0.003,0.152,0.006,0.304,0.009,0.468c0.723-0.329,1.218,0.473,1.884,0.582c-0.019-0.185-0.032-0.325-0.051-0.518
		c0.573-0.211,0.455,1.296,1.148,0.724c-0.027-0.353,0.296-0.877-0.071-1.263c-0.048-0.05-0.034-0.369,0.023-0.458
		c0.087-0.137,0.253-0.271,0.355-0.248c0.189,0.044,0.355,0.205,0.583,0.349c-0.19,0.468-0.381,0.886-0.529,1.33
		c-0.055,0.162-0.061,0.469,0.004,0.562c0.076,0.108,0.214,0.044,0.381-0.079c0.276-0.201,0.634-0.317,0.978-0.137
		c0.718,0.377,1.467,0.612,2.242-0.417c0.15-0.199,0.398-0.24,0.603-0.327c0.182-0.079,0.398-0.046,0.548-0.196
		c0.279-0.277,0.475-0.371,0.646,0.055c0.032,0.081,0.163,0.095,0.251,0.085c0.52-0.056,1.045-0.071,1.568-0.216
		c0.293-0.081,0.503-0.074,0.704,0.2c0.316,0.43,0.774,0.36,1.197,0.415c0.049,0.775,0.565,0.647,0.896,0.785
		c0.391,0.164,0.851,0.086,1.297,0.115c0.026-0.154,0.054-0.319,0.097-0.58c0.423,0.374,0.827,0.653,1.396,0.544
		c0.479-0.092,0.954,0.195,1.544,0.342c-0.228,0.165-0.368,0.265-0.594,0.43c0.363,0.102,0.675,0.192,1.018,0.289
		c0.063-0.348,0.112-0.622,0.169-0.937c1.062,0.919,2.251,1.019,3.508,0.917c0.364-0.029,0.842-0.32,0.993,0.314
		c0.348-0.076,0.655-0.145,0.962-0.213c-0.243,0.81-0.146,1.048,0.38,0.95c0.211-0.04,0.423-0.036,0.634-0.053
		c-0.204-0.874-0.257-0.919-1.051-0.855c0.092-0.286,0.187-0.679,0.448-0.584c0.498,0.181,0.97,0.461,1.487,0.714
		c-0.141,0.298-0.259,0.545-0.447,0.941c0.307,0.027,0.561,0.168,0.748,0.044c0.915-0.607,1.731-0.524,2.554-0.08
		c0.543,0.291,0.943-0.092,1.115-0.982C55.6,2.103,55.62,1.73,55.794,1.275c0.129,0.364,0.316,0.701,0.37,1.099
		c0.06,0.442-0.004,0.942-0.016,1.537c0.286,0.038,0.615,0.115,0.954,0.109c0.105-0.002,0.291-0.206,0.339-0.356
		c0.042-0.133-0.058-0.32-0.108-0.544c0.188-0.053,0.378-0.078,0.557-0.166c0.189-0.094,0.367-0.252,0.565-0.392
		c0.206,0.307,0.429,0.637,0.652,0.968c-0.019,0.046-0.037,0.092-0.055,0.137c-0.326-0.156-0.651-0.313-1.106-0.531
		C57.974,3.619,57.988,3.861,58,4.059c0.22,0.199,1.023-0.009,1.26-0.288c0.07-0.081,0.126-0.182,0.191-0.273
		c0.604-0.854,0.604-0.854,1.328-0.735c-0.395-0.398-0.541-1.155-1.152-1.243c-0.492-0.069-1.029-0.045-1.445-0.293
		c-0.282-0.169-0.423-0.442-0.728,0.048c-0.022,0.035-0.202-0.097-0.287-0.246c0.544-0.127,1.079-0.822,1.605-0.301
		c0.103-0.194,0.205-0.388,0.313-0.593c0.489,0.337,0.957,0.659,1.437,0.989c0.196-0.169,0.381-0.331,0.657-0.57
		c-0.166,0.601-0.289,1.05-0.441,1.599l0.985-0.007c-0.013-0.502-0.024-0.902-0.036-1.314c0.202-0.065,0.363-0.118,0.742-0.241
		c-0.397-0.12-0.594-0.179-0.854-0.26c0.13-0.108,0.204-0.217,0.271-0.223c0.847-0.058,1.692-0.057,2.525,0.06
		c0.027,0.004,0.072-0.018,0.085,0c0.237,0.356,0.393,0.827,0.895,0.744c0.364-0.061,0.725-0.019,1.151-0.024
		c0.087-0.143,0.245-0.402,0.414-0.676c0.419,0.733,0.855,1.041,1.134,0.648c0.749-1.054,1.351-0.117,2.03-0.349
		c0.117-0.04,0.313,0.21,0.375,0.398c0.387,1.154,0.68,1.342,1.852,0.99c-0.491-0.154-0.513-0.525-0.311-1.012l-0.011,0.032
		c0.078,0.194,0.132,0.551,0.241,0.554c1.064,0.023,1.694,1.314,2.885,1.019c0.149-0.037,0.301,0.197,0.491,0.331
		c0.198-0.522,0.448-0.623,0.864-0.634c0.706-0.018,1.446-0.265,2.206-0.424c0.034,0.331,0.058,0.562,0.093,0.903
		c0.509-0.115,1.028-0.23,1.707-0.382c0.035-0.328,0.085-0.778,0.143-1.306c0.173-0.087,0.47-0.231,0.782-0.387
		c0.133-0.377,0.265-0.751,0.395-1.123c0.059-0.003,0.117-0.008,0.175-0.011c0.022,0.166,0.068,0.327,0.062,0.497
		c-0.032,0.878-0.031,0.843,0.636,0.845c0.381,0,0.739,0.149,1.115,0.23c-0.502,1.062-0.502,1.062,0.164,1.791
		c-0.118,0.39-0.245,0.814-0.388,1.296c0.724,0.017,0.559-1.609,1.433-1.084c-0.087,0.106-0.196,0.24-0.4,0.485
		c0.9,0.097,0.76,1.297,1.394,1.808c-0.784-0.253-0.937,0.914-1.518,1.054c-0.317,0.666-0.317,0.666,0.066,0.901
		c-0.02-0.303-0.041-0.604-0.06-0.906c0.188,0.349,0.378,0.694,0.575,1.058c-0.745,0.53-1.264,1.153-1.639,1.949
		c0.417,0.06,0.749,0.143,1.094,0.144c0.353,0.003,0.719-0.079,1.079-0.111c0.224-0.019,0.458-0.052,0.669-0.008
		c0.76,0.158,1.479,0.432,2.36,0.039c0.375-0.167,0.818,0.036,1.209,0.069c0.096-0.428,0.11-0.9,0.302-1.266
		c0.309-0.589-0.322-1.21,0.297-1.682c0.409-0.311,0.925-0.379,1.343-0.682c0.285-0.207,0.691-0.379,0.721-0.997
		c0.013-0.278,0.388-0.704,0.665-0.915c0.809-0.618,1.658-1.148,2.645-1.099c0.03,0.34,0.059,0.668,0.096,1.075
		c0.448,0.115,0.922,0.236,1.416,0.361c0.251-0.941-0.166-1.164-0.619-1.314c0.752-0.427,1.483-0.83,2.214-1.258
		c0.755-0.442,1.486-0.698,2.281-0.568c0.496,0.08,1.076-0.125,1.623-0.198c1.11-0.147,2.226-0.291,3.468-0.205
		c-0.28,0.189-0.559,0.377-0.837,0.564c0.256,0.698,1.498,0.112,1.266,1.311c0.469,0.027,0.897,0.05,1.342,0.074
		c-0.829,1.247-1.824,0.543-2.964,0.937c0.696,0.574,0.718,1.523,1.487,1.531c0.407-0.508,0.744-0.931,1.227-1.533
		c-0.051,0.539-0.079,0.838-0.112,1.186c0.885,0.189,1.665,0.018,2.421-0.886c0.292-0.348,0.718-0.627,1.112-0.808
		c1.068-0.493,1.118-0.553,0.774-1.672c0.689-0.417,1.324-0.838,1.937-0.166c0.15,0.164,0.688-0.128,1.035-0.138
		c0.344-0.009,0.723-0.008,0.989,0.15c0.131,0.078,0.036,0.518,0.05,1.056c-0.498-0.295-0.782-0.464-1.153-0.683
		c-0.176,0.322-0.347,0.636-0.572,1.047c0.603,0.305,1.147,0.577,1.762,0.888c-0.233,0.878,0.225,1.748-0.4,2.756
		c-0.312-0.027-0.64-0.052-0.966-0.078c0.271-0.708-0.518-1.428,0.475-2.077c-0.695-0.555-1.004,0.522-1.452,0.606
		c-0.26-0.138-0.449-0.304-0.675-0.338c-0.269-0.042-0.674-0.093-0.839,0.077c-0.518,0.535-0.373,1.079-0.184,1.576
		c0.518-0.129,0.958-0.238,1.461-0.364c-0.24,0.637-0.424,1.129-0.616,1.637c0.873,0.052,1.301-0.77,1.905-1.176
		c-0.213,0.734-0.292,1.435,0.079,2.123c0.247-0.163,0.493-0.325,0.739-0.487c0.117,0.772,0.117,0.772,1.01,0.297
		c-0.352-0.083-0.704-0.167-1.054-0.25c0.317-0.519,0.874-0.848,1.086-1.462c0.077-0.223,0.249-0.428,0.312-0.648
		c0.507-1.746,0.503-1.747,2.12-2.206c-0.686-0.478-1.302-0.907-1.919-1.335c1.715-1.055,2.502-1.112,3.85-0.277
		c0.985-0.963,1.588-0.209,2.343,0.227c-0.919,0.397-1.843,0.746-2.733,1.204c-0.411,0.21-0.763,0.633-1.14,0.958
		c0.045,0.086,0.09,0.174,0.135,0.26c0.299-0.11,0.597-0.221,0.937-0.348c-0.234,0.743-0.438,1.395-0.67,2.136
		c0.548,0.151,0.822,0.87,1.618,0.343c0.106,0.281,0.147,0.718,0.38,0.906c0.213,0.171,0.634,0.101,0.972,0.078
		c0.445-0.032,0.914-0.19,1.342-0.16c0.23,0.016,0.585,0.323,0.549,0.483c-0.244,1.078,0.563,0.697,0.963,0.877
		c0.114-0.109,0.23-0.219,0.344-0.328c-0.314-0.136-0.628-0.271-1.06-0.457c0.609-0.317,0.844-0.437,1.18-0.613
		c-0.32-0.12-0.532-0.199-0.746-0.28c0.814-0.672,0.814-0.672,0.564-1.492c-0.092,0.725-0.993,0.839-0.531,1.513
		c-0.234-0.085-0.467-0.169-0.719-0.262c0.144-0.373,0.287-0.74,0.433-1.122c0.691-0.123,1.361-0.243,2.106-0.375
		c0.093-0.996,0.173-1.865,0.26-2.812c0.552-0.361,1.166-0.765,1.911-1.254c0.175,0.626,0.362,1.116,0.445,1.647
		c0.077,0.497,0.977,0.121,0.772,0.941c-0.123,0.493,0.044,0.998,0.101,1.774c0.748-0.849,1.313-1.49,1.879-2.134
		c-0.512-0.478,0.204-1.086,0.192-1.622c-0.002-0.073,0.104-0.173,0.224-0.359c0.392,0.032,0.817,0.065,1.422,0.114
		c-0.314-0.345-0.51-0.559-0.706-0.774c0.051-0.085,0.105-0.174,0.156-0.258c0.263,0.059,0.541,0.095,0.789,0.188
		c0.239,0.091,0.434,0.377,0.67,0.347c2.25-0.307,4.018,0.72,6.066,1.066c0.885,0.149,1.788,0.303,2.626-0.831
		c0.258,1.686,0.258,1.686,1.706,1.146c0.834,0.826-0.672,1.582-0.488,2.447c-1.313-0.005-2.478-0.101-3.662,0.031
		c-0.496,0.056-1.038,0.595-1.642,0.964l0.205-0.947c-0.442,0.306-0.715,0.601-0.983,0.652c-0.291,0.055-0.574-0.117-0.957-0.215
		c0.046,0.389,0.086,0.725,0.121,1.021c0.96,0.322,1.891,0.638,2.876,0.972c0.223-0.471,0.355-0.748,0.494-1.041
		c0.465,0.873,0.944,0.509,1.506-0.226c0.105-0.139,0.466-0.112,0.709-0.158c0.025-0.004,1.364,0.025,1.404,0.005
		c-0.034,0.57-0.067,1.138-0.098,1.664c0.641,0.389,1.935-0.426,1.879,0.982c-0.288,0.14-0.607,0.292-1.032,0.5
		c0.518,0.323,0.971,0.607,1.418,0.884c0.535-0.175,1.06-0.345,1.706-0.555c-0.392-0.172-0.743-0.326-1.156-0.506
		c0.22-0.126,0.352-0.205,0.584-0.339c-0.325-0.095-0.608-0.176-0.893-0.259c0.539-1.204,1.752-2.078,1.943-3.385
		c0.03-0.207,0.495-0.452,0.904-0.803c0.155,0.624,0.255,1.029,0.34,1.373c-0.823,0.807-1.574,1.542-2.321,2.273
		c0.017,0.083,0.036,0.166,0.053,0.249c0.343-0.073,0.683-0.145,1.259-0.269c0.216,0.698,0.482,1.555,0.76,2.453
		c0.509-0.105,1.133-0.237,1.988-0.415c-0.523,0.975-0.936,1.322-1.704,1.139c-0.475-0.114-1.025-0.475-1.634,0.382
		c0.198,0.356,0.419,0.748,0.664,1.187c0.365-0.271,0.648-0.481,0.91-0.673c0.881,0.475-0.308,1.164-0.033,1.678
		c0.659-0.022,1.187-0.235,1.481-0.969c0.175-0.44,0.493-0.782,1.016-0.583c-0.065,1.943,0.164,2.279,1.938,2.533
		c-0.225-0.52-0.395-0.914-0.598-1.386c0.612-0.76,1.255-1.563,1.9-2.37c-0.002,0-0.021,0.002-0.021,0.002
		c0.147,0.786,1.076,0.813,1.496,1.368c0.421,0.561,1.064,0.957,1.693,1.496c-0.494-0.151-0.927-0.283-1.364-0.41
		c-0.531-0.282-1.054-0.566-1.533-0.828c-0.335,0.176-0.641,0.337-1.01,0.528c0.385,0.297,0.683,0.528,0.923,0.713
		c0.586-0.151,1.111-0.284,1.636-0.419c-0.287,0.424-0.577,0.846-0.944,1.385c1.306,0.025,2.204,1.14,3.791,0.538
		c-0.519,0.431-1.033,0.862-1.595,1.331c0.086,0.263,0.196,0.609,0.39,1.204c0.408-0.506,0.757-0.805,0.9-1.148
		c0.186-0.446,0.204-0.926,0.294-1.391c-0.203-0.013-0.432,0.016-0.606-0.051c-0.278-0.105-0.518-0.27-0.676-0.609
		c1.538,0.265,3.089,0.531,4.689,0.805c0.117,0.446,0.228,0.87,0.375,1.425c0.416-0.444,0.724-0.775,1.054-1.13
		c0.64,0.425,1.499,0.684,1.78,1.259c0.382,0.777,1.425,1.386,0.711,2.683c-0.317-0.085-0.605-0.194-0.916-0.24
		c-0.711-0.104-1.402,0.038-1.718,0.802c-0.37,0.896-1.063,0.951-1.914,1.009c0.937-0.77,0.249-2.052,1.723-2.574
		c-0.294-0.492-0.615-0.717-1.004-0.158c-1.026,1.472-1.909,2.16-3.463,2.552C161.112,21.191,160.922,21.207,160.735,21.223
		L160.735,21.223z M142.082,29.329c0.41-0.019,0.745,0.473,1.403-0.049c-0.562-0.28-0.996-0.157-1.442,0.085
		c-0.438-0.587-0.59-0.626-1.687-0.392C140.992,29.11,141.528,29.225,142.082,29.329L142.082,29.329z M118.234,20.431
		c-0.047,0.192-0.095,0.384-0.202,0.81c0.325-0.33,0.472-0.481,0.704-0.715c-0.243-0.03-0.39-0.048-0.536-0.068
		c0.32-0.297,0.643-0.594,0.981-0.908c-0.579-0.215-1.182-0.3-1.932,0.375C117.63,20.122,117.931,20.275,118.234,20.431
		L118.234,20.431z M132.306,6.75c0.51,0.099,1.021,0.199,1.412,0.275c0.562-0.544,1.018-0.986,1.739-1.684
		c-1.369,0.211-2.254,0.84-3.135,1.442l-1.31-0.011c0.037,0.297,0.064,0.507,0.101,0.806C131.516,7.145,132.185,7.559,132.306,6.75
		L132.306,6.75z M17.078,27.806c0.222,0.02,0.452-0.003,0.665,0.073c0.236,0.083,0.371,0.007,0.445-0.381
		c-0.394-0.094-0.763-0.182-1.145-0.273c0.014,0.229,0.025,0.405,0.036,0.582c-0.385,0.115-0.303-0.998-0.796-0.673
		c-0.009,0.215-0.019,0.435-0.034,0.766C16.561,27.864,16.819,27.836,17.078,27.806L17.078,27.806z M121.657,10.972
		c-0.416,0.16-0.581,0.458-0.291,0.73c0.378,0.357,0.844,0.621,1.395,1.014c0.355-0.371,0.781-0.717,1.076-1.147
		c0.474-0.689,0.348-1.002-0.432-1.435c-0.23-0.367-0.458-0.735-0.654-1.046c-0.748,0.333-1.44,0.642-2.111,0.941
		C120.977,10.338,121.316,10.655,121.657,10.972L121.657,10.972z M109.714,29.148c-0.451,0.248-1.044-0.311-1.405,0.464
		c0.238,0.089,0.64,0.121,0.657,0.266c0.13,0.991,0.765,1.452,1.532,1.773c-0.132,0.501-0.243,0.914-0.38,1.438
		c0.367-0.048,0.618-0.079,0.872-0.114c-0.026-0.757-0.05-1.413-0.072-2.101c-0.543-0.161-1.148-0.28-1.056-1.172
		c0.021-0.201-0.11-0.4-0.17-0.594c0.604,0.228,1.212,0.458,1.838,0.694c0.381-0.308,0.542-0.662,0.366-1.143
		c-0.341-0.934-1.167-0.585-1.892-0.665C109.901,28.4,109.807,28.773,109.714,29.148L109.714,29.148z M10.389,17.876
		c0.369-0.48,0.67-0.036,1.018,0.164c0.019-0.309,0.022-0.48-0.168-0.513c-0.383-0.063-0.784,0.023-1.139-0.279
		c-0.078-0.067-0.229-0.012-0.324,0.069c-0.238,0.205-0.462,0.455-0.692,0.688c0.104,0.258,0.209,0.515,0.293,0.721
		c0.332-0.266,0.653-0.523,0.975-0.782c0.016-0.012,0.026-0.047,0.038-0.07L10.389,17.876L10.389,17.876z M129.047,21.24
		c0.293,0.596,0.293,0.596,1.104,0.243c-0.512-0.09-0.832-0.146-1.149-0.202c0.035-0.246,0.071-0.493,0.099-0.69
		c0.809,0.217,1.44,0.388,2.076,0.56c0.093,1.216-0.883,0.918-1.501,1.138c-0.1,0.346-0.189,0.657-0.32,1.109
		c0.469-0.127,0.794-0.215,1.201-0.324c-0.431,0.538-0.816,1.015-1.164,1.45c0.156,0.512,0.398,0.678,0.856,0.386l-0.006,0.004
		c0.553,0.976,1.338,1.678,2.44,2.033c0.374,0.121,0.671,0.132,1.012-0.267c0.761-0.89,0.79-0.89,1.592-0.269
		c0.468,0.362,0.923,0.636,1.594,0.147c-0.624-1.381-2.218-0.587-3.134-1.026c0.053-0.458,0.095-0.814,0.138-1.189
		c0.338-0.318,1.181,0.303,1.207-0.648c-0.384-0.165-1.053-0.356-1.024-0.459c0.308-1.119-0.668-0.827-1.07-1.137
		c-0.405,0.283-0.754,0.528-1.188,0.833c-0.248-0.645-0.46-1.2-0.668-1.758c1.154-0.724-0.134-1.174,0.081-1.778
		c0.187-0.138,0.353-0.262,0.691-0.512c-0.607-0.105-0.997-0.172-1.482-0.256l-0.219,1.046c-0.484-0.09-1.098,0.354-1.401-0.061
		c0.351-0.493,0.644-0.901,1-1.4l-1.551-0.068c0.458,0.895-0.104,1.53-0.661,2.168c-0.424-0.342-0.707-0.96-1.6-0.614
		c0.017,0.478,0.035,0.926,0.059,1.549c0.619-0.536,0.938-1.179,1.582-0.967c0.076,0.194,0.09,0.487,0.236,0.564
		C128.233,21.03,128.653,21.114,129.047,21.24L129.047,21.24z M111.947,25.02c0.474-0.12,0.947-0.255,1.425-0.356
		c0.479-0.102,0.962-0.166,1.444-0.265c0.045-0.01,0.083-0.146,0.159-0.287c-0.233-0.265-0.478-0.545-0.76-0.868
		c0.656-0.777,1.262-1.494,1.95-2.308c-0.592,0.194-1.117,0.226-1.315-0.414c0.151-0.032,0.302-0.064,0.591-0.126
		c-0.203-0.199-0.293-0.337-0.422-0.399c-0.127-0.062-0.292-0.049-0.535-0.083c0.174,0.284,0.285,0.466,0.397,0.648
		c-0.519,0.051-1.079-0.109-1.486,0.545c0.623,0.879,0.618,0.972-0.093,2.019c0.172,0.141,0.346,0.284,0.56,0.458
		c-0.63,0.27-1.084,0.935-1.732,0.668c-0.206-0.264-0.365-0.597-0.627-0.775c-0.424-0.288-0.914-0.473-1.543-0.784
		c0.181,0.451,0.302,0.75,0.361,0.898c-0.466,0.468-0.874,0.876-1.277,1.283c0.24,0.554,0.425,0.979,0.64,1.472
		c0.21-0.284,0.331-0.446,0.502-0.677c0.641,0.555,1.345,0.71,2.156-0.057C112.208,25.412,112.077,25.217,111.947,25.02
		L111.947,25.02z M40.083,33.55c0.112-0.189,0.224-0.377,0.34-0.574c-0.674-0.627-0.674-0.627-1.175-0.094
		c-0.193-0.165-0.371-0.317-0.554-0.473c-0.099,0.256-0.153,0.395-0.189,0.489c-0.4,0.031-0.512-0.75-0.915-0.445
		c-0.279,0.213-0.656-0.112-0.959,0.468c0.993,0.392,2.085,0.181,2.786,1.411c0.261-0.306,0.475-0.556,0.689-0.809L40.083,33.55
		L40.083,33.55z M145.389,12.934c-0.859-0.177-1.495-1.028-2.943-0.254c1.178,0.088,2.08,0.155,2.984,0.223
		c-0.001,0.297-0.13,0.787,0.015,0.858c0.753,0.377,1.79,0.198,2.491,0.759c0.075,0.058,0.509-0.283,0.96-0.546
		c-1.41-0.733-1.152-1.849-0.138-3.355c-0.992,0.149-1.684,0.332-2.336,0.333c-0.659-0.002-1.278-0.178-2.068-0.302
		c0.001,0.578,0.003,0.942,0.003,1.198c0.505,0.196,0.902,0.326,1.263,0.517C145.656,12.387,145.474,12.734,145.389,12.934
		L145.389,12.934z M79.884,16.623c0.462,0.145,1.24-0.475,1.27,0.623c0.49-0.324,0.929-0.617,1.459-0.968
		c-1.797-0.356-1.797-0.356-2.756,0.381c-0.518-0.954-1.314-1.28-2.277-1.037c-0.632,0.159-1.159,0.033-1.675-0.24
		c-0.111-0.06-0.223-0.225-0.321-0.195c-1.309,0.422-2.667,0.081-4.036,1.273c0.373,0.196,0.672,0.4,1.001,0.509
		c0.176,0.058,0.506,0.039,0.586-0.095c0.118-0.201,0.075-0.535,0.103-0.843c0.516-0.236,1.108-0.564,1.646-0.071
		c0.061,0.336,0.122,0.671,0.188,1.024c0.256-0.005,0.523,0.085,0.738-0.029C77.198,16.228,78.542,16.2,79.884,16.623L79.884,16.623
		z M135.312,32.048l0.228-1.046c-0.684-0.003-1.247-0.004-1.807-0.009c-0.183-0.002-0.502-0.059-0.53,0
		c-0.404,0.806-0.781,0.428-1.207,0.194c-0.222-0.121-0.515-0.136-0.778-0.182c-0.029-0.005-0.091,0.098-0.175,0.195
		c0.354,0.141,0.681,0.268,1.013,0.399c-0.041,0.364-0.082,0.719-0.096,0.843c-0.764,0.521-1.382,0.942-1.999,1.363
		c0.007,0.105,0.013,0.207,0.02,0.312c0.948,0.126,1.894,0.391,2.864,0.322c0.47-0.033,0.99-0.678,1.455-1.09
		c0.054-0.05-0.071-0.416-0.203-0.542c-0.142-0.137-0.39-0.167-0.576-0.239c0.045-0.643,0.266-1.081,0.879-1.318
		C134.528,31.74,134.531,32.288,135.312,32.048L135.312,32.048z M123.99,24.401c-1.442,0.358-1.442,0.358-1.897,1.015
		c-0.923-0.782-2.114-0.644-3.265-0.634c0.233,0.177,0.514,0.382,0.763,0.311c1.186-0.335,1.842,0.483,2.596,0.997
		c1.097,0.75,1.045,0.821,2.293-0.242c-0.018-0.121-0.032-0.253-0.056-0.383c-0.189-0.967-0.063-1.794,1.07-2.317
		c0.153-0.071,0.192-0.513,0.304-0.84l-1.107-0.063c-0.275,0.353-0.448,0.742-0.657,0.801c-0.334,0.092-0.69-0.038-1.039-0.065
		c-0.452-0.033-0.903-0.055-1.354-0.081c0.536,0.763,1.081,1.429,2.17,0.552C123.878,23.792,123.924,24.047,123.99,24.401
		L123.99,24.401z M138.384,34.958c-0.4-0.31-0.721-0.537-1.01-0.8c-0.057-0.051,0.01-0.233,0.03-0.46
		c0.356,0.159,0.625,0.28,0.916,0.409c0.185-0.245,0.332-0.443,0.404-0.539c-0.107-1.42-1.552-0.527-2.074-1.161
		c-0.065,0.056-0.13,0.114-0.198,0.167c-0.645,0.508-1.244,1.047-1.286,1.893c-0.013,0.257,0.155,0.537,0.065,0.754
		c-0.088,0.213-0.433,0.338-0.595,0.549c-0.072,0.093,0.025,0.306,0.067,0.632C135.859,35.384,137.345,36.205,138.384,34.958
		L138.384,34.958z M44.078,32.888c0.118,1.086,0.606,0.96,1.007,0.809c0.444-0.166,0.691,0.056,0.824,0.359
		c0.616,0.012,1.137,0.021,1.764,0.033c0.091-0.126,0.267-0.365,0.492-0.673c-0.371-0.264-0.623-0.659-0.971-0.069
		c-0.037,0.063-0.143,0.094-0.207,0.08c-0.617-0.132-1.226-0.286-1.837-0.408C44.822,32.954,44.489,32.937,44.078,32.888
		L44.078,32.888z M26.159,1.406c-0.198,0.684-0.135,1.032,0.088,1.279c0.5,0.553,0.941-0.137,1.412-0.496
		c0.377,0.5,0.827,0.728,1.364,0.682c0.176-0.016,0.346,0.078,0.519,0.123c0.483,0.125,0.967,0.251,1.454,0.379
		c0.013-0.066,0.026-0.133,0.039-0.199c-0.361-0.133-0.711-0.332-1.082-0.381c-0.464-0.063-0.907-0.14-1.332-0.397
		c-0.391-0.236-0.838-0.457-1.261-0.381C26.878,2.101,26.458,2.215,26.159,1.406L26.159,1.406z M23.884,5.445
		c0.803,0.354,1.522,0.566,2.296,0.554c0.114-0.246,0.215-0.465,0.324-0.703C25.103,4.657,24.833,4.663,23.884,5.445L23.884,5.445z
		 M115.243,31.176c0.488-0.544,0.883-1.291,1.413-1.508c0.957-0.393,0.426-1.189,1.032-1.706c-1.018-0.044-1.147,0.597-1.335,1.248
		c-0.558-0.302-1.11,0.521-1.743,0.19c-0.271-0.142-0.664,0.61-0.417,0.881C114.478,30.6,114.842,30.843,115.243,31.176
		L115.243,31.176z M153.334,38.344c0.071-1.062-0.734-1.207-1.488-1.285c-1.16-0.117-2.335-0.133-3.497-0.18
		c-0.23-0.01-0.466,0.022-0.86,0.046c0.451,0.831,1.177,0.862,1.858,0.767c1.278-0.184,2.152,0.174,2.496,1.215
		C152.416,38.691,152.882,38.515,153.334,38.344L153.334,38.344z M55.089,33.388c-0.03,0.059-0.059,0.116-0.087,0.174
		c0.181,0.153,0.362,0.305,0.544,0.458c0.167,0.14,0.39,0.234,0.485,0.437c0.191,0.408,0.42,0.487,0.75,0.276
		c0.407-0.26,0.41-0.63,0.215-1.125L55.089,33.388L55.089,33.388z M132.879,21.675c0.851-0.155,1.41-0.26,2.038-0.376
		c-0.044-0.548-0.057-0.92-0.11-1.278c-0.041-0.281-0.085-0.779-0.207-0.782c-0.786-0.028,0.022-0.708-0.196-0.791
		c-0.537-0.205-1.189-0.13-1.472,0.536c-0.24,0.56,0.254,0.7,0.697,0.889c0.241,0.103,0.586,0.696-0.158,1.096
		C133.326,21.045,133.23,21.247,132.879,21.675L132.879,21.675z M100.481,28.545c0.159,0.293,0.279,0.513,0.336,0.62
		c0.956,0.193,1.829,0.369,2.832,0.572c-0.287-0.219-0.479-0.366-0.714-0.544c0.202-0.153,0.347-0.261,0.492-0.37
		C103.029,28.097,102.337,28.037,100.481,28.545L100.481,28.545z M13.034,27.557c-0.251-0.19-0.493-0.51-0.756-0.542
		c-0.402-0.047-0.818,0.1-1.252,0.169c0.104,0.496,0.28,0.615,0.5,0.553c0.489-0.139,0.978-0.289,1.467-0.053
		C12.995,27.686,13.009,27.636,13.034,27.557L13.034,27.557z M106.885,22.928c-0.367,0.835-0.653,1.481-0.957,2.173
		c-0.186,0.033-0.449,0.08-0.836,0.148c0.603,0.522,1.031,0.672,1.469-0.174c0.127-0.248,0.458-0.383,0.647-0.617
		c0.331-0.405,0.627-0.845,0.927-1.281c0.025-0.036-0.031-0.134-0.072-0.292c-0.246,0.244-0.466,0.461-0.685,0.678
		C107.258,23.407,107.142,23.258,106.885,22.928L106.885,22.928z M40.757,32.842c-0.024,0.087-0.048,0.171-0.072,0.258
		c0.16,0.094,0.346,0.32,0.474,0.259c0.536-0.253,0.933,0.124,1.371,0.358c0.12,0.064,0.262,0.055,0.512,0.103
		c-0.128-0.357-0.167-0.666-0.299-0.781c-0.167-0.146-0.481-0.282-0.603-0.162c-0.242,0.239-0.415,0.076-0.616,0.056
		C41.267,32.907,41.012,32.873,40.757,32.842L40.757,32.842z M68.998,23.122c0.198-0.114,0.483-0.241,0.739-0.439
		c0.208-0.16,0.273-1.126,0.094-1.154c-0.446-0.07-0.903-0.072-1.303-0.098C68.675,21.966,68.807,22.437,68.998,23.122
		L68.998,23.122z M140.745,10.712c0.547-0.854,1.147-1.14,1.952-0.653c0.325,0.197,0.9,0.048,1.462,0.058
		c-1.079-0.567-2.05-1.08-2.991-1.575c-0.121,0.313-0.147,0.627-0.306,0.754C139.975,10.001,139.962,9.985,140.745,10.712
		L140.745,10.712z M110.921,8.3c-0.075,0.107-0.15,0.214-0.225,0.323c0.172,0.159,0.339,0.323,0.518,0.471
		c0.169,0.14,0.533,0.311,0.505,0.381c-0.412,1.06,0.555,0.799,0.808,1.267c0.289-0.333,0.518-0.598,0.917-1.059
		C112.149,9.776,112.202,7.958,110.921,8.3L110.921,8.3z M121.843,20.767c0.827,0.201,1.614-0.468,2.328,0.342
		c-0.186-0.702-0.259-1.106-0.399-1.469c-0.229-0.594-1.063-0.632-1.477-0.039C122.06,19.933,121.989,20.376,121.843,20.767
		L121.843,20.767z M148.048,39.666c-1.794-0.123-3.376-0.232-5.151-0.354c1.001,0.826,3.495,1.215,4.788,0.824
		C147.84,40.088,147.944,39.807,148.048,39.666L148.048,39.666z M18.016,33.525c0.514-0.502,0.938-0.541,1.381-0.266
		c0.119,0.072,0.28-0.007,0.422-0.018c-0.543-0.524-1.148-0.407-1.739-0.552L18.016,33.525L18.016,33.525z M13.441,30.208
		c-0.186-0.365-0.331-0.722-0.523-0.997c-0.088-0.126-0.276-0.151-0.401-0.101c-0.075,0.03-0.119,0.293-0.202,0.52
		C12.751,29.765,12.99,30.42,13.441,30.208L13.441,30.208z M25.966,33.84c0.256,0.654,0.36-0.634,0.683-0.093
		c0.14,0.235,0.579,0.074,0.899,0.093c-0.026-0.219-0.055-0.464-0.086-0.727c-0.26,0.053-0.487,0.188-0.671,0.117
		C26.405,33.078,26.188,33.35,25.966,33.84L25.966,33.84z M106.644,14.563c-1.142-0.434-1.845-0.272-2.429,0.561
		c0.452,0.017,0.974-0.135,1.231,0.08C106.106,15.749,106.289,15.165,106.644,14.563L106.644,14.563z M102.411,24.498
		c-0.258-0.448-0.662-0.573-1.047-0.02c-0.247,0.354-0.402,0.351-0.661,0.246c-0.1-0.04-0.211-0.073-0.321-0.071
		c-0.074,0.001-0.155,0.069-0.134,0.061c0.298,0.37,0.571,0.709,0.82,1.018C101.475,25.357,101.923,24.946,102.411,24.498
		L102.411,24.498z M13.93,27.212c-0.428-0.694-0.818-0.836-1.4-0.607c0.006,0.056,0.007,0.162,0.017,0.163
		c0.181,0.023,0.364,0.059,0.546,0.041c0.257-0.028,0.164,0.475,0.32,0.524C13.547,27.372,13.701,27.272,13.93,27.212L13.93,27.212z
		 M137.97,3.247c-0.643-1.095-1.843,0.38-2.641,0.041c0.221,0.071,0.442,0.143,0.671,0.218l-0.202,0.953
		C136.483,3.638,137.382,4.492,137.97,3.247L137.97,3.247z M136.536,29.274c-0.565-0.127-1.063-0.093-1.318-0.323
		c-0.676-0.606-0.937-0.557-1.48,0.461c0.946,0.128,2.132-0.165,2.471,1.087c0.005,0.018,0.063,0.013,0.155,0.031
		C136.425,30.074,136.485,29.63,136.536,29.274L136.536,29.274z M110.461,35.871c0.783-0.61,1.086-1.641,0.685-2.209
		c-0.134-0.19-0.447-0.228-0.688-0.341c-0.167,0.458-0.296,0.812-0.456,1.251C110.803,34.634,110.777,35.162,110.461,35.871
		L110.461,35.871z M102.839,27.716c0.243-0.455,0.195-0.784-0.206-1.029c-0.541-0.331-0.92,0.013-1.286,0.479
		C101.774,27.509,102.091,28.127,102.839,27.716L102.839,27.716z M102.009,30.716c-0.718,0.011-1.304-0.146-1.517,0.659
		c-0.051,0.194,0.258,0.65,0.462,0.672C101.848,32.145,101.475,31.171,102.009,30.716L102.009,30.716z M115.62,25.733
		c-0.723,0.015-1.267,0.024-2.094,0.042c0.396,0.621,0.672,1.056,0.946,1.489C114.508,26.491,115.35,26.463,115.62,25.733
		L115.62,25.733z M72.474,13.495c-0.011-0.652-0.188-1.049-0.678-1.006c-0.177,0.017-0.368,0.247-0.553,0.378
		c0.101,0.199,0.161,0.512,0.311,0.569C71.821,13.537,72.143,13.484,72.474,13.495L72.474,13.495z M26.908,5.947l0.796,0.007
		c-0.358-0.876-0.652-1.11-0.907-0.702C26.832,5.467,26.87,5.711,26.908,5.947L26.908,5.947z M26.773,3.519
		c-0.013,0.039-0.027,0.079-0.04,0.118c0.391,0.319,0.781,0.648,1.18,0.954C28,4.657,28.12,4.635,28.224,4.653
		c-0.022-0.172-0.007-0.465-0.07-0.498C27.701,3.913,27.234,3.724,26.773,3.519L26.773,3.519z M108.985,15.004
		c0.831-0.43,1.65-0.456,2.491-0.197c0.041-0.322,0.064-0.522,0.072-0.582l-1.77-0.059C109.539,14.418,109.263,14.71,108.985,15.004
		L108.985,15.004z M9.415,25.164c-0.014,0.07-0.027,0.139-0.041,0.209c0.163,0.156-0.173,0.695,0.224,0.712
		c0.089-0.649,0.413-0.755,0.749-0.959C10.036,25.138,9.725,25.151,9.415,25.164L9.415,25.164z M126.948,23.441
		c-0.032,0.062-0.062,0.128-0.094,0.191c0.235,0.049,0.464,0.121,0.707,0.137c0.41,0.027,0.487,0.936,1.058,0.348
		c0.24-0.248,0.219-0.77,0.298-1.168c0.01-0.052-0.08-0.109-0.114-0.152C128.176,23.015,127.56,23.228,126.948,23.441
		L126.948,23.441z M97.462,28.551c-0.312,0.466-0.263,0.821,0.141,0.912c0.254,0.057,0.577-0.168,0.863-0.181
		c0.348-0.015,0.591-0.076,0.594-0.599L97.462,28.551L97.462,28.551z M148.714,15.915c-0.141-0.894-0.502-1.345-1.507-0.916
		c-0.026,0.664-0.05,1.288-0.069,1.805C147.729,16.47,148.149,16.233,148.714,15.915L148.714,15.915z M105.456,10.955
		c0.422-0.057,0.783-0.059,1.134-0.173c0.145-0.048,0.361-0.353,0.365-0.513c0.006-0.158-0.198-0.395-0.339-0.391
		c-0.341,0.012-0.697,0.142-1.088,0.235C105.501,10.414,105.48,10.666,105.456,10.955L105.456,10.955z M127.88,15.545
		c0.539,0.074,0.917,0.112,1.283,0.179c0.46,0.083,0.912,0.191,1.341,0.284c0.445-0.611,0.124-0.767-0.259-0.824
		C129.47,15.072,128.685,14.839,127.88,15.545L127.88,15.545z M138.499,24.213c-0.401-0.644-0.401-0.644-2.115-0.054
		c0.31,0.236,0.624,0.473,0.981,0.746C137.751,24.667,138.12,24.442,138.499,24.213L138.499,24.213z M143.05,37.27
		c-0.151,0.393-0.296,0.767-0.498,1.295c0.596,0.129,1.216,0.262,2.009,0.434C143.607,37.337,143.607,37.337,143.05,37.27
		L143.05,37.27z M92.497,29.995c0.53,0.122,0.9,0.142,1.212,0.294c0.415,0.206,0.71,0.188,0.992-0.435
		C93.994,29.465,93.324,29.779,92.497,29.995L92.497,29.995z M62.834,34.565c-0.005,0.094-0.011,0.19-0.016,0.284
		c0.503,0.047,0.993,0.365,1.669-0.091L62.834,34.565L62.834,34.565z M35.253,37.698c-0.422-0.226-0.848-0.357-1.29-0.094
		C34.384,37.786,34.809,37.936,35.253,37.698L35.253,37.698z M119.247,26.475c-0.61-1.175-0.715-1.188-1.612-0.216
		C118.105,26.534,118.445,27.112,119.247,26.475L119.247,26.475z M121.118,13.501c-0.233,0.013-0.539,0.028-1.138,0.058
		c0.5,0.761,0.85,1.297,1.202,1.831c0.044-0.035,0.089-0.071,0.133-0.106C121.254,14.725,121.191,14.168,121.118,13.501
		L121.118,13.501z M24.52,33.414c0.165,0.186,0.306,0.346,0.463,0.523c0.143-0.137,0.282-0.272,0.436-0.421
		C25.143,33.026,24.859,33.134,24.52,33.414L24.52,33.414z M84.639,34.159c-0.469-0.109-0.935-0.356-1.295,0.415
		C84.35,34.895,84.35,34.895,84.639,34.159L84.639,34.159z M89.379,32.644c-0.351-0.285-0.534-0.404-0.686-0.565
		c-0.089-0.093-0.129-0.249-0.189-0.377c-0.109,0.131-0.269,0.248-0.313,0.396c-0.066,0.214-0.047,0.454-0.073,0.797
		C88.507,32.815,88.834,32.75,89.379,32.644L89.379,32.644z M98.48,29.915c-0.941-0.024-1.045,0.12-1.119,1.507
		C97.775,30.864,98.074,30.463,98.48,29.915L98.48,29.915z M135.342,20.198c0.588,0.223,1.15,0.375,1.13,0.435
		c-0.329,1.028,0.486,0.565,0.902,0.775c-0.082-0.479-0.142-0.825-0.212-1.234C136.659,20.179,136.162,20.187,135.342,20.198
		L135.342,20.198z M119.869,24.31c-0.167-1.288-0.386-1.392-1.654-0.896C118.785,23.72,119.214,23.954,119.869,24.31L119.869,24.31z
		 M123.915,18.285c0.171,1.103,0.171,1.103,1.341,0.377c-0.041-0.275-0.083-0.548-0.137-0.904
		C124.648,17.962,124.278,18.125,123.915,18.285L123.915,18.285z M127.855,28.965c0.102,0.354,0.203,0.703,0.323,1.119
		c0.352-0.086,0.67-0.163,1.039-0.252C128.545,28.849,128.545,28.849,127.855,28.965L127.855,28.965z M117.192,13.455
		c-0.368,0.174-0.638,0.247-0.849,0.417c-0.217,0.174-0.376,0.446-0.561,0.673c0.224,0.111,0.449,0.22,0.742,0.364
		C116.77,14.374,116.957,13.965,117.192,13.455L117.192,13.455z M116.594,24.751c-0.018-0.11-0.036-0.219-0.054-0.327
		c-0.567,0.16-1.131,0.319-1.693,0.479C115.469,25.463,116.038,25.265,116.594,24.751L116.594,24.751z M140.976,15.331
		c0.16,0.641,0.297,1.188,0.445,1.783c0.272-0.2,0.561-0.415,0.846-0.623C142.036,15.832,142.053,14.914,140.976,15.331
		L140.976,15.331z M120.296,8.764c-0.013-0.1-0.026-0.203-0.039-0.303c-0.561,0.064-1.119,0.131-1.716,0.201
		C119.11,9.617,119.11,9.617,120.296,8.764L120.296,8.764z M119.241,29.423c-0.632-0.454-1.047-0.176-1.439,0.388
		C118.438,30.143,118.438,30.143,119.241,29.423L119.241,29.423z M150.138,15.883c0.172-1.055,0.172-1.055-0.717-1.304
		C149.66,15.809,149.66,15.809,150.138,15.883L150.138,15.883z M40.019,34.783c0.328-0.086,0.551-0.145,0.856-0.224
		C40.43,34.013,40.43,34.013,40.019,34.783L40.019,34.783z M135.047,38.164c-0.458-0.399-0.816-0.711-1.289-1.12
		C133.848,38.459,133.848,38.459,135.047,38.164L135.047,38.164z M134.279,22.433c0.42,0.214,0.77,0.397,1.138,0.549
		c0.013,0.006,0.315-0.376,0.277-0.452c-0.198-0.41-0.508-0.693-1.074-0.451C134.58,22.094,134.551,22.147,134.279,22.433
		L134.279,22.433z M119.845,2.934c0.054-0.157,0.111-0.315,0.165-0.472c-0.564-0.064-1.128-0.13-1.69-0.193
		c-0.026,0.065-0.052,0.131-0.078,0.196C118.774,2.622,119.307,2.779,119.845,2.934L119.845,2.934z M19.682,34.153l0.722,0.099
		C20.227,33.622,20.202,33.619,19.682,34.153L19.682,34.153z M118.47,18.001c0.348,0.343,0.636,0.629,0.924,0.912
		c0.072-0.055,0.146-0.113,0.218-0.17c-0.116-0.36-0.232-0.722-0.362-1.128C118.956,17.76,118.757,17.858,118.47,18.001
		L118.47,18.001z M62.541,6.055c0.128,0.07,0.226,0.186,0.319,0.161c0.153-0.038,0.305-0.162,0.45-0.272
		c0.014-0.011-0.016-0.267-0.05-0.27c-0.127-0.011-0.269,0.005-0.395,0.067C62.763,5.791,62.673,5.922,62.541,6.055L62.541,6.055z
		 M129.257,7.852c0.995,0.114,0.984-0.571,1.152-1.163C129.412,6.5,129.533,7.289,129.257,7.852L129.257,7.852z M94.518,28.752
		c0.582,0.518,0.582,0.518,1.413,0.118L94.518,28.752L94.518,28.752z M138.798,31.243c-0.384-0.712-0.987-0.564-1.636-0.216
		C137.706,31.098,138.251,31.17,138.798,31.243L138.798,31.243z M120.069,29.303c0.416,0.75,0.751,0.989,1.384,0.433
		C121.273,29.02,120.754,29.299,120.069,29.303L120.069,29.303z M37.86,38.344c-0.155-0.255-0.31-0.51-0.519-0.851
		C37.264,38.172,37.264,38.172,37.86,38.344L37.86,38.344z M61.552,34.902c0.489,0.08,0.639-0.169,0.711-0.654
		C61.853,34.144,61.667,34.337,61.552,34.902L61.552,34.902z M62.301,3.35c0.035-0.092,0.07-0.186,0.105-0.28
		c-0.347-0.153-0.693-0.307-1.038-0.461c-0.031,0.081-0.061,0.163-0.092,0.243C61.616,3.019,61.958,3.184,62.301,3.35L62.301,3.35z
		 M71.684,3.353c0.275,0.269,0.44,0.43,0.661,0.648c0.104-0.313,0.172-0.518,0.278-0.837C72.29,3.231,72.055,3.277,71.684,3.353
		L71.684,3.353z M119.665,35.274c-0.007,0.108-0.016,0.216-0.024,0.324c0.5,0.024,0.999,0.05,1.502,0.074
		c0.01-0.057,0.022-0.115,0.032-0.171C120.67,35.426,120.166,35.35,119.665,35.274L119.665,35.274z M129.872,32.198
		c-0.106-0.648-0.398-0.806-1.106-0.349C129.243,32.001,129.558,32.099,129.872,32.198L129.872,32.198z M107.503,21.19
		c-0.035,0.084-0.068,0.167-0.104,0.25c0.912,0.452,0.912,0.452,1.317,0.036C108.275,21.373,107.888,21.283,107.503,21.19
		L107.503,21.19z M145.353,28.855l1.798,0.13C146.571,28.533,146.349,28.04,145.353,28.855L145.353,28.855z M121.288,17.473
		c0.507,0.497,0.507,0.497,1.464,0.062L121.288,17.473L121.288,17.473z M139.538,35.38c-0.394,1.11-0.394,1.11,0.338,1.166
		C139.78,36.215,139.689,35.905,139.538,35.38L139.538,35.38z M83.246,35.224c0.02,0.124,0.04,0.25,0.06,0.373
		c0.222-0.084,0.445-0.167,0.663-0.269c0.01-0.004-0.036-0.283-0.046-0.282C83.695,35.093,83.471,35.16,83.246,35.224L83.246,35.224
		z M142.292,2.731c0.399,0.64,0.373,1.538,1.278,0.45C143.221,3.058,142.898,2.945,142.292,2.731L142.292,2.731z M37.272,34.876
		c-0.007,0.063-0.016,0.126-0.023,0.188c0.135,0.044,0.27,0.102,0.409,0.123c0.024,0.004,0.065-0.139,0.141-0.315
		C37.583,34.873,37.427,34.874,37.272,34.876L37.272,34.876z M124.884,20.42c0.078-0.088,0.157-0.178,0.235-0.266
		c-0.079-0.395-0.255-0.674-0.784-0.48c-0.062,0.023-0.109,0.135-0.243,0.311C124.365,20.133,124.625,20.276,124.884,20.42
		L124.884,20.42z M95.07,24.636c-0.242-0.224-0.484-0.45-0.767-0.716C94.148,24.76,94.761,24.515,95.07,24.636L95.07,24.636z
		 M37.459,33.915c-0.187-0.042-0.373-0.085-0.671-0.154C37.031,34.147,37.21,34.233,37.459,33.915L37.459,33.915z M113.079,12.115
		c0.083,0.251,0.164,0.505,0.269,0.821C114.004,12.264,113.53,12.176,113.079,12.115L113.079,12.115z M114.657,27.708
		c-0.087,0.071-0.174,0.144-0.26,0.215c0.148,0.2,0.297,0.399,0.444,0.599c0.087-0.088,0.254-0.244,0.246-0.255
		C114.957,28.071,114.805,27.891,114.657,27.708L114.657,27.708z M28.867,37.283c0.014-0.071,0.028-0.141,0.042-0.21
		c-0.117-0.031-0.232-0.072-0.35-0.088c-0.059-0.009-0.122,0.025-0.183,0.039c0.003,0.04,0.006,0.082,0.009,0.122
		C28.545,37.191,28.706,37.237,28.867,37.283L28.867,37.283z M112.097,16.996c-0.016,0.093-0.03,0.187-0.045,0.28
		c0.227-0.029,0.455-0.058,0.684-0.086c0.003-0.056,0.007-0.113,0.011-0.167L112.097,16.996L112.097,16.996z M129.451,26.382
		c0.007-0.087,0.016-0.176,0.023-0.263c-0.363,0.056-0.724,0.11-1.194,0.184L129.451,26.382L129.451,26.382z M139.714,21.086
		c0.235,0.322,0.321,0.528,0.485,0.618c0.073,0.041,0.306-0.15,0.464-0.238c-0.079-0.144-0.121-0.338-0.248-0.417
		C140.312,20.984,140.107,21.056,139.714,21.086L139.714,21.086z M7.386,14.85c-0.007,0.051-0.014,0.102-0.02,0.152
		c0.054,0.053,0.109,0.149,0.165,0.145c0.069-0.006,0.14-0.095,0.209-0.148c-0.004-0.052-0.01-0.105-0.014-0.157
		C7.613,14.844,7.499,14.846,7.386,14.85L7.386,14.85z M19.459,27.833c-0.016,0.072-0.032,0.146-0.048,0.219
		c0.153,0.022,0.247,0.328,0.554,0.03C19.745,27.974,19.602,27.904,19.459,27.833L19.459,27.833z M65.619,34.869
		c-0.003,0.027-0.007,0.054-0.009,0.081c0.243,0.028,0.486,0.058,0.73,0.081c0.016,0.002,0.048-0.046,0.058-0.077
		c0.006-0.023-0.012-0.056-0.023-0.099C66.124,34.859,65.871,34.865,65.619,34.869L65.619,34.869z M81.775,1.861
		c0.304-0.123,0.51-0.207,0.888-0.36C82.219,1.196,81.997,1.156,81.775,1.861L81.775,1.861z M141.382,2.806
		c-0.639,0.381-0.989,0.589-1.44,0.857C140.645,4.022,140.919,3.626,141.382,2.806L141.382,2.806z M16.384,2.748
		c0.002,0.072,0.005,0.143,0.007,0.214c0.117-0.039,0.234-0.077,0.352-0.117c-0.002-0.056-0.004-0.11-0.006-0.166
		C16.619,2.702,16.501,2.725,16.384,2.748L16.384,2.748z M24.412,3.325c0.06,0.338,0.082,0.577,0.106,0.571
		c0.113-0.021,0.226-0.106,0.422-0.215C24.757,3.557,24.652,3.487,24.412,3.325L24.412,3.325z M81.227,31.964
		c0.198-0.73-0.163-0.606-0.648-0.674C80.878,31.599,81.025,31.751,81.227,31.964L81.227,31.964z M15.461,35.765
		c0.003-0.077,0.005-0.155,0.008-0.232c-0.109,0.001-0.218,0.003-0.326,0.005c-0.004,0.053-0.006,0.104-0.009,0.156
		C15.242,35.716,15.351,35.74,15.461,35.765L15.461,35.765z M90.177,32.794c0.013-0.11,0.028-0.221,0.041-0.332
		c-0.223,0.016-0.445,0.03-0.666,0.044c-0.007,0.088-0.014,0.177-0.021,0.264C89.746,32.779,89.961,32.787,90.177,32.794
		L90.177,32.794z M129.242,8.569c-0.014,0.712-0.014,0.712,0.728,0.618C129.693,8.95,129.502,8.789,129.242,8.569L129.242,8.569z
		 M122.771,21.837c-0.073,0.06-0.146,0.121-0.217,0.179c0.043,0.15,0.04,0.375,0.142,0.435c0.126,0.073,0.338,0.012,0.78,0.008
		C123.108,22.134,122.939,21.984,122.771,21.837L122.771,21.837z M143.755,22.448c0.464,0.254,0.603,0.388,0.668,0.354
		c0.155-0.083,0.279-0.247,0.415-0.377c-0.09-0.079-0.174-0.228-0.274-0.222C144.375,22.214,144.174,22.313,143.755,22.448
		L143.755,22.448z M136.016,36.88c-0.021,0.118-0.038,0.237-0.058,0.353c0.264-0.025,0.528-0.049,0.794-0.076
		c0.004-0.104,0.009-0.208,0.012-0.311C136.517,36.858,136.266,36.868,136.016,36.88L136.016,36.88z M67.629,34.539
		c-0.139,0.162-0.241,0.241-0.291,0.353c-0.021,0.046,0.068,0.234,0.108,0.23c0.105-0.008,0.209-0.086,0.315-0.137
		C67.726,34.866,67.691,34.748,67.629,34.539L67.629,34.539z M98.908,6.222c0.111,0.137,0.172,0.278,0.223,0.263
		c0.132-0.037,0.26-0.143,0.391-0.222c-0.064-0.104-0.111-0.285-0.197-0.291C99.226,5.962,99.091,6.104,98.908,6.222L98.908,6.222z
		 M11.325,29.385c0.014,0.044,0.028,0.086,0.041,0.13c0.09-0.062,0.18-0.121,0.269-0.183c-0.025-0.065-0.05-0.13-0.075-0.195
		C11.482,29.221,11.404,29.303,11.325,29.385L11.325,29.385z M99.479,27.819c-0.086,0.112-0.171,0.222-0.256,0.334
		c0.162,0.126,0.319,0.264,0.493,0.367c0.02,0.011,0.146-0.174,0.224-0.269C99.785,28.107,99.632,27.963,99.479,27.819
		L99.479,27.819z M138.855,32.133c0.032-0.106,0.064-0.212,0.095-0.318l-0.728-0.06c-0.022,0.079-0.041,0.158-0.064,0.239
		C138.39,32.039,138.624,32.086,138.855,32.133L138.855,32.133z M138.103,29.439c0.239,0.195,0.346,0.37,0.484,0.376
		c0.12,0.004,0.277-0.183,0.416-0.286c-0.094-0.122-0.165-0.313-0.292-0.341C138.589,29.16,138.406,29.305,138.103,29.439
		L138.103,29.439z M11.935,21.004c-0.053,0.087-0.096,0.159-0.139,0.229c0.035,0.053,0.08,0.162,0.104,0.149
		c0.058-0.031,0.106-0.118,0.158-0.182C12.026,21.148,11.993,21.094,11.935,21.004L11.935,21.004z M46.652,34.974
		c0.195,0.454,0.352,0.277,0.513-0.017C47.015,34.962,46.865,34.967,46.652,34.974L46.652,34.974z M38.862,34.386
		c0.004-0.047,0.008-0.092,0.011-0.139l-0.362-0.046c-0.003,0.047-0.005,0.092-0.008,0.139L38.862,34.386L38.862,34.386z
		 M143.096,13.651c0.168,0.159,0.244,0.307,0.351,0.306c0.11,0.001,0.29-0.116,0.365-0.225c0.043-0.065-0.053-0.306-0.095-0.301
		C143.542,13.459,143.366,13.548,143.096,13.651L143.096,13.651z M126.806,11.815c0.014-0.048,0.029-0.095,0.046-0.142
		c-0.258-0.053-0.513-0.107-0.768-0.164c-0.025,0.096-0.05,0.19-0.076,0.286L126.806,11.815L126.806,11.815z M113.564,11.287
		c0.061-0.051,0.124-0.102,0.186-0.154c-0.095-0.176-0.189-0.353-0.285-0.526c-0.097,0.088-0.193,0.177-0.291,0.266
		C113.304,11.009,113.434,11.148,113.564,11.287L113.564,11.287z M48.447,3.037c0.012-0.077,0.025-0.154,0.037-0.233
		c-0.121-0.011-0.242-0.021-0.362-0.032c-0.011,0.072-0.023,0.144-0.035,0.217C48.208,3.007,48.328,3.021,48.447,3.037L48.447,3.037
		z M17.544,2.154c0.024-0.081,0.048-0.16,0.073-0.241c-0.108-0.026-0.214-0.052-0.321-0.078C17.285,1.89,17.274,1.945,17.263,2
		C17.357,2.052,17.451,2.103,17.544,2.154L17.544,2.154z M81.878,3.179c0.051-0.047,0.102-0.092,0.15-0.139
		c-0.036-0.049-0.066-0.132-0.111-0.133c-0.042-0.001-0.099,0.083-0.15,0.131C81.806,3.086,81.841,3.134,81.878,3.179L81.878,3.179z
		 M95.682,22.139c0.049,0.107,0.097,0.212,0.146,0.316c0.192-0.149,0.384-0.297,0.577-0.446c-0.026-0.066-0.052-0.133-0.078-0.199
		C96.11,21.92,95.894,22.031,95.682,22.139L95.682,22.139z M20.954,34.387c-0.013-0.07-0.025-0.138-0.038-0.208
		c-0.088,0.046-0.177,0.092-0.265,0.138c0.008,0.051,0.015,0.099,0.022,0.15C20.767,34.442,20.86,34.415,20.954,34.387
		L20.954,34.387z M118.935,16.6c-0.037,0.074-0.073,0.147-0.11,0.221c0.151,0.066,0.302,0.133,0.452,0.201
		c0.037-0.08,0.112-0.226,0.107-0.23C119.24,16.718,119.086,16.66,118.935,16.6L118.935,16.6z M103.003,14.528
		c-0.048,0.078-0.095,0.155-0.143,0.233c0.094,0.042,0.19,0.137,0.286,0.116c0.133-0.027,0.267-0.138,0.399-0.213
		c-0.054-0.091-0.091-0.246-0.164-0.256C103.268,14.396,103.131,14.482,103.003,14.528L103.003,14.528z M143.701,15.637
		c-0.028,0.06-0.055,0.119-0.082,0.179c0.103,0.06,0.195,0.158,0.313,0.174c0.138,0.022,0.3-0.025,0.453-0.041
		c0.008-0.06,0.015-0.12,0.023-0.183C144.171,15.723,143.935,15.68,143.701,15.637L143.701,15.637z M140.17,22.416
		c0.001-0.058,0.004-0.117,0.005-0.175c-0.229,0.003-0.459,0.007-0.686,0.012c-0.007,0.04-0.013,0.082-0.02,0.124L140.17,22.416
		L140.17,22.416z M143.843,21.518c0.021,0.11,0.044,0.216,0.066,0.326c0.271-0.09,0.545-0.172,0.812-0.286
		c0.021-0.01-0.019-0.225-0.031-0.346C144.405,21.314,144.124,21.417,143.843,21.518L143.843,21.518z M13.353,33.146
		c-0.002-0.045-0.003-0.09-0.006-0.136c-0.072,0.019-0.144,0.039-0.217,0.058c0.014,0.049,0.029,0.139,0.042,0.138
		C13.233,33.199,13.292,33.168,13.353,33.146L13.353,33.146z"/>
</g>
</svg>
