<?xml version="1.0" encoding="utf-8"?>
<!-- Generator: Adobe Illustrator 21.0.0, SVG Export Plug-In . SVG Version: 6.00 Build 0)  -->
<svg version="1.1" id="Layer_1" xmlns:sketch="http://www.bohemiancoding.com/sketch/ns"
	 xmlns="http://www.w3.org/2000/svg" xmlns:xlink="http://www.w3.org/1999/xlink" x="0px" y="0px" viewBox="0 0 179.8 90.2"
	 style="enable-background:new 0 0 179.8 90.2;" xml:space="preserve">
<style type="text/css">
	.st0{opacity:0.9;}
	.st1{fill:#FFFFFF;}
</style>
<title>Imported Layers</title>
<desc>Created with Sketch.</desc>
<g id="Welcome" sketch:type="MSPage" class="st0">
	
		<g id="Imported-Layers" transform="translate(232.000000, 130.000000) rotate(3.000000) translate(-232.000000, -130.000000) translate(85.000000, 108.000000)" sketch:type="MSLayerGroup">
		<path id="Fill-1" sketch:type="MSShapeGroup" class="st1" d="M78.3-65c0,0,0-0.2,0-0.2c0.8-0.3,1.6-0.8,2.3-1.6c0-0.2,0.2,0,0.3,0
			c0.1,0.4,0.1,0.4-0.1,0.6c-0.7,0.5-1.3,0.8-2.1,1.2c0,0.2,0.1,0.2,0.1,0.4c-0.7,0.5-1.5,1.1-2.3,1.6c-0.2-0.4-0.3-0.7-0.6-0.5
			c-0.3,0.2-3.8,1.6-4.2,1.8c0.6,0.3,3.9-1.4,4.5-1.5c-0.2,0.2-0.4,0.4-0.5,0.7c0.1,0.2,0.3,0.5,0.4,0.7c0.4-0.1,0.8-0.3,1.2-0.4
			c-0.1-0.2-0.2-0.4-0.3-0.7c0.6-0.5,0.7-0.5,0.8,0.3c0.2,0,0.3,0,0.5-0.1c0.3-0.2,0.7-0.5,1.1-0.5c0.3-0.2,0.7-0.5,1-1
			c0.2,0,0.3-0.4,0.5-0.1l0-0.2c-0.1,0.4-0.4,0.6-0.8,0.7l0,0c-0.2,0-0.4,0.2-0.6,0.5c-0.4,0.3-0.9,0.7-1.4,0.8
			c-0.2,0-0.2,0.2-0.4,0.4c0.3,1.2,0.2,0.9-0.4,1.3c-0.3,0.2-0.7,0.5-1,0.9c0.1,0,0.3,0,0.4-0.1c0,0,0,0.2,0.1,0.2
			c-0.1,0-0.2,0-0.3,0.2c-1.3,0.6-5.7,2.4-7,3.1c-0.3,0.2-0.6,0.5-0.9,0.7c-0.1,0-0.3,0.2-0.4,0.1c-0.4-0.3-0.7-0.1-0.9,0.1
			c-0.4,0.2-0.7,0.9-1.3,0.2c-0.1-0.2-0.4-0.1-0.7-0.1c0.4-0.6,1.3-0.4,1.3-1.4c-0.6-0.1-1.2,0-1.7,0.4c-0.1,0-0.3,0-0.4,0.1
			c-0.3,0-0.7-0.1-1.1-0.2c0,0.2,0.1,0.4,0,0.6c-0.3,0-5.5,0-5.8-0.2c-0.2-0.2-0.4,0.1-0.6,0.3c-0.1-0.2-0.1-0.4-0.4-0.7
			c-0.1,0.4-0.4,0.4-0.5,0.7c-0.2,0.2-0.1,0.2-0.4,0.1c-0.1,0-0.1-0.2-0.2-0.2c-0.5,0.1-1.1,0.1-1.6,0.4c-0.1,0-0.2,0.2-0.2,0.2
			c-0.1,0-4.4,1.8-4.5,1.9c-0.3,0-0.7,0.3-0.9,0.1c-0.7-0.5-1.2,0-1.9,0.1c0.4,0.5,0.7,0.7,1,1.1c0.8-0.1,5.6-2,6.5-1.9
			c0.1,0,0.2,0,0.3,0c0.3,0,0.5-0.5,0.9,0.1c0.1,0.2,0.4-0.1,0.6-0.1l0,0c0.1,0.2,0.2,0.4,0.3,0.5l0.7,0.1l-0.1-0.2
			c0.1,0,0.1-0.4,0.3-0.2c0.4-0.1,0.9-0.1,1.3-0.2c-0.5-0.1-0.9-0.1-1.4-0.2c0.6-0.5,6.2-0.3,7-0.4c-0.2,0.2-5.2-0.1-5.4,0.1
			c0.2,0,5.4,0.4,5.7,0.4c-0.3,0.2-5.5,0-5.6,0.2c0.2,0.2,5.3,0.6,5.5,0.6c-0.3,0.4-5.9-0.2-6.2,0.3c0,0.2,0,0.6-0.1,0.8
			c0.4-0.3,6,0.5,6.4,0.3c0.4-0.3,1-0.3,1.4-0.4c-0.3,0.2-0.6,0.5-0.9,0.7c-0.4,0.1-5.8-0.2-6.2-0.1c-0.4,0.1-0.4,0.1-0.2,0.8
			c-0.2,0-0.3,0-0.5,0.3c0.1,0,0.1,0.2,0.1,0.2c0.2,0,0.4-0.1,0.5-0.1c0.8,0.3,6.5,0.1,7.2,0c-0.1-0.2-0.2-0.4-0.3-0.5
			c0.2,0,0.4-0.1,0.4-0.1c0.3,0.7,0.7,0.5,1,0.2c0,0,0.1,0,0.1,0l0.1,0.8c0.1,0,0.3,0,0.4-0.1l0,0.2c-0.1,0-0.4,0.1-0.1,0.6l0,0.2
			c-0.3,0-0.6,0.3-1,0.3c-0.1,0-0.3-0.2-0.4-0.1c0-0.2,0-0.2,0-0.2c0.2,0,0.4-0.1,0.6-0.1c0,0,0,0,0-0.2c-0.7-0.1-1.4-0.2-2.1-0.3
			c-0.5,0.1-6.1,0.1-6.6,0.1c-0.1,0-0.2,0.2-0.4,0.1c-0.5-0.3-1-0.1-1.5,0c-0.3,0-0.6,0.1-0.9,0.1c-0.2,0-0.5,0.1-0.5,0.4
			c-0.7-0.1-5.4,1.2-6.1,1.1c-0.2,0-0.4,0.1-0.7,0.1c0.1,0.2,0.1,0.4,0.2,0.4c-0.1,0.4-0.3,0.2-0.6,0.3c-0.7-0.1-1.5-0.2-2.1-0.1
			c-0.8-0.1-1.6,0.2-2.4,0.1c-0.4,0.1-0.9,0.1-1.3-0.6c0.1,0,0.2,0,0.3-0.2l-1.2,0c0.1,0,0.1,0.2,0.1,0.2s0.1,0,0.2,0
			c-0.1,0.2-0.1,0.4-0.2,0.8c0.9,0.1,1.6,0,2.3,0.1c0.7,0.1,1.5,0.2,2.1,0.3c0,0.2,0,0.2,0,0.2L44.5-46c-0.4,0.1-0.9-0.1-1.3,0
			c-0.4,0.1-0.8-0.1-1.1,0c-0.5-0.1-1.1-0.4-1.5,0c-0.1,0-0.3,0-0.4,0.1c-0.2,0-0.3,0-0.5,0.1c0.1,0,0.2,0.2,0.3,0.2
			c0.4-0.1,0.8,0.1,1.2,0c0.5-0.1,1,0.1,1.6,0c0.9,0.1,1.9-0.1,2.9,0.2c0.4,0.1,0.7-0.1,1-0.1c0.5-0.1,0.9,0.1,1.4,0
			c0.2,0,0.4-0.1,0.6-0.3c-0.3-0.2-0.5-0.3-0.7-0.5l0,0c0.2,0,0.3,0,0.5,0.1c0.5,0.1,0.8,0.1,0.9-0.7c0.1,0.4,0.1,0.4,0.3,0.5
			c-0.4,0.1-0.7,0.5-0.8,0.9c0,0.2-0.2,0.2-0.3,0.2c-0.4,0.1-0.7,0.3-1.2,0.4c-0.2-0.6-0.6-0.7-0.9-0.5c-0.2,0-0.5,0.1-0.7,0.1
			c0.3,0,0.7,0.1,1,0.1c-0.4,0.4-0.8,0.7-1.4,0.4c-1.1-0.2-2.1-0.3-3.1-0.2c-0.9,0.1-1.7-0.2-2.5,0.1c-0.2,0-0.4,0.1-0.7-0.1
			c0.1,0.2,0.1,0.2,0.1,0.2c1.1,0,2.2,0.1,3.3,0.3c0.1,0,0.1,0,0.1,0c0.7,0.5,1.4,0.4,2.2,0.5c-0.1,0-0.2,0-0.3,0
			c-1-0.1-2-0.1-3-0.2c-1.4,0-2.8,0-4.3,0c-0.5,0.1-1-0.1-1.5-0.2c-0.4,0.1-0.8-0.1-1.1,0.5c0.5-0.1,1,0.1,1.5,0.2
			c-0.2,0.2-0.6-0.1-0.6,0.5c0,0-0.1,0-0.2,0c-0.6-0.3-1.1,0.1-1.6,0c-0.5,0.1-11.7,0-12.3,0.1c-0.2,0-0.3,0-0.5,0.1
			c-0.2,0.1-0.5-0.1-0.7-0.1c-0.5,0.1-1.1,0.2-1.7-0.2c-0.2-0.2-0.3,0-0.6,0.1c0.2,0.2,0.4,0.5,0.4,0.5c0.7,0.1,1.3,0.2,2,0.1
			c0.3,0,0.6,0.1,0.8-0.3c0-0.2,0.3,0,0.4-0.1c0.7,0.3,12,0.3,12.7,0.2c0.1,0,0.2,0,0.3,0c0.3,0.2,0.6,0.1,0.8,0.1
			c0.2,0,0.5,0.1,0.7,0.3c-0.6,0.1-1.1,0.2-1.7,0c-1.6,0-13.7-0.1-15.2-0.1c-1-0.1,1.1-1.2,0.2-1.1c-1.1,0.1-2.1,0.3-3.1,0.4
			c-1.5,0-2.9,0-4.4,0c-2-0.1,1-0.1-1-0.4c-0.7-0.1-1.5-0.2-2.2-0.3c-0.4,0.1-0.8-0.1-1.1,0.3c-0.1,0.4-0.7,0.3-1.1,0.2
			c-0.4,0.1-0.8-0.3-1.1-0.2c-2-0.1-4-0.2-6,0c-0.7,0.1-1.4,0.2-2.1,0.1c-1.8,0.2-3.7,0.3-5.6,0.4c-0.7,0.1-1.5,0.2-2.2,0.3
			c-2.8,0-5.6,0.2-8.4,0.4c-1.3,0.2-2.6,0.2-3.9,0.3c-0.8,0.1-1.7,0-2.5,0.1c-0.4,0.1-0.9,0.1-1.3,0.2c-0.3,0-0.6,0.1-0.9-0.1
			c-0.3,0-0.8-0.3-1,0.3c0,0.2-0.4,0.1-0.6-0.1c-0.4-0.3-0.7-0.1-0.9,0.1c-0.3,0.2-0.6,0.3-1,0.1c-0.3-0.2-0.6-0.1-0.8-0.1
			c0.1,0,0.3,0.2,0.5,0.1c-0.7,0.5-1.5,0.4-2.2,0.5c0,0.2,0,0.2,0,0.2c0.7,0.1,1.3-0.2,1.9-0.1c0.6-0.1,1.3-0.2,1.9-0.3
			c0.6-0.1,1.3,0,2,0.1c0,0.2,0,0.2,0.1,0.2c-0.2,0-0.3,0.2-0.5,0.3c-1,0.1-1.9,0.5-3,0.4c-0.2,0-0.4,0.1-0.4,0.4l3.3-0.1
			c-1,0.1-1.9,0.3-2.9,0.4c-0.5,0.1-1.1,0.1-1.5,0.4c-1.3,0.8-2.9,0.4-4.3,0.4c-1-0.1-1.9,0.1-2.9,0c-1.1,0-2.3-0.1-3.3-0.1
			c-0.8-0.1-1.6-0.4-2.4-0.5c-1.2,0-2.3-0.3-3.4-0.3c-0.7-0.1-1.4,0-2,0.1c-1.2,0-2.4-0.1-3.5-0.1c-0.7-0.1-1.4,0-2.1,0.1
			c-2.4,0.3-4.8,0.6-7.2,0.9c-2.2,0.3-4.4,0.4-6.7,0.1c-1.1,0,0.4-0.8-0.7-1.2c-1-0.1-1.9-0.5-2.6-1.7c-0.3-0.3-0.7-0.7-1.2-1.1
			c-0.4-0.1-0.3-0.3-0.3-0.7c-0.3,0-0.7-0.1-1-0.1c-0.4,0.1-0.8,0.1-1.2,0.2c-0.4,0.1-0.8-0.3-1.2-0.4c-0.2-0.2-3,0.6-3.2,0.6
			c-0.3-0.7-0.6-1.6-1-2.3c0.5,0.1,3.5-0.7,3.9-0.7c0.7,0.1,0.7,0.1,0.6-0.9c0-0.2,0-0.2-0.1-0.4c-0.4-0.1-0.8-0.5-1.2-0.4
			c-0.2,0-3.1,0.6-3.3,0.4c0.2,0,3-0.8,3.4-0.6c-0.6-0.7-3.9,0.1-4.5-0.5c0.3,0,0.4-0.1,0.6-0.1c0.1-0.8,0-1.1-0.6-1.4
			c-0.4-0.1-0.9-0.3-1.2-0.8c0-0.2-0.2,0-0.4,0.1l0-0.2c-0.1-0.6,0.1-0.8,0.4-1.1c0.2,0,0.4-0.3,0.3-0.8c-0.2-0.6-0.5-0.9-0.8-1.3
			c-0.2-0.2-0.4,0.1-0.5,0.6c-0.2-0.2-0.5-0.3-0.8-0.5c0.4-0.2,0.7-0.3,1.1-0.5c0.3,0.3,0.5,0.3,0.9,0.1c0.2,0,0.3,0,0.5-0.1
			c0-0.2,0-0.6,0-1.1c-0.2,0-0.5,0.3-0.7-0.3c0.2-0.2,0.4-0.6,0.6-0.8c0.2,0,0.4-0.1,0.5,0.1c0,0.2,2.7-0.5,2.8-0.4
			c0-0.2,0-0.4,0.1-0.4c0.1,0,0.2,0.2,0.4,0.1c0-0.4,0-0.6,0.1-0.8c-0.4-0.5-3.4,0.1-3.8-0.3c-0.1-0.2-0.3-0.2-0.5-0.1
			c-0.3,0-0.5-0.1-0.4-0.5l0,0c0.2-0.2,0.3-0.6,0.6-0.8c0.4-0.3,3.4-1.3,3.8-1c0.1,0,0.2,0,0.4,0.1c-0.5-0.9-1.1-1.3-1.1-2.3
			c-0.2-0.2-3,0.6-3.3,0.4c0,0.4-0.1,0.6-0.1,0.8c-0.5-0.1-0.6-0.5-0.3-1.4c0.8,0.5,4.2-0.4,5-0.5c0-0.6,0.2-1.1,0.7-0.9
			c0.4-0.1,0.9-0.1,1.3-0.2c0.3,0,0.6-0.3,0.7-0.5c0.1-0.4,0.4-0.6,0.7-0.9c-0.3-0.3-0.6-0.9-0.8-1.3c0.1,0,0.1,0,0.1,0
			c0.4,0.3,0.8,0.9,1.1,1.3c0.3,0.3,0.6,0.5,0.8,0.1c0.2-0.2,0.5-0.3,0.8-0.1c1.1-0.2-0.4,0.4,0.8,0.3c0.4-0.1,0.7-0.1,1.2,0
			c0.4,0.1,0.7,0.3,1,0.2c1.6,0,3-0.2,4.6-0.4c0.2,0,0.4-0.1,0.7,0.1c0.4,0.1,0.8,0.3,1.2,0c2.4-0.1,4.6-0.2,7-0.4
			c0.7,0.1,1.4,0,2.1,0.1c0-0.2-0.1-0.4-0.2-0.6c0.4-0.1,0.8-0.1,1.3-0.2c0.4-0.1,0.9,0.1,1.3,0c0.2,0,0.4-0.1,0.7,0.1
			c1-0.1,1.9-0.3,3,0c0.5,0.1,0.9-0.1,1.3-0.2c0.2,0,0.3,0,0.4-0.1c0.5-0.1,1.1,0,1.7,0c0.6-0.1,1.2,0,1.8,0.1
			c0.4,0.1,0.9,0.3,1.3,0.4c1.6,0,3.3-0.1,4.9-0.1c0.4-0.1,0.9,0.1,1.3,0.2c0.8,0.3,1.4,0.2,2.1-0.1c0.4-0.1,0.8-0.3,1.1-0.5
			c-0.9-0.1-1.7-0.3-2.8-1c0.4-0.1,0.7-0.3,1-0.3c0.5-0.1,1.1-0.1,1.7-0.2c0.1,0,0.2,0,0.2,0c0.6,0.5,1,0.1,1.5,0.2
			c0.8,0.1,1.6,0,2.4,0.1c1,0.1,2,0.1,3.1,0.2c0.4-0.1,0.8,0.1,1.2,0c0.5-0.1,1.1,0,1.7,0c0.4-0.1,0.8,0.1,1-0.3
			c0-0.2,0.3,0,0.4-0.1c0.9-0.1,1.7-0.2,2.6,0c0.2,0.2,0.5-0.1,0.7,0.1c0.3,0,0.7,0.1,1,0.5c0.1,0.2,0.4,0.3,0.7,0.3
			c0.7,0.1,1.3,0,2,0.1c0.7,0.1,1.5,0,2.2,0.1c0.1,0.2,0.1,0.4,0.1,0.4c0.1,0.2,0.2,0.2,0.4,0.1c1-0.1,2.1-0.1,3.1-0.2
			c0.1,0,0.3,0,0.4-0.1c0.8-0.5,1.8-0.4,2.6-0.5c0.1,0,0.1,0,0.2,0.2c-0.1,0-0.1,0.4-0.1,0.4l5.6,0c-0.6,0.3-1.3,0.2-2,0.3
			c-0.3,0-0.6,0.1-1.1,0.1c1,0.6,1.8,0.1,2.6,0.4c0.8,0.1,1.6-0.2,2.4-0.1c-0.4,0.4-1,0.3-1.5,0.4s-1.1,0-1.6,0.2c0,0.2,0,0.2,0,0.2
			c0.9,0.1,1.9-0.1,2.8,0c1.7,0,3.4-0.1,5.1-0.1c0.2,0,0.4,0.1,0.6,0.1c0.3,0,0.6,0.1,0.8,0.1c0.4-0.3-4-0.6-3.6-0.7
			c0.9,0.1,1.7,0,2.6,0c0.9-0.1,1.8-0.2,2.7-0.4c1.4,0,2.7-0.4,4.1-0.4c1.7,0,0.3,0.7,2.1,0.5c1-0.1,2.1-0.1,3.1-0.2
			c1.3-0.2,13.3-0.1,14.6,0c1.1-0.2,2.3-0.3,3.4-0.5c0.2,0,0.3,0,0.5-0.1c2.7,0.2,5.3,0.3,7.9,0.5c0.2,0,0.5,0.1,0.6-0.3
			c0-0.2,0.3,0,0.4-0.1c1.9,0.1,8-1.4,9.9-1.3c0.7,0.1,6.3,0.3,6.8-0.3c-0.1-0.2-5.1-0.5-5.2-0.6c0.3-0.8,6,0.5,6.4,0.3
			c-0.3,0-0.7-0.1-1,0.3c1.1,0.4,1.8-0.1,2.7,0c0.9,0.1,1.7,0,2.6-0.2c0-0.2,0-0.4,0.1-0.6c0.5-0.1,1.1,0.2,1.6,0.4
			c0.4,0.1,0.8-0.1,1.3-0.2c0.8-0.1,4.7-1.7,5.4-2c0.1,0,0.2,0,0.4-0.1c-0.2,0.2-0.1,0.4-0.2,0.2c-0.7,0.1-4.3,1.8-4.9,2.1
			s-1.3,0.4-1.9,0.6c-0.2,0-0.3,0-0.5,0.1c-0.7,0.3-1.4,0.4-2,0.5c-0.2,0-0.5-0.1-0.8-0.3c-0.3,0.4-1,0.1-1.4,0.4
			c-0.8-0.5-1.5-0.2-2.2-0.3c-1.3,0-7.6-0.3-8.8-0.3c-0.2,0-0.4,0.1-0.6,0.3c1.4,0.2,2.8,0.2,4.1,0.2c-0.5,0.4-1.2,0.2-1.7,0.4
			c1.2,0.6,7.3,0.4,8.6,0.8c-0.2,0.2-0.3,0.4-0.5,0.5c-0.3,0-0.5,0.1-0.8-0.1c-0.5-0.1-5.9-0.8-6.2-0.3c0,0.2-0.3,0-0.4,0.1
			c-0.4,0.1-0.8-0.1-1.2,0.2c0.8,0.1,1.7,0.7,2.4,0.2c0.3-0.2,5.5,0.2,5.9,0.6c-0.7,0.3-6.3-0.1-7,0c-0.6,0.1-1.3,0.2-2,0.3
			c0.1,0.2,0.1,0.2,0.3,0.2c-0.2,0-0.4,0.1-0.5-0.1c-0.2,0-0.5-0.1-0.7-0.1c0,0.2,0,0.2,0,0.2l0.8,0.1c0.1,0.4,0.1,0.4,0.4,0.3
			c0.3,0,0.5-0.1,0.8,0.1c0,0.6,0,0.6-0.6,0.7c0-0.2,0.1,0,0.2-0.2c0.1,0,0-0.2,0.2-0.2c-0.7-0.1-1.4,0-2-0.1
			c-0.7-0.1-5.4,1.4-6.1,1.1c0.5-0.3,5.3-1.4,5.9-1.7c-0.1-0.2-4.4,1.1-4.5,1.1c-0.7-0.1-1.4-0.2-2.1-0.3c-0.6-0.1-1-0.1-1.3,0.6
			c-0.1,0,0,0.2,0,0.2l-1.3,0l0,0.2c0.1,0,0.2,0.2,0.4,0.1c0.7,0.1,1.4,0.2,2.1,0.3c0.3,0,0.5,0.3,0.8,0.3c0.4-0.1,0.7,0.1,1.1-0.1
			c0.3,0,4.6-1.3,4.9-1.2c0-0.6,0.4-0.2,0.7-0.5c0.3,0,0.5,0.1,0.6,0.7c-0.2,0-0.4,0.1-0.9,0.1c0.4,0.3,0.7,0.5,1,0.8l0,0
			c-0.1,0-0.1,0-0.2-0.2c0,0.6-0.4,0.4-0.7,0.5c-0.3,0-4.6,1.5-4.7,1.9c0,0.2-0.3,0.2-0.4,0.4c0.9,0.3,5.9-1.3,6.8-1.4
			c0.9-0.1,1.8,0,2.6-0.2c0.9-0.1,6.7-0.1,7.6-0.1c0.9-0.1,1.5-0.8,2.4-0.7c0,0.2,0.1,0.4,0.1,0.6c0.3,0,0.4-0.3,0.8-0.1
			c-0.1-0.2-0.1-0.2-0.2-0.2c0.4-0.3,0.4-0.3,0.9-0.1c0.2,0,0.4-0.1,0.5-0.1c0.2-0.6,0.7-0.3,1.1-0.5c0.2,0,0.4,0.1,0.4,0.3
			c-0.1,0.4,0.2,0.6,0.4,0.9c0.7-0.3,4.4-1.7,5-1.9c0.2,0,0.2-0.4,0.3-0.6c0.8,0.3,0.8,0.3,1.1-0.5c0,0.2,0.1,0.4,0.1,0.4
			C77.4-64.5,77.8-64.8,78.3-65c-0.2,0.2-0.5,0.4-0.6,0.7c-0.2,0.2-0.7-0.1-0.8,0.7c0.7-0.1,1.1-0.3,1.6-0.8
			C78.4-64.7,78.2-64.8,78.3-65L78.3-65z M55.8-56.1L55.8-56.1c0.3,0,0.7,0.1,1,0.1c0.1,0,0.3,0,0.2-0.2c0-0.4,0.2-0.4,0.5-0.4
			c0.2,0,5.3,0.2,5.5,0.2c0-0.2,0-0.2,0-0.2c-0.2-0.2-5.4-0.6-5.5-0.6c-0.4,0.4-0.8,0.3-1.3,0.2c-0.1,0-0.2,0-0.3,0
			c-0.2,0.2-0.6,0.3-0.9,0.1c-0.3-0.2-0.4,0.1-0.6,0.3C55.1-56.6,55.4-56.4,55.8-56.1L55.8-56.1z M66.1-57.6c0.4-0.1,1,0.3,1.3-0.2
			c0.1,0,0.1,0,0.2,0c0.6-0.1,1.2-0.2,1.8-0.2c0.2,0,0.4-0.1,0.6-0.3c0.1,0,0.2,0,0.2-0.2c0.2-0.8,0.2-0.8,0.7-0.9
			c0.1,0,0.2,0,0.3-0.2c-0.2-0.2-0.3-0.2-0.4-0.1c-0.6,0.3-1.3,0.6-1.9,0.8c-0.2,0-0.3,0-0.4,0.1c-0.4,0.1-0.7,0.1-0.9,0.7
			c0,0-0.2,0-0.2,0C66.9-58.1,66.5-57.8,66.1-57.6c-0.1-0.2-0.1-0.2-0.3-0.3c0.2-0.2,0.4-0.2,0.6-0.5c-0.3,0-0.5,0.1-0.8,0.3
			c-0.1,0-0.1,0.4-0.1,0.6c-0.4,0.1-0.9,0.1-1,0.9c0.6-0.1,1.1-0.3,1.6-0.4L66.1-57.6L66.1-57.6L66.1-57.6z M63.3-59.1L63.3-59.1
			c0.7,0.7,1.2,0.4,1.8,0.1c0.2,0,0.4-0.2,0.6-0.1c0.4,0.1,0.7,0.1,0.8-0.5c0-0.2,0.2-0.2,0.3-0.2c0.2,0.2,0.4,0.3,0.6,0.5
			c0.2-0.2,0.4-0.3,0.7-0.5c0.1,0.4,0.3,0.2,0.4-0.1c0.3-0.2,0.7-0.5,0.9-0.5c0.7-0.1,1.3-0.6,1.9-0.8c-0.2-0.2-0.4-0.3-0.5-0.3
			c-0.5,0.1-1,0.3-1.5,0.4l-0.1-1.2c-0.5,0.3-0.8,0.9-1.5,0.6c-0.1,0.4-0.6,0.1-0.7,0.1c-0.2,0.2-0.5,0.3-0.8,0.3
			c-0.8,0.5-1.8,0.4-2.6,0.5c-0.6,0.1-6.2-0.3-6.6,0.1c-0.2-0.2-0.3-0.2-0.4-0.3c-0.2,0-0.3,0-0.5,0.1c0.2,0.2,0.3,0.3,0.4,0.5
			c-0.6,0.3-0.1,0.8-0.1,1.5c0.6-0.3,6.3,0.5,6.8-0.1C63.2-58.8,63-59.2,63.3-59.1L63.3-59.1z M46.6-56.2L46.6-56.2
			c-0.4-0.1-0.8-0.1-1.2,0c-0.6,0.1-1.2,0-1.8,0c-0.4,0.1-0.7,0.3-1-0.2c-0.1-0.2-0.2-0.2-0.2-0.2c-0.3,0-0.7-0.1-1.2,0
			c0.4,0.3,0.7,0.5,1,0.8c-0.2,0-0.3,0-0.4,0.1c-0.1,0-0.2-0.2-0.4-0.1c0,0.2,0,0.2,0,0.2c0.2,0.2,0.4,0.3,0.7,0.3
			c0.4-0.1,0.7-0.1,1.1-0.2c-0.1-0.4,0.1-0.6,0.4-0.4c0.2,0.2,0.5,0.1,0.7,0.3c-0.1,0.2-0.3,0.2-0.3,0.2c0,0.6-0.4,0.4-0.7,0.5
			c-0.3,0-0.6,0.1-0.9,0.1c-0.8-0.1-1.7,0-2.5,0.1c0.1,0.2,0.2,0.4,0.3,0.3c0.5-0.1,1-0.1,1.5-0.2c0.4-0.1,0.8,0.1,1.3,0
			c0.2,0,0.3,0.3,0.5,0.5c0.4,0.1,0.7,0.1,1.1,0.2c0,0.2,0,0.2,0.1,0.4c0.5-0.3,1.2,0,1.7-0.2c0.1,0,0.2,0,0.3,0
			c0.5-0.1,1,0.1,1.6,0.2c0.1,0,0.2,0,0.3-0.2c-0.4,0.1-0.7-0.1-1-0.1c-0.3,0-0.6,0.1-1-0.2c0.6-0.1,1.2-0.2,1.7-0.2
			c-0.1-0.4-0.3-0.5-0.4-0.9c-0.2,0-0.3,0-0.4,0.1c0,0.2,0,0.4,0,0.6c-0.2,0-0.3,0-0.5,0.1c-0.7-0.1-1.2-0.4-1.9-0.9
			C45.4-55.9,45.9-56.1,46.6-56.2L46.6-56.2z M55.7-52c0-0.2,0-0.2,0-0.2c-0.1,0-0.3-0.2-0.4-0.1c-0.3,0.2-0.6,0.1-1,0.1
			c-0.2,0-0.3,0-0.5,0.1c-0.2,0-4.4,1.5-4.6,1.5c-0.5-0.3-1-0.2-1.5,0c-0.3,0-0.4,0.3-0.7,0.1c0-0.4,0.1-0.6,0.2-1.1
			c-0.4,0.1-0.7,0.3-1,0.3c-0.3,0.2,0,0.6-0.1,1.3l1.6,0c-0.3,0.8-1,0.3-1.4,0.8c0.3,0.5,0.8,0.3,1.1,0.6c0.1,0.2,0.3,0,0.5-0.1
			c0.2,0,0.3,0,0.4-0.1c0.1,0,0.1-0.4,0.2-0.6c0.2,0.6,0.5,0.7,0.8,0.5c0.4-0.1,4.9-1.7,5.4-1.6c0.1,0,0.2,0,0.3,0
			c0.4,0.5,0.8,0.1,1.2,0c0-0.4,0.1-0.6,0.1-0.8c-0.6-0.3-0.7,0.7-1.3,0.4c-0.5-0.1-5.1,1.4-5.5,1.4c0-0.2,0-0.4,0-0.6
			c-0.3-0.3,4.1-2,4.3-2c0.4-0.1,0.7-0.1,1.1-0.2C55.3-52,55.5-52,55.7-52L55.7-52z M-22.8-40.7c0-0.2,0-0.2,0-0.2
			c-1.3-0.2-2.6,0-3.8,0.1c-1.3,0-2.6,0.2-3.9,0c0,0.2,0,0.2,0,0.2c1.7,0,3.4,0.1,5.1,0.3C-24.6-40.4-23.7-40.5-22.8-40.7
			L-22.8-40.7z M68.8-57c0,0.2,0.1,0.2,0.1,0.2c0.8-0.5,1.7-0.8,2.6-1.2c0.8-0.5,4.8-1.9,5.7-2.4c-0.1-0.2-0.2-0.4-0.3-0.3
			c-0.4,0.3-3.9,1.8-4.3,2c-0.4,0.1-0.8,0.3-1.2,0.5c-0.3,0.2-0.7,0.5-1,0.5C69.6-57.9,69.3-57.4,68.8-57L68.8-57z M10.3-66.4
			c0.5,0.5,0.6,0.5,1.2,0.4c0.7-0.1,1.5,0,2.2-0.1c0.1,0,0.2,0,0.4-0.1C13.6-66.8,11.6-66.9,10.3-66.4L10.3-66.4z M37-57.8
			c1.2,0.4,5.4,0.2,5.8,0L37-57.8L37-57.8z M37.7-62.8l4.2-0.2c-0.1-0.4-0.3-0.5-0.4-0.9c-0.2,0.2-0.4,0.4-0.7,0.5
			c-0.8,0.1-1.7,0-2.5,0.1C38.1-63.1,37.9-63.2,37.7-62.8L37.7-62.8z M36.3-46.2c0.1,0,0.2,0.2,0.3,0.2c0.5-0.1,0.9,0.1,1.4,0.2
			c0.3,0.2,0.7,0.3,0.9-0.1c-0.2-0.6-0.2-0.6-0.4-0.5c-0.2,0-0.4,0.1-0.5,0.1c-0.6-0.5-0.9-0.1-1.4,0C36.4-46.6,36.4-46.4,36.3-46.2
			L36.3-46.2z M37.1-55.6c0.4-0.2,0.7-0.5,1.3-0.2c0.2,0.2,0.5-0.1,0.8,0.1c-0.1-0.4-0.2-0.6-0.3-0.7c-0.8,0.1-1.6,0-2.3,0.7
			C36.7-56,36.9-55.8,37.1-55.6L37.1-55.6z M-24.3-39.7c-1.6-0.2-3.1-0.2-4.8-0.1c0.2,0.2,0.3,0.2,0.3,0.2c1.1,0,2.2-0.1,3.3,0.3
			C-25.1-39.4-24.6-39.2-24.3-39.7L-24.3-39.7z M43.8-61.7c0,0.2,0,0.2,0,0.2c0.1,0.2,0.2,0.2,0.3,0.2c0.6-0.3,1.2,0,1.8-0.2
			c0.3,0,0.5-0.3,0.6-0.7c-0.3,0.2-0.7,0.3-1,0.3c-0.2,0-0.4,0.1-0.6,0.1C44.6-61.6,44.2-61.5,43.8-61.7L43.8-61.7z M35.4-64
			L35.4-64c1.3,0.2,2.5,0.1,3.8,0.3c0.2,0,0.3,0,0.4-0.1c-0.4-0.1-0.8-0.3-1.2-0.4c-0.7-0.1-1.3,0.2-1.9,0.3
			C36.2-63.8,35.9-63.7,35.4-64L35.4-64z M39-54.1c-0.7-0.7-1-0.8-1.6-0.4C37.8-54,38.2-53.7,39-54.1L39-54.1z M7-66.1
			c-0.7-0.1-1.4-0.2-2.1-0.3c-0.2,0-0.4,0.1-0.4,0.3C5.5-65.5,6.2-65.8,7-66.1L7-66.1z M56-59.2c-0.2-0.2-0.3-0.3-0.4-0.3
			c-0.2,0-0.5,0.1-0.7,0.1c-0.3,0-0.4,0.2-0.2,0.6c0.1,0.4,0.3,0.2,0.5,0.1C55.4-58.8,55.6-59.2,56-59.2L56-59.2z M53-59.1
			c-0.8-0.3-5.4,1.2-5.8,1.6C47.8-57.8,52.5-58.7,53-59.1L53-59.1z M44.6-59.8c0.1,0.6,0.4,0.5,0.7,0.5c0.2,0,0.5,0.1,0.4-0.4
			L44.6-59.8L44.6-59.8z M44.5-65c0.5,0.7,0.5,0.7,1.3,0.2C45.4-64.9,44.9-65.3,44.5-65L44.5-65z M44.3-57.9L44.3-57.9l2.4,0.1
			l0-0.2L44.3-57.9L44.3-57.9z M44.3-49.5L44.3-49.5l1.3,0.2l0-0.2L44.3-49.5L44.3-49.5z M7.1-58.6c0,0.2,0.1,0.2,0.1,0.2
			c0.3-0.2,0.8,0.1,1.1-0.3c-0.4-0.1-0.8-0.1-1.2,0C7.1-58.8,7.1-58.8,7.1-58.6L7.1-58.6z M44.1-66.6L44.1-66.6l1.9-0.1l0-0.2
			L44.1-66.6L44.1-66.6z M63.4-56.8c0.6,0.3,0.6,0.3,0.7-0.5C63.8-57.1,63.6-56.9,63.4-56.8L63.4-56.8z M57.3-52.3
			c0-0.2,0-0.2-0.1-0.2c-0.3,0-0.6-0.1-0.7,0.5C56.8-52.2,57-52.2,57.3-52.3L57.3-52.3z M54.2-55.7L54.2-55.7c-0.3,0-0.7-0.1-1,0.1
			l0,0.2C53.5-55.6,53.9-55.5,54.2-55.7L54.2-55.7z M-19.1-41.6c0-0.2,0-0.2,0-0.2c-0.4,0.1-0.8-0.3-1.1,0.3
			C-19.8-41.5-19.5-41.6-19.1-41.6L-19.1-41.6z M-26.1-41.4L-26.1-41.4l1.6,0.2l0-0.2L-26.1-41.4L-26.1-41.4z M40.6-56.2
			c-0.4-0.5-0.4-0.5-0.8-0.1C40.1-56.1,40.4-56.1,40.6-56.2L40.6-56.2z M41.5-61.3c0-0.2,0-0.2,0-0.2c-0.3-0.2-0.6-0.3-0.8,0.1
			L41.5-61.3L41.5-61.3z M38.5-67L38.5-67l-1.2,0l0,0.2L38.5-67L38.5-67z M36.3-61.2c-0.3-0.2-0.5-0.5-0.8-0.1
			C35.8-60.9,36-60.8,36.3-61.2L36.3-61.2z M71.7-60.7c0,0.2,0.1,0.2,0.1,0.2c0.2,0,0.4-0.1,0.6-0.3C72-61.1,71.8-60.9,71.7-60.7
			L71.7-60.7z M55.5-50.9L55.5-50.9L54.8-51c0,0.2,0,0.2,0,0.2C55.1-50.9,55.2-51.2,55.5-50.9L55.5-50.9z M44-53.2
			c0.4,0.3,0.5,0.3,0.6-0.3C44.5-53.4,44.3-53.2,44-53.2L44-53.2z M53-60.5L53-60.5c-0.4-0.1-4.7,1.5-5.1,1.4l0,0.2
			C48.3-59,52.7-60.5,53-60.5L53-60.5z M40.2-55.4c0-0.2,0-0.2,0-0.2c-0.2,0-0.4,0.1-0.6,0.3l0,0.2C39.8-55.4,40-55.4,40.2-55.4
			L40.2-55.4z M40.7-48.5C40.8-48.5,40.8-48.5,40.7-48.5l0.8,0.1l0-0.2L40.7-48.5L40.7-48.5z M33.9-63.7L33.9-63.7L33-63.8l0,0.2
			L33.9-63.7L33.9-63.7z M69.7-61.7c0.1,0.2,0.2,0.2,0.2,0.2c0.1,0,0.2,0,0.2-0.2c-0.1-0.2-0.1-0.2-0.2-0.2
			C69.8-62,69.8-61.8,69.7-61.7L69.7-61.7z M43.3-53.9c0.2,0.2,0.4,0.1,0.6,0.3C43.7-54.2,43.6-53.8,43.3-53.9L43.3-53.9z
			 M66.9-56.1c0.1,0.2,0.1,0.2,0.1,0.2c0.1,0,0.2-0.2,0.3-0.4l-0.1-0.2C67.1-56.3,67-56.3,66.9-56.1L66.9-56.1z M3.6-59.6L3.6-59.6
			l0.7,0.1l0-0.2L3.6-59.6L3.6-59.6z M3.1-65.8L3.1-65.8c0.2,0.2,0.4,0.1,0.6-0.1l0,0C3.5-65.6,3.3-65.6,3.1-65.8L3.1-65.8z
			 M40.7-60.6c0.3,0.2,0.3,0.2,0.5-0.1C41-60.7,40.8-60.8,40.7-60.6L40.7-60.6z M53.7-59c-0.2-0.4-0.3-0.3-0.7-0.3
			C53.4-59,53.6-59,53.7-59L53.7-59z M46.5-53.3C46.5-53.3,46.6-53.1,46.5-53.3l0.5,0.1l0-0.2L46.5-53.3L46.5-53.3z M48.2-45.2
			L48.2-45.2l-0.4-0.1l0,0.2C47.9-45.2,48-45.2,48.2-45.2L48.2-45.2z M38.2-47.8L38.2-47.8c0.2,0.2,0.3,0.2,0.5,0.1l0-0.2L38.2-47.8
			L38.2-47.8z M41-59.6L41-59.6c-0.1-0.2-0.3-0.2-0.4-0.1c0,0,0,0,0,0.2C40.8-59.6,40.9-59.6,41-59.6L41-59.6z M42-59.5
			c-0.1-0.2-0.1-0.2-0.1-0.2c-0.1,0-0.1,0-0.2,0C41.8-59.5,41.9-59.5,42-59.5L42-59.5z"/>
		<path id="Fill-2" sketch:type="MSShapeGroup" class="st1" d="M56.1-59.4c0.5-0.1,6,0,6.6-0.1c0-0.2,0-0.4,0.1-0.6
			c0.1-0.2,0.3-0.4,0.4-0.3c0.5,0.3,0.7-0.3,0.8-0.5c0,0,0-0.2,0.2,0c0.3,0.2,0.5,0.3,0.9,0.5c0.2,0,0.3-0.2,0.5-0.3
			c0.1,0.2,0.1,0.4,0.3,0.5c0.3-0.2,0.5-0.4,0.6-0.7c0.3,0.2,0.6,0.3,0.9,0.5c-0.7,0.7-1.8,0-2.6,0.5c0.1,0.2,0.1,0.4,0.1,0.4
			c-0.1,0-0.2,0.2-0.5,0.3l1.9-0.1c0.1,0.2,0.1,0.4,0.3,0.5c-0.3-0.5-0.6-0.3-0.9-0.3c-0.2,0-0.4,0.1-0.6,0.1
			c-0.4,0.1-0.9-0.1-1.1,0.5c-0.1,0-0.2,0.2-0.4,0.2c-0.5,0.1-6.1-0.3-6.7-0.1c-0.1,0-0.2-0.2-0.4-0.1
			C56.4-58.6,56.4-59.3,56.1-59.4L56.1-59.4L56.1-59.4z M56.8-58.8c0.5,0.3,6,0.9,6.3,0.1C62.6-58.7,57.3-58.9,56.8-58.8L56.8-58.8z
			 M64.1-59.7L64.1-59.7c-0.2-0.2-0.3-0.2-0.5-0.1l0,0.2C63.9-59.7,64-59.7,64.1-59.7L64.1-59.7z"/>
		<path id="Fill-3" sketch:type="MSShapeGroup" class="st1" d="M2.4-64.2c0.7-0.5,1.6,0,2.2-0.3c0.7-0.3,1.5-0.2,2.2-0.3
			c0.8,0.1,1.6,0.2,2.4,0.3c-0.2,0-0.4,0.3-0.7,0.3c-0.7,0.1-1.4,0.2-2.1,0.5c-0.7,0.1-1.5,0.2-2.4-0.1c-0.3-0.2-0.5,0.1-0.8-0.1
			c-0.3,0-0.5,0.1-0.8-0.1C2.4-64,2.4-64,2.4-64.2"/>
		<path id="Fill-4" sketch:type="MSShapeGroup" class="st1" d="M57.2-44.9c0.2,0,0.5,0.1,0.8,0.1c0.5-0.1,1-0.1,1.6,0
			c0.2,0,5.2,0.3,5.5,0.6c-0.1,0-5.2-0.3-5.3-0.2c-0.4,0.1-0.8-0.1-1.2,0c-0.3,0-0.7-0.1-0.7,0.5c0,0.2-0.4,0.3-0.4,0.3
			c-0.3-0.3-0.5-0.1-0.8-0.1C56.8-44.3,57-44.5,57.2-44.9"/>
		<path id="Fill-5" sketch:type="MSShapeGroup" class="st1" d="M66.7-62.3c0-0.4,0.1-0.6,0.2-1.1c0.4-0.1,0.7-0.1,1.2-0.2l0,0.2
			c-0.2,0-0.4,0.2-0.6,0.3c0,0.2,0,0.2,0,0.2c0.3,0,0.6-0.1,0.9-0.1C67.8-62.6,67.3-62.2,66.7-62.3"/>
		<path id="Fill-6" sketch:type="MSShapeGroup" class="st1" d="M83.5-60.9L83.5-60.9c0.2-0.2,0.2-0.6,0.4-0.6c0.6-0.1,1-0.5,1.4-0.8
			c0.1,0,0.2,0,0.4-0.1c-0.7,0.5-1.4,1.3-2.1,1.7C83.6-60.5,83.5-60.7,83.5-60.9"/>
		<path id="Fill-7" sketch:type="MSShapeGroup" class="st1" d="M1.2-64.3l2.8,0c-0.4,0.3-1,0.3-1.5,0.6c-0.2,0-0.5,0.3-0.6-0.3
			c0,0-0.2,0-0.2,0C1.6-64.1,1.4-64.1,1.2-64.3C1.2-64.1,1.2-64.1,1.2-64.3"/>
		<path id="Fill-8" sketch:type="MSShapeGroup" class="st1" d="M71.1-51.4c-0.3,0-1.7,0.6-2,0.8c-0.2,0.2-0.4,0.2-0.7-0.1
			c0.2-0.2,0.3-0.4,0.4-0.4c0.7,0.1,1.4-0.2,1.9-0.6C71-51.8,71-51.6,71.1-51.4L71.1-51.4"/>
		<path id="Fill-9" sketch:type="MSShapeGroup" class="st1" d="M70.5-60c-0.7,0.5-1.3,0.8-2.1,0.7C68.9-60.2,69.8-59.7,70.5-60"/>
		<path id="Fill-10" sketch:type="MSShapeGroup" class="st1" d="M66.2-45.1c0.1,0,0.2,0,0.2,0l0,0c0.3,0.3,0.4,0.5,0.7,0.1
			c0.1,0,0.4-0.1,0.5-0.1c-0.2,0.2-0.5,0.4-0.8,0.5c-0.4-0.1-0.4,0.1-0.3,0.8c-0.3,0-0.6,0.1-0.9,0.1C66.1-44,66.2-44.2,66.2-45.1
			L66.2-45.1"/>
		<path id="Fill-11" sketch:type="MSShapeGroup" class="st1" d="M86-65.5c-0.5,1.1-1.2,1.4-1.9,1.9L84-63.9
			C84.6-64.4,85.3-64.8,86-65.5"/>
		<path id="Fill-12" sketch:type="MSShapeGroup" class="st1" d="M-6.5-65.5c-0.7,0.1-1.4,0.4-2,0.5c0-0.2,0-0.2,0-0.2
			c0.7-0.3,1.4-0.4,2-0.5C-6.5-65.5-6.5-65.5-6.5-65.5"/>
		<path id="Fill-13" sketch:type="MSShapeGroup" class="st1" d="M6.6-64.4c0,0.2,0,0.4,0.1,0.8l-1.6,0C5.7-63.9,6.1-64.1,6.6-64.4"
			/>
		<path id="Fill-14" sketch:type="MSShapeGroup" class="st1" d="M72.1-52.1c0.3-0.2,0.5-0.4,0.7-0.7c0.1,0,0.3,0,0.4-0.1
			c0,0.4-0.5,0.5-0.2,0.8c-0.2,0-0.3,0.2-0.4,0.3C72.4-51.8,72.3-52,72.1-52.1"/>
		<path id="Fill-15" sketch:type="MSShapeGroup" class="st1" d="M12.1-64.8c-0.7,0.3-1.5,0.2-2.3,0.5c0-0.2,0-0.2,0-0.2
			C10.5-64.9,11.3-64.7,12.1-64.8"/>
		<path id="Fill-16" sketch:type="MSShapeGroup" class="st1" d="M50.5-43.6c-0.5,0.5-1.3,0.6-2.1,0.1C49.1-43.6,49.9-43.7,50.5-43.6
			L50.5-43.6"/>
		<path id="Fill-17" sketch:type="MSShapeGroup" class="st1" d="M79.2-48.4c0.1,0.2,0.3,0.3,0.5,0.7c0,0.4-0.3,0.4-0.8,0.7
			C79-47.3,79-47.7,79.2-48.4"/>
		<path id="Fill-18" sketch:type="MSShapeGroup" class="st1" d="M69.7-45.5c-0.4,0.2-0.5,1.3-1.2,0.5C68.6-45.8,69.2-45.5,69.7-45.5
			"/>
		<path id="Fill-19" sketch:type="MSShapeGroup" class="st1" d="M-47.1-71c0.1,0.4,0.3,0.9,0.4,1.4c-0.1,0-0.2,0-0.2,0
			c-0.2-0.4-0.4-0.9-0.6-1.6"/>
		<path id="Fill-20" sketch:type="MSShapeGroup" class="st1" d="M41.4-40.4c-0.5,0.4-1,0.1-1.5,0.2c0.1-0.8,0.5,0.1,0.7-0.3
			C40.7-40.7,41-40.6,41.4-40.4"/>
		<path id="Fill-21" sketch:type="MSShapeGroup" class="st1" d="M66.3-45.3c0.4-0.2,0.6-0.7,1.2-0.7c0.1,0,0.2,0,0.4,0.1
			c0,0.2-0.1,0.2-0.1,0.2C67.4-45.4,66.8-45.3,66.3-45.3L66.3-45.3"/>
		<path id="Fill-22" sketch:type="MSShapeGroup" class="st1" d="M58.5-50.8c-0.2-0.2-0.3-0.3-0.5-0.5c0.3,0,5.7,0.2,6,0
			C64-50.6,58.7-50.8,58.5-50.8L58.5-50.8"/>
		<path id="Fill-23" sketch:type="MSShapeGroup" class="st1" d="M66.2-45.1l-1.1,0c0.4-0.4,0.4-0.4,1.1-0.3
			C66.1-45.4,66.1-45.2,66.2-45.1L66.2-45.1"/>
		<path id="Fill-24" sketch:type="MSShapeGroup" class="st1" d="M78.8-55.4c0,0.2,0,0.2,0.1,0.4c-0.4-0.1-0.6,0.3-0.8,0.5
			c-0.2-0.2-0.4-0.3-0.1-0.6C78.2-55.1,78.5-55.3,78.8-55.4"/>
		<path id="Fill-25" sketch:type="MSShapeGroup" class="st1" d="M73.5-52.6c0.1-0.4,3.3-1.9,3.7-1.8C77.4-53.7,74-52.5,73.5-52.6"/>
		<path id="Fill-26" sketch:type="MSShapeGroup" class="st1" d="M71.8-45c-0.4,0.2-0.8,0.3-1.2,0.5C70.7-44.9,70.7-44.9,71.8-45"/>
		<path id="Fill-27" sketch:type="MSShapeGroup" class="st1" d="M45.4-40.6l1.2,0C46.2-40.3,45.8-40.3,45.4-40.6"/>
		<path id="Fill-28" sketch:type="MSShapeGroup" class="st1" d="M72.3-60.6c-0.3,0-0.6,0.3-0.8,0.5c-0.1,0-0.1,0-0.1,0
			C71.6-60.7,71.6-60.7,72.3-60.6"/>
		<path id="Fill-29" sketch:type="MSShapeGroup" class="st1" d="M-23.7-37.3l-0.9-0.1C-24.3-37.6-24-37.7-23.7-37.3"/>
		<path id="Fill-30" sketch:type="MSShapeGroup" class="st1" d="M77-60.6c0-0.6,0.3-0.4,0.7-0.5C77.5-60.7,77.3-60.7,77-60.6"/>
		<path id="Fill-31" sketch:type="MSShapeGroup" class="st1" d="M67.2-43.7c0.4-0.4,0.4-0.4,0.7,0.1L67.2-43.7"/>
		<path id="Fill-32" sketch:type="MSShapeGroup" class="st1" d="M43.5-66.1l-1.1,0C42.7-66.4,43.1-66.3,43.5-66.1"/>
		<path id="Fill-33" sketch:type="MSShapeGroup" class="st1" d="M78.4-53.9c-0.2,0.2-0.3,0.8-0.7,0.5C77.8-53.4,78.1-53.6,78.4-53.9
			"/>
		<path id="Fill-34" sketch:type="MSShapeGroup" class="st1" d="M82.3-48.8c0.2,0,0.4-0.3,0.7-0.3C82.9-48.7,82.7-48.5,82.3-48.8"/>
		<path id="Fill-35" sketch:type="MSShapeGroup" class="st1" d="M74.5-69.5c0.3,0,0.7-0.3,1-0.3c0,0.2,0,0.2,0.1,0.2
			C75.3-69.6,74.9-69.6,74.5-69.5C74.6-69.6,74.6-69.6,74.5-69.5"/>
		<path id="Fill-36" sketch:type="MSShapeGroup" class="st1" d="M70.3-45.6c0.3,0,0.4-0.3,0.7-0.3C70.8-45.7,70.8-45.3,70.3-45.6"/>
		<path id="Fill-37" sketch:type="MSShapeGroup" class="st1" d="M44.6-40.3c-0.2,0-0.4,0.1-0.6,0.1C44.2-40.6,44.2-40.6,44.6-40.3"
			/>
		<path id="Fill-38" sketch:type="MSShapeGroup" class="st1" d="M67.2-50.2c0.2-0.6,0.2-0.6,0.6-0.1C67.6-50.3,67.4-50.1,67.2-50.2"
			/>
		<path id="Fill-39" sketch:type="MSShapeGroup" class="st1" d="M71.6-49.8c0-0.4,0-0.6,0-0.8c0.1,0,0.2,0,0.2,0
			C71.8-50.3,72-49.9,71.6-49.8"/>
		<path id="Fill-40" sketch:type="MSShapeGroup" class="st1" d="M71.2-47.2c-0.3,0-0.5,0.1-0.7,0.3C70.5-47.5,70.8-47.5,71.2-47.2"
			/>
		<path id="Fill-41" sketch:type="MSShapeGroup" class="st1" d="M55.9-67.3c-0.2,0-0.4,0.1-0.6,0.1l0-0.2
			C55.4-67.4,55.6-67.5,55.9-67.3C55.7-67.5,55.8-67.3,55.9-67.3"/>
		<path id="Fill-42" sketch:type="MSShapeGroup" class="st1" d="M3-64.9c-0.2,0-0.4,0.1-0.5,0.1l0-0.2c0.2,0,0.4-0.1,0.6-0.3
			C3.1-65.1,3.1-64.9,3-64.9"/>
		<path id="Fill-43" sketch:type="MSShapeGroup" class="st1" d="M-72.8-55.2L-72.8-55.2c-0.1,0-0.2,0-0.4,0.1c0-0.2,0-0.4,0.1-0.4
			C-72.7-55.6-72.7-55.4-72.8-55.2"/>
		<path id="Fill-44" sketch:type="MSShapeGroup" class="st1" d="M-9.2-38.6l-0.8-0.1l0-0.2L-9.2-38.6C-9.2-38.8-9.2-38.6-9.2-38.6"
			/>
		<path id="Fill-45" sketch:type="MSShapeGroup" class="st1" d="M88.9-56.4c0-0.6,0.1-0.8,0.5-0.5C89.2-56.7,89.1-56.6,88.9-56.4"/>
		<path id="Fill-46" sketch:type="MSShapeGroup" class="st1" d="M68.6-63.6l0.6-0.1l0,0L68.6-63.6C68.7-63.4,68.6-63.6,68.6-63.6"/>
		<path id="Fill-47" sketch:type="MSShapeGroup" class="st1" d="M61.3-66.2c0.2,0,0.4,0.1,0.5,0.1c0,0.2,0,0.2,0,0.2
			c-0.2,0-5.3-0.4-5.4-0.4C56.3-66.5,61.2-66.2,61.3-66.2"/>
		<path id="Fill-48" sketch:type="MSShapeGroup" class="st1" d="M74.1-48.6c0.2,0,3.4-1.1,3.5-1.3l0.1,0.2c-0.1,0-3.4,1.3-3.4,1.5
			C74.2-48.2,74.2-48.5,74.1-48.6"/>
		<path id="Fill-49" sketch:type="MSShapeGroup" class="st1" d="M80.6-60.3c0.2,0,0.3,0,0.4-0.3C81-60.2,81-60.2,80.6-60.3"/>
		<path id="Fill-50" sketch:type="MSShapeGroup" class="st1" d="M73.7-51.4c0.1,0,0.2-0.2,0.2-0.2l0.1,0.2c-0.1,0-0.2,0.2-0.2,0.2
			L73.7-51.4"/>
		<path id="Fill-51" sketch:type="MSShapeGroup" class="st1" d="M-21.8-37.6l-0.4,0.1l0-0.2L-21.8-37.6L-21.8-37.6"/>
		<path id="Fill-52" sketch:type="MSShapeGroup" class="st1" d="M53.8-67.4c0.1,0,0.3,0,0.4-0.1c0,0.2,0,0.2,0,0.2
			c-0.1,0-0.3,0-0.4,0.1L53.8-67.4"/>
		<path id="Fill-53" sketch:type="MSShapeGroup" class="st1" d="M43.4-40.3c-0.2,0-0.4,0.1-0.5,0.1c0,0,0-0.2-0.1-0.2
			c0.1,0,0.2,0,0.2,0c0.1,0,0.2,0,0.3,0C43.4-40.5,43.4-40.5,43.4-40.3"/>
		<path id="Fill-54" sketch:type="MSShapeGroup" class="st1" d="M81-58.2c0-0.2,0-0.4,0-0.4c0.1,0,0.1,0,0.1,0c0,0.2,0,0.2,0,0.2
			c0,0.2,0,0.2,0,0.2C81.1-57.9,81-58.2,81-58.2"/>
		<path id="Fill-55" sketch:type="MSShapeGroup" class="st1" d="M81.4-69.3L81-69.2l0-0.2c0.1,0,0.3,0,0.4-0.1
			C81.4-69.5,81.4-69.3,81.4-69.3"/>
		<path id="Fill-56" sketch:type="MSShapeGroup" class="st1" d="M79.1-65.7c-0.2,0-0.3,0-0.4,0.2l-0.1-0.2c0.1,0,0.2-0.2,0.3-0.2
			C79-65.7,79-65.7,79.1-65.7"/>
		<path id="Fill-57" sketch:type="MSShapeGroup" class="st1" d="M-73.1-45.4c-0.1-0.2-0.1-0.4-0.3-0.3c0.1,0,0.1,0,0.2,0
			c0.1,0.2,0.1,0.4,0.2,0.4C-73-45.6-73.1-45.4-73.1-45.4"/>
		<path id="Fill-58" sketch:type="MSShapeGroup" class="st1" d="M57.9-43c-0.1,0-0.2,0-0.4,0.1l0-0.2C57.6-42.9,57.8-43.2,57.9-43
			L57.9-43"/>
		<path id="Fill-59" sketch:type="MSShapeGroup" class="st1" d="M68.3-61c0.2,0,0.4-0.1,0.5-0.1l0,0.2c-0.2,0-0.4,0.1-0.6,0.1
			C68.3-60.8,68.3-60.8,68.3-61"/>
		<path id="Fill-60" sketch:type="MSShapeGroup" class="st1" d="M68.5-52.7c0.1,0,0.3,0,0.4-0.1l0,0.2c-0.1,0-0.3,0-0.3,0.2
			C68.5-52.7,68.5-52.7,68.5-52.7"/>
		<path id="Fill-61" sketch:type="MSShapeGroup" class="st1" d="M71.1-51.4c0.2,0,0.2-0.6,0.6-0.3C71.5-51.7,71.3-51.6,71.1-51.4
			L71.1-51.4"/>
		<path id="Fill-62" sketch:type="MSShapeGroup" class="st1" d="M5-65l0.3,0l0,0L5-65L5-65"/>
		<path id="Fill-63" sketch:type="MSShapeGroup" class="st1" d="M4.1-63.7c0-0.2,0.1,0,0.2,0c0.1,0,0.1,0.2,0.2,0.2
			c0,0.2,0,0.2-0.1,0C4.3-63.7,4.3-63.7,4.1-63.7"/>
		<path id="Fill-64" sketch:type="MSShapeGroup" class="st1" d="M62.2-66.8l-0.3,0l0-0.2L62.2-66.8C62.3-66.8,62.3-66.5,62.2-66.8"
			/>
		<path id="Fill-65" sketch:type="MSShapeGroup" class="st1" d="M-8.2-64.5c0.1,0,0.2,0,0.4-0.1l0,0.2C-7.9-64.6-8.1-64.5-8.2-64.5
			L-8.2-64.5"/>
		<path id="Fill-66" sketch:type="MSShapeGroup" class="st1" d="M65.1-63.9c-0.2,0-0.3,0-0.5,0.1l0-0.2L65.1-63.9L65.1-63.9"/>
		<path id="Fill-67" sketch:type="MSShapeGroup" class="st1" d="M54.5-66.6c0.1,0.2,0.1,0.2,0.1,0.2c-0.1,0-0.1,0-0.2,0
			c0,0-0.1-0.2-0.1-0.2C54.4-66.4,54.4-66.4,54.5-66.6"/>
		<path id="Fill-68" sketch:type="MSShapeGroup" class="st1" d="M74.2-45.8c-0.1,0-0.2,0-0.3,0.2l-0.1-0.2
			C73.9-45.9,74-45.7,74.2-45.8C74.2-45.9,74.2-45.9,74.2-45.8"/>
		<path id="Fill-69" sketch:type="MSShapeGroup" class="st1" d="M-70.5-39.5c-0.1-0.2-0.1-0.2-0.1-0.4c0.1,0,0.1,0,0.1,0
			c0.1,0.2,0.1,0.2,0.1,0.4C-70.5-39.7-70.5-39.7-70.5-39.5"/>
		<path id="Fill-70" sketch:type="MSShapeGroup" class="st1" d="M73.7-44.9c-0.1-0.2-0.1-0.2-0.1-0.2c0-0.2,0-0.2,0.1-0.2
			c0.1,0,0.1,0.2,0.1,0.2C73.8-44.9,73.7-44.9,73.7-44.9"/>
		<path id="Fill-71" sketch:type="MSShapeGroup" class="st1" d="M48.6-40.7c-0.1,0-0.2,0-0.3,0c0,0,0,0,0-0.2
			C48.4-40.8,48.5-40.8,48.6-40.7L48.6-40.7"/>
		<path id="Fill-72" sketch:type="MSShapeGroup" class="st1" d="M84.2-60c-0.1,0-0.2,0-0.3,0.2c0,0,0-0.2-0.1-0.2
			C83.9-60,84-60,84.2-60C84.1-60.2,84.2-60,84.2-60"/>
		<path id="Fill-73" sketch:type="MSShapeGroup" class="st1" d="M82.7-60c0,0.2,0.3,0.5-0.1,0.8C82.6-59.5,82.6-59.7,82.7-60
			L82.7-60"/>
		<path id="Fill-74" sketch:type="MSShapeGroup" class="st1" d="M67.4-59c-0.1-0.2-0.1-0.2-0.1-0.4c0-0.2,0-0.2,0.1-0.2
			c0.1,0,0.1,0.2,0.1,0.2C67.5-59.2,67.5-59.2,67.4-59"/>
		<path id="Fill-75" sketch:type="MSShapeGroup" class="st1" d="M80.5-55c0.1,0,0.2,0,0.3,0l0,0.2C80.6-55,80.5-55,80.5-55
			C80.5-54.8,80.5-55,80.5-55"/>
		<path id="Fill-76" sketch:type="MSShapeGroup" class="st1" d="M-73.7-55.5c-0.1-0.2-0.1-0.2-0.2-0.4c0.1,0,0.1,0,0.1,0
			c0.1,0.2,0.1,0.2,0.2,0.4C-73.5-55.5-73.6-55.5-73.7-55.5"/>
		<path id="Fill-77" sketch:type="MSShapeGroup" class="st1" d="M66.1-56c0-0.2,0.1-0.2,0.1-0.4c-0.2-0.2-0.4-0.1-0.6-0.3l0-0.2
			c0.3,0,0.6-0.1,1.1-0.3C66.5-56.7,66.6-56,66.1-56L66.1-56"/>
		<path id="Fill-78" sketch:type="MSShapeGroup" class="st1" d="M56-48.4c-0.2,0.2-0.4,0.4-0.6,0.7c-0.1-0.4-0.2-0.6-0.2-0.7
			L56-48.4"/>
		<path id="Fill-79" sketch:type="MSShapeGroup" class="st1" d="M58.5-53.3c-0.1-0.2,4.7-0.1,5-0.3C63.5-53.2,58.5-53.5,58.5-53.3
			L58.5-53.3"/>
	</g>
</g>
</svg>
