<?xml version="1.0" encoding="UTF-8" standalone="no"?>
<svg width="433px" height="266px" viewBox="0 0 433 266" version="1.1" xmlns="http://www.w3.org/2000/svg" xmlns:xlink="http://www.w3.org/1999/xlink">
    <!-- Generator: Sketch 41.2 (35397) - http://www.bohemiancoding.com/sketch -->
    <title>Group 7</title>
    <desc>Created with Sketch.</desc>
    <defs>
        <rect id="path-1" x="0" y="0.5" width="488.209526" height="265.113687"></rect>
        <polygon id="path-3" points="-4.54747351e-13 476.668228 565.029028 476.668228 565.029028 0.627227223 -4.54747351e-13 0.627227223"></polygon>
    </defs>
    <g id="magicseaweed" stroke="none" stroke-width="1" fill="none" fill-rule="evenodd">
        <g id="3" transform="translate(-846.000000, -6301.000000)">
            <g id="Group-7" transform="translate(836.000000, 6301.000000)">
                <mask id="mask-2" fill="white">
                    <use xlink:href="#path-1"></use>
                </mask>
                <g id="Rectangle-4"></g>
                <g id="Page-1" mask="url(#mask-2)">
                    <g transform="translate(-42.453002, -109.935006)">
                        <path d="M474.257459,205.638515 C474.263098,205.496134 474.278762,205.35689 474.278762,205.213255 C474.278762,204.443647 474.188537,203.695365 474.029391,202.973426 C472.07265,187.966388 459.604766,176.325051 444.478395,176.088586 L444.478395,176.077296 C444.393183,176.077296 444.309225,176.081686 444.224639,176.082314 C444.153212,176.081686 444.083037,176.076669 444.011609,176.076669 C443.828654,176.076669 443.648206,176.086704 443.465877,176.090468 C443.443948,176.08984 443.421392,176.088586 443.399462,176.088586 C434.402711,176.088586 426.038158,179.898364 420.765043,186.528783 C417.699293,190.383722 416.550812,193.911875 414.246957,198.696991 L396.412601,232.562243 C394.995953,236.373903 391.530459,239.07788 387.480386,239.07788 C382.177823,239.07788 377.862716,234.445807 377.862716,228.752465 C377.862716,227.94836 377.954194,227.168089 378.117725,226.416671 L397.655067,189.504976 C397.686394,189.447899 397.715843,189.390194 397.745917,189.332489 L397.843034,189.149338 L397.836142,189.145575 C398.538514,187.748113 398.94327,186.1744 398.94327,184.502839 C398.94327,178.784409 394.312378,174.147945 388.599419,174.147945 C384.927161,174.147945 381.710411,176.068515 379.874595,178.955642 L379.868956,178.952505 L379.834495,179.0215 C379.465452,179.611721 379.156559,180.241457 378.910322,180.903182 L362.120439,215.087066 L362.075327,215.064486 L357.58165,223.843785 C357.579771,223.854448 357.577264,223.864484 357.576011,223.875146 L356.535298,225.887919 L353.059779,232.608031 L352.970808,232.562243 C351.554786,236.373903 348.088665,239.07788 344.039219,239.07788 C338.73603,239.07788 334.421549,234.445807 334.421549,228.752465 C334.421549,226.93037 334.867032,225.219294 335.642085,223.731511 L335.734189,223.285553 C338.556834,218.573195 340.187765,213.034778 340.187765,207.113126 C340.187765,206.03555 340.133255,204.968636 340.027993,203.915522 C339.038031,194.021012 333.801883,185.493858 325.885945,180.569497 C321.442394,177.722513 316.233815,176.07855 310.655566,176.087959 C310.506445,176.08545 310.359204,176.076669 310.209456,176.076669 C305.06228,176.076669 300.354947,177.474131 296.268534,179.885192 C296.179563,179.937252 296.090592,179.989312 296.00162,180.041372 C295.947736,180.073988 295.893852,180.107231 295.839968,180.140474 C288.575651,184.49594 283.683484,191.725361 280.74054,198.696991 L270.44744,219.17596 L270.654204,219.320222 L262.209451,235.673918 C260.965106,237.916255 258.667517,239.065963 255.103027,239.065963 C249.799211,239.065963 245.48473,234.43389 245.48473,228.739921 C245.48473,225.761846 248.035449,220.961676 248.035449,220.961676 C250.082415,216.785597 251.250946,212.083275 251.250946,207.100582 C251.250946,189.994214 237.660897,176.076669 220.956852,176.076669 C212.443178,176.076669 204.744029,179.696397 199.236582,185.506403 C193.727881,179.697024 186.028733,176.076669 177.515685,176.076669 C165.426242,176.076669 155.267853,183.51872 150.412026,194.030421 C150.412026,194.030421 129.53197,234.850996 128.272588,236.15751 C126.540781,237.953889 124.189308,239.065963 121.597236,239.065963 C121.560269,239.065963 121.524555,239.060318 121.487588,239.060318 L121.487588,239.065963 L112.406879,239.065963 C106.69392,239.065963 102.063027,243.702426 102.063027,249.420857 C102.063027,255.139915 106.69392,259.776378 112.406879,259.776378 L112.407505,259.776378 L121.597236,259.776378 L121.597236,259.764461 C130.59336,259.764461 138.728593,255.491789 144.001708,248.86137 C147.067458,245.006432 150.749114,237.156683 150.749114,237.156683 L168.58347,203.290803 C170.000118,199.479144 173.465612,196.775167 177.515685,196.775167 C182.818248,196.775167 187.133355,201.40724 187.133355,207.100582 C187.133355,207.904687 187.041878,208.684958 186.878346,209.436376 L168.400515,243.581371 L168.401768,243.582626 C167.265191,245.244778 166.598533,247.254414 166.598533,249.420857 C166.598533,255.139915 170.602867,259.776378 176.315826,259.776378 C179.885955,259.776378 183.033157,257.9662 184.892156,255.212673 C185.427237,254.420485 185.850164,253.548012 186.150912,252.62097 L202.875633,220.765981 L202.920745,220.788561 L207.414421,212.009262 C207.416301,211.999226 207.418807,211.988563 207.42006,211.9779 L208.460773,209.965128 L211.936292,203.245643 L212.025263,203.290803 C213.441285,199.479144 216.907406,196.775167 220.956852,196.775167 C226.260042,196.775167 230.574522,201.40724 230.574522,207.100582 C230.574522,208.922677 230.129039,210.633753 229.353987,212.121536 L229.261882,212.567494 C226.439237,217.279852 224.808306,222.818269 224.808306,228.739921 C224.808306,245.846916 238.405248,260.245544 255.103027,259.764461 C270.52012,259.320384 277.976791,248.236025 282.523098,237.466533 L301.277241,203.290803 C302.658176,199.575109 305.98896,196.919429 309.907455,196.787712 C315.204379,196.796493 319.511341,201.424175 319.511341,207.113126 C319.511341,210.091828 316.960622,214.891371 316.960622,214.891371 C314.913656,219.06745 313.745125,223.769772 313.745125,228.752465 C313.745125,245.859461 327.335175,259.776378 344.039219,259.776378 C352.552893,259.776378 360.252042,256.15665 365.759489,250.346644 C371.26819,256.15665 378.967338,259.776378 387.480386,259.776378 C399.569829,259.776378 410.023328,252.484862 414.879781,241.973161 L414.584045,241.822626 C414.584045,241.822626 432.911502,205.992898 436.260457,200.395523 C437.92021,198.15444 440.655763,196.956436 443.486554,196.792102 C443.494072,196.792102 443.501591,196.792729 443.508483,196.792729 L443.508483,196.791475 C443.529786,196.79022 443.551716,196.79022 443.573645,196.788966 C443.878153,196.802765 444.180154,196.828481 444.478395,196.869878 L444.478395,196.799002 C449.223321,197.044875 453.079161,200.990134 453.574142,206.00607 L453.630533,206.00607 C454.036542,211.353182 458.488866,215.568776 463.93491,215.568776 C469.380329,215.568776 473.833279,211.353182 474.238662,206.00607 L474.278762,206.00607 C474.274376,205.882506 474.263098,205.761451 474.257459,205.638515 L474.257459,205.638515 Z" id="Fill-1" stroke="none" fill="#FFFFFF" fill-rule="evenodd"></path>
                        <g id="Group-6" stroke="none" stroke-width="1" fill="none" fill-rule="evenodd" transform="translate(22.556099, 0.602765)">
                            <path d="M253.324792,0.171985705 L0.58683451,475.586386" id="Fill-3" fill="#FFFFFF"></path>
                            <path d="M253.324792,0.171985705 L0.58683451,475.586386" id="Stroke-5" stroke="#EC008B"></path>
                        </g>
                        <g id="Group-10" stroke="none" stroke-width="1" fill="none" fill-rule="evenodd" transform="translate(-0.000000, 0.602765)">
                            <path d="M253.014583,0.503788906 L0.276625493,475.918189" id="Fill-7" fill="#FFFFFF"></path>
                            <path d="M253.014583,0.503788906 L0.276625493,475.918189" id="Stroke-9" stroke="#EC008B"></path>
                        </g>
                        <g id="Group-14" stroke="none" stroke-width="1" fill="none" fill-rule="evenodd" transform="translate(66.415181, 0.602765)">
                            <path d="M253.318589,0.171985705 L0.580631583,475.586386" id="Fill-11" fill="#FFFFFF"></path>
                            <path d="M253.318589,0.171985705 L0.580631583,475.586386" id="Stroke-13" stroke="#EC008B"></path>
                        </g>
                        <g id="Group-18" stroke="none" stroke-width="1" fill="none" fill-rule="evenodd" transform="translate(44.485640, 0.602765)">
                            <path d="M253.00838,0.503788906 L0.270422565,475.918189" id="Fill-15" fill="#FFFFFF"></path>
                            <path d="M253.00838,0.503788906 L0.270422565,475.918189" id="Stroke-17" stroke="#EC008B"></path>
                        </g>
                        <g id="Group-22" stroke="none" stroke-width="1" fill="none" fill-rule="evenodd" transform="translate(110.900820, 0.602765)">
                            <path d="M253.312448,0.171985705 L0.574491312,475.586386" id="Fill-19" fill="#FFFFFF"></path>
                            <path d="M253.312448,0.171985705 L0.574491312,475.586386" id="Stroke-21" stroke="#EC008B"></path>
                        </g>
                        <g id="Group-26" stroke="none" stroke-width="1" fill="none" fill-rule="evenodd" transform="translate(88.971280, 0.602765)">
                            <path d="M253.002239,0.503788906 L0.264282294,475.918189" id="Fill-23" fill="#FFFFFF"></path>
                            <path d="M253.002239,0.503788906 L0.264282294,475.918189" id="Stroke-25" stroke="#EC008B"></path>
                        </g>
                        <g id="Group-30" stroke="none" stroke-width="1" fill="none" fill-rule="evenodd" transform="translate(155.386460, 0.602765)">
                            <path d="M253.306245,0.171985705 L0.568288385,475.586386" id="Fill-27" fill="#FFFFFF"></path>
                            <path d="M253.306245,0.171985705 L0.568288385,475.586386" id="Stroke-29" stroke="#EC008B"></path>
                        </g>
                        <g id="Group-34" stroke="none" stroke-width="1" fill="none" fill-rule="evenodd" transform="translate(133.456919, 0.602765)">
                            <path d="M252.996036,0.503788906 L0.258079367,475.918189" id="Fill-31" fill="#FFFFFF"></path>
                            <path d="M252.996036,0.503788906 L0.258079367,475.918189" id="Stroke-33" stroke="#EC008B"></path>
                        </g>
                        <g id="Group-38" stroke="none" stroke-width="1" fill="none" fill-rule="evenodd" transform="translate(177.942559, 0.602765)">
                            <path d="M252.989834,0.171985705 L0.251876439,475.586386" id="Fill-35" fill="#FFFFFF"></path>
                            <path d="M252.989834,0.171985705 L0.251876439,475.586386" id="Stroke-37" stroke="#EC008B"></path>
                        </g>
                        <g id="Group-42" stroke="none" stroke-width="1" fill="none" fill-rule="evenodd" transform="translate(222.428199, 0.602765)">
                            <path d="M252.983693,0.171985705 L0.245736168,475.586386" id="Fill-39" fill="#FFFFFF"></path>
                            <path d="M252.983693,0.171985705 L0.245736168,475.586386" id="Stroke-41" stroke="#EC008B"></path>
                        </g>
                        <g id="Group-46" stroke="none" stroke-width="1" fill="none" fill-rule="evenodd" transform="translate(199.872100, 0.602765)">
                            <path d="M253.300043,0.503788906 L0.562085457,475.918189" id="Fill-43" fill="#FFFFFF"></path>
                            <path d="M253.300043,0.503788906 L0.562085457,475.918189" id="Stroke-45" stroke="#EC008B"></path>
                        </g>
                        <g id="Group-50" stroke="none" stroke-width="1" fill="none" fill-rule="evenodd" transform="translate(266.913839, 0.602765)">
                            <path d="M252.97749,0.171985705 L0.239533241,475.586386" id="Fill-47" fill="#FFFFFF"></path>
                            <path d="M252.97749,0.171985705 L0.239533241,475.586386" id="Stroke-49" stroke="#EC008B"></path>
                        </g>
                        <g id="Group-54" stroke="none" stroke-width="1" fill="none" fill-rule="evenodd" transform="translate(289.469938, 0.602765)">
                            <path d="M253.319341,0.171985705 L0.581383453,475.586386" id="Fill-51" fill="#FFFFFF"></path>
                            <path d="M253.319341,0.171985705 L0.581383453,475.586386" id="Stroke-53" stroke="#EC008B"></path>
                        </g>
                        <g id="Group-58" stroke="none" stroke-width="1" fill="none" fill-rule="evenodd" transform="translate(244.357740, 0.602765)">
                            <path d="M253.293902,0.503788906 L0.555945186,475.918189" id="Fill-55" fill="#FFFFFF"></path>
                            <path d="M253.293902,0.503788906 L0.555945186,475.918189" id="Stroke-57" stroke="#EC008B"></path>
                        </g>
                        <path d="M159.489164,304.05285 C159.489164,307.569085 158.584414,310.177096 156.77554,311.879391 C155.023056,313.579804 153.045012,314.430324 150.84078,314.430324 C147.392203,314.430324 145.300751,312.502228 145.300751,309.043697 C145.300751,305.187504 148.52314,302.975901 154.853886,302.975901 L159.489164,302.975901 L159.489164,304.05285 Z M152.931605,288.232297 C147.731171,288.232297 143.491877,291.294421 142.756924,296.056957 L146.148484,296.851027 C147.223032,293.279595 149.483654,291.52085 152.931605,291.52085 C157.001727,291.52085 159.489164,293.675375 159.489164,298.439166 L159.489164,299.686721 L154.740479,299.686721 C146.544469,299.686721 141.626613,302.862372 141.626613,309.043697 C141.626613,314.94026 145.300751,317.719504 150.501185,317.719504 C154.627698,317.719504 157.6239,316.074914 159.489164,312.842812 L160.336897,317.266018 L162.993505,317.266018 L162.993505,298.325638 C162.993505,295.206437 162.032364,292.711954 160.11071,290.954464 C158.245446,289.139268 155.815026,288.232297 152.931605,288.232297 L152.931605,288.232297 Z" id="Fill-59" stroke="none" fill="#FFFFFF" fill-rule="evenodd"></path>
                        <path d="M183.463854,326.112055 C177.980842,326.112055 175.098047,323.786923 175.098047,319.987808 C175.098047,317.662677 175.945781,315.905186 177.641874,314.82761 C178.489607,314.940511 179.394357,314.996961 180.411888,314.996961 L186.233868,314.996961 C189.908006,314.996961 191.77327,316.641551 191.77327,319.873653 C191.77327,323.560494 188.834085,326.112055 183.463854,326.112055 M178.998373,293.052162 C180.185074,291.861058 181.65498,291.294672 183.407463,291.294672 C185.159947,291.294672 186.572836,291.861058 187.760164,293.052162 C188.946865,294.243267 189.569038,295.830779 189.569038,297.815326 C189.569038,299.8005 188.946865,301.388639 187.760164,302.579117 C186.572836,303.770221 185.159947,304.336607 183.407463,304.336607 C181.65498,304.336607 180.185074,303.770221 178.998373,302.579117 C177.811671,301.388639 177.245889,299.8005 177.245889,297.815326 C177.245889,295.830779 177.811671,294.243267 178.998373,293.052162 M186.629226,311.935465 L179.28095,311.935465 C176.963311,311.935465 175.77661,311.028495 175.77661,309.213299 C175.77661,307.796393 176.567326,306.718816 178.093622,306.037648 C179.619918,306.944618 181.372402,307.399358 183.407463,307.399358 C186.177478,307.399358 188.4381,306.547583 190.303991,304.790093 C192.169255,303.032602 193.074005,300.707471 193.074005,297.815326 C193.074005,295.547272 192.394816,293.562098 191.094707,291.861058 L195.05205,289.650082 L193.412973,286.644409 L188.32532,289.535926 C186.799024,288.685406 185.159947,288.231921 183.407463,288.231921 C180.638076,288.231921 178.3762,289.138892 176.510936,290.897637 C174.645672,292.655127 173.741548,294.980259 173.741548,297.815326 C173.741548,300.253985 174.476501,302.35206 175.88939,304.109551 C173.797939,305.074226 172.38505,306.944618 172.38505,309.213299 C172.38505,311.425529 173.120003,312.955964 174.645672,313.863562 C172.667627,315.337546 171.706487,317.322092 171.706487,319.873653 C171.706487,325.77147 176.228358,329.287706 183.463854,329.287706 C190.529552,329.287706 195.16483,326.168505 195.16483,319.420168 C195.16483,314.374125 191.830287,311.935465 186.629226,311.935465" id="Fill-61" stroke="none" fill="#FFFFFF" fill-rule="evenodd"></path>
                        <mask id="mask-4" fill="white">
                            <use xlink:href="#path-3"></use>
                        </mask>
                        <g id="Clip-64" stroke="none" fill="none"></g>
                        <polygon id="Fill-63" stroke="none" fill="#FFFFFF" fill-rule="evenodd" mask="url(#mask-4)" points="203.174062 317.265956 206.679029 317.265956 206.679029 288.68572 203.174062 288.68572"></polygon>
                        <path d="M228.870847,291.52085 C232.827563,291.52085 235.596951,293.448946 237.179637,297.362217 L240.345636,296.114662 C238.366965,290.840308 234.52303,288.232297 228.870847,288.232297 C224.914132,288.232297 221.805149,289.706909 219.600291,292.598426 C217.395432,295.490571 216.265121,298.949729 216.265121,302.975901 C216.265121,307.002072 217.395432,310.517681 219.600291,313.409198 C221.805149,316.30197 224.914132,317.719504 228.870847,317.719504 C234.52303,317.719504 238.366965,315.111493 240.345636,309.837766 L237.179637,308.588957 C235.596951,312.502228 232.827563,314.430324 228.870847,314.430324 C225.987426,314.430324 223.726804,313.352748 222.200508,311.198222 C220.674212,308.985992 219.939885,306.26508 219.939885,302.975901 C219.939885,299.686721 220.674212,296.965182 222.200508,294.809402 C223.726804,292.598426 225.987426,291.52085 228.870847,291.52085" id="Fill-65" stroke="none" fill="#FFFFFF" fill-rule="evenodd" mask="url(#mask-4)"></path>
                        <path d="M257.760574,300.537868 C255.103967,299.460292 253.012515,297.928603 253.012515,295.831155 C253.012515,293.279595 254.708608,291.52085 257.195418,291.52085 C259.28687,291.52085 261.152134,292.598426 262.79121,294.809402 L265.279273,292.655504 C263.187195,289.706909 260.586978,288.232297 257.365216,288.232297 C252.786327,288.232297 249.394767,291.351498 249.394767,295.887606 C249.394767,301.217783 254.255607,302.805295 258.100168,304.336984 C260.756776,305.300405 262.848227,307.002072 262.848227,309.326576 C262.848227,312.502228 261.039353,314.430324 257.704184,314.430324 C253.860248,314.430324 251.938594,312.161643 250.525078,308.249627 L247.416723,309.894217 C248.716205,314.203268 252.107765,317.719504 257.704184,317.719504 C263.130805,317.719504 266.522365,314.260973 266.522365,308.759563 C266.522365,303.939949 261.604509,302.068303 257.760574,300.537868" id="Fill-66" stroke="none" fill="#FFFFFF" fill-rule="evenodd" mask="url(#mask-4)"></path>
                        <path d="M277.652046,299.68647 C278.61256,294.866229 281.834949,291.520599 286.413837,291.520599 C291.444474,291.520599 294.610473,294.6398 295.288409,299.68647 L277.652046,299.68647 Z M286.413837,288.232047 C282.626292,288.232047 279.5737,289.650207 277.256687,292.428197 C274.938422,295.206813 273.75172,298.722422 273.75172,302.976277 C273.75172,307.228877 274.938422,310.801564 277.256687,313.58018 C279.5737,316.358797 282.626292,317.719253 286.413837,317.719253 C291.840459,317.719253 295.401189,315.508277 298.284611,309.837515 L295.175628,308.306454 C293.08355,312.67321 290.709521,314.4307 286.413837,314.4307 C280.817418,314.4307 277.425858,309.780438 277.425858,302.976277 L298.906157,302.976277 L298.906157,301.388138 C298.906157,297.475494 297.719455,294.299843 295.401189,291.861183 C293.08355,289.423151 290.087975,288.232047 286.413837,288.232047 L286.413837,288.232047 Z" id="Fill-67" stroke="none" fill="#FFFFFF" fill-rule="evenodd" mask="url(#mask-4)"></path>
                        <path d="M323.895683,304.05285 C323.895683,307.569085 322.991559,310.177096 321.182059,311.879391 C319.430202,313.579804 317.451531,314.430324 315.246672,314.430324 C311.798095,314.430324 309.70727,312.502228 309.70727,309.043697 C309.70727,305.187504 312.929659,302.975901 319.261031,302.975901 L323.895683,302.975901 L323.895683,304.05285 Z M317.338124,288.232297 C312.138316,288.232297 307.89777,291.294421 307.163443,296.056957 L310.555003,296.851027 C311.628924,293.279595 313.890173,291.52085 317.338124,291.52085 C321.408246,291.52085 323.895683,293.675375 323.895683,298.439166 L323.895683,299.686721 L319.147624,299.686721 C310.950362,299.686721 306.033132,302.862372 306.033132,309.043697 C306.033132,314.94026 309.70727,317.719504 314.907704,317.719504 C319.03359,317.719504 322.029792,316.074914 323.895683,312.842812 L324.743416,317.266018 L327.400023,317.266018 L327.400023,298.325638 C327.400023,295.206437 326.43951,292.711954 324.517229,290.954464 C322.651338,289.139268 320.221545,288.232297 317.338124,288.232297 L317.338124,288.232297 Z" id="Fill-68" stroke="none" fill="#FFFFFF" fill-rule="evenodd" mask="url(#mask-4)"></path>
                        <path d="M374.883243,299.68647 C375.843757,294.866229 379.066147,291.520599 383.644408,291.520599 C388.675671,291.520599 391.841671,294.6398 392.519607,299.68647 L374.883243,299.68647 Z M383.644408,288.232047 C379.856863,288.232047 376.804898,289.650207 374.487885,292.428197 C372.169619,295.206813 370.982918,298.722422 370.982918,302.976277 C370.982918,307.228877 372.169619,310.801564 374.487885,313.58018 C376.804898,316.358797 379.856863,317.719253 383.644408,317.719253 C389.071656,317.719253 392.632387,315.508277 395.515809,309.837515 L392.406826,308.306454 C390.314748,312.67321 387.941345,314.4307 383.644408,314.4307 C378.048616,314.4307 374.657056,309.780438 374.657056,302.976277 L396.137354,302.976277 L396.137354,301.388138 C396.137354,297.475494 394.950653,294.299843 392.632387,291.861183 C390.314748,289.423151 387.318546,288.232047 383.644408,288.232047 L383.644408,288.232047 Z" id="Fill-69" stroke="none" fill="#FFFFFF" fill-rule="evenodd" mask="url(#mask-4)"></path>
                        <path d="M407.435704,299.68647 C408.396218,294.866229 411.618608,291.520599 416.196869,291.520599 C421.228132,291.520599 424.394132,294.6398 425.072068,299.68647 L407.435704,299.68647 Z M416.196869,288.232047 C412.409324,288.232047 409.357359,289.650207 407.040346,292.428197 C404.72208,295.206813 403.535379,298.722422 403.535379,302.976277 C403.535379,307.228877 404.72208,310.801564 407.040346,313.58018 C409.357359,316.358797 412.409324,317.719253 416.196869,317.719253 C421.624117,317.719253 425.184848,315.508277 428.068269,309.837515 L424.959287,308.306454 C422.867209,312.67321 420.493806,314.4307 416.196869,314.4307 C410.601077,314.4307 407.209517,309.780438 407.209517,302.976277 L428.689815,302.976277 L428.689815,301.388138 C428.689815,297.475494 427.503114,294.299843 425.184848,291.861183 C422.867209,289.423151 419.871007,288.232047 416.196869,288.232047 L416.196869,288.232047 Z" id="Fill-70" stroke="none" fill="#FFFFFF" fill-rule="evenodd" mask="url(#mask-4)"></path>
                        <path d="M448.97439,314.430575 C443.09602,314.430575 439.76085,309.723862 439.76085,302.976151 C439.76085,299.629894 440.552193,296.908355 442.191896,294.753203 C443.830973,292.598677 446.092222,291.521101 448.97439,291.521101 C451.857185,291.521101 454.11906,292.598677 455.70112,294.753203 C457.340823,296.908355 458.132166,299.629894 458.132166,302.976151 C458.132166,309.723862 454.853386,314.430575 448.97439,314.430575 L448.97439,314.430575 Z M457.679791,292.711578 C455.64473,290.047117 451.914201,288.231921 448.804593,288.231921 C444.791487,288.231921 441.682504,289.650082 439.421882,292.428071 C437.217023,295.206688 436.086712,298.722924 436.086712,302.976151 C436.086712,307.228752 437.217023,310.801438 439.421882,313.580055 C441.682504,316.358671 444.791487,317.719127 448.804593,317.719127 C452.42234,317.719127 456.153495,315.791031 457.679791,313.523604 L457.679791,317.265642 L461.297539,317.265642 L461.297539,277.116827 L457.679791,277.116827 L457.679791,292.711578 Z" id="Fill-71" stroke="none" fill="#FFFFFF" fill-rule="evenodd" mask="url(#mask-4)"></path>
                        <path d="M124.736544,288.166815 C122.327427,288.188141 120.408905,288.913843 119.047394,290.326358 L118.482865,290.912188 L117.918336,290.326358 C116.557451,288.913843 114.63893,288.188141 112.216029,288.166815 C107.091408,288.210721 104.261871,291.411461 104.261871,297.178188 L104.261871,317.265767 L107.931623,317.265767 L107.931623,298.301552 C107.931623,294.503064 109.237997,291.691832 112.0337,291.557605 L112.412142,291.557605 C115.343181,291.872473 116.514219,294.503064 116.514219,298.301552 L116.514219,317.265767 L120.452138,317.265767 L120.452138,298.301552 C120.452138,294.503064 121.930189,291.782153 124.554215,291.557605 L124.932656,291.557605 C127.854924,291.752673 129.034734,294.503064 129.034734,298.301552 L129.034734,317.265767 L132.704486,317.265767 L132.704486,297.178188 C132.704486,291.411461 129.874322,288.210721 124.736544,288.166815" id="Fill-72" stroke="none" fill="#FFFFFF" fill-rule="evenodd" mask="url(#mask-4)"></path>
                        <path d="M360.10574,307.661225 C360.10574,311.46034 358.799366,314.270946 356.003663,314.4058 L355.625222,314.4058 C352.324513,314.4058 351.523145,311.46034 351.523145,307.661225 L351.523145,288.69701 L347.585226,288.69701 L347.585226,307.661225 C347.585226,311.46034 346.630351,314.4058 343.483149,314.4058 L343.104707,314.4058 C340.182439,314.210732 339.00263,311.46034 339.00263,307.661225 L339.00263,288.69701 L335.332878,288.69701 L335.332878,308.785216 C335.332878,314.551316 338.163042,317.752057 343.30082,317.795963 C345.709937,317.775264 347.628458,317.048935 348.98997,315.637047 L349.554499,315.050589 L350.119028,315.637047 C351.479912,317.048935 353.398434,317.775264 355.821335,317.795963 C360.945955,317.752057 363.775492,314.551316 363.775492,308.785216 L363.775492,288.69701 L360.10574,288.69701 L360.10574,307.661225 Z" id="Fill-73" stroke="none" fill="#FFFFFF" fill-rule="evenodd" mask="url(#mask-4)"></path>
                    </g>
                </g>
            </g>
        </g>
    </g>
</svg>