<?xml version="1.0" encoding="utf-8"?>
<!-- Generator: Adobe Illustrator 21.0.0, SVG Export Plug-In . SVG Version: 6.00 Build 0)  -->
<svg version="1.1" id="Layer_1" xmlns="http://www.w3.org/2000/svg" xmlns:xlink="http://www.w3.org/1999/xlink" x="0px" y="0px"
	 viewBox="0 0 453 266" style="enable-background:new 0 0 453 266;" xml:space="preserve">
<style type="text/css">
	.st0{fill:none;}
	.st1{fill:#FFFFFF;}
</style>
<title>Group 8</title>
<desc>Created with Sketch.</desc>
<g id="magicseaweed">
	<g id="_x33_" transform="translate(-933.000000, -5896.000000)">
		<g id="Group-8" transform="translate(854.000000, 5816.000000)">
			<rect id="Rectangle-7" x="79" y="80" class="st0" width="453" height="266"/>
			<g id="msweedlogo" transform="translate(79.000000, 80.000000)">
				<g id="Group-3" transform="translate(0.000000, 0.247772)">
					<path id="Fill-1" class="st1" d="M83.9,155c-0.2,0.3-0.4,0.4-0.4,0.6c-0.1,0.2,0.1,0.5,0.4,0.4c0.2,0,0.4-0.2,0.4-0.4
						C84.3,155.5,84.1,155.3,83.9,155 M319,163c0.6,0.1,1-0.2,1-0.6c-0.2-1.4-0.6-2.7-1.8-3.6c-1.2-0.9-2.6-1.2-4-0.8
						c-1.9,0.5-3.4,2.4-3.5,4.4c0,0.4,0.1,0.6,0.5,0.6c0.2,0,0.3,0,0.5,0H319 M339.8,163L339.8,163c1.1,0,2.3,0,3.4,0
						c0.9,0,1.2-0.3,0.9-1.1c0-0.2-0.1-0.3-0.1-0.5c-0.5-2-2.8-4.1-5.7-3.5c-0.7,0.1-1.4,0.5-1.9,0.9c-0.9,0.8-1.4,2-1.7,3.2
						c-0.2,0.7,0,1,0.8,1C337,163,338.4,163,339.8,163 M126.2,166.7L126.2,166.7c-0.6,0.1-1.2,0.1-1.8,0.1c-1.3-0.1-2.3,0.4-3.1,1.3
						c-0.5,0.6-0.7,1.5-0.3,2.2c0.6,0.9,1.3,1.6,2.5,1.7c1.5,0.2,2.9,0.1,4.4,0c0.4,0,0.8-0.2,1.1-0.5c0.6-0.5,0.9-1.2,1-2
						c0-0.7,0.1-1.3,0.1-2c0-0.7-0.2-0.9-1-0.9C128.2,166.7,127.2,166.7,126.2,166.7 M279.6,154.9L279.6,154.9c-1.1,0-2.3,0-3.4,0
						c-0.7,0-0.8,0.2-0.5,0.8c0.2,0.5,0.4,0.9,0.5,1.4c0.3,1,0.5,1.9,0.7,2.9c0.4,1.4,0.9,2.7,1.1,4.1c0.3,1.4,0.9,2.7,0.9,4.2
						c0,0.1,0,0.2,0.1,0.2c0.1,0.1,0.2,0.4,0.4,0.4c0.1,0,0.4-0.1,0.5-0.3c0.1-0.2,0.2-0.5,0.3-0.7c0.4-1,0.8-2.1,1.1-3.1
						c0.5-1.7,1-3.5,1.6-5.2c0.4-1.2,0.9-2.4,1.3-3.7c0-0.1,0.1-0.3,0.1-0.4c0.1-0.5-0.1-0.7-0.6-0.7
						C282.3,154.8,281,154.8,279.6,154.9 M285.4,151.3c0,0.6,0,1.2,0,1.8c0,0.6,0.2,0.9,0.8,0.9c0.3,0,0.6-0.1,0.8-0.1
						c0.6,0,0.9,0.1,1.1,0.7c0.2,0.4,0.4,0.8,0.5,1.2c0.5,2.1,1.6,4,1.8,6.1c0,0.2,0.1,0.3,0.2,0.5c0.7,2,1.4,4,1.9,6
						c0.1,0.3,0.1,0.6,0.4,0.5c0.2,0,0.4-0.3,0.5-0.5c0.5-1.6,0.9-3.1,1.3-4.7c0.4-1.7,0.8-3.4,1.4-5.1c0.1-0.2,0.1-0.3,0.2-0.5
						c0-0.8,0.3-1.6,0.7-2.4c0.3-0.7,0.1-1.1-0.6-1.3c-1.5-0.4-2.9-1.3-4.3-2c-0.7-0.4-1.5-0.8-2.1-1.3c-1.3-1-2.7-2-3.6-3.4
						c-0.2-0.3-0.5-0.4-0.8-0.3c-0.4,0.1-0.4,0.4-0.3,0.8C285.6,149.2,285.4,150.2,285.4,151.3 M368.7,165.1h0.1
						c-0.1-1.2-0.1-2.4-0.2-3.6c-0.2-1.6-1.6-3.1-3.2-3.2c-0.7-0.1-1.3-0.1-2,0c-1.6,0.2-2.6,1.2-3,2.8c-0.6,2.3-0.5,4.6-0.2,6.9
						c0.1,0.8,0.4,1.7,0.8,2.4c0.5,0.8,1.2,1.3,2,1.5c0.7,0.2,1.5,0.1,2.2,0.1c0.4,0,0.8-0.2,1.1-0.3c1.5-0.8,2.3-2.1,2.4-3.7
						C368.8,166.9,368.7,166,368.7,165.1 M270.3,134.5c-0.2,0.4-0.3,0.6-0.3,0.8c-0.2,0.6-0.4,1.2-0.5,1.9c-0.4,2.2-1.4,4-2.4,6
						c-0.3,0.7-0.7,1.4-1.1,2.1c-1.3,2.4-2.8,4.6-4.6,6.7c-0.2,0.2-0.3,0.5-0.5,0.7c-0.5,0.6-0.9,0.7-1.5,0.2
						c-2.1-1.7-4.3-3.5-6.4-5.3c-1.4-1.2-2.7-2.4-4.1-3.7c-0.4-0.3-0.8-0.6-1.1-0.8c-0.5-0.3-0.5-0.5-0.2-1c0.9-1.4,1.7-2.7,2.6-4.1
						c0.6-1,1.1-2,1.7-3c0.6-1.1,1-2.3,1.3-3.5c0-0.1,0.1-0.3,0.1-0.4c0.7-1.6,1-3.3,1.4-5c0.7-2.9,0.9-5.8,0.8-8.7
						c-0.1-2.3-0.4-4.5-1.2-6.7c-0.7-1.9-1.5-3.8-3.1-5.1c-0.7-0.6-1.5-0.9-2.3-1.3c-1.2-0.6-2.4-0.6-3.7-0.7c-3-0.2-5,1.2-6.5,3.6
						c-1.3,2.1-2,4.4-2.2,6.9c-0.2,2-0.3,4-0.3,6c-0.1,3.1-0.3,6.2-0.7,9.3c0,0.4-0.1,0.8-0.1,1.2c-0.2,2.8-0.6,5.5-1.6,8.1
						c-0.6,1.7-1.2,3.5-2.1,5.1c-0.8,1.2-1.5,2.5-2.6,3.5c-0.8,0.8-1.6,1.7-2.5,2.5c-2,1.7-4.3,3-6.8,3.8c-0.3,0.1-0.7,0.3-1,0.4
						c-0.6,0.2-1.2,0.3-1.8,0.5c-0.2,0-0.4,0-0.6,0.1c-0.2,0.1-0.5,0.2-0.6,0.4c-0.1,0.3,0.2,0.5,0.4,0.6c0.3,0.1,0.6,0.3,0.9,0.4
						c0.5,0.3,0.6,0.6,0.2,1.1c-0.3,0.4-0.7,0.8-1.1,1.1c-0.3,0.3-0.5,0.6-0.7,0.9c-0.4,0.6-0.6,0.7-1.2,0.3
						c-0.5-0.3-1.1-0.6-1.6-0.9c-1.5-0.8-3.1-1-4.8-0.8c-1.1,0.1-2,0.6-2.5,1.5c-0.6,0.9-0.5,1.7,0.4,2.3c0.9,0.7,1.8,1,2.9,1
						c1.1,0,2.3,0.1,3.4,0.1c1.7,0.1,3.2,0.8,4.4,1.9c0.8,0.7,1.4,1.7,1.4,2.8c0,0.1,0,0.2,0,0.3c0.5,1.2,0.2,2.3-0.1,3.5
						c-0.1,0.3-0.1,0.6-0.3,0.8c-0.8,0.9-1.6,1.8-2.6,2.6c-1.3,1-2.9,1.3-4.5,1.4c-0.9,0.1-1.8,0-2.7,0c-1.5,0-3-0.4-4.3-1.1
						c-1.4-0.7-2.7-1.6-4.1-2.5c-0.1-0.1-0.1-0.2-0.3-0.3c0.1-0.2,0.2-0.3,0.3-0.5c0.7-0.7,1.5-1.4,2.2-2.1c0.5-0.5,0.7-0.5,1.2,0
						c2.1,1.9,4.5,2.5,7.2,2.2c0.9-0.1,1.7-0.2,2.4-0.7c0.7-0.5,1-1.2,1.2-1.9c0.1-0.7-0.5-1.6-1.3-1.9c-0.3-0.1-0.7-0.2-1-0.3
						c-1.5-0.2-3-0.3-4.5-0.4c-1.7-0.1-3.2-0.7-4.4-1.9c-1.9-1.9-2.3-4.1-1.5-6.6c0.3-0.9,0.6-1.8,1.5-2.3c0.3-0.1,0.4-0.4,0.3-0.7
						c-0.1-0.2-0.4-0.4-0.6-0.4c-2-0.2-3.7-1.2-5.4-2.1c-2.5-1.3-4.5-3-6.3-5.1c-1.1-1.3-2.3-2.6-3.2-4.1c-0.5-0.9-1-1.9-1.5-2.8
						c-0.9-1.8-1.9-3.5-2.3-5.5c-0.3-1.4-0.7-2.8-1.1-4.2c-0.1-0.2-0.1-0.4-0.2-0.8c-0.2,0.3-0.3,0.4-0.3,0.6c0,0.5,0,0.9,0,1.4
						c0,2.8,0.1,5.6,0.1,8.5c0,3.7,0,7.3,0,11c0,0.7,0.1,1.5,0.1,2.2c0,0.9-0.2,1.1-1,1.2c-0.6,0.1-1.3,0.1-1.9,0
						c-2.1,0-4.2,0-6.4,0c-0.7,0-0.9,0.2-0.8,0.9c0,0.6,0.1,1.1,0.1,1.7c0,5.7,0,11.3,0,17c0,0.1,0,0.2,0,0.2c0,1-0.2,1.2-1.2,1.1
						c-0.7,0-1.4,0-2.2,0c-0.9,0-1.1-0.1-1.1-1.1c0-5.6,0-11.2,0-16.8c0-1.2,0-2.4-0.2-3.6c-0.2-1.4-0.1-2.8-0.1-4.2
						c0-13.2,0-26.5,0-39.7c0-1-0.3-2.1-0.4-3.1c-0.2-1.7-0.8-3.2-1.5-4.7c-0.3-0.7-0.8-1.3-1.3-1.8c-0.6-0.7-1.2-1.3-1.9-1.9
						c-1.2-1.2-2.5-1.9-4.1-2.4c-1.7-0.5-3.5-0.7-5.3-0.8c-1.7-0.1-3.4,0.2-5,0.7c-0.1,0-0.1,0-0.2,0.1c-2.6,0.4-4.4,2.2-6.1,4
						c-0.6,0.6-1,1.3-1.4,2.1c-0.8,1.5-1.5,3.1-1.9,4.8c-0.2,1-0.3,2-0.3,3c0,13.7,0,27.4,0,41.1c0,1,0,1.9,0,2.9
						c0,0.5-0.2,0.7-0.7,0.7c-1.3,0-2.6,0-3.8,0c0,0-0.1,0-0.1,0c-0.3,0-0.7-0.1-0.9,0.3c-0.1,0.3,0.2,0.6,0.4,0.7
						c0.4,0.3,0.7,0.7,0.9,1.2c0.5,0.9,0.7,1.9,0.7,2.9c0,4.7,0,9.5,0,14.2c0,1.5-0.1,1.6-1.6,1.6c-0.7,0-1.3,0-2,0
						c-0.6,0-0.8-0.1-0.8-0.8c0-0.1,0-0.3-0.1-0.4c-0.1-0.4-0.5-0.5-0.8-0.2c-0.1,0.1-0.2,0.2-0.2,0.3c-0.5,0.8-1.2,1-2,1.2
						c-1.5,0.2-3,0.2-4.5,0c-1-0.1-1.9-0.4-2.7-1c-0.5-0.4-1-0.8-1.5-1.2c-1.2-1.1-1.6-2.5-1.8-4c0-0.3,0-0.6,0-0.8
						c0.3-1.5,0.8-3,1.8-4.2c0.1-0.1,0.3-0.3,0.4-0.4c1.8-0.9,3.6-1.8,5.7-1.6c1.6,0.1,3.2,0.1,4.8,0.1c0.6,0,0.8-0.2,0.8-0.7
						c0-0.5,0-1.1,0-1.6c0-1.4-0.7-2.2-2-2.6c-0.6-0.2-1.2-0.2-1.8-0.3c-0.5,0-1,0-1.5,0c-1.2-0.1-2.1,0.4-2.9,1.1
						c-0.6,0.5-0.7,0.6-1.3,0c-0.6-0.5-1.2-1-1.8-1.4c-0.2-0.2-0.4-0.3-0.6-0.5c-0.3-0.3-0.3-0.6,0.1-0.8c1-0.7,1.9-1.6,3.1-2
						c0.5-0.2,1-0.3,1.4-0.4c0.6-0.1,0.8-0.2,0.8-0.9c0-4.4,0-8.8,0-13.2c0-9.7,0-19.5,0-29.2c0-2.1-0.3-4.1-1.3-6
						c-0.6-1.1-1.1-2.2-1.8-3.2c-1.3-1.8-3-3.3-5-4.2c-0.8-0.4-1.7-0.6-2.6-0.8c-2.2-0.4-4.4-0.6-6.6-0.1c-1.2,0.2-2.4,0.5-3.5,0.9
						c-0.9,0.3-1.7,0.7-2.4,1.4c-1,0.9-1.9,1.8-2.9,2.8c-1,1-1.6,2.2-1.9,3.5c0,0.1-0.1,0.3-0.1,0.4c-0.8,2.1-1,4.4-1,6.6
						c0,13.1,0,26.3,0,39.4c0,1-0.1,1.9-0.1,2.9c0,0.8,0.9,2,1.6,2.1c0.2,0,0.6-0.1,0.7-0.3c0.9-0.8,2-1.3,3.1-1.8
						c0.2-0.1,0.5-0.2,0.8-0.2c1.2-0.1,2.4-0.2,3.7-0.1c1.9,0.2,3.5,1.1,4.6,2.7c1.2,1.6,1.8,3.4,1.8,5.4c0,4.2,0,8.3,0,12.5v0.3
						c0,1.4-0.2,1.6-1.6,1.5c-0.6,0-1.3,0-1.9,0c-0.8,0-1-0.1-1-0.9c0-4.2,0-8.4,0-12.6c0-2-1.1-3.4-2.7-4.3
						c-1.3-0.7-3.3-0.5-4.7,0.7c-1.3,1.2-1.7,2.7-1.6,4.3c0,3.9,0,7.8,0.1,11.7c0,0.8-0.2,1-1,0.9c-0.8,0-1.7,0-2.5,0
						c-0.8,0-1-0.2-1-0.9c0-4.1,0-8.2,0.1-12.3c0-1.7-0.5-3.2-2-4.2c-1.6-1.1-3.9-0.9-5.3,0.5c-0.5,0.5-0.9,0.9-1.2,1.5
						c-0.4,0.9-0.3,1.8-0.3,2.8c0,3.8,0,7.7,0,11.5c0,0.2,0,0.3,0,0.5c-0.1,0.5-0.3,0.7-0.8,0.7c-0.9,0-1.9,0-2.8,0
						c-0.6,0-0.8-0.3-0.9-0.9c0-0.2,0-0.4,0-0.7c0-6.2,0-12.5,0.1-18.7c0-0.5,0-1,0.1-1.5c0.3-1.3,0.3-2.6,0.3-3.9
						c0-6.4,0-12.8,0-19.2c0-13.9,0-27.7,0-41.6c0-2.3,0-4.7-0.1-7c0-0.6,0.2-0.8,0.8-0.8c0.8,0,1.5,0,2.3,0c3.2,0,6.5,0,9.7,0
						c0.4,0,0.8,0,1.3,0c0.6,0,0.8,0.3,0.8,0.9c0,1.1,0,2.2,0,3.3c0,0.8,0.1,1.7-0.2,2.5c0,0.1,0,0.3,0,0.4c0,0.4,0.3,0.6,0.6,0.4
						c0.3-0.1,0.5-0.3,0.7-0.6c0.9-1.3,2.1-2.2,3.3-3.1c2.8-2,5.9-3.2,9.3-4c2.7-0.6,5.4-0.5,8.1-0.5c1.7,0,3.4,0.3,5,0.8
						c1.6,0.5,3.1,1.3,4.7,1.9c2.3,0.9,4.2,2.4,5.9,4.1c0.7,0.7,1.4,1.4,2.1,2c0.5,0.5,0.8,0.4,1.3,0c2.1-2,4.3-3.9,6.8-5.3
						c0.5-0.3,1.1-0.4,1.7-0.7c0.7-0.3,1.4-0.8,2.2-1c1.3-0.4,2.7-0.7,4.1-1.1c2.3-0.6,4.7-0.6,7.1-0.7c3.1-0.1,6.1,0.3,9,1.5
						c1.1,0.4,2.2,0.9,3.2,1.4c2.1,1,3.9,2.5,5.7,4.1c1.5,1.4,2.8,3,3.8,4.8c0.9,1.6,1.8,3.3,2.3,5c0.8,2.4,1.5,4.9,1.2,7.6
						c-0.1,0.6,0,1.2,0,1.7c0,0.2,0.1,0.4,0.2,0.7c0.4-0.2,0.4-0.5,0.4-0.8c0.1-0.6,0.3-1.2,0.5-1.8c0.1-0.2,0.2-0.5,0.2-0.7
						c0.2-1.7,0.8-3.2,1.5-4.7c0.7-1.6,1.4-3.2,2.1-4.9c0.7-1.8,1.9-3.5,2.9-5.1c0.8-1.4,1.8-2.7,2.7-4c0.5-0.7,1.2-1.4,1.7-2.1
						c0.8-1,1.5-1.9,2.3-2.9c0.1-0.2,0.2-0.3,0.4-0.4c0.3-0.3,0.5-0.3,0.8,0c0.4,0.4,0.7,0.7,1.1,1.1c2.6,2.6,5.2,5.2,7.8,7.8
						c0.8,0.8,1.7,1.7,2.5,2.6c0.4,0.4,0.4,0.8,0,1.2c-1.2,1.4-2.5,2.8-3.7,4.3c-0.8,1-1.5,2.1-2.1,3.3c-1,1.9-2,3.8-2.8,5.8
						c-0.7,1.7-1.3,3.5-1.4,5.4c0,0.9-0.3,1.8-0.4,2.7c-0.3,3.1-0.3,6.3-0.1,9.5c0,0.8,0.2,1.6,0.4,2.4c0.1,0.4,0.2,0.9,0.2,1.3
						c0,1.4,0.7,2.5,1.3,3.7c0.7,1.5,1.7,2.7,2.8,3.9c0.8,0.9,1.9,1.5,3.1,1.9c0.3,0.1,0.6,0.1,0.8,0.2c1.9,0.8,3.7,0.6,5.6,0
						c2.4-0.8,3.7-2.6,4.7-4.8c1-2.3,1-4.9,1.3-7.3c0.4-3.3,0.7-6.6,1-9.9c0.1-1.1,0.2-2.3,0.2-3.4c0-1.6,0.2-3.2,0.5-4.7
						c0.2-0.9,0.6-1.7,0.7-2.6c0.2-1,0.6-1.9,0.9-2.8c1.2-3,2.6-5.9,4.9-8.4c1.7-1.9,3.6-3.5,5.8-4.6c2.5-1.2,5.1-2.2,7.9-2.6
						c1.8-0.2,3.6-0.5,5.4-0.4c2.3,0.1,4.6,0.5,6.8,1.1c2.2,0.6,4.3,1.5,6.2,2.6c0.5,0.3,0.9,0.5,1.3,0.9c1.4,1.2,3,2.3,4.2,3.7
						c0.4,0.4,0.7,0.9,1,1.3c0.2,0.2,0.3,0.5,0.5,0.7c1.4,1.5,2.1,3.4,3.2,5.2c0.2,0.3,0.2,0.6,0.3,0.9c0.2,0.8,0.4,1.6,0.6,2.4
						c0,0.1,0.1,0.2,0.3,0.5c0.2-0.2,0.4-0.3,0.4-0.5c0.1-0.3,0.1-0.6,0.1-0.9c-0.2-2-0.1-4-0.1-6c0-4.9,0-9.9,0-14.8
						c0-0.1,0-0.3,0-0.4c0-1.1,0.1-1.1,1.2-1.1c2.1,0,4.2,0,6.4,0c2,0,4.1,0,6.1,0c0.8,0,1,0.2,1.1,1c0,0.4,0,0.8,0,1.2
						c0,9.4,0,18.8,0,28.2c0,4.4,0,8.8,0,13.1c0,1.4,0.1,2.8,0.3,4.2c0.4,2.8,1.6,5.3,3.6,7.3c0.3,0.3,0.5,0.5,0.7,0.8
						c0.6,0.7,1.3,1.3,2.2,1.6c0.8,0.3,1.6,0.8,2.4,1.1c0.2,0.1,0.5,0.2,0.7,0.3c1.1,0.2,2.3,0.5,3.4,0.7c1.2,0.2,2.3,0.1,3.5-0.2
						c1.1-0.3,2.3-0.6,3.5-0.9c0.3-0.1,0.7-0.3,1-0.4c0.7-0.3,1.3-0.7,2-1.1c1.3-0.9,2.2-2,3.1-3.2c1.2-1.6,1.7-3.4,2.4-5.2
						c0.1-0.3,0.1-0.6,0.1-0.9c0.1-2.2,0.3-4.3,0.3-6.5c0-9.7,0-19.5,0-29.2c0-3.5,0-6.9,0-10.4v-0.3c0-1,0.2-1.2,1.2-1.2h1.2
						c3.5,0,7,0,10.5,0c0.4,0,0.7,0,1.1,0c0.4,0,0.6,0.2,0.6,0.5c0,0.3,0,0.6,0,0.9c0,9.1,0,18.2,0,27.3c0,5.5,0,11.1,0,16.6
						c0,2.4,0.9,4.6,1.8,6.8c0.6,1.3,1.5,2.4,2.5,3.5c1.8,1.8,4.1,2.8,6.6,3.5c0.2,0,0.4,0.1,0.6,0.1c2.1,0.6,4.2,0.5,6.3,0
						c1.4-0.3,2.7-0.9,4.1-1.5c2.2-1,3.7-2.8,5-4.6c0.5-0.7,0.8-1.7,1.2-2.6c0.8-1.8,1.1-3.7,1.1-5.7c0.1-5.5,0.1-10.9,0.1-16.4
						c0-7.7,0-15.4,0-23c0-1.5,0-2.9,0-4.4c0-0.8,0.2-1,1-1c3.1,0,6.3,0,9.4,0c1.1,0,2.3,0,3.4,0c0.8,0,1,0.2,1,1c0,1,0,2.1,0,3.1
						c0,14.5,0,29.1,0,43.6c0,1.6-0.1,3.3-0.2,4.9c-0.1,1.6-0.8,3.1-1.2,4.6c-0.3,1.1-0.8,2.1-1.3,3.1c-0.3,0.7-0.8,1.4-1.3,2
						c-0.2,0.3-0.4,0.5-0.3,0.8c0.2,0.3,0.5,0.3,0.8,0.3c0.8,0,1.5-0.1,2.3-0.1c0.9,0,1.1,0.2,1.1,1.1c0,9.6,0,19.2,0,28.8
						c0,0.2,0,0.3,0,0.5c0,0.6-0.2,0.8-0.8,0.8c-1,0-2,0-3,0c-0.7,0-0.8-0.3-0.9-1c0-0.3,0.2-0.7-0.2-0.9c-0.4-0.2-0.7,0.1-0.9,0.4
						c-0.8,0.9-1.8,1.3-2.8,1.5c-3.9,0.8-7.4-0.8-8.8-4.6c-0.3-0.8-0.3-1.7-0.4-2.5c-0.2-2.9-0.1-5.8,0-8.6c0-0.9,0.3-1.7,0.6-2.6
						c0.1-0.3,0.3-0.7,0.4-1c0.1-0.2,0.1-0.3,0.2-0.4c1-0.9,2.1-1.9,3.4-2.4c0.3-0.1,0.7-0.2,1-0.3c1.3-0.1,2.6-0.2,3.8,0.2
						c0.8,0.3,1.6,0.9,2.4,1.4c0.3,0.2,0.6,0.7,1.1,0.5c0.4-0.2,0.2-0.7,0.2-1.1c0-1.6,0-3.3-0.1-4.9c0-1-0.1-2,0.1-3
						c0-0.1,0-0.2,0-0.2c-0.1-0.2-0.2-0.5-0.3-0.5c-0.1-0.1-0.4,0.1-0.6,0.2c-0.6,0.6-1.1,1.3-1.7,1.9c-1,1-1.9,2.1-3.1,2.9
						c-1.6,0.9-3.2,1.9-4.9,2.7c-2.4,1.1-4.9,1.7-7.6,1.7c-0.8,0-1.5,0.1-2.3,0.1c-0.6,0-1.2-0.1-1.8-0.2c-0.1,0-0.2-0.1-0.3-0.1
						c-0.2,0.1-0.5,0.1-0.7,0.2c0.1,0.2,0.1,0.5,0.3,0.6c1.9,1.7,2.7,3.9,2.6,6.4c0,1,0,2.1,0,3.2c0,0.5-0.2,0.8-0.7,0.9
						c-0.2,0-0.5,0.1-0.8,0.1c-3.8,0-7.6,0-11.5-0.1c-0.8,0-1.1,0.3-0.9,1c0.4,1.6,1.1,3,2.6,3.9c0.2,0.1,0.4,0.3,0.7,0.3
						c1,0.1,2.1,0.3,3.2,0.2c1.2-0.1,2.1-0.7,3-1.4c0.1-0.1,0.2-0.2,0.3-0.3c0.3-0.3,0.6-0.3,1,0c0.7,0.6,1.5,1.2,2.2,1.8
						c0.5,0.4,0.5,0.7,0,1.1c-1.4,1.2-2.9,2.3-4.7,2.7c-0.3,0.1-0.7,0.1-1,0.2c-1,0-2.1,0-3.1,0c-1,0-2-0.3-2.9-0.7
						c-1.5-0.6-2.7-1.6-3.6-2.8c-0.5-0.7-0.9-1.5-1.2-2.4c-0.9-2.6-1.1-5.4-0.7-8.1c0.3-1.9,0.9-3.7,2-5.2c0.8-1.1,1.8-2,3.2-2.4
						c0.1,0,0.3-0.1,0.4-0.1c0.3-0.1,0.6-0.4,0.5-0.7c-0.1-0.2-0.4-0.4-0.6-0.5c-2-0.8-3.8-1.7-5.5-2.9c-1.5-1-2.7-2.4-4.1-3.5
						c-0.7-0.6-0.8-0.6-1.4,0c-2,1.8-3.7,3.8-6.1,5.2c-0.6,0.3-1.2,0.6-1.9,0.9c-0.2,0.1-0.5,0.3-0.7,0.5c0,0.1,0,0.1,0,0.2
						c0.2,0.1,0.5,0.2,0.7,0.2c1.2,0,2.2,0.5,3.1,1.1c0.7,0.5,1.4,1,2,1.6c0.7,0.7,1.3,1.4,1.6,2.4c0.3,1,0.8,2,0.8,3
						c0,0.8,0,1.6,0,2.3c0,0.4,0,0.9,0,1.3c0,0.8-0.2,1-0.9,1.1c-0.8,0.1-1.5,0-2.3,0c-2.6,0-5.2,0-7.9,0c-0.6,0-1.3,0-1.9-0.1
						c-0.7,0-1,0.3-0.9,1c0.4,1.7,1,3.2,2.7,4c1.1,0.5,2.3,0.5,3.4,0.5c1.3,0,2.4-0.6,3.4-1.5c0.6-0.6,0.8-0.5,1.4,0
						c0.5,0.5,1.1,0.9,1.7,1.4c0.6,0.6,0.6,1.2,0,1.7c-1,0.9-2.1,1.6-3.4,2c-2.6,0.9-5.2,0.9-7.7-0.1c-2.1-0.8-3.7-2.3-4.8-4.2
						c-0.1-0.1-0.1-0.2-0.2-0.4c-0.8-2.9-1.3-5.9-0.7-8.9c0.2-1.3,0.4-2.6,1-3.8c0.4-0.9,0.9-1.7,1.8-2.2c0.2-0.1,0.2-0.4,0.3-0.6
						c-0.2-0.1-0.5-0.2-0.7-0.2c-2.1,0.4-4.2,0.3-6.3,0.2c-0.6-0.1-0.8,0.1-1.1,0.7c-0.5,1.3-0.9,2.7-1.4,4
						c-0.4,1.1-0.8,2.3-1.1,3.5c-0.1,0.2-0.1,0.4-0.2,0.6c-0.3,1.6-0.9,3.1-1.4,4.7c-0.4,1-0.6,2-1,3c-0.4,1.2-0.8,2.4-1.2,3.5
						c-0.2,0.7-0.6,0.8-1.3,0.8c-0.6,0-1.3,0-1.9,0c-0.7,0-1-0.2-1.3-0.9c-0.1-0.2-0.1-0.4-0.2-0.6c-0.1-1.1-0.4-2-0.8-3
						c-0.5-1.7-1-3.3-1.5-5c-0.5-1.6-1-3.1-1.4-4.7c-0.1-0.3-0.1-0.7-0.6-0.7c-0.4,0-0.4,0.4-0.4,0.7c-0.1,1.2-0.6,2.2-0.9,3.4
						c-0.3,1.3-0.8,2.5-1.2,3.8c-0.4,1.4-0.9,2.7-1.3,4.1c-0.2,0.6-0.2,1.2-0.4,1.8c-0.2,0.9-0.5,1.1-1.4,1.1c-0.6,0-1.3,0-1.9,0
						c-0.7,0-0.9-0.1-1.2-0.8c-0.5-1.4-1-2.8-1.5-4.2c-0.4-1.2-0.8-2.4-1.2-3.5c-0.3-1-0.6-2.1-1-3.1c-0.5-1.6-1-3.1-1.5-4.7
						c-0.3-0.8-0.5-1.7-0.8-2.5c-0.1-0.4-0.2-0.8-0.4-1.2c-0.5-1.1-0.6-2.2-0.6-3.4c0.1-2.4,0-4.9,0-7.3c0-1.2,0-2.5,0-3.7
						c0-1.7,0.1-3.4,0.1-5.1C270.8,136,270.9,135.3,270.3,134.5"/>
				</g>
				<g id="Group-6" transform="translate(62.012745, 73.338403)">
					<path id="Fill-4" class="st1" d="M93.1,91.4c-0.1-1-0.2-1.8-0.1-2.6c0-0.8-0.3-1.3-0.7-2c-1.4-2-5.1-2.3-6.5-0.4
						c-0.1,0.1-0.2,0.2-0.4,0.3c-0.6,0.6-1,1.3-1,2.1c0,1.9-0.1,3.7-0.1,5.6c0,1.2,0.4,2.3,1.3,3.2c1.6,1.7,4.4,1.8,5.8,0.4
						c0.8-0.8,1.6-1.6,1.6-2.9C92.9,93.8,93,92.5,93.1,91.4 M97.5,92.6c0,3.4,0,6.8,0,10.1c0,0.7,0,1.4-0.2,2.2
						c-0.1,0.6-0.3,1.3-0.6,1.9c-1.4,3.2-3.8,5-7.3,5.4c-1.6,0.1-3.1,0.1-4.6-0.4c-0.5-0.2-1-0.4-1.4-0.6c-0.9-0.6-1.8-1.3-2.7-2
						c-0.6-0.5-0.5-0.8,0.1-1.2c0.6-0.4,1.3-0.9,1.9-1.4c0.8-0.7,0.8-0.7,1.6-0.1c0.9,0.7,1.9,1.3,3.1,1.4c1.3,0.1,2.5,0.1,3.6-0.8
						c1.1-1,2-2,2-3.7c0-0.5,0.1-1,0.1-1.6c0-0.3,0-0.6-0.3-0.7c-0.2,0-0.5,0.1-0.6,0.2c-2.4,2.4-5.2,2.5-8.1,1.2
						c-1.8-0.8-3.1-2.2-3.9-4.1c-0.3-0.8-0.3-1.7-0.4-2.5c-0.2-3-0.1-5.9,0-8.9c0.1-2.4,1.4-4.1,3.4-5.4c1.6-1,3.3-1.1,5.1-1
						c1,0,2,0.3,2.9,1c0.3,0.2,0.5,0.6,0.9,0.8c0.2,0.1,0.5,0.3,0.7,0.2c0.3-0.1,0.3-0.4,0.3-0.7c0-0.1,0-0.2,0-0.3
						c0-0.5,0.1-0.6,0.6-0.7c0.2,0,0.4,0,0.7,0c0.8,0,1.6,0,2.4,0c0.7,0,0.9,0.2,0.9,0.9L97.5,92.6L97.5,92.6"/>
				</g>
				<path id="Fill-7" class="st1" d="M261,168.8c0-0.2,0-0.4,0-0.7c0-1-0.2-1.2-1.2-1.2c-1.5,0-3.1,0.1-4.6,0
					c-0.9,0-1.7,0.1-2.4,0.7c-0.9,0.6-1.3,1.4-1,2.4c0.2,1.1,0.9,1.8,2,2.1c1.7,0.5,3.4,0.2,5.1,0.1c0.6-0.1,1-0.4,1.4-0.8
					C260.9,170.6,261,169.7,261,168.8 M265.4,167.8v7.4c0,0.2,0,0.4,0,0.6c-0.1,0.4-0.3,0.7-0.7,0.7c-1,0-1.9,0-2.9,0
					c-0.4,0-0.6-0.2-0.7-0.6c0-0.1,0-0.3,0-0.4c-0.1-0.2-0.1-0.5-0.3-0.5c-0.1-0.1-0.5,0.1-0.6,0.2c-0.9,1.2-2.1,1.4-3.5,1.5
					c-1,0-2,0.1-3-0.1c-2-0.3-3.8-1-4.9-2.9c-0.4-0.7-0.8-1.4-1.1-2.2c-0.3-1.2-0.3-2.3,0.2-3.5c0.4-0.8,0.6-1.7,1.2-2.5
					c0.2-0.3,0.4-0.5,0.7-0.7c1.1-0.5,2.2-1,3.4-1.4c0.7-0.2,1.5-0.2,2.2-0.2c1.6,0,3.2,0.1,4.8,0.1c0.8,0,1-0.2,1-1
					c0-0.3-0.1-0.7,0-1c0.2-1-0.3-1.8-1-2.4c-0.5-0.4-1.3-0.6-2-0.7c-1.1-0.1-2.2-0.1-3.3,0c-0.8,0.1-1.7,0.4-2.2,1.2
					c-0.3,0.4-0.5,0.4-0.9,0.2c-0.8-0.6-1.7-1.3-2.5-1.9c-0.4-0.4-0.5-0.7,0-1.1c0.6-0.5,1.3-1,1.9-1.4c1.2-0.8,2.6-1.1,4.1-1.1
					c1.5,0,3,0,4.4,0.2c2,0.3,3.7,1.3,4.9,2.9c0.7,1,0.9,2.1,0.9,3.3C265.4,162.9,265.4,165.3,265.4,167.8L265.4,167.8"/>
				<path id="Fill-9" class="st1" d="M233,158.1c-0.6-0.1-1.3,0.2-1.9,0.5c-1.5,0.7-2.3,1.9-2.6,3.5c-0.2,0.9,0.1,1.2,1,1.2
					c1.6,0,3.2,0,4.8,0c0.9,0,1.8,0,2.7,0c0.6,0,0.8-0.2,0.8-0.7C237.7,160.2,235.9,158,233,158.1 M235.3,166.9c-2,0-4,0-6,0
					c-0.8,0-1,0.3-0.9,1c0.2,0.8,0.4,1.6,0.9,2.3c1.2,1.7,3,2.2,5,2.1c0.4,0,0.8-0.1,1.2-0.2c0.4-0.1,0.8-0.3,1.2-0.5
					c0.6-0.3,1.1-0.7,1.7-1.1c0.3-0.2,0.6-0.2,0.8,0.1c0.7,0.7,1.5,1.4,2.2,2.1c0.3,0.3,0.3,0.6,0,0.9c-2,1.9-4.3,3-7.1,3
					c-1.4,0-2.7,0-4.1-0.4c-1.5-0.5-2.7-1.4-3.7-2.6c-1-1.1-1.7-2.5-2.2-3.9c-0.2-0.6-0.3-1.3-0.3-1.9c0-2,0-4,0-6
					c0-0.2,0-0.5,0.1-0.6c0.5-1.2,0.9-2.4,1.6-3.5c1.3-2,3.3-3.2,5.7-3.7c1.4-0.2,2.7-0.1,4.1,0.1c0.8,0.1,1.5,0.6,2.2,0.9
					c0.5,0.2,0.9,0.6,1.3,0.9c0.7,0.5,1.2,1.1,1.7,1.8c0.9,1.7,1.6,3.4,1.4,5.3c-0.1,0.9,0,1.8,0,2.7c0,1-0.1,1.1-1.1,1.1
					C239.3,167,237.3,167,235.3,166.9L235.3,166.9"/>
				<path id="Fill-11" class="st1" d="M178.4,165.5c0.2-1.6,0.3-3.2,0.6-4.7c0.2-0.8,0.6-1.6,1.1-2.3c1.2-2,3-3.3,5.2-4.1
					c0.9-0.3,1.9-0.3,2.8-0.4c2.7-0.2,5.1,0.7,7.2,2.4c0.3,0.2,0.6,0.5,0.9,0.8c0.4,0.4,0.4,0.6,0,1c-0.6,0.6-1.2,1.2-1.8,1.7
					c-0.6,0.5-1.1,0.6-1.7,0.1c-0.3-0.2-0.7-0.5-1-0.8c-1.7-1.4-5-0.8-6.4,0.3c-1.6,1.2-2,2.9-2.2,4.7c-0.2,1.4,0,2.9,0.4,4.3
					c0.7,2.1,2.2,3.4,4.4,3.7c0.7,0.1,1.5,0,2.2-0.1c1-0.1,1.6-0.8,2.3-1.4c1.1-0.9,1.1-0.9,2.1,0.1c0.5,0.5,1,1,1.6,1.5
					c0.3,0.3,0.3,0.6,0,0.9c-1.4,1.6-3.1,2.6-5.2,3.2c-0.1,0-0.2,0.1-0.2,0.1c-2.8,0.4-5.5,0.1-7.8-1.5c-1.7-1.2-3.1-2.8-3.7-4.9
					C178.7,168.6,178.6,167,178.4,165.5"/>
			</g>
		</g>
	</g>
</g>
</svg>
