<?xml version="1.0" encoding="utf-8"?>
<!-- Generator: Adobe Illustrator 17.0.0, SVG Export Plug-In . SVG Version: 6.00 Build 0)  -->
<!DOCTYPE svg PUBLIC "-//W3C//DTD SVG 1.1//EN" "http://www.w3.org/Graphics/SVG/1.1/DTD/svg11.dtd">
<svg version="1.1" id="Layer_1" xmlns="http://www.w3.org/2000/svg" xmlns:xlink="http://www.w3.org/1999/xlink" x="0px" y="0px"
	 width="700px" height="409.48px" viewBox="-93.927 0 700 409.48" enable-background="new -93.927 0 700 409.48"
	 xml:space="preserve">
<g>
	<polygon fill="#AA7B11" points="80.449,350.844 83.949,350.844 83.949,248.448 80.449,250.636 	"/>
	<path fill="#AA7B11" d="M318.935,184.56L314.56,69.911c0-0.438-11.815-9.627-11.815-9.627h-14.44c0,0,0,0-0.438,0.438
		l-4.376,143.53l-12.253,7.439v0.438l-11.377,6.564l-11.815,6.563l-71.327-40.696l-96.707,54.699v4.813l96.707-54.699l29.319,16.629
		l53.386,30.194h7.877l-15.316-8.752l34.132-18.816l12.69-7.439v-5.251h-5.251v5.251h-3.063v-12.69h3.063v4.813h5.251v-4.813h2.626
		h0.438v10.94l17.504-10.065l28.881,16.628l37.633,21.442l1.313,0.875v-0.438v-4.375L318.935,184.56z M290.93,65.098h5.251
		c0.875,0,1.313,0,2.188,0.438c1.313,0.438,2.188,1.313,2.626,2.188c0,0.438,0.438,1.313,0.438,1.75
		c0,3.063-2.188,4.376-5.251,4.376h-1.75v3.938h-0.438h-2.626h-0.438V65.098z M300.556,92.667v2.625h-9.189v-12.69h3.063v10.065
		H300.556z M293.118,100.105l3.063,5.251l3.063-5.251h3.063l-4.813,7.877v4.813h-3.063v-4.813l-4.814-7.877H293.118z
		 M289.615,117.609h0.438h2.626l3.501,5.251l3.501-5.251h3.063v12.69h-3.063v-8.314l-3.501,5.688l-3.501-4.813v7.439h-0.438h-2.188
		h-0.438V117.609z M301.432,173.183h-3.939v10.065h-3.063v-10.065h-3.938v-2.626h10.94V173.183z M301.87,160.055v0.438
		c0,3.938-2.188,5.689-5.689,5.689c-3.501,0-5.689-1.75-5.689-5.689v-0.438v-7.001v-0.438h3.063v0.438v6.564
		c0,2.188,0.875,3.063,2.626,3.063c1.75,0,2.626-0.875,2.626-3.063v-6.127v-1.313h3.063v1.313h0V160.055z M298.807,147.802
		c-0.875,0.438-1.75,0.438-2.626,0.438h-1.313c-0.438,0-0.875-0.438-1.313-0.438c-2.626-0.875-4.376-3.501-4.376-6.126
		s1.75-4.813,4.376-6.126c0.438,0,0.875-0.438,1.313-0.438h1.313c0.875,0,1.75,0,2.626,0.438c2.626,0.875,4.376,3.501,4.376,6.126
		C303.183,144.302,301.433,146.489,298.807,147.802z"/>
	<path fill="#AA7B11" d="M297.931,69.036c0-0.438,0-0.875-0.438-0.875s-0.875-0.438-1.313-0.438h-2.188v3.063h1.75
		C297.056,70.787,297.931,69.911,297.931,69.036z"/>
	<circle fill="#AA7B11" cx="296.18" cy="141.676" r="3.938"/>
	<path fill="#AA7B11" d="M385.886,235.758l-66.951-38.508v51.198h-51.636l-90.581-50.76v73.953h0.438
		c17.504,0,31.506,14.44,31.506,31.506v6.126h-0.437h-3.063h-0.438v-6.126c0-11.377-7.001-21.442-17.066-25.818
		c-3.063-1.313-6.126-2.188-9.627-2.188h-1.313v-3.063h-2.188c-17.504,0-31.506,14.003-31.506,31.506v6.126h3.501v-6.126
		c0-15.316,12.69-28.006,28.006-28.006h2.188v70.849H147.4v3.979h195.603v0.001h32.819v-0.001h11.377v-3.979V236.196l-1.313-0.876
		L385.886,235.758z"/>
	<path fill="#AA7B11" d="M153.089,303.147v39.821h19.254v-59.95C161.84,283.455,153.089,292.645,153.089,303.147z"/>
	<path fill="#AA7B11" d="M287.866,55.909h14.44c0,0,9.189,7.001,11.377,9.189h0.875l-0.438-4.813c0-0.438-11.815-9.627-11.815-9.627
		h-14.44c0,0-11.815,8.752-11.815,9.627l-0.438,4.813h0.875C278.677,62.91,287.866,55.909,287.866,55.909z"/>
	<polygon fill="#AA7B11" points="279.552,68.161 276.926,69.911 272.113,185.873 271.238,206.44 271.238,206.877 275.176,204.689 	
		"/>
</g>
</svg>
