<?xml version="1.0" encoding="utf-8"?>
<!-- Generator: Adobe Illustrator 17.0.0, SVG Export Plug-In . SVG Version: 6.00 Build 0)  -->
<!DOCTYPE svg PUBLIC "-//W3C//DTD SVG 1.1//EN" "http://www.w3.org/Graphics/SVG/1.1/DTD/svg11.dtd">
<svg version="1.1" id="Layer_1" xmlns="http://www.w3.org/2000/svg" xmlns:xlink="http://www.w3.org/1999/xlink" x="0px" y="0px"
	 width="700px" height="409.48px" viewBox="-155.76 0 700 409.48" enable-background="new -155.76 0 700 409.48"
	 xml:space="preserve">
<g id="case-studies_1_">
	<g id="Desktop-HD_1_" transform="translate(-877.000000, -15801.000000)">
		<g id="icons_1_" transform="translate(877.000000, 15800.465278)">
			<g id="Layer_1_2_">
				<path id="Shape_83_" fill="#AA7B11" d="M259.855,177.714c-0.362,0,0.362-10.142-7.606-20.645
					c-7.968-10.866-23.905-16.299-23.905-16.299c-4.709-1.087-6.157-6.52-6.157-6.52s-0.724-19.196-2.898-22.456
					c-1.811-3.26-3.984-8.331-2.898-9.417c1.087-1.449,2.535-5.433,2.535-6.157c-1.087-1.449,0.362-7.968,0.362-7.968V77.023
					c0-5.071-2.898-5.071-2.898-5.071c-4.709-1.087-13.039-1.449-16.661-1.449h-0.724h-0.724c-3.622,0-11.953,0.362-16.661,1.449
					c0,0-2.898,0-2.898,5.071v11.228c0,0,1.449,6.52,0.362,7.968c0,0.724,1.449,4.709,2.535,6.157
					c1.087,1.449-1.087,6.157-2.898,9.417s-2.898,22.456-2.898,22.456s-1.087,5.433-6.157,6.52c0,0-16.299,5.433-24.267,16.299
					s-7.244,20.645-7.244,20.645l1.449,44.913l3.984,117.714c0,0-1.811,9.055,10.142,10.504c10.142,1.087,33.684,1.449,43.464,1.449
					h1.811h1.811c9.779,0,33.322-0.362,43.464-1.449c11.953-1.449,10.142-10.504,10.142-10.504l3.984-117.714L259.855,177.714z
					 M188.14,105.275c0-0.362,0.362-0.362,0.724-0.362s0.724,0.362,0.724,0.724c-0.724,5.433-1.449,5.795-1.811,11.953
					l-0.724,12.677v6.157v1.087l0,0v1.087c0,1.449-1.449,2.898-2.898,2.898c-1.449,0-2.898-1.087-2.898-2.898
					c0-2.535-0.362,0.362-0.362-2.173C181.258,119.763,183.793,116.141,188.14,105.275z M187.053,258.484
					c-6.52,15.212-17.023,21.007-24.629,23.181l0.724,42.015l1.811,16.661l-11.228,0.362l-4.709-158.643
					c0-11.953,6.157-22.818,15.937-28.976c-3.26,5.433-5.433,11.59-5.433,18.11l0.724,20.645
					c18.11,3.622,24.992,18.472,24.992,18.472C197.557,234.579,187.053,258.484,187.053,258.484z"/>
			</g>
		</g>
	</g>
</g>
</svg>
