<?xml version="1.0" encoding="utf-8"?>
<!-- Generator: Adobe Illustrator 17.0.0, SVG Export Plug-In . SVG Version: 6.00 Build 0)  -->
<!DOCTYPE svg PUBLIC "-//W3C//DTD SVG 1.1//EN" "http://www.w3.org/Graphics/SVG/1.1/DTD/svg11.dtd">
<svg version="1.1" id="Layer_1" xmlns="http://www.w3.org/2000/svg" xmlns:xlink="http://www.w3.org/1999/xlink" x="0px" y="0px"
	 width="479.25px" height="411px" viewBox="-47.75 -31.25 479.25 411" enable-background="new -47.75 -31.25 479.25 411"
	 xml:space="preserve">
<title>icons</title>
<desc>Created with Sketch.</desc>
<g id="case-studies">
	<g id="Desktop-HD" transform="translate(-877.000000, -15801.000000)">
		<g id="icons" transform="translate(877.000000, 15800.465278)">
			<g id="Layer_1_1_">
				<path id="Shape" fill="#AA7B11" d="M53.8,30.8c-0.1,0,0.1-2.8-2.1-5.7c-2.2-3-6.6-4.5-6.6-4.5c-1.3-0.3-1.7-1.8-1.7-1.8
					s-0.2-5.3-0.8-6.2c-0.5-0.9-1.1-2.3-0.8-2.6c0.3-0.4,0.7-1.5,0.7-1.7c-0.3-0.4,0.1-2.2,0.1-2.2V3c0-1.4-0.8-1.4-0.8-1.4
					c-1.3-0.3-3.6-0.4-4.6-0.4H37h-0.2c-1,0-3.3,0.1-4.6,0.4c0,0-0.8,0-0.8,1.4v3.1c0,0,0.4,1.8,0.1,2.2c0,0.2,0.4,1.3,0.7,1.7
					s-0.3,1.7-0.8,2.6c-0.5,0.9-0.8,6.2-0.8,6.2s-0.3,1.5-1.7,1.8c0,0-4.5,1.5-6.7,4.5s-2,5.7-2,5.7l0.4,12.4l1.1,32.5
					c0,0-0.5,2.5,2.8,2.9c2.8,0.3,9.3,0.4,12,0.4H37h0.5c2.7,0,9.2-0.1,12-0.4c3.3-0.4,2.8-2.9,2.8-2.9l1.1-32.5L53.8,30.8z
					 M34,10.8c0-0.1,0.1-0.1,0.2-0.1c0.1,0,0.2,0.1,0.2,0.2c-0.2,1.5-0.4,1.6-0.5,3.3l-0.2,3.5v1.7v0.3l0,0V20
					c0,0.4-0.4,0.8-0.8,0.8c-0.4,0-0.8-0.3-0.8-0.8c0-0.7-0.1,0.1-0.1-0.6C32.1,14.8,32.8,13.8,34,10.8z M33.7,53.1
					c-1.8,4.2-4.7,5.8-6.8,6.4l0.2,11.6l0.5,4.6l-3.1,0.1L23.2,32c0-3.3,1.7-6.3,4.4-8c-0.9,1.5-1.5,3.2-1.5,5l0.2,5.7
					c5,1,6.9,5.1,6.9,5.1C36.6,46.5,33.7,53.1,33.7,53.1z"/>
				<g id="Group" transform="translate(0.000000, 165.000000)">
					<path id="Shape_1_" fill="#AA7B11" d="M24.1,17C24,14.9,24,12.4,25,10.6c0.5-1,1.2-1.3,1.9-1.3c0.5,0,1,0.2,1.6,0.4
						c-0.1-0.4-0.3-0.8-0.5-1.1c-1-1.3-2.1-1.8-3.2-1.8c-3.2,0-6.6,4.4-8.9,7C4.9,26-1.6,28.5-1.6,28.5h10l4.7-1.9
						c0.1,0,4.1-1.7,11.2-8.2C24.2,17.9,24.1,17.5,24.1,17z"/>
					<path id="Shape_2_" fill="#AA7B11" d="M32.3,25.5c0.9-0.5,2.1-1.3,3.6-2.4c1.7-1.3,4-3.1,6.8-5.6c-0.1-0.6-0.2-1.2-0.3-1.8
						c-0.2-2.3-0.1-5.1,1-7.1c0.6-1.1,1.3-1.5,2.1-1.5c0.5,0,1.1,0.2,1.7,0.4c-0.1-0.4-0.3-0.9-0.5-1.2c-1.1-1.4-2.3-2-3.5-2
						c-3.6,0-7.3,4.9-9.9,7.8c-2.4,2.7-4.7,5-6.7,6.9c-0.3,0.3-0.5,0.5-0.8,0.8s-0.5,0.5-0.8,0.7c-7.1,6.4-11.1,8-11.1,8h11.7
						l4.7-1.9h0.1c0,0,0.3-0.1,1-0.5C31.6,25.9,31.9,25.7,32.3,25.5z"/>
					<path id="Shape_3_" fill="#AA7B11" d="M63.8,13.9c-0.2-2.6-0.1-5.9,1.1-8.1c0.7-1.2,1.5-1.7,2.4-1.7c0.6,0,1.3,0.2,2,0.5
						c-0.1-0.5-0.3-1-0.6-1.4c-1.3-1.6-2.6-2.3-4-2.3c-4.1,0-8.4,5.6-11.4,8.9s-5.7,6.1-8.2,8.3c-0.3,0.3-0.5,0.5-0.8,0.8
						s-0.5,0.5-0.8,0.7c-4,3.5-7,5.8-9.1,7.1c-0.4,0.2-0.7,0.4-1,0.6c-0.4,0.2-0.8,0.4-1.1,0.6c-0.8,0.4-1.2,0.6-1.2,0.6h2.2h2.3
						h2.3h15h2.3h2.3h18.3C69.9,25.6,64.3,20.6,63.8,13.9z"/>
				</g>
				<g id="Group_1_" transform="translate(151.000000, 269.000000)">
					<path id="Shape_4_" fill="#AA7B11" d="M89.1,41.5c-0.3-0.1-0.6-0.1-1-0.1c-1.7-0.1-4.7,0.4-7.4,0.8c-1.7,0.2-3.5,0.5-3.9,0.5
						c-0.4-0.1-0.6-0.3-0.9-0.5c-0.2-0.2-0.4-0.4-0.8-0.5c-0.2,0-0.4,0-0.6,0.1c-0.1,0.1-0.2,0.1-0.3,0.2c-0.4-0.3-0.9-0.3-1.1-0.2
						h-2.2v-0.1h-2.4l1-0.3h1.3c-0.5-3.9-2-7.5-4.3-10.8c-0.1-0.2-0.2-0.3-0.3-0.5l-1.5,1.4l-1,0.4l2.4-1.9l1.4-1.4
						c0.2-0.1,0.5-0.5,0.6-1c0.1,0,0.2-0.1,0.4-0.1c0.6-0.2,0.6-0.8,0.7-1.2c0-0.3,0-0.7,0.2-1s1.8-1.4,3.1-2.4
						c2.2-1.6,4.7-3.4,5.8-4.6c2-2.2,1-4.2,0.2-5c-0.3-0.3-0.9-0.7-1.6-0.8c-0.8-0.2-2.1-0.2-3.5,1.1c-1.2,1.1-3.1,3.6-4.7,5.7
						c-1,1.3-2.1,2.9-2.4,3.1s-0.7,0.2-1,0.2c-0.4,0-1,0.1-1.2,0.6C64,23.3,64,23.5,64,23.6c-0.5,0.1-0.8,0.4-1,0.6L62.2,25l0.1,0.1
						l-2.5,2.3l0.5-1l1.1-1c-3.5-2.6-7.6-4.2-11.8-4.6V19c0.1-0.3,0-0.7-0.2-1.1c0.1-0.1,0.1-0.2,0.2-0.3c0.3-0.5-0.1-1-0.4-1.3
						c-0.2-0.2-0.4-0.5-0.5-0.9c-0.1-0.3,0.2-2.2,0.5-3.9c0.4-2.7,0.9-5.7,0.8-7.3c-0.1-2.7-2-3.4-2.8-3.6V0.4H47h-0.2l0,0l0.1,27.9
						c-9,0.1-16.3,7.4-16.3,16.3c0,7.4,5,13.6,11.7,15.6c0.2,0.1,0.4,0.1,0.6,0.2H43c0.2,0,0.3,0.1,0.5,0.1h0.2h0.2h0.2
						c0.6,0.1,1.3,0.2,1.9,0.2h0.2h0.7v27.9c-0.8-0.2-2.5-0.9-2.6-3.5c-0.1-1.6,0.4-4.6,0.8-7.3c0.3-2.1,0.6-3.6,0.5-3.9
						c-0.1-0.4-0.3-0.7-0.6-0.9c-0.3-0.4-0.6-0.7-0.4-1.1c0.1-0.1,0.1-0.2,0.2-0.3l0.1-0.1l-0.1-0.1c-0.3-0.5-0.2-0.9-0.2-1v-2.8
						l-0.1-1.3l-0.2,2c-4.2-0.5-8.1-2.1-11.4-4.6l0.4-0.4l0.1-0.6l-0.8,0.8l-0.1-0.1L31,64.9c-0.1,0.1-0.3,0.4-0.9,0.5H30v0.1
						c0,0.1-0.1,0.2-0.1,0.3c-0.2,0.4-0.6,0.5-1.1,0.5c-0.3,0-0.7,0-1.1,0.3c-0.3,0.2-1.2,1.4-2.4,3.1c-1.6,2.2-3.4,4.6-4.6,5.7
						c-1.3,1.2-2.5,1.2-3.3,1c-0.7-0.2-1.2-0.5-1.5-0.8c-0.8-0.8-1.7-2.7,0.3-4.8c1.1-1.2,3.6-3,5.8-4.6c1.7-1.2,3-2.2,3.1-2.4
						c0.2-0.3,0.2-0.7,0.3-1.1c0-0.4,0.1-0.8,0.3-1c-0.1,0-0.2,0.1-0.2,0.1c-0.7,0.2-0.7,0.9-0.8,1.4c0,0.3,0,0.6-0.2,0.9
						s-1.9,1.5-3.1,2.4c-2.2,1.6-4.7,3.4-5.8,4.6c-2.1,2.3-1.1,4.4-0.2,5.2c0.3,0.3,0.9,0.7,1.7,0.9c0.9,0.2,2.2,0.2,3.6-1.1
						c1.2-1.1,3.1-3.6,4.7-5.8c0.9-1.2,2.1-2.8,2.4-3c0.2-0.2,0.6-0.2,0.9-0.2c0.4,0,1.1-0.1,1.4-0.8c0-0.1,0.1-0.2,0.1-0.3
						c0.6-0.1,0.9-0.5,1-0.6l0.2-0.2l0,0l1.1-1.2c3.4,2.6,7.5,4.2,11.8,4.7v1.7c0,0.2-0.1,0.6,0.2,1.2c-0.1,0.1-0.1,0.2-0.1,0.3
						c-0.3,0.6,0.1,1.2,0.4,1.5c0.2,0.2,0.4,0.5,0.5,0.8s-0.2,2.3-0.5,3.8c-0.4,2.7-0.9,5.7-0.8,7.3c0.1,2.9,2.1,3.6,2.9,3.8H47h0.2
						V89c0.8-0.2,2.6-0.9,2.8-3.6c0.1-1.6-0.4-4.6-0.8-7.3c-0.2-1.6-0.6-3.5-0.5-3.9c0.1-0.3,0.3-0.6,0.5-0.9
						c0.3-0.3,0.7-0.8,0.4-1.3c-0.1-0.1-0.1-0.3-0.2-0.3c0.3-0.4,0.3-0.9,0.2-1.1v-1.8c4.3-0.5,8.4-2.1,12-4.8l0.2,0.2L60.7,63
						l-0.4-0.9l2.4,2.8l0.1,0.3l0.2,0.2c0.1,0.2,0.5,0.5,1,0.6c0,0.1,0.1,0.2,0.1,0.4c0.2,0.6,0.8,0.6,1.2,0.6c0.3,0,0.7,0,1,0.2
						s1.4,1.7,2.4,3.1c1.6,2.2,3.4,4.6,4.7,5.7c1.4,1.2,2.7,1.3,3.5,1.1c0.7-0.2,1.3-0.5,1.6-0.8c0.8-0.8,1.7-2.8-0.2-5
						c-1.1-1.2-3.6-3-5.8-4.6c-1.4-1-2.9-2.1-3.1-2.4c-0.2-0.3-0.2-0.6-0.2-1s-0.1-1-0.7-1.2C68.4,62,68.2,62,68.1,62
						c-0.1-0.5-0.4-0.8-0.6-1l-1.4-1.4l0,0l-1.3-1.4l1,0.5l0.5,0.6c0.1-0.1,0.1-0.2,0.2-0.3c2.5-3.3,3.8-7.1,4.4-11h-1.6l-1-0.3
						l2.6,0.1l0,0h2.2c0.2,0,0.7,0,1.1-0.2c0.1,0.1,0.2,0.1,0.3,0.2c0.2,0.1,0.4,0.1,0.6,0.1c0.3-0.1,0.5-0.3,0.8-0.5
						c0.2-0.2,0.5-0.4,0.9-0.5c0.3-0.1,2.2,0.2,3.9,0.5c2.7,0.4,5.8,0.9,7.4,0.8c0.3,0,0.7-0.1,1-0.1c2.2-0.7,2.8-2.4,2.8-3.4
						C91.9,43.8,91.3,42,89.1,41.5z M56.6,31.7c0.1,0.1,0.2,0.1,0.2,0.2c0.1,0,0.1,0.1,0.2,0.1c0.2,0.2,0.4,0.3,0.7,0.5l-7.2,7.1
						c-0.7-0.4-1.4-0.8-2.2-0.9l-0.1-10C51.3,28.9,54.2,30,56.6,31.7z M43.6,29.3h0.2H44h0.2c0.6-0.1,1.1-0.2,1.7-0.2v9.6
						c-0.8,0.2-1.5,0.5-2.2,0.9l-6.8-7C38.8,31,41.1,29.8,43.6,29.3z M35,34.1l7,7l-7.1-6.9C34.9,34.2,34.9,34.2,35,34.1z
						 M34.8,34.6l7,6.9c-0.4,0.6-0.7,1.3-0.8,2h-9.7C31.5,40.2,32.7,37.1,34.8,34.6z M34.8,54.8c-2.1-2.6-3.3-5.6-3.5-8.9H41
						c0.1,0.7,0.4,1.4,0.8,2L34.8,54.8z M45.9,60.6c-1-0.1-1.9-0.2-2.8-0.4c-0.2,0-0.4-0.1-0.6-0.2c-2.1-0.6-4-1.7-5.6-3l7-7.1
						c0.6,0.3,1.3,0.6,2,0.8C45.9,50.7,45.9,60.6,45.9,60.6z M48.2,60.6v-10c0.8-0.1,1.5-0.4,2.2-0.8l7.2,7.1
						C55,59,51.7,60.3,48.2,60.6z M62.6,49c-0.7,2.2-1.8,4.3-3.2,6l-7.2-7.1c0.4-0.6,0.7-1.4,0.9-2.1h10C63,46.9,62.9,48,62.6,49z
						 M53.1,43.7c-0.1-0.8-0.4-1.5-0.8-2.2l7.2-7.1c2.3,2.7,3.5,6,3.7,9.3H53.1z"/>
					<path id="Shape_5_" fill="#AA7B11" d="M26.3,61.5L26.3,61.5l0.1-0.1c0.1-0.5,0.4-0.8,0.6-0.9l-0.2,0.2V61l2.6-2.6l-0.9,0.5
						l-0.1-0.1c-0.1-0.2-0.3-0.3-0.4-0.5c-2.3-3-3.7-6.7-4.3-10.5h0.2l1-0.3h-1.3v-0.3v-0.1h-2.4c-0.2,0-0.7,0-1-0.2l-0.1-0.1
						L20,46.9c-0.1,0.1-0.2,0.1-0.3,0.2c-0.1,0.1-0.3,0.1-0.5,0s-0.4-0.2-0.7-0.4c-0.2-0.2-0.5-0.5-0.9-0.6c-0.3-0.1-1.8,0.1-4,0.5
						c-2.7,0.4-5.7,0.9-7.4,0.8c-0.3,0-0.6-0.1-0.9-0.1c-2.1-0.5-2.6-2.1-2.7-3c0-0.6,0.3-1.6,1.2-2.3c-1.3,0.8-1.7,2.1-1.7,2.8
						c0,1,0.7,2.8,2.9,3.3c0.3,0.1,0.6,0.1,1,0.1c1.7,0.1,4.7-0.4,7.5-0.8c1.4-0.2,3.4-0.5,3.8-0.5c0.3,0.1,0.6,0.3,0.8,0.5
						c0.2,0.2,0.5,0.4,0.8,0.5c0.2,0.1,0.5,0,0.7-0.1c0.1,0,0.2-0.1,0.3-0.1c0.4,0.2,0.9,0.3,1.1,0.2h2c0.5,4,2.1,7.9,4.4,11.1
						c0.1,0.2,0.2,0.3,0.3,0.5l-1.2,1.2c-0.2,0.1-0.5,0.4-0.7,1c0,0,0.1,0,0.1-0.1C26,61.6,26.1,61.5,26.3,61.5z"/>
					<path id="Shape_6_" fill="#AA7B11" d="M18.8,12.4c0.4,0.1,0.8,0.3,1.2,0.5C19.6,12.7,19.2,12.5,18.8,12.4z"/>
					<path id="Shape_7_" fill="#AA7B11" d="M18.6,41.8c-0.2,0.1-0.5,0.3-0.7,0.4c-0.1,0.1-0.1,0.1-0.2,0.2c0.2-0.1,0.4-0.2,0.6-0.4
						C18.5,41.9,18.6,41.8,18.6,41.8z"/>
					<path id="Shape_8_" fill="#AA7B11" d="M6,41.4c1.6-0.1,4.7,0.4,7.4,0.8c1.5,0.3,3.5,0.6,3.8,0.5s0.5-0.2,0.6-0.3
						c-0.1,0-0.2,0.1-0.3,0.1c-0.3,0-1.8-0.2-3.9-0.5c-2.7-0.4-5.8-0.9-7.4-0.8c-0.3,0-0.6,0-0.9,0.1c-0.7,0.1-1.2,0.4-1.5,0.7
						c0.3-0.2,0.8-0.4,1.2-0.5C5.3,41.5,5.7,41.4,6,41.4z"/>
					<path id="Shape_9_" fill="#AA7B11" d="M19.5,41.8c0.1,0,0.2,0,0.3,0.1H20l-0.1-0.1c-0.1-0.1-0.2-0.1-0.3-0.2h-0.5
						c-0.2,0-0.3,0.1-0.4,0.2l0.1-0.1C19.1,41.7,19.3,41.7,19.5,41.8z"/>
					<path id="Shape_10_" fill="#AA7B11" d="M21.5,41.7l3.7,0.2l-1-0.4h-0.8c0.5-4,2-7.9,4.4-11.1c0.1-0.1,0.2-0.2,0.3-0.3l0.3,0.3
						l0.9,0.4l-0.9-1l0,0l-1.5-1.5l0,0l0,0c-0.1-0.1-0.4-0.3-0.6-0.9v-0.1h-0.1c-0.1,0-0.2-0.1-0.4-0.1c-0.4-0.2-0.5-0.6-0.5-1.1
						c0-0.3,0-0.7-0.3-1.1c-0.2-0.3-1.4-1.2-3.1-2.4c-2.2-1.6-4.7-3.4-5.8-4.6c-1.9-2.1-1-4-0.3-4.8c0.3-0.3,0.8-0.6,1.5-0.8
						c0.3-0.1,0.6-0.1,1-0.1c-0.5-0.1-0.9,0-1.2,0.1c-0.8,0.2-1.3,0.6-1.7,0.9c-0.8,0.8-1.8,3,0.2,5.2c1.1,1.2,3.6,3,5.8,4.6
						c1.2,0.9,2.9,2.1,3.1,2.4c0.2,0.2,0.2,0.5,0.2,0.9s0.1,1.1,0.8,1.4c0.1,0,0.2,0.1,0.3,0.1c0.1,0.5,0.5,0.9,0.7,1l1.2,1.2
						c-0.1,0.1-0.2,0.3-0.3,0.5c-2.4,3.1-3.8,7-4.4,10.9h-2l0.3,0.1h-0.2c-0.1,0-0.6,0-1,0.2l0,0c0.4-0.1,0.7-0.1,0.9-0.1L21.5,41.7
						L21.5,41.7z"/>
					<path id="Shape_11_" fill="#AA7B11" d="M20.1,41.8H20H20.1L20.1,41.8z"/>
					<path id="Shape_12_" fill="#AA7B11" d="M29.9,23.5H30l0,0v-0.1c0-0.1-0.1-0.2-0.2-0.3c0,0.1,0.1,0.2,0.1,0.3V23.5z"/>
					<path id="Shape_13_" fill="#AA7B11" d="M31.1,24.3l1.3,1.3c3.4-2.5,7.5-4.2,11.8-4.7v-0.3l0,0c-4.2,0.6-8.3,2.2-11.7,4.8
						l-0.1,0.1L30.9,24c-0.1-0.1-0.3-0.4-0.9-0.5c0,0.1,0.1,0.1,0.1,0.2C30.7,23.8,31,24.1,31.1,24.3z"/>
					<path id="Shape_14_" fill="#AA7B11" d="M44.5,18.6c0-0.1-0.1-0.5,0.2-1l0.1-0.1l-0.1-0.1c-0.1-0.1-0.1-0.2-0.2-0.3
						c-0.1-0.3-0.1-0.6,0.1-0.8c-0.3,0.3-0.7,0.9-0.3,1.4c0,0.1,0.1,0.2,0.1,0.3c-0.3,0.5-0.2,1-0.2,1.2v1.4l0.3,1.2
						C44.5,21.8,44.5,18.6,44.5,18.6z"/>
					<path id="Shape_15_" fill="#AA7B11" d="M27.7,22.4c0.2,0.2,0.6,0.2,0.9,0.2c0.4,0.1,0.9,0.1,1.2,0.5V23
						c-0.2-0.4-0.6-0.5-1.1-0.5c-0.4-0.1-0.8-0.1-1.1-0.3c-0.2-0.2-1.2-1.4-2.4-3.1c-0.4-0.6-0.9-1.1-1.3-1.7c0.5,0.7,0.9,1.3,1.4,2
						C26.2,20.6,27.4,22.2,27.7,22.4z"/>
					<path id="Shape_16_" fill="#AA7B11" d="M44.7,16.2l-0.1,0.1L44.7,16.2L44.7,16.2z"/>
					<path id="Shape_17_" fill="#AA7B11" d="M20.7,13.5l-0.1-0.1c-0.1-0.1-0.2-0.2-0.3-0.2C20.4,13.3,20.6,13.4,20.7,13.5L20.7,13.5
						z"/>
					<path id="Shape_18_" fill="#AA7B11" d="M20.7,13.5c0.9,0.8,2,2.3,3.2,3.8C22.7,15.8,21.6,14.3,20.7,13.5z"/>
					<path id="Shape_19_" fill="#AA7B11" d="M45.5,15.1c0.1-0.3-0.2-1.8-0.5-3.9c-0.4-2.7-0.9-5.7-0.8-7.3c0.1-2.6,1.9-3.3,2.6-3.5
						c-0.8,0.2-2.8,1-2.9,3.8c-0.1,1.6,0.4,4.7,0.8,7.4c0.2,1.5,0.6,3.5,0.5,3.8s-0.3,0.5-0.5,0.8c0.1-0.1,0.1-0.1,0.2-0.2
						C45.1,15.8,45.4,15.5,45.5,15.1z"/>
					<polygon id="Shape_20_" fill="#AA7B11" points="31.7,25.4 34.2,28.1 33.7,27.1 31.5,24.9 					"/>
				</g>
				<g id="Group_3_" transform="translate(323.000000, 284.000000)">
					<path id="Shape_27_" fill="#AA7B11" d="M-290.8,0.3h-3.7c-0.4,0-0.7,0.3-0.7,0.7v16.3h-15.4c-0.6,0-1.3,0.1-2,0.4
						c-0.7,0.2-1.4,0.5-1.9,0.8l-9.7,6.6c-0.3,0.2-0.4,0.4-0.4,0.6s0.1,0.4,0.4,0.6l9.7,6.6c0.4,0.3,1.1,0.6,1.9,0.8
						c0.7,0.2,1.5,0.4,2,0.4h15.4v36.5c0,0.4,0.3,0.7,0.7,0.7h3.7c0.4,0,0.7-0.3,0.7-0.7V1C-290.2,0.6-290.5,0.3-290.8,0.3z"/>
					<path id="Shape_26_" fill="#AA7B11" d="M-245.1,17l-9.7-6.6c-0.5-0.3-1.1-0.6-1.9-0.8c-0.7-0.2-1.5-0.4-2-0.4h-26.9l2.9,16.7
						h23.9c0.5,0,1.3-0.1,2-0.4c0.7-0.2,1.4-0.5,1.9-0.8l9.7-6.6c0.2-0.1,0.4-0.3,0.4-0.6C-244.7,17.4-244.9,17.2-245.1,17z"/>
				</g>
				<path id="Shape_23_" fill="#AA7B11" d="M370.1,196h-6.8c-1.6,0-2.8-1.4-2.8-3.4v-20.3c0-2.7,1.3-4.8,5.3-8.7
					c0.5-0.5,1.1-1.1,1.7-1.7l15.5-15.5h-37.4h-8.7v-0.2c0.2-1.5,2.5-2.7,5.3-2.7h3.9l1.4-8.6c-7.1-1.1-13.9,3.8-15.1,10.9
					c-1.2,7.1,3.7,13.9,10.8,15.2l0.9-5.5l0.3,0.3l7.9,7.9c3.9,3.9,5.3,5.9,5.3,8.7v20.3c0,2-1.3,3.4-2.8,3.4H348
					c-2,0-3.7,1.7-3.7,3.7h29.6C373.8,197.7,372.1,196,370.1,196z M358.6,166.7l-0.1-0.1l-13.8-14.5l-2.1-2.2
					c-0.1-0.1-0.2-0.2-0.2-0.3h2.7h1.6l11.5,12.6c0.1,0,0.2,0.2,0.4,0.6V166.7L358.6,166.7z"/>
				<path id="Shape_24_" fill="#AA7B11" d="M224.8,44v-0.3c0-0.3-0.1-0.7-0.2-1c0-0.1,0-0.2-0.1-0.3c-0.1-0.3-0.2-0.7-0.3-1
					s-0.2-0.7-0.4-1c-0.1,0.1-0.2,0.2-0.3,0.4c-0.4,0.5-0.8,1-1.3,1.5c-0.1,0.1-0.2,0.2-0.3,0.4c-0.2,0.2-0.4,0.5-0.7,0.7
					c-0.2,0.2-0.5,0.5-0.7,0.7c-0.3,0.3-0.7,0.7-1.1,1c-0.1,0.1-0.2,0.2-0.4,0.3c-0.2,0.2-0.5,0.4-0.7,0.6c-1.2,1-2.5,1.9-3.9,2.6
					c-0.8,0.4-1.6,0.8-2.5,1c0.1,0,0.5,0.4,0.9,0.9c0,0,0,0.1,0.1,0.1c0,0.1,0.1,0.1,0.1,0.2c0,0,0,0.1,0.1,0.1
					c0,0.1,0.1,0.1,0.1,0.2c0.1,0.2,0.2,0.4,0.2,0.6c0.1,0.3,0.1,0.6,0.1,0.9c0.1,1.5-0.9,3.4-4.5,5.2c-0.5,0.2-0.9,0.4-1.3,0.6
					c-1.3,0.5-2.3,0.7-3.1,0.7c-1,0-1.7-0.3-2.1-0.7c-0.1-0.1-0.2-0.2-0.3-0.3c-0.3-0.3-0.4-0.7-0.6-1.1v-0.2c0-0.2-0.1-0.3-0.1-0.4
					v-0.1c0-0.3-0.1-0.6-0.1-0.7l-0.6-27.1h8.9h0.4c0,0.1,0.1,0.2,0.1,0.2c0,0.1,0.1,0.1,0.1,0.2c0.1,0.1,0.2,0.2,0.4,0.3
					c0.1,0,0.1,0.1,0.2,0.1c0.2,0.1,0.5,0.2,0.7,0.2h0.9c0.9,0,1.7-0.8,1.7-1.7v-3.2c0-0.9-0.8-1.6-1.7-1.6h-0.4
					c-0.9,0-1.7,0.6-1.7,1.6v0.2h-0.2h-9v-2.3v-1.2c0.5-0.2,1-0.5,1.5-0.9c0.1-0.1,0.1-0.1,0.2-0.2c0.3-0.2,0.5-0.4,0.7-0.7
					c0.1-0.1,0.2-0.2,0.3-0.4c0.2-0.2,0.3-0.4,0.4-0.6c0.2-0.3,0.3-0.6,0.5-0.9c0.1-0.1,0.1-0.3,0.2-0.5c0.2-0.7,0.4-1.4,0.4-2.2
					s-0.2-1.6-0.4-2.3c-0.1-0.2-0.2-0.4-0.3-0.6c-0.5-1.1-1.4-2-2.4-2.7c-0.4-0.2-0.8-0.5-1.2-0.6c-0.1,0-0.2-0.1-0.3-0.1
					c-0.8-0.3-1.6-0.4-2.4-0.4c-3.9,0-7,3.1-7,6.8c0,2.8,1.7,5.2,4.2,6.2l-0.1,3.5h-9.2v-0.1c0-0.9-0.8-1.6-1.7-1.6h-0.9
					c-0.9,0-1.7,0.6-1.7,1.6v3.3c0,0.9,0.8,1.7,1.7,1.7h0.9c0.7,0,1.3-0.4,1.6-1.1h9.3l-0.6,27.1c0,0.4,0,3.6-3.1,3.6
					c-1.1,0-2.5-0.4-4.4-1.3c-7.6-3.8-3.3-8.1-2.8-8.3c-4.5-1.4-8.5-5.2-11.8-9.1c-3.2,7,2.5,14.4,2.8,15.5c0.4-0.5,1-0.6,1.5-0.6
					c0.3,0,0.6,0,0.8,0.1c7.7,11.8,17.8,10.4,20.6,13.6c0.3-0.3,0.6-0.6,1-0.8c0.1-0.1,0.3-0.2,0.4-0.2c0.1-0.1,0.3-0.1,0.4-0.2
					c0.1-0.1,0.3-0.1,0.5-0.2c0.6-0.3,1.4-0.5,2.2-0.8c0.3-0.1,0.6-0.2,0.9-0.3c0.6-0.2,1.3-0.4,2-0.7c0.1,0,0.2-0.1,0.4-0.1
					c0.4-0.1,0.8-0.3,1.2-0.5l0.6-0.3c0.5-0.2,1-0.5,1.5-0.7c0.4-0.2,0.8-0.4,1.1-0.6s0.7-0.4,1-0.6c0.1-0.1,0.3-0.2,0.4-0.3
					c0.2-0.1,0.3-0.2,0.5-0.4c0.1-0.1,0.3-0.2,0.4-0.3c2.1-1.6,4.2-3.7,6.1-6.6c0.1,0,0.2,0,0.4-0.1h0.4h0.3h0.2h0.1
					c0.3,0.1,0.7,0.2,0.9,0.5c0.1-0.3,0.5-1,1.1-2.1c0.1-0.1,0.1-0.3,0.2-0.4c0.3-0.5,0.6-1.1,0.9-1.8c0.2-0.4,0.4-0.8,0.5-1.3
					c0.1-0.3,0.2-0.5,0.3-0.8c0.1-0.2,0.1-0.4,0.2-0.6c0.1-0.4,0.2-0.8,0.3-1.2c0-0.2,0.1-0.4,0.1-0.6c0.1-0.3,0.1-0.6,0.1-0.9
					c0-0.4,0.1-0.8,0.1-1.3C224.9,44.7,224.9,44.4,224.8,44z M198.3,67.7c-1.2-0.8-2.8-1.4-4.7-2c-4.3-1.4-10.2-3.3-15.1-10.8
					l-0.2-0.4l-0.4-0.1c-0.3,0-0.6-0.1-1-0.1s-0.8,0.1-1.1,0.2c0-0.1-0.1-0.1-0.1-0.2c-1.3-2.2-4-7.1-2.7-12
					c3.3,3.8,6.5,6.3,9.6,7.6c-0.4,0.6-0.8,1.4-0.9,2.3c-0.2,1.7,0.5,4.2,5,6.5c1.9,1,3.5,1.4,4.9,1.4c2.5,0,4.1-1.7,4.1-4.5
					l0.7-34.4v-0.7l-0.6-0.3c-2.2-0.9-3.6-3-3.6-5.3c0-3.2,2.7-5.8,6.1-5.8v2.4c-1.9,0-3.5,1.6-3.5,3.5s1.6,3.5,3.5,3.5v3.9V67.7
					L198.3,67.7z M198.2,17.4c-1.4,0-2.5-1.1-2.5-2.5s1.1-2.5,2.5-2.5c0.2,0.1,0.3,0.1,0.5,0.1s0.3,0.1,0.5,0.1
					c0.3,0.1,0.6,0.3,0.8,0.5c0.5,0.5,0.7,1.1,0.7,1.8C200.7,16.3,199.6,17.4,198.2,17.4z"/>
				<path id="Shape_25_" fill="#AA7B11" d="M367.1,32c-0.4-0.6-0.9-1.1-1.5-1.5L360,0.6l-5.7,29.9c-0.6,0.4-1.1,1-1.5,1.5l-29.7,5.6
					l29.7,5.6c0.4,0.6,0.9,1.1,1.5,1.5l5.7,30l5.7-30c0.5-0.4,1-0.9,1.4-1.4l29.7-5.6L367.1,32z M360,5.4v23.1
					c-1.7,0-3.3,0.5-4.6,1.3L360,5.4z M327.8,37.6L352,33c-0.7,1.4-1.2,2.9-1.2,4.6H327.8z M359.9,69.9l-4.6-24.3
					c1.4,0.8,2.5,1,4.3,1.2h0.2h0.1V69.9z M366.2,42.6l-0.6,0.9c-1.5,1.5-3.5,2.4-5.8,2.4c-2.2,0-4.3-0.9-5.8-2.4l-0.4-0.9
					c0,0-2-2.8-1.7-4.9v-0.2c0.3-2.1,0.4-3.1,1.7-4.8l0.6-0.9c0.3-0.2,0.5-0.5,0.8-0.7c1.7-1.2,2.7-1.3,4.7-1.6h0.2
					c0.9,0,1.8,0.2,2.6,0.4c1.1,0.4,2.1,1.1,2.3,1.2c0.3,0.2,0.5,0.4,0.8,0.7l0.6,0.9c1.2,1.7,1.4,2.7,1.7,4.8v0.2
					C368.2,39.8,366.2,42.6,366.2,42.6z M367.8,33l24.2,4.6h-23C369,35.9,368.5,34.4,367.8,33z"/>
				<polygon id="Shape_34_" fill="#AA7B11" points="216.6,199 184.2,199 184.1,199 221.9,199.1 222.1,199.1 222.1,199 222,199 				
					"/>
				<rect id="Rectangle-path" x="177.4" y="198.3" fill="#AA7B11" width="6.7" height="0.7"/>
				<rect id="Rectangle-path_1_" x="184.2" y="198.3" fill="#AA7B11" width="32.4" height="0.7"/>
				<rect id="Rectangle-path_2_" x="184.1" y="198.3" fill="#AA7B11" width="0.1" height="0.7"/>
				<rect id="Rectangle-path_3_" x="222.1" y="198.3" fill="#AA7B11" width="7.5" height="0.7"/>
				<rect id="Rectangle-path_4_" x="216.6" y="198.3" fill="#AA7B11" width="5.4" height="0.7"/>
				<g id="Group_4_" transform="translate(164.000000, 130.000000)">
					<polygon id="Shape_35_" fill="#AA7B11" points="-1.9,69.1 -1.1,69.1 -1.1,45.7 -1.9,46.2 					"/>
					<path id="Shape_36_" fill="#AA7B11" d="M26.8,36L39,42.9h1.8l-3.5-2l7.8-4.3l2.9-1.7v-1.2h-1.2v1.2h-0.7V32l0,0h0.7l0,0v1.1H48
						V32l0,0h0.6l0,0h0.1v2.5l4-2.3l6.6,3.8l8.6,4.9l0.3,0.2V41v-1l-15.6-8.9l-1-26.2c0-0.1-2.7-2.2-2.7-2.2h-3.3c0,0,0,0-0.1,0.1
						l-1,32.8l-2.8,1.7v0.1l-2.6,1.5l-2.7,1.5l-16.3-9.3L-2,43.6v1.1l22.1-12.5L26.8,36z M48.6,28.5h-0.9v2.3H47v-2.3h-0.9v-0.6h2.5
						V28.5z M48.7,24v1.5v0.1c0,0.9-0.5,1.3-1.3,1.3s-1.3-0.4-1.3-1.3v-0.1v-1.6v-0.1h0.7v0.1v1.5c0,0.5,0.2,0.7,0.6,0.7
						c0.4,0,0.6-0.2,0.6-0.7V24v-0.3h0.7V24L48.7,24z M47.4,18.1L46.6,17v1.7h-0.1H46h-0.1v-2.9H46h0.6l0.8,1.2l0.8-1.2h0.7v2.9
						h-0.7v-1.9L47.4,18.1z M46.1,3.8L46.1,3.8h1.3l0,0c0.2,0,0.3,0,0.5,0.1c0.3,0.1,0.5,0.3,0.6,0.5c0,0.1,0.1,0.3,0.1,0.4
						c0,0.7-0.5,1-1.2,1H47v0.9h-0.1h-0.6h-0.1V3.8H46.1z M48.4,10.1v0.6h-2.1V7.8H47v2.3H48.4z M45.9,11.8h0.8l0.7,1.2l0.7-1.2h0.7
						l-1.1,1.8v1.1H47v-1.1L45.9,11.8L45.9,11.8z M46.8,19.9c0.1,0,0.2-0.1,0.3-0.1h0.3l0,0c0.2,0,0.4,0,0.6,0.1
						c0.6,0.2,1,0.8,1,1.4s-0.4,1.1-1,1.4c-0.2,0.1-0.4,0.1-0.6,0.1l0,0h-0.3c-0.1,0-0.2-0.1-0.3-0.1c-0.6-0.2-1-0.8-1-1.4
						C45.8,20.7,46.2,20.2,46.8,19.9z"/>
					<path id="Shape_37_" fill="#AA7B11" d="M47.8,4.7c0-0.1,0-0.2-0.1-0.2s-0.2-0.1-0.3-0.1h-0.5v0.7h0.4
						C47.6,5.1,47.8,4.9,47.8,4.7z"/>
					<circle id="Oval" fill="#AA7B11" cx="47.4" cy="21.3" r="0.9"/>
					<path id="Shape_38_" fill="#AA7B11" d="M67.9,42.7v0.1L52.6,34v11.7H40.8L20.1,34.1V51h0.1l0,0c4,0,7.2,3.3,7.2,7.2v1.4h-0.1
						h-0.7h-0.1v-1.4c0-2.6-1.6-4.9-3.9-5.9c-0.7-0.3-1.4-0.5-2.2-0.5h-0.3v-0.7h-0.5c-4,0-7.2,3.2-7.2,7.2v1.4h0.8v-1.4
						c0-3.5,2.9-6.4,6.4-6.4h0.5v16.3h32.5v0.1H58h0.1h7.5V69h2.6V42.9L67.9,42.7z"/>
					<path id="Shape_39_" fill="#AA7B11" d="M14.7,58.2v9.1h4.4V53.6C16.7,53.7,14.7,55.8,14.7,58.2z"/>
					<path id="Shape_40_" fill="#AA7B11" d="M45.5,1.7h3.3c0,0,2.1,1.6,2.6,2.1h0.2l-0.1-1.1c0-0.1-2.7-2.2-2.7-2.2h-3.3
						c0,0-2.7,2-2.7,2.2l-0.1,1.1h0.2C43.4,3.3,45.5,1.7,45.5,1.7z"/>
					<polygon id="Shape_41_" fill="#AA7B11" points="43.6,4.5 43.6,4.5 43.6,4.5 43.6,4.5 43,4.9 41.9,31.4 41.7,36.1 41.7,36.2 
						42.6,35.7 					"/>
				</g>
			</g>
		</g>
	</g>
</g>
<g id="Group_6_" transform="translate(387.217593, 0.254237)">
	<path id="Shape_45_" fill="none" stroke="#FFFFFF" stroke-miterlimit="10" d="M-324.967,86.304
		c-5.488,3.539-11.882,5.733-18.939,6.295c-30.785,2.453-58.578-26.62-57.469-61.718c0.69-21.415,12.471-37.333,28.044-43.537"/>
	<path id="Shape_44_" fill="none" stroke="#FFFFFF" stroke-miterlimit="10" d="M-400.195,4.464
		c7.659-6.371,17.216-11.21,28.041-13.491c32.47-6.93,64.421,10.821,71.33,39.607c5.174,21.48-5.085,43.126-24.157,55.548"/>
</g>
<g id="Group_2_" transform="translate(18.000000, 270.000000)">
	<path id="Shape_22_" fill="#AA7B11" d="M332.165,35.065c0.1,0.3,0.2,0.6,0.2,0.9v0.6h0.2l0,0h-0.1c0,0.4-0.1,0.9-0.1,1.5
		c2.8-0.9,5.6-1.4,8.4-1.4c2.6,0,5.5,0.5,8.2,1.4c0-0.6-0.1-1.1-0.1-1.5c-2.7-0.8-5.4-1.2-8.2-1.2c2.8-0.1,5.5,0.3,8.2,1.2h0.1
		c0.1-0.5,0.3-1,0.4-1.5c0.5,0.1,1,0.3,1.5,0.5l0.8-6l-1.9-0.6c-2.9-0.8-6-1.3-9-1.3s-6,0.4-9,1.3c-0.6,0.2-1.3,0.4-1.9,0.6l0.8,6
		C331.165,35.465,331.665,35.265,332.165,35.065z M332.665,36.465L332.665,36.465c2.6-0.8,5.2-1.1,7.9-1.1h0.1
		C337.865,35.365,335.265,35.765,332.665,36.465z"/>
	<path id="Shape_21_" fill="#AA7B11" d="M334.065,18.365v9c2.2-0.6,4.3-0.9,6.5-0.9s4.4,0.3,6.5,0.9v-9c-1-0.3-2-0.5-3.1-0.6h-3.3
		h-3.5C336.165,17.865,335.065,18.065,334.065,18.365z"/>
	<path id="Shape_28_" fill="#AA7B11" d="M340.665,37.865c-2.8,0-5.6,0.5-8.5,1.4c-0.1,1.2-0.3,2.7-0.4,4.3c3-0.8,5.9-1.2,8.9-1.2
		c2.9,0,6,0.4,8.9,1.2c-0.2-1.6-0.3-3.1-0.4-4.3C346.365,38.365,343.465,37.865,340.665,37.865z"/>
	<path id="Shape_29_" fill="#AA7B11" d="M356.065,74.265l-1.9-0.4c-4.4-0.8-9.1-1.3-13.6-1.3s-9,0.4-13.6,1.3
		c-0.6,0.1-1.2,0.2-1.9,0.4c-1.3,3.2-2.8,6-4.6,7.7l-0.1,0.1h0.1h18.3h3.7h18.3C358.965,80.265,357.365,77.565,356.065,74.265z"/>
	<path id="Shape_30_" fill="#AA7B11" d="M352.765,63.165c-0.7-2.9-1.2-5.8-1.7-8.7l-1.4-0.5c-2.9-0.8-6-1.3-9-1.3s-6,0.4-9,1.3
		c-0.5,0.2-0.9,0.3-1.4,0.4c-0.5,2.9-1,5.8-1.7,8.7c4-0.7,8.1-1,12.1-1C344.665,62.165,348.765,62.465,352.765,63.165z"/>
	<path id="Shape_31_" fill="#AA7B11" d="M348.865,17.565c0.1-0.5,0.3-4-3.9-5.2c-2.5-0.7-3.6-2.5-4-3.7h-0.3h-0.3
		c0,0.1,0,0.1-0.1,0.2v0.2c-0.4,1.1-1.3,2.4-3.5,3c-4.3,1.2-4.4,5-4.4,5.5c2.8-0.9,5.5-1.4,8.3-1.4
		C343.365,16.265,346.165,16.665,348.865,17.565z"/>
	<path id="Shape_32_" fill="#AA7B11" d="M340.465,17.465c-1.2,0-2.1,0.1-3.3,0.2h3.4h3.4
		C342.765,17.465,341.665,17.465,340.465,17.465z"/>
	<path id="Shape_33_" fill="#AA7B11" d="M334.765,6.065h2.8c0.2-1.3,1.1-1.5,1.1-1.5h1.2v0.5h0.3v-0.5h0.3v1.8v0.1v0.9h-0.2v-1
		c-0.6,0.1-1,0.5-1,1.1c0,0.5,0.3,0.9,0.8,1.1v-0.7h0.2v0.7h0.1h0.3h0.1h0.2v-0.1c0.4-0.2,0.6-0.6,0.6-1c0-0.5-0.3-0.9-0.8-1v-0.1
		v-1.8h0.3v0.5h0.3v-0.5h1.2v1.8c0.3-1.4,1.3-1.8,1.9-1.9c-0.6-0.1-1.6-0.5-1.9-1.9c0-0.1,0,1.8,0,1.8h-1.2v-0.5h-0.3v0.5h-0.3v-4.5
		h-0.3v4.5h-0.3v-0.5h-0.3v0.5h-1.2c0,0-0.9-0.1-1.1-1.5h-2.8c0,0-0.1,1.3,1.1,1.6C334.565,4.765,334.765,6.065,334.765,6.065z
		 M340.465,7.865v-0.3h0.1v0.3H340.465z"/>
</g>
<g id="Group_7_" transform="translate(387.217593, 0.254237)">
	<path id="Shape_47_" fill="none" stroke="#FFFFFF" stroke-miterlimit="10" d="M-50.788,361.185
		c-6.173-2.131-11.846-5.806-16.646-11.01c-20.939-22.7-15.232-62.514,13.06-83.314c17.271-12.681,37.066-13.243,51.562-4.825"/>
	<path id="Shape_46_" fill="none" stroke="#FFFFFF" stroke-miterlimit="10" d="M-32.866,251.477
		c9.741,2.09,19.448,6.62,27.926,13.726c25.501,21.261,31.267,57.354,12.891,80.564c-13.701,17.333-37.062,22.63-58.61,15.298"/>
</g>
<g>
	<path fill="none" stroke="#FFFFFF" stroke-linecap="round" stroke-miterlimit="10" d="M251.852,183.43
		c-2.446,6.655-10.036,10.895-12.423,17.904"/>
	<path fill="none" stroke="#FFFFFF" stroke-linecap="round" stroke-miterlimit="10" d="M237.602,185.988
		c5.056,5.155,7.589,11.582,13.885,14.25"/>
	<path fill="none" stroke="#FFFFFF" stroke-linecap="round" stroke-miterlimit="10" d="M244.91,183.065
		c-1.183,4.84-2.862,14.508,0,19"/>
	<path fill="none" stroke="#FFFFFF" stroke-linecap="round" stroke-miterlimit="10" d="M233.948,194.392
		c5.854,0,11.118-0.716,16.808-0.731"/>
</g>
</svg>
