<?xml version="1.0" encoding="utf-8"?>
<!-- Generator: Adobe Illustrator 17.0.0, SVG Export Plug-In . SVG Version: 6.00 Build 0)  -->
<!DOCTYPE svg PUBLIC "-//W3C//DTD SVG 1.1//EN" "http://www.w3.org/Graphics/SVG/1.1/DTD/svg11.dtd">
<svg version="1.1" id="Layer_1" xmlns="http://www.w3.org/2000/svg" xmlns:xlink="http://www.w3.org/1999/xlink" x="0px" y="0px"
	 width="597px" height="187px" viewBox="0 0 597 187" enable-background="new 0 0 597 187" xml:space="preserve">
<title>type-detail-02</title>
<desc>Created with Sketch.</desc>
<path id="Shape" fill="#FFFFFF" d="M73.1,101.35c-2.4,0-7.1,0-8.3,0.2c-0.3,0-0.3-0.5,0-0.6c1.1-0.3,2.6-0.2,3.2-0.5
	s0.9-0.8-0.9-6.1c-0.7-2-1.3-3.6-2.1-5.8h-4.1c-2.4,0-3.8,0-4.9,0.1c-2.1,5.7-3.7,9.7-3.7,10.6c0,0.8,0.6,1.2,3,1.6
	c0.4,0.1,0.3,0.6,0.1,0.6c-1.3-0.1-1.9-0.2-4.3-0.2s-3.4,0-4.6,0.2c-0.2,0-0.3-0.5,0-0.6c2.2-0.4,2.8-0.8,3.5-1.8
	c1.3-1.8,5.8-13,12-30.1c0.1-0.4,1.3-0.2,1.4,0c9.7,27.6,10.9,30.4,12.1,31.1c0.6,0.4,2.1,0.5,3.2,0.7c0.4,0.1,0.3,0.6,0,0.6
	C77.6,101.35,75.5,101.35,73.1,101.35z M60.8,77.15c0-0.2-0.2-0.1-0.3,0c-1.9,4.7-2.7,6.8-4.1,10.5h4.5h3.7
	C63.6,84.75,61.9,80.25,60.8,77.15z"/>
<path fill="#AA7B11" d="M131,69.05c4.2,0,6.4,2.8,6.4,5.3s-1.3,4.4-3.1,4.4c-1.2,0-1.9-1.1-1.9-2.3c0-1.2,1-2.6,2.5-3.2
	c-0.2-2-1.3-3.3-3.8-3.3c-9.2,0-17.4,19-17.4,30.8c0,6.6,2.4,9.6,6.1,9.6c4.4,0,9.1-4.3,12.8-14c0.1-0.3,0.8,0,0.7,0.4
	c-3.4,11.5-9.5,16.3-15,16.3c-4.9,0-8.6-3.8-8.6-11.5C109.5,88.35,120.2,69.05,131,69.05z"/>
<path fill="#AA7B11" d="M138.8,101.85c-1.8,0-2.2-1.8-1.2-4.1l4.6-10.2c1-2.1,0.9-3.1-0.1-3.1c-1.1,0-3.2,2-4.6,3.9
	c-0.1,0.2-0.4,0-0.3-0.1c0.8-2.6,4.6-6.2,7.1-6.2c2.4,0,2.4,2.8,0.4,7.1l-3.5,7.3c-1,2-0.6,2.5,0.3,2.5c1,0,4.4-3.1,4.8-3.1
	c0.1,0,0.2,0.1,0.1,0.2C146,96.85,141.3,101.85,138.8,101.85z M146.2,76.75c-1,0-1.4-0.7-1.4-1.5c0-1.2,1.1-2.7,2.4-2.7
	c0.9,0,1.4,0.8,1.4,1.5C148.6,75.15,147.5,76.75,146.2,76.75z"/>
<path fill="#AA7B11" d="M162,84.45c-1.5-0.1-1.6-0.2-4.4-0.2c-1.5,4.1-3.5,9.2-4.6,12.4c-0.7,1.9-0.2,2.6,0.4,2.6
	c1.6,0,5-4.3,5.4-4.3c0.1,0,0.2,0.1,0.1,0.2c-1.4,2.2-4.8,6.7-7.7,6.7c-1,0-2.8-1-1.6-4.1c1.6-4.1,3.5-9.4,4.9-13.5
	c-1.8,0-2.2,0.1-3.5,0.2c-0.5,0-0.5-1.3,0.1-1.3c1.3,0.1,2,0.1,3.8,0.1c0.5-1.5,1-2.9,1.3-3.9c0.1-0.2,0.4-0.2,0.6-0.2
	c0.8,0,2.8,0.3,2.6,0.7c-0.4,0.9-0.8,2.1-1.4,3.4c2.6,0,2.5,0,4.1-0.1C162.5,83.05,162.6,84.45,162,84.45z"/>
<path fill="#AA7B11" d="M158.7,113.15c-3.2,0-4.6-1.1-4.6-2.5c0-1,0.6-1.9,1.8-1.9c2.3,0,1.4,3.3,3.8,3.3c1.9,0,4.2-1.6,6.1-3.6
	c2.4-2.4,3.1-4.8,3.1-8.4c0-6.9-1.6-15.5-4-15.5c-1,0-2,3.4-2.5,3.8c-0.1,0.1-0.4,0.1-0.4,0c0.6-3.3,2.2-6.1,4.6-6.1
	c3.3,0,5.5,8.9,5.1,18.6c0,0.1,0.4,0.3,0.5,0.2c3.1-5.4,4.1-8.9,4.3-17.3c0-0.9,0.5-1.5,1.4-1.5c1.1,0,1.6,0.6,1.5,1.7
	C178.7,95.25,166.4,113.15,158.7,113.15z"/>
<path fill="#FFFFFF" d="M212.9,102.05c-7.8,0-11.2-5.1-11.2-11c0-4.9,4.2-10.3,11.6-10.3c7.1,0,11.3,4.6,11.3,10.8
	C224.6,97.05,220.1,102.05,212.9,102.05z M212.8,81.75c-3.4,0-6.1,2.6-6.1,9.4c0,5.3,2.4,9.9,6.9,9.9c3.8,0,6.1-3.1,6.1-9.6
	C219.6,85.05,216.3,81.75,212.8,81.75z"/>
<path fill="#FFFFFF" d="M251.4,87.05c-0.4-1.6-1.3-2.8-2.2-3.5c-1-0.8-2.1-1.2-3.4-1.2c-1.6,0-2.4,0.1-2.8,0.4
	c-0.3,0.2-0.5,3.6-0.5,7.5c0,0.5,0.1,0.7,0.3,0.8c0.2,0.1,1.2,0.2,2,0.2s1.5-0.2,2-0.6c0.7-0.5,1.2-1.3,1.3-2.3c0-0.3,0.6-0.2,0.6,0
	c-0.1,1.1-0.1,2-0.1,3.4c0,1.3,0,2.4,0.1,3.4c0,0.2-0.5,0.3-0.6,0c-0.3-1-0.6-1.6-1.1-2s-1.5-0.8-2.2-0.8c-0.9,0-2,0-2.1,0.2
	c-0.2,0.1-0.3,0.4-0.3,0.8c0,4.7,0.2,7.1,0.5,7.3c0.5,0.3,2,0.3,2.9,0.5c0.3,0.1,0.3,0.5,0,0.5c-1-0.1-3.7-0.1-5.8-0.1
	c-2,0-4,0-5.1,0.1c-0.2,0-0.3-0.4,0-0.5c0.9-0.2,1.9-0.2,2.4-0.5c0.3-0.2,0.5-2.8,0.5-9c0-6.1-0.2-9.1-0.5-9.3
	c-0.5-0.3-1.5-0.2-2.4-0.5c-0.3-0.1-0.3-0.5,0-0.5c1,0.1,6.3,0.1,10.3,0.1c4.5,0,5.5-0.1,6.3-0.1c0.2,0.1,0.2,4.1,0.4,5.6
	C252,87.15,251.5,87.15,251.4,87.05z"/>
<path fill="#FFFFFF" d="M301.2,101.55c-3.1-0.1-6.5-0.2-11.5-0.2s-9.7,0-12.2,0.2c-0.5,0-0.3-0.5,0-0.6c1.1-0.3,2.4-0.2,2.9-0.6
	c0.4-0.2,0.6-1.4,0.6-14.8s-0.3-14.6-0.6-14.8c-0.6-0.3-1.9-0.3-2.9-0.6c-0.4-0.1-0.5-0.6,0-0.6c2.5,0.1,6.4,0.2,11.3,0.2
	c5,0,7.6-0.1,10.7-0.2c0.4,0.2,0.6,6.5,0.8,7.6c0.1,0.4-0.6,0.4-0.7,0.1c-0.8-2.1-1.8-4.1-2.9-4.9c-1.2-0.8-2.8-1.5-6.4-1.5
	c-2.5,0-3.3,0.1-3.6,0.3c-0.3,0.2-0.5,1.1-0.5,11.9c0,0.8,0.1,1.3,0.3,1.3c0.3,0.1,0.6,0.2,3.1,0.2c2.2,0,3.1-0.3,3.8-0.8
	c0.9-0.8,1.6-2.2,2-3.8c0.1-0.4,0.6-0.2,0.6,0c-0.1,1.3-0.2,2.7-0.2,5.1s0.1,4,0.2,5.3c0,0.2-0.6,0.4-0.6,0
	c-0.3-1.5-1.2-3.2-1.9-3.8c-0.6-0.5-1.9-0.9-3.8-0.9c-2.5,0-2.8,0-3.1,0.2c-0.1,0.1-0.3,0.7-0.3,1.3c0,11.6,0.3,12.4,0.6,12.6
	c0.6,0.3,1.8,0.5,4.2,0.5c5.1,0,6.4-0.7,7.7-1.8c1-0.9,2.5-3.6,3.3-5.8c0-0.1,0.7-0.2,0.6,0.1
	C302.1,94.45,301.5,101.35,301.2,101.55z"/>
<path fill="#FFFFFF" d="M329.2,101.35c-2,0-4.6,0-5.6,0.1c-0.2,0-0.2-0.5,0-0.5c1.4-0.1,2.5-0.3,2.5-0.7c0-0.6-0.7-1.8-4-6.9
	c-0.1-0.1-0.4-0.5-0.4-0.5c-3.9,4.9-4.8,6.4-4.8,7.2c0,0.4,0.8,0.6,2.6,0.9c0.4,0,0.3,0.5,0,0.5c-1-0.1-2.2-0.1-4.1-0.1s-3,0-4,0.1
	c-0.2,0-0.3-0.4,0-0.5c1.1-0.3,2.3-0.5,2.9-1c0.8-0.7,3.5-3.8,6.6-8c-3-4.6-6.1-9-7.1-9.5c-0.6-0.4-1.3-0.5-2.3-0.7
	c-0.3-0.1-0.2-0.5,0-0.5c1,0.1,3.1,0.1,5.1,0.1s4.8,0,5.8-0.1c0.2,0,0.2,0.5,0,0.5c-1.4,0.1-2.5,0.3-2.5,0.7s0,0.6,4,6.5
	c3.5-4.5,3.9-5.4,3.9-6.1c0-0.4-0.3-0.8-2.1-1c-0.3,0-0.2-0.5,0-0.5c1,0.1,2.3,0.1,4.3,0.1c1.9,0,2.6,0,3.6-0.1c0.2,0,0.3,0.4,0,0.5
	c-1.2,0.3-2.1,0.4-3.1,1.1c-1.2,1-2.3,2.3-5.9,7.1c3.1,4.7,5.5,8,7.1,10c0.5,0.5,2,0.9,3,1.1c0.3,0.1,0.2,0.5,0,0.5
	C333.8,101.35,331.1,101.35,329.2,101.35z"/>
<path fill="#FFFFFF" d="M353.2,93.65c-1.1,0-2-0.1-2.6-0.1c0,4,0.2,6.9,0.5,7c0.5,0.3,1.5,0.3,2.4,0.5c0.3,0.1,0.3,0.5,0,0.5
	c-1-0.1-3.2-0.1-5.2-0.1s-4.1,0-5.1,0.1c-0.2,0-0.3-0.4,0-0.5c0.9-0.2,1.9-0.2,2.4-0.5c0.3-0.2,0.5-3,0.5-9.2c0-6.1-0.2-8.9-0.5-9.1
	c-0.5-0.3-1.5-0.2-2.4-0.5c-0.3-0.1-0.2-0.5,0-0.5c1,0.1,3.9,0.1,5.9,0.1s2.9-0.1,4.5-0.1c5.1,0,8.1,2.5,8.1,6
	C361.8,90.75,359.2,93.65,353.2,93.65z M352.4,82.25c-0.9,0-1.4,0.1-1.5,0.3c-0.1,0.1-0.3,4.4-0.3,9.4c0,0.3,0,0.5,0.2,0.5
	c0.5,0.1,0.8,0.1,1.9,0.1c2.7,0,4.5-2,4.5-4.9C357.2,84.55,355.5,82.25,352.4,82.25z"/>
<path fill="#FFFFFF" d="M388.6,101.55c-2.2-0.1-3.1-0.1-6.3-0.1c-3.4,0-9.6,0-10.6,0.1c-0.2,0-0.3-0.4,0-0.5
	c0.9-0.2,1.9-0.2,2.4-0.5c0.3-0.2,0.5-2.8,0.5-9c0-6.1-0.2-9.1-0.5-9.3c-0.5-0.3-1.5-0.2-2.4-0.5c-0.3-0.1-0.3-0.5,0-0.5
	c1,0.1,3.1,0.1,5.2,0.1c2,0,4.1,0,5.2-0.1c0.2,0,0.3,0.4,0,0.5c-0.9,0.2-2,0.2-2.5,0.5c-0.3,0.2-0.5,3.1-0.5,9.3
	c0,6.2,0.1,8.4,0.5,8.6c0.5,0.3,1.9,0.4,3,0.4c1.3,0,2.8-0.6,3.8-1.5c1-1,1.8-2.4,2.3-4.3c0-0.2,0.7-0.1,0.6,0.1
	C389,95.45,388.8,101.35,388.6,101.55z"/>
<path fill="#FFFFFF" d="M409.6,102.05c-7.8,0-11.2-5.1-11.2-11c0-4.9,4.2-10.3,11.6-10.3c7.1,0,11.3,4.6,11.3,10.8
	C421.3,97.05,416.8,102.05,409.6,102.05z M409.5,81.75c-3.4,0-6.1,2.6-6.1,9.4c0,5.3,2.4,9.9,6.9,9.9c3.8,0,6.1-3.1,6.1-9.6
	C416.3,85.05,413,81.75,409.5,81.75z"/>
<path fill="#FFFFFF" d="M450.6,101.35c-1.7,0-2.5,0.2-3.1,0.2c-0.5,0-1-0.6-2-2.3c-1.4-2.4-2.8-4.6-3.5-5.6c-0.5-0.8-0.9-1-1.6-1
	c-0.2,0-1,0-1.1,0.1s-0.2,0.3-0.2,0.5c0,4.7,0.2,7.2,0.5,7.3c0.5,0.3,1.3,0.3,2.2,0.5c0.3,0.1,0.2,0.5,0,0.5c-1.1-0.1-3-0.1-5.1-0.1
	s-4.1,0-5.1,0.1c-0.2,0-0.3-0.4,0-0.5c0.9-0.2,1.9-0.2,2.4-0.5c0.3-0.2,0.5-3.3,0.5-9.5c0-6.1-0.2-8.6-0.5-8.8
	c-0.5-0.3-1.5-0.2-2.4-0.5c-0.3-0.1-0.2-0.5,0-0.5c1,0.1,3.9,0.1,5.9,0.1s3.6-0.1,5.1-0.1c5.1,0,7.4,2.5,7.4,5.2
	c0,2.5-1.8,4.4-4.6,5.2c-0.1,0-0.2,0.1,0,0.3c0.5,0.6,1.9,2.5,2.9,4.1c1.4,2.2,2.7,3.9,3.6,4.3c0.5,0.3,1.3,0.5,1.7,0.5
	c0.2,0,0.2,0.5,0,0.5C453.6,101.35,450.6,101.35,450.6,101.35z M441.2,82.25c-0.6,0-1.5,0.1-1.6,0.2c-0.2,0.2-0.5,1.5-0.5,8.7
	c0,0.3,0,0.5,0.3,0.5c0.1,0.1,1.3,0.1,1.9,0.1c2.3,0,4.2-1.6,4.2-4.6C445.6,84.35,444,82.25,441.2,82.25z"/>
<path fill="#FFFFFF" d="M476.2,101.35c-2.1,0-4.3,0-5.4,0.1c-0.2,0-0.3-0.4,0-0.5c1-0.2,2.4-0.1,2.9-0.4c0.4-0.2,0.1-0.8-1.3-4.9
	c-0.1-0.3-0.2-0.5-0.3-0.8h-3h-4c-1.3,3.2-1.6,4.1-1.6,4.7c0,0.7,0,1.2,2,1.4c0.4,0,0.3,0.5,0.1,0.5c-1.1-0.1-2-0.1-2.9-0.1
	c-1.8,0-2.2,0-3.3,0.1c-0.2,0-0.3-0.5,0-0.5c1-0.1,1.5-0.7,2-1.4c1.2-1.5,2.5-4.6,8.2-18.8c0.1-0.3,1-0.3,1.1,0
	c6.4,15.5,7.7,18.9,8.6,19.5c0.5,0.3,1.2,0.5,2.1,0.7c0.4,0.1,0.3,0.5,0,0.5C480.6,101.35,477.1,101.35,476.2,101.35z M469,86.65
	c-0.1-0.1-0.3-0.1-0.3,0c-1.3,3-2.3,5.5-3,7.2h3.6h2.7C471,91.55,469.9,88.95,469,86.65z"/>
<path fill="#FFFFFF" d="M507.1,87.45c-0.6-2.8-2.1-4.9-5-4.9h-1.9c-0.2,2-0.2,4.8-0.2,8.8c0,6.2,0.2,9.1,0.5,9.3
	c0.5,0.3,1.8,0.3,2.7,0.5c0.3,0.1,0.2,0.5,0,0.5c-1.1-0.1-4-0.1-6-0.1s-3.9,0-4.9,0.1c-0.2,0-0.3-0.4,0-0.5c0.9-0.2,2.3-0.2,2.8-0.5
	c0.3-0.2,0.5-3.1,0.5-9.3c0-4,0-6.6-0.2-8.8h-1.3c-3.3,0-5.2,2.4-5.8,4.7c-0.1,0.3-0.6,0.2-0.6,0c0.1-1.7,0.6-5.1,0.6-6.2
	c0-0.3,0.5-0.3,0.6-0.2c0.7,0.5,3.3,0.8,9,0.8c6,0,8.3-0.2,9-0.8c0.1-0.1,0.6-0.1,0.6,0.2v6.4C507.7,87.65,507.2,87.65,507.1,87.45z
	"/>
<path fill="#FFFFFF" d="M523.2,101.35c-2,0-4.3,0-5.3,0.1c-0.2,0-0.3-0.4,0-0.5c0.9-0.2,2.1-0.3,2.6-0.6c0.3-0.2,0.5-2.8,0.5-8.9
	s-0.2-9-0.5-9.2c-0.5-0.3-1.8-0.3-2.6-0.5c-0.3-0.1-0.3-0.5,0-0.5c1,0.1,3.3,0.1,5.4,0.1c2,0,4.3,0,5.4-0.1c0.2,0,0.3,0.4,0,0.5
	c-0.9,0.2-2.2,0.3-2.7,0.5c-0.3,0.2-0.5,3-0.5,9.2s0.2,8.8,0.5,8.9c0.5,0.3,1.8,0.4,2.7,0.6c0.3,0.1,0.2,0.5,0,0.5
	C527.5,101.35,525.2,101.35,523.2,101.35z"/>
<path fill="#FFFFFF" d="M550.4,102.05c-7.8,0-11.2-5.1-11.2-11c0-4.9,4.2-10.3,11.6-10.3c7.1,0,11.3,4.6,11.3,10.8
	C562.1,97.05,557.6,102.05,550.4,102.05z M550.3,81.75c-3.4,0-6.1,2.6-6.1,9.4c0,5.3,2.4,9.9,6.9,9.9c3.8,0,6.1-3.1,6.1-9.6
	C557.1,85.05,553.8,81.75,550.3,81.75z"/>
<path fill="#FFFFFF" d="M596.4,81.75c-0.9,0.2-2,0.5-2.5,0.7c-0.7,0.4-1,0.9-1,8.1c0,4.6,0,8.6,0.3,11.3c0,0.3-0.9,0.3-1,0.1
	c-3.3-3.9-10.7-11.5-14.4-15.3c-0.1-0.1-0.3-0.1-0.3,0c-0.1,1.4-0.2,2.8-0.2,5.2c0,6.6,0.4,8.1,0.7,8.3c0.5,0.4,1.7,0.6,2.6,0.8
	c0.3,0.1,0.3,0.5,0.1,0.5c-1.1-0.1-2.4-0.1-4.4-0.1s-2.9,0-4,0.1c-0.2,0-0.3-0.4,0-0.5c0.9-0.2,1.9-0.3,2.5-0.7c1-0.6,1.3-2,1.3-8.9
	c0-4.2,0-6.8-0.8-8c-0.7-0.9-1.7-1.5-2.9-1.7c-0.3,0-0.3-0.5,0-0.5c0.8,0,1.8,0.1,3.3,0.1c1.4,0,2.9,0,3.2-0.1
	c0.1,0,0.4,0.1,0.4,0.2c2.6,3.5,9.9,11,12,13.4c0.1,0.1,0.4,0.1,0.4,0c0-0.8,0.1-2.9,0.1-4.8c0-6.7-0.4-7-1-7.6
	c-0.4-0.4-1.5-0.5-2.5-0.8c-0.3-0.1-0.2-0.5,0-0.5c1.1,0.1,2.5,0.1,4.5,0.1s2.8,0,3.8-0.1C596.6,81.25,596.7,81.65,596.4,81.75z"/>
<linearGradient id="SVGID_1_" gradientUnits="userSpaceOnUse" x1="0.1" y1="1.65" x2="152.828" y2="1.65" gradientTransform="matrix(1 0 0 -1 0 188)">
	<stop  offset="0" style="stop-color:#000000"/>
	<stop  offset="0.063" style="stop-color:#2C2004"/>
	<stop  offset="0.2003" style="stop-color:#86610D"/>
	<stop  offset="0.2624" style="stop-color:#AA7B11"/>
</linearGradient>
<polygon fill="url(#SVGID_1_)" points="152.178,185.975 0.1,185.975 0.1,186.725 152.828,186.725 "/>
<polygon fill="#AA7B11" points="153.175,186.725 153.175,143.05 152.425,143.05 152.425,185.975 152.178,185.975 152.828,186.725 
	"/>
<circle id="Oval" fill="#AA7B11" cx="152.8" cy="143.15" r="2.8"/>
<g id="Shape_4_">
	
		<linearGradient id="SVGID_2_" gradientUnits="userSpaceOnUse" x1="0.1" y1="187.35" x2="285.21" y2="187.35" gradientTransform="matrix(1 0 0 -1 0 188)">
		<stop  offset="0" style="stop-color:#000000"/>
		<stop  offset="0.063" style="stop-color:#2C2004"/>
		<stop  offset="0.2003" style="stop-color:#86610D"/>
		<stop  offset="0.2624" style="stop-color:#AA7B11"/>
	</linearGradient>
	<polygon fill="url(#SVGID_2_)" points="0.1,0.275 0.1,1.025 284.818,1.025 285.21,0.275 	"/>
	<polygon fill="#AA7B11" points="284.818,1.025 285.525,1.025 285.525,43.95 286.275,43.95 286.275,0.275 285.21,0.275 	"/>
</g>
<circle id="Oval_1_" fill="#AA7B11" cx="285.9" cy="43.85" r="2.8"/>
</svg>
