<?xml version="1.0" encoding="utf-8"?>
<!-- Generator: Adobe Illustrator 17.0.0, SVG Export Plug-In . SVG Version: 6.00 Build 0)  -->
<!DOCTYPE svg PUBLIC "-//W3C//DTD SVG 1.1//EN" "http://www.w3.org/Graphics/SVG/1.1/DTD/svg11.dtd">
<svg version="1.1" id="Layer_1" xmlns="http://www.w3.org/2000/svg" xmlns:xlink="http://www.w3.org/1999/xlink" x="0px" y="0px"
	 width="1928px" height="409.48px" viewBox="-309.13 0 1928 409.48" enable-background="new -309.13 0 1928 409.48"
	 xml:space="preserve">
<g>
	<rect x="202.003" y="347.344" fill="#AA7B11" width="32.819" height="3.063"/>
	<polygon fill="#AA7B11" points="201.565,347.344 177.935,347.344 36.157,347.344 35.719,347.344 35.719,347.344 6.4,347.344 
		6.4,350.407 35.719,350.407 201.128,350.844 202.003,350.844 202.003,350.407 201.565,350.407 	"/>
	<polygon fill="#AA7B11" points="-60.551,350.844 -57.051,350.844 -57.051,248.448 -60.551,250.636 	"/>
	<path fill="#AA7B11" d="M177.935,184.56L173.56,69.911c0-0.438-11.815-9.627-11.815-9.627h-14.44c0,0,0,0-0.438,0.438
		l-4.376,143.53l-12.253,7.439v0.438l-11.377,6.564l-11.815,6.563L35.719,184.56l-96.707,54.699v4.813l96.707-54.699l29.319,16.629
		l53.386,30.194h7.877l-15.316-8.752l34.132-18.816l12.69-7.439v-5.251h-5.251v5.251h-3.063v-12.69h3.063v4.813h5.251v-4.813h2.626
		h0.438v10.94l17.504-10.065l28.881,16.628l37.633,21.442l1.313,0.875v-0.438v-4.375L177.935,184.56z M149.93,65.098h5.251
		c0.875,0,1.313,0,2.188,0.438c1.313,0.438,2.188,1.313,2.626,2.188c0,0.438,0.438,1.313,0.438,1.75
		c0,3.063-2.188,4.376-5.251,4.376h-1.75v3.938h-0.438h-2.626h-0.438V65.098z M159.556,92.667v2.625h-9.189v-12.69h3.063v10.065
		H159.556z M152.118,100.105l3.063,5.251l3.063-5.251h3.063l-4.813,7.877v4.813h-3.063v-4.813l-4.814-7.877H152.118z
		 M148.615,117.609h0.438h2.626l3.501,5.251l3.501-5.251h3.063v12.69h-3.063v-8.314l-3.501,5.688l-3.501-4.813v7.439h-0.438h-2.188
		h-0.438L148.615,117.609L148.615,117.609z M160.432,173.183h-0.001h-3.938v10.065h-3.063v-10.065h-3.938v-2.626h10.94
		L160.432,173.183L160.432,173.183z M160.87,153.491v6.564v0.438c0,3.938-2.188,5.689-5.689,5.689s-5.689-1.75-5.689-5.689v-0.438
		v-7.001v-0.438h3.063v0.438v6.564c0,2.188,0.875,3.063,2.626,3.063c1.75,0,2.626-0.875,2.626-3.063v-6.127v-1.313h3.063V153.491z
		 M157.807,147.802c-0.875,0.438-1.75,0.438-2.626,0.438h-1.313c-0.438,0-0.875-0.438-1.313-0.438
		c-2.626-0.875-4.376-3.501-4.376-6.126s1.75-4.813,4.376-6.126c0.438,0,0.875-0.438,1.313-0.438h1.313c0.875,0,1.75,0,2.626,0.438
		c2.626,0.875,4.376,3.501,4.376,6.126C162.183,144.302,160.433,146.489,157.807,147.802z"/>
	<path fill="#AA7B11" d="M156.931,69.036c0-0.438,0-0.875-0.438-0.875s-0.875-0.438-1.313-0.438h-2.188v3.063h1.75
		C156.056,70.787,156.931,69.911,156.931,69.036z"/>
	<circle fill="#AA7B11" cx="155.18" cy="141.676" r="3.938"/>
	<path fill="#AA7B11" d="M244.886,235.758l-66.951-38.508v51.198h-51.636l-90.581-50.76v73.953h0.438
		c17.504,0,31.506,14.44,31.506,31.506v6.126h-0.437h-3.063h-0.438v-6.126c0-11.377-7.001-21.442-17.066-25.818
		c-3.063-1.313-6.126-2.188-9.627-2.188h-1.313v-3.063H33.53c-17.504,0-31.506,14.003-31.506,31.506v6.126h3.501v-6.126
		c0-15.316,12.69-28.006,28.006-28.006h2.188v71.327h142.216v0.438h23.63h0.438h32.819v3.063h11.377v-114.21l-1.313-0.876
		L244.886,235.758L244.886,235.758z"/>
	<path fill="#AA7B11" d="M12.089,303.147v39.821h19.254v-59.95C20.84,283.455,12.089,292.645,12.089,303.147z"/>
	<path fill="#AA7B11" d="M146.866,55.909h14.44c0,0,9.189,7.001,11.377,9.189h0.875l-0.438-4.813c0-0.438-11.815-9.627-11.815-9.627
		h-14.44c0,0-11.815,8.752-11.815,9.627l-0.438,4.813h0.875C137.677,62.91,146.866,55.909,146.866,55.909z"/>
	<polygon fill="#AA7B11" points="138.552,68.161 135.926,69.911 131.113,185.873 130.238,206.44 130.238,206.877 134.176,204.689 	
		"/>
</g>
<g id="Group_6_" transform="translate(18.000000, 270.000000)">
	<path id="Shape_57_" fill="#AA7B11" d="M1146.08-93.151c0.354,1.063,0.708,2.125,0.708,3.189v2.125h0.708l0,0h-0.355
		c0,1.417-0.354,3.189-0.354,5.314c9.919-3.189,19.839-4.96,29.758-4.96c9.211,0,19.484,1.772,29.05,4.96
		c0-2.125-0.354-3.897-0.354-5.314c-9.565-2.834-19.13-4.251-29.05-4.251c9.919-0.355,19.484,1.063,29.05,4.251h0.354
		c0.355-1.772,1.063-3.542,1.417-5.314c1.772,0.355,3.542,1.063,5.314,1.772l2.834-21.256l-6.731-2.125
		c-10.274-2.834-21.256-4.605-31.883-4.605c-10.628,0-21.256,1.417-31.883,4.605c-2.125,0.708-4.605,1.417-6.731,2.125l2.834,21.256
		C1142.537-91.734,1144.308-92.443,1146.08-93.151z M1147.851-88.191L1147.851-88.191c9.211-2.834,18.422-3.897,27.986-3.897h0.355
		C1166.273-92.088,1157.062-90.671,1147.851-88.191z"/>
	<path id="Shape_56_" fill="#AA7B11" d="M1152.811-152.312v31.883c7.794-2.125,15.233-3.189,23.027-3.189
		c7.794,0,15.588,1.063,23.027,3.189v-31.883c-3.542-1.063-7.086-1.772-10.983-2.125h-11.691h-12.399
		C1160.251-154.084,1156.354-153.376,1152.811-152.312z"/>
	<path id="Shape_55_" fill="#AA7B11" d="M1176.193-83.232c-9.919,0-19.839,1.772-30.112,4.96c-0.355,4.251-1.063,9.565-1.417,15.233
		c10.628-2.834,20.902-4.251,31.53-4.251c10.274,0,21.256,1.417,31.53,4.251c-0.708-5.669-1.063-10.983-1.417-15.233
		C1196.385-81.46,1186.112-83.232,1176.193-83.232z"/>
	<path id="Shape_54_" fill="#AA7B11" d="M1230.748,45.72l-6.731-1.417c-15.588-2.834-32.238-4.605-48.18-4.605
		c-15.942,0-31.883,1.417-48.18,4.605c-2.125,0.355-4.251,0.708-6.731,1.417c-4.605,11.336-9.919,21.256-16.296,27.278l-0.355,0.355
		h0.355h64.83h13.108h64.83C1241.023,66.975,1235.354,57.411,1230.748,45.72z"/>
	<path id="Shape_53_" fill="#AA7B11" d="M1219.057,6.397c-2.48-10.274-4.251-20.547-6.022-30.821l-4.96-1.772
		c-10.274-2.834-21.256-4.605-31.883-4.605c-10.627,0-21.256,1.417-31.883,4.605c-1.772,0.708-3.189,1.063-4.96,1.417
		c-1.772,10.274-3.542,20.547-6.022,30.821c14.17-2.48,28.695-3.542,42.866-3.542C1190.363,2.854,1204.887,3.917,1219.057,6.397z"/>
	<path id="Shape_52_" fill="#AA7B11" d="M1205.242-155.147c0.354-1.772,1.063-14.17-13.816-18.422
		c-8.856-2.48-12.753-8.856-14.17-13.108h-1.063h-1.063c0,0.355,0,0.355-0.355,0.708v0.708c-1.417,3.897-4.605,8.502-12.399,10.628
		c-15.233,4.251-15.588,17.713-15.588,19.484c9.919-3.189,19.484-4.96,29.404-4.96
		C1185.757-159.752,1195.676-158.335,1205.242-155.147z"/>
	<path id="Shape_51_" fill="#AA7B11" d="M1175.484-155.501c-4.251,0-7.439,0.355-11.691,0.708h12.045h12.045
		C1183.632-155.501,1179.735-155.501,1175.484-155.501z"/>
	<path id="Shape_50_" fill="#AA7B11" d="M1155.291-195.887h9.919c0.708-4.605,3.897-5.314,3.897-5.314h4.251v1.772h1.063v-1.772
		h1.063v6.377v0.355v3.189h-0.708v-3.542c-2.125,0.355-3.542,1.772-3.542,3.897c0,1.772,1.063,3.189,2.834,3.897v-2.48h0.708v2.48
		h0.355h1.063h0.354h0.708v-0.355c1.417-0.708,2.125-2.125,2.125-3.542c0-1.772-1.063-3.189-2.834-3.542v-0.355v-6.377h1.063v1.772
		h1.063v-1.772h4.251v6.377c1.063-4.96,4.605-6.377,6.731-6.731c-2.125-0.355-5.669-1.772-6.731-6.731c0-0.355,0,6.377,0,6.377
		h-4.251v-1.772h-1.063v1.772h-1.063v-15.942h-1.063v15.942h-1.063v-1.772h-1.063v1.772h-4.251c0,0-3.189-0.355-3.897-5.314h-9.919
		c0,0-0.354,4.605,3.897,5.669C1154.582-200.492,1155.291-195.887,1155.291-195.887z M1175.484-189.51v-1.063h0.354v1.063H1175.484z
		"/>
</g>
<g>
	<path fill="#AA7B11" d="M645.184,82.605c4.885-0.73,13.529-0.973,17.287-0.973h0.751h0.751c3.758,0,12.401,0.243,17.287,0.973
		c0,0,1.373,0.004,2.263,1.056c0.233-0.703,0.377-1.261,0.377-1.494c-1.128-1.503,0.376-8.267,0.376-8.267V62.249
		c0-5.261-3.007-5.261-3.007-5.261c-4.886-1.128-13.529-1.503-17.287-1.503h-0.751h-0.751c-3.758,0-12.402,0.376-17.287,1.503
		c0,0-3.007,0-3.007,5.261v11.65c0,0,1.503,6.765,0.376,8.267c0,0.231,0.143,0.784,0.373,1.48
		C643.825,82.61,645.184,82.605,645.184,82.605z"/>
	<path fill="#AA7B11" d="M726.366,166.721c-0.376,0,0.376-10.523-7.892-21.42c-8.267-11.274-24.803-16.911-24.803-16.911
		c-4.886-1.128-6.388-6.765-6.388-6.765s-0.751-19.917-3.007-23.299c-1.879-3.382-4.134-8.644-3.007-9.771
		c0.412-0.549,0.874-1.45,1.294-2.408c-0.679-0.322-1.304-0.326-1.304-0.326c-4.886-0.73-13.529-0.973-17.287-0.973h-0.751h-0.751
		c-3.758,0-12.402,0.243-17.287,0.973c0,0-0.615,0.003-1.289,0.318c0.421,0.961,0.884,1.865,1.297,2.415
		c1.128,1.503-1.128,6.388-3.007,9.771c-1.879,3.382-3.007,23.299-3.007,23.299s-1.128,5.637-6.388,6.765
		c0,0-16.911,5.637-25.178,16.911c-8.267,11.274-7.516,21.42-7.516,21.42l1.503,46.6l4.134,122.134c0,0-1.879,9.395,10.523,10.898
		c10.523,1.128,34.949,1.503,45.096,1.503h1.879h1.879c10.146,0,34.573-0.376,45.096-1.503
		c12.402-1.503,10.523-10.898,10.523-10.898l4.134-122.134L726.366,166.721z M651.958,91.562c0-0.376,0.376-0.376,0.751-0.376
		s0.751,0.376,0.751,0.751c-0.751,5.637-1.503,6.013-1.879,12.402l-0.751,13.153v6.388v1.128v1.128c0,1.503-1.503,3.007-3.007,3.007
		s-3.007-1.128-3.007-3.007c0-2.63-0.376,0.376-0.376-2.255C644.817,106.594,647.448,102.836,651.958,91.562z M650.83,250.524
		c-6.765,15.783-17.662,21.796-25.554,24.052l0.751,43.593l1.879,17.287l-11.65,0.376l-4.886-164.601
		c0-12.402,6.388-23.675,16.535-30.064c-3.382,5.637-5.637,12.025-5.637,18.79l0.751,21.42c18.79,3.758,25.931,19.166,25.931,19.166
		C661.728,225.721,650.83,250.524,650.83,250.524z"/>
</g>
</svg>
