<?xml version="1.0" encoding="utf-8"?>
<!-- Generator: Adobe Illustrator 17.0.0, SVG Export Plug-In . SVG Version: 6.00 Build 0)  -->
<!DOCTYPE svg PUBLIC "-//W3C//DTD SVG 1.1//EN" "http://www.w3.org/Graphics/SVG/1.1/DTD/svg11.dtd">
<svg version="1.1" id="Layer_1" xmlns="http://www.w3.org/2000/svg" xmlns:xlink="http://www.w3.org/1999/xlink" x="0px" y="0px"
	 width="700px" height="409.48px" viewBox="-155.76 0 700 409.48" enable-background="new -155.76 0 700 409.48"
	 xml:space="preserve">
<g id="Group_6_" transform="translate(18.000000, 270.000000)">
	<path id="Shape_57_" fill="#AA7B11" d="M144.979-90.611c0.379,1.136,0.757,2.273,0.757,3.41v2.273h0.757l0,0h-0.379
		c0,1.515-0.379,3.41-0.379,5.682c10.607-3.41,21.215-5.303,31.821-5.303c9.85,0,20.835,1.894,31.064,5.303
		c0-2.273-0.379-4.167-0.379-5.682c-10.229-3.031-20.456-4.546-31.064-4.546c10.607-0.379,20.835,1.136,31.064,4.546h0.379
		c0.379-1.894,1.136-3.788,1.515-5.682c1.894,0.379,3.788,1.136,5.682,1.894l3.031-22.73l-7.198-2.273
		c-10.986-3.031-22.73-4.924-34.094-4.924c-11.365,0-22.73,1.515-34.094,4.924c-2.273,0.757-4.924,1.515-7.198,2.273l3.031,22.73
		C141.19-89.095,143.084-89.854,144.979-90.611z M146.872-85.307L146.872-85.307c9.85-3.031,19.699-4.167,29.927-4.167h0.379
		C166.571-89.475,156.722-87.959,146.872-85.307z"/>
	<path id="Shape_56_" fill="#AA7B11" d="M152.177-153.874v34.094c8.334-2.273,16.289-3.41,24.623-3.41s16.668,1.136,24.623,3.41
		v-34.094c-3.788-1.136-7.577-1.894-11.744-2.273h-12.501H163.92C160.132-155.769,155.965-155.012,152.177-153.874z"/>
	<path id="Shape_55_" fill="#AA7B11" d="M177.179-80.004c-10.607,0-21.215,1.894-32.2,5.303c-0.379,4.546-1.136,10.229-1.515,16.289
		c11.365-3.031,22.351-4.546,33.716-4.546c10.986,0,22.73,1.515,33.716,4.546c-0.757-6.062-1.136-11.744-1.515-16.289
		C198.772-78.11,187.786-80.004,177.179-80.004z"/>
	<path id="Shape_54_" fill="#AA7B11" d="M235.517,57.889l-7.198-1.515c-16.668-3.031-34.473-4.924-51.52-4.924
		s-34.094,1.515-51.52,4.924c-2.273,0.379-4.546,0.757-7.198,1.515c-4.924,12.122-10.607,22.73-17.426,29.17l-0.379,0.379h0.379
		h69.325h14.017h69.325C246.504,80.618,240.443,70.39,235.517,57.889z"/>
	<path id="Shape_53_" fill="#AA7B11" d="M223.016,15.839c-2.652-10.986-4.546-21.972-6.44-32.958l-5.303-1.894
		c-10.986-3.031-22.73-4.924-34.094-4.924s-22.73,1.515-34.094,4.924c-1.894,0.757-3.41,1.136-5.303,1.515
		c-1.894,10.986-3.788,21.972-6.44,32.958c15.153-2.652,30.685-3.788,45.838-3.788C192.332,12.051,207.863,13.187,223.016,15.839z"
		/>
	<path id="Shape_52_" fill="#AA7B11" d="M208.242-156.905c0.379-1.894,1.136-15.153-14.774-19.699
		c-9.47-2.652-13.638-9.47-15.153-14.017h-1.136h-1.136c0,0.379,0,0.379-0.379,0.757v0.757c-1.515,4.167-4.924,9.091-13.258,11.365
		c-16.289,4.546-16.668,18.941-16.668,20.835c10.607-3.41,20.835-5.303,31.442-5.303
		C187.407-161.83,198.014-160.315,208.242-156.905z"/>
	<path id="Shape_51_" fill="#AA7B11" d="M176.421-157.284c-4.546,0-7.955,0.379-12.501,0.757l12.88,1.175l12.88-1.175
		C185.134-157.284,180.967-157.284,176.421-157.284z"/>
	<path id="Shape_50_" fill="#AA7B11" d="M154.828-200.471h10.607c0.757-4.924,4.167-5.682,4.167-5.682h4.546v1.894h1.136v-1.894
		h1.136v6.819v0.379v3.41h-0.757v-3.788c-2.273,0.379-3.788,1.894-3.788,4.167c0,1.894,1.136,3.41,3.031,4.167v-2.652h0.757v2.652
		h0.379h1.136h0.379h0.757v-0.379c1.515-0.757,2.273-2.273,2.273-3.788c0-1.894-1.136-3.41-3.031-3.788v-0.379v-6.819h1.136v1.894
		h1.136v-1.894h4.546v6.819c1.136-5.303,4.924-6.819,7.198-7.198c-2.273-0.379-6.062-1.894-7.198-7.198c0-0.379,0,6.819,0,6.819
		h-4.546v-1.894h-1.136v1.894h-1.136v-17.047h-1.136v17.047h-1.136v-1.894h-1.136v1.894h-4.546c0,0-3.41-0.379-4.167-5.682h-10.607
		c0,0-0.379,4.924,4.167,6.062C154.07-205.395,154.828-200.471,154.828-200.471z M176.421-193.652v-1.136h0.379v1.136H176.421z"/>
</g>
<ellipse fill="#AA7B11" cx="194.951" cy="75.187" rx="5.014" ry="4.811"/>
</svg>
