<?xml version="1.0" encoding="utf-8"?>
<!-- Generator: Adobe Illustrator 17.0.0, SVG Export Plug-In . SVG Version: 6.00 Build 0)  -->
<!DOCTYPE svg PUBLIC "-//W3C//DTD SVG 1.1//EN" "http://www.w3.org/Graphics/SVG/1.1/DTD/svg11.dtd">
<svg version="1.1" id="Layer_1" xmlns="http://www.w3.org/2000/svg" xmlns:xlink="http://www.w3.org/1999/xlink" x="0px" y="0px"
	 width="557px" height="185px" viewBox="0 0 557 185" enable-background="new 0 0 557 185" xml:space="preserve">
<title>type-detail-03</title>
<desc>Created with Sketch.</desc>
<path fill="#AA7B11" d="M250.1,46.965c19.1,0,32.5-12.9,42.1-35c0.1-0.2,0-1-0.4-1c-3.6,0.3-9.1,0.1-12.5,0.1
	c-5.5,0-8.1,2.1-8.1,4.8c0,2.4,5.2,3.1,5.2,6c0,1.8-1.2,3.1-2.9,3.1c-2.5,0-4.5-2.3-4.5-5.5c0-8.3,6.6-13.9,14.5-13.9
	c2.7,0,11.8,0.2,15-0.2c0.2,0,0.4,0.2,0.4,0.2c-0.2,7-0.1,24.3,0,37.1c0,0.2,0.4,0.2,0.6,0c7.9-12.1,17.3-26.6,23.7-37.1
	c0.1-0.2,0.3-0.2,0.6-0.2c1.2,0.1,1.7,0.2,4,0.2c2.5,0,4.8-0.1,6.2-0.2c0.3,0,0.6,0.8,0,0.8c-2.6,0.2-4.3,0.6-4.9,1
	c-2.1,1.4-2.7,2.7-4.9,21.2c-2.4,19.4-2.4,21.2-1.9,21.5c0.8,0.4,2.6,0.4,4.1,0.8c0.5,0.2,0.4,0.8,0,0.8c-1.7-0.1-4.5-0.2-8-0.2
	c-3.4,0-6.4,0.1-8.2,0.2c-0.3,0-0.6-0.7,0-0.8c1.6-0.4,3.5-0.3,4.4-0.8c1.5-0.8,2.1-2.3,4.6-21.7c0.8-5.9,1.5-11.5,2.1-15.4
	c0-0.2-0.3-0.4-0.4-0.2c-6,9.1-16.9,25.6-25.5,39.5c-0.2,0.4-1.3,0.3-1.3,0c0.1-14.4,0-30.8-0.4-38.6c0-0.2-0.2-0.2-0.3,0
	c-8.7,20.4-24.4,39.1-46.1,39.1c-13.5,0-22.5-7.5-22.5-17.7c0-7.4,5.4-13.1,11.5-13.1c4.9,0,9,3.8,9,8.3c0,2-1.4,4-3.6,4
	c-1.8,0-3.4-0.9-3.4-3.1c0-1.1,0.6-2.3,0.6-3.3c0-2.1-2-3.7-4.9-3.7c-4.1,0-6.8,4-6.8,8.3C227.2,40.265,236.6,46.965,250.1,46.965z"
	/>
<path fill="#AA7B11" d="M338,51.965c-4.2,0-7.2-2.9-7.2-9c0-7.6,6.1-19.7,15.1-19.7c4.2,0,7.1,2.9,7.1,9
	C353,39.965,347,51.965,338,51.965z M345.5,24.365c-4.7,0-10.8,14.8-10.8,21.9c0,3,1.3,4.6,3.6,4.6c4.7,0,10.9-14.8,10.9-21.9
	C349.2,25.965,347.9,24.365,345.5,24.365z"/>
<path fill="#AA7B11" d="M377.1,43.165c-1.4,4.1-1,4.6,0,4.6c1.4,0,6.5-5,7.1-5c0.2,0,0.2,0.1,0.2,0.4c-0.6,1.2-7.6,8.7-10.7,8.7
	c-2.5,0-2.5-2.6-0.4-8.3l1.6-4.4c0-0.1-0.6-0.5-0.7-0.2c-4.2,8.4-8.8,13-13.7,13c-2.9,0-5.2-2.4-5.2-5.8c0-8.1,10.8-22,19.3-22
	c1.9,0,3.3,1,3.6,2.7c2.3-5.6,4.3-10.6,7.1-18.9c1-2.9-0.2-4.4-4.8-4.4c-0.6,0-0.5-0.6-0.1-0.7c3.4-0.4,10.6-0.8,11.1-0.8
	s0.6,0.4,0.4,1.2C385.5,19.965,380,34.665,377.1,43.165z M375,25.465c-5.1,0-14.6,13.2-14.6,19.7c0,1.9,0.9,3.1,3.1,3.1
	c5.5,0,13.8-14.9,13.8-20.2C377.3,26.565,376.5,25.465,375,25.465z"/>
<path fill="#AA7B11" d="M392.8,37.165c-1.1,2.9-1.5,4.7-1.5,6.9c0,2.8,1.8,4.2,4.2,4.2c3.3,0,6.9-2.5,9-4.9c0.2-0.2,0.5,0,0.4,0.3
	c-2.3,4.1-7.3,8.1-11.5,8.1c-3.8,0-6.8-2.4-6.8-7.5c0-7.7,7.5-21.2,15.9-21.2c3.4,0,5.6,2.1,5.6,4.6
	C408.1,33.065,400.6,37.165,392.8,37.165z M402.1,24.465c-2.7,0-6.3,4.2-8.9,11.9c7.9-1,11.1-5.6,11.1-9.1
	C404.2,25.465,403.6,24.465,402.1,24.465z"/>
<path fill="#AA7B11" d="M431.3,30.165c-2.8,0-1.5-3.4-3.3-3.4s-4.9,3.9-13.7,24.2c-0.2,0.4-1.4,0.6-2.4,0.6c-1.1,0-2.1,0-1.9-0.6
	c4-10.9,6.7-19.3,6.7-21.7c0-1.4-0.3-1.9-1-1.9c-2,0-4.5,4.8-5.1,5.1c-0.2,0-0.5,0-0.4-0.2c1.6-3.6,5.1-9.3,8.4-9.3
	c1.8,0,2.4,2,2.4,4.1c0,2.5-1,6.3-3.4,13.3c-0.1,0.2,0.6,0.4,0.6,0.2c5-12.3,8.7-17.9,12.6-17.9c2.2,0,3.4,1.7,3.4,3.6
	C434.2,28.465,432.9,30.165,431.3,30.165z"/>
<path fill="#AA7B11" d="M450.2,51.965c-2.1,0-3.2-1.5-1.3-6l5.7-13.3c1.9-4.5,2-6,0.9-6c-2.9,0-9.4,8.9-17.7,24.4
	c-0.2,0.4-1.4,0.5-2.4,0.5c-1.2,0-1.9-0.1-1.8-0.5l7.3-19.8c1.2-3.5,1.2-4.4-0.2-4.4c-1.9,0-4.4,2.6-6.6,5.5c-0.1,0.2-0.4,0-0.4-0.1
	c1.4-3.7,6.7-8.9,10.2-8.9c1.1,0,2.2,1.2,2.2,2.7c0,3.1-2,9.1-6.5,18.7c0,0.2,0.7,0.3,0.7,0.2c8.1-15.4,14.2-21.9,17.9-21.9
	c3.6,0,3.5,3.8,0.7,10.2l-4.7,10.8c-1.2,2.9-0.8,3.6,0.2,3.6c1.4,0,6.5-4.5,7.1-4.5c0.1,0,0.2,0.1,0.2,0.3
	C461,44.665,453.8,51.965,450.2,51.965z"/>
<path fill="#FFFFFF" d="M483.9,51.165c-3.3,0-5.6,0-7.3,0.2c-0.3,0-0.4-0.6,0-0.7c1.5-0.3,2.5-0.2,3.3-0.7c0.5-0.2,0.8-1.2,0.8-22.7
	c0-18-0.2-20-0.8-20.4s-1.5-0.6-3.1-0.8c-0.5,0-0.4-0.5,0-0.6c3.4-0.9,7.7-2.9,10.3-4.5c0.4-0.2,0.7,0.2,0.6,0.4
	c-0.2,0.8-0.3,3.9-0.3,4.6l-0.3,28.5c0,11.1,0.2,15.1,0.8,15.4c0.7,0.4,1.7,0.4,3.2,0.7c0.5,0.1,0.4,0.8,0,0.7
	C489.2,51.165,486.9,51.165,483.9,51.165z"/>
<path fill="#FFFFFF" d="M500.7,51.165c-3.3,0-5.7,0-7.3,0.2c-0.3,0-0.4-0.6,0-0.7c1.5-0.3,2.5-0.2,3.3-0.7c0.5-0.2,0.8-1.1,0.8-12.3
	c0-7.7-0.1-9-0.8-9.6c-0.6-0.6-1-1-2.5-1.2c-0.5-0.1-0.4-0.5-0.1-0.6c3.1-0.6,7.3-2.9,9.4-4.3c0.4-0.2,0.7,0.2,0.7,0.4
	c0,0.9-0.1,3.2-0.1,5.5l-0.1,9.8c-0.1,11.2,0.2,12,0.8,12.3c0.7,0.4,1.7,0.4,3.2,0.7c0.5,0.1,0.4,0.8,0,0.7
	C506,51.165,503.7,51.165,500.7,51.165z M500.2,15.365c-2.3,0-4.1-1.5-4.1-3.7c0-2.7,1.9-4.4,4.4-4.4c2.2,0,3.9,1.7,3.9,4
	C504.4,13.665,502.9,15.365,500.2,15.365z"/>
<path fill="#FFFFFF" d="M531.8,9.565c-3.9,0-3.9-4.6-7.4-4.6c-2.1,0-3.2,1.1-3.6,4.4c-0.2,1.4-0.3,4.1-0.3,14.6c4.5,0,6.6-0.1,9-0.2
	c0.6,0,0.7,3.3,0,3.2c-2.5-0.1-4.4-0.2-8.9-0.2v7.7c0,11.1,0.2,15.1,0.8,15.4c0.7,0.4,3.4,0.4,4.8,0.7c0.5,0.1,0.4,0.8,0,0.7
	c-1.9-0.1-5.9-0.2-8.9-0.2c-3.3,0-5.7,0-7.3,0.2c-0.3,0-0.4-0.6,0-0.7c1.5-0.3,2.5-0.2,3.3-0.7c0.5-0.2,0.8-1.8,0.8-23.2
	c-2,0-3.4-0.1-4.9,0c-0.4,0-0.3-1.3,0.1-1.4c1.6-0.2,2.9-0.8,4.1-1.5c0.4-0.3,0.7-0.8,0.7-1.5c0-13.8,7.1-20.3,14.9-20.3
	c4.3,0,6.3,1.9,6.3,4.2C535.3,7.865,534.2,9.565,531.8,9.565z"/>
<path fill="#FFFFFF" d="M545.6,34.065h-6.9c-0.2,1.1-0.2,1.4-0.2,2.8c0,6.5,3,11.2,9.1,11.2c3,0,6.4-1.2,7.9-3.1
	c0.1-0.2,0.8,0,0.6,0.4c-1.6,3.7-6.2,6.5-10.6,6.5c-9.4,0-14.4-6.4-14.4-14.5c0-8.3,6.1-14.6,14.4-14.6c9.7,0,12.1,8.5,11.2,10.5
	C556.3,34.465,551.3,34.065,545.6,34.065z M545.2,24.365c-4.3,0-5.8,3.5-6.4,8.6c1.6,0,2.7,0,6.8-0.1h4.3
	C550,29.165,549.1,24.365,545.2,24.365z"/>
<path fill="#FFFFFF" d="M230.2,118.065c-2.1,0-6.3-0.7-7.9-1.6c-0.6-0.3-0.6-5-0.5-7.7c0-0.5,0.6-0.4,0.8-0.1
	c1.3,4.1,5.3,7.9,8.6,7.9c2.9,0,4.5-1.7,4.5-4.6c0-5.8-13.3-5.4-13.3-14.2c0-5.4,4.5-8.6,10-8.6c1.7,0,5.6,0.5,6.5,1.1
	c0.6,0.3,0.4,4.6,0.4,6.9c0,0.5-0.6,0.4-0.8,0.1c-1.3-3.4-4-6.5-7.1-6.5c-2.3,0-3.7,1.6-3.7,4.4c0,5.9,13.3,4.9,13.3,14
	C241.1,113.865,237.2,118.065,230.2,118.065z"/>
<path fill="#FFFFFF" d="M258.6,100.265h-6.9c-0.2,1.1-0.2,1.4-0.2,2.8c0,6.5,3,11.2,9.1,11.2c3,0,6.4-1.2,7.9-3.1
	c0.1-0.2,0.8,0,0.6,0.4c-1.6,3.7-6.2,6.5-10.6,6.5c-9.4,0-14.4-6.4-14.4-14.5c0-8.3,6.1-14.6,14.4-14.6c9.7,0,12.1,8.5,11.2,10.5
	C269.4,100.565,264.4,100.265,258.6,100.265z M258.2,90.465c-4.3,0-5.8,3.5-6.4,8.6c1.6,0,2.7,0,6.8-0.1h4.3
	C263.1,95.265,262.2,90.465,258.2,90.465z"/>
<path fill="#FFFFFF" d="M284.6,118.065c-5.4,0-7.1-3-7.1-8.2c0-5.3,0.2-12.1,0.3-17.2c-2,0-3.6-0.1-5.2,0c-0.3,0-0.2-0.6,0.1-0.8
	c3.7-2.3,8.5-6.7,11.4-9.8c0.2-0.2,0.7,0,0.6,0.3c0,0.8-0.3,4.8-0.4,7.2c0,0.2,0.1,0.4,0.6,0.4c4.5,0,5.4-0.1,7.7-0.2
	c0.6,0,0.4,3.3-0.4,3.2c-2.4-0.1-3.7-0.2-8.3-0.2c0,3.1-0.1,10.6-0.1,15.6c0,4.7,0.8,6.9,3.8,6.9c2,0,3.6-0.7,4.8-1.3
	c0.2-0.1,0.4,0.3,0.3,0.4C291.4,115.965,287.9,118.065,284.6,118.065z"/>
<path fill="#FFFFFF" d="M316,117.265c-3.3,0-5.7,0-7.3,0.2c-0.3,0-0.4-0.6,0-0.7c1.5-0.3,2.5-0.2,3.3-0.7c0.5-0.2,0.8-1.1,0.8-12.3
	c0-7.7-0.1-9-0.8-9.6c-0.6-0.6-1-1-2.5-1.2c-0.5-0.1-0.4-0.5-0.1-0.6c3.1-0.6,7.3-2.9,9.4-4.3c0.4-0.2,0.7,0.2,0.7,0.4
	c0,0.9-0.1,3.2-0.1,5.5l-0.1,9.8c-0.1,11.2,0.2,12,0.8,12.3c0.7,0.4,1.7,0.4,3.2,0.7c0.5,0.1,0.4,0.8,0,0.7
	C321.4,117.365,319,117.265,316,117.265z M315.6,81.465c-2.3,0-4.1-1.5-4.1-3.7c0-2.7,1.9-4.4,4.4-4.4c2.2,0,3.9,1.7,3.9,4
	C319.8,79.765,318.3,81.465,315.6,81.465z"/>
<path fill="#FFFFFF" d="M350.3,117.265c-3,0-5,0-6.9,0.2c-0.3,0-0.4-0.6,0-0.7c1.5-0.3,2-0.2,2.8-0.7c0.7-0.4,1.2-3.1,0.8-16.5
	c-0.1-4.2-1.7-6.2-5.3-6.2c-2.3,0-4.1,1-5.3,2.4c-0.5,0.6-0.7,0.9-0.7,1.7l0.1,6.3c0.2,11.2,0.1,12,0.6,12.3
	c0.8,0.4,1.7,0.4,3.2,0.7c0.5,0.1,0.4,0.8,0.1,0.7c-2.1-0.1-4.4-0.2-7.2-0.2c-3.3,0-5.8,0-7.3,0.2c-0.3,0-0.4-0.6,0-0.7
	c1.5-0.3,2.5-0.2,3.3-0.7c0.4-0.2,0.8-1.1,0.8-12.3c0-7.7-0.2-8.9-0.8-9.5c-0.6-0.5-1-0.8-2.6-0.9c-0.5,0-0.4-0.5,0-0.6
	c3.1-0.9,7-3.2,9-4.8c0.4-0.3,0.7,0,0.7,0.3c-0.1,0.8-0.4,4.2-0.4,6.7c0,0.2,0.5,0.3,0.6,0.2c2.7-3.3,6-6.1,9.6-6.1
	c5.6,0,8.3,4.1,8.3,9.5c0,15.2,0.2,17.3,0.8,17.5c0.8,0.4,1.7,0.4,3.3,0.7c0.5,0.1,0.4,0.8,0,0.7
	C356.1,117.365,353.6,117.265,350.3,117.265z"/>
<path fill="#FFFFFF" d="M393.4,118.065c-2,0-4.1-1.7-4.8-3.6c-0.1-0.2-0.4-0.2-0.6,0c-1.9,1.7-4.6,3.7-8.2,3.7c-4,0-6.7-2.8-6.7-6.1
	c0-5.6,6.2-7.1,15.1-9.9c0.6-0.2,0.6-0.8,0.7-1.7v-3.3c0-4.5-1.1-6.3-3.9-6.3c-2.7,0-3.6,1.2-3.7,4.1c-0.2,3-2.1,4.5-3.9,4.5
	c-1.9,0-3.1-1.5-3.1-2.8c0.1-3.3,7.4-7.6,12.5-7.6c5.2,0,8.7,2.7,8.7,8.1c0,5-0.6,10.5-0.6,15.4c0,1.7,0.4,2.9,1.8,2.9
	c0.9,0,1.4-0.4,1.9-1c0.2-0.2,0.6,0.1,0.4,0.3C398.4,116.265,396.2,118.065,393.4,118.065z M388.2,103.365c-6.6,1.7-8.2,3.6-8.2,7.9
	c0,2.6,1.5,3.9,3.4,3.9c3.1,0,4.9-2.3,5-3c0.2-2,0.4-6.9,0.4-8.5C388.8,103.465,388.6,103.265,388.2,103.365z"/>
<path fill="#FFFFFF" d="M423.5,118.065c-2.1,0-6.3-0.7-7.9-1.6c-0.6-0.3-0.6-5-0.5-7.7c0-0.5,0.6-0.4,0.8-0.1
	c1.3,4.1,5.3,7.9,8.6,7.9c2.9,0,4.5-1.7,4.5-4.6c0-5.8-13.3-5.4-13.3-14.2c0-5.4,4.5-8.6,10-8.6c1.7,0,5.6,0.5,6.5,1.1
	c0.6,0.3,0.4,4.6,0.4,6.9c0,0.5-0.6,0.4-0.8,0.1c-1.3-3.4-4-6.5-7.1-6.5c-2.3,0-3.7,1.6-3.7,4.4c0,5.9,13.3,4.9,13.3,14
	C434.4,113.865,430.5,118.065,423.5,118.065z"/>
<path fill="#FFFFFF" d="M449,118.065c-5.4,0-7.1-3-7.1-8.2c0-5.3,0.2-12.1,0.3-17.2c-2,0-3.6-0.1-5.2,0c-0.3,0-0.2-0.6,0.1-0.8
	c3.7-2.3,8.5-6.7,11.4-9.8c0.2-0.2,0.7,0,0.6,0.3c0,0.8-0.3,4.8-0.4,7.2c0,0.2,0.1,0.4,0.6,0.4c4.5,0,5.4-0.1,7.7-0.2
	c0.6,0,0.4,3.3-0.4,3.2c-2.4-0.1-3.7-0.2-8.3-0.2c0,3.1-0.1,10.6-0.1,15.6c0,4.7,0.8,6.9,3.8,6.9c2,0,3.6-0.7,4.8-1.3
	c0.2-0.1,0.4,0.3,0.3,0.4C455.8,115.965,452.3,118.065,449,118.065z"/>
<path fill="#FFFFFF" d="M479.7,118.065c-2,0-4.1-1.7-4.8-3.6c-0.1-0.2-0.4-0.2-0.6,0c-1.9,1.7-4.6,3.7-8.2,3.7c-4,0-6.7-2.8-6.7-6.1
	c0-5.6,6.2-7.1,15.1-9.9c0.6-0.2,0.6-0.8,0.7-1.7v-3.3c0-4.5-1.1-6.3-3.9-6.3c-2.7,0-3.6,1.2-3.7,4.1c-0.2,3-2.1,4.5-3.9,4.5
	c-1.9,0-3.1-1.5-3.1-2.8c0.1-3.3,7.4-7.6,12.5-7.6c5.2,0,8.7,2.7,8.7,8.1c0,5-0.6,10.5-0.6,15.4c0,1.7,0.4,2.9,1.8,2.9
	c0.9,0,1.4-0.4,1.9-1c0.2-0.2,0.6,0.1,0.4,0.3C484.7,116.265,482.5,118.065,479.7,118.065z M474.5,103.365c-6.6,1.7-8.2,3.6-8.2,7.9
	c0,2.6,1.5,3.9,3.4,3.9c3.1,0,4.9-2.3,5-3c0.2-2,0.4-6.9,0.4-8.5C475,103.465,474.8,103.265,474.5,103.365z"/>
<path fill="#FFFFFF" d="M498.1,118.065c-5.4,0-7.1-3-7.1-8.2c0-5.3,0.2-12.1,0.3-17.2c-2,0-3.6-0.1-5.2,0c-0.3,0-0.2-0.6,0.1-0.8
	c3.7-2.3,8.5-6.7,11.4-9.8c0.2-0.2,0.7,0,0.6,0.3c0,0.8-0.3,4.8-0.4,7.2c0,0.2,0.1,0.4,0.6,0.4c4.5,0,5.4-0.1,7.7-0.2
	c0.6,0,0.4,3.3-0.4,3.2c-2.4-0.1-3.7-0.2-8.3-0.2c0,3.1-0.1,10.6-0.1,15.6c0,4.7,0.8,6.9,3.8,6.9c2,0,3.6-0.7,4.8-1.3
	c0.2-0.1,0.4,0.3,0.3,0.4C504.8,115.965,501.3,118.065,498.1,118.065z"/>
<path fill="#FFFFFF" d="M523.5,100.265h-6.9c-0.2,1.1-0.2,1.4-0.2,2.8c0,6.5,3,11.2,9.1,11.2c3,0,6.4-1.2,7.9-3.1
	c0.1-0.2,0.8,0,0.6,0.4c-1.6,3.7-6.2,6.5-10.6,6.5c-9.4,0-14.4-6.4-14.4-14.5c0-8.3,6.1-14.6,14.4-14.6c9.7,0,12.1,8.5,11.2,10.5
	C534.2,100.565,529.2,100.265,523.5,100.265z M523.1,90.465c-4.3,0-5.8,3.5-6.4,8.6c1.6,0,2.7,0,6.8-0.1h4.3
	C527.9,95.265,527,90.465,523.1,90.465z"/>
<path fill="#FFFFFF" d="M236.2,184.165c-9.5,0-14.8-6.7-14.8-14.7c0-8.2,6.3-14.3,14.6-14.3c9.5,0,14.9,7,14.9,15.1
	C250.9,178.565,244.6,184.165,236.2,184.165z M235.6,156.565c-5,0-6.9,5.2-6.9,12.3c0,7.5,2,13.9,7.9,13.9c5.1,0,7-4.9,7-12
	C243.6,163.265,241.6,156.565,235.6,156.565z"/>
<path fill="#FFFFFF" d="M275.8,141.865c-3.9,0-3.9-4.6-7.4-4.6c-2.1,0-3.2,1.1-3.6,4.4c-0.2,1.4-0.3,4.1-0.3,14.6
	c4.5,0,6.6-0.1,9-0.2c0.6,0,0.7,3.3,0,3.2c-2.5-0.1-4.4-0.2-8.9-0.2v7.9c0,11.1,0.2,15.1,0.8,15.4c0.7,0.4,3.4,0.4,4.8,0.7
	c0.5,0.1,0.4,0.8,0,0.7c-1.9-0.1-5.9-0.2-8.9-0.2c-3.3,0-5.7,0-7.3,0.2c-0.3,0-0.4-0.6,0-0.7c1.5-0.3,2.5-0.2,3.3-0.7
	c0.5-0.2,0.8-1.8,0.8-23.2c-2,0-3.4-0.1-4.9,0c-0.4,0-0.3-1.3,0.1-1.4c1.6-0.2,2.9-0.8,4.1-1.5c0.4-0.3,0.7-0.8,0.7-1.5
	c0-13.8,7.1-20.3,14.9-20.3c4.3,0,6.3,1.9,6.3,4.2C279.3,140.065,278.1,141.865,275.8,141.865z"/>
<path fill="#FFFFFF" d="M313,183.365c-3,0-5,0-6.9,0.2c-0.3,0-0.4-0.6,0-0.7c1.5-0.3,2-0.2,2.8-0.7c0.7-0.4,1.2-3.1,0.8-16.5
	c-0.1-4.2-1.7-6.2-5.3-6.2c-2.3,0-4.1,1-5.3,2.4c-0.5,0.6-0.7,0.9-0.7,1.7l0.1,6.3c0.2,11.2,0.1,12,0.6,12.3
	c0.8,0.4,1.7,0.4,3.2,0.7c0.5,0.1,0.4,0.8,0.1,0.7c-2.1-0.1-4.4-0.2-7.2-0.2c-3.3,0-5.8,0-7.3,0.2c-0.3,0-0.4-0.6,0-0.7
	c1.5-0.3,2.5-0.2,3.3-0.7c0.4-0.2,0.8-1.1,0.8-12.3c0-7.7-0.2-8.9-0.8-9.5c-0.6-0.5-1-0.8-2.6-0.9c-0.5,0-0.4-0.5,0-0.6
	c3.1-0.9,7-3.2,9-4.8c0.4-0.3,0.7,0,0.7,0.3c-0.1,0.8-0.4,4.2-0.4,6.7c0,0.2,0.5,0.3,0.6,0.2c2.7-3.3,6-6.1,9.6-6.1
	c5.6,0,8.3,4.1,8.3,9.5c0,15.2,0.2,17.3,0.8,17.5c0.8,0.4,1.7,0.4,3.3,0.7c0.5,0.1,0.4,0.8,0,0.7
	C318.8,183.465,316.3,183.365,313,183.365z"/>
<path fill="#FFFFFF" d="M342.6,184.165c-2,0-4.1-1.7-4.8-3.6c-0.1-0.2-0.4-0.2-0.6,0c-1.9,1.7-4.6,3.7-8.2,3.7c-4,0-6.7-2.8-6.7-6.1
	c0-5.6,6.2-7.1,15.1-9.9c0.6-0.2,0.6-0.8,0.7-1.7v-3.3c0-4.5-1.1-6.3-3.9-6.3c-2.7,0-3.6,1.2-3.7,4.1c-0.2,3-2.1,4.5-3.9,4.5
	c-1.9,0-3.1-1.5-3.1-2.8c0.1-3.3,7.4-7.6,12.5-7.6c5.2,0,8.7,2.7,8.7,8.1c0,5-0.6,10.5-0.6,15.4c0,1.7,0.4,2.9,1.8,2.9
	c0.9,0,1.4-0.4,1.9-1c0.2-0.2,0.6,0.1,0.4,0.3C347.6,182.365,345.3,184.165,342.6,184.165z M337.4,169.465c-6.6,1.7-8.2,3.6-8.2,7.9
	c0,2.6,1.5,3.9,3.4,3.9c3.1,0,4.9-2.3,5-3c0.2-2,0.4-6.9,0.4-8.5C337.9,169.565,337.8,169.365,337.4,169.465z"/>
<path fill="#FFFFFF" d="M360.9,184.165c-5.4,0-7.1-3-7.1-8.2c0-5.3,0.2-12.1,0.3-17.2c-2,0-3.6-0.1-5.2,0c-0.3,0-0.2-0.6,0.1-0.8
	c3.7-2.3,8.5-6.7,11.4-9.8c0.2-0.2,0.7,0,0.6,0.3c0,0.8-0.3,4.8-0.4,7.2c0,0.2,0.1,0.4,0.6,0.4c4.5,0,5.4-0.1,7.7-0.2
	c0.6,0,0.4,3.3-0.4,3.2c-2.4-0.1-3.7-0.2-8.3-0.2c0,3.1-0.1,10.6-0.1,15.6c0,4.7,0.8,6.9,3.8,6.9c2,0,3.6-0.7,4.8-1.3
	c0.2-0.1,0.4,0.3,0.3,0.4C367.7,182.065,364.2,184.165,360.9,184.165z"/>
<path fill="#FFFFFF" d="M393.7,184.365c-0.2,0.1-0.4,0-0.6-0.3c-0.4-1.4-0.4-3.1-0.5-4.6c0-0.2-0.4-0.3-0.5-0.2
	c-2.3,3.1-4.8,5-8.5,5c-6.1,0-8.9-3.7-8.8-9c0.3-12.3,0.1-16.6-0.4-17.4c-0.2-0.3-1.7-1-3.2-1.2c-0.6,0-0.3-0.7,0-0.7
	c4.6-0.1,8.4-0.2,10.2-0.2c0.4,0,0.6,0.3,0.6,0.6c-0.1,1.5-0.2,3.7-0.4,5.2c-0.2,3.1-0.3,7-0.2,12.2c0,4.5,2.1,6.7,5.2,6.7
	c2.1,0,3.6-0.6,5.2-2.1c0.5-0.6,0.7-0.8,0.7-1.6l0.1-6.7c0.1-7.5-0.1-11.4-0.4-11.9c-0.6-0.8-1.6-1.2-3.3-1.7
	c-0.5-0.1-0.3-0.7,0-0.7c2.4,0.2,8.7,0.2,9.9,0c0.4,0,0.6,0.3,0.5,0.6c-0.2,1.4-0.2,3.9-0.2,5.3v8.8c-0.2,7.7,0,9.4,0.6,10.1
	c0.6,0.6,1,1,2.7,1c0.6,0,0.3,0.5,0,0.6C399.9,182.765,395.5,183.565,393.7,184.365z"/>
<path fill="#FFFFFF" d="M424.6,162.465c-2.3,0-2.7-2.5-4.8-2.5c-1.7,0-2.9,0.9-4,2.4c-0.4,0.6-0.6,0.9-0.6,1.7v5.8
	c0.2,11.2,0.1,12,0.6,12.3c0.8,0.4,3.3,0.4,4.8,0.7c0.4,0.1,0.3,0.8,0,0.7c-1.9-0.1-5.8-0.2-8.7-0.2c-3.3,0-5.7,0-7.3,0.2
	c-0.3,0-0.4-0.6,0-0.7c1.5-0.3,2.5-0.2,3.3-0.7c0.5-0.2,0.8-1.1,0.8-12.3c0-7.7-0.2-9.4-0.8-10c-0.6-0.6-1-1-2.6-1.2
	c-0.4-0.1-0.3-0.5,0-0.6c3.1-0.6,7.5-2.6,9.6-4c0.4-0.2,0.8,0.2,0.7,0.4c-0.2,0.8-0.6,4.3-0.6,6.7c0,0.2,0.5,0.3,0.5,0.2
	c1.7-3.2,5.4-6.6,8-6.6c2.8,0,4.4,1.5,4.4,3.9C427.9,160.565,426.6,162.465,424.6,162.465z"/>
<path fill="#FFFFFF" d="M443.7,166.365h-6.9c-0.2,1.1-0.2,1.4-0.2,2.8c0,6.5,3,11.2,9.1,11.2c3,0,6.4-1.2,7.9-3.1
	c0.1-0.2,0.8,0,0.6,0.4c-1.6,3.7-6.2,6.5-10.6,6.5c-9.4,0-14.4-6.4-14.4-14.5c0-8.3,6.1-14.6,14.4-14.6c9.7,0,12.1,8.5,11.2,10.5
	C454.5,166.665,449.5,166.365,443.7,166.365z M443.4,156.565c-4.3,0-5.8,3.5-6.4,8.6c1.6,0,2.7,0,6.8-0.1h4.3
	C448.2,161.465,447.3,156.565,443.4,156.565z"/>
<g id="Shape_4_">
	<polygon fill="#AA7B11" points="183.775,184.84 183.775,46.065 183.025,46.065 183.025,184.09 181.59,184.09 182.34,184.84 	"/>
	
		<linearGradient id="SVGID_1_" gradientUnits="userSpaceOnUse" x1="0.4" y1="1.535" x2="182.34" y2="1.535" gradientTransform="matrix(1 0 0 -1 0 186)">
		<stop  offset="0" style="stop-color:#000000"/>
		<stop  offset="0.063" style="stop-color:#2C2004"/>
		<stop  offset="0.2003" style="stop-color:#86610D"/>
		<stop  offset="0.2624" style="stop-color:#AA7B11"/>
	</linearGradient>
	<polygon fill="url(#SVGID_1_)" points="181.59,184.09 0.4,184.09 0.4,184.84 182.34,184.84 	"/>
</g>
<ellipse id="Oval" fill="#AA7B11" cx="183.4" cy="46.265" rx="2.8" ry="2.8"/>
</svg>
