<?xml version="1.0" encoding="utf-8"?>
<!-- Generator: Adobe Illustrator 17.0.0, SVG Export Plug-In . SVG Version: 6.00 Build 0)  -->
<!DOCTYPE svg PUBLIC "-//W3C//DTD SVG 1.1//EN" "http://www.w3.org/Graphics/SVG/1.1/DTD/svg11.dtd">
<svg version="1.1" id="Layer_1" xmlns="http://www.w3.org/2000/svg" xmlns:xlink="http://www.w3.org/1999/xlink" x="0px" y="0px"
	 width="556px" height="255.5px" viewBox="0 0 556 255.5" enable-background="new 0 0 556 255.5" xml:space="preserve">
<title>type-detail-01</title>
<desc>Created with Sketch.</desc>
<polygon id="Shape" fill="#FFFFFF" points="167.1,129.212 167.1,142.712 163.4,142.712 163.4,129.212 158.2,129.212 158.2,125.712 
	172.3,125.712 172.3,129.212 "/>
<polygon id="Shape_1_" fill="#FFFFFF" points="191.8,142.812 191.8,136.012 184.9,136.012 184.9,142.812 181.2,142.812 
	181.2,125.812 184.9,125.812 184.9,132.512 191.8,132.512 191.8,125.812 195.5,125.812 195.5,142.812 "/>
<polygon id="Shape_2_" fill="#FFFFFF" points="206.2,142.812 206.2,125.812 219,125.812 219,129.112 209.9,129.112 209.9,132.612 
	217.9,132.612 217.9,135.913 209.9,135.913 209.9,139.512 219.1,139.512 219.1,142.812 "/>
<path id="Shape_3_" fill="#FFFFFF" d="M250.4,142.812l-1.5-3.8h-7.2l-1.5,3.8h-3.8l7.3-17.1h3.5l7.3,17.1H250.4z M245.2,130.112
	l-2.2,5.5h4.5L245.2,130.112z"/>
<path id="Shape_4_" fill="#FFFFFF" d="M269.5,143.112c-4.6,0-7.4-2.6-7.4-7.6v-9.7h3.7v9.6c0,2.8,1.4,4.2,3.7,4.2s3.7-1.4,3.7-4.1
	v-9.7h3.7v9.6C277,140.512,274,143.112,269.5,143.112z"/>
<polygon id="Shape_5_" fill="#FFFFFF" points="294.6,129.212 294.6,142.712 290.9,142.712 290.9,129.212 285.7,129.212 
	285.7,125.712 299.8,125.712 299.8,129.212 "/>
<polygon id="Shape_6_" fill="#FFFFFF" points="319.4,142.812 319.4,136.012 312.5,136.012 312.5,142.812 308.8,142.812 
	308.8,125.812 312.5,125.812 312.5,132.512 319.4,132.512 319.4,125.812 323.1,125.812 323.1,142.812 "/>
<polygon id="Shape_7_" fill="#FFFFFF" points="333.7,142.812 333.7,125.812 346.5,125.812 346.5,129.112 337.4,129.112 
	337.4,132.612 345.4,132.612 345.4,135.913 337.4,135.913 337.4,139.512 346.6,139.512 346.6,142.812 "/>
<polygon id="Shape_8_" fill="#FFFFFF" points="368.4,142.812 360.2,132.012 360.2,142.812 356.5,142.812 356.5,125.812 360,125.812 
	368,136.312 368,125.812 371.7,125.812 371.7,142.812 "/>
<polygon id="Shape_9_" fill="#FFFFFF" points="389.5,129.212 389.5,142.712 385.8,142.712 385.8,129.212 380.6,129.212 
	380.6,125.712 394.7,125.712 394.7,129.212 "/>
<polygon id="Shape_10_" fill="#FFFFFF" points="403.6,142.812 403.6,125.812 407.3,125.812 407.3,142.812 "/>
<path id="Shape_11_" fill="#FFFFFF" d="M425.8,143.112c-5,0-8.7-3.9-8.7-8.7l0,0c0-4.8,3.7-8.8,8.9-8.8c3.2,0,5.1,1.1,6.7,2.6
	l-2.4,2.8c-1.3-1.2-2.6-1.9-4.3-1.9c-2.9,0-4.9,2.4-4.9,5.3l0,0c0,2.9,2,5.4,4.9,5.4c1.9,0,3.1-0.8,4.4-2l2.4,2.4
	C431,141.913,429.1,143.112,425.8,143.112z"/>
<path id="Shape_12_" fill="#FFFFFF" d="M165.5,178.113c-2.6,0-5.2-0.9-7.2-2.7l2.2-2.6c1.5,1.3,3.1,2,5.1,2c1.5,0,2.4-0.6,2.4-1.6
	l0,0c0-0.9-0.6-1.4-3.4-2.2c-3.4-0.9-5.6-1.8-5.6-5.2l0,0c0-3.1,2.5-5.1,5.9-5.1c2.5,0,4.6,0.8,6.3,2.2l-1.9,2.8
	c-1.5-1.1-3-1.7-4.4-1.7s-2.2,0.7-2.2,1.5l0,0c0,1.1,0.7,1.5,3.7,2.2c3.5,0.9,5.4,2.1,5.4,5.1l0,0
	C171.7,176.212,169.1,178.113,165.5,178.113z"/>
<path id="Shape_13_" fill="#FFFFFF" d="M187.9,172.812h-2.8v5.1h-3.7v-17h6.9c4.1,0,6.5,2.4,6.5,5.9l0,0
	C194.8,170.812,191.7,172.812,187.9,172.812z M191,166.812c0-1.7-1.2-2.6-3-2.6h-2.9v5.2h3C189.9,169.512,191,168.413,191,166.812
	L191,166.812z"/>
<polygon id="Shape_14_" fill="#FFFFFF" points="204,177.913 204,160.913 207.7,160.913 207.7,177.913 "/>
<path id="Shape_15_" fill="#FFFFFF" d="M228.7,177.913l-3.7-5.4h-2.9v5.4h-3.7v-17h7.8c4,0,6.4,2.1,6.4,5.6l0,0
	c0,2.8-1.5,4.4-3.7,5.3l4.1,6.1H228.7L228.7,177.913z M228.7,166.712c0-1.6-1.1-2.4-3-2.4H222v4.9h3.8
	C227.7,169.212,228.7,168.212,228.7,166.712L228.7,166.712L228.7,166.712z"/>
<polygon id="Shape_16_" fill="#FFFFFF" points="242.4,177.913 242.4,160.913 246.1,160.913 246.1,177.913 "/>
<polygon id="Shape_17_" fill="#FFFFFF" points="264.1,164.312 264.1,177.812 260.4,177.812 260.4,164.312 255.2,164.312 
	255.2,160.812 269.3,160.812 269.3,164.312 "/>
<path id="Shape_18_" fill="#AA7B11" d="M284.4,178.212c-1.5,0-2.6-1.1-2.6-3.3c0-2.8,2.2-7.1,5.5-7.1c1.5,0,2.6,1.1,2.6,3.3
	C289.8,173.812,287.6,178.212,284.4,178.212z M287.1,168.212c-1.7,0-3.9,5.4-3.9,8c0,1.1,0.5,1.7,1.3,1.7c1.7,0,3.9-5.4,3.9-8
	C288.4,168.812,287.9,168.212,287.1,168.212z"/>
<path id="Shape_19_" fill="#AA7B11" d="M299.1,168.413c0.2,0,0.2,0.7-0.1,0.7c-0.8,0-1.2,0-2.6-0.1c-0.2,0.7-0.3,1.5-0.5,2.3
	c-1.9,9-3.4,12.8-6.3,12.8c-1.6,0-2.2-0.7-2.2-1.4c0-0.6,0.4-1,1-1c1.1,0,1.1,1.7,2,1.7c1.1,0,1.7-2.8,3.3-9.9
	c0.4-1.7,0.7-3.2,1.1-4.6h-2.4c-0.1,0-0.1-0.7,0.1-0.7c0.7,0,1.4,0.1,2.5,0.1c1.5-5.3,3.1-8.4,5.9-8.4c1.3,0,1.9,0.7,1.9,1.5
	c0,0.6-0.4,1.1-0.9,1.1c-1,0-0.9-1.5-2-1.5c-1.7,0-2.2,2.4-3.2,7.4H299.1L299.1,168.413z"/>
<path id="Shape_20_" fill="#FFFFFF" d="M321.8,177.913h-6.6v-17h6.6c5.4,0,9,3.7,9,8.5l0,0
	C330.8,174.212,327.1,177.913,321.8,177.913z M326.9,169.413c0-3-2-5.1-5.1-5.1h-2.9v10.2h2.9
	C324.9,174.512,326.9,172.512,326.9,169.413L326.9,169.413z"/>
<polygon id="Shape_21_" fill="#FFFFFF" points="340.6,177.913 340.6,160.913 344.3,160.913 344.3,177.913 "/>
<path id="Shape_22_" fill="#FFFFFF" d="M361,178.113c-2.6,0-5.2-0.9-7.2-2.7l2.2-2.6c1.5,1.3,3.1,2,5.1,2c1.5,0,2.4-0.6,2.4-1.6l0,0
	c0-0.9-0.6-1.4-3.4-2.2c-3.4-0.9-5.6-1.8-5.6-5.2l0,0c0-3.1,2.5-5.1,5.9-5.1c2.5,0,4.6,0.8,6.3,2.2l-1.9,2.8c-1.5-1.1-3-1.7-4.4-1.7
	s-2.2,0.7-2.2,1.5l0,0c0,1.1,0.7,1.5,3.7,2.2c3.5,0.9,5.4,2.1,5.4,5.1l0,0C367.2,176.212,364.6,178.113,361,178.113z"/>
<path id="Shape_23_" fill="#FFFFFF" d="M384.5,178.212c-5,0-8.7-3.9-8.7-8.7v-0.1c0-4.8,3.7-8.8,8.9-8.8c3.2,0,5.1,1.1,6.7,2.6
	l-2.4,2.8c-1.3-1.2-2.6-1.9-4.3-1.9c-2.9,0-4.9,2.4-4.9,5.3l0,0c0,2.9,2,5.4,4.9,5.4c1.9,0,3.1-0.8,4.4-2l2.4,2.4
	C389.7,177.012,387.8,178.212,384.5,178.212z"/>
<path id="Shape_24_" fill="#FFFFFF" d="M408.4,178.212c-5.2,0-9-3.9-9-8.7v-0.1c0-4.8,3.8-8.8,9.1-8.8s9,3.9,9,8.7l0,0
	C417.4,174.212,413.6,178.212,408.4,178.212z M413.5,169.413c0-2.9-2.1-5.4-5.2-5.4c-3,0-5.1,2.4-5.1,5.3l0,0c0,2.9,2.1,5.4,5.2,5.4
	S413.5,172.312,413.5,169.413L413.5,169.413z"/>
<polygon id="Shape_25_" fill="#FFFFFF" points="434.8,178.012 431.5,178.012 424.6,160.913 428.7,160.913 433.1,172.913 
	437.5,160.913 441.5,160.913 "/>
<polygon id="Shape_26_" fill="#FFFFFF" points="450.5,177.913 450.5,160.913 463.3,160.913 463.3,164.212 454.2,164.212 
	454.2,167.712 462.2,167.712 462.2,171.012 454.2,171.012 454.2,174.613 463.4,174.613 463.4,177.913 "/>
<path id="Shape_27_" fill="#FFFFFF" d="M483.7,177.913l-3.7-5.4h-3v5.4h-3.7v-17h7.8c4,0,6.4,2.1,6.4,5.6l0,0c0,2.8-1.5,4.4-3.7,5.3
	l4.1,6.1H483.7L483.7,177.913z M483.8,166.712c0-1.6-1.1-2.4-3-2.4h-3.7v4.9h3.8C482.7,169.212,483.8,168.212,483.8,166.712
	L483.8,166.712z"/>
<polygon id="Shape_28_" fill="#FFFFFF" points="505.1,171.113 505.1,177.913 501.4,177.913 501.4,171.212 494.9,160.913 
	499.3,160.913 503.4,167.712 507.5,160.913 511.8,160.913 "/>
<g id="Shape_29_">
	<path fill="#AA7B11" d="M345.312,160.812h-3.5v-1.2h3.5V160.812z M339.512,160.812h-3.5v-1.2h3.5V160.812z M333.712,160.812h-3.5
		v-1.2h3.5V160.812z M327.912,160.812h-3.5v-1.2h3.5V160.812z M322.112,160.812h-3.5v-1.2h3.5V160.812z M316.312,160.812h-3.4v-1.2
		h3.5v1.2H316.312z M310.512,160.812h-3.5v-1.2h3.5V160.812z M304.812,160.812h-3.5v-1.2h3.5V160.812z M299.012,160.812h-3.5v-1.2
		h3.5V160.812z M293.212,160.812h-3.5v-1.2h3.5V160.812z M287.412,160.812h-3.5v-1.2h3.5V160.812L287.412,160.812z M281.712,160.812
		h-3.5v-1.2h3.5V160.812z M275.912,160.812h-3.5v-1.2h3.5V160.812z M270.112,160.812h-3.5v-1.2h3.5V160.812z M264.312,160.812h-3.5
		v-1.2h3.5V160.812z M258.512,160.812h-3.5v-1.2h3.5V160.812z M252.712,160.812h-3.5v-1.2h3.5V160.812z"/>
</g>
<path id="Shape_30_" fill="#AA7B11" d="M168.5,5.712c-2.6,0-3.5,0.9-3.5,2.3c0,0.4,0.3,0.8,0.4,0.9c0.1,0.1,0.2,0.1,0.2,0
	c0.3-0.4,0.7-0.7,1.2-0.7c0.8,0,1.2,0.5,1.2,1.2c0,0.6-0.5,1.2-1.4,1.2c-1.1,0-2.2-0.7-2.2-2.7c0-2.3,2.1-4,5.5-4s6.5,1.2,9.3,1.6
	c0.3,0,0.4,0,0.3-0.2c-0.1-0.2-0.2-0.5-0.2-0.8c0-0.7,0.4-1.5,1.2-1.5c0.7,0,1,0.6,1,1.1c0,1.1-0.9,2.3-3.9,2.3
	c-1.2,0-2.4-0.2-3.8-0.3c-0.4,1.2-1,3.3-2,6.5c-2,7-2,7.7-1.9,7.8c0.2,0.2,1,0.2,1.5,0.3c0.2,0,0.1,0.3,0,0.3
	c-0.6,0-1.7-0.1-2.9-0.1c-1.3,0-2.4,0-3,0.1c-0.1,0-0.1-0.3,0.1-0.3c0.6-0.2,1.4-0.1,1.8-0.3c0.2-0.1,0.6-0.7,2.6-7.8
	c1-3.4,1.6-5.6,1.8-6.7C171,5.812,169.7,5.712,168.5,5.712z"/>
<path id="Shape_31_" fill="#AA7B11" d="M183.7,21.212c-0.6,0-1.4-0.4-1.4-1c0-0.4,0.4-0.8,0.8-0.8c0.9,0,0.9,1.3,1.4,1.3
	c1.3,0,3-4.9,3-7.2c0-0.8-0.3-1.3-0.9-1.3c-1.9,0-4.8,5-6.2,8.8c-0.1,0.2-0.3,0.2-0.8,0.2s-0.8-0.1-0.8-0.2
	c2.2-5.8,4.2-11.1,5.7-15.5c0.4-1.1-0.1-1.6-1.8-1.6c-0.2,0-0.2-0.3,0-0.3c1.3-0.2,3.8-0.3,4-0.3s0.3,0.2,0.2,0.4
	c-1.9,4.8-4,10.2-4.6,12c-0.1,0.2,0.2,0.2,0.2,0.1c2-3.9,3.5-4.8,4.8-4.8c1,0,1.9,0.7,1.9,2.5
	C189.1,16.012,186.5,21.212,183.7,21.212z"/>
<path id="Shape_32_" fill="#AA7B11" d="M193.6,15.812c-0.4,1.1-0.6,1.7-0.6,2.5c0,1,0.7,1.5,1.5,1.5c1.2,0,2.5-0.9,3.3-1.8
	c0.1-0.1,0.2,0,0.2,0.1c-0.8,1.5-2.6,3-4.2,3c-1.4,0-2.4-0.9-2.4-2.8c0-2.8,2.8-7.7,5.7-7.7c1.2,0,2,0.8,2,1.7
	C199.1,14.312,196.4,15.812,193.6,15.812z M196.9,11.212c-1,0-2.3,1.5-3.2,4.3c2.9-0.4,4-2,4-3.3
	C197.7,11.612,197.4,11.212,196.9,11.212z"/>
<path id="Shape_33_" fill="#FFFFFF" d="M224.1,20.913l-1.5-3.8h-7.2l-1.5,3.8H210l7.3-17.1h3.5l7.3,17.1H224.1z M219,8.312l-2.2,5.5
	h4.5L219,8.312z"/>
<path id="Shape_34_" fill="#FFFFFF" d="M243.3,21.212c-4.6,0-7.4-2.6-7.4-7.6v-9.7h3.7v9.6c0,2.8,1.4,4.2,3.7,4.2s3.7-1.4,3.7-4.1
	v-9.7h3.7v9.6C250.7,18.712,247.8,21.212,243.3,21.212z"/>
<polygon id="Shape_35_" fill="#FFFFFF" points="268.4,7.413 268.4,20.913 264.7,20.913 264.7,7.413 259.5,7.413 259.5,3.913 
	273.6,3.913 273.6,7.413 "/>
<polygon id="Shape_36_" fill="#FFFFFF" points="293.1,20.913 293.1,14.112 286.2,14.112 286.2,20.913 282.5,20.913 282.5,3.913 
	286.2,3.913 286.2,10.612 293.1,10.612 293.1,3.913 296.8,3.913 296.8,20.913 "/>
<polygon id="Shape_37_" fill="#FFFFFF" points="307.4,20.913 307.4,3.913 320.2,3.913 320.2,7.212 311.1,7.212 311.1,10.712 
	319.1,10.712 319.1,14.112 311.1,14.112 311.1,17.712 320.3,17.712 320.3,21.012 "/>
<polygon id="Shape_38_" fill="#FFFFFF" points="342.2,20.913 334,10.112 334,20.913 330.3,20.913 330.3,3.913 333.8,3.913 
	341.8,14.413 341.8,3.913 345.5,3.913 345.5,20.913 "/>
<polygon id="Shape_39_" fill="#FFFFFF" points="363.2,7.413 363.2,20.913 359.5,20.913 359.5,7.413 354.3,7.413 354.3,3.913 
	368.4,3.913 368.4,7.413 "/>
<polygon id="Shape_40_" fill="#FFFFFF" points="377.4,20.913 377.4,3.913 381.1,3.913 381.1,20.913 "/>
<path id="Shape_41_" fill="#FFFFFF" d="M399.6,21.212c-5,0-8.7-3.9-8.7-8.7l0,0c0-4.8,3.7-8.8,8.9-8.8c3.2,0,5.1,1.1,6.7,2.6
	l-2.4,2.8c-1.3-1.2-2.6-1.9-4.3-1.9c-2.9,0-4.9,2.4-4.9,5.3l0,0c0,2.9,2,5.4,4.9,5.4c1.9,0,3.1-0.8,4.4-2l2.4,2.4
	C404.8,20.112,402.8,21.212,399.6,21.212z"/>
<path id="Shape_42_" fill="#FFFFFF" d="M169.9,56.312c-2.6,0-5.2-0.9-7.2-2.7l2.2-2.6c1.5,1.3,3.1,2,5.1,2c1.5,0,2.4-0.6,2.4-1.6
	l0,0c0-0.9-0.6-1.4-3.4-2.2c-3.4-0.9-5.6-1.8-5.6-5.2l0,0c0-3.1,2.5-5.1,5.9-5.1c2.5,0,4.6,0.8,6.3,2.2l-1.9,2.8
	c-1.5-1.1-3-1.7-4.4-1.7s-2.2,0.7-2.2,1.5l0,0c0,1.1,0.7,1.5,3.7,2.2c3.5,0.9,5.4,2.1,5.4,5.1l0,0
	C176.1,54.413,173.5,56.312,169.9,56.312z"/>
<path id="Shape_43_" fill="#FFFFFF" d="M192.3,50.913h-2.8v5.2h-3.7v-17h6.9c4.1,0,6.5,2.4,6.5,5.9l0,0
	C199.2,48.913,196.2,50.913,192.3,50.913z M195.4,45.012c0-1.7-1.2-2.6-3-2.6h-2.9v5.2h3C194.3,47.612,195.4,46.512,195.4,45.012
	L195.4,45.012z"/>
<polygon id="Shape_44_" fill="#FFFFFF" points="208.4,56.012 208.4,39.012 212.1,39.012 212.1,56.012 "/>
<path id="Shape_45_" fill="#FFFFFF" d="M233.1,56.012l-3.7-5.4h-3v5.4h-3.7v-17h7.8c4,0,6.4,2.1,6.4,5.6l0,0c0,2.8-1.5,4.4-3.7,5.3
	l4.2,6.1C237.4,56.012,233.1,56.012,233.1,56.012z M233.2,44.812c0-1.6-1.1-2.4-3-2.4h-3.7v4.9h3.8
	C232.1,47.312,233.2,46.312,233.2,44.812L233.2,44.812L233.2,44.812z"/>
<polygon id="Shape_46_" fill="#FFFFFF" points="246.8,56.012 246.8,39.012 250.5,39.012 250.5,56.012 "/>
<polygon id="Shape_47_" fill="#FFFFFF" points="268.5,42.512 268.5,56.012 264.8,56.012 264.8,42.512 259.6,42.512 259.6,39.012 
	273.7,39.012 273.7,42.512 "/>
<path id="Shape_48_" fill="#FFFFFF" d="M304.7,56.312c-5.2,0-9-3.9-9-8.7l0,0c0-4.8,3.8-8.8,9.1-8.8c5.3,0,9,3.9,9,8.7l0,0
	C313.7,52.413,309.9,56.312,304.7,56.312z M309.8,47.512c0-2.9-2.1-5.4-5.2-5.4s-5.1,2.4-5.1,5.3l0,0c0,2.9,2.1,5.4,5.2,5.4
	C307.7,52.812,309.8,50.512,309.8,47.512L309.8,47.512z"/>
<polygon id="Shape_49_" fill="#FFFFFF" points="327.1,42.413 327.1,46.112 335.2,46.112 335.2,49.512 327.1,49.512 327.1,56.112 
	323.4,56.112 323.4,39.112 336.3,39.112 336.3,42.512 "/>
<path id="Shape_50_" fill="#FFFFFF" d="M365.8,56.012h-6.6v-17h6.6c5.4,0,9,3.7,9,8.5l0,0C374.9,52.312,371.2,56.012,365.8,56.012z
	 M371,47.512c0-3-2-5.1-5.1-5.1H363v10.2h2.9C368.9,52.612,371,50.612,371,47.512L371,47.512z"/>
<polygon id="Shape_51_" fill="#FFFFFF" points="384.7,56.012 384.7,39.012 388.4,39.012 388.4,56.012 "/>
<path id="Shape_52_" fill="#FFFFFF" d="M405,56.312c-2.6,0-5.2-0.9-7.2-2.7l2.2-2.6c1.5,1.3,3.1,2,5.1,2c1.5,0,2.4-0.6,2.4-1.6l0,0
	c0-0.9-0.6-1.4-3.4-2.2c-3.4-0.9-5.6-1.8-5.6-5.2l0,0c0-3.1,2.5-5.1,5.9-5.1c2.5,0,4.6,0.8,6.3,2.2l-1.9,2.8c-1.5-1.1-3-1.7-4.4-1.7
	s-2.2,0.7-2.2,1.5l0,0c0,1.1,0.7,1.5,3.7,2.2c3.5,0.9,5.4,2.1,5.4,5.1l0,0C411.3,54.413,408.7,56.312,405,56.312z"/>
<path id="Shape_53_" fill="#FFFFFF" d="M428.6,56.312c-5,0-8.7-3.9-8.7-8.7l0,0c0-4.8,3.7-8.8,8.9-8.8c3.2,0,5.1,1.1,6.7,2.6
	l-2.4,2.8c-1.3-1.2-2.6-1.9-4.3-1.9c-2.9,0-4.9,2.4-4.9,5.3l0,0c0,2.9,2,5.4,4.9,5.4c1.9,0,3.1-0.8,4.4-2l2.4,2.4
	C433.8,55.212,431.8,56.312,428.6,56.312z"/>
<path id="Shape_54_" fill="#FFFFFF" d="M452.4,56.312c-5.2,0-9-3.9-9-8.7l0,0c0-4.8,3.8-8.8,9.1-8.8c5.2,0,9,3.9,9,8.7l0,0
	C461.5,52.413,457.7,56.312,452.4,56.312z M457.6,47.512c0-2.9-2.1-5.4-5.2-5.4c-3,0-5.1,2.4-5.1,5.3l0,0c0,2.9,2.1,5.4,5.2,5.4
	S457.6,50.512,457.6,47.512L457.6,47.512z"/>
<polygon id="Shape_55_" fill="#FFFFFF" points="478.9,56.112 475.6,56.112 468.7,39.012 472.8,39.012 477.2,51.012 481.6,39.012 
	485.6,39.012 "/>
<polygon id="Shape_56_" fill="#FFFFFF" points="494.6,56.012 494.6,39.012 507.4,39.012 507.4,42.312 498.3,42.312 498.3,45.812 
	506.3,45.812 506.3,49.112 498.3,49.112 498.3,52.712 507.5,52.712 507.5,56.112 "/>
<path id="Shape_57_" fill="#FFFFFF" d="M527.7,56.012l-3.7-5.4h-3v5.4h-3.7v-17h7.8c4,0,6.4,2.1,6.4,5.6l0,0c0,2.8-1.5,4.4-3.7,5.3
	l4.1,6.1H527.7L527.7,56.012L527.7,56.012z M527.8,44.812c0-1.6-1.1-2.4-3-2.4h-3.7v4.9h3.8C526.7,47.312,527.8,46.312,527.8,44.812
	L527.8,44.812z"/>
<polygon id="Shape_58_" fill="#FFFFFF" points="549.1,49.312 549.1,56.112 545.4,56.112 545.4,49.412 538.9,39.112 543.3,39.112 
	547.4,45.912 551.5,39.112 555.8,39.112 "/>
<g id="Shape_59_">
	<path fill="#AA7B11" d="M257.8,4.413h-3.5v-1.2h3.5V4.413z M252,4.413h-3.5v-1.2h3.5V4.413z M246.2,4.413h-3.5v-1.2h3.5V4.413z
		 M240.5,4.413H237v-1.2h3.5V4.413z M234.7,4.413h-3.5v-1.2h3.5V4.413z M228.9,4.413h-3.5v-1.2h3.5V4.413z M223.1,4.413h-3.5v-1.2
		h3.5V4.413z M217.3,4.413h-3.5v-1.2h3.5V4.413L217.3,4.413z M211.5,4.413H208v-1.2h3.5V4.413z M205.8,4.413h-3.5v-1.2h3.5V4.413z
		 M200,4.413h-3.5v-1.2h3.5V4.413z M194.2,4.413h-3.5v-1.2h3.5V4.413z M188.4,4.413h-3.5v-1.2h3.5V4.413z M182.6,4.413h-3.5v-1.2
		h3.5V4.413z M176.8,4.413h-3.5v-1.2h3.5V4.413z M171,4.413h-3.5v-1.2h3.5V4.413z M165.3,4.413h-3.5v-1.2h3.5V4.413z"/>
</g>
<g id="Shape_60_">
	<path fill="#AA7B11" d="M257.8,22.012h-3.5v-1.2h3.5V22.012z M252,22.012h-3.5v-1.2h3.5V22.012z M246.2,22.012h-3.5v-1.2h3.5
		V22.012z M240.5,22.012H237v-1.2h3.5V22.012z M234.7,22.012h-3.5v-1.2h3.5V22.012z M228.9,22.012h-3.5v-1.2h3.5V22.012z
		 M223.1,22.012h-3.5v-1.2h3.5V22.012z M217.3,22.012h-3.5v-1.2h3.5V22.012L217.3,22.012z M211.5,22.012H208v-1.2h3.5V22.012z
		 M205.8,22.012h-3.5v-1.2h3.5V22.012z M200,22.012h-3.5v-1.2h3.5V22.012z M194.2,22.012h-3.5v-1.2h3.5V22.012z M188.4,22.012h-3.5
		v-1.2h3.5V22.012z M182.6,22.012h-3.5v-1.2h3.5V22.012z M176.8,22.012h-3.5v-1.2h3.5V22.012z M171,22.012h-3.5v-1.2h3.5V22.012z
		 M165.3,22.012h-3.5v-1.2h3.5V22.012z"/>
</g>
<g id="Shape_61_">
	<path fill="#AA7B11" d="M345.312,178.913h-3.5v-1.2h3.5V178.913z M339.512,178.913h-3.5v-1.2h3.5V178.913z M333.712,178.913h-3.5
		v-1.2h3.5V178.913z M327.912,178.913h-3.5v-1.2h3.5V178.913z M322.112,178.913h-3.5v-1.2h3.5V178.913z M316.312,178.913h-3.4v-1.2
		h3.5v1.2H316.312z M310.512,178.913h-3.5v-1.2h3.5V178.913z M304.812,178.913h-3.5v-1.2h3.5V178.913z M299.012,178.913h-3.5v-1.2
		h3.5V178.913z M293.212,178.913h-3.5v-1.2h3.5V178.913z M287.412,178.913h-3.5v-1.2h3.5V178.913L287.412,178.913z M281.712,178.913
		h-3.5v-1.2h3.5V178.913z M275.912,178.913h-3.5v-1.2h3.5V178.913z M270.112,178.913h-3.5v-1.2h3.5V178.913z M264.312,178.913h-3.5
		v-1.2h3.5V178.913z M258.512,178.913h-3.5v-1.2h3.5V178.913z M252.712,178.913h-3.5v-1.2h3.5V178.913z"/>
</g>
<g id="Shape_62_">
	<polygon fill="#AA7B11" points="122.3,12.987 122.3,12.237 107.625,12.237 107.625,124.272 108.375,125.022 108.375,12.987 	"/>
</g>
<circle id="Oval" fill="#AA7B11" cx="122.2" cy="12.612" r="2.8"/>
<g id="Shape_63_">
	<polygon fill="#AA7B11" points="289.875,252.488 105.723,252.488 105.325,142.71 106.075,142.714 106.477,251.738 289.125,251.738 
		289.125,208.812 289.875,208.812 	"/>
</g>
<circle id="Oval_1_" fill="#AA7B11" cx="289.5" cy="208.913" r="2.8"/>
<linearGradient id="SVGID_1_" gradientUnits="userSpaceOnUse" x1="0" y1="-950.5795" x2="108.375" y2="-950.5795" gradientTransform="matrix(1 0 0 -1 0 -825.5)">
	<stop  offset="0" style="stop-color:#000000"/>
	<stop  offset="0.063" style="stop-color:#2C2004"/>
	<stop  offset="0.2003" style="stop-color:#86610D"/>
	<stop  offset="0.2624" style="stop-color:#AA7B11"/>
</linearGradient>
<polygon fill="url(#SVGID_1_)" points="107.557,125.137 0,125.137 0,125.887 108.375,125.887 108.375,125.022 107.557,124.272 "/>
</svg>
