<?xml version="1.0" encoding="utf-8"?>
<!-- Generator: Adobe Illustrator 21.0.0, SVG Export Plug-In . SVG Version: 6.00 Build 0)  -->
<svg version="1.1" id="Layer_1" xmlns="http://www.w3.org/2000/svg" xmlns:xlink="http://www.w3.org/1999/xlink" x="0px" y="0px"
	 viewBox="0 0 1190.6 841.9" style="enable-background:new 0 0 1190.6 841.9;" xml:space="preserve">
<style type="text/css">
	.st0{stroke:#FCFDFF;stroke-width:2.038;stroke-miterlimit:10;}
	.st1{fill:#FFFFFF;}
</style>
<g>
	<circle class="st0" cx="587" cy="430.8" r="403.4"/>
	<g>
		<path class="st1" d="M479.3,217.2c8.6-4.3,17.7-7.9,27.2-10.8c0.3-6.6,1.9-25,9.1-34.9c0,0,0.6-1.6-1.9-1.6l-7,0l-12.7,0l-2.5,0
			l-19.7,0c-2.5,0-1.9,1.6-1.9,1.6c8.9,12.1,9.3,37.3,9.3,37.3L479.3,217.2z"/>
		<path class="st1" d="M525.1,207.2c-3.2,0.7-6.4,1.4-9.6,2.2c-0.2,0-0.3,0.1-0.4,0.1c-17,4.3-33.2,11.2-47.1,20.1
			c-0.7,0.4-1.4,0.9-2,1.3c-2.7,1.8-5.4,3.7-8,5.8c-12,9.6-22.8,22-30,34.7c-7.9,13.9-12.6,32.3-12.6,49
			c-0.1,23.3,10.8,45.3,31.8,64.7c3.4,3.2,7.1,6.3,11.1,9.3c3.1,2.4,6.4,4.7,9.8,7c2.9,1.9,5.9,3.8,9,5.6
			c10.8,6.4,25.3,13.5,36.7,17.7l-0.1,0.1c0,0,0.6,0.2,1.5,0.5c1.4,0.5,2.8,1,4.1,1.4c8.4,3.1,24.6,10,36.6,21.6c0,0,0,0,0,0
			c9.5,11.3,23.8,18.5,39.7,18.5c10.6,0,20.5-3.2,28.7-8.7c5.4-0.6,19.7-1.3,35,4.9c6.4,2.6,12,5.1,14.9,6.6
			c3.4,1.7,6.7,3.6,9.9,5.7c1.3,0.8,2.6,1.7,3.8,2.6c3.7,2.6,7.1,5.4,10.1,8.3c17.8,17.1,23.9,39,15.9,59.4
			c-5.3,13.4-15.6,24.2-29.6,31.6c-3.2,1.7-6.5,3.2-10,4.5c-10.8,4-23.1,6.3-36.5,6.5c-38.5-0.1-74-14.5-103.9-28.8
			c-2.8-1.3-5.5-2.7-8.2-4.1c-3.4-1.8-6.7-3.7-9.9-5.7c-13.3-8.1-25.3-17.3-35.9-26.6l0,11.5c10.7,8.9,22.7,17.5,35.8,25.1
			c3.2,1.9,6.6,3.6,10,5.3c1.3,0.6,2.6,1.3,3.9,1.9c33.4,15.9,69.3,29.6,107.8,29.6c13.7-0.2,26-2.4,36.9-6.1c3.5-1.2,6.8-2.5,10-4
			c19.4-9.2,32.7-23.7,38.5-40.1l-0.1-38.6c-4.7-13.1-14.2-25.7-29.3-36.2c-3.1-2.2-6.2-4.2-9.4-6c-3.3-1.9-6.6-3.6-9.9-5.1
			c-1.2-0.6-2.8-1.3-4.6-2l0,0c-13-7.1-25.3-9.2-34.4-9.6c7.6-9,12.2-20.6,12.2-33.3c0-4.4-0.6-8.7-1.7-12.8
			c9.7,6.4,18.8,9.9,23.5,11.5c1.8,0.7,3.5,1.4,5,1.9l0,0c2.6,1,5.4,1.9,8.2,2.9c0.5,0.2,1,0.4,1.6,0.6l0,0
			c13.8,4.9,27.2,12.3,38,21.5c0.2,0.2,0.4,0.3,0.6,0.5l0-11.2c-10.7-8-23.2-14.6-36.8-19.2c-0.6-0.2-1.2-0.4-1.8-0.6l0,0
			c-3.4-1.2-6.7-2.4-9.8-3.6l0,0c-1.4-0.5-3.1-1.2-4.9-1.9c-7.5-3.2-21.3-10-32.4-20.7c-1.9-2.6-4.1-4.9-6.5-7.1
			c-0.1-0.1-0.2-0.2-0.3-0.3l0,0c-9.2-8.2-21.2-13.2-34.4-13.2c-8.8,0-17.1,2.2-24.4,6.1c-15,1.7-30.6-4.1-39.2-8
			c-3.4-1.7-6-3-6.6-3.3c-3.5-2-6.8-4-9.8-6c-6.2-4.1-11.6-8.2-16.2-12.5c-13.1-12.1-19.5-24.8-18.9-38
			c0.9-22.9,15.9-40.4,34.9-51.3c3.2-1.8,6.6-3.5,10-5c5.9-2.5,11.9-4.5,18-5.8c13.3-3,27.1-4.4,41-4.3c29.6,0.3,57.5,7.6,79.2,20.7
			c0-2.6,0-6,0-10.1c-23.2-12.7-51-18.9-78.8-19.1c-14.7-0.1-29.3,1.4-43.2,4.5c-5.5,1.2-10.9,2.9-16.2,4.9c-3.4,1.3-6.7,2.8-10,4.5
			c-24.1,12.3-42.8,33.4-43.9,61c-1.1,26.8,21,46.8,44.2,60.9c3.3,2,6.6,3.7,9.8,5.6c1.4,0.8,2.7,1.5,3.9,2
			c2.7,1.4,14.7,7.1,29.7,8.4c-9.4,9.4-15.2,22.3-15.2,36.6c0,5.3,0.8,10.5,2.3,15.3c-12.1-7.1-25-11.7-31.2-14.1
			c-15.5-6.5-32.1-14.9-46.8-25.5c-3.4-2.4-6.7-5-9.9-7.6c-19.7-16.5-34-37.4-33.9-63c0.1-14.8,4.1-31.8,11.6-45
			c5.4-9.6,13.2-19.2,22-27.2c3.2-2.9,6.6-5.6,10-8.1c1-0.7,2-1.4,3-2.1c13.2-8.7,28.8-15.4,44.2-19.6c0.8-0.2,1.6-0.4,2.4-0.6
			c2.5-0.6,5.1-1.2,7.6-1.8c16.3-3.5,32.7-5,49.1-4.9c13.7,0.1,27.5,1.5,41.1,3.9c19.1,3.4,34.1,8.7,47.9,14.1c0-2.9,0-6,0-9.3
			c-13.1-5-27.8-9.9-45.9-13.1c-14.3-2.5-28.6-3.9-42.7-4C557.8,202.3,541.2,203.9,525.1,207.2z M595.4,371.9
			c11.7,0,22.3,4.7,30.1,12.3c1.2,1.6,2.5,3,3.8,4.4c5.7,7.3,9.3,16.4,9.3,26.4c0,23.8-19.3,43.2-43.1,43.2s-43.2-19.3-43.2-43.1
			S571.6,371.9,595.4,371.9z"/>
		<path class="st1" d="M525.2,351l-0.1-79.5c-3.4,1.5-6.7,3.1-9.9,5l0.2,68.1C518.4,346.7,521.7,348.9,525.2,351z"/>
		<path class="st1" d="M413.6,153.9c1.1,0.2,2.1,0.4,3.2,0.7c3.1,0.9,6.1,1.8,9,2.9c1.5,0.6,3,1.3,4.5,2c3.1,1.6,5.9,3.4,8.4,5.4
			c3.1,2.5,5.9,5.3,8.2,8.3c2.5,3.2,4.6,6.9,6.2,10.8c1.7,4.2,3,8.8,3.8,13.8c0.8,5.3,1.1,11.2,0.8,17.3l0,0.1l0,14.9
			c1.7-1.3,3.5-2.5,5.3-3.7c1.5-1,3.1-2,4.7-3l0-8c0.3-6.8,0-13.3-0.9-19.2c-0.9-5.8-2.4-11.2-4.4-16.1c-1.1-2.7-2.5-5.3-4.1-7.7
			c-1.5-2.3-3.3-4.4-5.2-6.4c-2-2.2-5.7-4.5-5.7-5.5c0-0.1,0.1-0.6,0.2-0.6c0,0,0.2-0.2,0.6-0.4c0.2-0.1,0.5-0.2,0.8-0.2l40.9,0.1v0
			l1.4,0l1.4,0v0l40.9-0.1c0.3,0,0.6,0.1,0.8,0.2c0.4,0.2,0.6,0.4,0.6,0.4c0.1,0,0.2,0.6,0.2,0.6c0,1-3.7,3.3-5.7,5.5
			c-1.9,2-3.7,4.1-5.2,6.4c-1.6,2.4-3,5-4.1,7.7c-2,4.9-3.5,10.4-4.4,16.1c-0.4,2.5-0.7,5-0.8,7.7c3.4-0.8,6.8-1.6,10.2-2.3
			c0.1-1.3,0.3-2.6,0.5-3.9c0.8-5,2-9.6,3.8-13.8c1.3-3.2,2.9-6.1,4.7-8.8c4.9-6.1,15.9-15.8,39.1-20.8c0.5-0.1,1.1-0.2,1.6-0.3
			c1.2-0.3,2.7-0.7,2.7-2.2c0-1.7-2.4-1.9-3.9-1.9l0,0c-0.2,0-0.4,0-0.6,0l-0.1,0l-20.1,0.1h0c-1,0-2,0-2.9,0c-0.5,0-1,0-1.5,0
			l-55.9,0l-2.9,0l-55.9,0c-0.5,0-1,0-1.5,0c-1.2,0-2.5,0-3.7,0c-1.6,0-3.1,0-4.7,0c-1.5,0-3,0-4.4,0c-1.1,0-2.3-0.1-3.4-0.1
			c-1.3,0-4.5-0.1-4.5,1.9C412,153,412.8,153.7,413.6,153.9z"/>
		<path class="st1" d="M688.4,666.8l19.7,0l2.5,0l12.7,0l7,0c2.5,0,1.9-1.6,1.9-1.6c-8.9-12.1-9.3-37.3-9.3-37.3l0-17.3
			c-6.4,5.2-13.7,10-21.7,14.1c-1.8,0.9-3.5,1.8-5.3,2.6l0,0.7c0,0-0.4,25.1-9.2,37.3C686.5,665.2,685.9,666.8,688.4,666.8z"/>
		<path class="st1" d="M488.1,302.7c-0.5,11.9,5.7,23.5,18.4,34.8l0-55.3c-7.4,5.5-13.7,12.1-18.3,19.7
			C488.1,302.1,488.1,302.4,488.1,302.7z"/>
		<path class="st1" d="M740.9,308.2c12.1,3.9,24.5,6.9,37.6,9.3l19.3,3.4l-9.4-16l0,0l0-0.1c-7.1-11.5-15.3-22-24.5-31.1
			c6.9-3.5,13.7-7.8,19.2-13.5c15.5-16.3,6.3-33.5,1.9-41.7l-8.9-16.6l-0.9-1.6l-6.7,20.2c-2.2,6.6-8.4,13.5-19.6,17.1l0,0
			c0,0-0.1,0-0.2,0c-2.4,0.7-4.9,1.3-7.7,1.7c-3,0.4-6.3,0.7-9.9,0.6l-0.1,0c-3.4,0-6.7-0.3-9.9-0.9c-9.2-1.6-17.7-4.1-25.9-7l0,9.2
			c7.5,2.5,15.3,4.7,23.8,6.2c3.6,0.6,7.6,1,11.6,1c0.1,0,0.2,0,0.4,0c3.3,0,6.6-0.2,10-0.6c15.7-2.1,30.8-9.6,36-25.1
			c5.9,11,9.6,21.5-0.4,32.1c-7.5,7.9-18.2,12.8-28.3,16.7c12.9,10.8,23.7,23.7,32.3,37.8l0,0.1c-13.7-2.4-26.7-5.7-39.6-10
			c-3.3-1.1-6.6-2.3-9.9-3.6c0,0,0,0,0,0c-0.3,21.3-7.3,39.3-32,39.4c2.6-6.2,3.7-12,4.2-18.5c0.9-12.2-2.8-22.1-8-32.1l0.1,59.8
			c11.8-0.3,22-4.2,29.8-11.4c2.3-2.1,4.3-4.5,6.1-7.1c3.5-5.2,6.1-11.4,7.5-18.2C739.3,307.7,740.1,308,740.9,308.2z"/>
		<path class="st1" d="M629.4,153.7c1.1,0.2,2.1,0.4,3.2,0.7c3.1,0.9,6.1,1.8,9,2.9c1.5,0.6,3,1.3,4.5,2c3.1,1.6,5.9,3.4,8.4,5.4
			c3.1,2.5,5.9,5.3,8.2,8.3c2.5,3.2,4.6,6.9,6.2,10.8c1.7,4.2,3,8.8,3.8,13.8c0.8,5.3,1.1,11.2,0.8,17.3l0,0.1l0.4,185.1
			c2.9,1.1,5.9,2.3,9.1,3.4c0.3,0.1,0.5,0.2,0.8,0.3l0-0.4l-0.2-188.1c0.3-6.8,0-13.3-0.9-19.2c-0.9-5.8-2.4-11.2-4.4-16.1
			c-1.1-2.7-2.5-5.3-4.1-7.7c-1.5-2.3-3.3-4.4-5.2-6.4c-2-2.2-5.7-4.5-5.7-5.5c0-0.1,0.1-0.6,0.2-0.6c0,0,0.2-0.2,0.6-0.4
			c0.2-0.1,0.5-0.2,0.8-0.2l40.9,0.1v0l1.4,0l1.4,0v0l40.9-0.1c0.3,0,0.6,0.1,0.8,0.2c0.4,0.2,0.6,0.4,0.6,0.4
			c0.1,0,0.2,0.6,0.2,0.6c0,1-3.7,3.3-5.7,5.5c-1.9,2-3.7,4.1-5.2,6.4c-1.6,2.4-3,5-4.1,7.7c-2,4.9-3.5,10.4-4.4,16.1
			c-0.9,5.9-1.2,12.4-0.9,19.2l0,19.1c0.5,0,1,0,1.6,0c2.8,0,5.6-0.1,8.4-0.5l0-18.8l0-0.1c-0.3-6.2,0-12,0.8-17.3
			c0.8-5,2-9.6,3.8-13.8c1.3-3.2,2.9-6.1,4.7-8.8c4.9-6.1,15.9-15.8,39.1-20.8c0.5-0.1,1.1-0.2,1.6-0.3c1.2-0.3,2.7-0.7,2.7-2.2
			c0-1.7-2.4-1.9-3.9-1.9l0,0c-0.2,0-0.4,0-0.6,0c0,0,0,0-0.1,0l-20.1,0.1c-1,0-2,0-2.9,0c-0.5,0-1,0-1.5,0l-55.9,0l-2.9,0l-55.8,0
			c-0.5,0-1,0-1.5,0c-1.2,0-2.5,0-3.7,0c-1.6,0-3.1,0-4.7,0c-1.5,0-3,0-4.4,0c-1.1,0-2.3-0.1-3.4-0.1c-1.3,0-4.5-0.1-4.5,1.9
			C627.7,152.9,628.5,153.5,629.4,153.7z"/>
		<path class="st1" d="M722.2,208.6c0,0,0.4-25.1,9.2-37.3c0,0,0.6-1.6-1.9-1.6l-7,0l-12.7,0l-2.5,0l-19.7,0c-2.5,0-1.9,1.6-1.9,1.6
			c8.9,12.1,9.3,37.3,9.3,37.3l0,17c8.7,3.2,17.5,6.1,27.1,7.8L722.2,208.6z"/>
		<path class="st1" d="M722.3,422.2l0-61.5c-7.3,5.8-16.5,9-27,9.3l0.1,38.2C705,411.9,714.1,416.7,722.3,422.2z"/>
		<path class="st1" d="M575.8,682.7c-0.5-0.1-1-0.3-1.6-0.3c-23.2-4.9-34.3-14.6-39.1-20.7c-1.9-2.7-3.5-5.7-4.8-8.8
			c-1.7-4.2-3-8.8-3.8-13.8c-0.8-5.3-1.1-11.2-0.8-17.3l0-0.1l0-3.8c-0.3-0.1-0.6-0.1-0.8-0.2c-3.2-0.6-6.3-1-9.2-1.1l0,4.8
			c-0.3,6.8,0,13.3,0.9,19.2c0.9,5.8,2.4,11.2,4.4,16.1c1.1,2.7,2.5,5.3,4.1,7.7c1.5,2.3,3.3,4.4,5.2,6.4c2,2.2,5.7,4.5,5.7,5.5
			c0,0.1-0.1,0.6-0.2,0.6c0,0-0.2,0.2-0.6,0.4c-0.2,0.1-0.5,0.2-0.8,0.2l-40.9-0.1v0l-1.4,0l-1.4,0v0l-40.9,0.1
			c-0.3,0-0.6-0.1-0.8-0.2c-0.4-0.2-0.6-0.4-0.6-0.4c-0.1,0-0.2-0.6-0.2-0.6c0-1,3.7-3.3,5.7-5.5c1.9-2,3.7-4.1,5.2-6.4
			c1.6-2.4,3-5,4.1-7.7c2-4.9,3.5-10.4,4.4-16.1c0.9-5.9,1.2-12.4,0.9-19.2L468.1,427c-0.7-0.5-1.4-0.9-2.1-1.4
			c-2.1-1.4-4.2-2.9-6.2-4.4c-0.5-0.4-1.1-0.8-1.6-1.2l0,0.3l0,5.3l0.2,196l0,0.1c0.3,6.2,0,12-0.8,17.3c-0.8,5-2,9.6-3.7,13.8
			c-1.6,3.9-3.7,7.6-6.2,10.8c-2.3,3.1-5.1,5.9-8.2,8.3c-2.6,2-5.4,3.8-8.4,5.4c-1.5,0.8-3,1.5-4.5,2.1c-3,1.2-6,2.1-9,2.9
			c-1,0.3-2.1,0.5-3.2,0.7c-0.9,0.2-1.7,0.8-1.7,1.8c0,2,3.2,1.9,4.5,1.9c1.1,0,2.3-0.1,3.4-0.1c1.5,0,2.9,0,4.4,0
			c1.6,0,3.1,0,4.7,0c1.2,0,2.5,0,3.7,0c0.5,0,1,0,1.5,0l55.9,0l2.9,0l55.8,0c0.5,0,1,0,1.5,0c1,0,2,0,2.9,0v0l20.1,0.1l0.1,0
			c0.2,0,0.4,0,0.6,0h0c1.5,0,3.9-0.2,3.9-1.9C578.5,683.4,577,683,575.8,682.7z"/>
		<path class="st1" d="M445.9,588.3c-0.1,0.3-0.2,0.7-0.4,1c-1.5,4.3-2.5,8.7-2.8,13c-0.7,9.4,1.8,17.1,5.4,23.1
			c0.1-21.9,0.1-37.6,0.1-45.3c-2.1,0.1-4.2,0.1-6.4,0.1c-9.5,0-18.9-0.7-28.1-2.6c7.5-10.9,20.8-20.1,34.4-24.3l0-3.1
			c-9.5-6.9-29.4-27.4-24.8-77.5c0,0,8.8,13.4,24.6,30.9l0-13.4c-10.8-12.7-16.8-21.8-16.9-22l-13.2-20.1l-1-1.6l-2.4,25.8
			c-3.9,42.2,8.6,65.4,20.1,77.5c-11.6,5.6-21.8,13.9-28.3,23.5l-6.6,9.7l1.5,0.3l10.3,2.2c8.8,1.9,18.6,2.8,30.1,2.8
			C443,588.4,444.4,588.4,445.9,588.3z"/>
		<path class="st1" d="M674.2,610.3c3.4-1,6.7-2,10-3.2c5.9-2.1,11.7-4.6,17.2-7.5c7.9-4,15-8.7,21.3-13.8l0-10.9
			c-10.8,10.1-24.1,18-38.5,23.5c-3.3,1.3-6.6,2.4-10,3.4c-13.1,3.9-26.7,5.9-39.7,5.9c-4,0-8.1-0.2-12-0.6
			c-32.3-3.3-85.7-20.9-95.4-22.7c-0.5-0.1-0.9-0.2-1.4-0.2c-3.3-0.6-6.7-0.9-10-1.1c-0.8,0-1.6,0-2.4,0c-12.1,0-23.3,3.6-31.3,14
			c-0.8,1-1.5,2-2.1,3.1l0,13.7c0,0,3.5-4.6,9.2-12.3c5.4-7.1,12.9-10.4,23.7-10.4c0.9,0,1.8,0,2.8,0.1c2.9,0.2,6,0.5,9.3,1.1
			c0.2,0,0.4,0.1,0.7,0.1c2.8,0.6,9.1,2.4,16.2,4.4c22.1,6.3,55.4,15.8,79.2,18.2c4.2,0.4,8.5,0.6,12.9,0.6
			C647.4,615.9,661,613.9,674.2,610.3z"/>
		<path class="st1" d="M791.5,682.5c-0.5-0.1-1-0.3-1.6-0.3c-23.2-4.9-34.3-14.6-39.1-20.7c-1.9-2.7-3.5-5.7-4.8-8.8
			c-1.7-4.2-3-8.8-3.8-13.8c-0.8-5.3-1.1-11.2-0.8-17.3l0-0.1l-0.4-196l0-14l0-2.8l-0.1-74.4c-0.9-0.3-1.9-0.6-2.8-0.9
			c-1.3,6.5-3.7,12.4-7,17.5l0.1,60.8l0,1.5l0,12.3l0.2,195.8c-0.3,6.8,0,13.3,0.9,19.2c0.9,5.8,2.4,11.2,4.4,16.1
			c1.1,2.7,2.5,5.3,4.1,7.7c1.5,2.3,3.3,4.4,5.2,6.4c2,2.2,5.7,4.5,5.7,5.5c0,0.1-0.1,0.6-0.2,0.6c0,0-0.2,0.2-0.6,0.4
			c-0.2,0.1-0.5,0.2-0.8,0.2l-40.9-0.1v0l-1.4,0l-1.4,0v0l-40.9,0.1c-0.3,0-0.6-0.1-0.8-0.2c-0.4-0.2-0.6-0.4-0.6-0.4
			c-0.1,0-0.2-0.6-0.2-0.6c0-1,3.7-3.3,5.7-5.5c1.9-2,3.7-4.1,5.2-6.4c1.6-2.4,3-5,4.1-7.7c2-4.9,3.5-10.4,4.4-16.1
			c0.4-2.7,0.7-5.5,0.9-8.4c-3.4,1.2-6.8,2.3-10.3,3.3c-0.1,1.2-0.3,2.4-0.5,3.6c-0.8,5-2,9.6-3.8,13.8c-1.6,3.9-3.7,7.6-6.2,10.8
			c-2.3,3.1-5.1,5.9-8.2,8.3c-2.5,2-5.4,3.8-8.4,5.4c-1.5,0.8-3,1.5-4.5,2.1c-3,1.2-6,2.1-9,2.9c-1,0.3-2.1,0.5-3.2,0.7
			c-0.9,0.2-1.7,0.8-1.7,1.8c0,2,3.2,1.9,4.5,1.9c1.1,0,2.3-0.1,3.4-0.1c1.5,0,3,0,4.4,0c1.5,0,3.1,0,4.7,0c1.2,0,2.5,0,3.7,0
			c0.5,0,1,0,1.5,0l55.9,0l2.9,0l55.8,0c0.5,0,1,0,1.5,0c1,0,2,0,2.9,0v0l20.1,0.1l0.1,0c0.2,0,0.4,0,0.6,0h0c1.5,0,3.9-0.2,3.9-1.9
			C794.3,683.2,792.7,682.9,791.5,682.5z"/>
		<path class="st1" d="M711.5,530.3c-3.6-7.4-9-14.4-16-20.7l0.1,53.6c5.8-5.3,10.2-11.6,12.9-18.6
			C710.4,539.9,711.3,535.1,711.5,530.3z"/>
		<path class="st1" d="M507.5,667l7,0c2.5,0,1.9-1.6,1.9-1.6c-8.9-12.1-9.3-37.3-9.3-37.3l0-11.3c-30.9,1.8-30.2,50-30.2,50
			L507.5,667z"/>
		<path class="st1" d="M684.1,571.6l-0.2-70.7c-3.2-2.1-6.5-4-9.9-5.7l0.1,81.2C677.6,574.9,681,573.3,684.1,571.6z"/>
		<path class="st1" d="M506.6,447.6c-8.9-3.9-18.1-8.4-27-13.5l0.1,79.8c8.1,7.5,17.1,15.1,27.1,22.2L506.6,447.6z"/>
		<path class="st1" d="M515.6,451.4l0.1,90.7c3.2,2.1,6.5,4.1,9.9,6l-0.2-93.1C522.2,453.9,518.9,452.7,515.6,451.4z"/>
	</g>
</g>
</svg>
