<?xml version="1.0" encoding="utf-8"?>
<!-- Generator: Adobe Illustrator 17.0.0, SVG Export Plug-In . SVG Version: 6.00 Build 0)  -->
<!DOCTYPE svg PUBLIC "-//W3C//DTD SVG 1.1//EN" "http://www.w3.org/Graphics/SVG/1.1/DTD/svg11.dtd">
<svg version="1.1" id="Layer_1" xmlns="http://www.w3.org/2000/svg" xmlns:xlink="http://www.w3.org/1999/xlink" x="0px" y="0px"
	 width="314px" height="316px" viewBox="303 0 314 316" enable-background="new 303 0 314 316" xml:space="preserve">
<title>logo-mark</title>
<desc>Created with Sketch.</desc>
<g id="Page-1">
	<g id="logo-mark_1_">
		<g id="logo-mark-copy" transform="translate(194.000000, 83.000000)">
			<g id="Group">
			</g>
		</g>
		<g id="Group-2" transform="translate(16.000000, 8.000000)">
			<g id="logo-mark" transform="translate(299.214286, 0.000000)">
				<g id="Group_1_">
					<ellipse id="Oval" stroke="#FCFDFF" stroke-width="2.038" cx="145.393" cy="145.428" rx="145.177" ry="145.284"/>
					<g id="Shape" transform="translate(77.734795, 43.938119)">
						<path fill="#FFFFFF" d="M28.899,24.562c3.095-1.549,6.37-2.845,9.789-3.89c0.108-2.377,0.684-9.004,3.275-12.569
							c0,0,0.216-0.576-0.684-0.576h-2.519h-4.571h-0.9H26.2c-0.9,0-0.684,0.576-0.684,0.576c3.203,4.358,3.347,13.434,3.347,13.434
							L28.899,24.562z"/>
						<path fill="#FFFFFF" d="M45.381,20.961c-1.152,0.252-2.303,0.504-3.455,0.792c-0.072,0-0.108,0.036-0.144,0.036
							c-6.118,1.549-11.948,4.034-16.951,7.239c-0.252,0.144-0.504,0.324-0.72,0.468c-0.972,0.648-1.943,1.333-2.879,2.089
							c-4.319,3.457-8.205,7.923-10.797,12.497c-2.843,5.006-4.535,11.633-4.535,17.647c-0.036,8.391,3.887,16.315,11.444,23.302
							c1.224,1.152,2.555,2.269,3.995,3.349c1.116,0.864,2.303,1.693,3.527,2.521c1.044,0.684,2.123,1.369,3.239,2.017
							c3.887,2.305,9.105,4.862,13.208,6.375l-0.036,0.036c0,0,0.216,0.072,0.54,0.18c0.504,0.18,1.008,0.36,1.476,0.504
							c3.023,1.116,8.853,3.601,13.172,7.779l0,0c3.419,4.07,8.565,6.663,14.287,6.663c3.815,0,7.378-1.152,10.329-3.133
							c1.943-0.216,7.09-0.468,12.596,1.765c2.303,0.936,4.319,1.837,5.362,2.377c1.224,0.612,2.411,1.297,3.563,2.053
							c0.468,0.288,0.936,0.612,1.368,0.936c1.332,0.936,2.555,1.945,3.635,2.989c6.406,6.159,8.601,14.046,5.722,21.393
							c-1.907,4.826-5.614,8.716-10.653,11.381c-1.152,0.612-2.339,1.152-3.599,1.621c-3.887,1.441-8.313,2.269-13.136,2.341
							c-13.856-0.036-26.631-5.222-37.392-10.372c-1.008-0.468-1.979-0.972-2.951-1.477c-1.224-0.648-2.411-1.333-3.563-2.053
							c-4.786-2.917-9.105-6.231-12.92-9.58v4.142c3.851,3.205,8.169,6.303,12.884,9.04c1.152,0.684,2.375,1.297,3.599,1.909
							c0.468,0.216,0.936,0.468,1.404,0.684c12.02,5.726,24.94,10.66,38.795,10.66c4.93-0.072,9.357-0.864,13.28-2.197
							c1.26-0.432,2.447-0.9,3.599-1.441c6.982-3.313,11.768-8.536,13.856-14.442l-0.036-13.902
							c-1.691-4.718-5.11-9.256-10.545-13.037c-1.116-0.792-2.231-1.513-3.383-2.161c-1.188-0.684-2.375-1.297-3.563-1.837
							c-0.432-0.216-1.008-0.468-1.655-0.72l0,0c-4.678-2.557-9.105-3.313-12.38-3.457c2.735-3.241,4.391-7.419,4.391-11.993
							c0-1.585-0.216-3.133-0.612-4.61c3.491,2.305,6.766,3.565,8.457,4.142c0.648,0.252,1.26,0.504,1.799,0.684l0,0
							c0.936,0.36,1.943,0.684,2.951,1.044c0.18,0.072,0.36,0.144,0.576,0.216l0,0c4.966,1.765,9.789,4.43,13.676,7.743
							c0.072,0.072,0.144,0.108,0.216,0.18v-4.034c-3.851-2.881-8.349-5.258-13.244-6.915c-0.216-0.072-0.432-0.144-0.648-0.216l0,0
							c-1.224-0.432-2.411-0.864-3.527-1.297l0,0c-0.504-0.18-1.116-0.432-1.763-0.684c-2.699-1.152-7.666-3.601-11.66-7.455
							c-0.684-0.936-1.476-1.765-2.339-2.557c-0.036-0.036-0.072-0.072-0.108-0.108l0,0c-3.311-2.953-7.63-4.754-12.38-4.754
							c-3.167,0-6.154,0.792-8.781,2.197c-5.398,0.612-11.012-1.477-14.107-2.881c-1.224-0.612-2.159-1.08-2.375-1.188
							c-1.26-0.72-2.447-1.441-3.527-2.161c-2.231-1.477-4.175-2.953-5.83-4.502c-4.714-4.358-7.018-8.932-6.802-13.686
							c0.324-8.247,5.722-14.55,12.56-18.476c1.152-0.648,2.375-1.261,3.599-1.801c2.123-0.9,4.283-1.621,6.478-2.089
							c4.786-1.08,9.753-1.585,14.755-1.549c10.653,0.108,20.693,2.737,28.503,7.455v-3.638c-8.349-4.574-18.354-6.807-28.359-6.879
							c-5.29-0.036-10.545,0.504-15.547,1.621c-1.979,0.432-3.923,1.044-5.83,1.765c-1.224,0.468-2.411,1.008-3.599,1.621
							c-8.673,4.43-15.403,12.029-15.799,21.969c-0.396,9.652,7.558,16.855,15.907,21.933c1.188,0.72,2.375,1.333,3.527,2.017
							c0.504,0.288,0.972,0.54,1.404,0.72c0.972,0.504,5.29,2.557,10.689,3.025c-3.383,3.385-5.47,8.031-5.47,13.181
							c0,1.909,0.288,3.782,0.828,5.51c-4.355-2.557-8.997-4.214-11.228-5.078c-5.578-2.341-11.552-5.366-16.843-9.184
							c-1.224-0.864-2.411-1.801-3.563-2.737c-7.09-5.942-12.236-13.47-12.2-22.689c0.036-5.33,1.476-11.453,4.175-16.207
							c1.943-3.457,4.75-6.915,7.917-9.796c1.152-1.044,2.375-2.017,3.599-2.917c0.36-0.252,0.72-0.504,1.08-0.756
							c4.75-3.133,10.365-5.546,15.907-7.059c0.288-0.072,0.576-0.144,0.864-0.216c0.9-0.216,1.835-0.432,2.735-0.648
							c5.866-1.261,11.768-1.801,17.67-1.765c4.93,0.036,9.897,0.54,14.791,1.405c6.874,1.225,12.272,3.133,17.238,5.078v-3.349
							c-4.714-1.801-10.005-3.565-16.519-4.718c-5.146-0.9-10.293-1.405-15.367-1.441C57.149,19.196,51.175,19.772,45.381,20.961z
							 M70.681,80.277c4.211,0,8.025,1.693,10.832,4.43c0.432,0.576,0.9,1.08,1.368,1.585c2.051,2.629,3.347,5.906,3.347,9.508
							c0,8.572-6.946,15.558-15.511,15.558S55.17,104.407,55.17,95.836S62.116,80.277,70.681,80.277z"/>
						<path fill="#FFFFFF" d="M45.417,72.75l-0.036-28.632c-1.224,0.54-2.411,1.116-3.563,1.801l0.072,24.526
							C42.97,71.201,44.158,71.994,45.417,72.75z"/>
						<path fill="#FFFFFF" d="M5.254,1.765C5.65,1.837,6.01,1.909,6.406,2.017c1.116,0.324,2.195,0.648,3.239,1.044
							c0.54,0.216,1.08,0.468,1.619,0.72c1.116,0.576,2.123,1.225,3.023,1.945c1.116,0.9,2.123,1.909,2.951,2.989
							c0.9,1.152,1.655,2.485,2.231,3.89c0.612,1.513,1.08,3.169,1.368,4.97c0.288,1.909,0.396,4.034,0.288,6.231v0.036v5.366
							c0.612-0.468,1.26-0.9,1.907-1.333c0.54-0.36,1.116-0.72,1.691-1.08v-2.881c0.108-2.449,0-4.79-0.324-6.915
							c-0.324-2.089-0.864-4.034-1.583-5.798c-0.396-0.972-0.9-1.909-1.476-2.773c-0.54-0.828-1.188-1.585-1.871-2.305
							c-0.72-0.792-2.051-1.621-2.051-1.981c0-0.036,0.036-0.216,0.072-0.216c0,0,0.072-0.072,0.216-0.144
							c0.072-0.036,0.18-0.072,0.288-0.072l14.719,0.036l0,0h0.504h0.504l0,0L48.44,3.71c0.108,0,0.216,0.036,0.288,0.072
							c0.144,0.072,0.216,0.144,0.216,0.144c0.036,0,0.072,0.216,0.072,0.216c0,0.36-1.332,1.188-2.051,1.981
							c-0.684,0.72-1.332,1.477-1.871,2.305c-0.576,0.864-1.08,1.801-1.476,2.773c-0.72,1.765-1.26,3.746-1.583,5.798
							c-0.144,0.9-0.252,1.801-0.288,2.773c1.224-0.288,2.447-0.576,3.671-0.828c0.036-0.468,0.108-0.936,0.18-1.405
							c0.288-1.801,0.72-3.457,1.368-4.97c0.468-1.152,1.044-2.197,1.691-3.169c1.763-2.197,5.722-5.69,14.071-7.491
							c0.18-0.036,0.396-0.072,0.576-0.108c0.432-0.108,0.972-0.252,0.972-0.792c0-0.612-0.864-0.684-1.404-0.684l0,0h-0.216H62.62
							L55.386,0.36l0,0h-1.044h-0.54H33.685h-1.044H12.524h-0.54h-1.332H8.961H7.378c-0.396,0-0.828-0.036-1.224-0.036
							c-0.468,0-1.619-0.036-1.619,0.684C4.678,1.441,4.966,1.693,5.254,1.765z"/>
						<path fill="#FFFFFF" d="M104.15,186.485h7.09h0.9h4.571h2.519c0.9,0,0.684-0.576,0.684-0.576
							c-3.203-4.358-3.347-13.434-3.347-13.434v-6.231c-2.303,1.873-4.93,3.601-7.809,5.078c-0.648,0.324-1.26,0.648-1.907,0.936
							v0.252c0,0-0.144,9.04-3.311,13.434C103.466,185.909,103.251,186.485,104.15,186.485z"/>
						<path fill="#FFFFFF" d="M32.066,55.355c-0.18,4.286,2.051,8.463,6.622,12.533V47.972c-2.663,1.981-4.93,4.358-6.586,7.095
							C32.066,55.139,32.066,55.247,32.066,55.355z"/>
						<path fill="#FFFFFF" d="M123.044,57.336c4.355,1.405,8.817,2.485,13.532,3.349l6.946,1.225l-3.383-5.762l0,0v-0.036
							c-2.555-4.142-5.506-7.923-8.817-11.201c2.483-1.261,4.93-2.809,6.91-4.862c5.578-5.87,2.267-12.065,0.684-15.018
							l-3.203-5.978l-0.324-0.576l-2.411,7.275c-0.792,2.377-3.023,4.862-7.054,6.159l0,0h-0.072
							c-0.864,0.252-1.763,0.468-2.771,0.612c-1.08,0.144-2.267,0.252-3.563,0.216h-0.036c-1.224,0-2.411-0.108-3.563-0.324
							c-3.311-0.576-6.37-1.477-9.321-2.521v3.313c2.699,0.9,5.506,1.693,8.565,2.233c1.296,0.216,2.735,0.36,4.175,0.36h0.144
							c1.188,0,2.375-0.072,3.599-0.216c5.65-0.756,11.084-3.457,12.956-9.04c2.123,3.962,3.455,7.743-0.144,11.561
							c-2.699,2.845-6.55,4.61-10.185,6.014c4.642,3.89,8.529,8.536,11.624,13.614v0.036c-4.93-0.864-9.609-2.053-14.251-3.601
							c-1.188-0.396-2.375-0.828-3.563-1.297l0,0c-0.108,7.671-2.627,14.154-11.516,14.19c0.936-2.233,1.332-4.322,1.512-6.663
							c0.324-4.394-1.008-7.959-2.879-11.561l0.036,21.537c4.247-0.108,7.917-1.513,10.725-4.106
							c0.828-0.756,1.548-1.621,2.195-2.557c1.26-1.873,2.195-4.106,2.699-6.555C122.468,57.156,122.756,57.264,123.044,57.336z"/>
						<path fill="#FFFFFF" d="M82.917,1.693c0.396,0.072,0.756,0.144,1.152,0.252c1.116,0.324,2.195,0.648,3.239,1.044
							c0.54,0.216,1.08,0.468,1.619,0.72c1.116,0.576,2.123,1.225,3.023,1.945c1.116,0.9,2.123,1.909,2.951,2.989
							c0.9,1.152,1.655,2.485,2.231,3.89c0.612,1.513,1.08,3.169,1.368,4.97c0.288,1.909,0.396,4.034,0.288,6.231v0.036
							l0.144,66.663c1.044,0.396,2.123,0.828,3.275,1.225c0.108,0.036,0.18,0.072,0.288,0.108v-0.144l-0.072-67.744
							c0.108-2.449,0-4.79-0.324-6.915c-0.324-2.089-0.864-4.034-1.583-5.798c-0.396-0.972-0.9-1.909-1.476-2.773
							c-0.54-0.828-1.188-1.585-1.871-2.305c-0.72-0.792-2.051-1.621-2.051-1.981c0-0.036,0.036-0.216,0.072-0.216
							c0,0,0.072-0.072,0.216-0.144c0.072-0.036,0.18-0.072,0.288-0.072l14.719,0.036l0,0h0.504h0.504l0,0l14.719-0.036
							c0.108,0,0.216,0.036,0.288,0.072c0.144,0.072,0.216,0.144,0.216,0.144c0.036,0,0.072,0.216,0.072,0.216
							c0,0.36-1.332,1.188-2.051,1.981c-0.684,0.72-1.332,1.477-1.871,2.305c-0.576,0.864-1.08,1.801-1.476,2.773
							c-0.72,1.765-1.26,3.746-1.583,5.798c-0.324,2.125-0.432,4.466-0.324,6.915v6.879h0.576c1.008,0,2.015-0.036,3.023-0.18
							v-6.771V23.77c-0.108-2.233,0-4.322,0.288-6.231c0.288-1.801,0.72-3.457,1.368-4.97c0.468-1.152,1.044-2.197,1.691-3.169
							c1.763-2.197,5.722-5.69,14.071-7.491c0.18-0.036,0.396-0.072,0.576-0.108c0.432-0.108,0.972-0.252,0.972-0.792
							c0-0.612-0.864-0.684-1.404-0.684l0,0h-0.216c0,0,0,0-0.036,0l-7.234,0.036h-1.044h-0.54h-20.117h-1.044H90.259h-0.54h-1.332
							h-1.691h-1.583c-0.396,0-0.828-0.036-1.224-0.036c-0.468,0-1.619-0.036-1.619,0.684C82.305,1.405,82.593,1.621,82.917,1.693z"
							/>
						<path fill="#FFFFFF" d="M116.314,21.465c0,0,0.144-9.04,3.311-13.434c0,0,0.216-0.576-0.684-0.576h-2.519h-4.571h-0.9h-7.09
							c-0.9,0-0.684,0.576-0.684,0.576c3.203,4.358,3.347,13.434,3.347,13.434v6.123c3.131,1.152,6.298,2.197,9.753,2.809
							L116.314,21.465z"/>
						<path fill="#FFFFFF" d="M116.35,98.393V76.243c-2.627,2.089-5.938,3.241-9.717,3.349l0.036,13.758
							C110.124,94.683,113.399,96.412,116.35,98.393z"/>
						<path fill="#FFFFFF" d="M63.627,192.211c-0.18-0.036-0.36-0.108-0.576-0.108c-8.349-1.765-12.344-5.258-14.071-7.455
							c-0.684-0.972-1.26-2.053-1.727-3.169c-0.612-1.513-1.08-3.169-1.368-4.97c-0.288-1.909-0.396-4.034-0.288-6.231v-0.036
							v-1.369c-0.108-0.036-0.216-0.036-0.288-0.072c-1.152-0.216-2.267-0.36-3.311-0.396v1.729c-0.108,2.449,0,4.79,0.324,6.915
							c0.324,2.089,0.864,4.034,1.583,5.798c0.396,0.972,0.9,1.909,1.476,2.773c0.54,0.828,1.188,1.585,1.871,2.305
							c0.72,0.792,2.051,1.621,2.051,1.981c0,0.036-0.036,0.216-0.072,0.216c0,0-0.072,0.072-0.216,0.144
							c-0.072,0.036-0.18,0.072-0.288,0.072l-14.719-0.036l0,0h-0.504h-0.504l0,0l-14.719,0.036c-0.108,0-0.216-0.036-0.288-0.072
							c-0.144-0.072-0.216-0.144-0.216-0.144c-0.036,0-0.072-0.216-0.072-0.216c0-0.36,1.332-1.188,2.051-1.981
							c0.684-0.72,1.332-1.477,1.871-2.305c0.576-0.864,1.08-1.801,1.476-2.773c0.72-1.765,1.26-3.746,1.583-5.798
							c0.324-2.125,0.432-4.466,0.324-6.915l-0.144-70.013c-0.252-0.18-0.504-0.324-0.756-0.504
							c-0.756-0.504-1.512-1.044-2.231-1.585c-0.18-0.144-0.396-0.288-0.576-0.432v0.108v1.909l0.072,70.589v0.036
							c0.108,2.233,0,4.322-0.288,6.231c-0.288,1.801-0.72,3.457-1.332,4.97c-0.576,1.405-1.332,2.737-2.231,3.89
							c-0.828,1.116-1.835,2.125-2.951,2.989c-0.936,0.72-1.943,1.369-3.023,1.945c-0.54,0.288-1.08,0.54-1.619,0.756
							c-1.08,0.432-2.159,0.756-3.239,1.044c-0.36,0.108-0.756,0.18-1.152,0.252c-0.324,0.072-0.612,0.288-0.612,0.648
							c0,0.72,1.152,0.684,1.619,0.684c0.396,0,0.828-0.036,1.224-0.036h1.583h1.691h1.332h0.54h20.117h1.044h20.081h0.54h1.044l0,0
							l7.234,0.036h0.036h0.216l0,0c0.54,0,1.404-0.072,1.404-0.684C64.599,192.463,64.059,192.319,63.627,192.211z"/>
						<path fill="#FFFFFF" d="M16.879,158.213c-0.036,0.108-0.072,0.252-0.144,0.36c-0.54,1.549-0.9,3.133-1.008,4.682
							c-0.252,3.385,0.648,6.159,1.943,8.319c0.036-7.887,0.036-13.542,0.036-16.315c-0.756,0.036-1.512,0.036-2.303,0.036
							c-3.419,0-6.802-0.252-10.113-0.936c2.699-3.926,7.486-7.239,12.38-8.752v-1.116c-3.419-2.485-10.581-9.868-8.925-27.912
							c0,0,3.167,4.826,8.853,11.129v-4.826c-3.887-4.574-6.046-7.851-6.082-7.923l-4.75-7.239l-0.36-0.576l-0.864,9.292
							c-1.404,15.198,3.095,23.554,7.234,27.912c-4.175,2.017-7.845,5.006-10.185,8.464l-2.375,3.493l0.54,0.108l3.707,0.792
							c3.167,0.684,6.694,1.008,10.832,1.008C15.835,158.249,16.339,158.249,16.879,158.213z"/>
						<path fill="#FFFFFF" d="M99.04,166.137c1.224-0.36,2.411-0.72,3.599-1.152c2.123-0.756,4.211-1.657,6.19-2.701
							c2.843-1.441,5.398-3.133,7.666-4.97v-3.926c-3.887,3.637-8.673,6.483-13.856,8.463c-1.188,0.468-2.375,0.864-3.599,1.225
							c-4.714,1.405-9.609,2.125-14.287,2.125c-1.44,0-2.915-0.072-4.319-0.216c-11.624-1.188-30.842-7.527-34.333-8.175
							c-0.18-0.036-0.324-0.072-0.504-0.072c-1.188-0.216-2.411-0.324-3.599-0.396h-0.864c-4.355,0-8.385,1.297-11.264,5.042
							c-0.288,0.36-0.54,0.72-0.756,1.116v4.934c0,0,1.26-1.657,3.311-4.43c1.943-2.557,4.642-3.746,8.529-3.746
							c0.324,0,0.648,0,1.008,0.036c1.044,0.072,2.159,0.18,3.347,0.396c0.072,0,0.144,0.036,0.252,0.036
							c1.008,0.216,3.275,0.864,5.83,1.585c7.953,2.269,19.938,5.69,28.503,6.555c1.512,0.144,3.059,0.216,4.642,0.216
							C89.395,168.153,94.289,167.433,99.04,166.137z"/>
						<path fill="#FFFFFF" d="M141.254,192.139c-0.18-0.036-0.36-0.108-0.576-0.108c-8.349-1.765-12.344-5.258-14.071-7.455
							c-0.684-0.972-1.26-2.053-1.727-3.169c-0.612-1.513-1.08-3.169-1.368-4.97c-0.288-1.909-0.396-4.034-0.288-6.231v-0.036
							l-0.144-70.589v-5.042v-1.008l-0.036-26.795c-0.324-0.108-0.684-0.216-1.008-0.324c-0.468,2.341-1.332,4.466-2.519,6.303
							l0.036,21.897v0.54v4.43l0.072,70.517c-0.108,2.449,0,4.79,0.324,6.915c0.324,2.089,0.864,4.034,1.583,5.798
							c0.396,0.972,0.9,1.909,1.476,2.773c0.54,0.828,1.188,1.585,1.871,2.305c0.72,0.792,2.051,1.621,2.051,1.981
							c0,0.036-0.036,0.216-0.072,0.216c0,0-0.072,0.072-0.216,0.144c-0.072,0.036-0.18,0.072-0.288,0.072l-14.719-0.036l0,0h-0.504
							h-0.504l0,0l-14.719,0.036c-0.108,0-0.216-0.036-0.288-0.072c-0.144-0.072-0.216-0.144-0.216-0.144
							c-0.036,0-0.072-0.216-0.072-0.216c0-0.36,1.332-1.188,2.051-1.981c0.684-0.72,1.332-1.477,1.871-2.305
							c0.576-0.864,1.08-1.801,1.476-2.773c0.72-1.765,1.26-3.746,1.583-5.798c0.144-0.972,0.252-1.981,0.324-3.025
							c-1.224,0.432-2.447,0.828-3.707,1.188c-0.036,0.432-0.108,0.864-0.18,1.297c-0.288,1.801-0.72,3.457-1.368,4.97
							c-0.576,1.405-1.332,2.737-2.231,3.89c-0.828,1.116-1.835,2.125-2.951,2.989c-0.9,0.72-1.943,1.369-3.023,1.945
							c-0.54,0.288-1.08,0.54-1.619,0.756c-1.08,0.432-2.159,0.756-3.239,1.044c-0.36,0.108-0.756,0.18-1.152,0.252
							c-0.324,0.072-0.612,0.288-0.612,0.648c0,0.72,1.152,0.684,1.619,0.684c0.396,0,0.828-0.036,1.224-0.036h1.583h1.691h1.332
							h0.54h20.117h1.044h20.081h0.54h1.044l0,0l7.234,0.036h0.036h0.216l0,0c0.54,0,1.404-0.072,1.404-0.684
							C142.262,192.391,141.686,192.283,141.254,192.139z"/>
						<path fill="#FFFFFF" d="M112.464,137.325c-1.296-2.665-3.239-5.186-5.758-7.455l0.036,19.304
							c2.087-1.909,3.671-4.178,4.642-6.699C112.068,140.782,112.392,139.053,112.464,137.325z"/>
						<path fill="#FFFFFF" d="M39.047,186.557h2.519c0.9,0,0.684-0.576,0.684-0.576c-3.203-4.358-3.347-13.434-3.347-13.434v-4.07
							c-11.12,0.648-10.868,18.007-10.868,18.007L39.047,186.557z"/>
						<path fill="#FFFFFF" d="M102.603,152.199l-0.072-25.463c-1.152-0.756-2.339-1.441-3.563-2.053l0.036,29.244
							C100.263,153.387,101.487,152.811,102.603,152.199z"/>
						<path fill="#FFFFFF" d="M38.723,107.54c-3.203-1.405-6.514-3.025-9.717-4.862l0.036,28.74
							c2.915,2.701,6.154,5.438,9.753,7.995L38.723,107.54z"/>
						<path fill="#FFFFFF" d="M41.962,108.909l0.036,32.665c1.152,0.756,2.339,1.477,3.563,2.161l-0.072-33.53
							C44.338,109.809,43.15,109.377,41.962,108.909z"/>
					</g>
				</g>
			</g>
		</g>
	</g>
</g>
</svg>
