<?xml version="1.0" encoding="UTF-8" standalone="no"?>
<svg width="617px" height="316px" viewBox="0 0 617 316" version="1.1" xmlns="http://www.w3.org/2000/svg" xmlns:xlink="http://www.w3.org/1999/xlink">
    <!-- Generator: Sketch 42 (36781) - http://www.bohemiancoding.com/sketch -->
    <title>logo-mark</title>
    <desc>Created with Sketch.</desc>
    <defs></defs>
    <g id="Page-1" stroke="none" stroke-width="1" fill="none" fill-rule="evenodd">
        <g id="logo-mark">
            <g id="logo-mark-copy" transform="translate(194.000000, 83.000000)">
                <g id="Group"></g>
            </g>
            <g id="Group-2" transform="translate(16.000000, 8.000000)" fill-rule="nonzero">
                <g id="logo-mark" transform="translate(299.214286, 0.000000)">
                    <g id="Group">
                        <ellipse id="Oval" stroke="#FCFDFF" stroke-width="2.038" fill="#000000" cx="145.392857" cy="145.42797" rx="145.176927" ry="145.283911"></ellipse>
                        <g transform="translate(77.734795, 43.938119)" id="Shape" fill="#FFFFFF">
                            <path d="M28.8986298,24.5621287 C31.9936262,23.0134901 35.2685644,21.7169554 38.6874558,20.6725248 C38.7954208,18.2955446 39.3712341,11.6688119 41.9623939,8.10334158 C41.9623939,8.10334158 42.1783239,7.52710396 41.2786156,7.52710396 L38.7594325,7.52710396 L34.1889144,7.52710396 L33.2892062,7.52710396 L26.199505,7.52710396 C25.2997967,7.52710396 25.5157267,8.10334158 25.5157267,8.10334158 C28.7186881,12.4611386 28.8626414,21.5368812 28.8626414,21.5368812 L28.8986298,24.5621287 Z"></path>
                            <path d="M45.3812854,20.9606436 C44.2296588,21.2127475 43.0780322,21.4648515 41.9264056,21.7529703 C41.8544289,21.7529703 41.8184406,21.7889851 41.7824523,21.7889851 C35.664436,23.3376238 29.8343264,25.8226485 24.8319484,29.0279703 C24.5800301,29.1720297 24.3281117,29.352104 24.1121818,29.4961634 C23.1404968,30.1444307 22.1688119,30.8287129 21.2331153,31.5850248 C16.9145156,35.0424505 13.0277758,39.5082921 10.436616,44.0821782 C7.59353784,49.0882426 5.90208628,55.7149752 5.90208628,61.7294554 C5.86609795,70.1209158 9.78882603,78.0441832 17.3463755,85.0310644 C18.5699788,86.1835396 19.901547,87.3 21.3410803,88.3804455 C22.4567185,89.244802 23.6443335,90.0731436 24.8679367,90.9014851 C25.9115983,91.5857673 26.9912482,92.2700495 28.1068865,92.9183168 C31.9936262,95.2232673 37.2119342,97.7803218 41.314604,99.2929455 L41.2786156,99.3289604 C41.2786156,99.3289604 41.4945456,99.4009901 41.8184406,99.5090347 C42.3222772,99.6891089 42.8261139,99.8691832 43.2939622,100.013243 C46.316982,101.129703 52.1470916,103.614728 56.4656913,107.79245 L56.4656913,107.79245 C59.8845827,111.862129 65.0309141,114.455198 70.7530587,114.455198 C74.5678218,114.455198 78.1306665,113.302723 81.0817097,111.321906 C83.0250796,111.105817 88.1714109,110.853713 93.6776255,113.086634 C95.9808787,114.02302 97.9962252,114.923391 99.0398868,115.463614 C100.26349,116.075866 101.451105,116.760149 102.602732,117.51646 C103.07058,117.804579 103.538428,118.128713 103.970288,118.452847 C105.301856,119.389233 106.52546,120.397649 107.60511,121.442079 C114.011033,127.600619 116.206321,135.487871 113.327254,142.834901 C111.419873,147.660891 107.713075,151.550495 102.674708,154.215594 C101.523082,154.827847 100.335467,155.368069 99.0758752,155.836262 C95.1891354,157.276856 90.7625707,158.105198 85.9401344,158.177228 C72.0846269,158.141213 59.3087694,152.955074 48.5482585,147.80495 C47.5405852,147.336757 46.5689003,146.83255 45.5972153,146.328342 C44.3736121,145.680074 43.1859972,144.995792 42.0343706,144.275495 C37.2479226,141.358292 32.9293228,138.044926 29.1145598,134.695545 L29.1145598,138.837252 C32.9653112,142.042574 37.2839109,145.139851 41.9983822,147.87698 C43.1500088,148.561262 44.3736121,149.173515 45.5972153,149.785767 C46.0650636,150.001856 46.532912,150.25396 47.0007603,150.47005 C59.0208628,156.196411 71.9406736,161.130446 85.796181,161.130446 C90.7265824,161.058416 95.1531471,160.266089 99.0758752,158.93354 C100.335467,158.501361 101.523082,158.033168 102.674708,157.492946 C109.656444,154.179579 114.442893,148.957426 116.530216,143.05099 L116.494227,129.149257 C114.802776,124.431312 111.383884,119.893441 105.949646,116.111881 C104.834008,115.319554 103.71837,114.599257 102.566743,113.95099 C101.379128,113.266708 100.191513,112.654455 99.0038985,112.114233 C98.5720385,111.898144 97.9962252,111.64604 97.3484353,111.393936 L97.3484353,111.393936 C92.6699523,108.836881 88.2433876,108.080569 84.9684494,107.93651 C87.7035626,104.695173 89.3590258,100.51745 89.3590258,95.9435644 C89.3590258,94.3589109 89.1430958,92.8102723 88.7472242,91.3336634 C92.2380923,93.6386139 95.5130304,94.8991337 97.204482,95.4753713 C97.8522719,95.7274752 98.4640736,95.9795792 99.0038985,96.1596535 L99.0038985,96.1596535 C99.9395951,96.519802 100.947268,96.8439356 101.954942,97.2040842 C102.134883,97.2761139 102.314825,97.3481436 102.530755,97.4201733 L102.530755,97.4201733 C107.497145,99.184901 112.319581,101.85 116.206321,105.163366 C116.278297,105.235396 116.350274,105.271411 116.422251,105.343441 L116.422251,101.309777 C112.571499,98.4285891 108.072958,96.0516089 103.178545,94.3949257 C102.962615,94.322896 102.746685,94.2508663 102.530755,94.1788366 L102.530755,94.1788366 C101.307152,93.7466584 100.119537,93.3144802 99.0038985,92.882302 L99.0038985,92.882302 C98.5000619,92.7022277 97.8882603,92.4501238 97.2404703,92.1980198 C94.5413455,91.0455446 89.5749558,88.5965347 85.5802511,84.7429455 C84.8964728,83.8065594 84.1047295,82.9782178 83.2410095,82.1858911 C83.2050212,82.1498762 83.1690329,82.1138614 83.1330446,82.0778465 L83.1330446,82.0778465 C79.8221181,79.1246287 75.5035184,77.3238861 70.7530587,77.3238861 C67.5860856,77.3238861 64.5990541,78.1162129 61.9719059,79.5207921 C56.5736563,80.1330446 50.9594767,78.0441832 47.8644802,76.639604 C46.6408769,76.0273515 45.7051803,75.5591584 45.4892504,75.4511139 C44.2296588,74.7308168 43.0420438,74.0105198 41.9623939,73.2902228 C39.7311174,71.8136139 37.7877475,70.337005 36.1322843,68.7883663 C31.4178129,64.4305693 29.1145598,59.8566832 29.3304897,55.1027228 C29.6543847,46.8553218 35.0526344,40.5527228 41.8904173,36.627104 C43.0420438,35.9788366 44.2656471,35.3665842 45.4892504,34.8263614 C47.6125619,33.9259901 49.7718617,33.2056931 51.9671499,32.7375 C56.7535979,31.6570545 61.7199876,31.1528465 66.7223656,31.1888614 C77.3749116,31.2969059 87.4156559,33.9259901 95.2251238,38.6439356 L95.2251238,35.0064356 C86.875831,30.4325495 76.871075,28.1996287 66.866319,28.127599 C61.5760343,28.0915842 56.321738,28.6318069 51.31936,29.7482673 C49.3400018,30.1804455 47.3966319,30.792698 45.4892504,31.512995 C44.2656471,31.9811881 43.0780322,32.5214109 41.8904173,33.1336634 C33.2172295,37.5634901 26.4874116,45.1626238 26.09154,55.1027228 C25.6956683,64.754703 33.6490895,71.9576733 41.9983822,77.0357673 C43.1859972,77.7560644 44.3736121,78.3683168 45.5252387,79.052599 C46.0290753,79.3407178 46.4969236,79.5928218 46.9287836,79.772896 C47.9004685,80.277104 52.2190682,82.3299505 57.6173179,82.7981436 C54.2344148,86.1835396 52.1470916,90.8294554 52.1470916,95.9795792 C52.1470916,97.8883663 52.4349982,99.7611386 52.9748232,101.489851 C48.6202351,98.932797 43.9777405,97.2761139 41.7464639,96.4117574 C36.1682726,94.0707921 30.1942097,91.0455446 24.903925,87.2279703 C23.6803218,86.3636139 22.4927069,85.4272277 21.3410803,84.4908416 C14.2513791,78.5483911 9.10504774,71.0212871 9.14103607,61.8014851 C9.1770244,56.4712871 10.6165576,50.3487624 13.3156825,45.594802 C15.2590523,42.1373762 18.0661421,38.6799505 21.2331153,35.7987624 C22.3847419,34.7543317 23.6083451,33.7819307 24.8319484,32.8815594 C25.1918317,32.6294554 25.551715,32.3773515 25.9115983,32.1252475 C30.662058,28.9919554 36.2762376,26.5789604 41.8184406,25.0663366 C42.1063472,24.9943069 42.3942539,24.9222772 42.6821605,24.8502475 C43.5818688,24.6341584 44.5175654,24.4180693 45.4172737,24.2019802 C51.2833716,22.9414604 57.1854579,22.4012376 63.0875442,22.4372525 C68.0179455,22.4732673 72.9843352,22.9774752 77.8787482,23.8418317 C84.7525194,25.0663366 90.1507691,26.9751238 95.1171588,28.9199257 L95.1171588,25.5705446 C90.4026874,23.769802 85.1124028,22.0050743 78.5985149,20.852599 C73.4521835,19.9522277 68.3058522,19.4480198 63.2314975,19.412005 C57.1494696,19.1959158 51.1754066,19.7721535 45.3812854,20.9606436 Z M70.681082,80.277104 C74.8917168,80.277104 78.7064798,81.969802 81.5135697,84.7069307 C81.9454296,85.2831683 82.4132779,85.7873762 82.8811262,86.2915842 C84.9324611,88.9206683 86.228041,92.1980198 86.228041,95.799505 C86.228041,104.37104 79.2822931,111.357921 70.7170704,111.357921 C62.1518476,111.357921 55.1701114,104.407054 55.1701114,95.8355198 C55.1701114,87.2639851 62.1158593,80.277104 70.681082,80.277104 Z"></path>
                            <path d="M45.4172737,72.75 L45.3812854,44.1181931 C44.1576821,44.6584158 42.9700672,45.2346535 41.8184406,45.9189356 L41.8904173,70.4450495 C42.9700672,71.2013614 44.1576821,71.9936881 45.4172737,72.75 Z"></path>
                            <path d="M5.25429632,1.76472772 C5.65016796,1.83675743 6.01005127,1.90878713 6.40592291,2.01683168 C7.52156117,2.34096535 8.6012111,2.66509901 9.6448727,3.06126238 C10.1846977,3.27735149 10.7245226,3.52945545 11.2643476,3.78155941 C12.3799859,4.35779703 13.3876591,5.00606436 14.2873674,5.72636139 C15.4030057,6.62673267 16.4106789,7.63514851 17.2384105,8.71559406 C18.1381188,9.86806931 18.8938738,11.2006188 19.4696871,12.605198 C20.0814887,14.1178218 20.549337,15.774505 20.8372436,17.5752475 C21.1251503,19.4840347 21.2331153,21.6089109 21.1251503,23.8058168 L21.1251503,23.8418317 L21.1251503,29.2080446 C21.7369519,28.7398515 22.3847419,28.3076733 23.0325318,27.875495 C23.5723568,27.5153465 24.1481701,27.155198 24.7239834,26.7950495 L24.7239834,23.9138614 C24.8319484,21.4648515 24.7239834,19.1238861 24.4000884,16.9990099 C24.0761934,14.9101485 23.5363685,12.9653465 22.8166018,11.2006188 C22.4207302,10.2282178 21.9168936,9.29183168 21.3410803,8.42747525 C20.8012553,7.59913366 20.1534653,6.84282178 19.4696871,6.12252475 C18.7499204,5.33019802 17.4183522,4.50185644 17.4183522,4.14170792 C17.4183522,4.10569307 17.4543405,3.92561881 17.4903289,3.92561881 C17.4903289,3.92561881 17.5623055,3.85358911 17.7062588,3.78155941 C17.7782355,3.74554455 17.8862005,3.7095297 17.9941655,3.7095297 L32.7133929,3.74554455 L32.7133929,3.74554455 L33.2172295,3.74554455 L33.7210661,3.74554455 L33.7210661,3.74554455 L48.4402935,3.7095297 C48.5482585,3.7095297 48.6562235,3.74554455 48.7282001,3.78155941 C48.8721535,3.85358911 48.9441301,3.92561881 48.9441301,3.92561881 C48.9801185,3.92561881 49.0161068,4.14170792 49.0161068,4.14170792 C49.0161068,4.50185644 47.6845385,5.33019802 46.9647719,6.12252475 C46.2809936,6.84282178 45.6332037,7.59913366 45.0933787,8.42747525 C44.5175654,9.29183168 44.0137288,10.2282178 43.6178571,11.2006188 C42.8980905,12.9653465 42.3582656,14.9461634 42.0343706,16.9990099 C41.8904173,17.8993812 41.7824523,18.7997525 41.7464639,19.7721535 C42.9700672,19.4840347 44.1936704,19.1959158 45.4172737,18.9438119 C45.453262,18.4756188 45.5252387,18.0074257 45.5972153,17.5392327 C45.885122,15.7384901 46.316982,14.0818069 46.9647719,12.5691832 C47.4326202,11.4167079 48.0084335,10.3722772 48.6562235,9.39987624 C50.4196517,7.2029703 54.3783681,3.7095297 62.7276609,1.90878713 C62.9076025,1.87277228 63.1235325,1.83675743 63.3034742,1.80074257 C63.7353342,1.69269802 64.2751591,1.54863861 64.2751591,1.00841584 C64.2751591,0.396163366 63.4114392,0.324133663 62.8716142,0.324133663 L62.8716142,0.324133663 L62.6556842,0.324133663 L62.6196959,0.324133663 L55.3860414,0.360148515 L55.3860414,0.360148515 L54.3423798,0.360148515 L53.8025548,0.360148515 L33.6850778,0.360148515 L32.6414162,0.360148515 L12.5239392,0.360148515 L11.9841142,0.360148515 L10.652546,0.360148515 L8.96109441,0.360148515 L7.37760785,0.360148515 C6.98173621,0.360148515 6.54987624,0.324133663 6.1540046,0.324133663 C5.68615629,0.324133663 4.5345297,0.288118812 4.5345297,1.00841584 C4.67848303,1.44059406 4.96638967,1.69269802 5.25429632,1.76472772 Z"></path>
                            <path d="M104.15023,186.484901 L111.239931,186.484901 L112.139639,186.484901 L116.710157,186.484901 L119.229341,186.484901 C120.129049,186.484901 119.913119,185.908663 119.913119,185.908663 C116.710157,181.550866 116.566204,172.475124 116.566204,172.475124 L116.566204,166.244554 C114.262951,168.117327 111.635803,169.84604 108.756736,171.322649 C108.108946,171.646782 107.497145,171.970916 106.849355,172.259035 L106.849355,172.511139 C106.849355,172.511139 106.705401,181.550866 103.538428,185.944678 C103.466452,185.908663 103.250522,186.484901 104.15023,186.484901 Z"></path>
                            <path d="M32.0656029,55.3548267 C31.8856612,59.6405941 34.1169378,63.8183168 38.6874558,67.887995 L38.6874558,47.9717822 C36.0243193,49.952599 33.7570545,52.3295792 32.1015912,55.0667079 C32.0656029,55.1387376 32.0656029,55.2467822 32.0656029,55.3548267 Z"></path>
                            <path d="M123.044104,57.3356436 C127.398692,58.7402228 131.861245,59.8206683 136.575716,60.6850248 L143.521464,61.9095297 L140.138561,56.1471535 L140.138561,56.1471535 L140.138561,56.1111386 C137.583389,51.9694307 134.632346,48.1878713 131.32142,44.9105198 C133.804615,43.65 136.251821,42.1013614 138.231179,40.0485149 C143.809371,34.1780941 140.498444,27.9835396 138.914958,25.0303218 L135.711996,19.0518564 L135.388101,18.4756188 L132.976883,25.7506188 C132.18514,28.127599 129.953863,30.6126238 125.92317,31.9091584 L125.92317,31.9091584 L125.851193,31.9091584 C124.987473,32.1612624 124.087765,32.3773515 123.080092,32.5214109 C122.000442,32.6654703 120.812827,32.7735149 119.517247,32.7375 L119.481259,32.7375 C118.257656,32.7375 117.070041,32.6294554 115.918414,32.4133663 C112.607488,31.8371287 109.548479,30.9367574 106.597436,29.8923267 L106.597436,33.2056931 C109.296561,34.1060644 112.103651,34.8983911 115.162659,35.4386139 C116.458239,35.654703 117.897772,35.7987624 119.337306,35.7987624 L119.481259,35.7987624 C120.668874,35.7987624 121.856489,35.7267327 123.080092,35.5826733 C128.73026,34.8263614 134.164498,32.1252475 136.035891,26.5429455 C138.159203,30.5045792 139.490771,34.2861386 135.891938,38.1037129 C133.192813,40.9488861 129.342062,42.7136139 125.70724,44.1181931 C130.349735,48.007797 134.236475,52.6537129 137.331471,57.7318069 L137.331471,57.7678218 C132.40107,56.9034653 127.722587,55.7149752 123.080092,54.1663366 C121.892477,53.7701733 120.704862,53.337995 119.517247,52.869802 L119.517247,52.869802 C119.409282,60.5409653 116.890099,67.0236386 108.000981,67.0596535 C108.936678,64.8267327 109.33255,62.7378713 109.512491,60.3969059 C109.836386,56.0030941 108.504818,52.4376238 106.633425,48.8361386 L106.669413,70.3730198 C110.916036,70.2649752 114.586846,68.860396 117.393936,66.2673267 C118.221667,65.5110149 118.941434,64.6466584 119.589224,63.7102723 C120.848815,61.8375 121.784512,59.6045792 122.288349,57.1555693 C122.46829,57.1555693 122.756197,57.2636139 123.044104,57.3356436 Z"></path>
                            <path d="M82.9171146,1.69269802 C83.3129862,1.76472772 83.6728695,1.83675743 84.0687412,1.94480198 C85.1843794,2.26893564 86.2640293,2.59306931 87.3076909,2.98923267 C87.8475159,3.20532178 88.3873409,3.45742574 88.9271658,3.7095297 C90.0428041,4.28576733 91.0504774,4.93403465 91.9501856,5.65433168 C93.0658239,6.55470297 94.0734972,7.56311881 94.9012288,8.64356436 C95.8009371,9.7960396 96.556692,11.1285891 97.1325053,12.5331683 C97.7443069,14.0457921 98.2121552,15.7024752 98.5000619,17.5032178 C98.7879685,19.412005 98.8959335,21.5368812 98.7879685,23.7337871 L98.7879685,23.769802 L98.9319219,90.4332921 C99.9755835,90.8294554 101.055233,91.2616337 102.20686,91.657797 C102.314825,91.6938119 102.386802,91.7298267 102.494767,91.7658416 L102.494767,91.6217822 L102.42279,23.8778465 C102.530755,21.4288366 102.42279,19.0878713 102.098895,16.962995 C101.775,14.8741337 101.235175,12.9293317 100.515408,11.164604 C100.119537,10.192203 99.6157001,9.25581683 99.0398868,8.3914604 C98.5000619,7.56311881 97.8522719,6.80680693 97.1684936,6.0865099 C96.448727,5.29418317 95.1171588,4.46584158 95.1171588,4.10569307 C95.1171588,4.06967822 95.1531471,3.88960396 95.1891354,3.88960396 C95.1891354,3.88960396 95.2611121,3.81757426 95.4050654,3.74554455 C95.4770421,3.7095297 95.5850071,3.67351485 95.6929721,3.67351485 L110.412199,3.7095297 L110.412199,3.7095297 L110.916036,3.7095297 L111.419873,3.7095297 L111.419873,3.7095297 L126.1391,3.67351485 C126.247065,3.67351485 126.35503,3.7095297 126.427007,3.74554455 C126.57096,3.81757426 126.642937,3.88960396 126.642937,3.88960396 C126.678925,3.88960396 126.714913,4.10569307 126.714913,4.10569307 C126.714913,4.46584158 125.383345,5.29418317 124.663579,6.0865099 C123.9798,6.80680693 123.33201,7.56311881 122.792185,8.3914604 C122.216372,9.25581683 121.712535,10.192203 121.316664,11.164604 C120.596897,12.9293317 120.057072,14.9101485 119.733177,16.962995 C119.409282,19.0878713 119.301317,21.4288366 119.409282,23.8778465 L119.409282,30.7566832 L119.985095,30.7566832 C120.992769,30.7566832 122.000442,30.7206683 123.008115,30.5766089 L123.008115,23.8058168 L123.008115,23.769802 C122.90015,21.5368812 123.008115,19.4480198 123.296022,17.5392327 C123.583929,15.7384901 124.015789,14.0818069 124.663579,12.5691832 C125.131427,11.4167079 125.70724,10.3722772 126.35503,9.39987624 C128.118458,7.2029703 132.077175,3.7095297 140.426467,1.90878713 C140.606409,1.87277228 140.822339,1.83675743 141.002281,1.80074257 C141.434141,1.69269802 141.973966,1.54863861 141.973966,1.00841584 C141.973966,0.396163366 141.110246,0.324133663 140.570421,0.324133663 L140.570421,0.324133663 L140.354491,0.324133663 C140.354491,0.324133663 140.354491,0.324133663 140.318502,0.324133663 L133.084848,0.360148515 L132.041186,0.360148515 L131.501361,0.360148515 L111.383884,0.360148515 L110.340223,0.360148515 L90.2587341,0.360148515 L89.7189091,0.360148515 L88.3873409,0.360148515 L86.6958893,0.360148515 L85.1124028,0.360148515 C84.7165311,0.360148515 84.2846711,0.324133663 83.8887995,0.324133663 C83.4209512,0.324133663 82.2693246,0.288118812 82.2693246,1.00841584 C82.3053129,1.40457921 82.5932196,1.62066832 82.9171146,1.69269802 Z"></path>
                            <path d="M116.314286,21.4648515 C116.314286,21.4648515 116.458239,12.4251238 119.625212,8.03131188 C119.625212,8.03131188 119.841142,7.45507426 118.941434,7.45507426 L116.422251,7.45507426 L111.851733,7.45507426 L110.952024,7.45507426 L103.862323,7.45507426 C102.962615,7.45507426 103.178545,8.03131188 103.178545,8.03131188 C106.381506,12.3891089 106.52546,21.4648515 106.52546,21.4648515 L106.52546,27.5873762 C109.656444,28.7398515 112.823418,29.7842822 116.278297,30.3965347 L116.314286,21.4648515 Z"></path>
                            <path d="M116.350274,98.3925743 L116.350274,76.2434406 C113.723126,78.332302 110.412199,79.4847772 106.633425,79.5928218 L106.669413,93.350495 C110.124293,94.6830446 113.399231,96.4117574 116.350274,98.3925743 Z"></path>
                            <path d="M63.6273692,192.211262 C63.4474275,192.175248 63.2674859,192.103218 63.0515559,192.103218 C54.7022631,190.33849 50.7075583,186.84505 48.9801185,184.648144 C48.2963402,183.675743 47.7205269,182.595297 47.2526786,181.478837 C46.6408769,179.966213 46.1730286,178.30953 45.885122,176.508787 C45.5972153,174.6 45.4892504,172.475124 45.5972153,170.278218 L45.5972153,170.242203 L45.5972153,168.873639 C45.4892504,168.837624 45.3812854,168.837624 45.3093087,168.801609 C44.1576821,168.58552 43.0420438,168.44146 41.9983822,168.405446 L41.9983822,170.134158 C41.8904173,172.583168 41.9983822,174.924134 42.3222772,177.04901 C42.6461722,179.137871 43.1859972,181.082673 43.9057638,182.847401 C44.3016354,183.819802 44.8054721,184.756188 45.3812854,185.620545 C45.9211103,186.448886 46.5689003,187.205198 47.2526786,187.925495 C47.9724452,188.717822 49.3040134,189.546163 49.3040134,189.906312 C49.3040134,189.942327 49.2680251,190.122401 49.2320368,190.122401 C49.2320368,190.122401 49.1600601,190.194431 49.0161068,190.26646 C48.9441301,190.302475 48.8361651,190.33849 48.7282001,190.33849 L34.0089728,190.302475 L34.0089728,190.302475 L33.5051361,190.302475 L33.0012995,190.302475 L33.0012995,190.302475 L18.2820721,190.33849 C18.1741071,190.33849 18.0661421,190.302475 17.9941655,190.26646 C17.8502122,190.194431 17.7782355,190.122401 17.7782355,190.122401 C17.7422472,190.122401 17.7062588,189.906312 17.7062588,189.906312 C17.7062588,189.546163 19.0378271,188.717822 19.7575937,187.925495 C20.441372,187.205198 21.089162,186.448886 21.6289869,185.620545 C22.2048002,184.756188 22.7086368,183.819802 23.1045085,182.847401 C23.8242751,181.082673 24.3641001,179.101856 24.687995,177.04901 C25.01189,174.924134 25.119855,172.583168 25.01189,170.134158 L24.8679367,100.121287 C24.6160184,99.9412129 24.3641001,99.7971535 24.1121818,99.6170792 C23.3564268,99.1128713 22.6006719,98.5726485 21.8809052,98.0324257 C21.7009636,97.8883663 21.4850336,97.7443069 21.3050919,97.6002475 L21.3050919,97.7082921 L21.3050919,99.6170792 L21.3770686,170.206188 L21.3770686,170.242203 C21.4850336,172.475124 21.3770686,174.563985 21.089162,176.472772 C20.8012553,178.273515 20.3693953,179.930198 19.7575937,181.442822 C19.1817804,182.847401 18.4260255,184.17995 17.5263172,185.332426 C16.6985856,186.448886 15.6909123,187.457302 14.575274,188.321658 C13.6395774,189.041955 12.6319042,189.690223 11.5522542,190.26646 C11.0124293,190.554579 10.4726043,190.806683 9.93277935,191.022772 C8.85312942,191.45495 7.77347949,191.779084 6.69382956,192.067203 C6.33394625,192.175248 5.93807461,192.247277 5.54220297,192.319307 C5.21830799,192.391337 4.93040134,192.607426 4.93040134,192.967574 C4.93040134,193.687871 6.08202793,193.651856 6.54987624,193.651856 C6.94574788,193.651856 7.37760785,193.615842 7.77347949,193.615842 L9.35696605,193.615842 L11.0484176,193.615842 L12.3799859,193.615842 L12.9198108,193.615842 L33.0372878,193.615842 L34.0809494,193.615842 L54.1624381,193.615842 L54.7022631,193.615842 L55.7459247,193.615842 L55.7459247,193.615842 L62.9795792,193.651856 L63.0155675,193.651856 L63.2314975,193.651856 L63.2314975,193.651856 C63.7713225,193.651856 64.6350424,193.579827 64.6350424,192.967574 C64.5990541,192.463366 64.0592291,192.319307 63.6273692,192.211262 Z"></path>
                            <path d="M16.8785272,158.213243 C16.8425389,158.321287 16.8065506,158.465347 16.7345739,158.573391 C16.1947489,160.12203 15.8348656,161.706683 15.7269006,163.255322 C15.4749823,166.640718 16.3746906,169.413861 17.6702705,171.574752 C17.7062588,163.6875 17.7062588,158.033168 17.7062588,155.260025 C16.9505039,155.29604 16.1947489,155.29604 15.4030057,155.29604 C11.9841142,155.29604 8.6012111,155.043936 5.29028465,154.359653 C7.98940948,150.434035 12.7758575,147.120668 17.6702705,145.608045 L17.6702705,144.491584 C14.2513791,142.006559 7.0897012,134.623515 8.74516443,116.580074 C8.74516443,116.580074 11.9121376,121.406064 17.5982938,127.708663 L17.5982938,122.882673 C13.7115541,118.308787 11.5522542,115.031436 11.5162659,114.959406 L6.76580622,107.720421 L6.40592291,107.144183 L5.54220297,116.436015 C4.13865806,131.634282 8.63719943,139.989728 12.7758575,144.347525 C8.6012111,146.364356 4.93040134,149.353589 2.59115983,152.811015 L0.215929986,156.304455 L0.75575495,156.4125 L4.46255304,157.204827 C7.62952617,157.889109 11.1563826,158.213243 15.2950407,158.213243 C15.8348656,158.249257 16.3387023,158.249257 16.8785272,158.213243 Z"></path>
                            <path d="M99.0398868,166.13651 C100.26349,165.776361 101.451105,165.416213 102.63872,164.984035 C104.762031,164.227723 106.849355,163.327351 108.828713,162.282921 C111.671791,160.842327 114.226963,159.149629 116.494227,157.312871 L116.494227,153.387252 C112.607488,157.024752 107.82104,159.869926 102.63872,161.850743 C101.451105,162.318936 100.26349,162.715099 99.0398868,163.075248 C94.3254155,164.479827 89.4310025,165.200124 84.7525194,165.200124 C83.3129862,165.200124 81.8374646,165.128094 80.4339197,164.984035 C68.8096888,163.795545 49.5919201,157.456931 46.101052,156.808663 C45.9211103,156.772649 45.777157,156.736634 45.5972153,156.736634 C44.4096004,156.520545 43.1859972,156.4125 41.9983822,156.34047 L41.1346623,156.34047 C36.7800743,156.34047 32.7493812,157.637005 29.8703147,161.38255 C29.5824081,161.742698 29.3304897,162.102847 29.1145598,162.49901 L29.1145598,167.433045 C29.1145598,167.433045 30.3741513,165.776361 32.4254862,163.003218 C34.3688561,160.446163 37.0679809,159.257673 40.9547207,159.257673 C41.2786156,159.257673 41.6025106,159.257673 41.9623939,159.293688 C43.0060555,159.365718 44.1216938,159.473762 45.3093087,159.689851 C45.3812854,159.689851 45.453262,159.725866 45.561227,159.725866 C46.5689003,159.941955 48.8361651,160.590223 51.3913366,161.31052 C59.3447578,163.579455 71.328872,167.000866 79.8940948,167.865223 C81.4056047,168.009282 82.9531029,168.081312 84.5365895,168.081312 C89.3950141,168.153342 94.2894272,167.433045 99.0398868,166.13651 Z"></path>
                            <path d="M141.254199,192.139233 C141.074257,192.103218 140.894316,192.031188 140.678386,192.031188 C132.329093,190.26646 128.334388,186.77302 126.606948,184.576114 C125.92317,183.603713 125.347357,182.523267 124.879508,181.406807 C124.267707,179.894183 123.799859,178.2375 123.511952,176.436757 C123.224045,174.52797 123.11608,172.403094 123.224045,170.206188 L123.224045,170.170173 L123.080092,99.5810644 L123.080092,94.5389851 L123.080092,93.5305693 L123.044104,66.7355198 C122.720209,66.6274752 122.360325,66.5194307 122.03643,66.4113861 C121.568582,68.7523515 120.704862,70.8772277 119.517247,72.7139851 L119.553236,94.6110149 L119.553236,95.1512376 L119.553236,99.5810644 L119.625212,170.098144 C119.517247,172.547153 119.625212,174.888119 119.949107,177.012995 C120.273002,179.101856 120.812827,181.046658 121.532594,182.811386 C121.928465,183.783787 122.432302,184.720173 123.008115,185.58453 C123.54794,186.412871 124.19573,187.169183 124.879508,187.88948 C125.599275,188.681807 126.930843,189.510149 126.930843,189.870297 C126.930843,189.906312 126.894855,190.086386 126.858867,190.086386 C126.858867,190.086386 126.78689,190.158416 126.642937,190.230446 C126.57096,190.26646 126.462995,190.302475 126.35503,190.302475 L111.635803,190.26646 L111.635803,190.26646 L111.131966,190.26646 L110.628129,190.26646 L110.628129,190.26646 L95.9089021,190.302475 C95.8009371,190.302475 95.6929721,190.26646 95.6209954,190.230446 C95.4770421,190.158416 95.4050654,190.086386 95.4050654,190.086386 C95.3690771,190.086386 95.3330888,189.870297 95.3330888,189.870297 C95.3330888,189.510149 96.664657,188.681807 97.3844236,187.88948 C98.0682019,187.169183 98.7159919,186.412871 99.2558168,185.58453 C99.8316301,184.720173 100.335467,183.783787 100.731338,182.811386 C101.451105,181.046658 101.99093,179.065842 102.314825,177.012995 C102.458778,176.040594 102.566743,175.032178 102.63872,173.987748 C101.415117,174.419926 100.191513,174.816089 98.9319219,175.176238 C98.8959335,175.608416 98.8239569,176.040594 98.7519802,176.472772 C98.4640736,178.273515 98.0322136,179.930198 97.3844236,181.442822 C96.8086103,182.847401 96.0528554,184.17995 95.1531471,185.332426 C94.3254155,186.448886 93.3177422,187.457302 92.202104,188.321658 C91.3023957,189.041955 90.2587341,189.690223 89.1790842,190.26646 C88.6392592,190.554579 88.0994342,190.806683 87.5596093,191.022772 C86.4799593,191.45495 85.4003094,191.779084 84.3206595,192.067203 C83.9607762,192.175248 83.5649045,192.247277 83.1690329,192.319307 C82.8451379,192.391337 82.5572313,192.607426 82.5572313,192.967574 C82.5572313,193.687871 83.7088579,193.651856 84.1767062,193.651856 C84.5725778,193.651856 85.0044378,193.615842 85.4003094,193.615842 L86.983796,193.615842 L88.6752475,193.615842 L90.0068158,193.615842 L90.5466407,193.615842 L110.664118,193.615842 L111.707779,193.615842 L131.789268,193.615842 L132.329093,193.615842 L133.372755,193.615842 L133.372755,193.615842 L140.606409,193.651856 L140.642397,193.651856 L140.858327,193.651856 L140.858327,193.651856 C141.398152,193.651856 142.261872,193.579827 142.261872,192.967574 C142.261872,192.391337 141.686059,192.283292 141.254199,192.139233 Z"></path>
                            <path d="M112.463534,137.324629 C111.167954,134.65953 109.224585,132.13849 106.705401,129.869554 L106.74139,149.173515 C108.828713,147.264728 110.412199,144.995792 111.383884,142.474752 C112.067663,140.782054 112.391558,139.053342 112.463534,137.324629 Z"></path>
                            <path d="M39.0473391,186.556931 L41.5665223,186.556931 C42.4662306,186.556931 42.2503006,185.980693 42.2503006,185.980693 C39.0473391,181.622896 38.9033858,172.547153 38.9033858,172.547153 L38.9033858,168.477475 C27.7829915,169.125743 28.0349098,186.484901 28.0349098,186.484901 L39.0473391,186.556931 Z"></path>
                            <path d="M102.602732,152.198762 L102.530755,126.736262 C101.379128,125.97995 100.191513,125.295668 98.9679102,124.683416 L99.0038985,153.927475 C100.26349,153.387252 101.487093,152.811015 102.602732,152.198762 Z"></path>
                            <path d="M38.7234441,107.540347 C35.5204827,106.135767 32.2095562,104.515099 29.0065948,102.678342 L29.0425831,131.418193 C31.9576379,134.119307 35.1965877,136.856436 38.7954208,139.41349 L38.7234441,107.540347 Z"></path>
                            <path d="M41.9623939,108.908911 L41.9983822,141.574381 C43.1500088,142.330693 44.3376238,143.05099 45.561227,143.735272 L45.4892504,110.205446 C44.3376238,109.809282 43.1500088,109.377104 41.9623939,108.908911 Z"></path>
                        </g>
                    </g>
                </g>
                <g id="Group" transform="translate(0.472890, 43.938119)" fill="#FFFFFF">
                    <path d="M28.8986298,24.5621287 C31.9936262,23.0134901 35.2685644,21.7169554 38.6874558,20.6725248 C38.7954208,18.2955446 39.3712341,11.6688119 41.9623939,8.10334158 C41.9623939,8.10334158 42.1783239,7.52710396 41.2786156,7.52710396 L38.7594325,7.52710396 L34.1889144,7.52710396 L33.2892062,7.52710396 L26.199505,7.52710396 C25.2997967,7.52710396 25.5157267,8.10334158 25.5157267,8.10334158 C28.7186881,12.4611386 28.8626414,21.5368812 28.8626414,21.5368812 L28.8986298,24.5621287 Z" id="Shape"></path>
                    <path d="M45.3812854,20.9606436 C44.2296588,21.2127475 43.0780322,21.4648515 41.9264056,21.7529703 C41.8544289,21.7529703 41.8184406,21.7889851 41.7824523,21.7889851 C35.664436,23.3376238 29.8343264,25.8226485 24.8319484,29.0279703 C24.5800301,29.1720297 24.3281117,29.352104 24.1121818,29.4961634 C23.1404968,30.1444307 22.1688119,30.8287129 21.2331153,31.5850248 C16.9145156,35.0424505 13.0277758,39.5082921 10.436616,44.0821782 C7.59353784,49.0882426 5.90208628,55.7149752 5.90208628,61.7294554 C5.86609795,70.1209158 9.78882603,78.0441832 17.3463755,85.0310644 C18.5699788,86.1835396 19.901547,87.3 21.3410803,88.3804455 C22.4567185,89.244802 23.6443335,90.0731436 24.8679367,90.9014851 C25.9115983,91.5857673 26.9912482,92.2700495 28.1068865,92.9183168 C31.9936262,95.2232673 37.2119342,97.7803218 41.314604,99.2929455 L41.2786156,99.3289604 C41.2786156,99.3289604 41.4945456,99.4009901 41.8184406,99.5090347 C42.3222772,99.6891089 42.8261139,99.8691832 43.2939622,100.013243 C46.316982,101.129703 52.1470916,103.614728 56.4656913,107.79245 L56.4656913,107.79245 C59.8845827,111.862129 65.0309141,114.455198 70.7530587,114.455198 C74.5678218,114.455198 78.1306665,113.302723 81.0817097,111.321906 C83.0250796,111.105817 88.1714109,110.853713 93.6776255,113.086634 C95.9808787,114.02302 97.9962252,114.923391 99.0398868,115.463614 C100.26349,116.075866 101.451105,116.760149 102.602732,117.51646 C103.07058,117.804579 103.538428,118.128713 103.970288,118.452847 C105.301856,119.389233 106.52546,120.397649 107.60511,121.442079 C114.011033,127.600619 116.206321,135.487871 113.327254,142.834901 C111.419873,147.660891 107.713075,151.550495 102.674708,154.215594 C101.523082,154.827847 100.335467,155.368069 99.0758752,155.836262 C95.1891354,157.276856 90.7625707,158.105198 85.9401344,158.177228 C72.0846269,158.141213 59.3087694,152.955074 48.5482585,147.80495 C47.5405852,147.336757 46.5689003,146.83255 45.5972153,146.328342 C44.3736121,145.680074 43.1859972,144.995792 42.0343706,144.275495 C37.2479226,141.358292 32.9293228,138.044926 29.1145598,134.695545 L29.1145598,138.837252 C32.9653112,142.042574 37.2839109,145.139851 41.9983822,147.87698 C43.1500088,148.561262 44.3736121,149.173515 45.5972153,149.785767 C46.0650636,150.001856 46.532912,150.25396 47.0007603,150.47005 C59.0208628,156.196411 71.9406736,161.130446 85.796181,161.130446 C90.7265824,161.058416 95.1531471,160.266089 99.0758752,158.93354 C100.335467,158.501361 101.523082,158.033168 102.674708,157.492946 C109.656444,154.179579 114.442893,148.957426 116.530216,143.05099 L116.494227,129.149257 C114.802776,124.431312 111.383884,119.893441 105.949646,116.111881 C104.834008,115.319554 103.71837,114.599257 102.566743,113.95099 C101.379128,113.266708 100.191513,112.654455 99.0038985,112.114233 C98.5720385,111.898144 97.9962252,111.64604 97.3484353,111.393936 L97.3484353,111.393936 C92.6699523,108.836881 88.2433876,108.080569 84.9684494,107.93651 C87.7035626,104.695173 89.3590258,100.51745 89.3590258,95.9435644 C89.3590258,94.3589109 89.1430958,92.8102723 88.7472242,91.3336634 C92.2380923,93.6386139 95.5130304,94.8991337 97.204482,95.4753713 C97.8522719,95.7274752 98.4640736,95.9795792 99.0038985,96.1596535 L99.0038985,96.1596535 C99.9395951,96.519802 100.947268,96.8439356 101.954942,97.2040842 C102.134883,97.2761139 102.314825,97.3481436 102.530755,97.4201733 L102.530755,97.4201733 C107.497145,99.184901 112.319581,101.85 116.206321,105.163366 C116.278297,105.235396 116.350274,105.271411 116.422251,105.343441 L116.422251,101.309777 C112.571499,98.4285891 108.072958,96.0516089 103.178545,94.3949257 C102.962615,94.322896 102.746685,94.2508663 102.530755,94.1788366 L102.530755,94.1788366 C101.307152,93.7466584 100.119537,93.3144802 99.0038985,92.882302 L99.0038985,92.882302 C98.5000619,92.7022277 97.8882603,92.4501238 97.2404703,92.1980198 C94.5413455,91.0455446 89.5749558,88.5965347 85.5802511,84.7429455 C84.8964728,83.8065594 84.1047295,82.9782178 83.2410095,82.1858911 C83.2050212,82.1498762 83.1690329,82.1138614 83.1330446,82.0778465 L83.1330446,82.0778465 C79.8221181,79.1246287 75.5035184,77.3238861 70.7530587,77.3238861 C67.5860856,77.3238861 64.5990541,78.1162129 61.9719059,79.5207921 C56.5736563,80.1330446 50.9594767,78.0441832 47.8644802,76.639604 C46.6408769,76.0273515 45.7051803,75.5591584 45.4892504,75.4511139 C44.2296588,74.7308168 43.0420438,74.0105198 41.9623939,73.2902228 C39.7311174,71.8136139 37.7877475,70.337005 36.1322843,68.7883663 C31.4178129,64.4305693 29.1145598,59.8566832 29.3304897,55.1027228 C29.6543847,46.8553218 35.0526344,40.5527228 41.8904173,36.627104 C43.0420438,35.9788366 44.2656471,35.3665842 45.4892504,34.8263614 C47.6125619,33.9259901 49.7718617,33.2056931 51.9671499,32.7375 C56.7535979,31.6570545 61.7199876,31.1528465 66.7223656,31.1888614 C77.3749116,31.2969059 87.4156559,33.9259901 95.2251238,38.6439356 L95.2251238,35.0064356 C86.875831,30.4325495 76.871075,28.1996287 66.866319,28.127599 C61.5760343,28.0915842 56.321738,28.6318069 51.31936,29.7482673 C49.3400018,30.1804455 47.3966319,30.792698 45.4892504,31.512995 C44.2656471,31.9811881 43.0780322,32.5214109 41.8904173,33.1336634 C33.2172295,37.5634901 26.4874116,45.1626238 26.09154,55.1027228 C25.6956683,64.754703 33.6490895,71.9576733 41.9983822,77.0357673 C43.1859972,77.7560644 44.3736121,78.3683168 45.5252387,79.052599 C46.0290753,79.3407178 46.4969236,79.5928218 46.9287836,79.772896 C47.9004685,80.277104 52.2190682,82.3299505 57.6173179,82.7981436 C54.2344148,86.1835396 52.1470916,90.8294554 52.1470916,95.9795792 C52.1470916,97.8883663 52.4349982,99.7611386 52.9748232,101.489851 C48.6202351,98.932797 43.9777405,97.2761139 41.7464639,96.4117574 C36.1682726,94.0707921 30.1942097,91.0455446 24.903925,87.2279703 C23.6803218,86.3636139 22.4927069,85.4272277 21.3410803,84.4908416 C14.2513791,78.5483911 9.10504774,71.0212871 9.14103607,61.8014851 C9.1770244,56.4712871 10.6165576,50.3487624 13.3156825,45.594802 C15.2590523,42.1373762 18.0661421,38.6799505 21.2331153,35.7987624 C22.3847419,34.7543317 23.6083451,33.7819307 24.8319484,32.8815594 C25.1918317,32.6294554 25.551715,32.3773515 25.9115983,32.1252475 C30.662058,28.9919554 36.2762376,26.5789604 41.8184406,25.0663366 C42.1063472,24.9943069 42.3942539,24.9222772 42.6821605,24.8502475 C43.5818688,24.6341584 44.5175654,24.4180693 45.4172737,24.2019802 C51.2833716,22.9414604 57.1854579,22.4012376 63.0875442,22.4372525 C68.0179455,22.4732673 72.9843352,22.9774752 77.8787482,23.8418317 C84.7525194,25.0663366 90.1507691,26.9751238 95.1171588,28.9199257 L95.1171588,25.5705446 C90.4026874,23.769802 85.1124028,22.0050743 78.5985149,20.852599 C73.4521835,19.9522277 68.3058522,19.4480198 63.2314975,19.412005 C57.1494696,19.1959158 51.1754066,19.7721535 45.3812854,20.9606436 Z M70.681082,80.277104 C74.8917168,80.277104 78.7064798,81.969802 81.5135697,84.7069307 C81.9454296,85.2831683 82.4132779,85.7873762 82.8811262,86.2915842 C84.9324611,88.9206683 86.228041,92.1980198 86.228041,95.799505 C86.228041,104.37104 79.2822931,111.357921 70.7170704,111.357921 C62.1518476,111.357921 55.1701114,104.407054 55.1701114,95.8355198 C55.1701114,87.2639851 62.1158593,80.277104 70.681082,80.277104 Z" id="Shape"></path>
                    <path d="M45.4172737,72.75 L45.3812854,44.1181931 C44.1576821,44.6584158 42.9700672,45.2346535 41.8184406,45.9189356 L41.8904173,70.4450495 C42.9700672,71.2013614 44.1576821,71.9936881 45.4172737,72.75 Z" id="Shape"></path>
                    <path d="M5.25429632,1.76472772 C5.65016796,1.83675743 6.01005127,1.90878713 6.40592291,2.01683168 C7.52156117,2.34096535 8.6012111,2.66509901 9.6448727,3.06126238 C10.1846977,3.27735149 10.7245226,3.52945545 11.2643476,3.78155941 C12.3799859,4.35779703 13.3876591,5.00606436 14.2873674,5.72636139 C15.4030057,6.62673267 16.4106789,7.63514851 17.2384105,8.71559406 C18.1381188,9.86806931 18.8938738,11.2006188 19.4696871,12.605198 C20.0814887,14.1178218 20.549337,15.774505 20.8372436,17.5752475 C21.1251503,19.4840347 21.2331153,21.6089109 21.1251503,23.8058168 L21.1251503,23.8418317 L21.1251503,29.2080446 C21.7369519,28.7398515 22.3847419,28.3076733 23.0325318,27.875495 C23.5723568,27.5153465 24.1481701,27.155198 24.7239834,26.7950495 L24.7239834,23.9138614 C24.8319484,21.4648515 24.7239834,19.1238861 24.4000884,16.9990099 C24.0761934,14.9101485 23.5363685,12.9653465 22.8166018,11.2006188 C22.4207302,10.2282178 21.9168936,9.29183168 21.3410803,8.42747525 C20.8012553,7.59913366 20.1534653,6.84282178 19.4696871,6.12252475 C18.7499204,5.33019802 17.4183522,4.50185644 17.4183522,4.14170792 C17.4183522,4.10569307 17.4543405,3.92561881 17.4903289,3.92561881 C17.4903289,3.92561881 17.5623055,3.85358911 17.7062588,3.78155941 C17.7782355,3.74554455 17.8862005,3.7095297 17.9941655,3.7095297 L32.7133929,3.74554455 L32.7133929,3.74554455 L33.2172295,3.74554455 L33.7210661,3.74554455 L33.7210661,3.74554455 L48.4402935,3.7095297 C48.5482585,3.7095297 48.6562235,3.74554455 48.7282001,3.78155941 C48.8721535,3.85358911 48.9441301,3.92561881 48.9441301,3.92561881 C48.9801185,3.92561881 49.0161068,4.14170792 49.0161068,4.14170792 C49.0161068,4.50185644 47.6845385,5.33019802 46.9647719,6.12252475 C46.2809936,6.84282178 45.6332037,7.59913366 45.0933787,8.42747525 C44.5175654,9.29183168 44.0137288,10.2282178 43.6178571,11.2006188 C42.8980905,12.9653465 42.3582656,14.9461634 42.0343706,16.9990099 C41.8904173,17.8993812 41.7824523,18.7997525 41.7464639,19.7721535 C42.9700672,19.4840347 44.1936704,19.1959158 45.4172737,18.9438119 C45.453262,18.4756188 45.5252387,18.0074257 45.5972153,17.5392327 C45.885122,15.7384901 46.316982,14.0818069 46.9647719,12.5691832 C47.4326202,11.4167079 48.0084335,10.3722772 48.6562235,9.39987624 C50.4196517,7.2029703 54.3783681,3.7095297 62.7276609,1.90878713 C62.9076025,1.87277228 63.1235325,1.83675743 63.3034742,1.80074257 C63.7353342,1.69269802 64.2751591,1.54863861 64.2751591,1.00841584 C64.2751591,0.396163366 63.4114392,0.324133663 62.8716142,0.324133663 L62.8716142,0.324133663 L62.6556842,0.324133663 L62.6196959,0.324133663 L55.3860414,0.360148515 L55.3860414,0.360148515 L54.3423798,0.360148515 L53.8025548,0.360148515 L33.6850778,0.360148515 L32.6414162,0.360148515 L12.5239392,0.360148515 L11.9841142,0.360148515 L10.652546,0.360148515 L8.96109441,0.360148515 L7.37760785,0.360148515 C6.98173621,0.360148515 6.54987624,0.324133663 6.1540046,0.324133663 C5.68615629,0.324133663 4.5345297,0.288118812 4.5345297,1.00841584 C4.67848303,1.44059406 4.96638967,1.69269802 5.25429632,1.76472772 Z" id="Shape"></path>
                    <path d="M104.15023,186.484901 L111.239931,186.484901 L112.139639,186.484901 L116.710157,186.484901 L119.229341,186.484901 C120.129049,186.484901 119.913119,185.908663 119.913119,185.908663 C116.710157,181.550866 116.566204,172.475124 116.566204,172.475124 L116.566204,166.244554 C114.262951,168.117327 111.635803,169.84604 108.756736,171.322649 C108.108946,171.646782 107.497145,171.970916 106.849355,172.259035 L106.849355,172.511139 C106.849355,172.511139 106.705401,181.550866 103.538428,185.944678 C103.466452,185.908663 103.250522,186.484901 104.15023,186.484901 Z" id="Shape"></path>
                    <path d="M32.0656029,55.3548267 C31.8856612,59.6405941 34.1169378,63.8183168 38.6874558,67.887995 L38.6874558,47.9717822 C36.0243193,49.952599 33.7570545,52.3295792 32.1015912,55.0667079 C32.0656029,55.1387376 32.0656029,55.2467822 32.0656029,55.3548267 Z" id="Shape"></path>
                    <path d="M123.044104,57.3356436 C127.398692,58.7402228 131.861245,59.8206683 136.575716,60.6850248 L143.521464,61.9095297 L140.138561,56.1471535 L140.138561,56.1471535 L140.138561,56.1111386 C137.583389,51.9694307 134.632346,48.1878713 131.32142,44.9105198 C133.804615,43.65 136.251821,42.1013614 138.231179,40.0485149 C143.809371,34.1780941 140.498444,27.9835396 138.914958,25.0303218 L135.711996,19.0518564 L135.388101,18.4756188 L132.976883,25.7506188 C132.18514,28.127599 129.953863,30.6126238 125.92317,31.9091584 L125.92317,31.9091584 L125.851193,31.9091584 C124.987473,32.1612624 124.087765,32.3773515 123.080092,32.5214109 C122.000442,32.6654703 120.812827,32.7735149 119.517247,32.7375 L119.481259,32.7375 C118.257656,32.7375 117.070041,32.6294554 115.918414,32.4133663 C112.607488,31.8371287 109.548479,30.9367574 106.597436,29.8923267 L106.597436,33.2056931 C109.296561,34.1060644 112.103651,34.8983911 115.162659,35.4386139 C116.458239,35.654703 117.897772,35.7987624 119.337306,35.7987624 L119.481259,35.7987624 C120.668874,35.7987624 121.856489,35.7267327 123.080092,35.5826733 C128.73026,34.8263614 134.164498,32.1252475 136.035891,26.5429455 C138.159203,30.5045792 139.490771,34.2861386 135.891938,38.1037129 C133.192813,40.9488861 129.342062,42.7136139 125.70724,44.1181931 C130.349735,48.007797 134.236475,52.6537129 137.331471,57.7318069 L137.331471,57.7678218 C132.40107,56.9034653 127.722587,55.7149752 123.080092,54.1663366 C121.892477,53.7701733 120.704862,53.337995 119.517247,52.869802 L119.517247,52.869802 C119.409282,60.5409653 116.890099,67.0236386 108.000981,67.0596535 C108.936678,64.8267327 109.33255,62.7378713 109.512491,60.3969059 C109.836386,56.0030941 108.504818,52.4376238 106.633425,48.8361386 L106.669413,70.3730198 C110.916036,70.2649752 114.586846,68.860396 117.393936,66.2673267 C118.221667,65.5110149 118.941434,64.6466584 119.589224,63.7102723 C120.848815,61.8375 121.784512,59.6045792 122.288349,57.1555693 C122.46829,57.1555693 122.756197,57.2636139 123.044104,57.3356436 Z" id="Shape"></path>
                    <path d="M82.9171146,1.69269802 C83.3129862,1.76472772 83.6728695,1.83675743 84.0687412,1.94480198 C85.1843794,2.26893564 86.2640293,2.59306931 87.3076909,2.98923267 C87.8475159,3.20532178 88.3873409,3.45742574 88.9271658,3.7095297 C90.0428041,4.28576733 91.0504774,4.93403465 91.9501856,5.65433168 C93.0658239,6.55470297 94.0734972,7.56311881 94.9012288,8.64356436 C95.8009371,9.7960396 96.556692,11.1285891 97.1325053,12.5331683 C97.7443069,14.0457921 98.2121552,15.7024752 98.5000619,17.5032178 C98.7879685,19.412005 98.8959335,21.5368812 98.7879685,23.7337871 L98.7879685,23.769802 L98.9319219,90.4332921 C99.9755835,90.8294554 101.055233,91.2616337 102.20686,91.657797 C102.314825,91.6938119 102.386802,91.7298267 102.494767,91.7658416 L102.494767,91.6217822 L102.42279,23.8778465 C102.530755,21.4288366 102.42279,19.0878713 102.098895,16.962995 C101.775,14.8741337 101.235175,12.9293317 100.515408,11.164604 C100.119537,10.192203 99.6157001,9.25581683 99.0398868,8.3914604 C98.5000619,7.56311881 97.8522719,6.80680693 97.1684936,6.0865099 C96.448727,5.29418317 95.1171588,4.46584158 95.1171588,4.10569307 C95.1171588,4.06967822 95.1531471,3.88960396 95.1891354,3.88960396 C95.1891354,3.88960396 95.2611121,3.81757426 95.4050654,3.74554455 C95.4770421,3.7095297 95.5850071,3.67351485 95.6929721,3.67351485 L110.412199,3.7095297 L110.412199,3.7095297 L110.916036,3.7095297 L111.419873,3.7095297 L111.419873,3.7095297 L126.1391,3.67351485 C126.247065,3.67351485 126.35503,3.7095297 126.427007,3.74554455 C126.57096,3.81757426 126.642937,3.88960396 126.642937,3.88960396 C126.678925,3.88960396 126.714913,4.10569307 126.714913,4.10569307 C126.714913,4.46584158 125.383345,5.29418317 124.663579,6.0865099 C123.9798,6.80680693 123.33201,7.56311881 122.792185,8.3914604 C122.216372,9.25581683 121.712535,10.192203 121.316664,11.164604 C120.596897,12.9293317 120.057072,14.9101485 119.733177,16.962995 C119.409282,19.0878713 119.301317,21.4288366 119.409282,23.8778465 L119.409282,30.7566832 L119.985095,30.7566832 C120.992769,30.7566832 122.000442,30.7206683 123.008115,30.5766089 L123.008115,23.8058168 L123.008115,23.769802 C122.90015,21.5368812 123.008115,19.4480198 123.296022,17.5392327 C123.583929,15.7384901 124.015789,14.0818069 124.663579,12.5691832 C125.131427,11.4167079 125.70724,10.3722772 126.35503,9.39987624 C128.118458,7.2029703 132.077175,3.7095297 140.426467,1.90878713 C140.606409,1.87277228 140.822339,1.83675743 141.002281,1.80074257 C141.434141,1.69269802 141.973966,1.54863861 141.973966,1.00841584 C141.973966,0.396163366 141.110246,0.324133663 140.570421,0.324133663 L140.570421,0.324133663 L140.354491,0.324133663 C140.354491,0.324133663 140.354491,0.324133663 140.318502,0.324133663 L133.084848,0.360148515 L132.041186,0.360148515 L131.501361,0.360148515 L111.383884,0.360148515 L110.340223,0.360148515 L90.2587341,0.360148515 L89.7189091,0.360148515 L88.3873409,0.360148515 L86.6958893,0.360148515 L85.1124028,0.360148515 C84.7165311,0.360148515 84.2846711,0.324133663 83.8887995,0.324133663 C83.4209512,0.324133663 82.2693246,0.288118812 82.2693246,1.00841584 C82.3053129,1.40457921 82.5932196,1.62066832 82.9171146,1.69269802 Z" id="Shape"></path>
                    <path d="M116.314286,21.4648515 C116.314286,21.4648515 116.458239,12.4251238 119.625212,8.03131188 C119.625212,8.03131188 119.841142,7.45507426 118.941434,7.45507426 L116.422251,7.45507426 L111.851733,7.45507426 L110.952024,7.45507426 L103.862323,7.45507426 C102.962615,7.45507426 103.178545,8.03131188 103.178545,8.03131188 C106.381506,12.3891089 106.52546,21.4648515 106.52546,21.4648515 L106.52546,27.5873762 C109.656444,28.7398515 112.823418,29.7842822 116.278297,30.3965347 L116.314286,21.4648515 Z" id="Shape"></path>
                    <path d="M116.350274,98.3925743 L116.350274,76.2434406 C113.723126,78.332302 110.412199,79.4847772 106.633425,79.5928218 L106.669413,93.350495 C110.124293,94.6830446 113.399231,96.4117574 116.350274,98.3925743 Z" id="Shape"></path>
                    <path d="M63.6273692,192.211262 C63.4474275,192.175248 63.2674859,192.103218 63.0515559,192.103218 C54.7022631,190.33849 50.7075583,186.84505 48.9801185,184.648144 C48.2963402,183.675743 47.7205269,182.595297 47.2526786,181.478837 C46.6408769,179.966213 46.1730286,178.30953 45.885122,176.508787 C45.5972153,174.6 45.4892504,172.475124 45.5972153,170.278218 L45.5972153,170.242203 L45.5972153,168.873639 C45.4892504,168.837624 45.3812854,168.837624 45.3093087,168.801609 C44.1576821,168.58552 43.0420438,168.44146 41.9983822,168.405446 L41.9983822,170.134158 C41.8904173,172.583168 41.9983822,174.924134 42.3222772,177.04901 C42.6461722,179.137871 43.1859972,181.082673 43.9057638,182.847401 C44.3016354,183.819802 44.8054721,184.756188 45.3812854,185.620545 C45.9211103,186.448886 46.5689003,187.205198 47.2526786,187.925495 C47.9724452,188.717822 49.3040134,189.546163 49.3040134,189.906312 C49.3040134,189.942327 49.2680251,190.122401 49.2320368,190.122401 C49.2320368,190.122401 49.1600601,190.194431 49.0161068,190.26646 C48.9441301,190.302475 48.8361651,190.33849 48.7282001,190.33849 L34.0089728,190.302475 L34.0089728,190.302475 L33.5051361,190.302475 L33.0012995,190.302475 L33.0012995,190.302475 L18.2820721,190.33849 C18.1741071,190.33849 18.0661421,190.302475 17.9941655,190.26646 C17.8502122,190.194431 17.7782355,190.122401 17.7782355,190.122401 C17.7422472,190.122401 17.7062588,189.906312 17.7062588,189.906312 C17.7062588,189.546163 19.0378271,188.717822 19.7575937,187.925495 C20.441372,187.205198 21.089162,186.448886 21.6289869,185.620545 C22.2048002,184.756188 22.7086368,183.819802 23.1045085,182.847401 C23.8242751,181.082673 24.3641001,179.101856 24.687995,177.04901 C25.01189,174.924134 25.119855,172.583168 25.01189,170.134158 L24.8679367,100.121287 C24.6160184,99.9412129 24.3641001,99.7971535 24.1121818,99.6170792 C23.3564268,99.1128713 22.6006719,98.5726485 21.8809052,98.0324257 C21.7009636,97.8883663 21.4850336,97.7443069 21.3050919,97.6002475 L21.3050919,97.7082921 L21.3050919,99.6170792 L21.3770686,170.206188 L21.3770686,170.242203 C21.4850336,172.475124 21.3770686,174.563985 21.089162,176.472772 C20.8012553,178.273515 20.3693953,179.930198 19.7575937,181.442822 C19.1817804,182.847401 18.4260255,184.17995 17.5263172,185.332426 C16.6985856,186.448886 15.6909123,187.457302 14.575274,188.321658 C13.6395774,189.041955 12.6319042,189.690223 11.5522542,190.26646 C11.0124293,190.554579 10.4726043,190.806683 9.93277935,191.022772 C8.85312942,191.45495 7.77347949,191.779084 6.69382956,192.067203 C6.33394625,192.175248 5.93807461,192.247277 5.54220297,192.319307 C5.21830799,192.391337 4.93040134,192.607426 4.93040134,192.967574 C4.93040134,193.687871 6.08202793,193.651856 6.54987624,193.651856 C6.94574788,193.651856 7.37760785,193.615842 7.77347949,193.615842 L9.35696605,193.615842 L11.0484176,193.615842 L12.3799859,193.615842 L12.9198108,193.615842 L33.0372878,193.615842 L34.0809494,193.615842 L54.1624381,193.615842 L54.7022631,193.615842 L55.7459247,193.615842 L55.7459247,193.615842 L62.9795792,193.651856 L63.0155675,193.651856 L63.2314975,193.651856 L63.2314975,193.651856 C63.7713225,193.651856 64.6350424,193.579827 64.6350424,192.967574 C64.5990541,192.463366 64.0592291,192.319307 63.6273692,192.211262 Z" id="Shape"></path>
                    <path d="M16.8785272,158.213243 C16.8425389,158.321287 16.8065506,158.465347 16.7345739,158.573391 C16.1947489,160.12203 15.8348656,161.706683 15.7269006,163.255322 C15.4749823,166.640718 16.3746906,169.413861 17.6702705,171.574752 C17.7062588,163.6875 17.7062588,158.033168 17.7062588,155.260025 C16.9505039,155.29604 16.1947489,155.29604 15.4030057,155.29604 C11.9841142,155.29604 8.6012111,155.043936 5.29028465,154.359653 C7.98940948,150.434035 12.7758575,147.120668 17.6702705,145.608045 L17.6702705,144.491584 C14.2513791,142.006559 7.0897012,134.623515 8.74516443,116.580074 C8.74516443,116.580074 11.9121376,121.406064 17.5982938,127.708663 L17.5982938,122.882673 C13.7115541,118.308787 11.5522542,115.031436 11.5162659,114.959406 L6.76580622,107.720421 L6.40592291,107.144183 L5.54220297,116.436015 C4.13865806,131.634282 8.63719943,139.989728 12.7758575,144.347525 C8.6012111,146.364356 4.93040134,149.353589 2.59115983,152.811015 L0.215929986,156.304455 L0.75575495,156.4125 L4.46255304,157.204827 C7.62952617,157.889109 11.1563826,158.213243 15.2950407,158.213243 C15.8348656,158.249257 16.3387023,158.249257 16.8785272,158.213243 Z" id="Shape"></path>
                    <path d="M99.0398868,166.13651 C100.26349,165.776361 101.451105,165.416213 102.63872,164.984035 C104.762031,164.227723 106.849355,163.327351 108.828713,162.282921 C111.671791,160.842327 114.226963,159.149629 116.494227,157.312871 L116.494227,153.387252 C112.607488,157.024752 107.82104,159.869926 102.63872,161.850743 C101.451105,162.318936 100.26349,162.715099 99.0398868,163.075248 C94.3254155,164.479827 89.4310025,165.200124 84.7525194,165.200124 C83.3129862,165.200124 81.8374646,165.128094 80.4339197,164.984035 C68.8096888,163.795545 49.5919201,157.456931 46.101052,156.808663 C45.9211103,156.772649 45.777157,156.736634 45.5972153,156.736634 C44.4096004,156.520545 43.1859972,156.4125 41.9983822,156.34047 L41.1346623,156.34047 C36.7800743,156.34047 32.7493812,157.637005 29.8703147,161.38255 C29.5824081,161.742698 29.3304897,162.102847 29.1145598,162.49901 L29.1145598,167.433045 C29.1145598,167.433045 30.3741513,165.776361 32.4254862,163.003218 C34.3688561,160.446163 37.0679809,159.257673 40.9547207,159.257673 C41.2786156,159.257673 41.6025106,159.257673 41.9623939,159.293688 C43.0060555,159.365718 44.1216938,159.473762 45.3093087,159.689851 C45.3812854,159.689851 45.453262,159.725866 45.561227,159.725866 C46.5689003,159.941955 48.8361651,160.590223 51.3913366,161.31052 C59.3447578,163.579455 71.328872,167.000866 79.8940948,167.865223 C81.4056047,168.009282 82.9531029,168.081312 84.5365895,168.081312 C89.3950141,168.153342 94.2894272,167.433045 99.0398868,166.13651 Z" id="Shape"></path>
                    <path d="M141.254199,192.139233 C141.074257,192.103218 140.894316,192.031188 140.678386,192.031188 C132.329093,190.26646 128.334388,186.77302 126.606948,184.576114 C125.92317,183.603713 125.347357,182.523267 124.879508,181.406807 C124.267707,179.894183 123.799859,178.2375 123.511952,176.436757 C123.224045,174.52797 123.11608,172.403094 123.224045,170.206188 L123.224045,170.170173 L123.080092,99.5810644 L123.080092,94.5389851 L123.080092,93.5305693 L123.044104,66.7355198 C122.720209,66.6274752 122.360325,66.5194307 122.03643,66.4113861 C121.568582,68.7523515 120.704862,70.8772277 119.517247,72.7139851 L119.553236,94.6110149 L119.553236,95.1512376 L119.553236,99.5810644 L119.625212,170.098144 C119.517247,172.547153 119.625212,174.888119 119.949107,177.012995 C120.273002,179.101856 120.812827,181.046658 121.532594,182.811386 C121.928465,183.783787 122.432302,184.720173 123.008115,185.58453 C123.54794,186.412871 124.19573,187.169183 124.879508,187.88948 C125.599275,188.681807 126.930843,189.510149 126.930843,189.870297 C126.930843,189.906312 126.894855,190.086386 126.858867,190.086386 C126.858867,190.086386 126.78689,190.158416 126.642937,190.230446 C126.57096,190.26646 126.462995,190.302475 126.35503,190.302475 L111.635803,190.26646 L111.635803,190.26646 L111.131966,190.26646 L110.628129,190.26646 L110.628129,190.26646 L95.9089021,190.302475 C95.8009371,190.302475 95.6929721,190.26646 95.6209954,190.230446 C95.4770421,190.158416 95.4050654,190.086386 95.4050654,190.086386 C95.3690771,190.086386 95.3330888,189.870297 95.3330888,189.870297 C95.3330888,189.510149 96.664657,188.681807 97.3844236,187.88948 C98.0682019,187.169183 98.7159919,186.412871 99.2558168,185.58453 C99.8316301,184.720173 100.335467,183.783787 100.731338,182.811386 C101.451105,181.046658 101.99093,179.065842 102.314825,177.012995 C102.458778,176.040594 102.566743,175.032178 102.63872,173.987748 C101.415117,174.419926 100.191513,174.816089 98.9319219,175.176238 C98.8959335,175.608416 98.8239569,176.040594 98.7519802,176.472772 C98.4640736,178.273515 98.0322136,179.930198 97.3844236,181.442822 C96.8086103,182.847401 96.0528554,184.17995 95.1531471,185.332426 C94.3254155,186.448886 93.3177422,187.457302 92.202104,188.321658 C91.3023957,189.041955 90.2587341,189.690223 89.1790842,190.26646 C88.6392592,190.554579 88.0994342,190.806683 87.5596093,191.022772 C86.4799593,191.45495 85.4003094,191.779084 84.3206595,192.067203 C83.9607762,192.175248 83.5649045,192.247277 83.1690329,192.319307 C82.8451379,192.391337 82.5572313,192.607426 82.5572313,192.967574 C82.5572313,193.687871 83.7088579,193.651856 84.1767062,193.651856 C84.5725778,193.651856 85.0044378,193.615842 85.4003094,193.615842 L86.983796,193.615842 L88.6752475,193.615842 L90.0068158,193.615842 L90.5466407,193.615842 L110.664118,193.615842 L111.707779,193.615842 L131.789268,193.615842 L132.329093,193.615842 L133.372755,193.615842 L133.372755,193.615842 L140.606409,193.651856 L140.642397,193.651856 L140.858327,193.651856 L140.858327,193.651856 C141.398152,193.651856 142.261872,193.579827 142.261872,192.967574 C142.261872,192.391337 141.686059,192.283292 141.254199,192.139233 Z" id="Shape"></path>
                    <path d="M112.463534,137.324629 C111.167954,134.65953 109.224585,132.13849 106.705401,129.869554 L106.74139,149.173515 C108.828713,147.264728 110.412199,144.995792 111.383884,142.474752 C112.067663,140.782054 112.391558,139.053342 112.463534,137.324629 Z" id="Shape"></path>
                    <path d="M39.0473391,186.556931 L41.5665223,186.556931 C42.4662306,186.556931 42.2503006,185.980693 42.2503006,185.980693 C39.0473391,181.622896 38.9033858,172.547153 38.9033858,172.547153 L38.9033858,168.477475 C27.7829915,169.125743 28.0349098,186.484901 28.0349098,186.484901 L39.0473391,186.556931 Z" id="Shape"></path>
                    <path d="M102.602732,152.198762 L102.530755,126.736262 C101.379128,125.97995 100.191513,125.295668 98.9679102,124.683416 L99.0038985,153.927475 C100.26349,153.387252 101.487093,152.811015 102.602732,152.198762 Z" id="Shape"></path>
                    <path d="M38.7234441,107.540347 C35.5204827,106.135767 32.2095562,104.515099 29.0065948,102.678342 L29.0425831,131.418193 C31.9576379,134.119307 35.1965877,136.856436 38.7954208,139.41349 L38.7234441,107.540347 Z" id="Shape"></path>
                    <path d="M41.9623939,108.908911 L41.9983822,141.574381 C43.1500088,142.330693 44.3376238,143.05099 45.561227,143.735272 L45.4892504,110.205446 C44.3376238,109.809282 43.1500088,109.377104 41.9623939,108.908911 Z" id="Shape"></path>
                </g>
            </g>
        </g>
    </g>
</svg>