<?xml version="1.0" encoding="utf-8"?>
<!-- Generator: Adobe Illustrator 21.0.0, SVG Export Plug-In . SVG Version: 6.00 Build 0)  -->
<svg version="1.1" id="Layer_1" xmlns="http://www.w3.org/2000/svg" xmlns:xlink="http://www.w3.org/1999/xlink" x="0px" y="0px"
	 viewBox="0 0 441.7 127" style="enable-background:new 0 0 441.7 127;" xml:space="preserve">
<style type="text/css">
	.st0{fill:#FFFFFF;}
	.st1{fill:none;stroke:#F3FF00;stroke-width:1.4045;stroke-miterlimit:10;}
	.st2{fill:none;stroke:#F3FF00;stroke-width:1.4679;stroke-miterlimit:10;}
</style>
<title>Group 11</title>
<desc>Created with Sketch.</desc>
<g id="hotsalvation">
	<g id="Desktop-HD" transform="translate(-143.000000, -3681.000000)">
		<g id="Group-11" transform="translate(142.000000, 3681.000000)">
			<g id="Page-1_1_" transform="translate(118.000000, 21.899481)">
				<path id="Fill-1_1_" class="st0" d="M65.7,54.7c-0.3,0.5-0.3,1.2-0.8,1.5c-0.1-0.3-0.1-0.7,0-1.1c-0.2-0.5-0.1-1-0.2-1.5
					c0-0.1-0.1-0.2-0.2-0.4c0-0.2,0-0.3,0-0.5c0-0.2-0.2-0.3-0.2-0.5c0-0.2,0-0.3,0-0.5c-0.1-0.4-0.3-0.9-0.5-1.3
					c-0.4-0.8-0.9-1.7-1.4-2.3c-0.2-0.3-0.5-0.6-0.7-0.8c-0.1-0.1-0.3-0.2-0.4-0.3c-0.1-0.1-0.2-0.2-0.3-0.3
					c-0.2-0.1-0.4-0.3-0.6-0.4v-0.3L59.1,46l0,0c-0.8-0.1-2.1-0.2-3.6-0.2c-1,0-2.2-0.1-3.4-0.1c-0.4,0-0.9,0-1.3,0
					c-0.3,0-0.6,0-0.9,0c-4.3-0.1-9-0.1-11.7-0.2l-0.3-2.5c3.1,0.1,7.8,0.1,8.3,0.2c0.5,0.1,1,0.1,1.4,0.2c0.1,0,0.2,0,0.3,0.1
					c0.2,0,1.3,0.1,2.7,0.1c0.4,0,0.8,0,1.3,0c1.1,0,2.3,0,3.4,0c2.1,0,4,0.1,4.9,0.1c0.2,0,0.4,0,0.4,0.1c1,0.6,2.3,1.7,3.2,3
					c0.3,0.4,0.5,0.8,0.8,1.3c0.1,0.1,0,0.3,0.1,0.4c0.1,0.3,0.3,0.6,0.4,0.8c0.1,0.4,0.1,0.7,0.3,1.1c0,0.5,0.2,1,0.2,1.5
					C65.8,52.8,65.8,53.8,65.7,54.7 M62.4,60c-0.4,0.7-1.1,1.5-2,2.2V48.3c0.4,0.3,0.8,0.6,1.1,1.1c0.6,0.8,1.2,1.8,1.5,2.6
					c0,0.1,0,0.3,0,0.4c0.1,0.5,0.4,1,0.5,1.5c0,0.1-0.1,0.3,0,0.4c0,0.3,0.1,0.6,0.2,1C63.5,56.8,63.3,58.5,62.4,60 M50.3,77.7
					c-0.1,0-0.1-0.1-0.1-0.1c0.4-0.4,0.8-0.8,1.1-1.4c0.2-0.4,0.6-0.9,0.7-1.4c0.3-1,0.1-2.7,0.1-3.9c0-0.4,0-1,0-1.8H52v-4.7v-1.4
					v-2.7l0.1,0c0-4.8,0-10.1,0-14c1.6,0,2.8,0,3.4,0c0,4.7,0,11.5,0,17.6c0,0,0,0-0.1,0v0.6l0.1-0.4c0,6,0,11.3,0,13.4
					C53.9,77.8,52,77.7,50.3,77.7 M49.9,5.3c0-0.1,0.1-0.1,0.1-0.1c1.7,0,3.6-0.1,5.2,0.1c-0.1,4.5,0,23,0,32.1
					c-0.9,0-2.1,0-3.4,0.1c0-7.6,0-22.9,0-25.5c0-1.2,0.2-2.9-0.1-3.9c-0.1-0.4-0.5-1-0.7-1.4C50.6,6.1,50.3,5.7,49.9,5.3
					 M39.5,63.5c-0.2,0.1-0.1,0.4-0.3,0.4c-1-2.7-2.2-5.2-2.9-7.8c0,0,0,0,0.1,0c0.2-0.1,0.2,0.2,0.4,0.3c1.3,1,2.5,2.2,3.8,3.2
					C40.3,61,39.7,62.2,39.5,63.5 M35.7,42.9c-0.1,0.8-0.2,1.6-0.5,2.4c-0.1,0.3-0.3,0.6-0.5,0.9c0,0-0.1,0.1-0.2,0.1
					c-0.7,0.6-1.6,1-2.3,0.7c-0.1-0.2-0.3-0.2-0.4-0.3c-0.1,0-0.1-0.1-0.2-0.1c-0.7-0.7-0.9-1.8-1.2-2.5c-0.1-0.8-0.1-1.7,0-2.6
					c0.1-0.9,0.4-1.7,0.8-2.5c0,0,0-0.1,0-0.1c0.1-0.1,0.1-0.3,0.2-0.4c0.2-0.3,0.5-0.4,0.8-0.6c0.2-0.1,0.5-0.2,0.7-0.3
					c0.3,0.1,0.7,0.2,1,0.3c0,0,0.1,0,0.1,0c1,0.9,1.3,2.1,1.5,3.1c0,0.1,0,0.3,0,0.4c0,0.3,0.1,0.6,0.1,0.9
					C35.7,42.6,35.7,42.7,35.7,42.9 M28.2,41.5c-1.6,0-3.3,0-4.6-0.1c-1,0-1.7,0-1.9-0.1c-0.6-0.1-1.2-0.1-1.7-0.2
					c-0.2,0-1.3-0.1-2.7-0.1c-1.4,0-3.2,0-4.9-0.1c-1.3,0-2.5,0-3.4-0.1c-0.5,0-1,0-1.3-0.1c-0.2,0-0.4,0-0.5-0.1
					c-0.2-0.1-0.4-0.2-0.6-0.4c-1.2-0.9-2.6-2.2-3.4-3.9c-0.1-0.1,0-0.3-0.1-0.4c-0.1-0.3-0.3-0.6-0.4-0.8c-0.1-0.4-0.1-0.7-0.3-1.1
					c0-0.5-0.2-1-0.2-1.5c-0.1-1,0-1.9,0.1-2.9c0.3-0.5,0.3-1.2,0.8-1.5c0.1,0.3,0.1,0.7,0,1.1c0.2,0.5,0.1,1,0.2,1.5
					c0,0.1,0.1,0.2,0.2,0.4c0,0.2,0,0.3,0,0.5c0,0.2,0.2,0.3,0.2,0.5c0,0.2,0,0.3,0,0.5C3.8,33.1,4,33.6,4.2,34
					c0.4,0.8,0.9,1.7,1.4,2.3c0.2,0.3,0.5,0.6,0.7,0.8c0.1,0.1,0.3,0.2,0.4,0.3c0.1,0.1,0.2,0.2,0.3,0.3c0.1,0.1,0.3,0.2,0.5,0.3
					c0,0,0.1,0,0.1,0.1c0.2,0.1,0.3,0.2,0.5,0.3c0.1,0.1,0.4,0.1,0.8,0.2c0.7,0.1,1.9,0.2,3.4,0.2c1.4,0.1,3.1,0.1,4.9,0.1
					c1.1,0,2.2,0,3.3,0.1c2.7,0,5.3,0.1,7.3,0.1l0,0.4c0.2,0,0.4,0,0.7,0c0,0.6-0.3,1.1-0.5,1.7C28.2,41.2,28.3,41.4,28.2,41.5
					 M7.5,77.7c-0.1,0-0.1-0.1-0.1-0.1c0.4-0.4,0.8-0.8,1.1-1.4c0.2-0.4,0.6-0.9,0.7-1.4c0.3-1,0.1-2.7,0.1-3.9c0-2.5,0-16,0-23.9
					c0.7,0,1.3,0,2,0.1c0.1,0,0.6,0,1.5-0.1c0,9.5,0,26.3,0,30.5C11.1,77.8,9.2,77.7,7.5,77.7 M5.7,24.5c0.4-0.7,1.1-1.6,2-2.2v13.9
					c-0.4-0.3-0.8-0.6-1.1-1.1c-0.6-0.8-1.2-1.8-1.5-2.6c0-0.1,0-0.3,0-0.4c-0.1-0.5-0.4-1-0.5-1.5c0-0.1,0.1-0.3,0-0.4
					c0-0.3-0.1-0.6-0.2-1C4.5,27.7,4.8,26,5.7,24.5 M7.1,5.3c0-0.1,0.1-0.1,0.1-0.1c1.7,0,3.6-0.1,5.2,0.1c0,2.1,0,7.4,0,13.3h0V19
					v1.1v0.4h0c0,6.4,0,13.1,0,17.5c-0.1,0-0.2,0-0.2,0c-0.8-0.1-1.7-0.3-2.4-0.5C9.5,37.3,9.2,37.2,9,37c0-3.1,0-7.3,0-11.4h0v-4.1
					v-1.6v-3l0,0c0-2.4,0-4.2,0-5C9,10.7,9.1,9,8.9,8C8.7,7.6,8.4,7,8.2,6.6C7.8,6.1,7.5,5.7,7.1,5.3 M28,20.6
					c0.2-0.1,0.1-0.4,0.3-0.4c1,2.7,2.2,5.2,2.9,7.8c0,0,0,0-0.1,0c-0.2,0.1-0.2-0.2-0.4-0.3c-1.3-1-2.5-2.2-3.8-3.2
					C27.1,23.1,27.7,21.9,28,20.6 M69.9,49.1c-0.1-0.2,0-0.4-0.1-0.7c0-0.2,0-0.5,0-0.7c-0.1-0.4-0.3-0.9-0.4-1.3c0-0.2,0-0.4,0-0.6
					c-0.1-0.2-0.3-0.5-0.3-0.7c-0.1-0.2,0-0.4-0.1-0.5c-0.4-0.9-1-2-1.6-2.7c-0.3-0.4-0.6-0.6-0.9-0.9c-0.2-0.2-0.3-0.4-0.4-0.6
					c-0.3-0.3-0.8-0.6-1.1-0.7c-0.3-0.2-0.6-0.5-0.8-0.7c-0.5-0.3-1.2-0.5-1.6-0.8c-0.8-0.2-1.6-0.5-2.5-0.6V13.9
					c0-1.8-0.1-3.7,0.2-5.1c0-0.2,0.2-0.3,0.2-0.4c0.1-0.2,0-0.4,0.1-0.6c0.2-0.4,0.5-0.7,0.6-1.1c0.4-0.4,1-0.8,1.5-1.1
					c0.1-0.1,0.2-0.2,0.3-0.2c1.3-0.6,3.4,0,5-0.3c0.1-0.2,0-0.4-0.1-0.8c-0.1-0.6,0-0.8-0.5-0.8c-1,0.1-2.1,0-3.2,0
					c-7.3,0-15.1-0.1-22.1,0.1c0,0.4-0.1,1.2,0.1,1.5c2.7,0.1,5.4,0.2,6.8,1.6c0.6,0.7,1,1.4,1.2,2.4c0.2,1,0.1,2.4,0.1,3.7v24.7
					c-4.7,0.1-10.6,0.2-13.1,0.2l0-0.4c-0.2,0-0.3,0-0.5,0.1c-0.2-0.1-0.5-0.1-0.6-0.2c-0.1-0.1-0.2-0.3-0.3-0.4
					c-0.1-0.1-0.3-0.2-0.5-0.3c-0.3-0.2-0.3-0.3-0.5-0.4c-0.1,0-0.2-0.1-0.2-0.2c-0.7-0.4-1.6-0.5-2.3-0.4c-1,0.2-1.9,1.1-2.4,1.7
					c-0.1,0.1-0.2,0.2-0.4,0.3c-0.2,0.3-0.3,0.4-0.5,0.4c-3.4,0-8.3,0-11.9,0.1V21.7c2.1,0.8,4.2,1.6,4.8,2c0.6,0.3,1.1,0.6,1.7,1
					c0.6,0.4,1.1,0.9,1.6,1.2c0,0.1,0.1,0.1,0.1,0.3c0.9,0.6,1.7,1.4,2.6,2.2c0.7,0.6,1.5,1.1,2.1,1.8c0.4,0.2,0.7,0.5,1,0.9
					c0.8,0.5,1.8,1.3,2.7,1.6c0.3,0.1,0.8,0.2,1.1,0c0.1-0.3-0.2-0.6-0.4-1c-0.6-1.2-1.1-2.6-1.6-4C32,25,31,22.4,29.9,19.7
					c-0.6-1.3-1-2.7-1.6-3.9c-0.8,0.3-1.3,1-1.5,1.5c-0.8,1.7-1.1,4.1-2,5.7c-0.8-0.2-5.1-1.8-7.5-2.7v-6.5c0-1.8-0.1-3.7,0.2-5.1
					c0-0.2,0.2-0.3,0.2-0.4c0.1-0.2,0-0.4,0.1-0.6c0.2-0.4,0.5-0.7,0.6-1.1c0.4-0.4,1-0.8,1.5-1.1c0.1-0.1,0.2-0.2,0.3-0.2
					c1.3-0.6,3.4,0,5-0.3c0.1-0.2,0-0.4-0.1-0.8c-0.1-0.6,0-0.8-0.5-0.8c-1,0.1-2.1,0-3.2,0c-7.3,0-15.1-0.1-22.1,0.1
					c0,0.4-0.1,1.2,0.1,1.5c2.7,0.1,5.4,0.2,6.8,1.6c0.6,0.7,1,1.4,1.2,2.4c0.2,1,0.1,2.4,0.1,3.7v7.8c-1.2,0.7-2.3,1.5-3.1,2.2
					c-0.4,0.3-0.8,0.6-1.1,0.8c-0.1,0.1-0.2,0.3-0.3,0.4c-0.2,0.2-0.3,0.2-0.5,0.4c-0.1,0.1-0.2,0.3-0.3,0.5
					c-0.2,0.2-0.4,0.3-0.5,0.4c-0.1,0.1-0.1,0.3-0.2,0.4c-0.1,0.1-0.2,0.2-0.3,0.3c-0.1,0.1-0.1,0.3-0.2,0.4
					c-0.1,0.1-0.3,0.2-0.4,0.3c-0.1,0.1-0.1,0.3-0.2,0.4c-0.3,0.5-0.5,1-0.9,1.4c-0.3,0.8-0.7,1.6-1,2.4c-0.4,1.4-0.4,2.8-0.4,4.3
					c0.1,0.2,0,0.4,0.1,0.7c0,0.2,0,0.5,0,0.7c0.1,0.4,0.3,0.9,0.4,1.3c0,0.2,0,0.4,0,0.6c0.1,0.2,0.3,0.5,0.3,0.7
					c0.1,0.2,0,0.4,0.1,0.5c0.4,0.9,1,2,1.6,2.7C1,43,1.3,43.2,1.6,43.5C1.7,43.6,1.8,43.9,2,44c0.3,0.3,0.8,0.6,1.1,0.7
					c0.3,0.2,0.6,0.5,0.8,0.7c0.5,0.3,1.2,0.5,1.6,0.8c0.8,0.2,1.7,0.5,2.5,0.6v23.2c0,1.3,0.1,2.7-0.1,3.7c-0.2,1-0.7,1.7-1.2,2.4
					c-1.5,1.3-4.1,1.5-6.8,1.6c-0.2,0.3-0.1,1.1-0.1,1.5c7.1,0.1,14.8,0.1,22.1,0.1c1.1,0,2.2-0.1,3.2,0c0.5,0,0.4-0.2,0.5-0.8
					c0.1-0.3,0.2-0.6,0.1-0.8c-1.6-0.3-3.8,0.3-5-0.3c-0.1,0-0.2-0.2-0.3-0.2c-0.6-0.3-1.2-0.6-1.5-1.1c-0.1-0.4-0.5-0.7-0.6-1.1
					c-0.1-0.2,0-0.4-0.1-0.6c-0.1-0.2-0.2-0.3-0.2-0.4c-0.3-1.4-0.2-3.3-0.2-5.1V47c3.9-0.1,8.6-0.2,11.5-0.2c0.6,0.9,1.3,1.7,1.9,2
					c0.3,0.2,0.5,0.3,0.8,0.4c0.4,0.2,0.5,0.1,0.9,0.1c0.1,0,0.2,0.1,0.4,0.1c0.1,0,0.3-0.1,0.4-0.1c0.4-0.1,0.9-0.3,1.4-0.5
					c0.6-0.3,0.9-0.7,1.2-1c0.1-0.1,0.3-0.3,0.4-0.4c0.1-0.2,0.3-0.6,0.5-0.8c3.3,0,9.5,0,13.8-0.1v16.2c-2.3-0.8-4.8-1.8-5.4-2.2
					c-0.6-0.3-1.1-0.6-1.7-1c-0.6-0.4-1.1-0.9-1.6-1.2c0-0.1-0.1-0.1-0.1-0.3c-0.9-0.6-1.7-1.4-2.6-2.2c-0.7-0.6-1.5-1.1-2.1-1.8
					c-0.4-0.2-0.7-0.5-1-0.9c-0.8-0.5-1.8-1.3-2.7-1.6c-0.3-0.1-0.8-0.2-1.1,0c-0.1,0.3,0.2,0.6,0.4,1c0.6,1.2,1.1,2.6,1.6,4
					c1.1,2.6,2.2,5.3,3.3,7.9c0.6,1.3,1,2.7,1.6,3.9c0.8-0.3,1.3-1,1.5-1.5c0.8-1.7,1.1-4.1,2-5.7c0.9,0.3,5.9,2.1,8.1,3v6.1
					c0,1.3,0.1,2.7-0.1,3.7c-0.2,1-0.7,1.7-1.2,2.4c-1.5,1.3-4.1,1.5-6.8,1.6c-0.2,0.3-0.1,1.1-0.1,1.5c7.1,0.1,14.8,0.1,22.1,0.1
					c1.1,0,2.2-0.1,3.2,0c0.5,0,0.4-0.2,0.5-0.8c0.1-0.3,0.2-0.6,0.1-0.8c-1.6-0.3-3.8,0.3-5-0.3c-0.1,0-0.2-0.2-0.3-0.2
					c-0.6-0.3-1.2-0.6-1.5-1.1c-0.1-0.4-0.5-0.7-0.6-1.1c-0.1-0.2,0-0.4-0.1-0.6c-0.1-0.2-0.2-0.3-0.2-0.4c-0.3-1.4-0.2-3.3-0.2-5.1
					v-5.1c1.2-0.7,2.3-1.5,3.1-2.2c0.4-0.3,0.8-0.6,1.1-0.8c0.1-0.1,0.2-0.3,0.3-0.4c0.2-0.2,0.3-0.2,0.5-0.4
					c0.1-0.1,0.2-0.3,0.3-0.5c0.2-0.2,0.4-0.3,0.5-0.4c0.1-0.1,0.1-0.3,0.2-0.4c0.1-0.1,0.2-0.2,0.3-0.3c0.1-0.1,0.1-0.3,0.2-0.4
					c0.1-0.1,0.3-0.2,0.4-0.3c0.1-0.1,0.1-0.3,0.2-0.4c0.3-0.5,0.5-1,0.9-1.4c0.3-0.8,0.7-1.6,1-2.4C69.9,52.1,69.9,50.6,69.9,49.1"
					/>
			</g>
		</g>
	</g>
</g>
<g>
	<g>
		<path class="st0" d="M358.6,35.1c1.2-0.6,2.5-1.1,3.9-1.5c0-0.9,0.3-3.6,1.3-5c0,0,0.1-0.2-0.3-0.2l-1,0l-1.8,0l-0.4,0l-2.8,0
			c-0.4,0-0.3,0.2-0.3,0.2c1.3,1.7,1.3,5.3,1.3,5.3L358.6,35.1z"/>
		<path class="st0" d="M365.1,33.7c-0.5,0.1-0.9,0.2-1.4,0.3c0,0,0,0-0.1,0c-2.4,0.6-4.7,1.6-6.7,2.9c-0.1,0.1-0.2,0.1-0.3,0.2
			c-0.4,0.3-0.8,0.5-1.1,0.8c-1.7,1.4-3.3,3.1-4.3,4.9c-1.1,2-1.8,4.6-1.8,7c0,3.3,1.5,6.4,4.5,9.2c0.5,0.5,1,0.9,1.6,1.3
			c0.4,0.3,0.9,0.7,1.4,1c0.4,0.3,0.8,0.5,1.3,0.8c1.5,0.9,3.6,1.9,5.2,2.5l0,0c0,0,0.1,0,0.2,0.1c0.2,0.1,0.4,0.1,0.6,0.2
			c1.2,0.4,3.5,1.4,5.2,3.1c0,0,0,0,0,0c1.4,1.6,3.4,2.6,5.6,2.6c1.5,0,2.9-0.5,4.1-1.2c0.8-0.1,2.8-0.2,5,0.7
			c0.9,0.4,1.7,0.7,2.1,0.9c0.5,0.2,1,0.5,1.4,0.8c0.2,0.1,0.4,0.2,0.5,0.4c0.5,0.4,1,0.8,1.4,1.2c2.5,2.4,3.4,5.5,2.3,8.5
			c-0.7,1.9-2.2,3.4-4.2,4.5c-0.4,0.2-0.9,0.4-1.4,0.6c-1.5,0.6-3.3,0.9-5.2,0.9c-5.5,0-10.5-2.1-14.8-4.1c-0.4-0.2-0.8-0.4-1.2-0.6
			c-0.5-0.3-1-0.5-1.4-0.8c-1.9-1.1-3.6-2.5-5.1-3.8l0,1.6c1.5,1.3,3.2,2.5,5.1,3.6c0.5,0.3,0.9,0.5,1.4,0.8
			c0.2,0.1,0.4,0.2,0.5,0.3c4.8,2.3,9.9,4.2,15.3,4.2c1.9,0,3.7-0.3,5.2-0.9c0.5-0.2,1-0.4,1.4-0.6c2.8-1.3,4.7-3.4,5.5-5.7l0-5.5
			c-0.7-1.9-2-3.7-4.2-5.2c-0.4-0.3-0.9-0.6-1.3-0.9c-0.5-0.3-0.9-0.5-1.4-0.7c-0.2-0.1-0.4-0.2-0.7-0.3l0,0c-1.8-1-3.6-1.3-4.9-1.4
			c1.1-1.3,1.7-2.9,1.7-4.7c0-0.6-0.1-1.2-0.2-1.8c1.4,0.9,2.7,1.4,3.3,1.6c0.3,0.1,0.5,0.2,0.7,0.3l0,0c0.4,0.1,0.8,0.3,1.2,0.4
			c0.1,0,0.1,0.1,0.2,0.1l0,0c2,0.7,3.9,1.8,5.4,3.1c0,0,0.1,0,0.1,0.1l0-1.6c-1.5-1.1-3.3-2.1-5.2-2.7c-0.1,0-0.2-0.1-0.3-0.1l0,0
			c-0.5-0.2-1-0.3-1.4-0.5l0,0c-0.2-0.1-0.4-0.2-0.7-0.3c-1.1-0.5-3-1.4-4.6-2.9c-0.3-0.4-0.6-0.7-0.9-1c0,0,0,0,0,0l0,0
			c-1.3-1.2-3-1.9-4.9-1.9c-1.3,0-2.4,0.3-3.5,0.9c-2.1,0.2-4.4-0.6-5.6-1.1c-0.5-0.2-0.8-0.4-0.9-0.5c-0.5-0.3-1-0.6-1.4-0.9
			c-0.9-0.6-1.7-1.2-2.3-1.8c-1.9-1.7-2.8-3.5-2.7-5.4c0.1-3.3,2.3-5.7,5-7.3c0.5-0.3,0.9-0.5,1.4-0.7c0.8-0.4,1.7-0.6,2.6-0.8
			c1.9-0.4,3.8-0.6,5.8-0.6c4.2,0,8.2,1.1,11.3,3c0-0.4,0-0.9,0-1.4c-3.3-1.8-7.3-2.7-11.2-2.7c-2.1,0-4.2,0.2-6.2,0.6
			c-0.8,0.2-1.6,0.4-2.3,0.7c-0.5,0.2-1,0.4-1.4,0.6c-3.4,1.7-6.1,4.7-6.2,8.7c-0.2,3.8,3,6.7,6.3,8.7c0.5,0.3,0.9,0.5,1.4,0.8
			c0.2,0.1,0.4,0.2,0.6,0.3c0.4,0.2,2.1,1,4.2,1.2c-1.3,1.3-2.2,3.2-2.2,5.2c0,0.8,0.1,1.5,0.3,2.2c-1.7-1-3.6-1.7-4.4-2
			c-2.2-0.9-4.6-2.1-6.7-3.6c-0.5-0.3-1-0.7-1.4-1.1c-2.8-2.4-4.8-5.3-4.8-9c0-2.1,0.6-4.5,1.6-6.4c0.8-1.4,1.9-2.7,3.1-3.9
			c0.5-0.4,0.9-0.8,1.4-1.2c0.1-0.1,0.3-0.2,0.4-0.3c1.9-1.2,4.1-2.2,6.3-2.8c0.1,0,0.2-0.1,0.3-0.1c0.4-0.1,0.7-0.2,1.1-0.3
			c2.3-0.5,4.7-0.7,7-0.7c2,0,3.9,0.2,5.8,0.6c2.7,0.5,4.9,1.2,6.8,2c0-0.4,0-0.9,0-1.3c-1.9-0.7-4-1.4-6.5-1.9
			c-2-0.4-4.1-0.6-6.1-0.6C369.8,33,367.4,33.2,365.1,33.7z M375.1,57.1c1.7,0,3.2,0.7,4.3,1.7c0.2,0.2,0.4,0.4,0.5,0.6
			c0.8,1,1.3,2.3,1.3,3.8c0,3.4-2.7,6.1-6.1,6.1s-6.1-2.7-6.1-6.1C369,59.9,371.7,57.1,375.1,57.1z"/>
		<path class="st0" d="M365.2,54.1l0-11.3c-0.5,0.2-1,0.4-1.4,0.7l0,9.7C364.2,53.5,364.6,53.8,365.2,54.1z"/>
		<path class="st0" d="M349.3,26.1c0.2,0,0.3,0.1,0.4,0.1c0.4,0.1,0.9,0.3,1.3,0.4c0.2,0.1,0.4,0.2,0.6,0.3c0.4,0.2,0.8,0.5,1.2,0.8
			c0.4,0.3,0.8,0.7,1.2,1.2c0.4,0.5,0.6,1,0.9,1.5c0.2,0.6,0.4,1.3,0.5,2c0.1,0.8,0.2,1.6,0.1,2.5l0,0l0,2.1
			c0.2-0.2,0.5-0.4,0.8-0.5c0.2-0.1,0.4-0.3,0.7-0.4l0-1.1c0-1,0-1.9-0.1-2.7c-0.1-0.8-0.3-1.6-0.6-2.3c-0.2-0.4-0.3-0.8-0.6-1.1
			c-0.2-0.3-0.5-0.6-0.7-0.9c-0.3-0.3-0.8-0.6-0.8-0.8c0,0,0-0.1,0-0.1c0,0,0,0,0.1-0.1c0,0,0.1,0,0.1,0l5.8,0v0l0.2,0l0.2,0v0
			l5.8,0c0,0,0.1,0,0.1,0c0.1,0,0.1,0.1,0.1,0.1c0,0,0,0.1,0,0.1c0,0.1-0.5,0.5-0.8,0.8c-0.3,0.3-0.5,0.6-0.7,0.9
			c-0.2,0.3-0.4,0.7-0.6,1.1c-0.3,0.7-0.5,1.5-0.6,2.3c-0.1,0.4-0.1,0.7-0.1,1.1c0.5-0.1,1-0.2,1.5-0.3c0-0.2,0-0.4,0.1-0.6
			c0.1-0.7,0.3-1.4,0.5-2c0.2-0.4,0.4-0.9,0.7-1.3c0.7-0.9,2.3-2.2,5.6-3c0.1,0,0.2,0,0.2,0c0.2,0,0.4-0.1,0.4-0.3
			c0-0.2-0.3-0.3-0.6-0.3l0,0c0,0-0.1,0-0.1,0l0,0l-2.9,0h0c-0.1,0-0.3,0-0.4,0c-0.1,0-0.1,0-0.2,0l-7.9,0l-0.4,0l-7.9,0
			c-0.1,0-0.1,0-0.2,0c-0.2,0-0.3,0-0.5,0c-0.2,0-0.4,0-0.7,0c-0.2,0-0.4,0-0.6,0c-0.2,0-0.3,0-0.5,0c-0.2,0-0.6,0-0.6,0.3
			C349,26,349.2,26.1,349.3,26.1z"/>
		<path class="st0" d="M388.4,99.1l2.8,0l0.4,0l1.8,0l1,0c0.4,0,0.3-0.2,0.3-0.2c-1.3-1.7-1.3-5.3-1.3-5.3l0-2.5
			c-0.9,0.7-2,1.4-3.1,2c-0.2,0.1-0.5,0.3-0.8,0.4l0,0.1c0,0-0.1,3.6-1.3,5.3C388.1,98.8,388,99.1,388.4,99.1z"/>
		<path class="st0" d="M359.9,47.3c-0.1,1.7,0.8,3.3,2.6,5l0-7.9c-1,0.8-2,1.7-2.6,2.8C359.9,47.2,359.9,47.2,359.9,47.3z"/>
		<path class="st0" d="M395.8,48.1c1.7,0.6,3.5,1,5.3,1.3l2.7,0.5l-1.3-2.3l0,0l0,0c-1-1.6-2.2-3.1-3.5-4.4c1-0.5,2-1.1,2.7-1.9
			c2.2-2.3,0.9-4.8,0.3-5.9l-1.3-2.4l-0.1-0.2l-1,2.9c-0.3,0.9-1.2,1.9-2.8,2.4l0,0c0,0,0,0,0,0c-0.3,0.1-0.7,0.2-1.1,0.2
			c-0.4,0.1-0.9,0.1-1.4,0.1l0,0c-0.5,0-1,0-1.4-0.1c-1.3-0.2-2.5-0.6-3.7-1l0,1.3c1.1,0.4,2.2,0.7,3.4,0.9c0.5,0.1,1.1,0.1,1.6,0.1
			c0,0,0,0,0.1,0c0.5,0,0.9,0,1.4-0.1c2.2-0.3,4.4-1.4,5.1-3.6c0.8,1.6,1.4,3.1-0.1,4.6c-1.1,1.1-2.6,1.8-4,2.4
			c1.8,1.5,3.4,3.4,4.6,5.4l0,0c-1.9-0.3-3.8-0.8-5.6-1.4c-0.5-0.2-0.9-0.3-1.4-0.5c0,0,0,0,0,0c0,3-1,5.6-4.6,5.6
			c0.4-0.9,0.5-1.7,0.6-2.6c0.1-1.7-0.4-3.1-1.1-4.6l0,8.5c1.7,0,3.1-0.6,4.2-1.6c0.3-0.3,0.6-0.6,0.9-1c0.5-0.7,0.9-1.6,1.1-2.6
			C395.6,48,395.7,48,395.8,48.1z"/>
		<path class="st0" d="M380,26.1c0.2,0,0.3,0.1,0.4,0.1c0.4,0.1,0.9,0.3,1.3,0.4c0.2,0.1,0.4,0.2,0.6,0.3c0.4,0.2,0.8,0.5,1.2,0.8
			c0.4,0.3,0.8,0.7,1.2,1.2c0.4,0.5,0.6,1,0.9,1.5c0.2,0.6,0.4,1.3,0.5,2c0.1,0.8,0.2,1.6,0.1,2.5l0,0l0.1,26.3
			c0.4,0.2,0.8,0.3,1.3,0.5c0,0,0.1,0,0.1,0l0-0.1l0-26.8c0-1,0-1.9-0.1-2.7c-0.1-0.8-0.3-1.6-0.6-2.3c-0.2-0.4-0.3-0.8-0.6-1.1
			c-0.2-0.3-0.5-0.6-0.7-0.9c-0.3-0.3-0.8-0.6-0.8-0.8c0,0,0-0.1,0-0.1c0,0,0,0,0.1-0.1c0,0,0.1,0,0.1,0l5.8,0v0l0.2,0l0.2,0v0
			l5.8,0c0,0,0.1,0,0.1,0c0.1,0,0.1,0.1,0.1,0.1c0,0,0,0.1,0,0.1c0,0.1-0.5,0.5-0.8,0.8c-0.3,0.3-0.5,0.6-0.7,0.9
			c-0.2,0.3-0.4,0.7-0.6,1.1c-0.3,0.7-0.5,1.5-0.6,2.3c-0.1,0.8-0.2,1.8-0.1,2.7l0,2.7c0.1,0,0.1,0,0.2,0c0.4,0,0.8,0,1.2-0.1l0-2.7
			l0,0c0-0.9,0-1.7,0.1-2.5c0.1-0.7,0.3-1.4,0.5-2c0.2-0.4,0.4-0.9,0.7-1.3c0.7-0.9,2.3-2.2,5.6-3c0.1,0,0.2,0,0.2,0
			c0.2,0,0.4-0.1,0.4-0.3c0-0.2-0.3-0.3-0.6-0.3l0,0c0,0-0.1,0-0.1,0c0,0,0,0,0,0l-2.9,0c-0.1,0-0.3,0-0.4,0c-0.1,0-0.1,0-0.2,0
			l-7.9,0l-0.4,0l-7.9,0c-0.1,0-0.1,0-0.2,0c-0.2,0-0.3,0-0.5,0c-0.2,0-0.4,0-0.7,0c-0.2,0-0.4,0-0.6,0c-0.2,0-0.3,0-0.5,0
			c-0.2,0-0.6,0-0.6,0.3C379.7,25.9,379.8,26,380,26.1z"/>
		<path class="st0" d="M393.2,33.9c0,0,0.1-3.6,1.3-5.3c0,0,0.1-0.2-0.3-0.2l-1,0l-1.8,0l-0.4,0l-2.8,0c-0.4,0-0.3,0.2-0.3,0.2
			c1.3,1.7,1.3,5.3,1.3,5.3l0,2.4c1.2,0.5,2.5,0.9,3.9,1.1L393.2,33.9z"/>
		<path class="st0" d="M393.2,64.3l0-8.8c-1,0.8-2.4,1.3-3.8,1.3l0,5.4C390.7,62.8,392,63.5,393.2,64.3z"/>
		<path class="st0" d="M372.3,101.3c-0.1,0-0.1,0-0.2,0c-3.3-0.7-4.9-2.1-5.6-2.9c-0.3-0.4-0.5-0.8-0.7-1.3c-0.2-0.6-0.4-1.3-0.5-2
			c-0.1-0.8-0.2-1.6-0.1-2.5l0,0l0-0.5c0,0-0.1,0-0.1,0c-0.5-0.1-0.9-0.1-1.3-0.2l0,0.7c0,1,0,1.9,0.1,2.7c0.1,0.8,0.3,1.6,0.6,2.3
			c0.2,0.4,0.3,0.8,0.6,1.1c0.2,0.3,0.5,0.6,0.7,0.9c0.3,0.3,0.8,0.6,0.8,0.8c0,0,0,0.1,0,0.1c0,0,0,0-0.1,0.1c0,0-0.1,0-0.1,0
			l-5.8,0v0l-0.2,0l-0.2,0v0l-5.8,0c0,0-0.1,0-0.1,0c-0.1,0-0.1-0.1-0.1-0.1c0,0,0-0.1,0-0.1c0-0.1,0.5-0.5,0.8-0.8
			c0.3-0.3,0.5-0.6,0.7-0.9c0.2-0.3,0.4-0.7,0.6-1.1c0.3-0.7,0.5-1.5,0.6-2.3c0.1-0.8,0.2-1.8,0.1-2.7L357,65
			c-0.1-0.1-0.2-0.1-0.3-0.2c-0.3-0.2-0.6-0.4-0.9-0.6c-0.1-0.1-0.2-0.1-0.2-0.2l0,0l0,0.7l0,27.9l0,0c0,0.9,0,1.7-0.1,2.5
			c-0.1,0.7-0.3,1.4-0.5,2c-0.2,0.6-0.5,1.1-0.9,1.5c-0.3,0.4-0.7,0.8-1.2,1.2c-0.4,0.3-0.8,0.5-1.2,0.8c-0.2,0.1-0.4,0.2-0.6,0.3
			c-0.4,0.2-0.9,0.3-1.3,0.4c-0.1,0-0.3,0.1-0.4,0.1c-0.1,0-0.2,0.1-0.2,0.3c0,0.3,0.5,0.3,0.6,0.3c0.2,0,0.3,0,0.5,0
			c0.2,0,0.4,0,0.6,0c0.2,0,0.4,0,0.7,0c0.2,0,0.3,0,0.5,0c0.1,0,0.1,0,0.2,0l7.9,0l0.4,0l7.9,0c0.1,0,0.1,0,0.2,0
			c0.1,0,0.3,0,0.4,0v0l2.9,0l0,0c0,0,0.1,0,0.1,0l0,0c0.2,0,0.6,0,0.6-0.3C372.7,101.4,372.5,101.4,372.3,101.3z"/>
		<path class="st0" d="M353.9,87.9c0,0,0,0.1-0.1,0.1c-0.2,0.6-0.4,1.2-0.4,1.8c-0.1,1.3,0.2,2.4,0.8,3.3c0-3.1,0-5.4,0-6.4
			c-0.3,0-0.6,0-0.9,0c-1.4,0-2.7-0.1-4-0.4c1.1-1.6,3-2.9,4.9-3.5l0-0.4c-1.3-1-4.2-3.9-3.5-11c0,0,1.2,1.9,3.5,4.4l0-1.9
			c-1.5-1.8-2.4-3.1-2.4-3.1l-1.9-2.9l-0.1-0.2l-0.3,3.7c-0.6,6,1.2,9.3,2.9,11c-1.6,0.8-3.1,2-4,3.3l-0.9,1.4l0.2,0l1.5,0.3
			c1.3,0.3,2.7,0.4,4.3,0.4C353.4,87.9,353.7,87.9,353.9,87.9z"/>
		<path class="st0" d="M386.3,91c0.5-0.1,1-0.3,1.4-0.5c0.8-0.3,1.7-0.7,2.4-1.1c1.1-0.6,2.1-1.2,3-2l0-1.5
			c-1.5,1.4-3.4,2.6-5.5,3.3c-0.5,0.2-0.9,0.3-1.4,0.5c-1.9,0.6-3.8,0.8-5.7,0.8c-0.6,0-1.1,0-1.7-0.1c-4.6-0.5-12.2-3-13.6-3.2
			c-0.1,0-0.1,0-0.2,0c-0.5-0.1-1-0.1-1.4-0.2c-0.1,0-0.2,0-0.3,0c-1.7,0-3.3,0.5-4.4,2c-0.1,0.1-0.2,0.3-0.3,0.4l0,2
			c0,0,0.5-0.7,1.3-1.7c0.8-1,1.8-1.5,3.4-1.5c0.1,0,0.3,0,0.4,0c0.4,0,0.9,0.1,1.3,0.2c0,0,0.1,0,0.1,0c0.4,0.1,1.3,0.3,2.3,0.6
			c3.1,0.9,7.9,2.2,11.3,2.6c0.6,0.1,1.2,0.1,1.8,0.1C382.5,91.8,384.5,91.6,386.3,91z"/>
		<path class="st0" d="M403,101.3c-0.1,0-0.1,0-0.2,0c-3.3-0.7-4.9-2.1-5.6-2.9c-0.3-0.4-0.5-0.8-0.7-1.3c-0.2-0.6-0.4-1.3-0.5-2
			c-0.1-0.8-0.2-1.6-0.1-2.5l0,0l-0.1-27.9l0-2l0-0.4l0-10.6c-0.1,0-0.3-0.1-0.4-0.1c-0.2,0.9-0.5,1.8-1,2.5l0,8.6l0,0.2l0,1.8
			l0,27.9c0,1,0,1.9,0.1,2.7c0.1,0.8,0.3,1.6,0.6,2.3c0.2,0.4,0.3,0.8,0.6,1.1c0.2,0.3,0.5,0.6,0.7,0.9c0.3,0.3,0.8,0.6,0.8,0.8
			c0,0,0,0.1,0,0.1c0,0,0,0-0.1,0.1c0,0-0.1,0-0.1,0l-5.8,0v0l-0.2,0l-0.2,0v0l-5.8,0c0,0-0.1,0-0.1,0c-0.1,0-0.1-0.1-0.1-0.1
			c0,0,0-0.1,0-0.1c0-0.1,0.5-0.5,0.8-0.8c0.3-0.3,0.5-0.6,0.7-0.9c0.2-0.3,0.4-0.7,0.6-1.1c0.3-0.7,0.5-1.5,0.6-2.3
			c0.1-0.4,0.1-0.8,0.1-1.2c-0.5,0.2-1,0.3-1.5,0.5c0,0.2,0,0.3-0.1,0.5c-0.1,0.7-0.3,1.4-0.5,2c-0.2,0.6-0.5,1.1-0.9,1.5
			c-0.3,0.4-0.7,0.8-1.2,1.2c-0.4,0.3-0.8,0.5-1.2,0.8c-0.2,0.1-0.4,0.2-0.6,0.3c-0.4,0.2-0.9,0.3-1.3,0.4c-0.1,0-0.3,0.1-0.4,0.1
			c-0.1,0-0.2,0.1-0.2,0.3c0,0.3,0.5,0.3,0.6,0.3c0.2,0,0.3,0,0.5,0c0.2,0,0.4,0,0.6,0c0.2,0,0.4,0,0.7,0c0.2,0,0.3,0,0.5,0
			c0.1,0,0.1,0,0.2,0l7.9,0l0.4,0l7.9,0c0.1,0,0.1,0,0.2,0c0.1,0,0.3,0,0.4,0v0l2.9,0l0,0c0,0,0.1,0,0.1,0l0,0c0.2,0,0.6,0,0.6-0.3
			C403.4,101.4,403.2,101.4,403,101.3z"/>
		<path class="st0" d="M391.7,79.7c-0.5-1.1-1.3-2.1-2.3-3l0,7.6c0.8-0.8,1.4-1.6,1.8-2.7C391.5,81,391.6,80.3,391.7,79.7z"/>
		<path class="st0" d="M362.6,99.1l1,0c0.4,0,0.3-0.2,0.3-0.2c-1.3-1.7-1.3-5.3-1.3-5.3l0-1.6c-4.4,0.3-4.3,7.1-4.3,7.1L362.6,99.1z
			"/>
		<path class="st0" d="M387.8,85.5l0-10.1c-0.5-0.3-0.9-0.6-1.4-0.8l0,11.6C386.8,86,387.3,85.8,387.8,85.5z"/>
		<path class="st0" d="M362.5,67.9c-1.3-0.6-2.6-1.2-3.8-1.9l0,11.3c1.1,1.1,2.4,2.2,3.9,3.2L362.5,67.9z"/>
		<path class="st0" d="M363.8,68.4l0,12.9c0.5,0.3,0.9,0.6,1.4,0.9l0-13.2C364.7,68.8,364.3,68.6,363.8,68.4z"/>
	</g>
</g>
<g id="Page-1" transform="translate(0.987910, 0.078711)">
	<g id="Group-3" transform="translate(0.000000, 0.269052)">
		<path id="Fill-1" class="st0" d="M7.7,80.4L7.7,80.4c0.4,0,0.3,0.4,0.4,0.5c1,1.8,1.8,3.7,2.8,5.5C10.1,88,8.8,89,8,90.4
			c-0.3,0-0.4,0.4-0.6,0.3C7.5,87.2,7.4,83.7,7.7,80.4L7.7,80.4z M29.5,73.4C29.5,73.4,29.5,73.4,29.5,73.4c0.7,0.3,1.6,1.2,2.4,1.9
			c0.8,0.7,1.6,1.4,2.1,2.1c0.4,0.5,0.7,1.1,0.9,1.6c0.4,0.8,0.9,1.9,1,3c0.1,1.2,0.2,2.7-0.1,3.8c0,0.2-0.2,0.3-0.2,0.5
			c-0.2,0.7-0.2,1.3-0.5,1.9c-0.1,0.2-0.2,0.3-0.3,0.4c-0.2,0.4-0.3,0.7-0.5,1.1c-1,1.6-2.4,3.3-4.3,4.3c-0.4,0.2-1,0.5-1.6,0.6
			L29.5,73.4z M31.7,70.6c0.1-0.4,0.3-0.7,0.6-0.7c0.2,0,0.7,0.4,0.9,0.6c0.9,0.7,1.8,1.4,2.6,2c0.6,0.5,1.2,0.9,1.7,1.4
			c0.5,0.6,0.9,1.2,1.3,1.7c0.9,1.8,1.7,4.4,1.4,7.1c0,0.2-0.1,0.3-0.2,0.5c-0.1,0.4-0.1,0.8-0.1,1.1c-0.1,0.5-0.3,0.8-0.4,1.4
			c-0.3,0.5-0.5,1.2-0.8,1.7c-0.6,1.1-1.2,2.1-1.9,3c-0.6,0.3-1.1,1-1.8,1.1c0-0.4,0.4-0.8,0.7-1.1c0.1-0.7,0.6-1.1,0.8-1.6
			c0.1-0.2,0-0.3,0-0.5c0.1-0.2,0.2-0.3,0.3-0.5c0.1-0.2,0-0.5,0.1-0.7c0.1-0.2,0.2-0.4,0.3-0.5c0.1-0.5,0.2-1.2,0.3-1.7
			c0.1-1,0.2-2.3,0-3.4c-0.1-0.4-0.1-0.9-0.2-1.2c0-0.2-0.2-0.4-0.3-0.5c-0.1-0.2,0-0.4-0.1-0.5c-0.2-0.5-0.5-1-0.8-1.5
			c-0.8-1.4-2.3-2.8-3.7-3.9c-0.8-0.7-1.5-1.1-2.4-1.6C30.6,71.5,31.2,71,31.7,70.6L31.7,70.6z M21.2,65.2c-0.1,0.2,0,0.4,0,0.6
			c-0.1,0.4-0.4,1.1-0.5,1.6c-0.3-0.1-0.6-0.2-0.9-0.4c-0.6-0.1-0.8-0.5-1.4-0.5c-0.6-0.5-1.2-0.8-1.9-1.1c-2.7-1.9-5.2-4.1-6.9-7
			c-0.1-0.5-0.6-1.1-0.8-1.6c-0.1-0.2,0-0.4,0-0.5c-0.1-0.2-0.3-0.4-0.3-0.6c-0.1-0.3,0-0.6-0.1-0.9c0-0.2-0.2-0.4-0.2-0.5
			c-0.1-0.6-0.1-1.6,0-2.3c0-0.3,0.2-0.6,0.2-0.9c0-0.3,0-0.7,0.1-1c0.1-0.2,0.2-0.3,0.3-0.5c0-0.2,0-0.4,0-0.5
			c0.1-0.2,0.2-0.3,0.3-0.5c0-0.1,0-0.3,0-0.4c0.1-0.2,0.2-0.2,0.3-0.4c0.2-0.4,0.2-0.7,0.5-1.1c0.1-0.1,0.2-0.1,0.3-0.2
			c0.2-0.3,0.6-0.8,0.9-1.1c0.2-0.1,0.4-0.2,0.6-0.3c0.1-0.1,0.3-0.2,0.4,0c-0.2,0.4-0.4,0.9-0.7,1.2c0,0.4-0.2,0.6-0.4,0.9
			c-0.4,1-0.5,2.2-0.6,3.4c-0.1,1.3,0.2,2.8,0.5,3.9c0.1,0.2,0.2,0.4,0.3,0.6c0.1,0.1,0,0.3,0.1,0.5c0.2,0.5,0.6,0.9,0.8,1.3
			c1.6,2.1,3.5,4.1,5.8,5.5c0.1,0,0.2,0.1,0.4,0c0.7,0.6,1.6,0.9,2.3,1.5c0.4,0.1,0.9,0.3,0.9,0.6C21.6,64.7,21.3,64.9,21.2,65.2
			L21.2,65.2z M5.4,90.5c0,1.8-0.1,3.5,0,5.2c1,0.1,1.9-0.6,2.4-1.1c1.7-1.6,3.1-4.2,4.9-5.6c1,0.9,2.1,1.9,3.1,3c1,1,2,2.2,3.2,3
			c0.6,0.4,1.3,0.6,2,0.9c0.2,0.1,0.3,0.2,0.5,0.3c0.3,0.1,0.6,0,0.9,0.1c0.2,0.1,0.4,0.2,0.5,0.2c0.3,0.1,0.6,0.1,0.9,0.1
			c0.7,0,1.5,0.1,2.3,0.1l1,23.8l1.1-23.9c0.6-0.1,1.3-0.1,1.8-0.2c0.6-0.1,1.2-0.1,1.7-0.2c0.2-0.1,0.4-0.2,0.6-0.2
			c0.3-0.1,0.5,0,0.8-0.1c0.2-0.1,0.4-0.2,0.6-0.3c0.3-0.1,0.6,0,0.8-0.1c0.2-0.1,0.3-0.2,0.5-0.3c0.2-0.1,0.3,0,0.5-0.1
			c0.2-0.1,0.3-0.2,0.5-0.3c0.2-0.1,0.5,0,0.6-0.1c0.2-0.1,0.3-0.2,0.5-0.3c0.6-0.3,1.2-0.7,1.8-0.9c0.8-0.7,1.8-1.2,2.6-1.9
			c1.3-1.2,2.3-2.7,3.2-4.3c0-0.3,0.2-0.5,0.4-0.8c0.1-0.3,0.3-0.6,0.4-0.8c0.2-0.5,0.3-1.1,0.5-1.6c0.1-0.2,0.3-0.4,0.3-0.6
			c0.1-0.3,0-0.7,0.1-1c0.1-0.2,0.2-0.4,0.2-0.6c0.2-1.2,0.2-2.8,0.1-3.9c0-0.7-0.3-1-0.4-1.5c-0.1-0.3,0-0.6-0.1-0.9
			c-0.1-0.5-0.5-1.1-0.6-1.5c-0.2-0.4-0.3-0.9-0.5-1.2c-0.4-0.7-0.9-1.2-1.2-1.9c-0.8-0.9-1.6-1.8-2.5-2.6c-0.9-0.8-2-1.4-2.9-2.2
			c-0.4-0.1-0.8-0.3-1.1-0.5c-0.4-0.2-0.7-0.5-1.1-0.6c-0.1,0-0.2,0-0.4,0c-0.2-0.1-0.3-0.2-0.4-0.3c-0.4-0.2-1-0.3-1.3-0.6
			c0-1.4-0.2-2.7-0.7-3.5c-0.2-0.4-0.3-0.6-0.6-1c-0.4-0.5-0.4-0.4-0.9-0.7c-0.1-0.1-0.2-0.3-0.3-0.3c-0.1,0-0.3-0.1-0.4-0.1v3.8
			c0.1,0.1,0.1,0.2,0.2,0.3c0.3,1.2-0.2,2.4-0.4,3.4c-0.5,1-1,2-1.7,2.8l1.5-32.2c0-0.1,0-0.2,0-0.3l-0.6,0.4
			c-0.7,0.3-1.5-0.1-2.1-0.9V24.9c0.2-0.3,0.4-0.5,0.6-0.8c0.2-0.2,0.4-0.4,0.6-0.5h4.4c0.2,0.1,0.4,0.3,0.6,0.5
			c1.3,1.3,1.5,3.2,0.7,4.7c0.4,0.1,1.8-0.6,2.5-1.8c0.6-1,0.7-2.2,0.3-3.3c1.1,0.4,2.4,0.5,3.5,0c0.8-0.3,1.4-0.9,2.1-1.3
			c-0.7-0.4-1.4-1-2.1-1.3c-1.1-0.5-2.4-0.4-3.5,0c0.3-1.1,0.3-2.3-0.3-3.3c-0.7-1.2-2-1.9-2.5-1.8c0.8,1.5,0.5,3.4-0.7,4.7
			c-0.2,0.2-0.4,0.4-0.6,0.5h-4.4c-0.2-0.1-0.4-0.3-0.6-0.5c-0.2-0.2-0.4-0.5-0.6-0.7v-4.2c0.2-0.3,0.4-0.5,0.6-0.8
			c1.3-1.3,3.2-1.5,4.7-0.7c0.1-0.4-0.6-1.8-1.8-2.5c-1-0.6-2.2-0.7-3.3-0.3c0.3-1.2,0.5-2.4,0-3.6c-0.3-0.8-0.9-1.4-1.3-2.1
			c-0.4,0.8-0.9,1.4-1.3,2.1c-0.5,1.1-0.4,2.4,0,3.6c-1.1-0.3-2.3-0.3-3.3,0.3c-1.2,0.7-1.9,2.1-1.8,2.5c1.5-0.8,3.4-0.5,4.6,0.7
			c0.2,0.2,0.3,0.3,0.4,0.5v4.6c-0.1,0.2-0.3,0.4-0.4,0.5c-0.2,0.2-0.4,0.4-0.6,0.5h-4.4c-0.2-0.1-0.4-0.3-0.6-0.5
			c-1.3-1.3-1.5-3.2-0.7-4.7c-0.4-0.1-1.8,0.6-2.5,1.8c-0.6,1-0.7,2.2-0.3,3.3c-1.1-0.4-2.4-0.5-3.5,0c-0.8,0.3-1.4,0.9-2.1,1.3
			c0.7,0.4,1.4,1,2.1,1.3c1.1,0.5,2.4,0.4,3.5,0c-0.3,1.1-0.3,2.3,0.3,3.3c0.7,1.2,2,1.9,2.5,1.8c-0.8-1.5-0.5-3.4,0.7-4.7
			c0.2-0.2,0.4-0.4,0.6-0.5h4.4c0.2,0.1,0.4,0.3,0.6,0.5c0.2,0.2,0.3,0.3,0.4,0.5v11.2c-0.5,0.7-1.2,0.9-1.9,0.7l-0.6-0.4
			c0,0.1,0,0.2,0,0.3l1.5,34.7c-0.2,0-0.5,0-0.7-0.1c-0.4-0.3-0.7-0.7-0.9-1.1c-0.4-1.4-0.2-2.6,0.2-3.8c-0.1-0.2-0.2-0.5-0.2-0.9
			v-6.6c0-0.2,0-0.5,0.1-0.6c-0.2-0.1-0.5-0.3-0.7-0.4c-2-1-3.6-2.1-5.1-3.6c-0.7-0.7-1.4-1.5-1.9-2.5c-0.1-0.1,0-0.3-0.1-0.5
			c-0.1-0.2-0.3-0.4-0.3-0.6c-0.2-0.8-0.4-1.5-0.3-2.4c0.1-3.2,2-5.8,4.5-6.8c0.7-0.3,1.8-0.5,2.8-0.5V39c-0.7,0-1.4,0-2,0
			c-0.6,0-1.1,0.3-1.7,0.4c-0.3,0.1-0.6,0-0.8,0.1c-0.2,0.1-0.5,0.2-0.7,0.3c-0.4,0.1-0.8,0-1.1,0.1c-0.2,0.1-0.3,0.2-0.5,0.3
			c-0.1,0-0.3,0-0.4,0c-0.5,0.2-0.9,0.6-1.4,0.7c-0.2,0.1-0.3,0-0.5,0.1c-0.4,0.2-0.9,0.7-1.3,1.1c-1.4,1.2-2.7,2.5-3.6,4
			c-0.2,0.3-0.4,0.6-0.6,0.9c0.1,0.3-0.2,0.5-0.4,0.8c-0.1,0.2,0,0.4-0.1,0.5c-0.1,0.2-0.2,0.3-0.3,0.5c-0.1,0.2,0,0.4-0.1,0.6
			C7.2,49.6,7,49.8,6.9,50c-0.1,0.3,0,0.6,0,0.9c-0.1,0.9-0.3,1.9-0.3,2.7c0,0.9,0.2,2.3,0.4,3.1C7,57,7.2,57.2,7.2,57.4
			c0,0.2,0,0.4,0,0.6c0.1,0.2,0.2,0.3,0.3,0.5c0.2,0.4,0.4,0.8,0.5,1.2c1.3,1.9,2.8,3.8,4.6,5.1c0.9,0.6,1.7,1.2,2.7,1.6
			c1.6,0.8,3.3,1.7,4.9,2.4c0.1,0.3,0.4,0.4,0.5,0.6c0.1,0.2,0,0.4,0,0.6c0,0.2,0.2,0.4,0.3,0.6c0.1,0.4,0.1,0.5,0.3,0.8
			c0.1,0.1,0.1,0.3,0.1,0.4c0.5,0.8,1.3,1.6,2.2,1.9c0.5,0.2,1,0.2,1.5,0.2L26.2,95c-0.4,0-0.8,0-1.2,0c-0.6-0.1-1.4-0.1-1.9-0.3
			c-0.2-0.1-0.3-0.2-0.6-0.3c-0.2-0.1-0.4,0-0.6-0.1c-0.2-0.1-0.3-0.3-0.5-0.3c-0.2-0.1-0.4,0-0.5-0.1c-0.5-0.2-0.9-0.6-1.4-0.8
			c-1.4-0.9-2.5-2-3.4-3.4c-0.5-0.6-1-1.3-1.4-2c-0.5-0.7-0.8-1.5-1.3-2.2c0-0.2-0.1-0.2,0-0.4c-0.7-1.2-1.3-2.5-1.9-3.7
			c-0.5-1-1.1-2-1.5-3.1c-0.3-0.4-0.6-0.9-0.8-1.5c-0.7-1-1.4-2.3-2.3-3.1c-0.3-0.3-0.8-0.6-1.3-0.5c-0.2,0.4,0,0.9,0,1.3
			c0.1,1.7,0,3.5,0,5.3C5.4,83.4,5.4,87,5.4,90.5L5.4,90.5z"/>
	</g>
	<path id="Fill-4" class="st0" d="M38,49.4c-0.5-0.1-0.7-0.6-1-1.1c-0.2-0.3-0.6-0.6-0.6-0.9c-0.4-1.3,0.6-2.3,1.6-2.6
		C38,46.2,37.9,48.1,38,49.4 M38.8,40.7c-0.4,0.5-0.9,0.9-1.3,1.4c-0.3,0.4-0.8,0.8-1.3,1.4c-0.4,0.4-1,1.3-1.4,1.3
		c-0.6,0.1-1-0.8-1.5-1c-0.5-0.4-0.9-0.7-1.4-1.1v2.6c1.4,1.3,2.5,2.8,3.4,4.6c1,1.6,1.8,3.4,3.3,4.5c0.5,0.4,0.9,0.8,1.7,0.9
		c0.1-4.9,0.1-10.9,0-15.7C39.5,39.6,39.2,40.3,38.8,40.7"/>
</g>
<g>
	<g>
		<polygon class="st0" points="262.2,25.7 253.8,25.7 253.8,75.3 262.2,71.3 		"/>
		<path class="st0" d="M253.7,25.7h8.5v0v0h0v45.7l-8.5,3.9V25.7L253.7,25.7z M253.8,75.2l8.4-3.9V25.7h-8.4V75.2L253.8,75.2z"/>
	</g>
	<g>
		<rect x="278" y="33.2" class="st0" width="8.5" height="68.7"/>
		<path class="st0" d="M278,101.9V33.2h8.5v68.7v0H278L278,101.9z M286.5,101.9L286.5,101.9L286.5,101.9L286.5,101.9z M278,101.9
			h8.4V33.3H278V101.9L278,101.9z"/>
	</g>
	<g>
		<polygon class="st0" points="253.8,26 253.8,25.5 288.7,25.5 288.7,26 253.8,26 		"/>
	</g>
	<g>
		<g>
			<polygon class="st0" points="253.8,101.8 253.8,101.1 262.5,101.1 262.5,101.8 253.8,101.8 			"/>
		</g>
		<g>
			<polygon class="st0" points="253.8,100.1 253.8,99.5 262.5,99.5 262.5,100.1 253.8,100.1 			"/>
		</g>
		<g>
			<polygon class="st0" points="253.8,98.5 253.8,97.8 262.5,97.8 262.5,98.5 253.8,98.5 			"/>
		</g>
		<g>
			<polygon class="st0" points="253.8,96.9 253.8,96.2 262.5,96.2 262.5,96.9 253.8,96.9 			"/>
		</g>
		<g>
			<polygon class="st0" points="253.8,95.2 253.8,94.6 262.5,94.6 262.5,95.2 253.8,95.2 			"/>
		</g>
		<g>
			<polygon class="st0" points="253.8,93.6 253.8,92.9 262.5,92.9 262.5,93.6 253.8,93.6 			"/>
		</g>
		<g>
			<polygon class="st0" points="253.8,92 253.8,91.3 262.5,91.3 262.5,92 253.8,92 			"/>
		</g>
		<g>
			<polygon class="st0" points="253.8,90.3 253.8,89.7 262.5,89.7 262.5,90.3 253.8,90.3 			"/>
		</g>
		<g>
			<polygon class="st0" points="253.8,88.7 253.8,88 262.5,88 262.5,88.7 253.8,88.7 			"/>
		</g>
		<g>
			<polygon class="st0" points="253.8,87.1 253.8,86.4 262.5,86.4 262.5,87.1 253.8,87.1 			"/>
		</g>
	</g>
	<g>
		<polygon class="st0" points="253.8,75.1 293.7,53.8 293.9,54.3 254,75.5 253.8,75.1 		"/>
	</g>
	<g>
		<path class="st0" d="M282.4,14"/>
	</g>
</g>
<g>
	<path class="st1" d="M320.7,87.7c-3.5-6.5-5.4-13.9-5.4-21.9c0-34.9,35.3-63.6,74.8-59.2c24.1,2.7,41,17.4,46.6,35.5"/>
	<path class="st2" d="M419.8,10.3c6.5,9.2,11.1,20.4,12.7,32.8c4.9,37.2-18,71.6-51.1,76.8c-24.7,3.9-48.2-9.6-60.5-32.2"/>
</g>
</svg>
