<?xml version="1.0" encoding="utf-8"?>
<!-- Generator: Adobe Illustrator 21.0.0, SVG Export Plug-In . SVG Version: 6.00 Build 0)  -->
<svg version="1.1" id="Layer_1" xmlns="http://www.w3.org/2000/svg" xmlns:xlink="http://www.w3.org/1999/xlink" x="0px" y="0px"
	 viewBox="0 0 561.5 526" style="enable-background:new 0 0 561.5 526;" xml:space="preserve">
<style type="text/css">
	.st0{fill:#FFFFFF;}
	.st1{stroke:#FFFFFF;stroke-miterlimit:10;}
</style>
<g>
	<path class="st0" d="M250.6,297.5c-0.5,0.2-0.9,0.6-1,1.3s-0.3,1.6-0.3,2.9v26.7c0,1.3,0.1,2.3,0.3,2.9c0.2,0.6,0.5,1,1,1.3
		c0.5,0.2,1.3,0.4,2.5,0.4v1.1c-1.9-0.1-4.9-0.2-9-0.2c-4.1,0-7.3,0.1-9.5,0.2V333c1.2-0.1,2-0.2,2.5-0.4c0.5-0.2,0.9-0.6,1-1.2
		s0.3-1.6,0.3-3v-12.9h-12.1v12.9c0,1.3,0.1,2.3,0.3,2.9c0.2,0.6,0.5,1,1.1,1.3c0.5,0.2,1.3,0.4,2.5,0.4v1.1c-2.1-0.1-5.1-0.2-9-0.2
		c-4.3,0-7.5,0.1-9.6,0.2V333c1.2-0.1,2-0.2,2.5-0.4c0.5-0.2,0.9-0.6,1-1.3c0.2-0.6,0.3-1.6,0.3-2.9v-26.7c0-1.3-0.1-2.3-0.3-2.9
		c-0.2-0.6-0.5-1-1.1-1.3c-0.5-0.2-1.3-0.4-2.5-0.4V296c2,0.1,5.2,0.2,9.6,0.2c3.9,0,6.9-0.1,9-0.2v1.1c-1.2,0.1-2,0.2-2.5,0.4
		s-0.9,0.6-1,1.3c-0.2,0.6-0.3,1.6-0.3,2.9v12.7h12.1v-12.7c0-1.3-0.1-2.3-0.3-2.9s-0.5-1-1-1.3c-0.5-0.2-1.3-0.4-2.5-0.4V296
		c2.2,0.1,5.4,0.2,9.5,0.2c4.1,0,7.1-0.1,9-0.2v1.1C252,297.1,251.2,297.3,250.6,297.5z"/>
	<path class="st0" d="M286.1,297.5c3,1.5,5.4,3.8,7.1,6.7c1.7,2.9,2.5,6.4,2.5,10.5c0,4-0.9,7.5-2.6,10.5c-1.7,3-4.1,5.4-7.2,7.1
		c-3.1,1.7-6.6,2.5-10.5,2.5c-4.1,0-7.6-0.8-10.7-2.3c-3-1.5-5.4-3.8-7.1-6.7c-1.7-2.9-2.5-6.4-2.5-10.5c0-4,0.9-7.5,2.6-10.5
		c1.7-3,4.1-5.4,7.2-7.1c3.1-1.7,6.6-2.5,10.5-2.5C279.5,295.2,283,296,286.1,297.5z M270.6,298.6c-1.3,1.6-2.4,3.8-3.1,6.7
		c-0.7,2.9-1.1,6.1-1.1,9.8c0,3.7,0.4,7,1.2,9.8c0.8,2.8,1.9,5,3.3,6.6c1.4,1.5,2.9,2.3,4.6,2.3c1.8,0,3.3-0.8,4.6-2.4
		c1.3-1.6,2.4-3.8,3.1-6.7c0.7-2.9,1.1-6.1,1.1-9.8c0-3.7-0.4-7-1.2-9.8s-1.9-5-3.3-6.6c-1.4-1.5-2.9-2.3-4.6-2.3
		C273.4,296.2,271.9,297,270.6,298.6z"/>
	<path class="st0" d="M298.7,306.6c0-3.1-0.1-6.7-0.4-10.7c3.4,0.1,9.3,0.2,17.6,0.2c8.3,0,14.1-0.1,17.5-0.2
		c-0.2,4-0.4,7.5-0.4,10.7c0,1.6,0.1,2.9,0.2,3.9H332c-1.2-4.7-2.7-8.1-4.6-10.2c-1.9-2.1-3.9-3.1-6-3.1h-0.1V328
		c0,1.5,0.2,2.6,0.5,3.3c0.3,0.7,0.9,1.1,1.7,1.4s2.1,0.3,3.8,0.3v1.1c-5-0.1-9-0.2-11.8-0.2c-2.5,0-6.2,0.1-11,0.2V333
		c1.7,0,3-0.1,3.8-0.3s1.4-0.7,1.7-1.4c0.3-0.7,0.5-1.8,0.5-3.3v-30.8h-0.1c-2.2,0-4.2,1-6,3.1s-3.4,5.5-4.6,10.2h-1.2
		C298.6,309.6,298.7,308.3,298.7,306.6z"/>
	<path class="st0" d="M25.4,428.6c2.6,4.5,6.6,6.8,12.1,6.8c3.4,0,6.1-0.8,8-2.4s2.9-3.8,2.9-6.6c0-2.4-0.5-4.6-1.6-6.5
		c-1.1-1.9-2.6-3.7-4.4-5.3c-1.8-1.6-4.3-3.4-7.3-5.4c-3.7-2.5-6.6-4.6-8.8-6.4c-2.2-1.8-3.9-3.9-5.4-6.4c-1.4-2.4-2.1-5.2-2.1-8.4
		c0-3.8,1-7,3.1-9.6c2.1-2.6,4.8-4.5,8.2-5.8c3.4-1.2,7.2-1.9,11.3-1.9c3.5,0,6.3,0.3,8.5,1c2.2,0.7,4.3,1.5,6.3,2.7
		c0.9,0.5,1.5,0.8,1.9,1c0.4,0.2,0.8,0.3,1.2,0.3c0.6,0,1-0.3,1.3-1c0.3-0.6,0.5-1.7,0.7-3.1h2.1c-0.3,4.4-0.4,11.8-0.4,22.3H61
		c-0.2-3.5-1-6.8-2.4-10c-1.4-3.2-3.2-5.8-5.5-7.8c-2.3-2-5-3-8-3c-2.8,0-5,0.7-6.7,2.2c-1.7,1.5-2.6,3.6-2.6,6.2
		c0,2.2,0.5,4.1,1.5,5.7c1,1.6,2.4,3.1,4.2,4.5c1.8,1.4,5.2,3.9,10.3,7.4c3.4,2.3,6,4.4,8,6.2c2,1.8,3.6,3.8,4.9,6.2
		c1.3,2.4,1.9,5.1,1.9,8.3c0,4-1.1,7.3-3.3,10c-2.2,2.7-5.2,4.8-9,6.1c-3.7,1.3-7.9,2-12.5,2c-3.7,0-6.8-0.3-9.3-0.9
		c-2.5-0.6-4.8-1.4-6.9-2.5c-1.4-0.9-2.4-1.3-3.1-1.3c-0.6,0-1,0.3-1.3,0.9c-0.3,0.6-0.6,1.7-0.8,3.1h-2.1
		c0.3-4.6,0.4-13.5,0.4-26.5h2.1C21.2,418.2,22.7,424.1,25.4,428.6z"/>
	<path class="st0" d="M128.9,433.5c1,0.9,1.9,1.4,2.8,1.5v1.8c-4.4-0.2-9.9-0.3-16.6-0.3c-7,0-12.1,0.1-15.3,0.3V435
		c2.3-0.1,3.9-0.4,4.9-0.8c1-0.5,1.5-1.3,1.5-2.5c0-0.9-0.4-2.4-1.1-4.3l-5.4-15H81.1l-1.6,4.1c-2,5.1-2.9,9.1-2.9,11.9
		c0,2.5,0.7,4.2,2.1,5.1s3.4,1.4,6.2,1.5v1.8c-4.6-0.2-8.5-0.3-12-0.3c-2.9,0-5.2,0.1-7,0.3V435c1.5-0.2,2.9-1.2,4.3-2.8
		c1.4-1.6,2.7-4.3,4.1-7.9l20.3-52.1c1.3,0.1,2.9,0.2,4.8,0.2c1.9,0,3.5-0.1,4.8-0.2l22.1,57C127.1,431.1,127.9,432.6,128.9,433.5z
		 M90.6,387.7l-8.8,22.8h17.1L90.6,387.7z"/>
	<path class="st0" d="M162.2,374.7c-1,0.4-1.7,1.1-2.1,2.1c-0.4,1-0.6,2.7-0.6,5V429c0,1.7,0.1,3,0.4,3.8c0.2,0.8,0.7,1.3,1.3,1.6
		s1.6,0.4,3,0.4h3c2.1,0,4.4-1.1,6.9-3.2c2.5-2.1,4.8-5,6.8-8.5c2-3.5,3.3-7.1,4-10.9h2.1c-0.2,2.2-0.3,5-0.3,8.4
		c0,6.6,0.2,12,0.6,16.3c-4.1-0.2-11.1-0.3-20.9-0.3c-14.2,0-24.9,0.1-32,0.3V435c2-0.1,3.4-0.3,4.3-0.7c0.9-0.4,1.5-1.1,1.8-2.1
		c0.3-1,0.5-2.7,0.5-5v-45.3c0-2.3-0.2-4-0.5-5c-0.3-1-0.9-1.8-1.8-2.1c-0.9-0.4-2.3-0.6-4.2-0.7v-1.8c3.5,0.2,8.9,0.3,16.3,0.3
		c7,0,12.4-0.1,16.1-0.3v1.8C164.8,374.1,163.2,374.3,162.2,374.7z"/>
	<path class="st0" d="M238.3,372.4c2.9,0,5.2-0.1,7-0.3v1.8c-1.6,0.8-3.3,2.2-4.9,4.3c-1.6,2.1-3,4.9-4.3,8.5l-17.8,50.1
		c-2-0.1-3.6-0.2-4.9-0.2c-1.2,0-2.8,0.1-4.7,0.2l-24-57c-0.8-2-1.7-3.4-2.6-4.3c-1-0.9-1.9-1.4-2.8-1.5v-1.8
		c4.4,0.2,10,0.3,16.6,0.3c6.9,0,12-0.1,15.3-0.3v1.8c-2.3,0.1-3.9,0.4-4.9,0.8c-1,0.4-1.5,1.3-1.5,2.5c0,1,0.4,2.5,1.1,4.3
		l15.8,38.9l8.8-24.9c2-5.7,3-10.2,3-13.6c0-5.3-2.5-8-7.4-8.2v-1.8C230.9,372.3,234.9,372.4,238.3,372.4z"/>
	<path class="st0" d="M296.7,433.5c1,0.9,1.9,1.4,2.8,1.5v1.8c-4.4-0.2-9.9-0.3-16.6-0.3c-7,0-12.1,0.1-15.3,0.3V435
		c2.3-0.1,3.9-0.4,4.9-0.8c1-0.5,1.5-1.3,1.5-2.5c0-0.9-0.4-2.4-1.1-4.3l-5.4-15h-18.4l-1.6,4.1c-2,5.1-2.9,9.1-2.9,11.9
		c0,2.5,0.7,4.2,2.1,5.1s3.4,1.4,6.2,1.5v1.8c-4.6-0.2-8.5-0.3-12-0.3c-2.9,0-5.2,0.1-7,0.3V435c1.5-0.2,2.9-1.2,4.3-2.8
		c1.4-1.6,2.7-4.3,4.1-7.9l20.3-52.1c1.3,0.1,2.9,0.2,4.8,0.2c1.9,0,3.5-0.1,4.8-0.2l22.1,57C294.8,431.1,295.7,432.6,296.7,433.5z
		 M258.4,387.7l-8.8,22.8h17.1L258.4,387.7z"/>
	<path class="st0" d="M297,390.3c0-5.3-0.2-11.4-0.6-18.1c5.8,0.2,15.8,0.3,29.9,0.3c14.1,0,24-0.1,29.8-0.3
		c-0.4,6.8-0.6,12.8-0.6,18.1c0,2.8,0.1,5,0.3,6.6h-2.1c-2-8-4.6-13.8-7.7-17.3c-3.2-3.5-6.6-5.3-10.2-5.3h-0.1v52.3
		c0,2.6,0.3,4.4,0.8,5.6c0.5,1.2,1.5,1.9,2.8,2.3c1.4,0.4,3.5,0.6,6.5,0.6v1.8c-8.6-0.2-15.2-0.3-20-0.3c-4.3,0-10.6,0.1-18.8,0.3
		V435c3,0,5.1-0.2,6.5-0.6c1.4-0.4,2.3-1.2,2.8-2.3s0.8-3,0.8-5.6v-52.3h-0.1c-3.7,0-7.1,1.7-10.3,5.2s-5.7,9.3-7.7,17.3h-2.1
		C297,395.3,297,393.1,297,390.3z"/>
	<path class="st0" d="M387.5,374.7c-0.9,0.4-1.5,1.1-1.8,2.1s-0.5,2.7-0.5,5v45.3c0,2.3,0.2,4,0.5,5c0.3,1,0.9,1.8,1.8,2.1
		c0.9,0.4,2.3,0.6,4.2,0.7v1.8c-3.6-0.2-8.7-0.3-15.3-0.3c-7.4,0-12.8,0.1-16.3,0.3V435c2-0.1,3.4-0.3,4.3-0.7
		c0.9-0.4,1.5-1.1,1.8-2.1c0.3-1,0.5-2.7,0.5-5v-45.3c0-2.3-0.2-4-0.5-5c-0.3-1-0.9-1.8-1.8-2.1c-0.9-0.4-2.3-0.6-4.2-0.7v-1.8
		c3.5,0.2,8.9,0.3,16.3,0.3c6.6,0,11.7-0.1,15.3-0.3v1.8C389.8,374.1,388.4,374.3,387.5,374.7z"/>
	<path class="st0" d="M447.2,374.8c5.2,2.6,9.2,6.4,12,11.4c2.9,5,4.3,10.9,4.3,17.8c0,6.7-1.5,12.7-4.4,17.8
		c-2.9,5.2-7,9.2-12.2,12c-5.2,2.9-11.2,4.3-17.9,4.3c-6.9,0-12.9-1.3-18.1-3.9c-5.2-2.6-9.2-6.4-12-11.4c-2.9-5-4.3-10.9-4.3-17.8
		c0-6.7,1.5-12.7,4.4-17.8c2.9-5.2,7-9.2,12.2-12c5.2-2.9,11.2-4.3,17.9-4.3C436,370.9,442,372.2,447.2,374.8z M420.8,376.6
		c-2.3,2.7-4,6.5-5.2,11.4c-1.2,4.9-1.9,10.4-1.9,16.7c0,6.3,0.7,11.9,2.1,16.7c1.4,4.8,3.3,8.6,5.7,11.2c2.4,2.6,5,3.9,7.9,3.9
		c3,0,5.6-1.4,7.9-4.1c2.3-2.7,4-6.5,5.2-11.4s1.9-10.4,1.9-16.7c0-6.3-0.7-11.9-2.1-16.7c-1.4-4.8-3.3-8.6-5.7-11.2
		c-2.4-2.6-5-3.9-7.9-3.9C425.7,372.5,423.1,373.9,420.8,376.6z"/>
	<path class="st0" d="M524.5,376c-0.9,0.9-1.5,2.3-1.8,4.1s-0.5,4.6-0.5,8.2v48.6c-0.9-0.1-1.9-0.1-3-0.1c-1.1,0-2.2,0-3.4,0.1
		l-40.5-44.2V419c0,4.5,0.2,7.7,0.5,9.7c0.4,2,1.2,3.4,2.4,4.3c1.2,0.9,3.3,1.6,6.3,2v1.8c-2.4-0.2-5.9-0.3-10.3-0.3
		c-3.2,0-5.7,0.1-7.6,0.3V435c1.9-0.4,3.3-1.1,4.2-2c0.9-0.9,1.5-2.3,1.8-4.1c0.3-1.8,0.5-4.6,0.5-8.2v-38.9c0-2.3-0.2-4-0.5-5
		c-0.3-1-0.9-1.8-1.8-2.1c-0.9-0.4-2.3-0.6-4.2-0.7v-1.8c1.8,0.2,4.4,0.3,7.6,0.3c3.4,0,6.2-0.1,8.4-0.3l37.3,39.5v-21.6
		c0-4.5-0.2-7.7-0.5-9.7c-0.4-2-1.2-3.4-2.4-4.3c-1.2-0.9-3.3-1.6-6.3-2v-1.8c2.5,0.2,5.9,0.3,10.2,0.3c3.2,0,5.8-0.1,7.6-0.3v1.8
		C526.8,374.4,525.4,375.1,524.5,376z"/>
	<path class="st0" d="M216.4,481h6.4c2.5,0,4.4,0.6,5.5,1.7c1.1,1.1,1.7,2.6,1.7,4.5c0,0.6-0.1,1.2-0.3,1.9s-0.5,1.2-0.9,1.7
		c-0.4,0.5-0.8,1-1.4,1.4c-0.5,0.4-1.2,0.7-1.8,0.8l5,9.7h-2.7l-4.8-9.6h-4.2v9.6h-2.5V481z M218.9,483.3v7.6h4.2
		c1.5,0,2.7-0.3,3.4-1c0.7-0.7,1-1.6,1-2.7c0-0.6-0.1-1.1-0.3-1.5s-0.4-0.9-0.8-1.2s-0.8-0.6-1.3-0.8c-0.6-0.2-1.2-0.3-2-0.3H218.9z
		"/>
	<path class="st0" d="M239.7,486.4c0.8,0,1.6,0.2,2.4,0.5c0.8,0.3,1.5,0.8,2.1,1.4c0.6,0.6,1.1,1.4,1.4,2.3c0.4,1,0.5,2.1,0.5,3.4
		c0,0.2,0,0.4,0,0.6c0,0.2,0,0.4-0.1,0.6h-11.3c0,1.1,0.2,2,0.6,2.8c0.3,0.8,0.8,1.4,1.3,1.8c0.5,0.5,1.1,0.8,1.7,1
		c0.6,0.2,1.3,0.3,1.9,0.3c1.6,0,3-0.6,4.1-1.8l1.4,1.4c-1.3,1.6-3.2,2.4-5.6,2.4c-1.2,0-2.2-0.2-3.2-0.5c-1-0.4-1.8-0.9-2.5-1.6
		c-0.7-0.7-1.2-1.6-1.6-2.6c-0.4-1-0.6-2.2-0.6-3.5c0-1.3,0.2-2.5,0.6-3.6c0.4-1,0.9-1.9,1.6-2.6c0.7-0.7,1.4-1.2,2.3-1.6
		C237.7,486.6,238.6,486.4,239.7,486.4z M234.9,493.1h8.7c0-0.1,0-0.2,0-0.3s0-0.2,0-0.3c0-0.6-0.1-1.1-0.3-1.6
		c-0.2-0.5-0.5-1-0.9-1.3c-0.4-0.4-0.8-0.7-1.3-0.9c-0.5-0.2-1-0.3-1.6-0.3c-1.1,0-2.1,0.4-3,1.1
		C235.7,490.2,235.1,491.4,234.9,493.1z"/>
	<path class="st0" d="M263.1,489.4l-1.8,2.1c-0.1-0.1-0.2-0.1-0.2-0.2s0-0.2,0-0.3c0-0.1-0.1-0.3-0.3-0.5c-0.1-0.2-0.4-0.5-0.8-0.8
		c-0.8-0.6-1.9-1-3.3-1c-0.7,0-1.3,0.1-1.9,0.4c-0.6,0.3-1.2,0.7-1.6,1.2c-0.5,0.5-0.8,1.1-1.1,1.9s-0.4,1.5-0.4,2.4
		s0.1,1.7,0.4,2.5s0.7,1.4,1.2,2s1.1,1,1.8,1.3s1.4,0.5,2.2,0.5c1.6,0,3-0.6,4.2-1.9l1.5,1.7c-1.6,1.7-3.5,2.5-5.8,2.5
		c-1.1,0-2.2-0.2-3.1-0.6c-1-0.4-1.8-1-2.5-1.7c-0.7-0.7-1.3-1.6-1.7-2.6c-0.4-1-0.6-2.1-0.6-3.3c0-1.2,0.2-2.3,0.6-3.3
		c0.4-1,0.9-1.9,1.7-2.6c0.7-0.7,1.6-1.3,2.5-1.7s2.1-0.6,3.2-0.6c1.3,0,2.4,0.3,3.4,0.8C261.7,487.8,262.5,488.5,263.1,489.4z"/>
	<path class="st0" d="M272.5,486.4c1,0,1.9,0.2,2.8,0.6c0.9,0.4,1.6,0.9,2.3,1.7c0.6,0.7,1.2,1.6,1.5,2.6c0.4,1,0.6,2.2,0.6,3.5
		c0,1.3-0.2,2.5-0.6,3.5c-0.4,1-0.9,1.9-1.5,2.6c-0.6,0.7-1.4,1.3-2.3,1.7c-0.9,0.4-1.8,0.6-2.8,0.6c-1,0-2-0.2-2.9-0.6
		c-0.9-0.4-1.7-1-2.3-1.7c-0.7-0.7-1.2-1.6-1.6-2.6s-0.6-2.1-0.6-3.3s0.2-2.3,0.6-3.3c0.4-1,0.9-1.9,1.6-2.7
		c0.7-0.7,1.5-1.3,2.4-1.7S271.6,486.4,272.5,486.4z M277.2,494.8c0-1-0.1-1.9-0.4-2.7c-0.3-0.8-0.6-1.4-1.1-2
		c-0.4-0.5-0.9-0.9-1.5-1.2c-0.6-0.3-1.2-0.4-1.8-0.4s-1.2,0.1-1.8,0.4c-0.6,0.3-1.1,0.7-1.5,1.2c-0.4,0.5-0.8,1.2-1,1.9
		c-0.3,0.8-0.4,1.6-0.4,2.6c0,0.9,0.1,1.8,0.4,2.5c0.3,0.8,0.6,1.4,1,2c0.4,0.6,0.9,1,1.5,1.3c0.6,0.3,1.2,0.5,1.8,0.5
		c0.6,0,1.3-0.1,1.8-0.4c0.6-0.3,1.1-0.7,1.5-1.2c0.4-0.5,0.8-1.2,1-1.9S277.2,495.8,277.2,494.8z"/>
	<path class="st0" d="M283.6,486.8h2.6l-0.1,3.1c0.5-1.1,1.3-2,2.3-2.6s2.2-0.9,3.4-0.9c1.7,0,3.1,0.6,4.3,1.7l-1.1,2.4
		c-0.3-0.3-0.5-0.6-0.7-0.9c-0.2-0.2-0.4-0.4-0.7-0.6c-0.2-0.2-0.5-0.3-0.8-0.4s-0.6-0.1-1.1-0.1c-0.8,0-1.5,0.2-2.2,0.5
		c-0.7,0.4-1.3,0.8-1.8,1.4s-0.9,1.3-1.2,2s-0.5,1.6-0.5,2.4v7.8h-2.5V486.8z"/>
	<path class="st0" d="M309.3,489.1v-9.6h2.7c0,0.1-0.1,0.3-0.2,0.5s-0.2,0.3-0.2,0.5l0,20.7c0,0.6,0.1,1,0.2,1.5h-2.5
		c-0.1-0.3-0.1-0.7-0.1-1.2v-1.4c-0.5,0.9-1.2,1.6-2.1,2.1c-0.9,0.5-1.8,0.8-2.7,0.8c-0.9,0-1.7-0.2-2.5-0.5c-0.8-0.3-1.5-0.9-2-1.6
		c-0.6-0.7-1.1-1.6-1.4-2.6c-0.3-1.1-0.5-2.3-0.5-3.7c0-1.5,0.2-2.7,0.6-3.7s0.9-1.9,1.5-2.5c0.6-0.7,1.3-1.1,2.1-1.5
		s1.6-0.5,2.4-0.5c1.1,0,2.1,0.2,2.9,0.7S308.9,488.3,309.3,489.1z M302,489.6c-1,0.9-1.5,2.4-1.5,4.6c0,2,0.4,3.6,1.1,4.8
		s1.9,1.8,3.3,1.8c0.3,0,0.7-0.1,1.1-0.2c0.4-0.1,0.8-0.3,1.1-0.6c0.3-0.3,0.7-0.6,0.9-0.9c0.3-0.3,0.5-0.7,0.6-1.2
		c0.3-0.8,0.4-2,0.4-3.3c0-0.9,0-1.6-0.1-2.2s-0.2-1.1-0.3-1.5c-0.1-0.4-0.3-0.8-0.6-1c-0.2-0.3-0.5-0.5-0.9-0.7
		c-0.4-0.3-0.8-0.4-1.2-0.6c-0.4-0.1-0.7-0.2-1-0.2c-0.7,0-1.2,0.1-1.7,0.3C302.9,488.8,302.4,489.1,302,489.6z"/>
	<path class="st0" d="M328,488.9l-1.5,2.2c-0.1,0-0.2-0.1-0.2-0.3s0-0.3-0.1-0.3c-0.4-0.5-1-1-1.8-1.5c-0.8-0.5-1.6-0.7-2.6-0.7
		c-0.4,0-0.9,0.1-1.3,0.2c-0.4,0.1-0.8,0.2-1.1,0.4c-0.3,0.2-0.6,0.4-0.8,0.7c-0.2,0.3-0.3,0.6-0.3,1c0,0.3,0.1,0.5,0.2,0.7
		c0.1,0.2,0.4,0.4,0.7,0.6c0.3,0.2,0.7,0.4,1.3,0.6c0.5,0.2,1.3,0.4,2.2,0.7c2,0.5,3.4,1.2,4.3,1.9s1.2,1.6,1.2,2.7
		c0,0.7-0.2,1.4-0.5,2c-0.3,0.6-0.7,1.2-1.3,1.6c-0.6,0.5-1.3,0.8-2.1,1.1c-0.8,0.3-1.7,0.4-2.7,0.4c-2.7,0-4.9-0.8-6.7-2.5l1.4-2.5
		c0.1,0.1,0.1,0.2,0.1,0.3s0.1,0.3,0.2,0.6c0.1,0.2,0.4,0.5,0.8,0.7c0.4,0.3,0.9,0.6,1.7,0.9c0.3,0.2,0.7,0.3,1.2,0.4
		c0.4,0.1,0.9,0.1,1.3,0.1c0.5,0,0.9-0.1,1.4-0.2c0.5-0.1,0.9-0.3,1.3-0.5s0.7-0.5,0.9-0.8c0.2-0.3,0.4-0.7,0.4-1.1
		c0-0.6-0.3-1.1-0.8-1.5c-0.6-0.4-1.6-0.9-3.1-1.3c-1-0.3-1.7-0.5-2-0.6c-0.8-0.3-1.4-0.6-1.8-0.9c-0.4-0.2-0.7-0.5-1-0.9
		c-0.3-0.3-0.5-0.7-0.7-1.2c-0.2-0.4-0.3-0.9-0.3-1.4c0-0.6,0.2-1.1,0.5-1.6s0.7-1,1.3-1.4c0.5-0.4,1.2-0.7,1.9-1
		c0.8-0.2,1.6-0.4,2.5-0.4C324.5,486.4,326.5,487.2,328,488.9z"/>
</g>
<g>
	<circle class="st1" cx="272.4" cy="120.7" r="112"/>
	<g>
		<path class="st0" d="M242.5,61.4c2.4-1.2,4.9-2.2,7.6-3c0.1-1.8,0.5-6.9,2.5-9.7c0,0,0.2-0.4-0.5-0.4l-1.9,0l-3.5,0l-0.7,0l-5.5,0
			c-0.7,0-0.5,0.4-0.5,0.4c2.5,3.4,2.6,10.3,2.6,10.3L242.5,61.4z"/>
		<path class="st0" d="M255.2,58.6c-0.9,0.2-1.8,0.4-2.7,0.6c0,0-0.1,0-0.1,0c-4.7,1.2-9.2,3.1-13.1,5.6c-0.2,0.1-0.4,0.2-0.6,0.4
			c-0.7,0.5-1.5,1-2.2,1.6c-3.3,2.7-6.3,6.1-8.3,9.6c-2.2,3.9-3.5,9-3.5,13.6c0,6.5,3,12.6,8.8,18c1,0.9,2,1.7,3.1,2.6
			c0.9,0.7,1.8,1.3,2.7,1.9c0.8,0.5,1.6,1.1,2.5,1.6c3,1.8,7,3.7,10.2,4.9l0,0c0,0,0.2,0,0.4,0.1c0.4,0.1,0.8,0.3,1.1,0.4
			c2.3,0.9,6.8,2.8,10.2,6c0,0,0,0,0,0c2.6,3.1,6.6,5.1,11,5.1c2.9,0,5.7-0.9,8-2.4c1.5-0.2,5.5-0.4,9.7,1.3
			c1.8,0.7,3.3,1.4,4.1,1.8c0.9,0.5,1.9,1,2.7,1.6c0.4,0.2,0.7,0.5,1.1,0.7c1,0.7,2,1.5,2.8,2.3c4.9,4.7,6.6,10.8,4.4,16.5
			c-1.5,3.7-4.3,6.7-8.2,8.8c-0.9,0.5-1.8,0.9-2.8,1.2c-3,1.1-6.4,1.8-10.1,1.8c-10.7,0-20.6-4-28.8-8c-0.8-0.4-1.5-0.8-2.3-1.1
			c-0.9-0.5-1.9-1-2.8-1.6c-3.7-2.2-7-4.8-10-7.4l0,3.2c3,2.5,6.3,4.9,10,7c0.9,0.5,1.8,1,2.8,1.5c0.4,0.2,0.7,0.4,1.1,0.5
			c9.3,4.4,19.3,8.2,29.9,8.2c3.8-0.1,7.2-0.7,10.2-1.7c1-0.3,1.9-0.7,2.8-1.1c5.4-2.5,9.1-6.6,10.7-11.1l0-10.7
			c-1.3-3.6-4-7.1-8.1-10.1c-0.9-0.6-1.7-1.2-2.6-1.7c-0.9-0.5-1.8-1-2.7-1.4c-0.3-0.2-0.8-0.3-1.3-0.6l0,0c-3.6-2-7-2.6-9.6-2.7
			c2.1-2.5,3.4-5.7,3.4-9.2c0-1.2-0.2-2.4-0.5-3.6c2.7,1.8,5.2,2.8,6.5,3.2c0.5,0.2,1,0.4,1.4,0.5l0,0c0.7,0.3,1.5,0.5,2.3,0.8
			c0.1,0.1,0.3,0.1,0.4,0.2l0,0c3.8,1.4,7.6,3.4,10.6,6c0.1,0,0.1,0.1,0.2,0.1l0-3.1c-3-2.2-6.5-4-10.2-5.3
			c-0.2-0.1-0.3-0.1-0.5-0.2l0,0c-1-0.3-1.9-0.7-2.7-1l0,0c-0.4-0.1-0.9-0.3-1.4-0.5c-2.1-0.9-5.9-2.8-9-5.7c-0.5-0.7-1.1-1.4-1.8-2
			c0,0-0.1-0.1-0.1-0.1l0,0c-2.5-2.3-5.9-3.7-9.6-3.7c-2.4,0-4.7,0.6-6.8,1.7c-4.2,0.5-8.5-1.1-10.9-2.2c-1-0.5-1.7-0.8-1.8-0.9
			c-1-0.5-1.9-1.1-2.7-1.7c-1.7-1.1-3.2-2.3-4.5-3.5c-3.6-3.4-5.4-6.9-5.3-10.6c0.3-6.4,4.4-11.2,9.7-14.3c0.9-0.5,1.8-1,2.8-1.4
			c1.6-0.7,3.3-1.2,5-1.6c3.7-0.8,7.5-1.2,11.4-1.2c8.2,0.1,16,2.1,22,5.8c0-0.7,0-1.7,0-2.8c-6.4-3.5-14.2-5.2-21.9-5.3
			c-4.1,0-8.1,0.4-12,1.3c-1.5,0.3-3,0.8-4.5,1.4c-0.9,0.4-1.9,0.8-2.8,1.2c-6.7,3.4-11.9,9.3-12.2,16.9c-0.3,7.4,5.8,13,12.3,16.9
			c0.9,0.6,1.8,1,2.7,1.6c0.4,0.2,0.8,0.4,1.1,0.6c0.7,0.4,4.1,2,8.2,2.3c-2.6,2.6-4.2,6.2-4.2,10.2c0,1.5,0.2,2.9,0.6,4.2
			c-3.4-2-6.9-3.2-8.7-3.9c-4.3-1.8-8.9-4.1-13-7.1c-0.9-0.7-1.9-1.4-2.7-2.1c-5.5-4.6-9.4-10.4-9.4-17.5c0-4.1,1.1-8.8,3.2-12.5
			c1.5-2.7,3.7-5.3,6.1-7.6c0.9-0.8,1.8-1.6,2.8-2.2c0.3-0.2,0.6-0.4,0.8-0.6c3.7-2.4,8-4.3,12.3-5.4c0.2-0.1,0.4-0.1,0.7-0.2
			c0.7-0.2,1.4-0.3,2.1-0.5c4.5-1,9.1-1.4,13.6-1.4c3.8,0,7.6,0.4,11.4,1.1c5.3,0.9,9.5,2.4,13.3,3.9c0-0.8,0-1.7,0-2.6
			c-3.6-1.4-7.7-2.7-12.7-3.6c-4-0.7-8-1.1-11.9-1.1C264.3,57.2,259.7,57.7,255.2,58.6z M274.7,104.3c3.2,0,6.2,1.3,8.4,3.4
			c0.3,0.4,0.7,0.8,1.1,1.2c1.6,2,2.6,4.6,2.6,7.3c0,6.6-5.4,12-12,12c-6.6,0-12-5.4-12-12S268.1,104.3,274.7,104.3z"/>
		<path class="st0" d="M255.3,98.5l0-22.1c-0.9,0.4-1.9,0.9-2.8,1.4l0,18.9C253.4,97.3,254.3,97.9,255.3,98.5z"/>
		<path class="st0" d="M224.3,43.8c0.3,0.1,0.6,0.1,0.9,0.2c0.8,0.2,1.7,0.5,2.5,0.8c0.4,0.2,0.8,0.4,1.3,0.6
			c0.9,0.4,1.6,0.9,2.3,1.5c0.9,0.7,1.6,1.5,2.3,2.3c0.7,0.9,1.3,1.9,1.7,3c0.5,1.2,0.8,2.5,1,3.8c0.2,1.5,0.3,3.1,0.2,4.8l0,0
			l0,4.1c0.5-0.4,1-0.7,1.5-1c0.4-0.3,0.9-0.6,1.3-0.8l0-2.2c0.1-1.9,0-3.7-0.3-5.3c-0.2-1.6-0.7-3.1-1.2-4.5
			c-0.3-0.7-0.7-1.5-1.1-2.1c-0.4-0.6-0.9-1.2-1.4-1.8c-0.6-0.6-1.6-1.2-1.6-1.5c0,0,0-0.2,0.1-0.2c0,0,0.1-0.1,0.2-0.1
			c0.1,0,0.1,0,0.2,0l11.4,0v0l0.4,0l0.4,0v0l11.4,0c0.1,0,0.2,0,0.2,0c0.1,0,0.2,0.1,0.2,0.1c0,0,0.1,0.2,0.1,0.2
			c0,0.3-1,0.9-1.6,1.5c-0.5,0.6-1,1.1-1.4,1.8c-0.5,0.7-0.8,1.4-1.1,2.1c-0.6,1.4-1,2.9-1.2,4.5c-0.1,0.7-0.2,1.4-0.2,2.1
			c0.9-0.2,1.9-0.4,2.8-0.6c0-0.4,0.1-0.7,0.1-1.1c0.2-1.4,0.6-2.7,1-3.8c0.4-0.9,0.8-1.7,1.3-2.5c1.3-1.7,4.4-4.4,10.9-5.8
			c0.1,0,0.3-0.1,0.4-0.1c0.3-0.1,0.8-0.2,0.8-0.6c0-0.5-0.7-0.5-1.1-0.5l0,0c-0.1,0-0.1,0-0.2,0l0,0l-5.6,0h0c-0.3,0-0.5,0-0.8,0
			c-0.1,0-0.3,0-0.4,0l-15.5,0l-0.8,0l-15.5,0c-0.1,0-0.3,0-0.4,0c-0.3,0-0.7,0-1,0c-0.4,0-0.9,0-1.3,0c-0.4,0-0.8,0-1.2,0
			c-0.3,0-0.6,0-0.9,0c-0.4,0-1.3,0-1.2,0.5C223.8,43.5,224,43.7,224.3,43.8z"/>
		<path class="st0" d="M300.6,186.2l5.5,0l0.7,0l3.5,0l1.9,0c0.7,0,0.5-0.4,0.5-0.4c-2.5-3.4-2.6-10.3-2.6-10.3l0-4.8
			c-1.8,1.5-3.8,2.8-6,3.9c-0.5,0.3-1,0.5-1.5,0.7l0,0.2c0,0-0.1,7-2.6,10.4C300.1,185.8,299.9,186.2,300.6,186.2z"/>
		<path class="st0" d="M245,85.1c-0.1,3.3,1.6,6.5,5.1,9.7l0-15.4c-2,1.5-3.8,3.4-5.1,5.5C245,84.9,245,85,245,85.1z"/>
		<path class="st0" d="M315.2,86.6c3.4,1.1,6.8,1.9,10.4,2.6l5.4,0.9l-2.6-4.4l0,0l0,0c-2-3.2-4.2-6.1-6.8-8.6
			c1.9-1,3.8-2.2,5.3-3.8c4.3-4.5,1.8-9.3,0.5-11.6l-2.5-4.6l-0.2-0.4l-1.9,5.6c-0.6,1.8-2.3,3.8-5.4,4.7l0,0c0,0,0,0-0.1,0
			c-0.7,0.2-1.4,0.4-2.1,0.5c-0.8,0.1-1.7,0.2-2.7,0.2l0,0c-0.9,0-1.9-0.1-2.8-0.2c-2.6-0.5-4.9-1.1-7.2-2l0,2.5
			c2.1,0.7,4.2,1.3,6.6,1.7c1,0.2,2.1,0.3,3.2,0.3c0,0,0.1,0,0.1,0c0.9,0,1.8-0.1,2.8-0.2c4.4-0.6,8.6-2.7,10-7
			c1.6,3.1,2.7,6-0.1,8.9c-2.1,2.2-5.1,3.5-7.9,4.6c3.6,3,6.6,6.6,9,10.5l0,0c-3.8-0.7-7.4-1.6-11-2.8c-0.9-0.3-1.8-0.6-2.8-1
			c0,0,0,0,0,0c-0.1,5.9-2,10.9-8.9,10.9c0.7-1.7,1-3.3,1.2-5.1c0.2-3.4-0.8-6.1-2.2-8.9l0,16.6c3.3-0.1,6.1-1.2,8.3-3.2
			c0.6-0.6,1.2-1.3,1.7-2c1-1.5,1.7-3.2,2.1-5.1C314.7,86.5,314.9,86.6,315.2,86.6z"/>
		<path class="st0" d="M284.2,43.7c0.3,0.1,0.6,0.1,0.9,0.2c0.8,0.2,1.7,0.5,2.5,0.8c0.4,0.2,0.8,0.4,1.3,0.6
			c0.9,0.4,1.6,0.9,2.3,1.5c0.9,0.7,1.6,1.5,2.3,2.3c0.7,0.9,1.3,1.9,1.7,3c0.5,1.2,0.8,2.5,1,3.8c0.2,1.5,0.3,3.1,0.2,4.8l0,0
			l0.1,51.4c0.8,0.3,1.6,0.6,2.5,0.9c0.1,0,0.1,0.1,0.2,0.1l0-0.1l0-52.2c0.1-1.9,0-3.7-0.3-5.3c-0.2-1.6-0.7-3.1-1.2-4.5
			c-0.3-0.7-0.7-1.5-1.1-2.1c-0.4-0.6-0.9-1.2-1.4-1.8c-0.6-0.6-1.6-1.2-1.6-1.5c0,0,0-0.2,0.1-0.2c0,0,0.1-0.1,0.2-0.1
			c0.1,0,0.1,0,0.2,0l11.4,0v0l0.4,0l0.4,0v0l11.4,0c0.1,0,0.2,0,0.2,0c0.1,0,0.2,0.1,0.2,0.1c0,0,0.1,0.2,0.1,0.2
			c0,0.3-1,0.9-1.6,1.5c-0.5,0.6-1,1.1-1.4,1.8c-0.5,0.7-0.8,1.4-1.1,2.1c-0.6,1.4-1,2.9-1.2,4.5c-0.3,1.6-0.3,3.4-0.3,5.3l0,5.3
			c0.1,0,0.3,0,0.4,0c0.8,0,1.6,0,2.3-0.2l0-5.2l0,0c-0.1-1.7,0-3.3,0.2-4.8c0.2-1.4,0.6-2.7,1-3.8c0.4-0.9,0.8-1.7,1.3-2.5
			c1.3-1.7,4.4-4.4,10.9-5.8c0.1,0,0.3-0.1,0.4-0.1c0.3-0.1,0.8-0.2,0.8-0.6c0-0.5-0.7-0.5-1.1-0.5l0,0c-0.1,0-0.1,0-0.2,0
			c0,0,0,0,0,0l-5.6,0c-0.3,0-0.5,0-0.8,0c-0.1,0-0.3,0-0.4,0l-15.5,0l-0.8,0l-15.5,0c-0.1,0-0.3,0-0.4,0c-0.3,0-0.7,0-1,0
			c-0.4,0-0.9,0-1.3,0c-0.4,0-0.8,0-1.2,0c-0.3,0-0.6,0-0.9,0c-0.4,0-1.3,0-1.2,0.5C283.7,43.5,283.9,43.7,284.2,43.7z"/>
		<path class="st0" d="M310,59c0,0,0.1-7,2.6-10.4c0,0,0.2-0.4-0.5-0.4l-1.9,0l-3.5,0l-0.7,0l-5.5,0c-0.7,0-0.5,0.4-0.5,0.4
			c2.5,3.4,2.6,10.3,2.6,10.3l0,4.7c2.4,0.9,4.9,1.7,7.5,2.2L310,59z"/>
		<path class="st0" d="M310,118.3l0-17.1c-2,1.6-4.6,2.5-7.5,2.6l0,10.6C305.2,115.4,307.7,116.7,310,118.3z"/>
		<path class="st0" d="M269.3,190.6c-0.1,0-0.3-0.1-0.4-0.1c-6.4-1.4-9.5-4.1-10.9-5.7c-0.5-0.8-1-1.6-1.3-2.5
			c-0.5-1.2-0.8-2.5-1-3.8c-0.2-1.5-0.3-3.1-0.2-4.8l0,0l0-1c-0.1,0-0.2,0-0.2,0c-0.9-0.2-1.8-0.3-2.5-0.3l0,1.3
			c-0.1,1.9,0,3.7,0.3,5.3c0.2,1.6,0.7,3.1,1.2,4.5c0.3,0.7,0.7,1.5,1.1,2.1c0.4,0.6,0.9,1.2,1.4,1.8c0.6,0.6,1.6,1.2,1.6,1.5
			c0,0,0,0.2-0.1,0.2c0,0-0.1,0.1-0.2,0.1c-0.1,0-0.1,0-0.2,0l-11.4,0l0,0l-0.4,0l-0.4,0v0l-11.4,0c-0.1,0-0.2,0-0.2,0
			c-0.1,0-0.2-0.1-0.2-0.1c0,0-0.1-0.2-0.1-0.2c0-0.3,1-0.9,1.6-1.5c0.5-0.6,1-1.1,1.4-1.8c0.5-0.7,0.8-1.4,1.1-2.1
			c0.6-1.4,1-2.9,1.2-4.5c0.3-1.6,0.3-3.4,0.3-5.3l-0.1-54c-0.2-0.1-0.4-0.3-0.6-0.4c-0.6-0.4-1.2-0.8-1.7-1.2
			c-0.1-0.1-0.3-0.2-0.4-0.3l0,0.1l0,1.5l0.1,54.4l0,0c0.1,1.7,0,3.3-0.2,4.8c-0.2,1.4-0.6,2.7-1,3.8c-0.5,1.1-1,2.1-1.7,3
			c-0.7,0.9-1.4,1.6-2.3,2.3c-0.7,0.6-1.5,1.1-2.3,1.5c-0.4,0.2-0.8,0.4-1.2,0.6c-0.8,0.3-1.7,0.6-2.5,0.8c-0.3,0.1-0.6,0.1-0.9,0.2
			c-0.2,0.1-0.5,0.2-0.5,0.5c0,0.5,0.9,0.5,1.3,0.5c0.3,0,0.6,0,0.9,0c0.4,0,0.8,0,1.2,0c0.4,0,0.9,0,1.3,0c0.3,0,0.7,0,1,0
			c0.1,0,0.3,0,0.4,0l15.5,0l0.8,0l15.5,0c0.1,0,0.3,0,0.4,0c0.3,0,0.5,0,0.8,0v0l5.6,0l0,0c0,0,0.1,0,0.2,0h0
			c0.4,0,1.1-0.1,1.1-0.5C270.1,190.8,269.7,190.7,269.3,190.6z"/>
		<path class="st0" d="M233.2,164.4c0,0.1-0.1,0.2-0.1,0.3c-0.4,1.2-0.7,2.4-0.8,3.6c-0.2,2.6,0.5,4.7,1.5,6.4c0-6.1,0-10.5,0-12.6
			c-0.6,0-1.2,0-1.8,0c-2.6,0-5.3-0.2-7.8-0.7c2.1-3,5.8-5.6,9.6-6.7l0-0.8c-2.6-1.9-8.2-7.6-6.9-21.5c0,0,2.4,3.7,6.8,8.6l0-3.7
			c-3-3.5-4.7-6-4.7-6.1l-3.7-5.6l-0.3-0.4l-0.7,7.2c-1.1,11.7,2.4,18.2,5.6,21.5c-3.2,1.6-6,3.9-7.9,6.5l-1.8,2.7l0.4,0.1l2.9,0.6
			c2.4,0.5,5.2,0.8,8.4,0.8C232.4,164.4,232.8,164.4,233.2,164.4z"/>
		<path class="st0" d="M296.6,170.5c0.9-0.3,1.9-0.6,2.8-0.9c1.6-0.6,3.2-1.3,4.8-2.1c2.2-1.1,4.2-2.4,5.9-3.8l0-3
			c-3,2.8-6.7,5-10.7,6.5c-0.9,0.3-1.8,0.7-2.8,0.9c-3.6,1.1-7.4,1.6-11,1.6c-1.1,0-2.2-0.1-3.3-0.2c-9-0.9-23.8-5.8-26.5-6.3
			c-0.1,0-0.3,0-0.4-0.1c-0.9-0.2-1.9-0.3-2.8-0.3c-0.2,0-0.4,0-0.7,0c-3.4,0-6.5,1-8.7,3.9c-0.2,0.3-0.4,0.6-0.6,0.9l0,3.8
			c0,0,1-1.3,2.6-3.4c1.5-2,3.6-2.9,6.6-2.9c0.3,0,0.5,0,0.8,0c0.8,0,1.7,0.1,2.6,0.3c0.1,0,0.1,0,0.2,0c0.8,0.2,2.5,0.7,4.5,1.2
			c6.1,1.8,15.4,4.4,22,5.1c1.2,0.1,2.4,0.2,3.6,0.2C289.2,172.1,293,171.5,296.6,170.5z"/>
		<path class="st0" d="M329.2,190.6c-0.1,0-0.3-0.1-0.4-0.1c-6.4-1.4-9.5-4.1-10.9-5.7c-0.5-0.8-1-1.6-1.3-2.5
			c-0.5-1.2-0.8-2.5-1-3.8c-0.2-1.5-0.3-3.1-0.2-4.8l0,0l-0.1-54.4l0-3.9l0-0.8l0-20.7c-0.3-0.1-0.5-0.2-0.8-0.3
			c-0.4,1.8-1,3.4-2,4.9l0,16.9l0,0.4l0,3.4l0,54.4c-0.1,1.9,0,3.7,0.3,5.3c0.2,1.6,0.7,3.1,1.2,4.5c0.3,0.7,0.7,1.5,1.1,2.1
			c0.4,0.6,0.9,1.2,1.4,1.8c0.6,0.6,1.6,1.2,1.6,1.5c0,0,0,0.2-0.1,0.2c0,0-0.1,0.1-0.2,0.1c-0.1,0-0.1,0-0.2,0l-11.4,0v0l-0.4,0
			l-0.4,0v0l-11.4,0c-0.1,0-0.2,0-0.2,0c-0.1,0-0.2-0.1-0.2-0.1c0,0-0.1-0.2-0.1-0.2c0-0.3,1-0.9,1.6-1.5c0.5-0.6,1-1.1,1.4-1.8
			c0.5-0.7,0.8-1.4,1.1-2.1c0.6-1.4,1-2.9,1.2-4.5c0.1-0.7,0.2-1.5,0.2-2.3c-0.9,0.3-1.9,0.6-2.9,0.9c0,0.3-0.1,0.7-0.1,1
			c-0.2,1.4-0.6,2.7-1,3.8c-0.5,1.1-1,2.1-1.7,3c-0.6,0.9-1.4,1.6-2.3,2.3c-0.7,0.6-1.5,1.1-2.3,1.5c-0.4,0.2-0.8,0.4-1.2,0.6
			c-0.8,0.3-1.7,0.6-2.5,0.8c-0.3,0.1-0.6,0.1-0.9,0.2c-0.2,0.1-0.5,0.2-0.5,0.5c0,0.5,0.9,0.5,1.3,0.5c0.3,0,0.6,0,0.9,0
			c0.4,0,0.8,0,1.2,0c0.4,0,0.9,0,1.3,0c0.3,0,0.7,0,1,0c0.1,0,0.3,0,0.4,0l15.5,0l0.8,0l15.5,0c0.1,0,0.3,0,0.4,0
			c0.3,0,0.5,0,0.8,0v0l5.6,0l0,0c0,0,0.1,0,0.2,0l0,0c0.4,0,1.1-0.1,1.1-0.5C330,190.8,329.6,190.7,329.2,190.6z"/>
		<path class="st0" d="M307,148.3c-1-2.1-2.5-4-4.4-5.8l0,14.9c1.6-1.5,2.8-3.2,3.6-5.2C306.7,151,306.9,149.6,307,148.3z"/>
		<path class="st0" d="M250.4,186.3l1.9,0c0.7,0,0.5-0.4,0.5-0.4c-2.5-3.4-2.6-10.3-2.6-10.3l0-3.1c-8.6,0.5-8.4,13.9-8.4,13.9
			L250.4,186.3z"/>
		<path class="st0" d="M299.4,159.8l0-19.6c-0.9-0.6-1.8-1.1-2.8-1.6l0,22.6C297.6,160.7,298.5,160.3,299.4,159.8z"/>
		<path class="st0" d="M250.1,125.3c-2.5-1.1-5-2.3-7.5-3.7l0,22.1c2.2,2.1,4.8,4.2,7.5,6.2L250.1,125.3z"/>
		<path class="st0" d="M252.6,126.4l0,25.2c0.9,0.6,1.8,1.1,2.8,1.7l-0.1-25.8C254.4,127.1,253.5,126.8,252.6,126.4z"/>
	</g>
</g>
</svg>
