<?xml version="1.0" encoding="UTF-8" standalone="no"?>
<svg width="617px" height="535px" viewBox="0 0 617 535" version="1.1" xmlns="http://www.w3.org/2000/svg" xmlns:xlink="http://www.w3.org/1999/xlink">
    <!-- Generator: Sketch 42 (36781) - http://www.bohemiancoding.com/sketch -->
    <title>logo-mark-type</title>
    <desc>Created with Sketch.</desc>
    <defs></defs>
    <g id="Page-1" stroke="none" stroke-width="1" fill="none" fill-rule="evenodd">
        <g id="logo-mark-type" fill-rule="nonzero">
            <g id="logo-with-mark" transform="translate(88.000000, 3.000000)">
                <g id="Group" transform="translate(0.000000, 254.596774)" fill="#FFFFFF">
                    <path d="M206.199217,2.21774194 C205.755969,2.39516129 205.40137,2.75 205.31272,3.37096774 C205.22407,3.99193548 205.046771,4.79032258 205.046771,5.94354839 L205.046771,29.6290323 C205.046771,30.7822581 205.135421,31.6693548 205.31272,32.2016129 C205.49002,32.733871 205.755969,33.0887097 206.199217,33.3548387 C206.642466,33.5322581 207.351663,33.7096774 208.41546,33.7096774 L208.41546,34.6854839 C206.731115,34.5967742 204.071624,34.5080645 200.436986,34.5080645 C196.802348,34.5080645 193.965558,34.5967742 192.015264,34.6854839 L192.015264,33.7096774 C193.079061,33.6209677 193.788258,33.5322581 194.231507,33.3548387 C194.674755,33.1774194 195.029354,32.8225806 195.118004,32.2903226 C195.206654,31.7580645 195.383953,30.8709677 195.383953,29.6290323 L195.383953,18.1854839 L184.657339,18.1854839 L184.657339,29.6290323 C184.657339,30.7822581 184.745988,31.6693548 184.923288,32.2016129 C185.100587,32.733871 185.366536,33.0887097 185.898434,33.3548387 C186.341683,33.5322581 187.050881,33.7096774 188.114677,33.7096774 L188.114677,34.6854839 C186.253033,34.5967742 183.593542,34.5080645 180.136204,34.5080645 C176.324266,34.5080645 173.487476,34.5967742 171.625832,34.6854839 L171.625832,33.7096774 C172.689628,33.6209677 173.398826,33.5322581 173.842074,33.3548387 C174.285323,33.1774194 174.639922,32.8225806 174.728571,32.2016129 C174.905871,31.6693548 174.994521,30.7822581 174.994521,29.6290323 L174.994521,5.94354839 C174.994521,4.79032258 174.905871,3.90322581 174.728571,3.37096774 C174.551272,2.83870968 174.285323,2.48387097 173.753425,2.21774194 C173.310176,2.04032258 172.600978,1.86290323 171.537182,1.86290323 L171.537182,0.887096774 C173.310176,0.975806452 176.146967,1.06451613 180.047554,1.06451613 C183.504892,1.06451613 186.164384,0.975806452 188.026027,0.887096774 L188.026027,1.86290323 C186.962231,1.9516129 186.253033,2.04032258 185.809785,2.21774194 C185.366536,2.39516129 185.011937,2.75 184.923288,3.37096774 C184.745988,3.90322581 184.657339,4.79032258 184.657339,5.94354839 L184.657339,17.2096774 L195.383953,17.2096774 L195.383953,5.94354839 C195.383953,4.79032258 195.295303,3.90322581 195.118004,3.37096774 C194.940705,2.83870968 194.674755,2.48387097 194.231507,2.21774194 C193.788258,2.04032258 193.079061,1.86290323 192.015264,1.86290323 L192.015264,0.887096774 C193.965558,0.975806452 196.802348,1.06451613 200.436986,1.06451613 C204.071624,1.06451613 206.731115,0.975806452 208.41546,0.887096774 L208.41546,1.86290323 C207.440313,1.86290323 206.731115,2.04032258 206.199217,2.21774194 Z" id="Shape"></path>
                    <path d="M237.669863,2.21774194 C240.329354,3.5483871 242.456947,5.58870968 243.963992,8.16129032 C245.471037,10.733871 246.180235,13.8387097 246.180235,17.4758065 C246.180235,21.0241935 245.382387,24.1290323 243.875342,26.7903226 C242.368297,29.4516129 240.240705,31.5806452 237.492564,33.0887097 C234.744423,34.5967742 231.641683,35.3064516 228.184344,35.3064516 C224.549706,35.3064516 221.446967,34.5967742 218.698826,33.266129 C216.039335,31.9354839 213.911742,29.8951613 212.404697,27.3225806 C210.897652,24.75 210.188454,21.6451613 210.188454,18.0080645 C210.188454,14.4596774 210.986301,11.3548387 212.493346,8.69354839 C214.000391,6.03225806 216.127984,3.90322581 218.876125,2.39516129 C221.624266,0.887096774 224.727006,0.177419355 228.184344,0.177419355 C231.818982,0.177419355 234.921722,0.887096774 237.669863,2.21774194 Z M223.929159,3.19354839 C222.776712,4.61290323 221.801566,6.56451613 221.181018,9.13709677 C220.56047,11.7096774 220.205871,14.5483871 220.205871,17.8306452 C220.205871,21.1129032 220.56047,24.0403226 221.269667,26.5241935 C221.978865,29.0080645 222.954012,30.9596774 224.195108,32.3790323 C225.436204,33.7096774 226.765949,34.4193548 228.272994,34.4193548 C229.868689,34.4193548 231.198434,33.7096774 232.350881,32.2903226 C233.503327,30.8709677 234.478474,28.9193548 235.099022,26.3467742 C235.719569,23.7741935 236.074168,20.9354839 236.074168,17.6532258 C236.074168,14.3709677 235.719569,11.4435484 235.010372,8.95967742 C234.301174,6.47580645 233.326027,4.52419355 232.084932,3.10483871 C230.843836,1.77419355 229.51409,1.06451613 228.007045,1.06451613 C226.41135,1.06451613 225.081605,1.77419355 223.929159,3.19354839 Z" id="Shape"></path>
                    <path d="M248.839726,10.2903226 C248.839726,7.54032258 248.751076,4.34677419 248.485127,0.798387097 C251.499217,0.887096774 256.72955,0.975806452 264.087476,0.975806452 C271.445401,0.975806452 276.587084,0.887096774 279.601174,0.798387097 C279.423875,4.34677419 279.246575,7.4516129 279.246575,10.2903226 C279.246575,11.7096774 279.335225,12.8629032 279.423875,13.75 L278.360078,13.75 C277.296282,9.58064516 275.966536,6.56451613 274.282192,4.7016129 C272.597847,2.83870968 270.824853,1.9516129 268.963209,1.9516129 L268.87456,1.9516129 L268.87456,29.2741935 C268.87456,30.6048387 269.051859,31.5806452 269.317808,32.2016129 C269.583757,32.8225806 270.115656,33.1774194 270.824853,33.4435484 C271.534051,33.7096774 272.686497,33.7096774 274.193542,33.7096774 L274.193542,34.6854839 C269.761057,34.5967742 266.215068,34.5080645 263.732877,34.5080645 C261.516634,34.5080645 258.236595,34.5967742 253.981409,34.6854839 L253.981409,33.7096774 C255.488454,33.7096774 256.6409,33.6209677 257.350098,33.4435484 C258.059295,33.266129 258.591194,32.8225806 258.857143,32.2016129 C259.123092,31.5806452 259.300391,30.6048387 259.300391,29.2741935 L259.300391,1.9516129 L259.211742,1.9516129 C257.261448,1.9516129 255.488454,2.83870968 253.892759,4.7016129 C252.297065,6.56451613 250.878669,9.58064516 249.814873,13.75 L248.751076,13.75 C248.751076,12.9516129 248.839726,11.7983871 248.839726,10.2903226 Z" id="Shape"></path>
                    <path d="M6.56007828,118.516129 C8.86497065,122.508065 12.4109589,124.548387 17.2866928,124.548387 C20.3007828,124.548387 22.6943249,123.83871 24.3786693,122.419355 C26.0630137,121 26.9495108,119.048387 26.9495108,116.564516 C26.9495108,114.435484 26.5062622,112.483871 25.5311155,110.798387 C24.5559687,109.112903 23.2262231,107.516129 21.6305284,106.096774 C20.0348337,104.677419 17.818591,103.080645 15.1590998,101.306452 C11.8790607,99.0887097 9.30821918,97.2258065 7.35792564,95.6290323 C5.40763209,94.0322581 3.90058708,92.1693548 2.57084149,89.9516129 C1.3297456,87.8225806 0.709197652,85.3387097 0.709197652,82.5 C0.709197652,79.1290323 1.59569472,76.2903226 3.45733855,73.983871 C5.31898239,71.6774194 7.71252446,69.9919355 10.7266145,68.8387097 C13.7407045,67.7741935 17.1093933,67.1532258 20.7440313,67.1532258 C23.846771,67.1532258 26.3289628,67.4193548 28.2792564,68.0403226 C30.2295499,68.6612903 32.0911937,69.3709677 33.8641879,70.4354839 C34.6620352,70.8790323 35.1939335,71.1451613 35.5485323,71.3225806 C35.9031311,71.5 36.2577299,71.5887097 36.6123288,71.5887097 C37.144227,71.5887097 37.4988258,71.3225806 37.764775,70.7016129 C38.0307241,70.1693548 38.2080235,69.1935484 38.3853229,67.9516129 L40.2469667,67.9516129 C39.9810176,71.8548387 39.8923679,78.4193548 39.8923679,87.733871 L38.1193738,87.733871 C37.9420744,84.6290323 37.2328767,81.7016129 35.9917808,78.8629032 C34.7506849,76.0241935 33.1549902,73.7177419 31.116047,71.9435484 C29.0771037,70.1693548 26.6835616,69.2822581 24.0240705,69.2822581 C21.5418787,69.2822581 19.5915851,69.9032258 18.0845401,71.233871 C16.5774951,72.5645161 15.7796477,74.4274194 15.7796477,76.733871 C15.7796477,78.6854839 16.2228963,80.3709677 17.1093933,81.7903226 C17.9958904,83.2096774 19.2369863,84.5403226 20.832681,85.7822581 C22.4283757,87.0241935 25.4424658,89.2419355 29.9636008,92.3467742 C32.9776908,94.3870968 35.2825832,96.25 37.0555773,97.8467742 C38.8285714,99.4435484 40.2469667,101.217742 41.3994129,103.346774 C42.5518591,105.475806 43.0837573,107.870968 43.0837573,110.709677 C43.0837573,114.258065 42.1086106,117.185484 40.158317,119.580645 C38.2080235,121.975806 35.5485323,123.83871 32.1798434,124.991935 C28.8998043,126.145161 25.1765166,126.766129 21.0986301,126.766129 C17.818591,126.766129 15.0704501,126.5 12.8542074,125.967742 C10.6379648,125.435484 8.59902153,124.725806 6.73737769,123.75 C5.4962818,122.951613 4.60978474,122.596774 3.98923679,122.596774 C3.45733855,122.596774 3.10273973,122.862903 2.83679061,123.395161 C2.57084149,123.927419 2.30489237,124.903226 2.12759295,126.145161 L0.265949119,126.145161 C0.531898239,122.064516 0.620547945,114.169355 0.620547945,102.637097 L2.48219178,102.637097 C2.83679061,109.290323 4.1665362,114.524194 6.56007828,118.516129 Z" id="Shape"></path>
                    <path d="M98.3125245,122.862903 C99.1990215,123.66129 99.9968689,124.104839 100.794716,124.193548 L100.794716,125.790323 C96.8941292,125.612903 92.0183953,125.524194 86.078865,125.524194 C79.8733855,125.524194 75.3522505,125.612903 72.5154599,125.790323 L72.5154599,124.193548 C74.5544031,124.104839 75.9727984,123.83871 76.8592955,123.483871 C77.7457926,123.040323 78.1890411,122.330645 78.1890411,121.266129 C78.1890411,120.467742 77.8344423,119.137097 77.2138943,117.451613 L72.4268102,104.145161 L55.9379648,104.145161 L54.5195695,107.782258 C52.7465753,112.306452 51.948728,115.854839 51.948728,118.33871 C51.948728,120.556452 52.5692759,122.064516 53.8103718,122.862903 C55.0514677,123.66129 56.8244618,124.104839 59.3066536,124.193548 L59.3066536,125.790323 C55.2287671,125.612903 51.7714286,125.524194 48.6686888,125.524194 C46.0978474,125.524194 44.0589041,125.612903 42.4632094,125.790323 L42.4632094,124.193548 C43.792955,124.016129 45.0340509,123.129032 46.2751468,121.709677 C47.5162427,120.290323 48.6686888,117.895161 49.9097847,114.701613 L67.9056751,68.483871 C69.0581213,68.5725806 70.4765166,68.6612903 72.1608611,68.6612903 C73.8452055,68.6612903 75.2636008,68.5725806 76.416047,68.483871 L96.0076321,119.048387 C96.7168297,120.733871 97.4260274,122.064516 98.3125245,122.862903 Z M64.3596869,82.233871 L56.5585127,102.459677 L71.7176125,102.459677 L64.3596869,82.233871 Z" id="Shape"></path>
                    <path d="M127.832877,70.7016129 C126.94638,71.0564516 126.325832,71.6774194 125.971233,72.5645161 C125.616634,73.4516129 125.439335,74.9596774 125.439335,77 L125.439335,118.870968 C125.439335,120.379032 125.527984,121.532258 125.793933,122.241935 C125.971233,122.951613 126.414481,123.395161 126.94638,123.66129 C127.478278,123.927419 128.364775,124.016129 129.605871,124.016129 L132.265362,124.016129 C134.127006,124.016129 136.165949,123.040323 138.382192,121.177419 C140.598434,119.314516 142.637378,116.741935 144.410372,113.637097 C146.183366,110.532258 147.335812,107.33871 147.95636,103.967742 L149.818004,103.967742 C149.640705,105.919355 149.552055,108.403226 149.552055,111.419355 C149.552055,117.274194 149.729354,122.064516 150.083953,125.879032 C146.449315,125.701613 140.243836,125.612903 131.556164,125.612903 C118.967906,125.612903 109.482387,125.701613 103.188258,125.879032 L103.188258,124.193548 C104.961252,124.104839 106.202348,123.927419 107.000196,123.572581 C107.798043,123.217742 108.329941,122.596774 108.59589,121.709677 C108.86184,120.822581 109.039139,119.314516 109.039139,117.274194 L109.039139,77.0887097 C109.039139,75.0483871 108.86184,73.5403226 108.59589,72.6532258 C108.329941,71.766129 107.798043,71.0564516 107.000196,70.7903226 C106.202348,70.4354839 104.961252,70.2580645 103.276908,70.1693548 L103.276908,68.5725806 C106.379648,68.75 111.166732,68.8387097 117.72681,68.8387097 C123.93229,68.8387097 128.719374,68.75 131.999413,68.5725806 L131.999413,70.1693548 C130.137769,70.1693548 128.719374,70.3467742 127.832877,70.7016129 Z" id="Shape"></path>
                    <path d="M195.295303,68.6612903 C197.866145,68.6612903 199.905088,68.5725806 201.500783,68.3951613 L201.500783,69.9919355 C200.082387,70.7016129 198.575342,71.9435484 197.156947,73.8064516 C195.738552,75.6693548 194.497456,78.1532258 193.34501,81.3467742 L177.565362,125.790323 C175.792368,125.701613 174.373973,125.612903 173.221526,125.612903 C172.15773,125.612903 170.739335,125.701613 169.05499,125.790323 L147.779061,75.2258065 C147.069863,73.4516129 146.272016,72.2096774 145.474168,71.4112903 C144.587671,70.6129032 143.789824,70.1693548 142.991977,70.0806452 L142.991977,68.483871 C146.892564,68.6612903 151.856947,68.75 157.707828,68.75 C163.824658,68.75 168.345793,68.6612903 171.271233,68.483871 L171.271233,70.0806452 C169.23229,70.1693548 167.813894,70.4354839 166.927397,70.7903226 C166.0409,71.1451613 165.597652,71.9435484 165.597652,73.0080645 C165.597652,73.8951613 165.95225,75.2258065 166.572798,76.8225806 L180.579452,111.330645 L188.380626,89.2419355 C190.15362,84.1854839 191.040117,80.1935484 191.040117,77.1774194 C191.040117,72.4758065 188.823875,70.0806452 184.480039,69.9032258 L184.480039,68.3064516 C188.735225,68.5725806 192.281213,68.6612903 195.295303,68.6612903 Z" id="Shape"></path>
                    <path d="M247.066732,122.862903 C247.953229,123.66129 248.751076,124.104839 249.548924,124.193548 L249.548924,125.790323 C245.648337,125.612903 240.772603,125.524194 234.833072,125.524194 C228.627593,125.524194 224.106458,125.612903 221.269667,125.790323 L221.269667,124.193548 C223.308611,124.104839 224.727006,123.83871 225.613503,123.483871 C226.5,123.040323 226.943249,122.330645 226.943249,121.266129 C226.943249,120.467742 226.58865,119.137097 225.968102,117.451613 L221.181018,104.145161 L204.869472,104.145161 L203.451076,107.782258 C201.678082,112.306452 200.880235,115.854839 200.880235,118.33871 C200.880235,120.556452 201.500783,122.064516 202.741879,122.862903 C203.982975,123.66129 205.755969,124.104839 208.23816,124.193548 L208.23816,125.790323 C204.160274,125.612903 200.702935,125.524194 197.600196,125.524194 C195.029354,125.524194 192.990411,125.612903 191.394716,125.790323 L191.394716,124.193548 C192.724462,124.016129 193.965558,123.129032 195.206654,121.709677 C196.44775,120.290323 197.600196,117.895161 198.841292,114.701613 L216.837182,68.483871 C217.989628,68.5725806 219.408023,68.6612903 221.092368,68.6612903 C222.776712,68.6612903 224.195108,68.5725806 225.347554,68.483871 L244.939139,119.048387 C245.382387,120.733871 246.180235,122.064516 247.066732,122.862903 Z M213.113894,82.233871 L205.31272,102.459677 L220.47182,102.459677 L213.113894,82.233871 Z" id="Shape"></path>
                    <path d="M247.332681,84.5403226 C247.332681,79.8387097 247.155382,74.4274194 246.800783,68.483871 C251.942466,68.6612903 260.807436,68.75 273.307045,68.75 C285.806654,68.75 294.582975,68.6612903 299.724658,68.483871 C299.370059,74.516129 299.192759,79.8387097 299.192759,84.5403226 C299.192759,87.0241935 299.281409,88.9758065 299.458708,90.3951613 L297.597065,90.3951613 C295.82407,83.2983871 293.519178,78.1532258 290.771037,75.0483871 C287.934247,71.9435484 284.920157,70.3467742 281.728767,70.3467742 L281.640117,70.3467742 L281.640117,116.741935 C281.640117,119.048387 281.906067,120.645161 282.349315,121.709677 C282.792564,122.774194 283.679061,123.395161 284.831507,123.75 C286.072603,124.104839 287.934247,124.282258 290.593738,124.282258 L290.593738,125.879032 C282.969863,125.701613 277.118982,125.612903 272.863796,125.612903 C269.051859,125.612903 263.466928,125.701613 256.197652,125.879032 L256.197652,124.193548 C258.857143,124.193548 260.718787,124.016129 261.959883,123.66129 C263.200978,123.306452 263.998826,122.596774 264.442074,121.620968 C264.885323,120.645161 265.151272,118.959677 265.151272,116.653226 L265.151272,70.2580645 L265.062622,70.2580645 C261.782583,70.2580645 258.768493,71.766129 255.931703,74.8709677 C253.094912,77.9758065 250.878669,83.1209677 249.105675,90.2177419 L247.244031,90.2177419 C247.332681,88.9758065 247.332681,87.0241935 247.332681,84.5403226 Z" id="Shape"></path>
                    <path d="M327.560665,70.7016129 C326.762818,71.0564516 326.23092,71.6774194 325.964971,72.5645161 C325.699022,73.4516129 325.521722,74.9596774 325.521722,77 L325.521722,117.185484 C325.521722,119.225806 325.699022,120.733871 325.964971,121.620968 C326.23092,122.508065 326.762818,123.217742 327.560665,123.483871 C328.358513,123.83871 329.599609,124.016129 331.283953,124.104839 L331.283953,125.701613 C328.092564,125.524194 323.571429,125.435484 317.720548,125.435484 C311.16047,125.435484 306.373386,125.524194 303.270646,125.701613 L303.270646,124.193548 C305.04364,124.104839 306.284736,123.927419 307.082583,123.572581 C307.880431,123.217742 308.412329,122.596774 308.678278,121.709677 C308.944227,120.822581 309.121526,119.314516 309.121526,117.274194 L309.121526,77.0887097 C309.121526,75.0483871 308.944227,73.5403226 308.678278,72.6532258 C308.412329,71.766129 307.880431,71.0564516 307.082583,70.7903226 C306.284736,70.4354839 305.04364,70.2580645 303.359295,70.1693548 L303.359295,68.5725806 C306.462035,68.75 311.249119,68.8387097 317.809198,68.8387097 C323.660078,68.8387097 328.181213,68.75 331.372603,68.5725806 L331.372603,70.1693548 C329.599609,70.1693548 328.358513,70.3467742 327.560665,70.7016129 Z" id="Shape"></path>
                    <path d="M380.48454,70.7903226 C385.094325,73.0967742 388.640313,76.4677419 391.122505,80.9032258 C393.693346,85.3387097 394.934442,90.5725806 394.934442,96.6935484 C394.934442,102.637097 393.604697,107.959677 391.033855,112.483871 C388.463014,117.096774 384.828376,120.645161 380.218591,123.129032 C375.608806,125.701613 370.289824,126.943548 364.350294,126.943548 C358.233464,126.943548 352.914481,125.790323 348.304697,123.483871 C343.694912,121.177419 340.148924,117.806452 337.666732,113.370968 C335.09589,108.935484 333.854795,103.701613 333.854795,97.5806452 C333.854795,91.6370968 335.18454,86.3145161 337.755382,81.7903226 C340.326223,77.1774194 343.960861,73.6290323 348.570646,71.1451613 C353.180431,68.5725806 358.499413,67.3306452 364.438943,67.3306452 C370.555773,67.3306452 375.874755,68.483871 380.48454,70.7903226 Z M357.081018,72.3870968 C355.042074,74.7822581 353.535029,78.1532258 352.471233,82.5 C351.407436,86.8467742 350.786888,91.7258065 350.786888,97.3145161 C350.786888,102.903226 351.407436,107.870968 352.648532,112.129032 C353.889628,116.387097 355.573973,119.758065 357.701566,122.064516 C359.829159,124.370968 362.134051,125.524194 364.704892,125.524194 C367.364384,125.524194 369.669276,124.282258 371.708219,121.887097 C373.747162,119.491935 375.254207,116.120968 376.318004,111.774194 C377.3818,107.427419 378.002348,102.548387 378.002348,96.9596774 C378.002348,91.3709677 377.3818,86.4032258 376.140705,82.1451613 C374.899609,77.8870968 373.215264,74.516129 371.087671,72.2096774 C368.960078,69.9032258 366.655186,68.75 364.084344,68.75 C361.424853,68.75 359.119961,69.9919355 357.081018,72.3870968 Z" id="Shape"></path>
                    <path d="M449.010763,71.8548387 C448.212916,72.6532258 447.681018,73.8951613 447.415068,75.4919355 C447.149119,77.0887097 446.97182,79.5725806 446.97182,82.766129 L446.97182,125.879032 C446.173973,125.790323 445.287476,125.790323 444.312329,125.790323 C443.337182,125.790323 442.362035,125.790323 441.298239,125.879032 L405.395108,86.6693548 L405.395108,110 C405.395108,113.991935 405.572407,116.830645 405.838356,118.604839 C406.192955,120.379032 406.902153,121.620968 407.965949,122.419355 C409.029746,123.217742 410.891389,123.83871 413.550881,124.193548 L413.550881,125.790323 C411.423288,125.612903 408.320548,125.524194 404.419961,125.524194 C401.58317,125.524194 399.366928,125.612903 397.682583,125.790323 L397.682583,124.193548 C399.366928,123.83871 400.608023,123.217742 401.405871,122.419355 C402.203718,121.620968 402.735616,120.379032 403.001566,118.782258 C403.267515,117.185484 403.444814,114.701613 403.444814,111.508065 L403.444814,77 C403.444814,74.9596774 403.267515,73.4516129 403.001566,72.5645161 C402.735616,71.6774194 402.203718,70.9677419 401.405871,70.7016129 C400.608023,70.3467742 399.366928,70.1693548 397.682583,70.0806452 L397.682583,68.483871 C399.278278,68.6612903 401.58317,68.75 404.419961,68.75 C407.434051,68.75 409.916243,68.6612903 411.866536,68.483871 L444.932877,103.524194 L444.932877,84.3629032 C444.932877,80.3709677 444.755577,77.5322581 444.489628,75.7580645 C444.135029,73.983871 443.425832,72.7419355 442.362035,71.9435484 C441.298239,71.1451613 439.436595,70.5241935 436.777104,70.1693548 L436.777104,68.5725806 C438.993346,68.75 442.007436,68.8387097 445.819374,68.8387097 C448.656164,68.8387097 450.961057,68.75 452.556751,68.5725806 L452.556751,70.1693548 C451.049706,70.4354839 449.808611,71.0564516 449.010763,71.8548387 Z" id="Shape"></path>
                    <path d="M175.881018,165 L181.554599,165 C183.770841,165 185.455186,165.532258 186.430333,166.508065 C187.405479,167.483871 187.937378,168.814516 187.937378,170.5 C187.937378,171.032258 187.848728,171.564516 187.671429,172.185484 C187.494129,172.806452 187.22818,173.25 186.873581,173.693548 C186.518982,174.137097 186.164384,174.580645 185.632485,174.935484 C185.189237,175.290323 184.568689,175.556452 184.036791,175.645161 L188.469276,184.25 L186.075734,184.25 L181.820548,175.733871 L178.09726,175.733871 L178.09726,184.25 L175.881018,184.25 L175.881018,165 L175.881018,165 Z M178.09726,167.040323 L178.09726,173.782258 L181.820548,173.782258 C183.150294,173.782258 184.21409,173.516129 184.834638,172.895161 C185.455186,172.274194 185.721135,171.475806 185.721135,170.5 C185.721135,169.967742 185.632485,169.524194 185.455186,169.169355 C185.277886,168.814516 185.100587,168.370968 184.745988,168.104839 C184.391389,167.83871 184.036791,167.572581 183.593542,167.395161 C183.061644,167.217742 182.529746,167.129032 181.820548,167.129032 L178.09726,167.129032 L178.09726,167.040323 Z" id="Shape"></path>
                    <path d="M196.536399,169.790323 C197.245597,169.790323 197.954795,169.967742 198.663992,170.233871 C199.37319,170.5 199.993738,170.943548 200.525636,171.475806 C201.057534,172.008065 201.500783,172.717742 201.766732,173.516129 C202.121331,174.403226 202.20998,175.379032 202.20998,176.532258 L202.20998,177.064516 C202.20998,177.241935 202.20998,177.419355 202.121331,177.596774 L192.103914,177.596774 C192.103914,178.572581 192.281213,179.370968 192.635812,180.080645 C192.901761,180.790323 193.34501,181.322581 193.788258,181.677419 C194.231507,182.120968 194.763405,182.387097 195.295303,182.564516 C195.827202,182.741935 196.44775,182.830645 196.979648,182.830645 C198.398043,182.830645 199.639139,182.298387 200.614286,181.233871 L201.855382,182.475806 C200.702935,183.895161 199.018591,184.604839 196.890998,184.604839 C195.827202,184.604839 194.940705,184.427419 194.054207,184.16129 C193.16771,183.806452 192.458513,183.362903 191.837965,182.741935 C191.217417,182.120968 190.774168,181.322581 190.419569,180.435484 C190.064971,179.548387 189.887671,178.483871 189.887671,177.330645 C189.887671,176.177419 190.064971,175.112903 190.419569,174.137097 C190.774168,173.25 191.217417,172.451613 191.837965,171.830645 C192.458513,171.209677 193.079061,170.766129 193.876908,170.41129 C194.763405,169.967742 195.561252,169.790323 196.536399,169.790323 Z M192.281213,175.733871 L199.993738,175.733871 L199.993738,175.467742 L199.993738,175.201613 C199.993738,174.669355 199.905088,174.225806 199.727789,173.782258 C199.550489,173.33871 199.28454,172.895161 198.929941,172.629032 C198.575342,172.274194 198.220744,172.008065 197.777495,171.830645 C197.334247,171.653226 196.890998,171.564516 196.3591,171.564516 C195.383953,171.564516 194.497456,171.919355 193.699609,172.540323 C192.990411,173.16129 192.458513,174.225806 192.281213,175.733871 Z" id="Shape"></path>
                    <path d="M217.280431,172.451613 L215.684736,174.314516 C215.596086,174.225806 215.507436,174.225806 215.507436,174.137097 L215.507436,173.870968 C215.507436,173.782258 215.418787,173.604839 215.241487,173.427419 C215.152838,173.25 214.886888,172.983871 214.53229,172.717742 C213.823092,172.185484 212.847945,171.830645 211.606849,171.830645 C210.986301,171.830645 210.454403,171.919355 209.922505,172.185484 C209.390607,172.451613 208.858708,172.806452 208.50411,173.25 C208.060861,173.693548 207.794912,174.225806 207.528963,174.935484 C207.263014,175.645161 207.174364,176.266129 207.174364,177.064516 C207.174364,177.862903 207.263014,178.572581 207.528963,179.282258 C207.794912,179.991935 208.149511,180.524194 208.592759,181.056452 C209.036008,181.58871 209.567906,181.943548 210.188454,182.209677 C210.809002,182.475806 211.42955,182.653226 212.138748,182.653226 C213.557143,182.653226 214.798239,182.120968 215.862035,180.967742 L217.191781,182.475806 C215.773386,183.983871 214.089041,184.693548 212.050098,184.693548 C211.074951,184.693548 210.099804,184.516129 209.301957,184.16129 C208.41546,183.806452 207.706262,183.274194 207.085714,182.653226 C206.465166,182.032258 205.933268,181.233871 205.578669,180.346774 C205.22407,179.459677 205.046771,178.483871 205.046771,177.419355 C205.046771,176.354839 205.22407,175.379032 205.578669,174.491935 C205.933268,173.604839 206.376517,172.806452 207.085714,172.185484 C207.706262,171.564516 208.50411,171.032258 209.301957,170.677419 C210.099804,170.322581 211.163601,170.145161 212.138748,170.145161 C213.291194,170.145161 214.266341,170.41129 215.152838,170.854839 C216.039335,171.032258 216.748532,171.653226 217.280431,172.451613 Z" id="Shape"></path>
                    <path d="M225.613503,169.790323 C226.5,169.790323 227.297847,169.967742 228.095695,170.322581 C228.893542,170.677419 229.51409,171.120968 230.134638,171.830645 C230.666536,172.451613 231.198434,173.25 231.464384,174.137097 C231.818982,175.024194 231.996282,176.08871 231.996282,177.241935 C231.996282,178.395161 231.818982,179.459677 231.464384,180.346774 C231.109785,181.233871 230.666536,182.032258 230.134638,182.653226 C229.60274,183.274194 228.893542,183.806452 228.095695,184.16129 C227.297847,184.516129 226.5,184.693548 225.613503,184.693548 C224.727006,184.693548 223.840509,184.516129 223.042661,184.16129 C222.244814,183.806452 221.535616,183.274194 221.003718,182.653226 C220.38317,182.032258 219.939922,181.233871 219.585323,180.346774 C219.230724,179.459677 219.053425,178.483871 219.053425,177.419355 C219.053425,176.354839 219.230724,175.379032 219.585323,174.491935 C219.939922,173.604839 220.38317,172.806452 221.003718,172.096774 C221.624266,171.475806 222.333464,170.943548 223.131311,170.58871 C223.929159,170.233871 224.815656,169.790323 225.613503,169.790323 Z M229.780039,177.241935 C229.780039,176.354839 229.691389,175.556452 229.42544,174.846774 C229.159491,174.137097 228.893542,173.604839 228.450294,173.072581 C228.095695,172.629032 227.652446,172.274194 227.120548,172.008065 C226.58865,171.741935 226.056751,171.653226 225.524853,171.653226 C224.992955,171.653226 224.461057,171.741935 223.929159,172.008065 C223.39726,172.274194 222.954012,172.629032 222.599413,173.072581 C222.244814,173.516129 221.890215,174.137097 221.712916,174.758065 C221.446967,175.467742 221.358317,176.177419 221.358317,177.064516 C221.358317,177.862903 221.446967,178.66129 221.712916,179.282258 C221.978865,179.991935 222.244814,180.524194 222.599413,181.056452 C222.954012,181.58871 223.39726,181.943548 223.929159,182.209677 C224.461057,182.475806 224.992955,182.653226 225.524853,182.653226 C226.056751,182.653226 226.677299,182.564516 227.120548,182.298387 C227.652446,182.032258 228.095695,181.677419 228.450294,181.233871 C228.804892,180.790323 229.159491,180.169355 229.336791,179.548387 C229.51409,178.927419 229.780039,178.129032 229.780039,177.241935 Z" id="Shape"></path>
                    <path d="M235.45362,170.145161 L237.758513,170.145161 L237.669863,172.895161 C238.113112,171.919355 238.822309,171.120968 239.708806,170.58871 C240.595303,170.056452 241.6591,169.790323 242.722896,169.790323 C244.229941,169.790323 245.471037,170.322581 246.534834,171.298387 L245.559687,173.427419 C245.293738,173.16129 245.116438,172.895161 244.939139,172.629032 C244.76184,172.451613 244.58454,172.274194 244.318591,172.096774 C244.141292,171.919355 243.875342,171.830645 243.609393,171.741935 C243.343444,171.653226 243.077495,171.653226 242.634247,171.653226 C241.925049,171.653226 241.304501,171.830645 240.683953,172.096774 C240.063405,172.451613 239.531507,172.806452 239.088258,173.33871 C238.64501,173.870968 238.290411,174.491935 238.024462,175.112903 C237.758513,175.733871 237.581213,176.532258 237.581213,177.241935 L237.581213,184.16129 L235.364971,184.16129 L235.364971,170.145161 L235.45362,170.145161 Z" id="Shape"></path>
                    <path d="M258.236595,172.185484 L258.236595,163.669355 L260.630137,163.669355 C260.630137,163.758065 260.541487,163.935484 260.452838,164.112903 C260.364188,164.290323 260.275538,164.379032 260.275538,164.556452 L260.275538,182.919355 C260.275538,183.451613 260.364188,183.806452 260.452838,184.25 L258.236595,184.25 C258.147945,183.983871 258.147945,183.629032 258.147945,183.185484 L258.147945,181.943548 C257.704697,182.741935 257.084149,183.362903 256.286301,183.806452 C255.488454,184.25 254.690607,184.516129 253.892759,184.516129 C253.094912,184.516129 252.385714,184.33871 251.676517,184.072581 C250.967319,183.806452 250.346771,183.274194 249.903523,182.653226 C249.371624,182.032258 248.928376,181.233871 248.662427,180.346774 C248.396477,179.370968 248.219178,178.306452 248.219178,177.064516 C248.219178,175.733871 248.396477,174.669355 248.751076,173.782258 C249.105675,172.895161 249.548924,172.096774 250.080822,171.564516 C250.61272,170.943548 251.233268,170.58871 251.942466,170.233871 C252.651663,169.879032 253.360861,169.790323 254.070059,169.790323 C255.045205,169.790323 255.931703,169.967742 256.6409,170.41129 C257.350098,170.854839 257.881996,171.475806 258.236595,172.185484 Z M251.765166,172.629032 C250.878669,173.427419 250.435421,174.758065 250.435421,176.709677 C250.435421,178.483871 250.79002,179.903226 251.410568,180.967742 C252.031115,182.032258 253.094912,182.564516 254.336008,182.564516 C254.601957,182.564516 254.956556,182.475806 255.311155,182.387097 C255.665753,182.298387 256.020352,182.120968 256.286301,181.854839 C256.55225,181.58871 256.906849,181.322581 257.084149,181.056452 C257.350098,180.790323 257.527397,180.435484 257.616047,179.991935 C257.881996,179.282258 257.970646,178.217742 257.970646,177.064516 C257.970646,176.266129 257.970646,175.645161 257.881996,175.112903 C257.793346,174.580645 257.704697,174.137097 257.616047,173.782258 C257.527397,173.427419 257.350098,173.072581 257.084149,172.895161 C256.906849,172.629032 256.6409,172.451613 256.286301,172.274194 C255.931703,172.008065 255.577104,171.919355 255.222505,171.741935 C254.867906,171.653226 254.601957,171.564516 254.336008,171.564516 C253.71546,171.564516 253.272211,171.653226 252.828963,171.830645 C252.563014,171.919355 252.119765,172.185484 251.765166,172.629032 Z" id="Shape"></path>
                    <path d="M274.81409,172.008065 L273.484344,173.959677 C273.395695,173.959677 273.307045,173.870968 273.307045,173.693548 C273.307045,173.516129 273.307045,173.427419 273.218395,173.427419 C272.863796,172.983871 272.331898,172.540323 271.622701,172.096774 C270.913503,171.653226 270.204305,171.475806 269.317808,171.475806 C268.963209,171.475806 268.519961,171.564516 268.165362,171.653226 C267.810763,171.741935 267.456164,171.830645 267.190215,172.008065 C266.924266,172.185484 266.658317,172.362903 266.481018,172.629032 C266.303718,172.895161 266.215068,173.16129 266.215068,173.516129 C266.215068,173.782258 266.303718,173.959677 266.392368,174.137097 C266.481018,174.314516 266.746967,174.491935 267.012916,174.669355 C267.278865,174.846774 267.633464,175.024194 268.165362,175.201613 C268.608611,175.379032 269.317808,175.556452 270.115656,175.822581 C271.88865,176.266129 273.129746,176.887097 273.927593,177.508065 C274.72544,178.129032 274.991389,178.927419 274.991389,179.903226 C274.991389,180.524194 274.81409,181.145161 274.548141,181.677419 C274.282192,182.209677 273.927593,182.741935 273.395695,183.096774 C272.863796,183.540323 272.243249,183.806452 271.534051,184.072581 C270.824853,184.33871 270.027006,184.427419 269.140509,184.427419 C266.746967,184.427419 264.796673,183.717742 263.200978,182.209677 L264.442074,179.991935 C264.530724,180.080645 264.530724,180.169355 264.530724,180.258065 C264.530724,180.346774 264.619374,180.524194 264.708023,180.790323 C264.796673,180.967742 265.062622,181.233871 265.417221,181.41129 C265.77182,181.677419 266.215068,181.943548 266.924266,182.209677 C267.190215,182.387097 267.544814,182.475806 267.988063,182.564516 C268.342661,182.653226 268.78591,182.653226 269.140509,182.653226 C269.583757,182.653226 269.938356,182.564516 270.381605,182.475806 C270.824853,182.387097 271.179452,182.209677 271.534051,182.032258 C271.88865,181.854839 272.154599,181.58871 272.331898,181.322581 C272.509198,181.056452 272.686497,180.701613 272.686497,180.346774 C272.686497,179.814516 272.420548,179.370968 271.977299,179.016129 C271.445401,178.66129 270.558904,178.217742 269.229159,177.862903 C268.342661,177.596774 267.722114,177.419355 267.456164,177.330645 C266.746967,177.064516 266.215068,176.798387 265.86047,176.532258 C265.505871,176.354839 265.239922,176.08871 264.973973,175.733871 C264.708023,175.467742 264.530724,175.112903 264.353425,174.669355 C264.176125,174.314516 264.087476,173.870968 264.087476,173.427419 C264.087476,172.895161 264.264775,172.451613 264.530724,172.008065 C264.796673,171.564516 265.151272,171.120968 265.68317,170.766129 C266.126419,170.41129 266.746967,170.145161 267.367515,169.879032 C268.076712,169.701613 268.78591,169.524194 269.583757,169.524194 C271.71135,169.790323 273.484344,170.5 274.81409,172.008065 Z" id="Shape"></path>
                </g>
                <g id="Group" transform="translate(125.882583, 0.000000)">
                    <ellipse id="Oval" stroke="#FFFFFF" fill="#000000" cx="99.6422701" cy="99.9758065" rx="99.2876712" ry="99.3548387"></ellipse>
                    <g transform="translate(53.189824, 30.161290)" id="Shape" fill="#FFFFFF">
                        <path d="M19.946184,17.2096774 C22.0737769,16.1451613 24.2900196,15.2580645 26.6835616,14.5483871 C26.7722114,12.9516129 27.1268102,8.42741935 28.8998043,5.94354839 C28.8998043,5.94354839 29.0771037,5.58870968 28.4565558,5.58870968 L26.7722114,5.58870968 L23.6694716,5.58870968 L23.0489237,5.58870968 L18.1731898,5.58870968 C17.5526419,5.58870968 17.7299413,5.94354839 17.7299413,5.94354839 C19.946184,8.95967742 20.0348337,15.0806452 20.0348337,15.0806452 L19.946184,17.2096774 Z"></path>
                        <path d="M31.2046967,14.7258065 C30.4068493,14.9032258 29.609002,15.0806452 28.8111546,15.2580645 L28.7225049,15.2580645 C24.5559687,16.3225806 20.5667319,18.0080645 17.1093933,20.2258065 C16.9320939,20.3145161 16.7547945,20.4032258 16.5774951,20.5806452 C15.9569472,21.0241935 15.2477495,21.4677419 14.6272016,22 C11.7017613,24.3951613 9.04227006,27.4112903 7.26927593,30.516129 C5.31898239,33.9758065 4.1665362,38.5 4.1665362,42.5806452 C4.1665362,48.3467742 6.8260274,53.7580645 11.9677104,58.5483871 C12.8542074,59.3467742 13.7407045,60.0564516 14.7158513,60.8548387 C15.5136986,61.4758065 16.311546,62.0080645 17.1093933,62.5403226 C17.818591,62.983871 18.5277886,63.516129 19.325636,63.9596774 C21.9851272,65.5564516 25.5311155,67.2419355 28.3679061,68.3064516 L28.3679061,68.3064516 C28.3679061,68.3064516 28.5452055,68.3064516 28.7225049,68.3951613 C29.0771037,68.483871 29.4317025,68.6612903 29.6976517,68.75 C31.7365949,69.5483871 35.7258317,71.233871 38.7399217,74.0725806 L38.7399217,74.0725806 C41.0448141,76.8225806 44.5908023,78.5967742 48.4913894,78.5967742 C51.0622309,78.5967742 53.5444227,77.7983871 55.5833659,76.4677419 C56.9131115,76.2903226 60.4590998,76.1129032 64.1823875,77.6209677 C65.7780822,78.2419355 67.1078278,78.8629032 67.8170254,79.2177419 C68.6148728,79.6612903 69.5013699,80.1048387 70.2105675,80.6370968 C70.5651663,80.8145161 70.8311155,81.0806452 71.1857143,81.2580645 C72.0722114,81.8790323 72.9587084,82.5887097 73.6679061,83.2983871 C78.0117417,87.4677419 79.5187867,92.8790323 77.5684932,97.9354839 C76.2387476,101.217742 73.7565558,103.879032 70.2992172,105.741935 C69.5013699,106.185484 68.7035225,106.540323 67.8170254,106.806452 C65.1575342,107.782258 62.1434442,108.403226 58.8634051,108.403226 C49.3778865,108.403226 40.6015656,104.854839 33.3322896,101.306452 C32.623092,100.951613 32.002544,100.596774 31.2933464,100.330645 C30.495499,99.8870968 29.609002,99.4435484 28.8111546,98.9112903 C25.5311155,96.9596774 22.6056751,94.6532258 19.946184,92.3467742 L19.946184,95.1854839 C22.6056751,97.4032258 25.5311155,99.5322581 28.8111546,101.395161 C29.609002,101.83871 30.4068493,102.282258 31.2933464,102.725806 C31.6479452,102.903226 31.9138943,103.080645 32.2684932,103.169355 C40.5129159,107.072581 49.3778865,110.443548 58.7747554,110.443548 C62.1434442,110.354839 65.1575342,109.822581 67.8170254,108.935484 C68.7035225,108.669355 69.5013699,108.314516 70.2992172,107.959677 C75.0863014,105.741935 78.3663405,102.104839 79.7847358,98.1129032 L79.7847358,88.6209677 C78.6322896,85.4274194 76.2387476,82.3225806 72.6041096,79.6612903 C71.8062622,79.1290323 71.0970646,78.5967742 70.2992172,78.1532258 C69.5013699,77.7096774 68.7035225,77.266129 67.9056751,76.9112903 C67.639726,76.733871 67.1964775,76.6451613 66.753229,76.3790323 L66.753229,76.3790323 C63.5618395,74.6048387 60.5477495,74.0725806 58.2428571,73.983871 C60.104501,71.766129 61.2569472,68.9274194 61.2569472,65.8225806 C61.2569472,64.7580645 61.0796477,63.6935484 60.8136986,62.6290323 C63.2072407,64.2258065 65.4234834,65.1129032 66.5759295,65.4677419 C67.0191781,65.6451613 67.4624266,65.8225806 67.8170254,65.9112903 L67.8170254,65.9112903 C68.4375734,66.1774194 69.146771,66.3548387 69.8559687,66.6209677 C69.9446184,66.7096774 70.1219178,66.7096774 70.2105675,66.7983871 L70.2105675,66.7983871 C73.5792564,68.0403226 76.9479452,69.8145161 79.6074364,72.1209677 C79.6960861,72.1209677 79.6960861,72.2096774 79.7847358,72.2096774 L79.7847358,69.4596774 C77.1252446,67.5080645 74.0225049,65.9112903 70.7424658,64.7580645 C70.5651663,64.6693548 70.4765166,64.6693548 70.2992172,64.5806452 L70.2992172,64.5806452 C69.4127202,64.3145161 68.6148728,63.9596774 67.9056751,63.6935484 L67.9056751,63.6935484 C67.5510763,63.6048387 67.1078278,63.4274194 66.6645793,63.25 C64.8029354,62.4516129 61.4342466,60.766129 58.6861057,58.1935484 C58.2428571,57.5725806 57.7109589,56.9516129 57.090411,56.4193548 L57.0017613,56.3306452 L57.0017613,56.3306452 C54.7855186,54.2903226 51.7714286,53.0483871 48.4913894,53.0483871 C46.3637965,53.0483871 44.3248532,53.5806452 42.4632094,54.5564516 C38.7399217,55 34.9279843,53.5806452 32.8003914,52.6048387 C31.9138943,52.1612903 31.2933464,51.8951613 31.2046967,51.8064516 C30.3181996,51.3629032 29.5203523,50.8306452 28.8111546,50.2983871 C27.3041096,49.3225806 25.974364,48.2580645 24.8219178,47.1935484 C21.6305284,44.1774194 20.0348337,41.0725806 20.1234834,37.7903226 C20.3894325,32.1129032 24.0240705,27.8548387 28.7225049,25.1048387 C29.5203523,24.6612903 30.3181996,24.2177419 31.2046967,23.8629032 C32.623092,23.2419355 34.130137,22.7983871 35.637182,22.4435484 C38.9172211,21.733871 42.28591,21.3790323 45.7432485,21.3790323 C53.0125245,21.4677419 59.9272016,23.2419355 65.246184,26.5241935 L65.246184,24.0403226 C59.5726027,20.9354839 52.6579256,19.4274194 45.8318982,19.3387097 C42.1972603,19.3387097 38.651272,19.6935484 35.1939335,20.4919355 C33.8641879,20.7580645 32.5344423,21.2016129 31.2046967,21.733871 C30.4068493,22.0887097 29.5203523,22.4435484 28.7225049,22.7983871 C22.7829746,25.8145161 18.1731898,31.0483871 17.9072407,37.7903226 C17.6412916,44.3548387 23.0489237,49.3225806 28.8111546,52.7822581 C29.609002,53.3145161 30.4068493,53.6693548 31.2046967,54.2016129 C31.5592955,54.3790323 31.9138943,54.5564516 32.1798434,54.733871 C32.8003914,55.0887097 35.8144814,56.5080645 39.4491194,56.7741935 C37.144227,59.0806452 35.7258317,62.2741935 35.7258317,65.8225806 C35.7258317,67.1532258 35.9031311,68.3951613 36.2577299,69.5483871 C33.2436399,67.7741935 30.1409002,66.7096774 28.5452055,66.0887097 C24.7332681,64.4919355 20.6553816,62.4516129 17.0207436,59.7903226 C16.2228963,59.1693548 15.3363992,58.5483871 14.6272016,57.9274194 C9.75146771,53.8467742 6.29412916,48.7016129 6.29412916,42.4032258 C6.29412916,38.766129 7.26927593,34.5967742 9.13091977,31.3145161 C10.4606654,28.9193548 12.4109589,26.6129032 14.5385519,24.5725806 C15.3363992,23.8629032 16.1342466,23.1532258 17.0207436,22.6209677 C17.2866928,22.4435484 17.5526419,22.266129 17.7299413,22.0887097 C21.0099804,19.9596774 24.8219178,18.2741935 28.6338552,17.2983871 C28.8111546,17.2096774 28.988454,17.2096774 29.2544031,17.1209677 C29.8749511,16.9435484 30.495499,16.8548387 31.116047,16.6774194 C35.1052838,15.7903226 39.1831703,15.4354839 43.172407,15.4354839 C46.5410959,15.4354839 49.9097847,15.7903226 53.2784736,16.4112903 C57.976908,17.2096774 61.7001957,18.5403226 65.0688845,19.8709677 L65.0688845,17.5645161 C61.8774951,16.3225806 58.2428571,15.1693548 53.8103718,14.3709677 C50.2643836,13.75 46.7183953,13.3951613 43.2610568,13.3951613 C39.27182,13.483871 35.1939335,13.9274194 31.2046967,14.7258065 Z M48.4913894,55.266129 C51.32818,55.266129 53.9876712,56.4193548 55.9379648,58.2822581 C56.2039139,58.6370968 56.5585127,58.9919355 56.9131115,59.3467742 C58.3315068,61.1209677 59.2180039,63.4274194 59.2180039,65.8225806 C59.2180039,71.6774194 54.4309198,76.4677419 48.5800391,76.4677419 C42.7291585,76.4677419 37.9420744,71.6774194 37.9420744,65.8225806 C37.9420744,59.9677419 42.6405088,55.266129 48.4913894,55.266129 Z"></path>
                        <path d="M31.2933464,50.1209677 L31.2933464,30.516129 C30.495499,30.8709677 29.609002,31.3145161 28.8111546,31.7580645 L28.8111546,48.5241935 C29.609002,49.0564516 30.4068493,49.5887097 31.2933464,50.1209677 Z"></path>
                        <path d="M3.81193738,1.59677419 C4.0778865,1.68548387 4.34383562,1.68548387 4.60978474,1.77419355 C5.31898239,1.9516129 6.11682975,2.21774194 6.8260274,2.48387097 C7.18062622,2.66129032 7.53522505,2.83870968 7.97847358,3.01612903 C8.77632094,3.37096774 9.39686888,3.81451613 10.0174168,4.34677419 C10.8152642,4.96774194 11.4358121,5.67741935 12.0563601,6.38709677 C12.676908,7.18548387 13.2088063,8.07258065 13.5634051,9.0483871 C14.0066536,10.1129032 14.2726027,11.266129 14.4499022,12.4193548 C14.6272016,13.75 14.7158513,15.1693548 14.6272016,16.6774194 L14.6272016,16.6774194 L14.6272016,20.3145161 C15.0704501,19.9596774 15.5136986,19.6935484 15.9569472,19.4274194 C16.311546,19.1612903 16.7547945,18.8951613 17.1093933,18.7177419 L17.1093933,16.766129 C17.1980431,15.0806452 17.1093933,13.483871 16.8434442,12.0645161 C16.6661448,10.6451613 16.2228963,9.31451613 15.7796477,8.07258065 C15.5136986,7.4516129 15.1590998,6.74193548 14.804501,6.20967742 C14.4499022,5.67741935 14.0066536,5.14516129 13.5634051,4.61290323 C13.0315068,4.08064516 12.1450098,3.5483871 12.1450098,3.28225806 C12.1450098,3.28225806 12.1450098,3.10483871 12.2336595,3.10483871 C12.2336595,3.10483871 12.3223092,3.01612903 12.4109589,3.01612903 L12.5882583,3.01612903 L22.6943249,3.01612903 L22.6943249,3.01612903 L23.0489237,3.01612903 L23.4035225,3.01612903 L23.4035225,3.01612903 L33.509589,3.01612903 L33.6868885,3.01612903 C33.7755382,3.01612903 33.8641879,3.10483871 33.8641879,3.10483871 L33.9528376,3.28225806 C33.9528376,3.5483871 33.0663405,4.08064516 32.5344423,4.61290323 C32.0911937,5.14516129 31.6479452,5.58870968 31.2933464,6.20967742 C30.8500978,6.83064516 30.5841487,7.4516129 30.3181996,8.07258065 C29.7863014,9.31451613 29.4317025,10.6451613 29.2544031,12.0645161 C29.1657534,12.6854839 29.0771037,13.3064516 29.0771037,13.9274194 C29.8749511,13.75 30.7614481,13.5725806 31.5592955,13.3951613 C31.5592955,13.0403226 31.6479452,12.7741935 31.6479452,12.4193548 C31.8252446,11.1774194 32.1798434,10.0241935 32.5344423,9.0483871 C32.8890411,8.25 33.2436399,7.54032258 33.6868885,6.83064516 C34.8393346,5.32258065 37.5874755,2.92741935 43.3497065,1.68548387 C43.4383562,1.68548387 43.6156556,1.59677419 43.7043053,1.59677419 C43.9702544,1.50806452 44.4135029,1.41935484 44.4135029,1.06451613 C44.4135029,0.620967742 43.792955,0.620967742 43.4383562,0.620967742 L43.4383562,0.620967742 L43.2610568,0.620967742 L43.2610568,0.620967742 L38.2966732,0.620967742 L38.2966732,0.620967742 L37.5874755,0.620967742 L37.2328767,0.620967742 L23.4921722,0.620967742 L22.7829746,0.620967742 L9.04227006,0.620967742 L8.68767123,0.620967742 L7.80117417,0.620967742 L6.64872798,0.620967742 L5.58493151,0.620967742 L4.78708415,0.620967742 C4.43248532,0.620967742 3.63463796,0.620967742 3.72328767,1.06451613 C3.36868885,1.33064516 3.54598826,1.50806452 3.81193738,1.59677419 Z"></path>
                        <path d="M71.4516634,127.919355 L76.3273973,127.919355 L76.9479452,127.919355 L80.0506849,127.919355 L81.7350294,127.919355 C82.3555773,127.919355 82.1782779,127.564516 82.1782779,127.564516 C79.9620352,124.548387 79.8733855,118.427419 79.8733855,118.427419 L79.8733855,114.169355 C78.2776908,115.5 76.5046967,116.653226 74.5544031,117.629032 C74.1111546,117.895161 73.6679061,118.072581 73.2246575,118.25 L73.2246575,118.427419 C73.2246575,118.427419 73.1360078,124.637097 70.9197652,127.653226 C71.0084149,127.564516 70.8311155,127.919355 71.4516634,127.919355 Z"></path>
                        <path d="M22.1624266,38.233871 C22.0737769,41.1612903 23.5808219,44 26.6835616,46.8387097 L26.6835616,33.1774194 C24.9105675,34.5080645 23.3148728,36.1935484 22.1624266,38.0564516 L22.1624266,38.233871 Z"></path>
                        <path d="M84.3945205,39.5645161 C87.4086106,40.5403226 90.4227006,41.25 93.61409,41.8709677 L98.4011742,42.6693548 L96.0962818,38.766129 L96.0962818,38.766129 L96.0962818,38.766129 C94.3232877,35.9274194 92.3729941,33.3548387 90.0681018,31.1370968 C91.7524462,30.25 93.4367906,29.1854839 94.7665362,27.766129 C98.5784736,23.7741935 96.3622309,19.516129 95.2097847,17.4758065 L92.9935421,13.3951613 L92.8162427,13.0403226 L91.1318982,18.0080645 C90.6,19.6048387 89.092955,21.3790323 86.3448141,22.1774194 L86.3448141,22.1774194 C86.3448141,22.1774194 86.3448141,22.1774194 86.2561644,22.1774194 C85.6356164,22.3548387 85.0150685,22.5322581 84.3945205,22.6209677 C83.6853229,22.7096774 82.8874755,22.7983871 82.0009785,22.7983871 L82.0009785,22.7983871 C81.2031311,22.7983871 80.3166341,22.7096774 79.5187867,22.6209677 C77.2138943,22.1774194 75.1749511,21.6451613 73.1360078,20.8467742 L73.1360078,23.0645161 C74.9976517,23.6854839 76.8592955,24.2177419 78.9868885,24.5725806 C79.8733855,24.75 80.8485323,24.8387097 81.8236791,24.8387097 L81.9123288,24.8387097 C82.7101761,24.8387097 83.5080235,24.75 84.3945205,24.6612903 C88.2951076,24.1290323 92.0183953,22.266129 93.2594912,18.4516129 C94.6778865,21.2016129 95.6530333,23.7741935 93.1708415,26.3467742 C91.3091977,28.2983871 88.6497065,29.4516129 86.1675147,30.4274194 C89.3589041,33.0887097 92.0183953,36.2822581 94.1459883,39.7419355 L94.1459883,39.7419355 C90.7772994,39.1209677 87.58591,38.3225806 84.3945205,37.2580645 C83.5966732,36.9919355 82.7988258,36.7258065 81.9123288,36.3709677 L81.9123288,36.3709677 C81.8236791,41.6048387 80.1393346,46.0403226 74.0225049,46.0403226 C74.6430528,44.5322581 74.909002,43.1129032 75.0863014,41.516129 C75.2636008,38.5 74.3771037,36.1048387 73.1360078,33.6209677 L73.1360078,48.3467742 C76.0614481,48.2580645 78.5436399,47.2822581 80.4939335,45.5080645 C81.0258317,44.9758065 81.5577299,44.3548387 82.0009785,43.733871 C82.8874755,42.4032258 83.5080235,40.8951613 83.8626223,39.2096774 C83.951272,39.4758065 84.1285714,39.5645161 84.3945205,39.5645161 Z"></path>
                        <path d="M56.9131115,1.50806452 C57.1790607,1.59677419 57.4450098,1.59677419 57.7109589,1.68548387 C58.4201566,1.86290323 59.2180039,2.12903226 59.9272016,2.39516129 C60.2818004,2.57258065 60.6363992,2.75 61.0796477,2.92741935 C61.8774951,3.28225806 62.4980431,3.72580645 63.118591,4.25806452 C63.9164384,4.87903226 64.5369863,5.58870968 65.1575342,6.2983871 C65.7780822,7.09677419 66.3099804,7.98387097 66.6645793,8.95967742 C67.1078278,10.0241935 67.3737769,11.1774194 67.5510763,12.3306452 C67.7283757,13.6612903 67.8170254,15.0806452 67.7283757,16.5887097 L67.7283757,16.5887097 L67.8170254,62.1854839 C68.5262231,62.4516129 69.2354207,62.7177419 70.0332681,62.983871 C70.1219178,62.983871 70.1219178,63.0725806 70.2105675,63.0725806 L70.2105675,62.983871 L70.2105675,16.6774194 C70.2992172,14.9919355 70.2105675,13.3951613 69.9446184,11.9758065 C69.767319,10.5564516 69.3240705,9.22580645 68.8808219,7.98387097 C68.6148728,7.36290323 68.260274,6.65322581 67.9056751,6.12096774 C67.5510763,5.58870968 67.1078278,5.05645161 66.6645793,4.52419355 C66.132681,3.99193548 65.246184,3.45967742 65.246184,3.19354839 C65.246184,3.19354839 65.246184,3.01612903 65.3348337,3.01612903 C65.3348337,3.01612903 65.4234834,2.92741935 65.5121331,2.92741935 L65.6894325,2.92741935 L75.795499,2.92741935 L75.795499,2.92741935 L76.1500978,2.92741935 L76.5046967,2.92741935 L76.5046967,2.92741935 L86.6107632,2.92741935 L86.7880626,2.92741935 C86.8767123,2.92741935 86.965362,3.01612903 86.965362,3.01612903 L87.0540117,3.19354839 C87.0540117,3.45967742 86.1675147,3.99193548 85.6356164,4.52419355 C85.1923679,5.05645161 84.7491194,5.5 84.3945205,6.12096774 C83.951272,6.74193548 83.6853229,7.36290323 83.4193738,7.98387097 C82.8874755,9.22580645 82.5328767,10.5564516 82.3555773,11.9758065 C82.0896282,13.3951613 82.0896282,14.9919355 82.0896282,16.6774194 L82.0896282,21.3790323 L82.444227,21.3790323 C83.1534247,21.3790323 83.8626223,21.3790323 84.4831703,21.2016129 L84.4831703,16.5887097 L84.4831703,16.5887097 C84.3945205,15.0806452 84.4831703,13.6612903 84.6604697,12.3306452 C84.8377691,11.0887097 85.1923679,9.93548387 85.5469667,8.95967742 C85.9015656,8.16129032 86.2561644,7.4516129 86.6994129,6.74193548 C87.8518591,5.23387097 90.6,2.83870968 96.3622309,1.59677419 C96.4508806,1.59677419 96.62818,1.50806452 96.7168297,1.50806452 C96.9827789,1.41935484 97.4260274,1.33064516 97.4260274,0.975806452 C97.4260274,0.532258065 96.8054795,0.532258065 96.4508806,0.532258065 L96.4508806,0.532258065 L96.2735812,0.532258065 L96.2735812,0.532258065 L91.3091977,0.532258065 L90.6,0.532258065 L90.2454012,0.532258065 L76.5046967,0.532258065 L75.795499,0.532258065 L62.0547945,0.532258065 L61.7001957,0.532258065 L60.8136986,0.532258065 L59.6612524,0.532258065 L58.597456,0.532258065 L57.7996086,0.532258065 C57.4450098,0.532258065 56.6471624,0.532258065 56.7358121,0.975806452 C56.469863,1.33064516 56.6471624,1.50806452 56.9131115,1.50806452 Z"></path>
                        <path d="M79.7847358,15.0806452 C79.7847358,15.0806452 79.8733855,8.87096774 82.0896282,5.85483871 C82.0896282,5.85483871 82.2669276,5.5 81.6463796,5.5 L79.9620352,5.5 L76.8592955,5.5 L76.2387476,5.5 L71.3630137,5.5 C70.7424658,5.5 70.9197652,5.85483871 70.9197652,5.85483871 C73.1360078,8.87096774 73.2246575,14.9919355 73.2246575,14.9919355 L73.2246575,19.1612903 C75.3522505,19.9596774 77.5684932,20.6693548 79.8733855,21.1129032 L79.7847358,15.0806452 Z"></path>
                        <path d="M79.7847358,67.6854839 L79.7847358,52.516129 C78.0117417,53.9354839 75.7068493,54.733871 73.1360078,54.8225806 L73.1360078,64.2258065 C75.5295499,65.1129032 77.7457926,66.266129 79.7847358,67.6854839 Z"></path>
                        <path d="M43.7043053,131.822581 C43.6156556,131.822581 43.4383562,131.733871 43.3497065,131.733871 C37.6761252,130.491935 34.9279843,128.096774 33.6868885,126.677419 C33.2436399,125.967742 32.8003914,125.258065 32.5344423,124.459677 C32.0911937,123.395161 31.8252446,122.241935 31.6479452,121.08871 C31.4706458,119.758065 31.3819961,118.33871 31.4706458,116.830645 L31.4706458,116.830645 L31.4706458,115.943548 L31.2933464,115.943548 C30.495499,115.766129 29.6976517,115.677419 29.0771037,115.677419 L29.0771037,116.830645 C28.988454,118.516129 29.0771037,120.112903 29.3430528,121.532258 C29.5203523,122.951613 29.9636008,124.282258 30.4068493,125.524194 C30.6727984,126.145161 31.0273973,126.854839 31.3819961,127.387097 C31.7365949,127.919355 32.1798434,128.451613 32.623092,128.983871 C33.1549902,129.516129 34.0414873,130.048387 34.0414873,130.314516 C34.0414873,130.314516 34.0414873,130.491935 33.9528376,130.491935 C33.9528376,130.491935 33.8641879,130.580645 33.7755382,130.580645 L33.5982387,130.580645 L23.4921722,130.580645 L23.4921722,130.580645 L23.1375734,130.580645 L22.7829746,130.580645 L22.7829746,130.580645 L12.676908,130.580645 L12.4996086,130.580645 C12.4109589,130.580645 12.3223092,130.491935 12.3223092,130.491935 L12.2336595,130.314516 C12.2336595,130.048387 13.1201566,129.516129 13.6520548,128.983871 C14.0953033,128.451613 14.5385519,128.008065 14.8931507,127.387097 C15.3363992,126.766129 15.6023483,126.145161 15.8682975,125.524194 C16.4001957,124.282258 16.7547945,122.951613 16.9320939,121.532258 C17.1980431,120.112903 17.1980431,118.516129 17.1980431,116.830645 L17.1093933,68.9274194 C16.9320939,68.8387097 16.7547945,68.6612903 16.5774951,68.5725806 C16.0455969,68.2177419 15.5136986,67.8629032 15.0704501,67.5080645 C14.9818004,67.4193548 14.804501,67.3306452 14.7158513,67.2419355 L14.7158513,67.3306452 L14.7158513,68.6612903 L14.804501,116.919355 L14.804501,116.919355 C14.8931507,118.427419 14.804501,119.846774 14.6272016,121.177419 C14.4499022,122.419355 14.0953033,123.572581 13.7407045,124.548387 C13.297456,125.524194 12.8542074,126.41129 12.2336595,127.209677 C11.6131115,128.008065 10.9925636,128.629032 10.1947162,129.25 C9.5741683,129.782258 8.86497065,130.225806 8.15577299,130.580645 C7.80117417,130.758065 7.44657534,130.935484 7.09197652,131.112903 C6.38277886,131.379032 5.58493151,131.645161 4.87573386,131.822581 C4.60978474,131.91129 4.34383562,131.91129 4.0778865,132 C3.90058708,132.08871 3.63463796,132.177419 3.63463796,132.443548 C3.63463796,132.887097 4.43248532,132.887097 4.78708415,132.887097 L5.58493151,132.887097 L6.64872798,132.887097 L7.80117417,132.887097 L8.68767123,132.887097 L9.04227006,132.887097 L22.7829746,132.887097 L23.4921722,132.887097 L37.2328767,132.887097 L37.5874755,132.887097 L38.2966732,132.887097 L38.2966732,132.887097 L43.2610568,132.887097 L43.2610568,132.887097 L43.4383562,132.887097 L43.4383562,132.887097 C43.792955,132.887097 44.4135029,132.798387 44.4135029,132.443548 C44.4135029,132 44.0589041,131.91129 43.7043053,131.822581 Z"></path>
                        <path d="M11.7017613,108.580645 C11.7017613,108.669355 11.6131115,108.758065 11.6131115,108.846774 C11.2585127,109.91129 10.9925636,110.975806 10.9039139,112.040323 C10.7266145,114.346774 11.3471624,116.209677 12.2336595,117.717742 L12.2336595,106.540323 L10.6379648,106.540323 C8.33307241,106.540323 5.93953033,106.362903 3.72328767,105.919355 C5.58493151,103.258065 8.86497065,100.951613 12.2336595,99.9758065 L12.2336595,99.266129 C9.92876712,97.5806452 4.96438356,92.5241935 6.11682975,80.1935484 C6.11682975,80.1935484 8.2444227,83.4758065 12.1450098,87.8225806 L12.1450098,84.5403226 C9.48551859,81.4354839 7.97847358,79.2177419 7.97847358,79.1290323 L4.69843444,74.1612903 L4.43248532,73.8064516 L3.81193738,80.1935484 C2.83679061,90.5725806 5.93953033,96.3387097 8.77632094,99.266129 C5.93953033,100.685484 3.45733855,102.725806 1.77299413,105.032258 L0.177299413,107.427419 L0.531898239,107.516129 L3.10273973,108.048387 C5.23033268,108.491935 7.71252446,108.758065 10.5493151,108.758065 C10.9925636,108.580645 11.3471624,108.580645 11.7017613,108.580645 Z"></path>
                        <path d="M67.9056751,113.991935 C68.7035225,113.725806 69.5900196,113.459677 70.3878669,113.193548 C71.8062622,112.66129 73.2246575,112.040323 74.6430528,111.330645 C76.5933464,110.354839 78.3663405,109.201613 79.8733855,107.959677 L79.8733855,105.298387 C77.2138943,107.782258 73.9338552,109.733871 70.3878669,111.064516 C69.5900196,111.330645 68.7921722,111.685484 67.9056751,111.862903 C64.7142857,112.83871 61.3455969,113.282258 58.1542074,113.282258 C57.1790607,113.282258 56.2039139,113.193548 55.2287671,113.104839 C47.2502935,112.306452 34.130137,107.959677 31.7365949,107.516129 C31.6479452,107.516129 31.4706458,107.516129 31.3819961,107.427419 C30.5841487,107.25 29.6976517,107.16129 28.8998043,107.16129 L28.2792564,107.16129 C25.2651663,107.16129 22.5170254,108.048387 20.5667319,110.620968 C20.3894325,110.887097 20.2121331,111.153226 20.0348337,111.419355 L20.0348337,114.790323 C20.0348337,114.790323 20.9213307,113.637097 22.339726,111.774194 C23.6694716,110 25.5311155,109.201613 28.1906067,109.201613 L28.8998043,109.201613 C29.609002,109.201613 30.4068493,109.290323 31.2046967,109.467742 L31.3819961,109.467742 C32.0911937,109.645161 33.5982387,110.08871 35.3712329,110.532258 C40.778865,112.129032 49.0232877,114.435484 54.8741683,115.056452 C55.9379648,115.145161 57.0017613,115.233871 58.0655577,115.233871 C61.3455969,115.41129 64.7142857,114.879032 67.9056751,113.991935 Z"></path>
                        <path d="M96.8054795,131.822581 C96.7168297,131.822581 96.5395303,131.733871 96.4508806,131.733871 C90.7772994,130.491935 88.0291585,128.096774 86.7880626,126.677419 C86.3448141,125.967742 85.9015656,125.258065 85.6356164,124.459677 C85.1923679,123.395161 84.9264188,122.241935 84.7491194,121.08871 C84.57182,119.758065 84.4831703,118.33871 84.57182,116.830645 L84.57182,116.830645 L84.4831703,68.5725806 L84.4831703,65.1129032 L84.4831703,64.4032258 L84.4831703,46.0403226 C84.2172211,45.9516129 84.0399217,45.8629032 83.7739726,45.7741935 C83.4193738,47.3709677 82.8874755,48.7903226 82.0009785,50.1209677 L82.0009785,65.1129032 L82.0009785,65.4677419 L82.0009785,68.483871 L82.0009785,116.741935 C81.9123288,118.427419 82.0009785,120.024194 82.2669276,121.443548 C82.444227,122.862903 82.8874755,124.193548 83.3307241,125.435484 C83.5966732,126.056452 83.951272,126.766129 84.3058708,127.298387 C84.6604697,127.830645 85.1037182,128.362903 85.5469667,128.895161 C86.078865,129.427419 86.965362,129.959677 86.965362,130.225806 C86.965362,130.225806 86.965362,130.403226 86.8767123,130.403226 C86.8767123,130.403226 86.7880626,130.491935 86.6994129,130.491935 L86.5221135,130.491935 L76.416047,130.491935 L76.416047,130.491935 L76.0614481,130.491935 L75.7068493,130.491935 L75.7068493,130.491935 L65.6007828,130.491935 L65.4234834,130.491935 C65.3348337,130.491935 65.246184,130.403226 65.246184,130.403226 L65.1575342,130.225806 C65.1575342,129.959677 66.0440313,129.427419 66.5759295,128.895161 C67.0191781,128.362903 67.4624266,127.919355 67.8170254,127.298387 C68.260274,126.677419 68.5262231,126.056452 68.7921722,125.435484 C69.3240705,124.193548 69.6786693,122.862903 69.8559687,121.443548 C69.9446184,120.822581 70.0332681,120.112903 70.0332681,119.403226 C69.2354207,119.669355 68.3489237,119.935484 67.4624266,120.201613 C67.4624266,120.467742 67.3737769,120.822581 67.3737769,121.08871 C67.1964775,122.330645 66.8418787,123.483871 66.4872798,124.459677 C66.0440313,125.435484 65.6007828,126.322581 64.9802348,127.120968 C64.4483366,127.919355 63.7391389,128.540323 62.9412916,129.16129 C62.3207436,129.693548 61.611546,130.137097 60.9023483,130.491935 C60.5477495,130.669355 60.1931507,130.846774 59.8385519,131.024194 C59.1293542,131.290323 58.3315068,131.556452 57.6223092,131.733871 C57.3563601,131.822581 57.090411,131.822581 56.8244618,131.91129 C56.6471624,132 56.3812133,132.08871 56.3812133,132.354839 C56.3812133,132.798387 57.1790607,132.798387 57.5336595,132.798387 L58.3315068,132.798387 L59.3953033,132.798387 L60.5477495,132.798387 L61.4342466,132.798387 L61.7888454,132.798387 L75.5295499,132.798387 L76.2387476,132.798387 L89.9794521,132.798387 L90.3340509,132.798387 L91.0432485,132.798387 L91.0432485,132.798387 L96.0076321,132.798387 L96.0076321,132.798387 L96.1849315,132.798387 L96.1849315,132.798387 C96.5395303,132.798387 97.1600783,132.709677 97.1600783,132.354839 C97.5146771,132 97.1600783,131.91129 96.8054795,131.822581 Z"></path>
                        <path d="M77.1252446,94.2983871 C76.2387476,92.4354839 74.909002,90.75 73.2246575,89.1532258 L73.2246575,102.370968 C74.6430528,101.040323 75.7068493,99.5322581 76.416047,97.7580645 C76.8592955,96.6935484 77.0365949,95.4516129 77.1252446,94.2983871 Z"></path>
                        <path d="M26.9495108,128.008065 L28.6338552,128.008065 C29.2544031,128.008065 29.0771037,127.653226 29.0771037,127.653226 C26.8608611,124.637097 26.7722114,118.516129 26.7722114,118.516129 L26.7722114,115.766129 C19.1483366,116.209677 19.325636,128.096774 19.325636,128.096774 L26.9495108,128.008065 Z"></path>
                        <path d="M70.3878669,104.5 L70.3878669,87.1129032 C69.5900196,86.5806452 68.7921722,86.1370968 67.9056751,85.6935484 L67.9056751,105.741935 C68.7921722,105.298387 69.5900196,104.943548 70.3878669,104.5 Z"></path>
                        <path d="M26.6835616,73.8951613 C24.467319,72.9193548 22.2510763,71.8548387 20.0348337,70.6129032 L20.0348337,90.2177419 C21.9851272,92.0806452 24.2900196,93.9435484 26.6835616,95.7177419 L26.6835616,73.8951613 Z"></path>
                        <path d="M28.8998043,74.8709677 L28.8998043,97.2258065 C29.6976517,97.7580645 30.495499,98.2016129 31.3819961,98.733871 L31.2933464,75.8467742 C30.495499,75.4919355 29.6976517,75.2258065 28.8998043,74.8709677 Z"></path>
                    </g>
                </g>
            </g>
        </g>
    </g>
</svg>