<?xml version="1.0" encoding="utf-8"?>
<!-- Generator: Adobe Illustrator 21.0.0, SVG Export Plug-In . SVG Version: 6.00 Build 0)  -->
<svg version="1.1" id="Layer_1" xmlns="http://www.w3.org/2000/svg" xmlns:xlink="http://www.w3.org/1999/xlink" x="0px" y="0px"
	 viewBox="0 0 561.5 526" style="enable-background:new 0 0 561.5 526;" xml:space="preserve">
<style type="text/css">
	.st0{fill:#FFFFFF;}
</style>
<g>
	<path class="st0" d="M262.6,193.9c-0.5,0.2-0.9,0.6-1,1.3s-0.3,1.6-0.3,2.9v26.7c0,1.3,0.1,2.3,0.3,2.9s0.5,1,1,1.3
		c0.5,0.2,1.3,0.4,2.5,0.4v1.1c-1.9-0.1-4.9-0.2-9-0.2s-7.3,0.1-9.5,0.2v-1.1c1.2-0.1,2-0.2,2.5-0.4c0.5-0.2,0.9-0.6,1-1.2
		s0.3-1.6,0.3-3v-12.9h-12.1v12.9c0,1.3,0.1,2.3,0.3,2.9s0.5,1,1.1,1.3c0.5,0.2,1.3,0.4,2.5,0.4v1.1c-2.1-0.1-5.1-0.2-9-0.2
		c-4.3,0-7.5,0.1-9.6,0.2v-1.1c1.2-0.1,2-0.2,2.5-0.4c0.5-0.2,0.9-0.6,1-1.3c0.2-0.6,0.3-1.6,0.3-2.9v-26.7c0-1.3-0.1-2.3-0.3-2.9
		s-0.5-1-1.1-1.3c-0.5-0.2-1.3-0.4-2.5-0.4v-1.1c2,0.1,5.2,0.2,9.6,0.2c3.9,0,6.9-0.1,9-0.2v1.1c-1.2,0.1-2,0.2-2.5,0.4
		s-0.9,0.6-1,1.3c-0.2,0.6-0.3,1.6-0.3,2.9v12.7h12.1v-12.7c0-1.3-0.1-2.3-0.3-2.9s-0.5-1-1-1.3c-0.5-0.2-1.3-0.4-2.5-0.4v-1.1
		c2.2,0.1,5.4,0.2,9.5,0.2s7.1-0.1,9-0.2v1.1C264,193.5,263.2,193.7,262.6,193.9z"/>
	<path class="st0" d="M298.1,193.9c3,1.5,5.4,3.8,7.1,6.7c1.7,2.9,2.5,6.4,2.5,10.5c0,4-0.9,7.5-2.6,10.5s-4.1,5.4-7.2,7.1
		s-6.6,2.5-10.5,2.5c-4.1,0-7.6-0.8-10.7-2.3c-3-1.5-5.4-3.8-7.1-6.7c-1.7-2.9-2.5-6.4-2.5-10.5c0-4,0.9-7.5,2.6-10.5
		s4.1-5.4,7.2-7.1s6.6-2.5,10.5-2.5C291.5,191.6,295,192.4,298.1,193.9z M282.6,195c-1.3,1.6-2.4,3.8-3.1,6.7
		c-0.7,2.9-1.1,6.1-1.1,9.8c0,3.7,0.4,7,1.2,9.8c0.8,2.8,1.9,5,3.3,6.6c1.4,1.5,2.9,2.3,4.6,2.3c1.8,0,3.3-0.8,4.6-2.4
		c1.3-1.6,2.4-3.8,3.1-6.7c0.7-2.9,1.1-6.1,1.1-9.8c0-3.7-0.4-7-1.2-9.8s-1.9-5-3.3-6.6c-1.4-1.5-2.9-2.3-4.6-2.3
		C285.4,192.6,283.9,193.4,282.6,195z"/>
	<path class="st0" d="M310.7,203c0-3.1-0.1-6.7-0.4-10.7c3.4,0.1,9.3,0.2,17.6,0.2c8.3,0,14.1-0.1,17.5-0.2c-0.2,4-0.4,7.5-0.4,10.7
		c0,1.6,0.1,2.9,0.2,3.9H344c-1.2-4.7-2.7-8.1-4.6-10.2s-3.9-3.1-6-3.1h-0.1v30.8c0,1.5,0.2,2.6,0.5,3.3c0.3,0.7,0.9,1.1,1.7,1.4
		s2.1,0.3,3.8,0.3v1.1c-5-0.1-9-0.2-11.8-0.2c-2.5,0-6.2,0.1-11,0.2v-1.1c1.7,0,3-0.1,3.8-0.3s1.4-0.7,1.7-1.4
		c0.3-0.7,0.5-1.8,0.5-3.3v-30.8h-0.1c-2.2,0-4.2,1-6,3.1s-3.4,5.5-4.6,10.2h-1.2C310.6,206,310.7,204.7,310.7,203z"/>
	<path class="st0" d="M37.4,325c2.6,4.5,6.6,6.8,12.1,6.8c3.4,0,6.1-0.8,8-2.4c1.9-1.6,2.9-3.8,2.9-6.6c0-2.4-0.5-4.6-1.6-6.5
		c-1.1-1.9-2.6-3.7-4.4-5.3c-1.8-1.6-4.3-3.4-7.3-5.4c-3.7-2.5-6.6-4.6-8.8-6.4c-2.2-1.8-3.9-3.9-5.4-6.4c-1.4-2.4-2.1-5.2-2.1-8.4
		c0-3.8,1-7,3.1-9.6c2.1-2.6,4.8-4.5,8.2-5.8c3.4-1.2,7.2-1.9,11.3-1.9c3.5,0,6.3,0.3,8.5,1c2.2,0.7,4.3,1.5,6.3,2.7
		c0.9,0.5,1.5,0.8,1.9,1c0.4,0.2,0.8,0.3,1.2,0.3c0.6,0,1-0.3,1.3-1c0.3-0.6,0.5-1.7,0.7-3.1h2.1c-0.3,4.4-0.4,11.8-0.4,22.3h-2
		c-0.2-3.5-1-6.8-2.4-10s-3.2-5.8-5.5-7.8c-2.3-2-5-3-8-3c-2.8,0-5,0.7-6.7,2.2s-2.6,3.6-2.6,6.2c0,2.2,0.5,4.1,1.5,5.7
		c1,1.6,2.4,3.1,4.2,4.5c1.8,1.4,5.2,3.9,10.3,7.4c3.4,2.3,6,4.4,8,6.2s3.6,3.8,4.9,6.2s1.9,5.1,1.9,8.3c0,4-1.1,7.3-3.3,10
		c-2.2,2.7-5.2,4.8-9,6.1c-3.7,1.3-7.9,2-12.5,2c-3.7,0-6.8-0.3-9.3-0.9c-2.5-0.6-4.8-1.4-6.9-2.5c-1.4-0.9-2.4-1.3-3.1-1.3
		c-0.6,0-1,0.3-1.3,0.9c-0.3,0.6-0.6,1.7-0.8,3.1h-2.1c0.3-4.6,0.4-13.5,0.4-26.5h2.1C33.2,314.6,34.7,320.5,37.4,325z"/>
	<path class="st0" d="M140.9,329.9c1,0.9,1.9,1.4,2.8,1.5v1.8c-4.4-0.2-9.9-0.3-16.6-0.3c-7,0-12.1,0.1-15.3,0.3v-1.8
		c2.3-0.1,3.9-0.4,4.9-0.8c1-0.5,1.5-1.3,1.5-2.5c0-0.9-0.4-2.4-1.1-4.3l-5.4-15H93.1l-1.6,4.1c-2,5.1-2.9,9.1-2.9,11.9
		c0,2.5,0.7,4.2,2.1,5.1c1.4,0.9,3.4,1.4,6.2,1.5v1.8c-4.6-0.2-8.5-0.3-12-0.3c-2.9,0-5.2,0.1-7,0.3v-1.8c1.5-0.2,2.9-1.2,4.3-2.8
		c1.4-1.6,2.7-4.3,4.1-7.9l20.3-52.1c1.3,0.1,2.9,0.2,4.8,0.2s3.5-0.1,4.8-0.2l22.1,57C139.1,327.5,139.9,329,140.9,329.9z
		 M102.6,284.1l-8.8,22.8h17.1L102.6,284.1z"/>
	<path class="st0" d="M174.2,271.1c-1,0.4-1.7,1.1-2.1,2.1c-0.4,1-0.6,2.7-0.6,5v47.2c0,1.7,0.1,3,0.4,3.8c0.2,0.8,0.7,1.3,1.3,1.6
		c0.6,0.3,1.6,0.4,3,0.4h3c2.1,0,4.4-1.1,6.9-3.2c2.5-2.1,4.8-5,6.8-8.5s3.3-7.1,4-10.9h2.1c-0.2,2.2-0.3,5-0.3,8.4
		c0,6.6,0.2,12,0.6,16.3c-4.1-0.2-11.1-0.3-20.9-0.3c-14.2,0-24.9,0.1-32,0.3v-1.9c2-0.1,3.4-0.3,4.3-0.7c0.9-0.4,1.5-1.1,1.8-2.1
		s0.5-2.7,0.5-5v-45.3c0-2.3-0.2-4-0.5-5s-0.9-1.8-1.8-2.1c-0.9-0.4-2.3-0.6-4.2-0.7v-1.8c3.5,0.2,8.9,0.3,16.3,0.3
		c7,0,12.4-0.1,16.1-0.3v1.8C176.8,270.5,175.2,270.7,174.2,271.1z"/>
	<path class="st0" d="M250.3,268.8c2.9,0,5.2-0.1,7-0.3v1.8c-1.6,0.8-3.3,2.2-4.9,4.3c-1.6,2.1-3,4.9-4.3,8.5l-17.8,50.1
		c-2-0.1-3.6-0.2-4.9-0.2c-1.2,0-2.8,0.1-4.7,0.2l-24-57c-0.8-2-1.7-3.4-2.6-4.3c-1-0.9-1.9-1.4-2.8-1.5v-1.8
		c4.4,0.2,10,0.3,16.6,0.3c6.9,0,12-0.1,15.3-0.3v1.8c-2.3,0.1-3.9,0.4-4.9,0.8c-1,0.4-1.5,1.3-1.5,2.5c0,1,0.4,2.5,1.1,4.3
		l15.8,38.9l8.8-24.9c2-5.7,3-10.2,3-13.6c0-5.3-2.5-8-7.4-8.2v-1.8C242.9,268.7,246.9,268.8,250.3,268.8z"/>
	<path class="st0" d="M308.7,329.9c1,0.9,1.9,1.4,2.8,1.5v1.8c-4.4-0.2-9.9-0.3-16.6-0.3c-7,0-12.1,0.1-15.3,0.3v-1.8
		c2.3-0.1,3.9-0.4,4.9-0.8c1-0.5,1.5-1.3,1.5-2.5c0-0.9-0.4-2.4-1.1-4.3l-5.4-15h-18.4l-1.6,4.1c-2,5.1-2.9,9.1-2.9,11.9
		c0,2.5,0.7,4.2,2.1,5.1c1.4,0.9,3.4,1.4,6.2,1.5v1.8c-4.6-0.2-8.5-0.3-12-0.3c-2.9,0-5.2,0.1-7,0.3v-1.8c1.5-0.2,2.9-1.2,4.3-2.8
		c1.4-1.6,2.7-4.3,4.1-7.9l20.3-52.1c1.3,0.1,2.9,0.2,4.8,0.2s3.5-0.1,4.8-0.2l22.1,57C306.8,327.5,307.7,329,308.7,329.9z
		 M270.4,284.1l-8.8,22.8h17.1L270.4,284.1z"/>
	<path class="st0" d="M309,286.7c0-5.3-0.2-11.4-0.6-18.1c5.8,0.2,15.8,0.3,29.9,0.3s24-0.1,29.8-0.3c-0.4,6.8-0.6,12.8-0.6,18.1
		c0,2.8,0.1,5,0.3,6.6h-2.1c-2-8-4.6-13.8-7.7-17.3c-3.2-3.5-6.6-5.3-10.2-5.3h-0.1V323c0,2.6,0.3,4.4,0.8,5.6s1.5,1.9,2.8,2.3
		c1.4,0.4,3.5,0.6,6.5,0.6v1.8c-8.6-0.2-15.2-0.3-20-0.3c-4.3,0-10.6,0.1-18.8,0.3v-1.9c3,0,5.1-0.2,6.5-0.6
		c1.4-0.4,2.3-1.2,2.8-2.3s0.8-3,0.8-5.6v-52.3H329c-3.7,0-7.1,1.7-10.3,5.2s-5.7,9.3-7.7,17.3h-2.1C309,291.7,309,289.5,309,286.7z
		"/>
	<path class="st0" d="M399.5,271.1c-0.9,0.4-1.5,1.1-1.8,2.1s-0.5,2.7-0.5,5v45.3c0,2.3,0.2,4,0.5,5s0.9,1.8,1.8,2.1
		c0.9,0.4,2.3,0.6,4.2,0.7v1.8c-3.6-0.2-8.7-0.3-15.3-0.3c-7.4,0-12.8,0.1-16.3,0.3v-1.7c2-0.1,3.4-0.3,4.3-0.7s1.5-1.1,1.8-2.1
		s0.5-2.7,0.5-5v-45.3c0-2.3-0.2-4-0.5-5s-0.9-1.8-1.8-2.1c-0.9-0.4-2.3-0.6-4.2-0.7v-1.8c3.5,0.2,8.9,0.3,16.3,0.3
		c6.6,0,11.7-0.1,15.3-0.3v1.8C401.8,270.5,400.4,270.7,399.5,271.1z"/>
	<path class="st0" d="M459.2,271.2c5.2,2.6,9.2,6.4,12,11.4c2.9,5,4.3,10.9,4.3,17.8c0,6.7-1.5,12.7-4.4,17.8
		c-2.9,5.2-7,9.2-12.2,12c-5.2,2.9-11.2,4.3-17.9,4.3c-6.9,0-12.9-1.3-18.1-3.9c-5.2-2.6-9.2-6.4-12-11.4c-2.9-5-4.3-10.9-4.3-17.8
		c0-6.7,1.5-12.7,4.4-17.8c2.9-5.2,7-9.2,12.2-12c5.2-2.9,11.2-4.3,17.9-4.3C448,267.2,454,268.6,459.2,271.2z M432.8,273
		c-2.3,2.7-4,6.5-5.2,11.4c-1.2,4.9-1.9,10.4-1.9,16.7c0,6.3,0.7,11.9,2.1,16.7c1.4,4.8,3.3,8.6,5.7,11.2c2.4,2.6,5,3.9,7.9,3.9
		c3,0,5.6-1.4,7.9-4.1s4-6.5,5.2-11.4c1.2-4.9,1.9-10.4,1.9-16.7c0-6.3-0.7-11.9-2.1-16.7c-1.4-4.8-3.3-8.6-5.7-11.2
		c-2.4-2.6-5-3.9-7.9-3.9C437.7,268.9,435.1,270.2,432.8,273z"/>
	<path class="st0" d="M536.5,272.4c-0.9,0.9-1.5,2.3-1.8,4.1c-0.3,1.8-0.5,4.6-0.5,8.2v48.6c-0.9-0.1-1.9-0.1-3-0.1s-2.2,0-3.4,0.1
		l-40.5-44.2v26.3c0,4.5,0.2,7.7,0.5,9.7c0.4,2,1.2,3.4,2.4,4.3c1.2,0.9,3.3,1.6,6.3,2v1.8c-2.4-0.2-5.9-0.3-10.3-0.3
		c-3.2,0-5.7,0.1-7.6,0.3v-1.8c1.9-0.4,3.3-1.1,4.2-2c0.9-0.9,1.5-2.3,1.8-4.1c0.3-1.8,0.5-4.6,0.5-8.2v-38.9c0-2.3-0.2-4-0.5-5
		s-0.9-1.8-1.8-2.1c-0.9-0.4-2.3-0.6-4.2-0.7v-1.8c1.8,0.2,4.4,0.3,7.6,0.3c3.4,0,6.2-0.1,8.4-0.3l37.3,39.5v-21.6
		c0-4.5-0.2-7.7-0.5-9.7c-0.4-2-1.2-3.4-2.4-4.3c-1.2-0.9-3.3-1.6-6.3-2v-1.8c2.5,0.2,5.9,0.3,10.2,0.3c3.2,0,5.8-0.1,7.6-0.3v1.8
		C538.8,270.8,537.4,271.5,536.5,272.4z"/>
</g>
</svg>
