<?xml version="1.0" encoding="utf-8"?>
<!-- Generator: Adobe Illustrator 17.0.0, SVG Export Plug-In . SVG Version: 6.00 Build 0)  -->
<!DOCTYPE svg PUBLIC "-//W3C//DTD SVG 1.1//EN" "http://www.w3.org/Graphics/SVG/1.1/DTD/svg11.dtd">
<svg version="1.1" id="Layer_1" xmlns="http://www.w3.org/2000/svg" xmlns:xlink="http://www.w3.org/1999/xlink" x="0px" y="0px"
	 width="3401.928px" height="1018.966px" viewBox="-438 -702.966 3401.928 1018.966"
	 enable-background="new -438 -702.966 3401.928 1018.966" xml:space="preserve">
<title>logo-mark</title>
<desc>Created with Sketch.</desc>
<g id="logo-mark-copy" transform="translate(194.000000, 83.000000)">
	<g id="Group">
	</g>
</g>
<image overflow="visible" width="1024" height="1024" xlink:href="record-example.jpg"  transform="matrix(0.8951 0 0 0.8951 750.4985 -640.7758)">
</image>
<g id="Group_2_" transform="translate(0.472890, 43.938119)">
	<path id="Shape_1_" fill="#FFFFFF" d="M66.723-462.079c9.686-4.846,19.935-8.904,30.634-12.173
		c0.338-7.439,2.14-28.177,10.249-39.336c0,0,0.676-1.803-2.14-1.803h-7.884H83.28h-2.816H58.277c-2.816,0-2.14,1.803-2.14,1.803
		c10.024,13.638,10.474,42.041,10.474,42.041L66.723-462.079z"/>
	<path id="Shape_2_" fill="#FFFFFF" d="M118.306-473.35c-3.604,0.789-7.208,1.578-10.812,2.48c-0.225,0-0.338,0.113-0.451,0.113
		c-19.146,4.846-37.392,12.623-53.047,22.655c-0.788,0.451-1.577,1.014-2.253,1.465c-3.041,2.029-6.082,4.17-9.01,6.537
		c-13.515,10.82-25.679,24.796-33.788,39.11c-8.897,15.667-14.191,36.405-14.191,55.228c-0.113,26.261,12.164,51.057,35.815,72.923
		c3.829,3.607,7.996,7.101,12.502,10.482c3.491,2.705,7.208,5.297,11.037,7.89c3.266,2.141,6.645,4.283,10.136,6.312
		c12.164,7.213,28.494,15.216,41.334,19.95l-0.113,0.113c0,0,0.676,0.225,1.689,0.564c1.577,0.564,3.154,1.127,4.618,1.578
		c9.461,3.494,27.706,11.271,41.221,24.345l0,0c10.699,12.736,26.805,20.851,44.713,20.851c11.938,0,23.088-3.607,32.324-9.806
		c6.082-0.676,22.187-1.465,39.419,5.523c7.208,2.93,13.515,5.748,16.781,7.439c3.829,1.916,7.546,4.058,11.15,6.424
		c1.464,0.902,2.928,1.916,4.28,2.93c4.167,2.93,7.996,6.086,11.375,9.355c20.047,19.273,26.918,43.957,17.908,66.949
		c-5.969,15.103-17.57,27.276-33.337,35.616c-3.604,1.916-7.321,3.607-11.263,5.072c-12.164,4.508-26.017,7.101-41.109,7.326
		c-43.361-0.113-83.343-16.343-117.019-32.46c-3.154-1.465-6.194-3.043-9.235-4.621c-3.829-2.029-7.546-4.17-11.15-6.424
		c-14.979-9.129-28.494-19.499-40.433-29.981v12.962c12.051,10.031,25.566,19.724,40.32,28.29c3.604,2.141,7.433,4.057,11.263,5.974
		c1.464,0.676,2.928,1.465,4.392,2.141c37.617,17.921,78.05,33.362,121.411,33.362c15.43-0.225,29.283-2.705,41.559-6.875
		c3.942-1.353,7.659-2.818,11.263-4.508c21.849-10.369,36.829-26.712,43.361-45.196l-0.113-43.506
		c-5.293-14.765-15.993-28.966-32.999-40.801c-3.491-2.48-6.983-4.734-10.587-6.763c-3.717-2.141-7.433-4.058-11.15-5.748
		c-1.352-0.676-3.154-1.465-5.181-2.254l0,0c-14.641-8.002-28.494-10.369-38.743-10.82c8.56-10.144,13.74-23.218,13.74-37.532
		c0-4.959-0.676-9.806-1.915-14.427c10.925,7.213,21.174,11.158,26.467,12.962c2.027,0.789,3.942,1.578,5.631,2.141l0,0
		c2.928,1.127,6.082,2.141,9.235,3.269c0.563,0.225,1.126,0.451,1.802,0.676l0,0c15.542,5.523,30.634,13.863,42.798,24.232
		c0.225,0.225,0.451,0.338,0.676,0.564v-12.623c-12.051-9.017-26.129-16.456-41.446-21.64c-0.676-0.225-1.352-0.451-2.027-0.676l0,0
		c-3.829-1.353-7.546-2.705-11.037-4.058l0,0c-1.577-0.564-3.491-1.353-5.519-2.141c-8.447-3.607-23.989-11.271-36.491-23.331
		c-2.14-2.93-4.618-5.523-7.321-8.002c-0.113-0.113-0.225-0.225-0.338-0.338l0,0c-10.362-9.242-23.877-14.878-38.743-14.878
		c-9.911,0-19.259,2.48-27.481,6.875c-16.894,1.916-34.464-4.621-44.149-9.017c-3.829-1.916-6.758-3.381-7.433-3.719
		c-3.942-2.254-7.659-4.508-11.037-6.763c-6.983-4.621-13.065-9.242-18.245-14.089c-14.754-13.638-21.962-27.952-21.286-42.829
		c1.014-25.81,17.908-45.535,39.307-57.82c3.604-2.029,7.433-3.945,11.263-5.635c6.645-2.818,13.403-5.072,20.273-6.537
		c14.979-3.381,30.522-4.959,46.177-4.846c33.337,0.338,64.76,8.566,89.2,23.331v-11.384
		c-26.129-14.314-57.439-21.302-88.749-21.527c-16.556-0.113-32.999,1.578-48.655,5.072c-6.194,1.353-12.276,3.269-18.245,5.523
		c-3.829,1.465-7.546,3.156-11.263,5.072c-27.143,13.863-48.204,37.645-49.443,68.753c-1.239,30.206,23.652,52.748,49.781,68.64
		c3.717,2.254,7.433,4.17,11.037,6.312c1.577,0.902,3.041,1.691,4.392,2.254c3.041,1.578,16.556,8.002,33.45,9.468
		c-10.587,10.595-17.119,25.134-17.119,41.252c0,5.974,0.901,11.834,2.59,17.245c-13.628-8.002-28.157-13.187-35.139-15.892
		c-17.457-7.326-36.153-16.794-52.709-28.741c-3.829-2.705-7.546-5.635-11.15-8.566c-22.187-18.597-38.293-42.153-38.18-71.007
		c0.113-16.681,4.618-35.842,13.065-50.719c6.082-10.82,14.867-21.64,24.778-30.657c3.604-3.269,7.433-6.312,11.263-9.129
		c1.126-0.789,2.253-1.578,3.379-2.367c14.867-9.806,32.436-17.357,49.781-22.091c0.901-0.225,1.802-0.451,2.703-0.676
		c2.816-0.676,5.744-1.353,8.56-2.029c18.358-3.945,36.829-5.635,55.299-5.523c15.43,0.113,30.972,1.691,46.289,4.396
		c21.512,3.832,38.406,9.806,53.948,15.892v-10.482c-14.754-5.635-31.31-11.158-51.695-14.765
		c-16.106-2.818-32.211-4.396-48.091-4.508C155.135-478.873,136.439-477.07,118.306-473.35z M197.483-287.718
		c13.177,0,25.116,5.297,33.9,13.863c1.352,1.803,2.816,3.381,4.28,4.959c6.42,8.228,10.474,18.484,10.474,29.755
		c0,26.825-21.737,48.69-48.542,48.69s-48.655-21.753-48.655-48.578S170.678-287.718,197.483-287.718z"/>
	<path id="Shape_3_" fill="#FFFFFF" d="M118.419-311.275l-0.113-89.604c-3.829,1.691-7.546,3.494-11.15,5.635l0.225,76.755
		C110.76-316.121,114.477-313.641,118.419-311.275z"/>
	<path id="Shape_4_" fill="#FFFFFF" d="M-7.272-533.424c1.239,0.225,2.365,0.451,3.604,0.789c3.491,1.014,6.87,2.029,10.136,3.269
		c1.689,0.676,3.379,1.465,5.068,2.254c3.491,1.803,6.645,3.832,9.461,6.086c3.491,2.818,6.645,5.974,9.235,9.355
		c2.816,3.607,5.181,7.777,6.983,12.173c1.915,4.734,3.379,9.918,4.28,15.554c0.901,5.974,1.239,12.623,0.901,19.499v0.113v16.794
		c1.915-1.465,3.942-2.818,5.969-4.17c1.689-1.127,3.491-2.254,5.293-3.381v-9.017c0.338-7.664,0-14.99-1.014-21.64
		c-1.014-6.537-2.703-12.623-4.956-18.146c-1.239-3.043-2.816-5.974-4.618-8.679c-1.689-2.592-3.717-4.959-5.857-7.213
		c-2.253-2.48-6.42-5.072-6.42-6.199c0-0.113,0.113-0.676,0.225-0.676c0,0,0.225-0.225,0.676-0.451
		c0.225-0.113,0.563-0.225,0.901-0.225l46.064,0.113l0,0h1.577h1.577l0,0l46.064-0.113c0.338,0,0.676,0.113,0.901,0.225
		c0.451,0.225,0.676,0.451,0.676,0.451c0.113,0,0.225,0.676,0.225,0.676c0,1.127-4.167,3.719-6.42,6.199
		c-2.14,2.254-4.167,4.621-5.857,7.213c-1.802,2.705-3.379,5.635-4.618,8.679c-2.253,5.523-3.942,11.722-4.956,18.146
		c-0.451,2.818-0.788,5.635-0.901,8.679c3.829-0.902,7.659-1.803,11.488-2.592c0.113-1.465,0.338-2.93,0.563-4.396
		c0.901-5.635,2.253-10.82,4.28-15.554c1.464-3.607,3.266-6.875,5.293-9.918c5.519-6.875,17.908-17.808,44.037-23.444
		c0.563-0.113,1.239-0.225,1.802-0.338c1.352-0.338,3.041-0.789,3.041-2.48c0-1.916-2.703-2.141-4.392-2.141l0,0h-0.676h-0.113
		l-22.638,0.113l0,0h-3.266h-1.689H81.703h-3.266H15.479h-1.689H9.622H4.329h-4.956c-1.239,0-2.59-0.113-3.829-0.113
		c-1.464,0-5.068-0.113-5.068,2.141C-9.074-534.439-8.173-533.65-7.272-533.424z"/>
	<path id="Shape_5_" fill="#FFFFFF" d="M302.225,44.661h22.187h2.816h14.304h7.884c2.816,0,2.14-1.803,2.14-1.803
		C341.532,29.22,341.081,0.817,341.081,0.817v-19.499c-7.208,5.861-15.43,11.271-24.44,15.892c-2.027,1.014-3.942,2.029-5.969,2.93
		V0.93c0,0-0.451,28.29-10.362,42.041C300.085,42.858,299.409,44.661,302.225,44.661z"/>
	<path id="Shape_6_" fill="#FFFFFF" d="M76.635-365.713c-0.563,13.412,6.42,26.487,20.723,39.223v-62.328
		c-8.334,6.199-15.43,13.638-20.611,22.204C76.635-366.389,76.635-366.051,76.635-365.713z"/>
	<path id="Shape_7_" fill="#FFFFFF" d="M361.354-359.514c13.628,4.396,27.593,7.777,42.347,10.482l21.737,3.832l-10.587-18.033l0,0
		v-0.113c-7.996-12.962-17.232-24.796-27.593-35.053c7.771-3.945,15.43-8.791,21.624-15.216c17.457-18.372,7.095-37.758,2.14-47
		l-10.024-18.71l-1.014-1.803l-7.546,22.767c-2.478,7.439-9.461,15.216-22.075,19.273l0,0h-0.225
		c-2.703,0.789-5.519,1.465-8.672,1.916c-3.379,0.451-7.095,0.789-11.15,0.676h-0.113c-3.829,0-7.546-0.338-11.15-1.014
		c-10.362-1.803-19.935-4.621-29.17-7.89v10.369c8.447,2.818,17.232,5.297,26.805,6.988c4.055,0.676,8.56,1.127,13.065,1.127h0.451
		c3.717,0,7.433-0.225,11.263-0.676c17.682-2.367,34.689-10.82,40.545-28.29c6.645,12.398,10.812,24.232-0.451,36.18
		c-8.447,8.904-20.498,14.427-31.873,18.822c14.529,12.173,26.692,26.712,36.378,42.604v0.113
		c-15.43-2.705-30.071-6.424-44.6-11.271c-3.717-1.24-7.433-2.592-11.15-4.058l0,0c-0.338,24.007-8.222,44.295-36.04,44.407
		c2.928-6.988,4.167-13.525,4.73-20.851c1.014-13.751-3.154-24.909-9.01-36.18l0.113,67.4c13.29-0.338,24.778-4.734,33.563-12.849
		c2.59-2.367,4.843-5.072,6.87-8.002c3.942-5.861,6.87-12.849,8.447-20.513C359.552-360.078,360.453-359.739,361.354-359.514z"/>
	<path id="Shape_8_" fill="#FFFFFF" d="M235.775-533.65c1.239,0.225,2.365,0.451,3.604,0.789c3.491,1.014,6.87,2.029,10.136,3.269
		c1.689,0.676,3.379,1.465,5.068,2.254c3.491,1.803,6.645,3.832,9.461,6.086c3.491,2.818,6.645,5.974,9.235,9.355
		c2.816,3.607,5.181,7.777,6.983,12.173c1.915,4.734,3.379,9.918,4.28,15.554c0.901,5.974,1.239,12.623,0.901,19.499v0.113
		l0.45,208.625c3.266,1.24,6.645,2.592,10.249,3.832c0.338,0.113,0.563,0.225,0.901,0.338v-0.451l-0.225-212.006
		c0.338-7.664,0-14.99-1.014-21.64c-1.014-6.537-2.703-12.623-4.956-18.146c-1.239-3.043-2.816-5.974-4.618-8.679
		c-1.689-2.592-3.717-4.959-5.857-7.213c-2.253-2.48-6.42-5.072-6.42-6.199c0-0.113,0.113-0.676,0.225-0.676
		c0,0,0.225-0.225,0.676-0.451c0.225-0.113,0.563-0.225,0.901-0.225l46.064,0.113l0,0h1.577h1.577l0,0l46.064-0.113
		c0.338,0,0.676,0.113,0.901,0.225c0.451,0.225,0.676,0.451,0.676,0.451c0.113,0,0.225,0.676,0.225,0.676
		c0,1.127-4.167,3.719-6.42,6.199c-2.14,2.254-4.167,4.621-5.857,7.213c-1.802,2.705-3.379,5.635-4.618,8.679
		c-2.253,5.523-3.942,11.722-4.956,18.146c-1.014,6.65-1.352,13.976-1.014,21.64v21.527h1.802c3.154,0,6.307-0.113,9.461-0.564
		v-21.189v-0.113c-0.338-6.988,0-13.525,0.901-19.499c0.901-5.635,2.253-10.82,4.28-15.554c1.464-3.607,3.266-6.875,5.293-9.918
		c5.519-6.875,17.908-17.808,44.037-23.444c0.563-0.113,1.239-0.225,1.802-0.338c1.352-0.338,3.041-0.789,3.041-2.48
		c0-1.916-2.703-2.141-4.392-2.141l0,0h-0.676c0,0,0,0-0.113,0l-22.638,0.113h-3.266h-1.689h-62.958h-3.266h-62.845h-1.689h-4.167
		h-5.293h-4.956c-1.239,0-2.59-0.113-3.829-0.113c-1.464,0-5.068-0.113-5.068,2.141C233.861-534.552,234.762-533.875,235.775-533.65
		z"/>
	<path id="Shape_9_" fill="#FFFFFF" d="M340.293-471.772c0,0,0.451-28.29,10.362-42.041c0,0,0.676-1.803-2.14-1.803h-7.884h-14.304
		h-2.816h-22.187c-2.816,0-2.14,1.803-2.14,1.803c10.024,13.638,10.474,42.041,10.474,42.041v19.161
		c9.798,3.607,19.71,6.875,30.522,8.791L340.293-471.772z"/>
	<path id="Shape_10_" fill="#FFFFFF" d="M340.405-231.026v-69.316c-8.222,6.537-18.583,10.144-30.409,10.482l0.113,43.055
		C320.921-242.635,331.17-237.225,340.405-231.026z"/>
	<path id="Shape_11_" fill="#FFFFFF" d="M175.408,62.582c-0.563-0.113-1.126-0.338-1.802-0.338
		c-26.129-5.523-38.631-16.456-44.037-23.331c-2.14-3.043-3.942-6.424-5.406-9.918c-1.915-4.734-3.379-9.918-4.28-15.554
		c-0.901-5.974-1.239-12.623-0.901-19.499v-0.113v-4.283c-0.338-0.113-0.676-0.113-0.901-0.225
		c-3.604-0.676-7.095-1.127-10.362-1.24v5.41c-0.338,7.664,0,14.99,1.014,21.64c1.014,6.537,2.703,12.623,4.956,18.146
		c1.239,3.043,2.816,5.974,4.618,8.679c1.689,2.592,3.717,4.959,5.857,7.213c2.253,2.48,6.42,5.072,6.42,6.199
		c0,0.113-0.113,0.676-0.225,0.676c0,0-0.225,0.225-0.676,0.451c-0.225,0.113-0.563,0.225-0.901,0.225l-46.064-0.113l0,0H81.14
		h-1.577l0,0l-46.064,0.113c-0.338,0-0.676-0.113-0.901-0.225c-0.451-0.225-0.676-0.451-0.676-0.451
		c-0.113,0-0.225-0.676-0.225-0.676c0-1.127,4.167-3.719,6.42-6.199c2.14-2.254,4.167-4.621,5.857-7.213
		c1.802-2.705,3.379-5.635,4.618-8.679c2.253-5.523,3.942-11.722,4.956-18.146c1.014-6.65,1.352-13.976,1.014-21.64l-0.451-219.107
		c-0.788-0.564-1.577-1.014-2.365-1.578c-2.365-1.578-4.73-3.269-6.983-4.959c-0.563-0.451-1.239-0.902-1.802-1.352v0.338v5.974
		l0.225,220.91v0.113c0.338,6.988,0,13.525-0.901,19.499c-0.901,5.635-2.253,10.82-4.167,15.554
		c-1.802,4.396-4.167,8.566-6.983,12.173c-2.59,3.494-5.744,6.65-9.235,9.355c-2.928,2.254-6.082,4.283-9.461,6.086
		c-1.689,0.902-3.379,1.691-5.068,2.367c-3.379,1.353-6.758,2.367-10.136,3.269c-1.126,0.338-2.365,0.564-3.604,0.789
		c-1.014,0.225-1.915,0.902-1.915,2.029c0,2.254,3.604,2.141,5.068,2.141c1.239,0,2.59-0.113,3.829-0.113h4.956h5.293h4.167h1.689
		h62.958h3.266h62.845h1.689h3.266l0,0l22.638,0.113h0.113h0.676l0,0c1.689,0,4.392-0.225,4.392-2.141
		C178.449,63.371,176.759,62.92,175.408,62.582z"/>
	<path id="Shape_12_" fill="#FFFFFF" d="M29.106-43.815c-0.113,0.338-0.225,0.789-0.451,1.127
		c-1.689,4.846-2.816,9.806-3.154,14.652C24.714-17.442,27.53-8.763,31.584-2c0.113-24.683,0.113-42.379,0.113-51.057
		c-2.365,0.113-4.73,0.113-7.208,0.113c-10.699,0-21.286-0.789-31.648-2.93C1.288-68.161,16.267-78.53,31.584-83.264v-3.494
		c-10.699-7.777-33.112-30.882-27.931-87.35c0,0,9.911,15.103,27.706,34.827v-15.103c-12.164-14.314-18.921-24.571-19.034-24.796
		l-14.867-22.655l-1.126-1.803l-2.703,29.079c-4.392,47.563,9.686,73.712,22.638,87.35C3.202-80.897-8.286-71.542-15.606-60.722
		l-7.433,10.933l1.689,0.338l11.601,2.48c9.911,2.141,20.948,3.156,33.9,3.156C25.84-43.703,27.417-43.703,29.106-43.815z"/>
	<path id="Shape_13_" fill="#FFFFFF" d="M286.232-19.019c3.829-1.127,7.546-2.254,11.263-3.607
		c6.645-2.367,13.177-5.185,19.372-8.453c8.897-4.508,16.894-9.806,23.989-15.554v-12.285
		c-12.164,11.384-27.143,20.288-43.361,26.487c-3.717,1.465-7.433,2.705-11.263,3.832c-14.754,4.396-30.071,6.65-44.713,6.65
		c-4.505,0-9.123-0.225-13.515-0.676c-36.378-3.719-96.521-23.556-107.445-25.585c-0.563-0.113-1.014-0.225-1.577-0.225
		c-3.717-0.676-7.546-1.014-11.263-1.24h-2.703c-13.628,0-26.242,4.058-35.252,15.779c-0.901,1.127-1.689,2.254-2.365,3.494v15.441
		c0,0,3.942-5.185,10.362-13.863c6.082-8.002,14.529-11.722,26.692-11.722c1.014,0,2.027,0,3.154,0.113
		c3.266,0.225,6.758,0.564,10.474,1.24c0.225,0,0.451,0.113,0.788,0.113c3.154,0.676,10.249,2.705,18.245,4.959
		c24.89,7.101,62.395,17.808,89.2,20.513c4.73,0.451,9.573,0.676,14.529,0.676C256.048-12.708,271.365-14.962,286.232-19.019z"/>
	<path id="Shape_14_" fill="#FFFFFF" d="M418.343,62.357c-0.563-0.113-1.126-0.338-1.802-0.338
		c-26.129-5.523-38.631-16.456-44.037-23.331c-2.14-3.043-3.942-6.424-5.406-9.918c-1.915-4.734-3.379-9.918-4.28-15.554
		c-0.901-5.974-1.239-12.623-0.901-19.499v-0.113l-0.451-220.91v-15.779v-3.156l-0.113-83.856c-1.014-0.338-2.14-0.676-3.154-1.014
		c-1.464,7.326-4.167,13.976-7.884,19.724l0.113,68.527v1.691v13.863l0.225,220.685c-0.338,7.664,0,14.99,1.014,21.64
		c1.014,6.537,2.703,12.623,4.956,18.146c1.239,3.043,2.816,5.974,4.618,8.679c1.689,2.592,3.717,4.959,5.857,7.213
		c2.253,2.48,6.42,5.072,6.42,6.199c0,0.113-0.113,0.676-0.225,0.676c0,0-0.225,0.225-0.676,0.451
		c-0.225,0.113-0.563,0.225-0.901,0.225l-46.064-0.113l0,0h-1.577h-1.577l0,0l-46.064,0.113c-0.338,0-0.676-0.113-0.901-0.225
		c-0.451-0.225-0.676-0.451-0.676-0.451c-0.113,0-0.225-0.676-0.225-0.676c0-1.127,4.167-3.719,6.42-6.199
		c2.14-2.254,4.167-4.621,5.857-7.213c1.802-2.705,3.379-5.635,4.618-8.679c2.253-5.523,3.942-11.722,4.956-18.146
		c0.451-3.043,0.788-6.199,1.014-9.468c-3.829,1.352-7.659,2.592-11.6,3.719c-0.113,1.352-0.338,2.705-0.563,4.058
		c-0.901,5.635-2.253,10.82-4.28,15.554c-1.802,4.396-4.167,8.566-6.983,12.173c-2.59,3.494-5.744,6.65-9.235,9.355
		c-2.816,2.254-6.082,4.283-9.461,6.086c-1.689,0.902-3.379,1.691-5.068,2.367c-3.379,1.353-6.758,2.367-10.136,3.269
		c-1.126,0.338-2.365,0.564-3.604,0.789c-1.014,0.225-1.915,0.902-1.915,2.029c0,2.254,3.604,2.141,5.068,2.141
		c1.239,0,2.59-0.113,3.829-0.113h4.956h5.293h4.167h1.689h62.958h3.266h62.845h1.689h3.266l0,0l22.638,0.113h0.113h0.676l0,0
		c1.689,0,4.392-0.225,4.392-2.141C421.496,63.146,419.694,62.807,418.343,62.357z"/>
	<path id="Shape_15_" fill="#FFFFFF" d="M328.242-109.187c-4.055-8.34-10.136-16.23-18.02-23.331l0.113,60.412
		c6.532-5.974,11.488-13.074,14.529-20.964C327.003-98.367,328.016-103.777,328.242-109.187z"/>
	<path id="Shape_16_" fill="#FFFFFF" d="M98.484,44.887h7.884c2.816,0,2.14-1.803,2.14-1.803
		C98.484,29.446,98.034,1.043,98.034,1.043v-12.736C63.232-9.665,64.02,44.661,64.02,44.661L98.484,44.887z"/>
	<path id="Shape_17_" fill="#FFFFFF" d="M297.382-62.638l-0.225-79.685c-3.604-2.367-7.321-4.508-11.15-6.424l0.113,91.52
		C290.061-58.919,293.891-60.722,297.382-62.638z"/>
	<path id="Shape_18_" fill="#FFFFFF" d="M97.47-202.397c-10.024-4.396-20.385-9.468-30.409-15.216l0.113,89.942
		c9.123,8.453,19.259,17.019,30.522,25.021L97.47-202.397z"/>
	<path id="Shape_19_" fill="#FFFFFF" d="M107.607-198.114l0.113,102.227c3.604,2.367,7.321,4.621,11.15,6.763l-0.225-104.932
		C115.04-195.297,111.323-196.649,107.607-198.114z"/>
</g>
<g id="Group-2" transform="translate(16.000000, 8.000000)">
	<g id="logo-mark" transform="translate(299.214286, 0.000000)">
		<g id="Group_1_">
			<ellipse id="Oval" stroke="#FCFDFF" stroke-width="4" cx="2031.766" cy="-192.295" rx="452.524" ry="452.857"/>
			<g id="Shape" transform="translate(77.734795, 43.938119)">
				<path fill="#FFFFFF" d="M1833.217-476.021c9.647-4.827,19.855-8.869,30.512-12.124c0.337-7.409,2.131-28.065,10.208-39.179
					c0,0,0.673-1.796-2.131-1.796h-7.852h-14.247h-2.804h-22.099c-2.804,0-2.131,1.796-2.131,1.796
					c9.984,13.583,10.432,41.873,10.432,41.873L1833.217-476.021z"/>
				<path fill="#FFFFFF" d="M1884.594-487.247c-3.59,0.786-7.179,1.572-10.769,2.47c-0.224,0-0.337,0.112-0.449,0.112
					c-19.07,4.827-37.243,12.573-52.836,22.564c-0.785,0.449-1.57,1.01-2.244,1.459c-3.029,2.021-6.057,4.154-8.974,6.511
					c-13.461,10.777-25.577,24.697-33.653,38.954c-8.862,15.604-14.134,36.26-14.134,55.007
					c-0.112,26.157,12.115,50.854,35.672,72.632c3.814,3.592,7.965,7.072,12.452,10.44c3.477,2.694,7.179,5.276,10.993,7.858
					c3.253,2.133,6.619,4.266,10.096,6.287c12.115,7.185,28.381,15.155,41.169,19.87l-0.112,0.112c0,0,0.673,0.225,1.683,0.561
					c1.571,0.561,3.141,1.123,4.599,1.572c9.423,3.48,27.596,11.226,41.057,24.248l0,0c10.657,12.685,26.698,20.768,44.534,20.768
					c11.891,0,22.996-3.592,32.195-9.767c6.058-0.674,22.099-1.459,39.262,5.501c7.179,2.919,13.461,5.725,16.714,7.409
					c3.814,1.908,7.516,4.041,11.106,6.399c1.458,0.898,2.917,1.908,4.263,2.919c4.151,2.919,7.965,6.062,11.33,9.318
					c19.968,19.196,26.811,43.781,17.836,66.682c-5.945,15.043-17.5,27.167-33.204,35.474c-3.59,1.908-7.292,3.592-11.218,5.052
					c-12.115,4.49-25.913,7.072-40.945,7.297c-43.188-0.112-83.011-16.278-116.552-32.331c-3.141-1.459-6.17-3.031-9.198-4.603
					c-3.814-2.021-7.516-4.154-11.106-6.399c-14.92-9.093-28.381-19.421-40.272-29.861v12.91
					c12.003,9.991,25.464,19.646,40.16,28.177c3.59,2.133,7.404,4.041,11.218,5.95c1.458,0.674,2.917,1.459,4.375,2.133
					c37.467,17.849,77.739,33.229,120.927,33.229c15.368-0.225,29.166-2.694,41.394-6.848c3.926-1.347,7.628-2.806,11.218-4.49
					c21.762-10.328,36.682-26.606,43.188-45.016l-0.112-43.332c-5.272-14.706-15.929-28.851-32.868-40.638
					c-3.478-2.47-6.955-4.715-10.545-6.736c-3.702-2.133-7.404-4.041-11.105-5.725c-1.346-0.674-3.141-1.459-5.16-2.245l0,0
					c-14.583-7.97-28.381-10.328-38.589-10.777c8.526-10.103,13.686-23.126,13.686-37.383c0-4.939-0.673-9.767-1.907-14.369
					c10.881,7.185,21.089,11.114,26.362,12.91c2.019,0.786,3.926,1.572,5.609,2.133l0,0c2.917,1.123,6.058,2.133,9.198,3.256
					c0.561,0.225,1.122,0.449,1.795,0.674l0,0c15.48,5.501,30.512,13.808,42.627,24.136c0.224,0.225,0.449,0.337,0.673,0.561
					v-12.573c-12.003-8.981-26.025-16.39-41.281-21.554c-0.673-0.225-1.346-0.449-2.019-0.674l0,0
					c-3.814-1.347-7.516-2.694-10.993-4.041l0,0c-1.571-0.561-3.478-1.347-5.497-2.133c-8.413-3.592-23.894-11.226-36.345-23.238
					c-2.131-2.919-4.599-5.501-7.292-7.97c-0.112-0.112-0.224-0.225-0.337-0.337l0,0c-10.32-9.205-23.782-14.818-38.589-14.818
					c-9.872,0-19.182,2.47-27.371,6.848c-16.827,1.908-34.326-4.603-43.974-8.981c-3.814-1.908-6.731-3.368-7.404-3.705
					c-3.926-2.245-7.628-4.49-10.993-6.736c-6.955-4.603-13.013-9.205-18.173-14.033c-14.695-13.583-21.875-27.841-21.202-42.659
					c1.01-25.708,17.836-45.353,39.15-57.589c3.59-2.021,7.404-3.929,11.218-5.613c6.618-2.806,13.349-5.052,20.192-6.511
					c14.92-3.368,30.4-4.939,45.993-4.827c33.204,0.337,64.502,8.532,88.844,23.238v-11.338
					c-26.025-14.257-57.21-21.217-88.396-21.442c-16.49-0.112-32.868,1.572-48.461,5.052c-6.17,1.347-12.227,3.256-18.173,5.501
					c-3.814,1.459-7.516,3.143-11.218,5.052c-27.035,13.808-48.012,37.495-49.246,68.479c-1.234,30.086,23.557,52.538,49.582,68.366
					c3.702,2.245,7.404,4.154,10.993,6.287c1.57,0.898,3.029,1.684,4.375,2.245c3.029,1.572,16.49,7.97,33.317,9.43
					c-10.545,10.552-17.051,25.034-17.051,41.087c0,5.95,0.897,11.787,2.58,17.176c-13.573-7.97-28.044-13.134-34.999-15.829
					c-17.387-7.297-36.009-16.727-52.499-28.626c-3.814-2.694-7.516-5.613-11.105-8.532c-22.099-18.523-38.14-41.985-38.028-70.724
					c0.112-16.615,4.599-35.699,13.013-50.517c6.058-10.777,14.807-21.554,24.679-30.535c3.59-3.256,7.404-6.287,11.218-9.093
					c1.122-0.786,2.244-1.572,3.365-2.357c14.807-9.767,32.307-17.288,49.582-22.003c0.897-0.225,1.795-0.449,2.692-0.674
					c2.804-0.674,5.721-1.347,8.526-2.021c18.285-3.929,36.682-5.613,55.079-5.501c15.368,0.112,30.849,1.684,46.105,4.378
					c21.426,3.817,38.252,9.767,53.733,15.829v-10.44c-14.695-5.613-31.185-11.114-51.489-14.706
					c-16.041-2.806-32.083-4.378-47.9-4.49C1921.276-492.747,1902.654-490.951,1884.594-487.247z M1963.455-302.354
					c13.125,0,25.016,5.276,33.765,13.808c1.346,1.796,2.804,3.368,4.263,4.939c6.394,8.195,10.432,18.411,10.432,29.637
					c0,26.718-21.65,48.496-48.349,48.496s-48.461-21.666-48.461-48.384S1936.756-302.354,1963.455-302.354z"/>
				<path fill="#FFFFFF" d="M1884.706-325.817l-0.112-89.247c-3.814,1.684-7.516,3.48-11.106,5.613l0.224,76.449
					C1877.078-330.644,1880.78-328.174,1884.706-325.817z"/>
				<path fill="#FFFFFF" d="M1759.516-547.081c1.234,0.224,2.356,0.449,3.59,0.786c3.478,1.01,6.843,2.021,10.096,3.255
					c1.683,0.674,3.365,1.459,5.048,2.245c3.478,1.796,6.619,3.817,9.423,6.062c3.478,2.807,6.618,5.95,9.198,9.318
					c2.804,3.592,5.16,7.746,6.955,12.124c1.907,4.715,3.365,9.879,4.263,15.492c0.897,5.95,1.234,12.573,0.897,19.421v0.112v16.727
					c1.907-1.459,3.926-2.807,5.945-4.154c1.683-1.123,3.477-2.245,5.272-3.368v-8.981c0.336-7.634,0-14.931-1.01-21.554
					c-1.01-6.511-2.692-12.573-4.936-18.074c-1.234-3.031-2.804-5.95-4.599-8.644c-1.683-2.582-3.702-4.939-5.833-7.185
					c-2.244-2.47-6.394-5.052-6.394-6.174c0-0.112,0.112-0.674,0.224-0.674c0,0,0.224-0.225,0.673-0.449
					c0.224-0.112,0.561-0.225,0.897-0.225l45.88,0.112l0,0h1.57h1.571l0,0l45.88-0.112c0.337,0,0.673,0.112,0.897,0.225
					c0.449,0.224,0.673,0.449,0.673,0.449c0.112,0,0.224,0.674,0.224,0.674c0,1.123-4.151,3.705-6.394,6.174
					c-2.131,2.245-4.151,4.603-5.833,7.185c-1.795,2.694-3.365,5.613-4.599,8.644c-2.244,5.501-3.926,11.675-4.936,18.074
					c-0.449,2.807-0.785,5.613-0.897,8.644c3.814-0.898,7.628-1.796,11.442-2.582c0.112-1.459,0.337-2.919,0.561-4.378
					c0.897-5.613,2.244-10.777,4.263-15.492c1.458-3.592,3.253-6.848,5.272-9.879c5.497-6.848,17.836-17.737,43.861-23.35
					c0.561-0.112,1.234-0.225,1.795-0.337c1.346-0.337,3.029-0.786,3.029-2.47c0-1.908-2.692-2.133-4.375-2.133l0,0h-0.673h-0.112
					l-22.548,0.112l0,0h-3.253h-1.683h-62.707h-3.253h-62.707h-1.683h-4.151h-5.272h-4.936c-1.234,0-2.58-0.112-3.814-0.112
					c-1.458,0-5.048-0.112-5.048,2.133C1757.721-548.092,1758.619-547.306,1759.516-547.081z"/>
				<path fill="#FFFFFF" d="M2067.78,28.701h22.099h2.804h14.246h7.853c2.804,0,2.131-1.796,2.131-1.796
					c-9.984-13.583-10.433-41.873-10.433-41.873v-19.421c-7.179,5.838-15.368,11.226-24.342,15.829
					c-2.019,1.01-3.926,2.021-5.946,2.919v0.786c0,0-0.449,28.177-10.32,41.873C2065.648,26.905,2064.975,28.701,2067.78,28.701z"/>
				<path fill="#FFFFFF" d="M1843.088-380.038c-0.561,13.359,6.394,26.381,20.641,39.066v-62.08
					c-8.301,6.174-15.368,13.583-20.528,22.115C1843.088-380.712,1843.088-380.375,1843.088-380.038z"/>
				<path fill="#FFFFFF" d="M2126.673-373.864c13.573,4.378,27.483,7.746,42.179,10.44l21.65,3.817l-10.545-17.962l0,0v-0.112
					c-7.965-12.91-17.163-24.697-27.483-34.913c7.74-3.929,15.368-8.756,21.538-15.155c17.387-18.298,7.067-37.607,2.131-46.812
					l-9.984-18.635l-1.01-1.796l-7.516,22.677c-2.468,7.409-9.423,15.155-21.987,19.196l0,0h-0.224
					c-2.692,0.786-5.497,1.459-8.638,1.908c-3.365,0.449-7.067,0.786-11.105,0.674h-0.112c-3.814,0-7.516-0.337-11.105-1.01
					c-10.32-1.796-19.855-4.603-29.054-7.858v10.328c8.413,2.806,17.163,5.276,26.698,6.96c4.038,0.674,8.525,1.123,13.012,1.123
					h0.449c3.702,0,7.404-0.225,11.218-0.674c17.612-2.357,34.551-10.777,40.384-28.177c6.619,12.349,10.769,24.136-0.448,36.035
					c-8.413,8.869-20.417,14.369-31.746,18.747c14.471,12.124,26.586,26.606,36.233,42.434v0.112
					c-15.368-2.694-29.951-6.399-44.422-11.226c-3.702-1.235-7.404-2.582-11.105-4.041l0,0c-0.337,23.911-8.189,44.118-35.897,44.23
					c2.917-6.96,4.15-13.471,4.711-20.768c1.01-13.696-3.141-24.809-8.974-36.035l0.112,67.132
					c13.237-0.337,24.679-4.715,33.429-12.798c2.58-2.357,4.824-5.052,6.843-7.97c3.926-5.838,6.843-12.798,8.413-20.431
					C2124.878-374.425,2125.775-374.088,2126.673-373.864z"/>
				<path fill="#FFFFFF" d="M2001.595-547.306c1.234,0.225,2.356,0.449,3.59,0.786c3.478,1.01,6.843,2.021,10.096,3.256
					c1.683,0.674,3.365,1.459,5.048,2.245c3.478,1.796,6.619,3.817,9.423,6.062c3.478,2.807,6.618,5.95,9.199,9.318
					c2.804,3.592,5.16,7.746,6.955,12.124c1.907,4.715,3.365,9.879,4.263,15.492c0.897,5.95,1.234,12.573,0.897,19.421v0.112
					l0.449,207.793c3.253,1.235,6.618,2.582,10.208,3.817c0.337,0.112,0.561,0.225,0.897,0.337v-0.449l-0.224-211.161
					c0.337-7.634,0-14.931-1.01-21.554c-1.01-6.511-2.692-12.573-4.936-18.074c-1.234-3.031-2.804-5.95-4.599-8.644
					c-1.683-2.582-3.702-4.939-5.833-7.185c-2.244-2.47-6.394-5.052-6.394-6.174c0-0.112,0.112-0.674,0.224-0.674
					c0,0,0.224-0.225,0.673-0.449c0.224-0.112,0.561-0.225,0.897-0.225l45.881,0.112l0,0h1.57h1.571l0,0l45.881-0.112
					c0.336,0,0.673,0.112,0.897,0.225c0.449,0.224,0.673,0.449,0.673,0.449c0.112,0,0.224,0.674,0.224,0.674
					c0,1.123-4.15,3.705-6.394,6.174c-2.131,2.245-4.151,4.603-5.833,7.185c-1.795,2.694-3.365,5.613-4.599,8.644
					c-2.244,5.501-3.926,11.675-4.936,18.074c-1.01,6.623-1.346,13.92-1.01,21.554v21.442h1.795c3.141,0,6.282-0.112,9.423-0.561
					v-21.105v-0.112c-0.336-6.96,0-13.471,0.897-19.421c0.897-5.613,2.243-10.777,4.263-15.492c1.458-3.592,3.253-6.848,5.272-9.879
					c5.497-6.848,17.836-17.737,43.861-23.35c0.561-0.112,1.234-0.225,1.795-0.337c1.346-0.337,3.029-0.786,3.029-2.47
					c0-1.908-2.692-2.133-4.375-2.133l0,0h-0.673c0,0,0,0-0.112,0l-22.548,0.112h-3.253h-1.683h-62.707h-3.253h-62.595h-1.683
					h-4.151h-5.272h-4.936c-1.234,0-2.58-0.112-3.814-0.112c-1.458,0-5.048-0.112-5.048,2.133
					C1999.688-548.204,2000.585-547.53,2001.595-547.306z"/>
				<path fill="#FFFFFF" d="M2105.696-485.675c0,0,0.449-28.177,10.32-41.873c0,0,0.673-1.796-2.131-1.796h-7.852h-14.247h-2.804
					h-22.099c-2.804,0-2.131,1.796-2.131,1.796c9.984,13.583,10.433,41.873,10.433,41.873v19.084
					c9.759,3.592,19.631,6.848,30.4,8.756L2105.696-485.675z"/>
				<path fill="#FFFFFF" d="M2105.808-245.887v-69.04c-8.189,6.511-18.509,10.103-30.288,10.44l0.112,42.883
					C2086.401-257.45,2096.609-252.062,2105.808-245.887z"/>
				<path fill="#FFFFFF" d="M1941.468,46.55c-0.561-0.112-1.122-0.337-1.795-0.337c-26.025-5.501-38.477-16.39-43.861-23.238
					c-2.131-3.031-3.926-6.399-5.385-9.879c-1.907-4.715-3.365-9.879-4.263-15.492c-0.897-5.95-1.234-12.573-0.897-19.421v-0.112
					v-4.266c-0.337-0.112-0.673-0.112-0.897-0.225c-3.59-0.674-7.067-1.123-10.32-1.235v5.388c-0.337,7.634,0,14.931,1.01,21.554
					c1.01,6.511,2.692,12.573,4.936,18.074c1.234,3.031,2.804,5.95,4.599,8.644c1.683,2.582,3.702,4.939,5.833,7.185
					c2.244,2.47,6.394,5.052,6.394,6.174c0,0.112-0.112,0.674-0.224,0.674c0,0-0.224,0.224-0.673,0.449
					c-0.224,0.112-0.561,0.224-0.897,0.224l-45.88-0.112l0,0h-1.571h-1.57l0,0l-45.881,0.112c-0.337,0-0.673-0.112-0.897-0.224
					c-0.449-0.225-0.673-0.449-0.673-0.449c-0.112,0-0.224-0.674-0.224-0.674c0-1.123,4.151-3.705,6.394-6.174
					c2.131-2.245,4.151-4.603,5.833-7.185c1.795-2.694,3.365-5.613,4.599-8.644c2.244-5.501,3.926-11.675,4.936-18.074
					c1.01-6.623,1.346-13.92,1.01-21.554l-0.449-218.234c-0.785-0.561-1.57-1.01-2.356-1.572c-2.356-1.572-4.711-3.256-6.955-4.939
					c-0.561-0.449-1.234-0.898-1.795-1.347v0.337v5.95l0.224,220.03v0.112c0.336,6.96,0,13.471-0.897,19.421
					c-0.897,5.613-2.244,10.777-4.151,15.492c-1.795,4.378-4.151,8.532-6.955,12.124c-2.58,3.48-5.721,6.623-9.198,9.318
					c-2.917,2.245-6.058,4.266-9.423,6.062c-1.683,0.898-3.365,1.684-5.048,2.357c-3.365,1.347-6.731,2.357-10.096,3.256
					c-1.122,0.337-2.356,0.561-3.59,0.786c-1.01,0.225-1.907,0.898-1.907,2.021c0,2.245,3.59,2.133,5.048,2.133
					c1.234,0,2.58-0.112,3.814-0.112h4.936h5.272h4.151h1.683h62.707h3.253h62.595h1.683h3.253l0,0l22.548,0.112h0.112h0.673l0,0
					c1.683,0,4.375-0.224,4.375-2.133C1944.497,47.336,1942.814,46.887,1941.468,46.55z"/>
				<path fill="#FFFFFF" d="M1795.749-59.423c-0.112,0.337-0.224,0.786-0.449,1.123c-1.683,4.827-2.804,9.767-3.141,14.594
					c-0.785,10.552,2.019,19.196,6.058,25.932c0.112-24.585,0.112-42.21,0.112-50.854c-2.356,0.112-4.711,0.112-7.179,0.112
					c-10.657,0-21.202-0.786-31.522-2.919c8.413-12.236,23.333-22.564,38.589-27.279v-3.48c-10.657-7.746-32.98-30.759-27.82-87.002
					c0,0,9.872,15.043,27.596,34.688v-15.043c-12.115-14.257-18.846-24.473-18.958-24.697l-14.807-22.564l-1.122-1.796
					l-2.692,28.963c-4.375,47.374,9.647,73.418,22.548,87.002c-13.013,6.287-24.455,15.604-31.746,26.381l-7.404,10.889l1.683,0.337
					l11.554,2.47c9.872,2.133,20.865,3.143,33.765,3.143C1792.496-59.311,1794.067-59.311,1795.749-59.423z"/>
				<path fill="#FFFFFF" d="M2051.85-34.726c3.814-1.123,7.516-2.245,11.218-3.592c6.618-2.357,13.125-5.164,19.295-8.419
					c8.862-4.49,16.826-9.767,23.894-15.492v-12.236c-12.115,11.338-27.035,20.207-43.188,26.381
					c-3.702,1.459-7.404,2.694-11.218,3.817c-14.695,4.378-29.951,6.623-44.534,6.623c-4.487,0-9.086-0.224-13.461-0.674
					c-36.233-3.705-96.136-23.462-107.017-25.483c-0.561-0.112-1.01-0.225-1.57-0.225c-3.702-0.674-7.516-1.01-11.218-1.235h-2.692
					c-13.573,0-26.137,4.041-35.112,15.716c-0.897,1.123-1.683,2.245-2.356,3.48v15.38c0,0,3.926-5.164,10.32-13.808
					c6.058-7.97,14.471-11.675,26.586-11.675c1.01,0,2.019,0,3.141,0.112c3.253,0.225,6.731,0.561,10.432,1.235
					c0.224,0,0.449,0.112,0.785,0.112c3.141,0.674,10.208,2.694,18.173,4.939c24.791,7.072,62.146,17.737,88.844,20.431
					c4.711,0.449,9.535,0.674,14.471,0.674C2021.787-28.44,2037.043-30.685,2051.85-34.726z"/>
				<path fill="#FFFFFF" d="M2183.435,46.326c-0.561-0.112-1.122-0.337-1.795-0.337c-26.025-5.501-38.477-16.39-43.861-23.238
					c-2.131-3.031-3.926-6.399-5.385-9.879c-1.907-4.715-3.365-9.879-4.263-15.492c-0.897-5.95-1.234-12.573-0.897-19.421v-0.112
					l-0.449-220.03v-15.716v-3.143l-0.112-83.522c-1.01-0.337-2.131-0.674-3.141-1.01c-1.458,7.297-4.15,13.92-7.852,19.646
					l0.112,68.254v1.684v13.808l0.224,219.805c-0.336,7.634,0,14.931,1.01,21.554c1.01,6.511,2.692,12.573,4.936,18.074
					c1.234,3.031,2.805,5.95,4.599,8.644c1.683,2.582,3.702,4.939,5.833,7.185c2.244,2.47,6.394,5.052,6.394,6.174
					c0,0.112-0.112,0.674-0.224,0.674c0,0-0.224,0.225-0.673,0.449c-0.224,0.112-0.561,0.224-0.897,0.224l-45.881-0.112l0,0h-1.571
					h-1.571l0,0l-45.88,0.112c-0.337,0-0.673-0.112-0.897-0.224c-0.449-0.225-0.673-0.449-0.673-0.449
					c-0.112,0-0.224-0.674-0.224-0.674c0-1.123,4.151-3.705,6.394-6.174c2.131-2.245,4.151-4.603,5.833-7.185
					c1.795-2.694,3.365-5.613,4.599-8.644c2.243-5.501,3.926-11.675,4.936-18.074c0.449-3.031,0.785-6.174,1.01-9.43
					c-3.814,1.347-7.628,2.582-11.554,3.705c-0.112,1.347-0.337,2.694-0.561,4.041c-0.897,5.613-2.244,10.777-4.263,15.492
					c-1.795,4.378-4.151,8.532-6.955,12.124c-2.58,3.48-5.721,6.623-9.198,9.318c-2.804,2.245-6.058,4.266-9.423,6.062
					c-1.683,0.898-3.365,1.684-5.048,2.357c-3.365,1.347-6.731,2.357-10.096,3.256c-1.122,0.337-2.356,0.561-3.59,0.786
					c-1.01,0.225-1.907,0.898-1.907,2.021c0,2.245,3.59,2.133,5.048,2.133c1.234,0,2.58-0.112,3.814-0.112h4.936h5.272h4.151h1.683
					h62.707h3.253h62.595h1.683h3.253l0,0l22.548,0.112h0.112h0.673l0,0c1.683,0,4.375-0.224,4.375-2.133
					C2186.575,47.111,2184.781,46.775,2183.435,46.326z"/>
				<path fill="#FFFFFF" d="M2093.693-124.534c-4.038-8.307-10.096-16.165-17.948-23.238l0.112,60.171
					c6.506-5.95,11.442-13.022,14.471-20.88C2092.459-113.757,2093.468-119.146,2093.693-124.534z"/>
				<path fill="#FFFFFF" d="M1864.851,28.925h7.852c2.804,0,2.131-1.796,2.131-1.796c-9.984-13.583-10.432-41.873-10.432-41.873
					v-12.685c-34.663,2.021-33.878,56.13-33.878,56.13L1864.851,28.925z"/>
				<path fill="#FFFFFF" d="M2062.956-78.171l-0.224-79.368c-3.59-2.357-7.292-4.49-11.106-6.399l0.112,91.155
					C2055.665-74.466,2059.479-76.262,2062.956-78.171z"/>
				<path fill="#FFFFFF" d="M1863.841-217.373c-9.984-4.378-20.304-9.43-30.288-15.155l0.112,89.584
					c9.086,8.419,19.182,16.951,30.4,24.922L1863.841-217.373z"/>
				<path fill="#FFFFFF" d="M1873.937-213.107l0.112,101.82c3.59,2.357,7.292,4.603,11.106,6.736l-0.224-104.514
					C1881.341-210.301,1877.639-211.648,1873.937-213.107z"/>
			</g>
		</g>
	</g>
</g>
</svg>
