<?xml version="1.0" encoding="UTF-8" standalone="no"?>
<svg width="617px" height="192px" viewBox="0 0 617 192" version="1.1" xmlns="http://www.w3.org/2000/svg" xmlns:xlink="http://www.w3.org/1999/xlink">
    <!-- Generator: Sketch 42 (36781) - http://www.bohemiancoding.com/sketch -->
    <title>logo-selection</title>
    <desc>Created with Sketch.</desc>
    <defs></defs>
    <g id="Page-1" stroke="none" stroke-width="1" fill="none" fill-rule="evenodd">
        <g id="logo-selection">
            <g transform="translate(52.000000, 4.000000)">
                <g id="hotsalvation" transform="translate(136.754630, 23.830508)" fill-rule="nonzero" fill="#FFFFFF">
                    <g id="Desktop-HD">
                        <g id="Group-11">
                            <g id="Page-1_1_" transform="translate(0.000000, 0.128163)">
                                <path d="M84.781713,64.8440678 C84.4060185,65.4711864 84.4060185,66.3491525 83.7798611,66.7254237 C83.6546296,66.3491525 83.6546296,65.8474576 83.7798611,65.3457627 C83.5293981,64.7186441 83.6546296,64.0915254 83.5293981,63.4644068 C83.5293981,63.3389831 83.4041667,63.2135593 83.2789352,62.9627119 L83.2789352,62.3355932 C83.2789352,62.0847458 83.0284722,61.959322 83.0284722,61.7084746 L83.0284722,61.0813559 C82.9032407,60.579661 82.6527778,59.9525424 82.4023148,59.4508475 C81.9013889,58.4474576 81.2752315,57.3186441 80.6490741,56.5661017 C80.3986111,56.1898305 80.0229167,55.8135593 79.7724537,55.5627119 C79.6472222,55.4372881 79.3967593,55.3118644 79.2715278,55.1864407 C79.1462963,55.0610169 79.0210648,54.9355932 78.8958333,54.8101695 C78.6453704,54.6847458 78.3949074,54.4338983 78.1444444,54.3084746 L78.1444444,53.9322034 L76.5164352,53.9322034 L76.5164352,53.9322034 C75.5145833,53.8067797 73.8865741,53.6813559 72.0081019,53.6813559 C70.755787,53.6813559 69.2530093,53.5559322 67.7502315,53.5559322 L66.1222222,53.5559322 L64.9951389,53.5559322 C59.6101852,53.4305085 53.7243056,53.4305085 50.3430556,53.3050847 L49.9673611,50.1694915 C53.849537,50.2949153 59.7354167,50.2949153 60.3615741,50.420339 C60.9877315,50.5457627 61.6138889,50.5457627 62.1148148,50.6711864 C62.2400463,50.6711864 62.3652778,50.6711864 62.4905093,50.7966102 C62.7409722,50.7966102 64.1185185,50.9220339 65.8717593,50.9220339 L67.4997685,50.9220339 L71.7576389,50.9220339 C74.3875,50.9220339 76.7668981,51.0474576 77.8939815,51.0474576 C78.1444444,51.0474576 78.3949074,51.0474576 78.3949074,51.1728814 C79.6472222,51.9254237 81.2752315,53.3050847 82.4023148,54.9355932 C82.7780093,55.4372881 83.0284722,55.9389831 83.4041667,56.5661017 C83.5293981,56.6915254 83.4041667,56.9423729 83.5293981,57.0677966 C83.6546296,57.4440678 83.9050926,57.820339 84.0303241,58.0711864 C84.1555556,58.5728814 84.1555556,58.9491525 84.4060185,59.4508475 C84.4060185,60.0779661 84.6564815,60.7050847 84.6564815,61.3322034 C84.9069444,62.4610169 84.9069444,63.7152542 84.781713,64.8440678 M80.6490741,71.4915254 C80.1481481,72.3694915 79.2715278,73.3728814 78.1444444,74.2508475 L78.1444444,56.8169492 C78.6453704,57.1932203 79.1462963,57.5694915 79.5219907,58.1966102 C80.2733796,59.2 81.0247685,60.4542373 81.400463,61.4576271 L81.400463,61.959322 C81.5256944,62.5864407 81.9013889,63.2135593 82.0266204,63.840678 C82.0266204,63.9661017 81.9013889,64.2169492 82.0266204,64.3423729 C82.0266204,64.7186441 82.1518519,65.0949153 82.2770833,65.5966102 C82.0266204,67.4779661 81.7761574,69.6101695 80.6490741,71.4915254 M65.4960648,93.6915254 C65.3708333,93.6915254 65.3708333,93.5661017 65.3708333,93.5661017 C65.8717593,93.0644068 66.3726852,92.5627119 66.7483796,91.8101695 C66.9988426,91.3084746 67.4997685,90.6813559 67.625,90.0542373 C68.0006944,88.8 67.7502315,86.6677966 67.7502315,85.1627119 L67.7502315,82.9050847 L67.625,82.9050847 L67.625,77.0101695 L67.625,75.2542373 L67.625,71.8677966 L67.7502315,71.8677966 L67.7502315,54.3084746 L72.0081019,54.3084746 L72.0081019,76.3830508 C72.0081019,76.3830508 72.0081019,76.3830508 71.8828704,76.3830508 L71.8828704,77.1355932 L72.0081019,76.6338983 L72.0081019,93.440678 C70.0043981,93.8169492 67.625,93.6915254 65.4960648,93.6915254 M64.9951389,2.88474576 C64.9951389,2.75932203 65.1203704,2.75932203 65.1203704,2.75932203 C67.2493056,2.75932203 69.6287037,2.63389831 71.6324074,2.88474576 C71.5071759,8.52881356 71.6324074,31.7322034 71.6324074,43.1457627 C70.5053241,43.1457627 69.0025463,43.1457627 67.374537,43.2711864 L67.374537,11.2881356 C67.374537,9.78305085 67.625,7.65084746 67.2493056,6.39661017 C67.1240741,5.89491525 66.6231481,5.14237288 66.3726852,4.64067797 C65.8717593,3.88813559 65.4960648,3.38644068 64.9951389,2.88474576 M51.9710648,75.8813559 C51.7206019,76.0067797 51.8458333,76.3830508 51.5953704,76.3830508 C50.3430556,72.9966102 48.8402778,69.8610169 47.9636574,66.6 L48.0888889,66.6 C48.3393519,66.4745763 48.3393519,66.8508475 48.5898148,66.9762712 C50.2178241,68.2305085 51.7206019,69.7355932 53.3486111,70.9898305 C52.9729167,72.7457627 52.2215278,74.2508475 51.9710648,75.8813559 M47.2122685,50.0440678 C47.087037,51.0474576 46.9618056,52.0508475 46.5861111,53.0542373 C46.4608796,53.4305085 46.2104167,53.8067797 45.9599537,54.1830508 C45.9599537,54.1830508 45.8347222,54.3084746 45.7094907,54.3084746 C44.8328704,55.0610169 43.705787,55.5627119 42.8291667,55.1864407 C42.7039352,54.9355932 42.4534722,54.9355932 42.3282407,54.8101695 C42.2030093,54.8101695 42.2030093,54.6847458 42.0777778,54.6847458 C41.2011574,53.8067797 40.9506944,52.4271186 40.575,51.5491525 C40.4497685,50.5457627 40.4497685,49.4169492 40.575,48.2881356 C40.7002315,47.159322 41.0759259,46.1559322 41.5768519,45.1525424 L41.5768519,45.0271186 C41.7020833,44.9016949 41.7020833,44.6508475 41.8273148,44.5254237 C42.0777778,44.1491525 42.4534722,44.0237288 42.8291667,43.7728814 C43.0796296,43.6474576 43.4553241,43.5220339 43.705787,43.3966102 C44.0814815,43.5220339 44.5824074,43.6474576 44.9581019,43.7728814 L45.0833333,43.7728814 C46.3356481,44.9016949 46.7113426,46.4067797 46.9618056,47.6610169 L46.9618056,48.1627119 C46.9618056,48.5389831 47.087037,48.9152542 47.087037,49.2915254 C47.2122685,49.6677966 47.2122685,49.7932203 47.2122685,50.0440678 M37.8199074,48.2881356 C35.8162037,48.2881356 33.6872685,48.2881356 32.0592593,48.1627119 C30.8069444,48.1627119 29.9303241,48.1627119 29.6798611,48.0372881 C28.9284722,47.9118644 28.1770833,47.9118644 27.5509259,47.7864407 C27.300463,47.7864407 25.9229167,47.6610169 24.1696759,47.6610169 C22.4164352,47.6610169 20.1622685,47.6610169 18.0333333,47.5355932 C16.4053241,47.5355932 14.9025463,47.5355932 13.775463,47.4101695 C13.1493056,47.4101695 12.5231481,47.4101695 12.1474537,47.2847458 C11.8969907,47.2847458 11.6465278,47.2847458 11.5212963,47.159322 C11.2708333,47.0338983 11.0203704,46.9084746 10.7699074,46.6576271 C9.26712963,45.5288136 7.51388889,43.8983051 6.51203704,41.7661017 C6.38680556,41.640678 6.51203704,41.3898305 6.38680556,41.2644068 C6.26157407,40.8881356 6.01111111,40.5118644 5.88587963,40.2610169 C5.76064815,39.759322 5.76064815,39.3830508 5.51018519,38.8813559 C5.51018519,38.2542373 5.25972222,37.6271186 5.25972222,37 C5.13449074,35.7457627 5.25972222,34.6169492 5.3849537,33.3627119 C5.76064815,32.7355932 5.76064815,31.8576271 6.38680556,31.4813559 C6.51203704,31.8576271 6.51203704,32.359322 6.38680556,32.8610169 C6.63726852,33.4881356 6.51203704,34.1152542 6.63726852,34.7423729 C6.63726852,34.8677966 6.7625,34.9932203 6.88773148,35.2440678 L6.88773148,35.8711864 C6.88773148,36.1220339 7.13819444,36.2474576 7.13819444,36.4983051 L7.13819444,37.1254237 C7.26342593,37.7525424 7.51388889,38.379661 7.76435185,38.8813559 C8.26527778,39.8847458 8.89143519,41.0135593 9.51759259,41.7661017 C9.76805556,42.1423729 10.14375,42.5186441 10.394213,42.7694915 C10.5194444,42.8949153 10.7699074,43.020339 10.8951389,43.1457627 C11.0203704,43.2711864 11.1456019,43.3966102 11.2708333,43.5220339 C11.3960648,43.6474576 11.6465278,43.7728814 11.8969907,43.8983051 C11.8969907,43.8983051 12.0222222,43.8983051 12.0222222,44.0237288 C12.2726852,44.1491525 12.3979167,44.2745763 12.6483796,44.4 C12.7736111,44.5254237 13.1493056,44.5254237 13.6502315,44.6508475 C14.5268519,44.7762712 16.0296296,44.9016949 17.9081019,44.9016949 C19.6613426,45.0271186 21.7902778,45.0271186 24.0444444,45.0271186 C25.4219907,45.0271186 26.799537,45.0271186 28.1770833,45.1525424 C31.5583333,45.1525424 34.8143519,45.2779661 37.3189815,45.2779661 L37.3189815,45.779661 L38.1956019,45.779661 C38.1956019,46.5322034 37.8199074,47.159322 37.5694444,47.9118644 C37.8199074,47.9118644 37.9451389,48.1627119 37.8199074,48.2881356 M11.8969907,93.6915254 C11.7717593,93.6915254 11.7717593,93.5661017 11.7717593,93.5661017 C12.2726852,93.0644068 12.7736111,92.5627119 13.1493056,91.8101695 C13.3997685,91.3084746 13.9006944,90.6813559 14.0259259,90.0542373 C14.4016204,88.8 14.1511574,86.6677966 14.1511574,85.1627119 L14.1511574,55.1864407 C15.0277778,55.1864407 15.7791667,55.1864407 16.655787,55.3118644 C16.7810185,55.3118644 17.4071759,55.3118644 18.5342593,55.1864407 L18.5342593,93.440678 C16.4053241,93.8169492 14.0259259,93.6915254 11.8969907,93.6915254 M9.64282407,26.9661017 C10.14375,26.0881356 11.0203704,24.959322 12.1474537,24.2067797 L12.1474537,41.640678 C11.6465278,41.2644068 11.1456019,40.8881356 10.7699074,40.2610169 C10.0185185,39.2576271 9.26712963,38.0033898 8.89143519,37 L8.89143519,36.4983051 C8.7662037,35.8711864 8.39050926,35.2440678 8.26527778,34.6169492 C8.26527778,34.4915254 8.39050926,34.240678 8.26527778,34.1152542 C8.26527778,33.7389831 8.1400463,33.3627119 8.01481481,32.8610169 C8.1400463,30.979661 8.51574074,28.8474576 9.64282407,26.9661017 M11.3960648,2.88474576 C11.3960648,2.75932203 11.5212963,2.75932203 11.5212963,2.75932203 C13.6502315,2.75932203 16.0296296,2.63389831 18.0333333,2.88474576 L18.0333333,19.5661017 L18.0333333,19.5661017 L18.0333333,20.0677966 L18.0333333,21.4474576 L18.0333333,21.9491525 L18.0333333,21.9491525 L18.0333333,43.8983051 L17.7828704,43.8983051 C16.7810185,43.7728814 15.6539352,43.5220339 14.7773148,43.2711864 C14.4016204,43.020339 14.0259259,42.8949153 13.775463,42.6440678 L13.775463,28.3457627 L13.775463,28.3457627 L13.775463,23.2033898 L13.775463,21.1966102 L13.775463,17.4338983 L13.775463,17.4338983 L13.775463,11.1627119 C13.775463,9.65762712 13.9006944,7.52542373 13.6502315,6.27118644 C13.3997685,5.76949153 13.0240741,5.01694915 12.7736111,4.51525424 C12.2726852,3.88813559 11.8969907,3.38644068 11.3960648,2.88474576 M37.5694444,22.0745763 C37.8199074,21.9491525 37.6946759,21.5728814 37.9451389,21.5728814 C39.1974537,24.959322 40.7002315,28.0949153 41.5768519,31.3559322 C41.5768519,31.3559322 41.5768519,31.3559322 41.4516204,31.3559322 C41.2011574,31.4813559 41.2011574,31.1050847 40.9506944,30.979661 C39.3226852,29.7254237 37.8199074,28.220339 36.1918981,26.9661017 C36.4423611,25.2101695 37.19375,23.7050847 37.5694444,22.0745763 M90.0414352,57.820339 C89.9162037,57.5694915 90.0414352,57.3186441 89.9162037,56.9423729 L89.9162037,56.0644068 C89.7909722,55.5627119 89.5405093,54.9355932 89.4152778,54.4338983 L89.4152778,53.6813559 C89.2900463,53.4305085 89.0395833,53.0542373 89.0395833,52.8033898 C88.9143519,52.5525424 89.0395833,52.3016949 88.9143519,52.1762712 C88.4134259,51.0474576 87.662037,49.6677966 86.9106481,48.7898305 C86.5349537,48.2881356 86.1592593,48.0372881 85.7835648,47.6610169 C85.5331019,47.4101695 85.4078704,47.159322 85.2826389,46.9084746 C84.9069444,46.5322034 84.280787,46.1559322 83.9050926,46.0305085 C83.5293981,45.779661 83.1537037,45.4033898 82.9032407,45.1525424 C82.2770833,44.7762712 81.400463,44.5254237 80.899537,44.1491525 C79.8976852,43.8983051 78.8958333,43.5220339 77.76875,43.3966102 L77.76875,13.6711864 C77.76875,11.4135593 77.6435185,9.03050847 78.019213,7.27457627 C78.019213,7.02372881 78.2696759,6.89830508 78.2696759,6.77288136 C78.3949074,6.5220339 78.2696759,6.27118644 78.3949074,6.02033898 C78.6453704,5.51864407 79.0210648,5.14237288 79.1462963,4.64067797 C79.6472222,4.13898305 80.3986111,3.63728814 81.0247685,3.26101695 C81.15,3.13559322 81.2752315,3.01016949 81.400463,3.01016949 C83.0284722,2.25762712 85.6583333,3.01016949 87.662037,2.63389831 C87.7872685,2.38305085 87.662037,2.13220339 87.5368056,1.63050847 C87.4115741,0.877966102 87.5368056,0.627118644 86.9106481,0.627118644 C85.6583333,0.752542373 84.280787,0.627118644 82.9032407,0.627118644 C73.7613426,0.627118644 63.993287,0.501694915 55.2270833,0.752542373 C55.2270833,1.25423729 55.1018519,2.25762712 55.3523148,2.63389831 C58.7335648,2.75932203 62.1148148,2.88474576 63.8680556,4.64067797 C64.6194444,5.51864407 65.1203704,6.39661017 65.3708333,7.65084746 C65.6212963,8.90508475 65.4960648,10.6610169 65.4960648,12.2915254 L65.4960648,43.2711864 C59.6101852,43.3966102 52.2215278,43.5220339 49.0907407,43.5220339 L49.0907407,43.020339 C48.8402778,43.020339 48.7150463,43.020339 48.4645833,43.1457627 C48.2141204,43.020339 47.8384259,43.020339 47.7131944,42.8949153 C47.587963,42.7694915 47.4627315,42.5186441 47.3375,42.3932203 C47.2122685,42.2677966 46.9618056,42.1423729 46.7113426,42.0169492 C46.3356481,41.7661017 46.3356481,41.640678 46.0851852,41.5152542 C45.9599537,41.5152542 45.8347222,41.3898305 45.8347222,41.2644068 C44.9581019,40.7627119 43.8310185,40.6372881 42.9543981,40.7627119 C41.7020833,41.0135593 40.575,42.1423729 39.9488426,42.8949153 C39.8236111,43.020339 39.6983796,43.1457627 39.4479167,43.2711864 C39.1974537,43.6474576 39.0722222,43.7728814 38.8217593,43.7728814 C34.5638889,43.7728814 28.4275463,43.7728814 23.919213,43.8983051 L23.919213,23.4542373 C26.5490741,24.4576271 29.1789352,25.4610169 29.9303241,25.9627119 C30.681713,26.3389831 31.3078704,26.7152542 32.0592593,27.2169492 C32.8106481,27.7186441 33.4368056,28.3457627 34.062963,28.7220339 C34.062963,28.8474576 34.1881944,28.8474576 34.1881944,29.0983051 C35.3152778,29.8508475 36.3171296,30.8542373 37.444213,31.8576271 C38.3208333,32.6101695 39.3226852,33.2372881 40.0740741,34.1152542 C40.575,34.3661017 40.9506944,34.7423729 41.3263889,35.2440678 C42.3282407,35.8711864 43.5805556,36.8745763 44.7076389,37.2508475 C45.0833333,37.3762712 45.7094907,37.5016949 46.0851852,37.2508475 C46.2104167,36.8745763 45.8347222,36.4983051 45.5842593,35.9966102 C44.8328704,34.4915254 44.206713,32.7355932 43.5805556,30.979661 C42.5787037,27.5932203 41.3263889,24.3322034 39.9488426,20.9457627 C39.1974537,19.3152542 38.6965278,17.559322 37.9451389,16.0542373 C36.943287,16.4305085 36.3171296,17.3084746 36.0666667,17.9355932 C35.0648148,20.0677966 34.6891204,23.0779661 33.562037,25.0847458 C32.5601852,24.8338983 27.1752315,22.8271186 24.1696759,21.6983051 L24.1696759,13.5457627 C24.1696759,11.2881356 24.0444444,8.90508475 24.4201389,7.14915254 C24.4201389,6.89830508 24.6706019,6.77288136 24.6706019,6.64745763 C24.7958333,6.39661017 24.6706019,6.14576271 24.7958333,5.89491525 C25.0462963,5.39322034 25.4219907,5.01694915 25.5472222,4.51525424 C26.0481481,4.01355932 26.799537,3.51186441 27.4256944,3.13559322 C27.5509259,3.01016949 27.6761574,2.88474576 27.8013889,2.88474576 C29.4293981,2.13220339 32.0592593,2.88474576 34.062963,2.50847458 C34.1881944,2.25762712 34.062963,2.00677966 33.9377315,1.50508475 C33.8125,0.752542373 33.9377315,0.501694915 33.3115741,0.501694915 C32.0592593,0.627118644 30.681713,0.501694915 29.3041667,0.501694915 C20.1622685,0.501694915 10.394213,0.376271186 1.62800926,0.627118644 C1.62800926,1.12881356 1.50277778,2.13220339 1.75324074,2.50847458 C5.13449074,2.63389831 8.51574074,2.75932203 10.2689815,4.51525424 C11.0203704,5.39322034 11.5212963,6.27118644 11.7717593,7.52542373 C12.0222222,8.77966102 11.8969907,10.5355932 11.8969907,12.1661017 L11.8969907,21.9491525 C10.394213,22.8271186 9.01666667,23.8305085 8.01481481,24.7084746 C7.51388889,25.0847458 7.01296296,25.4610169 6.63726852,25.7118644 C6.51203704,25.8372881 6.38680556,26.0881356 6.26157407,26.2135593 C6.01111111,26.4644068 5.88587963,26.4644068 5.63541667,26.7152542 C5.51018519,26.840678 5.3849537,27.0915254 5.25972222,27.3423729 C5.00925926,27.5932203 4.7587963,27.7186441 4.63356481,27.8440678 C4.50833333,27.9694915 4.50833333,28.220339 4.38310185,28.3457627 C4.25787037,28.4711864 4.13263889,28.5966102 4.00740741,28.7220339 C3.88217593,28.8474576 3.88217593,29.0983051 3.75694444,29.2237288 C3.63171296,29.3491525 3.38125,29.4745763 3.25601852,29.6 C3.13078704,29.7254237 3.13078704,29.9762712 3.00555556,30.1016949 C2.62986111,30.7288136 2.37939815,31.3559322 1.87847222,31.8576271 C1.50277778,32.8610169 1.00185185,33.8644068 0.626157407,34.8677966 C0.125231481,36.6237288 0.125231481,38.379661 0.125231481,40.2610169 C0.250462963,40.5118644 0.125231481,40.7627119 0.250462963,41.1389831 L0.250462963,42.0169492 C0.375694444,42.5186441 0.626157407,43.1457627 0.751388889,43.6474576 L0.751388889,44.4 C0.87662037,44.6508475 1.12708333,45.0271186 1.12708333,45.2779661 C1.25231481,45.5288136 1.12708333,45.779661 1.25231481,45.9050847 C1.75324074,47.0338983 2.50462963,48.4135593 3.25601852,49.2915254 C3.75694444,50.1694915 4.13263889,50.420339 4.50833333,50.7966102 C4.63356481,50.9220339 4.7587963,51.2983051 5.00925926,51.4237288 C5.3849537,51.8 6.01111111,52.1762712 6.38680556,52.3016949 C6.7625,52.5525424 7.13819444,52.9288136 7.38865741,53.179661 C8.01481481,53.5559322 8.89143519,53.8067797 9.39236111,54.1830508 C10.394213,54.4338983 11.5212963,54.8101695 12.5231481,54.9355932 L12.5231481,84.0338983 C12.5231481,85.6644068 12.6483796,87.420339 12.3979167,88.6745763 C12.1474537,89.9288136 11.5212963,90.8067797 10.8951389,91.6847458 C9.01666667,93.3152542 5.76064815,93.5661017 2.37939815,93.6915254 C2.12893519,94.0677966 2.25416667,95.0711864 2.25416667,95.5728814 C11.1456019,95.6983051 20.7884259,95.6983051 29.9303241,95.6983051 C31.3078704,95.6983051 32.6854167,95.5728814 33.9377315,95.6983051 C34.5638889,95.6983051 34.4386574,95.4474576 34.5638889,94.6949153 C34.6891204,94.3186441 34.8143519,93.9423729 34.6891204,93.6915254 C32.6854167,93.3152542 29.9303241,94.0677966 28.4275463,93.3152542 C28.3023148,93.3152542 28.1770833,93.0644068 28.0518519,93.0644068 C27.300463,92.6881356 26.5490741,92.3118644 26.1733796,91.6847458 C26.0481481,91.1830508 25.5472222,90.8067797 25.4219907,90.3050847 C25.2967593,90.0542373 25.4219907,89.8033898 25.2967593,89.5525424 C25.1715278,89.3016949 25.0462963,89.1762712 25.0462963,89.0508475 C24.6706019,87.2949153 24.7958333,84.9118644 24.7958333,82.6542373 L24.7958333,55.1864407 C29.6798611,55.0610169 35.5657407,54.9355932 39.1974537,54.9355932 C39.9488426,56.0644068 40.825463,57.0677966 41.5768519,57.4440678 C41.9525463,57.6949153 42.2030093,57.820339 42.5787037,57.9457627 C43.0796296,58.1966102 43.2048611,58.0711864 43.705787,58.0711864 C43.8310185,58.0711864 43.95625,58.1966102 44.206713,58.1966102 C44.3319444,58.1966102 44.5824074,58.0711864 44.7076389,58.0711864 C45.2085648,57.9457627 45.8347222,57.6949153 46.4608796,57.4440678 C47.2122685,57.0677966 47.587963,56.5661017 47.9636574,56.1898305 C48.0888889,56.0644068 48.3393519,55.8135593 48.4645833,55.6881356 C48.5898148,55.4372881 48.8402778,54.9355932 49.0907407,54.6847458 C53.2233796,54.6847458 60.9877315,54.6847458 66.3726852,54.559322 L66.3726852,74.8779661 C63.4923611,73.8745763 60.3615741,72.620339 59.6101852,72.1186441 C58.8587963,71.7423729 58.2326389,71.3661017 57.48125,70.8644068 C56.7298611,70.3627119 56.1037037,69.7355932 55.4775463,69.359322 C55.4775463,69.2338983 55.3523148,69.2338983 55.3523148,68.9830508 C54.2252315,68.2305085 53.2233796,67.2271186 52.0962963,66.2237288 C51.2196759,65.4711864 50.2178241,64.8440678 49.4664352,63.9661017 C48.9655093,63.7152542 48.5898148,63.3389831 48.2141204,62.8372881 C47.2122685,62.2101695 45.9599537,61.2067797 44.8328704,60.8305085 C44.4571759,60.7050847 43.8310185,60.579661 43.4553241,60.8305085 C43.3300926,61.2067797 43.705787,61.5830508 43.95625,62.0847458 C44.7076389,63.5898305 45.3337963,65.3457627 45.9599537,67.1016949 C47.3375,70.3627119 48.7150463,73.7491525 50.0925926,77.0101695 C50.8439815,78.640678 51.3449074,80.3966102 52.0962963,81.9016949 C53.0981481,81.5254237 53.7243056,80.6474576 53.9747685,80.020339 C54.9766204,77.8881356 55.3523148,74.8779661 56.4793981,72.8711864 C57.6064815,73.2474576 63.8680556,75.5050847 66.6231481,76.6338983 L66.6231481,84.2847458 C66.6231481,85.9152542 66.7483796,87.6711864 66.4979167,88.9254237 C66.2474537,90.179661 65.6212963,91.0576271 64.9951389,91.9355932 C63.1166667,93.5661017 59.8606481,93.8169492 56.4793981,93.9423729 C56.2289352,94.3186441 56.3541667,95.3220339 56.3541667,95.8237288 C65.2456019,95.9491525 74.8884259,95.9491525 84.0303241,95.9491525 C85.4078704,95.9491525 86.7854167,95.8237288 88.0377315,95.9491525 C88.6638889,95.9491525 88.5386574,95.6983051 88.6638889,94.9457627 C88.7891204,94.5694915 88.9143519,94.1932203 88.7891204,93.9423729 C86.7854167,93.5661017 84.0303241,94.3186441 82.5275463,93.5661017 C82.4023148,93.5661017 82.2770833,93.3152542 82.1518519,93.3152542 C81.400463,92.9389831 80.6490741,92.5627119 80.2733796,91.9355932 C80.1481481,91.4338983 79.6472222,91.0576271 79.5219907,90.5559322 C79.3967593,90.3050847 79.5219907,90.0542373 79.3967593,89.8033898 C79.2715278,89.5525424 79.1462963,89.4271186 79.1462963,89.3016949 C78.7706019,87.5457627 78.8958333,85.1627119 78.8958333,82.9050847 L78.8958333,76.5084746 C80.3986111,75.6305085 81.7761574,74.6271186 82.7780093,73.7491525 C83.2789352,73.3728814 83.7798611,72.9966102 84.1555556,72.7457627 C84.280787,72.620339 84.4060185,72.3694915 84.53125,72.2440678 C84.781713,71.9932203 84.9069444,71.9932203 85.1574074,71.7423729 C85.2826389,71.6169492 85.4078704,71.3661017 85.5331019,71.1152542 C85.7835648,70.8644068 86.0340278,70.7389831 86.1592593,70.6135593 C86.2844907,70.4881356 86.2844907,70.2372881 86.4097222,70.1118644 C86.5349537,69.9864407 86.6601852,69.8610169 86.7854167,69.7355932 C86.9106481,69.6101695 86.9106481,69.359322 87.0358796,69.2338983 C87.1611111,69.1084746 87.4115741,68.9830508 87.5368056,68.8576271 C87.662037,68.7322034 87.662037,68.4813559 87.7872685,68.3559322 C88.162963,67.7288136 88.4134259,67.1016949 88.9143519,66.6 C89.2900463,65.5966102 89.7909722,64.5932203 90.1666667,63.5898305 C90.0414352,61.5830508 90.0414352,59.7016949 90.0414352,57.820339" id="Fill-1_1_"></path>
                            </g>
                        </g>
                    </g>
                </g>
                <g id="Group" transform="translate(427.291667, 24.084746)" fill-rule="nonzero" fill="#FFFFFF">
                    <path d="M14.5268519,12.6677966 C16.0296296,11.9152542 17.6576389,11.2881356 19.4108796,10.7864407 C19.4108796,9.65762712 19.7865741,6.27118644 21.0388889,4.51525424 C21.0388889,4.51525424 21.1641204,4.26440678 20.6631944,4.26440678 L19.4108796,4.26440678 L17.156713,4.26440678 L16.655787,4.26440678 L13.1493056,4.26440678 C12.6483796,4.26440678 12.7736111,4.51525424 12.7736111,4.51525424 C14.4016204,6.64745763 14.4016204,11.1627119 14.4016204,11.1627119 L14.5268519,12.6677966 Z" id="Shape"></path>
                    <path d="M22.6668981,10.9118644 C22.0407407,11.0372881 21.5398148,11.1627119 20.9136574,11.2881356 C20.9136574,11.2881356 20.9136574,11.2881356 20.7884259,11.2881356 C17.7828704,12.040678 14.9025463,13.2949153 12.3979167,14.9254237 C12.2726852,15.0508475 12.1474537,15.0508475 12.0222222,15.1762712 C11.5212963,15.5525424 11.0203704,15.8033898 10.6446759,16.179661 C8.51574074,17.9355932 6.51203704,20.0677966 5.25972222,22.3254237 C3.88217593,24.8338983 3.00555556,28.0949153 3.00555556,31.1050847 C3.00555556,35.2440678 4.88402778,39.1322034 8.64097222,42.6440678 C9.26712963,43.2711864 9.89328704,43.7728814 10.6446759,44.2745763 C11.1456019,44.6508475 11.7717593,45.1525424 12.3979167,45.5288136 C12.8988426,45.9050847 13.3997685,46.1559322 14.0259259,46.5322034 C15.9043981,47.6610169 18.5342593,48.9152542 20.537963,49.6677966 L20.537963,49.6677966 C20.537963,49.6677966 20.6631944,49.6677966 20.7884259,49.7932203 C21.0388889,49.9186441 21.2893519,49.9186441 21.5398148,50.0440678 C23.0425926,50.5457627 25.9229167,51.8 28.0518519,53.9322034 L28.0518519,53.9322034 C29.8050926,55.9389831 32.3097222,57.1932203 35.0648148,57.1932203 C36.943287,57.1932203 38.6965278,56.5661017 40.1993056,55.6881356 C41.2011574,55.5627119 43.705787,55.4372881 46.4608796,56.5661017 C47.587963,57.0677966 48.5898148,57.4440678 49.0907407,57.6949153 C49.7168981,57.9457627 50.3430556,58.3220339 50.8439815,58.6983051 C51.0944444,58.8237288 51.3449074,58.9491525 51.4701389,59.2 C52.0962963,59.7016949 52.7224537,60.2033898 53.2233796,60.7050847 C56.3541667,63.7152542 57.48125,67.6033898 56.1037037,71.3661017 C55.2270833,73.7491525 53.3486111,75.6305085 50.8439815,77.0101695 C50.3430556,77.2610169 49.7168981,77.5118644 49.0907407,77.7627119 C47.2122685,78.5152542 44.9581019,78.8915254 42.5787037,78.8915254 C35.6909722,78.8915254 29.4293981,76.2576271 24.0444444,73.7491525 C23.5435185,73.4983051 23.0425926,73.2474576 22.5416667,72.9966102 C21.9155093,72.620339 21.2893519,72.3694915 20.7884259,71.9932203 C18.4090278,70.6135593 16.2800926,68.8576271 14.4016204,67.2271186 L14.4016204,69.2338983 C16.2800926,70.8644068 18.4090278,72.3694915 20.7884259,73.7491525 C21.4145833,74.1254237 21.9155093,74.3762712 22.5416667,74.7525424 C22.7921296,74.8779661 23.0425926,75.0033898 23.1678241,75.1288136 C29.1789352,78.0135593 35.5657407,80.3966102 42.3282407,80.3966102 C44.7076389,80.3966102 46.9618056,80.020339 48.8402778,79.2677966 C49.4664352,79.0169492 50.0925926,78.7661017 50.5935185,78.5152542 C54.1,76.8847458 56.4793981,74.2508475 57.48125,71.3661017 L57.48125,64.4677966 C56.6046296,62.0847458 54.9766204,59.8271186 52.2215278,57.9457627 C51.7206019,57.5694915 51.0944444,57.1932203 50.5935185,56.8169492 C49.9673611,56.440678 49.4664352,56.1898305 48.8402778,55.9389831 C48.5898148,55.8135593 48.3393519,55.6881356 47.9636574,55.5627119 L47.9636574,55.5627119 C45.7094907,54.3084746 43.4553241,53.9322034 41.8273148,53.8067797 C43.2048611,52.1762712 43.95625,50.1694915 43.95625,47.9118644 C43.95625,47.159322 43.8310185,46.4067797 43.705787,45.6542373 C45.4590278,46.7830508 47.087037,47.4101695 47.8384259,47.6610169 C48.2141204,47.7864407 48.4645833,47.9118644 48.7150463,48.0372881 L48.7150463,48.0372881 C49.2159722,48.1627119 49.7168981,48.4135593 50.2178241,48.5389831 C50.3430556,48.5389831 50.3430556,48.6644068 50.468287,48.6644068 L50.468287,48.6644068 C52.9729167,49.5423729 55.3523148,50.9220339 57.230787,52.5525424 C57.230787,52.5525424 57.3560185,52.5525424 57.3560185,52.6779661 L57.3560185,50.6711864 C55.4775463,49.2915254 53.2233796,48.0372881 50.8439815,47.2847458 C50.71875,47.2847458 50.5935185,47.159322 50.468287,47.159322 L50.468287,47.159322 C49.8421296,46.9084746 49.2159722,46.7830508 48.7150463,46.5322034 L48.7150463,46.5322034 C48.4645833,46.4067797 48.2141204,46.2813559 47.8384259,46.1559322 C46.4608796,45.5288136 44.0814815,44.4 42.0777778,42.5186441 C41.7020833,42.0169492 41.3263889,41.640678 40.9506944,41.2644068 L40.9506944,41.2644068 L40.9506944,41.2644068 C39.3226852,39.759322 37.19375,38.8813559 34.8143519,38.8813559 C33.1863426,38.8813559 31.8087963,39.2576271 30.43125,40.0101695 C27.8013889,40.2610169 24.9210648,39.2576271 23.418287,38.6305085 C22.7921296,38.379661 22.4164352,38.1288136 22.2912037,38.0033898 C21.6650463,37.6271186 21.0388889,37.2508475 20.537963,36.8745763 C19.4108796,36.1220339 18.4090278,35.3694915 17.6576389,34.6169492 C15.2782407,32.4847458 14.1511574,30.2271186 14.2763889,27.8440678 C14.4016204,23.7050847 17.156713,20.6949153 20.537963,18.6881356 C21.1641204,18.3118644 21.6650463,18.0610169 22.2912037,17.8101695 C23.2930556,17.3084746 24.4201389,17.0576271 25.5472222,16.8067797 C27.9266204,16.3050847 30.3060185,16.0542373 32.8106481,16.0542373 C38.0703704,16.0542373 43.0796296,17.4338983 46.9618056,19.8169492 L46.9618056,18.0610169 C42.8291667,15.8033898 37.8199074,14.6745763 32.9358796,14.6745763 C30.3060185,14.6745763 27.6761574,14.9254237 25.1715278,15.4271186 C24.1696759,15.6779661 23.1678241,15.9288136 22.2912037,16.3050847 C21.6650463,16.5559322 21.0388889,16.8067797 20.537963,17.0576271 C16.2800926,19.1898305 12.8988426,22.9525424 12.7736111,27.9694915 C12.5231481,32.7355932 16.5305556,36.3728814 20.6631944,38.8813559 C21.2893519,39.2576271 21.7902778,39.5084746 22.4164352,39.8847458 C22.6668981,40.0101695 22.9173611,40.1355932 23.1678241,40.2610169 C23.66875,40.5118644 25.7976852,41.5152542 28.4275463,41.7661017 C26.799537,43.3966102 25.6724537,45.779661 25.6724537,48.2881356 C25.6724537,49.2915254 25.7976852,50.1694915 26.0481481,51.0474576 C23.919213,49.7932203 21.5398148,48.9152542 20.537963,48.5389831 C17.7828704,47.4101695 14.7773148,45.9050847 12.1474537,44.0237288 C11.5212963,43.6474576 10.8951389,43.1457627 10.394213,42.6440678 C6.88773148,39.6338983 4.38310185,35.9966102 4.38310185,31.3559322 C4.38310185,28.7220339 5.13449074,25.7118644 6.38680556,23.3288136 C7.38865741,21.5728814 8.7662037,19.9423729 10.2689815,18.4372881 C10.8951389,17.9355932 11.3960648,17.4338983 12.0222222,16.9322034 C12.1474537,16.8067797 12.3979167,16.6813559 12.5231481,16.5559322 C14.9025463,15.0508475 17.6576389,13.7966102 20.4127315,13.0440678 C20.537963,13.0440678 20.6631944,12.9186441 20.7884259,12.9186441 C21.2893519,12.7932203 21.6650463,12.6677966 22.1659722,12.5423729 C25.0462963,11.9152542 28.0518519,11.6644068 30.9321759,11.6644068 C33.4368056,11.6644068 35.8162037,11.9152542 38.1956019,12.4169492 C41.5768519,13.0440678 44.3319444,13.9220339 46.7113426,14.9254237 L46.7113426,13.2949153 C44.3319444,12.4169492 41.7020833,11.5389831 38.5712963,10.9118644 C36.0666667,10.4101695 33.4368056,10.159322 30.9321759,10.159322 C28.5527778,10.0338983 25.5472222,10.2847458 22.6668981,10.9118644 Z M35.1900463,40.2610169 C37.3189815,40.2610169 39.1974537,41.1389831 40.575,42.3932203 C40.825463,42.6440678 41.0759259,42.8949153 41.2011574,43.1457627 C42.2030093,44.4 42.8291667,46.0305085 42.8291667,47.9118644 C42.8291667,52.1762712 39.4479167,55.5627119 35.1900463,55.5627119 C30.9321759,55.5627119 27.5509259,52.1762712 27.5509259,47.9118644 C27.5509259,43.7728814 30.9321759,40.2610169 35.1900463,40.2610169 Z" id="Shape"></path>
                    <path d="M22.7921296,36.4983051 L22.7921296,22.3254237 C22.1659722,22.5762712 21.5398148,22.8271186 21.0388889,23.2033898 L21.0388889,35.3694915 C21.5398148,35.7457627 22.0407407,36.1220339 22.7921296,36.4983051 Z" id="Shape"></path>
                    <path d="M2.88032407,1.37966102 C3.13078704,1.37966102 3.25601852,1.50508475 3.38125,1.50508475 C3.88217593,1.63050847 4.50833333,1.88135593 5.00925926,2.00677966 C5.25972222,2.13220339 5.51018519,2.25762712 5.76064815,2.38305085 C6.26157407,2.63389831 6.7625,3.01016949 7.26342593,3.38644068 C7.76435185,3.76271186 8.26527778,4.26440678 8.7662037,4.89152542 C9.26712963,5.51864407 9.51759259,6.14576271 9.89328704,6.77288136 C10.14375,7.52542373 10.394213,8.40338983 10.5194444,9.28135593 C10.6446759,10.2847458 10.7699074,11.2881356 10.6446759,12.4169492 L10.6446759,12.4169492 L10.6446759,15.0508475 C10.8951389,14.8 11.2708333,14.5491525 11.6465278,14.4237288 C11.8969907,14.2983051 12.1474537,14.0474576 12.5231481,13.9220339 L12.5231481,12.5423729 C12.5231481,11.2881356 12.5231481,10.159322 12.3979167,9.1559322 C12.2726852,8.15254237 12.0222222,7.14915254 11.6465278,6.27118644 C11.3960648,5.76949153 11.2708333,5.26779661 10.8951389,4.89152542 C10.6446759,4.51525424 10.2689815,4.13898305 10.0185185,3.76271186 C9.64282407,3.38644068 9.01666667,3.01016949 9.01666667,2.75932203 L9.01666667,2.63389831 C9.01666667,2.63389831 9.01666667,2.63389831 9.14189815,2.50847458 L9.26712963,2.50847458 L16.5305556,2.50847458 L16.5305556,2.50847458 L16.7810185,2.50847458 L17.0314815,2.50847458 L17.0314815,2.50847458 L24.2949074,2.50847458 L24.4201389,2.50847458 C24.5453704,2.50847458 24.5453704,2.63389831 24.5453704,2.63389831 L24.5453704,2.75932203 C24.5453704,2.88474576 23.919213,3.38644068 23.5435185,3.76271186 C23.1678241,4.13898305 22.9173611,4.51525424 22.6668981,4.89152542 C22.4164352,5.26779661 22.1659722,5.76949153 21.9155093,6.27118644 C21.5398148,7.14915254 21.2893519,8.15254237 21.1641204,9.1559322 C21.0388889,9.65762712 21.0388889,10.0338983 21.0388889,10.5355932 C21.6650463,10.4101695 22.2912037,10.2847458 22.9173611,10.159322 C22.9173611,9.90847458 22.9173611,9.65762712 23.0425926,9.40677966 C23.1678241,8.52881356 23.418287,7.65084746 23.66875,6.89830508 C23.919213,6.39661017 24.1696759,5.76949153 24.5453704,5.26779661 C25.4219907,4.13898305 27.4256944,2.50847458 31.5583333,1.50508475 L31.8087963,1.50508475 C32.0592593,1.50508475 32.3097222,1.37966102 32.3097222,1.12881356 C32.3097222,0.877966102 31.9340278,0.752542373 31.5583333,0.752542373 L31.5583333,0.752542373 L31.4331019,0.752542373 L31.4331019,0.752542373 L27.8013889,0.752542373 L27.8013889,0.752542373 L27.300463,0.752542373 L27.05,0.752542373 L17.156713,0.752542373 L16.655787,0.752542373 L6.7625,0.752542373 L6.51203704,0.752542373 L5.88587963,0.752542373 L5.00925926,0.752542373 L4.25787037,0.752542373 L3.63171296,0.752542373 C3.38125,0.752542373 2.88032407,0.752542373 2.88032407,1.12881356 C2.50462963,1.25423729 2.75509259,1.37966102 2.88032407,1.37966102 Z" id="Shape"></path>
                    <path d="M51.8458333,92.9389831 L55.3523148,92.9389831 L55.8532407,92.9389831 L58.1074074,92.9389831 L59.3597222,92.9389831 C59.8606481,92.9389831 59.7354167,92.6881356 59.7354167,92.6881356 C58.1074074,90.5559322 58.1074074,86.040678 58.1074074,86.040678 L58.1074074,82.9050847 C56.9803241,83.7830508 55.6027778,84.6610169 54.2252315,85.4135593 C53.9747685,85.5389831 53.5990741,85.7898305 53.2233796,85.9152542 L53.2233796,86.040678 C53.2233796,86.040678 53.0981481,90.5559322 51.5953704,92.6881356 C51.4701389,92.5627119 51.3449074,92.9389831 51.8458333,92.9389831 Z" id="Shape"></path>
                    <path d="M16.1548611,27.9694915 C16.0296296,30.1016949 17.156713,32.1084746 19.4108796,34.240678 L19.4108796,24.3322034 C18.1585648,25.3355932 16.90625,26.4644068 16.1548611,27.8440678 L16.1548611,27.9694915 Z" id="Shape"></path>
                    <path d="M61.112963,28.9728814 C63.2418981,29.7254237 65.4960648,30.2271186 67.7502315,30.6033898 L71.1314815,31.2305085 L69.5034722,28.3457627 L69.5034722,28.3457627 L69.5034722,28.3457627 C68.2511574,26.3389831 66.7483796,24.4576271 65.1203704,22.8271186 C66.3726852,22.2 67.625,21.4474576 68.5016204,20.4440678 C71.256713,17.559322 69.6287037,14.4237288 68.8773148,13.0440678 L67.2493056,10.0338983 L67.1240741,9.78305085 L65.8717593,13.420339 C65.4960648,14.5491525 64.3689815,15.8033898 62.3652778,16.4305085 L62.3652778,16.4305085 L62.3652778,16.4305085 C61.9895833,16.5559322 61.4886574,16.6813559 60.9877315,16.6813559 C60.4868056,16.8067797 59.8606481,16.8067797 59.2344907,16.8067797 L59.2344907,16.8067797 C58.6083333,16.8067797 57.9821759,16.8067797 57.48125,16.6813559 C55.8532407,16.4305085 54.350463,15.9288136 52.8476852,15.4271186 L52.8476852,17.0576271 C54.2252315,17.559322 55.6027778,17.9355932 57.1055556,18.1864407 C57.731713,18.3118644 58.4831019,18.3118644 59.1092593,18.3118644 L59.2344907,18.3118644 C59.8606481,18.3118644 60.3615741,18.3118644 60.9877315,18.1864407 C63.7428241,17.8101695 66.4979167,16.4305085 67.374537,13.6711864 C68.3763889,15.6779661 69.1277778,17.559322 67.2493056,19.440678 C65.8717593,20.820339 63.993287,21.6983051 62.2400463,22.4508475 C64.494213,24.3322034 66.4979167,26.7152542 68.0006944,29.2237288 L68.0006944,29.2237288 C65.6212963,28.8474576 63.2418981,28.220339 60.9877315,27.4677966 C60.3615741,27.2169492 59.8606481,27.0915254 59.2344907,26.840678 L59.2344907,26.840678 C59.2344907,30.6033898 57.9821759,33.8644068 53.4738426,33.8644068 C53.9747685,32.7355932 54.1,31.7322034 54.2252315,30.6033898 C54.350463,28.4711864 53.7243056,26.7152542 52.8476852,24.8338983 L52.8476852,35.4949153 C54.9766204,35.4949153 56.7298611,34.7423729 58.1074074,33.4881356 C58.4831019,33.1118644 58.8587963,32.7355932 59.2344907,32.2338983 C59.8606481,31.3559322 60.3615741,30.2271186 60.612037,28.9728814 C60.8625,28.8474576 60.9877315,28.8474576 61.112963,28.9728814 Z" id="Shape"></path>
                    <path d="M41.3263889,1.37966102 C41.5768519,1.37966102 41.7020833,1.50508475 41.8273148,1.50508475 C42.3282407,1.63050847 42.9543981,1.88135593 43.4553241,2.00677966 C43.705787,2.13220339 43.95625,2.25762712 44.206713,2.38305085 C44.7076389,2.63389831 45.2085648,3.01016949 45.7094907,3.38644068 C46.2104167,3.76271186 46.7113426,4.26440678 47.2122685,4.89152542 C47.7131944,5.51864407 47.9636574,6.14576271 48.3393519,6.77288136 C48.5898148,7.52542373 48.8402778,8.40338983 48.9655093,9.28135593 C49.0907407,10.2847458 49.2159722,11.2881356 49.0907407,12.4169492 L49.0907407,12.4169492 L49.2159722,45.4033898 C49.7168981,45.6542373 50.2178241,45.779661 50.8439815,46.0305085 L50.969213,46.0305085 L50.969213,45.9050847 L50.969213,12.2915254 C50.969213,11.0372881 50.969213,9.90847458 50.8439815,8.90508475 C50.71875,7.90169492 50.468287,6.89830508 50.0925926,6.02033898 C49.8421296,5.51864407 49.7168981,5.01694915 49.3412037,4.64067797 C49.0907407,4.26440678 48.7150463,3.88813559 48.4645833,3.51186441 C48.0888889,3.13559322 47.4627315,2.75932203 47.4627315,2.50847458 L47.4627315,2.38305085 C47.4627315,2.38305085 47.4627315,2.38305085 47.587963,2.25762712 L47.7131944,2.25762712 L54.9766204,2.25762712 L54.9766204,2.25762712 L55.2270833,2.25762712 L55.4775463,2.25762712 L55.4775463,2.25762712 L62.7409722,2.25762712 L62.8662037,2.25762712 C62.9914352,2.25762712 62.9914352,2.38305085 62.9914352,2.38305085 L62.9914352,2.50847458 C62.9914352,2.63389831 62.3652778,3.13559322 61.9895833,3.51186441 C61.6138889,3.88813559 61.3634259,4.26440678 61.112963,4.64067797 C60.8625,5.01694915 60.612037,5.51864407 60.3615741,6.02033898 C59.9858796,6.89830508 59.7354167,7.90169492 59.6101852,8.90508475 C59.4849537,9.90847458 59.3597222,11.1627119 59.4849537,12.2915254 L59.4849537,15.6779661 L59.7354167,15.6779661 C60.2363426,15.6779661 60.7372685,15.6779661 61.2381944,15.5525424 L61.2381944,12.1661017 L61.2381944,12.1661017 C61.2381944,11.0372881 61.2381944,10.0338983 61.3634259,9.03050847 C61.4886574,8.15254237 61.7391204,7.27457627 61.9895833,6.5220339 C62.2400463,6.02033898 62.4905093,5.39322034 62.8662037,4.89152542 C63.7428241,3.76271186 65.7465278,2.13220339 69.8791667,1.12881356 L70.1296296,1.12881356 C70.3800926,1.12881356 70.6305556,1.00338983 70.6305556,0.752542373 C70.6305556,0.501694915 70.2548611,0.376271186 69.8791667,0.376271186 L69.8791667,0.376271186 L69.7539352,0.376271186 L69.7539352,0.376271186 L66.1222222,0.376271186 L65.6212963,0.376271186 L65.3708333,0.376271186 L55.4775463,0.376271186 L54.9766204,0.376271186 L45.0833333,0.376271186 L44.8328704,0.376271186 L44.206713,0.376271186 L43.3300926,0.376271186 L42.5787037,0.376271186 L41.9525463,0.376271186 C41.7020833,0.376271186 41.2011574,0.376271186 41.2011574,0.752542373 C40.9506944,1.12881356 41.0759259,1.25423729 41.3263889,1.37966102 Z" id="Shape"></path>
                    <path d="M57.8569444,11.1627119 C57.8569444,11.1627119 57.9821759,6.64745763 59.4849537,4.51525424 C59.4849537,4.51525424 59.6101852,4.26440678 59.1092593,4.26440678 L57.8569444,4.26440678 L55.6027778,4.26440678 L55.1018519,4.26440678 L51.5953704,4.26440678 C51.0944444,4.26440678 51.2196759,4.51525424 51.2196759,4.51525424 C52.8476852,6.64745763 52.8476852,11.1627119 52.8476852,11.1627119 L52.8476852,14.1728814 C54.350463,14.8 55.9784722,15.3016949 57.731713,15.5525424 L57.8569444,11.1627119 Z" id="Shape"></path>
                    <path d="M57.8569444,49.2915254 L57.8569444,38.2542373 C56.6046296,39.2576271 54.8513889,39.8847458 53.0981481,39.8847458 L53.0981481,46.6576271 C54.7261574,47.4101695 56.3541667,48.2881356 57.8569444,49.2915254 Z" id="Shape"></path>
                    <path d="M31.6835648,95.6983051 L31.4331019,95.6983051 C27.300463,94.820339 25.2967593,93.0644068 24.4201389,92.0610169 C24.0444444,91.559322 23.7939815,91.0576271 23.5435185,90.4305085 C23.2930556,89.6779661 23.0425926,88.8 22.9173611,87.9220339 C22.7921296,86.9186441 22.6668981,85.9152542 22.7921296,84.7864407 L22.7921296,84.7864407 L22.7921296,84.159322 L22.6668981,84.159322 C22.0407407,84.0338983 21.5398148,84.0338983 21.0388889,83.9084746 L21.0388889,84.7864407 C21.0388889,86.040678 21.0388889,87.1694915 21.1641204,88.1728814 C21.2893519,89.1762712 21.5398148,90.179661 21.9155093,91.0576271 C22.1659722,91.559322 22.2912037,92.0610169 22.6668981,92.4372881 C22.9173611,92.8135593 23.2930556,93.1898305 23.5435185,93.5661017 C23.919213,93.9423729 24.5453704,94.3186441 24.5453704,94.5694915 L24.5453704,94.6949153 C24.5453704,94.6949153 24.5453704,94.6949153 24.4201389,94.820339 L24.2949074,94.820339 L17.0314815,94.820339 L17.0314815,94.820339 L16.7810185,94.820339 L16.5305556,94.820339 L16.5305556,94.820339 L9.26712963,94.820339 L9.14189815,94.820339 C9.01666667,94.820339 9.01666667,94.6949153 9.01666667,94.6949153 L9.01666667,94.5694915 C9.01666667,94.4440678 9.64282407,93.9423729 10.0185185,93.5661017 C10.394213,93.1898305 10.6446759,92.8135593 10.8951389,92.4372881 C11.1456019,92.0610169 11.3960648,91.559322 11.6465278,91.0576271 C12.0222222,90.179661 12.2726852,89.1762712 12.3979167,88.1728814 C12.5231481,87.1694915 12.6483796,85.9152542 12.5231481,84.7864407 L12.5231481,50.1694915 C12.3979167,50.0440678 12.2726852,50.0440678 12.1474537,49.9186441 C11.7717593,49.6677966 11.3960648,49.4169492 11.0203704,49.1661017 C10.8951389,49.040678 10.7699074,49.040678 10.7699074,48.9152542 L10.7699074,48.9152542 L10.7699074,49.7932203 L10.7699074,84.7864407 L10.7699074,84.7864407 C10.7699074,85.9152542 10.7699074,86.9186441 10.6446759,87.9220339 C10.5194444,88.8 10.2689815,89.6779661 10.0185185,90.4305085 C9.76805556,91.1830508 9.39236111,91.8101695 8.89143519,92.3118644 C8.51574074,92.8135593 8.01481481,93.3152542 7.38865741,93.8169492 C6.88773148,94.1932203 6.38680556,94.4440678 5.88587963,94.820339 C5.63541667,94.9457627 5.3849537,95.0711864 5.13449074,95.1966102 C4.63356481,95.4474576 4.00740741,95.5728814 3.50648148,95.6983051 C3.38125,95.6983051 3.13078704,95.8237288 3.00555556,95.8237288 C2.88032407,95.8237288 2.75509259,95.9491525 2.75509259,96.2 C2.75509259,96.5762712 3.38125,96.5762712 3.50648148,96.5762712 L4.13263889,96.5762712 L4.88402778,96.5762712 L5.76064815,96.5762712 L6.38680556,96.5762712 L6.63726852,96.5762712 L16.5305556,96.5762712 L17.0314815,96.5762712 L26.9247685,96.5762712 L27.1752315,96.5762712 L27.6761574,96.5762712 L27.6761574,96.5762712 L31.3078704,96.5762712 L31.3078704,96.5762712 L31.4331019,96.5762712 L31.4331019,96.5762712 C31.6835648,96.5762712 32.1844907,96.5762712 32.1844907,96.2 C32.1844907,95.8237288 31.9340278,95.8237288 31.6835648,95.6983051 Z" id="Shape"></path>
                    <path d="M8.64097222,78.8915254 C8.64097222,78.8915254 8.64097222,79.0169492 8.51574074,79.0169492 C8.26527778,79.7694915 8.01481481,80.5220339 8.01481481,81.2745763 C7.88958333,82.9050847 8.26527778,84.2847458 9.01666667,85.4135593 L9.01666667,77.3864407 L7.88958333,77.3864407 C6.13634259,77.3864407 4.50833333,77.2610169 2.88032407,76.8847458 C4.25787037,74.8779661 6.63726852,73.2474576 9.01666667,72.4949153 L9.01666667,71.9932203 C7.38865741,70.7389831 3.75694444,67.1016949 4.63356481,58.1966102 C4.63356481,58.1966102 6.13634259,60.579661 9.01666667,63.7152542 L9.01666667,61.3322034 C7.13819444,59.0745763 6.01111111,57.4440678 6.01111111,57.4440678 L3.63171296,53.8067797 L3.50648148,53.5559322 L3.13078704,58.1966102 C2.37939815,65.7220339 4.63356481,69.8610169 6.7625,71.9932203 C4.7587963,72.9966102 2.88032407,74.5016949 1.75324074,76.1322034 L0.626157407,77.8881356 L0.87662037,77.8881356 L2.75509259,78.2644068 C4.38310185,78.640678 6.13634259,78.7661017 8.1400463,78.7661017 C8.01481481,78.8915254 8.39050926,78.8915254 8.64097222,78.8915254 Z" id="Shape"></path>
                    <path d="M49.2159722,82.779661 C49.8421296,82.6542373 50.468287,82.4033898 50.969213,82.1525424 C51.9710648,81.7762712 53.0981481,81.2745763 53.9747685,80.7728814 C55.3523148,80.020339 56.6046296,79.2677966 57.731713,78.2644068 L57.731713,76.3830508 C55.8532407,78.1389831 53.4738426,79.6440678 50.8439815,80.5220339 C50.2178241,80.7728814 49.7168981,80.8983051 49.0907407,81.1491525 C46.7113426,81.9016949 44.3319444,82.1525424 41.9525463,82.1525424 C41.2011574,82.1525424 40.575,82.1525424 39.8236111,82.0271186 C34.062963,81.4 24.5453704,78.2644068 22.7921296,78.0135593 L22.5416667,78.0135593 C21.9155093,77.8881356 21.2893519,77.8881356 20.7884259,77.7627119 L20.4127315,77.7627119 C18.2837963,77.7627119 16.2800926,78.3898305 14.9025463,80.2711864 C14.7773148,80.3966102 14.6520833,80.6474576 14.5268519,80.7728814 L14.5268519,83.2813559 C14.5268519,83.2813559 15.1530093,82.4033898 16.1548611,81.1491525 C17.156713,79.8949153 18.4090278,79.2677966 20.4127315,79.2677966 L20.9136574,79.2677966 C21.4145833,79.2677966 22.0407407,79.3932203 22.5416667,79.5186441 L22.6668981,79.5186441 C23.1678241,79.6440678 24.2949074,79.8949153 25.5472222,80.2711864 C29.4293981,81.4 35.4405093,83.0305085 39.6983796,83.5322034 C40.4497685,83.6576271 41.2011574,83.6576271 41.9525463,83.6576271 C44.4571759,83.7830508 46.9618056,83.5322034 49.2159722,82.779661 Z" id="Shape"></path>
                    <path d="M70.1296296,95.6983051 L69.8791667,95.6983051 C65.7465278,94.820339 63.7428241,93.0644068 62.8662037,92.0610169 C62.4905093,91.559322 62.2400463,91.0576271 61.9895833,90.4305085 C61.7391204,89.6779661 61.4886574,88.8 61.3634259,87.9220339 C61.2381944,86.9186441 61.112963,85.9152542 61.2381944,84.7864407 L61.2381944,84.7864407 L61.112963,49.7932203 L61.112963,47.2847458 L61.112963,46.7830508 L61.112963,33.4881356 C60.9877315,33.4881356 60.7372685,33.3627119 60.612037,33.3627119 C60.3615741,34.4915254 59.9858796,35.620339 59.3597222,36.4983051 L59.3597222,47.2847458 L59.3597222,47.5355932 L59.3597222,49.7932203 L59.3597222,84.7864407 C59.3597222,86.040678 59.3597222,87.1694915 59.4849537,88.1728814 C59.6101852,89.1762712 59.8606481,90.179661 60.2363426,91.0576271 C60.4868056,91.559322 60.612037,92.0610169 60.9877315,92.4372881 C61.2381944,92.8135593 61.6138889,93.1898305 61.8643519,93.5661017 C62.2400463,93.9423729 62.8662037,94.3186441 62.8662037,94.5694915 L62.8662037,94.6949153 C62.8662037,94.6949153 62.8662037,94.6949153 62.7409722,94.820339 L62.6157407,94.820339 L55.3523148,94.820339 L55.3523148,94.820339 L55.1018519,94.820339 L54.8513889,94.820339 L54.8513889,94.820339 L47.587963,94.820339 L47.4627315,94.820339 C47.3375,94.820339 47.3375,94.6949153 47.3375,94.6949153 L47.3375,94.5694915 C47.3375,94.4440678 47.9636574,93.9423729 48.3393519,93.5661017 C48.7150463,93.1898305 48.9655093,92.8135593 49.2159722,92.4372881 C49.4664352,92.0610169 49.7168981,91.559322 49.9673611,91.0576271 C50.3430556,90.179661 50.5935185,89.1762712 50.71875,88.1728814 C50.8439815,87.6711864 50.8439815,87.1694915 50.8439815,86.6677966 C50.2178241,86.9186441 49.5916667,87.0440678 48.9655093,87.2949153 C48.9655093,87.5457627 48.9655093,87.6711864 48.8402778,87.9220339 C48.7150463,88.8 48.4645833,89.6779661 48.2141204,90.4305085 C47.9636574,91.1830508 47.587963,91.8101695 47.087037,92.3118644 C46.7113426,92.8135593 46.2104167,93.3152542 45.5842593,93.8169492 C45.0833333,94.1932203 44.5824074,94.4440678 44.0814815,94.820339 C43.8310185,94.9457627 43.5805556,95.0711864 43.3300926,95.1966102 C42.8291667,95.4474576 42.2030093,95.5728814 41.7020833,95.6983051 C41.5768519,95.6983051 41.3263889,95.8237288 41.2011574,95.8237288 C41.0759259,95.8237288 40.9506944,95.9491525 40.9506944,96.2 C40.9506944,96.5762712 41.5768519,96.5762712 41.7020833,96.5762712 L42.3282407,96.5762712 L43.0796296,96.5762712 L43.95625,96.5762712 L44.5824074,96.5762712 L44.8328704,96.5762712 L54.7261574,96.5762712 L55.2270833,96.5762712 L65.1203704,96.5762712 L65.3708333,96.5762712 L65.8717593,96.5762712 L65.8717593,96.5762712 L69.5034722,96.5762712 L69.5034722,96.5762712 L69.6287037,96.5762712 L69.6287037,96.5762712 C69.8791667,96.5762712 70.3800926,96.5762712 70.3800926,96.2 C70.6305556,95.8237288 70.3800926,95.8237288 70.1296296,95.6983051 Z" id="Shape"></path>
                    <path d="M55.9784722,68.6067797 C55.3523148,67.2271186 54.350463,65.9728814 53.0981481,64.8440678 L53.0981481,74.3762712 C54.1,73.3728814 54.8513889,72.3694915 55.3523148,70.9898305 C55.7280093,70.2372881 55.8532407,69.359322 55.9784722,68.6067797 Z" id="Shape"></path>
                    <path d="M19.5361111,92.9389831 L20.7884259,92.9389831 C21.2893519,92.9389831 21.1641204,92.6881356 21.1641204,92.6881356 C19.5361111,90.5559322 19.5361111,86.040678 19.5361111,86.040678 L19.5361111,84.0338983 C14.0259259,84.4101695 14.1511574,92.9389831 14.1511574,92.9389831 L19.5361111,92.9389831 Z" id="Shape"></path>
                    <path d="M51.0944444,75.8813559 L51.0944444,63.2135593 C50.468287,62.8372881 49.9673611,62.4610169 49.3412037,62.2101695 L49.3412037,76.759322 C49.8421296,76.5084746 50.468287,76.2576271 51.0944444,75.8813559 Z" id="Shape"></path>
                    <path d="M19.4108796,53.8067797 C17.7828704,53.0542373 16.1548611,52.3016949 14.6520833,51.4237288 L14.6520833,65.5966102 C16.0296296,66.9762712 17.6576389,68.3559322 19.5361111,69.6101695 L19.4108796,53.8067797 Z" id="Shape"></path>
                    <path d="M21.0388889,54.4338983 L21.0388889,70.6135593 C21.6650463,70.9898305 22.1659722,71.3661017 22.7921296,71.7423729 L22.7921296,55.1864407 C22.1659722,54.9355932 21.6650463,54.6847458 21.0388889,54.4338983 Z" id="Shape"></path>
                </g>
                <g id="Page-1" transform="translate(0.237174, 0.098722)" fill-rule="nonzero" fill="#FFFFFF">
                    <g id="Group-3" transform="translate(0.000000, 0.337455)">
                        <path d="M3.38125,93.5694915 L3.38125,93.5694915 C3.88217593,93.5694915 3.75694444,94.0711864 3.88217593,94.1966102 C5.13449074,96.4542373 6.13634259,98.8372881 7.38865741,101.094915 C6.38680556,103.101695 4.7587963,104.355932 3.75694444,106.111864 C3.38125,106.111864 3.25601852,106.613559 3.00555556,106.488136 C3.13078704,102.098305 3.00555556,97.7084746 3.38125,93.5694915 L3.38125,93.5694915 Z M30.681713,84.7898305 L30.681713,84.7898305 C31.5583333,85.1661017 32.6854167,86.2949153 33.6872685,87.1728814 C34.6891204,88.0508475 35.6909722,88.9288136 36.3171296,89.8067797 C36.8180556,90.4338983 37.19375,91.1864407 37.444213,91.8135593 C37.9451389,92.8169492 38.5712963,94.1966102 38.6965278,95.5762712 C38.8217593,97.0813559 38.9469907,98.9627119 38.5712963,100.342373 C38.5712963,100.59322 38.3208333,100.718644 38.3208333,100.969492 C38.0703704,101.847458 38.0703704,102.6 37.6946759,103.352542 C37.5694444,103.60339 37.444213,103.728814 37.3189815,103.854237 C37.0685185,104.355932 36.943287,104.732203 36.6928241,105.233898 C35.4405093,107.240678 33.6872685,109.372881 31.3078704,110.627119 C30.8069444,110.877966 30.0555556,111.254237 29.3041667,111.379661 L30.681713,84.7898305 Z M33.4368056,81.2779661 C33.562037,80.7762712 33.8125,80.4 34.1881944,80.4 C34.4386574,80.4 35.0648148,80.9016949 35.3152778,81.1525424 C36.4423611,82.0305085 37.5694444,82.9084746 38.5712963,83.6610169 C39.3226852,84.2881356 40.0740741,84.7898305 40.7002315,85.4169492 C41.3263889,86.1694915 41.8273148,86.9220339 42.3282407,87.5491525 C43.4553241,89.8067797 44.4571759,93.0677966 44.0814815,96.4542373 C44.0814815,96.7050847 43.95625,96.8305085 43.8310185,97.0813559 C43.705787,97.5830508 43.705787,98.0847458 43.705787,98.4610169 C43.5805556,99.0881356 43.3300926,99.4644068 43.2048611,100.216949 C42.8291667,100.844068 42.5787037,101.722034 42.2030093,102.349153 C41.4516204,103.728814 40.7002315,104.983051 39.8236111,106.111864 C39.0722222,106.488136 38.4460648,107.366102 37.5694444,107.491525 C37.5694444,106.989831 38.0703704,106.488136 38.4460648,106.111864 C38.5712963,105.233898 39.1974537,104.732203 39.4479167,104.105085 C39.5731481,103.854237 39.4479167,103.728814 39.4479167,103.477966 C39.5731481,103.227119 39.6983796,103.101695 39.8236111,102.850847 C39.9488426,102.6 39.8236111,102.223729 39.9488426,101.972881 C40.0740741,101.722034 40.1993056,101.471186 40.324537,101.345763 C40.4497685,100.718644 40.575,99.840678 40.7002315,99.2135593 C40.825463,97.959322 40.9506944,96.3288136 40.7002315,94.9491525 C40.575,94.4474576 40.575,93.820339 40.4497685,93.4440678 C40.4497685,93.1932203 40.1993056,92.9423729 40.0740741,92.8169492 C39.9488426,92.5661017 40.0740741,92.3152542 39.9488426,92.1898305 C39.6983796,91.5627119 39.3226852,90.9355932 38.9469907,90.3084746 C37.9451389,88.5525424 36.0666667,86.7966102 34.3134259,85.4169492 C33.3115741,84.5389831 32.4349537,84.0372881 31.3078704,83.4101695 C32.0592593,82.4067797 32.8106481,81.779661 33.4368056,81.2779661 L33.4368056,81.2779661 Z M20.2875,74.5050847 C20.1622685,74.7559322 20.2875,75.0067797 20.2875,75.2576271 C20.1622685,75.759322 19.7865741,76.6372881 19.6613426,77.2644068 C19.2856481,77.1389831 18.9099537,77.0135593 18.5342593,76.7627119 C17.7828704,76.6372881 17.5324074,76.1355932 16.7810185,76.1355932 C16.0296296,75.5084746 15.2782407,75.1322034 14.4016204,74.7559322 C11.0203704,72.3728814 7.88958333,69.6135593 5.76064815,65.9762712 C5.63541667,65.3491525 5.00925926,64.5966102 4.7587963,63.9694915 C4.63356481,63.7186441 4.7587963,63.4677966 4.7587963,63.3423729 C4.63356481,63.0915254 4.38310185,62.840678 4.38310185,62.5898305 C4.25787037,62.2135593 4.38310185,61.8372881 4.25787037,61.4610169 C4.25787037,61.2101695 4.00740741,60.959322 4.00740741,60.8338983 C3.88217593,60.0813559 3.88217593,58.8271186 4.00740741,57.9491525 C4.00740741,57.5728814 4.25787037,57.1966102 4.25787037,56.820339 C4.25787037,56.4440678 4.25787037,55.9423729 4.38310185,55.5661017 C4.50833333,55.3152542 4.63356481,55.1898305 4.7587963,54.9389831 L4.7587963,54.3118644 C4.88402778,54.0610169 5.00925926,53.9355932 5.13449074,53.6847458 L5.13449074,53.1830508 C5.25972222,52.9322034 5.3849537,52.9322034 5.51018519,52.6813559 C5.76064815,52.179661 5.76064815,51.8033898 6.13634259,51.3016949 C6.26157407,51.1762712 6.38680556,51.1762712 6.51203704,51.0508475 C6.7625,50.6745763 7.26342593,50.0474576 7.63912037,49.6711864 C7.88958333,49.5457627 8.1400463,49.420339 8.39050926,49.2949153 C8.51574074,49.1694915 8.7662037,49.0440678 8.89143519,49.2949153 C8.64097222,49.7966102 8.39050926,50.4237288 8.01481481,50.8 C8.01481481,51.3016949 7.76435185,51.5525424 7.51388889,51.9288136 C7.01296296,53.1830508 6.88773148,54.6881356 6.7625,56.1932203 C6.63726852,57.8237288 7.01296296,59.7050847 7.38865741,61.0847458 C7.51388889,61.3355932 7.63912037,61.5864407 7.76435185,61.8372881 C7.88958333,61.9627119 7.76435185,62.2135593 7.88958333,62.4644068 C8.1400463,63.0915254 8.64097222,63.5932203 8.89143519,64.0949153 C10.8951389,66.7288136 13.274537,69.2372881 16.1548611,70.9932203 C16.2800926,70.9932203 16.4053241,71.1186441 16.655787,70.9932203 C17.5324074,71.7457627 18.6594907,72.1220339 19.5361111,72.8745763 C20.037037,73 20.6631944,73.2508475 20.6631944,73.6271186 C20.7884259,73.8779661 20.4127315,74.1288136 20.2875,74.5050847 L20.2875,74.5050847 Z M0.500925926,106.237288 C0.500925926,108.494915 0.375694444,110.627119 0.500925926,112.759322 C1.75324074,112.884746 2.88032407,112.00678 3.50648148,111.379661 C5.63541667,109.372881 7.38865741,106.111864 9.64282407,104.355932 C10.8951389,105.484746 12.2726852,106.738983 13.525,108.118644 C14.7773148,109.372881 16.0296296,110.877966 17.5324074,111.881356 C18.2837963,112.383051 19.1604167,112.633898 20.037037,113.010169 C20.2875,113.135593 20.4127315,113.261017 20.6631944,113.386441 C21.0388889,113.511864 21.4145833,113.386441 21.7902778,113.511864 C22.0407407,113.637288 22.2912037,113.762712 22.4164352,113.762712 C22.7921296,113.888136 23.1678241,113.888136 23.5435185,113.888136 C24.4201389,113.888136 25.4219907,114.013559 26.4238426,114.013559 L27.6761574,143.864407 L29.0537037,113.888136 C29.8050926,113.762712 30.681713,113.762712 31.3078704,113.637288 C32.0592593,113.511864 32.8106481,113.511864 33.4368056,113.386441 C33.6872685,113.261017 33.9377315,113.135593 34.1881944,113.135593 C34.5638889,113.010169 34.8143519,113.135593 35.1900463,113.010169 C35.4405093,112.884746 35.6909722,112.759322 35.9414352,112.633898 C36.3171296,112.508475 36.6928241,112.633898 36.943287,112.508475 C37.19375,112.383051 37.3189815,112.257627 37.5694444,112.132203 C37.8199074,112.00678 37.9451389,112.132203 38.1956019,112.00678 C38.4460648,111.881356 38.5712963,111.755932 38.8217593,111.630508 C39.0722222,111.505085 39.4479167,111.630508 39.5731481,111.505085 C39.8236111,111.379661 39.9488426,111.254237 40.1993056,111.128814 C40.9506944,110.752542 41.7020833,110.250847 42.4534722,110 C43.4553241,109.122034 44.7076389,108.494915 45.7094907,107.616949 C47.3375,106.111864 48.5898148,104.230508 49.7168981,102.223729 C49.7168981,101.847458 49.9673611,101.59661 50.2178241,101.220339 C50.3430556,100.844068 50.5935185,100.467797 50.71875,100.216949 C50.969213,99.5898305 51.0944444,98.8372881 51.3449074,98.2101695 C51.4701389,97.959322 51.7206019,97.7084746 51.7206019,97.4576271 C51.8458333,97.0813559 51.7206019,96.579661 51.8458333,96.2033898 C51.9710648,95.9525424 52.0962963,95.7016949 52.0962963,95.4508475 C52.3467593,93.9457627 52.3467593,91.9389831 52.2215278,90.559322 C52.2215278,89.6813559 51.8458333,89.3050847 51.7206019,88.6779661 C51.5953704,88.3016949 51.7206019,87.9254237 51.5953704,87.5491525 C51.4701389,86.9220339 50.969213,86.1694915 50.8439815,85.6677966 C50.5935185,85.1661017 50.468287,84.5389831 50.2178241,84.1627119 C49.7168981,83.2847458 49.0907407,82.6576271 48.7150463,81.779661 C47.7131944,80.6508475 46.7113426,79.5220339 45.5842593,78.5186441 C44.4571759,77.5152542 43.0796296,76.7627119 41.9525463,75.759322 C41.4516204,75.6338983 40.9506944,75.3830508 40.575,75.1322034 C40.0740741,74.8813559 39.6983796,74.5050847 39.1974537,74.379661 L38.6965278,74.379661 C38.4460648,74.2542373 38.3208333,74.1288136 38.1956019,74.0033898 C37.6946759,73.7525424 36.943287,73.6271186 36.5675926,73.2508475 C36.5675926,71.4949153 36.3171296,69.8644068 35.6909722,68.8610169 C35.4405093,68.359322 35.3152778,68.1084746 34.9395833,67.6067797 C34.4386574,66.979661 34.4386574,67.1050847 33.8125,66.7288136 C33.6872685,66.6033898 33.562037,66.3525424 33.4368056,66.3525424 C33.3115741,66.3525424 33.0611111,66.2271186 32.9358796,66.2271186 L32.9358796,70.9932203 C33.0611111,71.1186441 33.0611111,71.2440678 33.1863426,71.3694915 C33.562037,72.8745763 32.9358796,74.379661 32.6854167,75.6338983 C32.0592593,76.8881356 31.4331019,78.1423729 30.5564815,79.1457627 L32.4349537,38.759322 L32.4349537,38.3830508 L31.6835648,38.8847458 C30.8069444,39.2610169 29.8050926,38.759322 29.0537037,37.7559322 L29.0537037,23.959322 C29.3041667,23.5830508 29.5546296,23.3322034 29.8050926,22.9559322 C30.0555556,22.7050847 30.3060185,22.4542373 30.5564815,22.3288136 L36.0666667,22.3288136 C36.3171296,22.4542373 36.5675926,22.7050847 36.8180556,22.9559322 C38.4460648,24.5864407 38.6965278,26.9694915 37.6946759,28.8508475 C38.1956019,28.9762712 39.9488426,28.0983051 40.825463,26.5932203 C41.5768519,25.3389831 41.7020833,23.8338983 41.2011574,22.4542373 C42.5787037,22.9559322 44.206713,23.0813559 45.5842593,22.4542373 C46.5861111,22.0779661 47.3375,21.3254237 48.2141204,20.8237288 C47.3375,20.3220339 46.4608796,19.5694915 45.5842593,19.1932203 C44.206713,18.5661017 42.5787037,18.6915254 41.2011574,19.1932203 C41.5768519,17.8135593 41.5768519,16.3084746 40.825463,15.0542373 C39.9488426,13.5491525 38.3208333,12.6711864 37.6946759,12.7966102 C38.6965278,14.6779661 38.3208333,17.0610169 36.8180556,18.6915254 C36.5675926,18.9423729 36.3171296,19.1932203 36.0666667,19.3186441 L30.5564815,19.3186441 C30.3060185,19.1932203 30.0555556,18.9423729 29.8050926,18.6915254 C29.5546296,18.440678 29.3041667,18.0644068 29.0537037,17.8135593 L29.0537037,12.5457627 C29.3041667,12.1694915 29.5546296,11.9186441 29.8050926,11.5423729 C31.4331019,9.91186441 33.8125,9.66101695 35.6909722,10.6644068 C35.8162037,10.1627119 34.9395833,8.40677966 33.4368056,7.52881356 C32.1844907,6.77627119 30.681713,6.65084746 29.3041667,7.15254237 C29.6798611,5.64745763 29.9303241,4.14237288 29.3041667,2.63728814 C28.9284722,1.63389831 28.1770833,0.881355932 27.6761574,0.00338983051 C27.1752315,1.00677966 26.5490741,1.75932203 26.0481481,2.63728814 C25.4219907,4.01694915 25.5472222,5.64745763 26.0481481,7.15254237 C24.6706019,6.77627119 23.1678241,6.77627119 21.9155093,7.52881356 C20.4127315,8.40677966 19.5361111,10.1627119 19.6613426,10.6644068 C21.5398148,9.66101695 23.919213,10.0372881 25.4219907,11.5423729 C25.6724537,11.7932203 25.7976852,11.9186441 25.9229167,12.1694915 L25.9229167,17.9389831 C25.7976852,18.1898305 25.5472222,18.440678 25.4219907,18.5661017 C25.1715278,18.8169492 24.9210648,19.0677966 24.6706019,19.1932203 L19.1604167,19.1932203 C18.9099537,19.0677966 18.6594907,18.8169492 18.4090278,18.5661017 C16.7810185,16.9355932 16.5305556,14.5525424 17.5324074,12.6711864 C17.0314815,12.5457627 15.2782407,13.4237288 14.4016204,14.9288136 C13.6502315,16.1830508 13.525,17.6881356 14.0259259,19.0677966 C12.6483796,18.5661017 11.0203704,18.440678 9.64282407,19.0677966 C8.64097222,19.4440678 7.88958333,20.1966102 7.01296296,20.6983051 C7.88958333,21.2 8.7662037,21.9525424 9.64282407,22.3288136 C11.0203704,22.9559322 12.6483796,22.8305085 14.0259259,22.3288136 C13.6502315,23.7084746 13.6502315,25.2135593 14.4016204,26.4677966 C15.2782407,27.9728814 16.90625,28.8508475 17.5324074,28.7254237 C16.5305556,26.8440678 16.90625,24.4610169 18.4090278,22.8305085 C18.6594907,22.579661 18.9099537,22.3288136 19.1604167,22.2033898 L24.6706019,22.2033898 C24.9210648,22.3288136 25.1715278,22.579661 25.4219907,22.8305085 C25.6724537,23.0813559 25.7976852,23.2067797 25.9229167,23.4576271 L25.9229167,37.5050847 C25.2967593,38.3830508 24.4201389,38.6338983 23.5435185,38.3830508 L22.7921296,37.8813559 L22.7921296,38.2576271 L24.6706019,81.779661 C24.4201389,81.779661 24.0444444,81.779661 23.7939815,81.6542373 C23.2930556,81.2779661 22.9173611,80.7762712 22.6668981,80.2745763 C22.1659722,78.5186441 22.4164352,77.0135593 22.9173611,75.5084746 C22.7921296,75.2576271 22.6668981,74.8813559 22.6668981,74.379661 L22.6668981,66.1016949 C22.6668981,65.8508475 22.6668981,65.4745763 22.7921296,65.3491525 C22.5416667,65.2237288 22.1659722,64.9728814 21.9155093,64.8474576 C19.4108796,63.5932203 17.4071759,62.2135593 15.5287037,60.3322034 C14.6520833,59.4542373 13.775463,58.4508475 13.1493056,57.1966102 C13.0240741,57.0711864 13.1493056,56.820339 13.0240741,56.5694915 C12.8988426,56.3186441 12.6483796,56.0677966 12.6483796,55.8169492 C12.3979167,54.8135593 12.1474537,53.9355932 12.2726852,52.8067797 C12.3979167,48.7932203 14.7773148,45.5322034 17.9081019,44.2779661 C18.7847222,43.9016949 20.1622685,43.6508475 21.4145833,43.6508475 L21.4145833,41.6440678 L18.9099537,41.6440678 C18.1585648,41.6440678 17.5324074,42.020339 16.7810185,42.1457627 C16.4053241,42.2711864 16.0296296,42.1457627 15.7791667,42.2711864 C15.5287037,42.3966102 15.1530093,42.5220339 14.9025463,42.6474576 C14.4016204,42.7728814 13.9006944,42.6474576 13.525,42.7728814 C13.274537,42.8983051 13.1493056,43.0237288 12.8988426,43.1491525 L12.3979167,43.1491525 C11.7717593,43.4 11.2708333,43.9016949 10.6446759,44.0271186 C10.394213,44.1525424 10.2689815,44.0271186 10.0185185,44.1525424 C9.51759259,44.4033898 8.89143519,45.0305085 8.39050926,45.5322034 C6.63726852,47.0372881 5.00925926,48.6677966 3.88217593,50.5491525 C3.63171296,50.9254237 3.38125,51.3016949 3.13078704,51.6779661 C3.25601852,52.0542373 2.88032407,52.3050847 2.62986111,52.6813559 C2.50462963,52.9322034 2.62986111,53.1830508 2.50462963,53.3084746 C2.37939815,53.559322 2.25416667,53.6847458 2.12893519,53.9355932 C2.0037037,54.1864407 2.12893519,54.4372881 2.0037037,54.6881356 C2.75509259,54.9389831 2.50462963,55.1898305 2.37939815,55.440678 C2.25416667,55.8169492 2.37939815,56.1932203 2.37939815,56.5694915 C2.25416667,57.6983051 2.0037037,58.9525424 2.0037037,59.9559322 C2.0037037,61.0847458 2.25416667,62.840678 2.50462963,63.8440678 C2.50462963,64.220339 2.75509259,64.4711864 2.75509259,64.7220339 L2.75509259,65.4745763 C2.88032407,65.7254237 3.00555556,65.8508475 3.13078704,66.1016949 C3.38125,66.6033898 3.63171296,67.1050847 3.75694444,67.6067797 C5.3849537,69.9898305 7.26342593,72.3728814 9.51759259,74.0033898 C10.6446759,74.7559322 11.6465278,75.5084746 12.8988426,76.0101695 C14.9025463,77.0135593 17.0314815,78.1423729 19.0351852,79.020339 C19.1604167,79.3966102 19.5361111,79.5220339 19.6613426,79.7728814 C19.7865741,80.0237288 19.6613426,80.2745763 19.6613426,80.5254237 C19.6613426,80.7762712 19.9118056,81.0271186 20.037037,81.2779661 C20.1622685,81.779661 20.1622685,81.9050847 20.4127315,82.2813559 C20.537963,82.4067797 20.537963,82.6576271 20.537963,82.7830508 C21.1641204,83.7864407 22.1659722,84.7898305 23.2930556,85.1661017 C23.919213,85.4169492 24.5453704,85.4169492 25.1715278,85.4169492 L26.5490741,111.881356 L25.0462963,111.881356 C24.2949074,111.755932 23.2930556,111.755932 22.6668981,111.505085 C22.4164352,111.379661 22.2912037,111.254237 21.9155093,111.128814 C21.6650463,111.00339 21.4145833,111.128814 21.1641204,111.00339 C20.9136574,110.877966 20.7884259,110.627119 20.537963,110.627119 C20.2875,110.501695 20.037037,110.627119 19.9118056,110.501695 C19.2856481,110.250847 18.7847222,109.749153 18.1585648,109.498305 C16.4053241,108.369492 15.0277778,106.989831 13.9006944,105.233898 C13.274537,104.481356 12.6483796,103.60339 12.1474537,102.725424 C11.5212963,101.847458 11.1456019,100.844068 10.5194444,99.9661017 C10.5194444,99.7152542 10.394213,99.7152542 10.5194444,99.4644068 C9.64282407,97.959322 8.89143519,96.3288136 8.1400463,94.8237288 C7.51388889,93.5694915 6.7625,92.3152542 6.26157407,90.9355932 C5.88587963,90.4338983 5.51018519,89.8067797 5.25972222,89.0542373 C4.38310185,87.8 3.50648148,86.1694915 2.37939815,85.1661017 C2.0037037,84.7898305 1.3775463,84.4135593 0.751388889,84.5389831 C0.500925926,85.040678 0.751388889,85.6677966 0.751388889,86.1694915 C0.87662037,88.3016949 0.751388889,90.559322 0.751388889,92.8169492 C0.500925926,97.3322034 0.500925926,101.847458 0.500925926,106.237288 L0.500925926,106.237288 Z" id="Fill-1"></path>
                    </g>
                    <path d="M41.3263889,54.6881356 C40.7002315,54.5627119 40.4497685,53.9355932 40.0740741,53.3084746 C39.8236111,52.9322034 39.3226852,52.5559322 39.3226852,52.179661 C38.8217593,50.5491525 40.0740741,49.2949153 41.3263889,48.9186441 C41.3263889,50.6745763 41.2011574,53.0576271 41.3263889,54.6881356 M42.3282407,43.7762712 C41.8273148,44.4033898 41.2011574,44.9050847 40.7002315,45.5322034 C40.324537,46.0338983 39.6983796,46.5355932 39.0722222,47.2881356 C38.5712963,47.7898305 37.8199074,48.9186441 37.3189815,48.9186441 C36.5675926,49.0440678 36.0666667,47.9152542 35.4405093,47.6644068 C34.8143519,47.1627119 34.3134259,46.7864407 33.6872685,46.2847458 L33.6872685,49.5457627 C35.4405093,51.1762712 36.8180556,53.0576271 37.9451389,55.3152542 C39.1974537,57.3220339 40.1993056,59.579661 42.0777778,60.959322 C42.7039352,61.4610169 43.2048611,61.9627119 44.206713,62.0881356 C44.3319444,55.9423729 44.3319444,48.4169492 44.206713,42.3966102 C43.2048611,42.3966102 42.8291667,43.2745763 42.3282407,43.7762712" id="Fill-4"></path>
                </g>
                <g id="Group" transform="translate(309.574074, 24.084746)" fill-rule="nonzero" fill="#FFFFFF">
                    <g id="Shape">
                        <polygon points="11.5212963 0.877966102 1.00185185 0.877966102 1.00185185 63.0881356 11.5212963 58.0711864"></polygon>
                        <path d="M0.87662037,0.877966102 L11.5212963,0.877966102 L11.5212963,0.877966102 L11.5212963,0.877966102 L11.5212963,0.877966102 L11.5212963,58.1966102 L0.87662037,63.0881356 L0.87662037,0.877966102 L0.87662037,0.877966102 Z M1.00185185,62.9627119 L11.5212963,58.0711864 L11.5212963,0.877966102 L1.00185185,0.877966102 L1.00185185,62.9627119 L1.00185185,62.9627119 Z"></path>
                    </g>
                    <g transform="translate(31.307870, 10.033898)">
                        <rect id="Rectangle-path" x="0" y="0.250847458" width="10.6446759" height="86.1661017"></rect>
                        <path d="M0,86.4169492 L0,0.250847458 L10.6446759,0.250847458 L10.6446759,86.4169492 L10.6446759,86.4169492 L0,86.4169492 L0,86.4169492 Z M0,86.4169492 L10.5194444,86.4169492 L10.5194444,0.376271186 L0,0.376271186 L0,86.4169492 L0,86.4169492 Z" id="Shape"></path>
                    </g>
                    <polygon id="Shape" points="1.00185185 1.25423729 1.00185185 0.627118644 44.7076389 0.627118644 44.7076389 1.25423729"></polygon>
                    <g transform="translate(1.000000, 76.508475)" id="Shape">
                        <polygon points="0.00185185185 19.8169492 0.00185185185 18.9389831 10.8969907 18.9389831 10.8969907 19.8169492"></polygon>
                        <polygon points="0.00185185185 17.6847458 0.00185185185 16.9322034 10.8969907 16.9322034 10.8969907 17.6847458"></polygon>
                        <polygon points="0.00185185185 15.6779661 0.00185185185 14.8 10.8969907 14.8 10.8969907 15.6779661"></polygon>
                        <polygon points="0.00185185185 13.6711864 0.00185185185 12.7932203 10.8969907 12.7932203 10.8969907 13.6711864"></polygon>
                        <polygon points="0.00185185185 11.5389831 0.00185185185 10.7864407 10.8969907 10.7864407 10.8969907 11.5389831"></polygon>
                        <polygon points="0.00185185185 9.53220339 0.00185185185 8.65423729 10.8969907 8.65423729 10.8969907 9.53220339"></polygon>
                        <polygon points="0.00185185185 7.52542373 0.00185185185 6.64745763 10.8969907 6.64745763 10.8969907 7.52542373"></polygon>
                        <polygon points="0.00185185185 5.39322034 0.00185185185 4.64067797 10.8969907 4.64067797 10.8969907 5.39322034"></polygon>
                        <polygon points="0.00185185185 3.38644068 0.00185185185 2.50847458 10.8969907 2.50847458 10.8969907 3.38644068"></polygon>
                        <polygon points="0.00185185185 1.37966102 0.00185185185 0.501694915 10.8969907 0.501694915 10.8969907 1.37966102"></polygon>
                    </g>
                    <polygon id="Shape" points="1.00185185 62.8372881 50.969213 36.1220339 51.2196759 36.7491525 1.25231481 63.3389831"></polygon>
                </g>
                <g id="Group" transform="translate(387.217593, 0.254237)" stroke="#F3FF00">
                    <path d="M7.13819444,102.471186 C2.75509259,94.3186441 0.375694444,85.0372881 0.375694444,75.0033898 C0.375694444,31.2305085 44.5824074,-4.76610169 94.0488426,0.752542373 C124.22963,4.13898305 145.39375,22.5762712 152.406713,45.2779661" id="Shape" stroke-width="1.4045"></path>
                    <path d="M131.242593,5.39322034 C139.382639,16.9322034 145.143287,30.979661 147.146991,46.5322034 C153.283333,93.1898305 124.605324,136.335593 83.1537037,142.857627 C52.2215278,147.749153 22.7921296,130.816949 7.38865741,102.471186" id="Shape" stroke-width="1.4679"></path>
                </g>
            </g>
        </g>
    </g>
</svg>