<?xml version="1.0" encoding="UTF-8" standalone="no"?>
<svg width="617px" height="179px" viewBox="0 0 617 179" version="1.1" xmlns="http://www.w3.org/2000/svg" xmlns:xlink="http://www.w3.org/1999/xlink">
    <!-- Generator: Sketch 42 (36781) - http://www.bohemiancoding.com/sketch -->
    <title>logo-type</title>
    <desc>Created with Sketch.</desc>
    <defs></defs>
    <g id="Page-1" stroke="none" stroke-width="1" fill="none" fill-rule="evenodd">
        <g id="logo-type" fill-rule="nonzero" fill="#FFFFFF">
            <g transform="translate(53.000000, 6.000000)" id="Group">
                <g>
                    <path d="M232.6,2.9 C232.1,3.1 231.7,3.5 231.6,4.2 C231.5,4.9 231.3,5.8 231.3,7.1 L231.3,33.8 C231.3,35.1 231.4,36.1 231.6,36.7 C231.8,37.3 232.1,37.7 232.6,38 C233.1,38.2 233.9,38.4 235.1,38.4 L235.1,39.5 C233.2,39.4 230.2,39.3 226.1,39.3 C222,39.3 218.8,39.4 216.6,39.5 L216.6,38.4 C217.8,38.3 218.6,38.2 219.1,38 C219.6,37.8 220,37.4 220.1,36.8 C220.2,36.2 220.4,35.2 220.4,33.8 L220.4,20.9 L208.3,20.9 L208.3,33.8 C208.3,35.1 208.4,36.1 208.6,36.7 C208.8,37.3 209.1,37.7 209.7,38 C210.2,38.2 211,38.4 212.2,38.4 L212.2,39.5 C210.1,39.4 207.1,39.3 203.2,39.3 C198.9,39.3 195.7,39.4 193.6,39.5 L193.6,38.4 C194.8,38.3 195.6,38.2 196.1,38 C196.6,37.8 197,37.4 197.1,36.7 C197.3,36.1 197.4,35.1 197.4,33.8 L197.4,7.1 C197.4,5.8 197.3,4.8 197.1,4.2 C196.9,3.6 196.6,3.2 196,2.9 C195.5,2.7 194.7,2.5 193.5,2.5 L193.5,1.4 C195.5,1.5 198.7,1.6 203.1,1.6 C207,1.6 210,1.5 212.1,1.4 L212.1,2.5 C210.9,2.6 210.1,2.7 209.6,2.9 C209.1,3.1 208.7,3.5 208.6,4.2 C208.4,4.8 208.3,5.8 208.3,7.1 L208.3,19.8 L220.4,19.8 L220.4,7.1 C220.4,5.8 220.3,4.8 220.1,4.2 C219.9,3.6 219.6,3.2 219.1,2.9 C218.6,2.7 217.8,2.5 216.6,2.5 L216.6,1.4 C218.8,1.5 222,1.6 226.1,1.6 C230.2,1.6 233.2,1.5 235.1,1.4 L235.1,2.5 C234,2.5 233.2,2.7 232.6,2.9 Z" id="Shape"></path>
                    <path d="M268.1,2.9 C271.1,4.4 273.5,6.7 275.2,9.6 C276.9,12.5 277.7,16 277.7,20.1 C277.7,24.1 276.8,27.6 275.1,30.6 C273.4,33.6 271,36 267.9,37.7 C264.8,39.4 261.3,40.2 257.4,40.2 C253.3,40.2 249.8,39.4 246.7,37.9 C243.7,36.4 241.3,34.1 239.6,31.2 C237.9,28.3 237.1,24.8 237.1,20.7 C237.1,16.7 238,13.2 239.7,10.2 C241.4,7.2 243.8,4.8 246.9,3.1 C250,1.4 253.5,0.6 257.4,0.6 C261.5,0.6 265,1.4 268.1,2.9 Z M252.6,4 C251.3,5.6 250.2,7.8 249.5,10.7 C248.8,13.6 248.4,16.8 248.4,20.5 C248.4,24.2 248.8,27.5 249.6,30.3 C250.4,33.1 251.5,35.3 252.9,36.9 C254.3,38.4 255.8,39.2 257.5,39.2 C259.3,39.2 260.8,38.4 262.1,36.8 C263.4,35.2 264.5,33 265.2,30.1 C265.9,27.2 266.3,24 266.3,20.3 C266.3,16.6 265.9,13.3 265.1,10.5 C264.3,7.7 263.2,5.5 261.8,3.9 C260.4,2.4 258.9,1.6 257.2,1.6 C255.4,1.6 253.9,2.4 252.6,4 Z" id="Shape"></path>
                    <path d="M280.7,12 C280.7,8.9 280.6,5.3 280.3,1.3 C283.7,1.4 289.6,1.5 297.9,1.5 C306.2,1.5 312,1.4 315.4,1.3 C315.2,5.3 315,8.8 315,12 C315,13.6 315.1,14.9 315.2,15.9 L314,15.9 C312.8,11.2 311.3,7.8 309.4,5.7 C307.5,3.6 305.5,2.6 303.4,2.6 L303.3,2.6 L303.3,33.4 C303.3,34.9 303.5,36 303.8,36.7 C304.1,37.4 304.7,37.8 305.5,38.1 C306.3,38.4 307.6,38.4 309.3,38.4 L309.3,39.5 C304.3,39.4 300.3,39.3 297.5,39.3 C295,39.3 291.3,39.4 286.5,39.5 L286.5,38.4 C288.2,38.4 289.5,38.3 290.3,38.1 C291.1,37.9 291.7,37.4 292,36.7 C292.3,36 292.5,34.9 292.5,33.4 L292.5,2.6 L292.4,2.6 C290.2,2.6 288.2,3.6 286.4,5.7 C284.6,7.8 283,11.2 281.8,15.9 L280.6,15.9 C280.6,15 280.7,13.7 280.7,12 Z" id="Shape"></path>
                    <path d="M7.4,134 C10,138.5 14,140.8 19.5,140.8 C22.9,140.8 25.6,140 27.5,138.4 C29.4,136.8 30.4,134.6 30.4,131.8 C30.4,129.4 29.9,127.2 28.8,125.3 C27.7,123.4 26.2,121.6 24.4,120 C22.6,118.4 20.1,116.6 17.1,114.6 C13.4,112.1 10.5,110 8.3,108.2 C6.1,106.4 4.4,104.3 2.9,101.8 C1.5,99.4 0.8,96.6 0.8,93.4 C0.8,89.6 1.8,86.4 3.9,83.8 C6,81.2 8.7,79.3 12.1,78 C15.5,76.8 19.3,76.1 23.4,76.1 C26.9,76.1 29.7,76.4 31.9,77.1 C34.1,77.8 36.2,78.6 38.2,79.8 C39.1,80.3 39.7,80.6 40.1,80.8 C40.5,81 40.9,81.1 41.3,81.1 C41.9,81.1 42.3,80.8 42.6,80.1 C42.9,79.5 43.1,78.4 43.3,77 L45.4,77 C45.1,81.4 45,88.8 45,99.3 L43,99.3 C42.8,95.8 42,92.5 40.6,89.3 C39.2,86.1 37.4,83.5 35.1,81.5 C32.8,79.5 30.1,78.5 27.1,78.5 C24.3,78.5 22.1,79.2 20.4,80.7 C18.7,82.2 17.8,84.3 17.8,86.9 C17.8,89.1 18.3,91 19.3,92.6 C20.3,94.2 21.7,95.7 23.5,97.1 C25.3,98.5 28.7,101 33.8,104.5 C37.2,106.8 39.8,108.9 41.8,110.7 C43.8,112.5 45.4,114.5 46.7,116.9 C48,119.3 48.6,122 48.6,125.2 C48.6,129.2 47.5,132.5 45.3,135.2 C43.1,137.9 40.1,140 36.3,141.3 C32.6,142.6 28.4,143.3 23.8,143.3 C20.1,143.3 17,143 14.5,142.4 C12,141.8 9.7,141 7.6,139.9 C6.2,139 5.2,138.6 4.5,138.6 C3.9,138.6 3.5,138.9 3.2,139.5 C2.9,140.1 2.6,141.2 2.4,142.6 L0.3,142.6 C0.6,138 0.7,129.1 0.7,116.1 L2.8,116.1 C3.2,123.6 4.7,129.5 7.4,134 Z" id="Shape"></path>
                    <path d="M110.9,138.9 C111.9,139.8 112.8,140.3 113.7,140.4 L113.7,142.2 C109.3,142 103.8,141.9 97.1,141.9 C90.1,141.9 85,142 81.8,142.2 L81.8,140.4 C84.1,140.3 85.7,140 86.7,139.6 C87.7,139.1 88.2,138.3 88.2,137.1 C88.2,136.2 87.8,134.7 87.1,132.8 L81.7,117.8 L63.1,117.8 L61.5,121.9 C59.5,127 58.6,131 58.6,133.8 C58.6,136.3 59.3,138 60.7,138.9 C62.1,139.8 64.1,140.3 66.9,140.4 L66.9,142.2 C62.3,142 58.4,141.9 54.9,141.9 C52,141.9 49.7,142 47.9,142.2 L47.9,140.4 C49.4,140.2 50.8,139.2 52.2,137.6 C53.6,136 54.9,133.3 56.3,129.7 L76.6,77.6 C77.9,77.7 79.5,77.8 81.4,77.8 C83.3,77.8 84.9,77.7 86.2,77.6 L108.3,134.6 C109.1,136.5 109.9,138 110.9,138.9 Z M72.6,93.1 L63.8,115.9 L80.9,115.9 L72.6,93.1 Z" id="Shape"></path>
                    <path d="M144.2,80.1 C143.2,80.5 142.5,81.2 142.1,82.2 C141.7,83.2 141.5,84.9 141.5,87.2 L141.5,134.4 C141.5,136.1 141.6,137.4 141.9,138.2 C142.1,139 142.6,139.5 143.2,139.8 C143.8,140.1 144.8,140.2 146.2,140.2 L149.2,140.2 C151.3,140.2 153.6,139.1 156.1,137 C158.6,134.9 160.9,132 162.9,128.5 C164.9,125 166.2,121.4 166.9,117.6 L169,117.6 C168.8,119.8 168.7,122.6 168.7,126 C168.7,132.6 168.9,138 169.3,142.3 C165.2,142.1 158.2,142 148.4,142 C134.2,142 123.5,142.1 116.4,142.3 L116.4,140.4 C118.4,140.3 119.8,140.1 120.7,139.7 C121.6,139.3 122.2,138.6 122.5,137.6 C122.8,136.6 123,134.9 123,132.6 L123,87.3 C123,85 122.8,83.3 122.5,82.3 C122.2,81.3 121.6,80.5 120.7,80.2 C119.8,79.8 118.4,79.6 116.5,79.5 L116.5,77.7 C120,77.9 125.4,78 132.8,78 C139.8,78 145.2,77.9 148.9,77.7 L148.9,79.5 C146.8,79.5 145.2,79.7 144.2,80.1 Z" id="Shape"></path>
                    <path d="M220.3,77.8 C223.2,77.8 225.5,77.7 227.3,77.5 L227.3,79.3 C225.7,80.1 224,81.5 222.4,83.6 C220.8,85.7 219.4,88.5 218.1,92.1 L200.3,142.2 C198.3,142.1 196.7,142 195.4,142 C194.2,142 192.6,142.1 190.7,142.2 L166.7,85.2 C165.9,83.2 165,81.8 164.1,80.9 C163.1,80 162.2,79.5 161.3,79.4 L161.3,77.6 C165.7,77.8 171.3,77.9 177.9,77.9 C184.8,77.9 189.9,77.8 193.2,77.6 L193.2,79.4 C190.9,79.5 189.3,79.8 188.3,80.2 C187.3,80.6 186.8,81.5 186.8,82.7 C186.8,83.7 187.2,85.2 187.9,87 L203.7,125.9 L212.5,101 C214.5,95.3 215.5,90.8 215.5,87.4 C215.5,82.1 213,79.4 208.1,79.2 L208.1,77.4 C212.9,77.7 216.9,77.8 220.3,77.8 Z" id="Shape"></path>
                    <path d="M278.7,138.9 C279.7,139.8 280.6,140.3 281.5,140.4 L281.5,142.2 C277.1,142 271.6,141.9 264.9,141.9 C257.9,141.9 252.8,142 249.6,142.2 L249.6,140.4 C251.9,140.3 253.5,140 254.5,139.6 C255.5,139.1 256,138.3 256,137.1 C256,136.2 255.6,134.7 254.9,132.8 L249.5,117.8 L231.1,117.8 L229.5,121.9 C227.5,127 226.6,131 226.6,133.8 C226.6,136.3 227.3,138 228.7,138.9 C230.1,139.8 232.1,140.3 234.9,140.4 L234.9,142.2 C230.3,142 226.4,141.9 222.9,141.9 C220,141.9 217.7,142 215.9,142.2 L215.9,140.4 C217.4,140.2 218.8,139.2 220.2,137.6 C221.6,136 222.9,133.3 224.3,129.7 L244.6,77.6 C245.9,77.7 247.5,77.8 249.4,77.8 C251.3,77.8 252.9,77.7 254.2,77.6 L276.3,134.6 C276.8,136.5 277.7,138 278.7,138.9 Z M240.4,93.1 L231.6,115.9 L248.7,115.9 L240.4,93.1 Z" id="Shape"></path>
                    <path d="M279,95.7 C279,90.4 278.8,84.3 278.4,77.6 C284.2,77.8 294.2,77.9 308.3,77.9 C322.4,77.9 332.3,77.8 338.1,77.6 C337.7,84.4 337.5,90.4 337.5,95.7 C337.5,98.5 337.6,100.7 337.8,102.3 L335.7,102.3 C333.7,94.3 331.1,88.5 328,85 C324.8,81.5 321.4,79.7 317.8,79.7 L317.7,79.7 L317.7,132 C317.7,134.6 318,136.4 318.5,137.6 C319,138.8 320,139.5 321.3,139.9 C322.7,140.3 324.8,140.5 327.8,140.5 L327.8,142.3 C319.2,142.1 312.6,142 307.8,142 C303.5,142 297.2,142.1 289,142.3 L289,140.4 C292,140.4 294.1,140.2 295.5,139.8 C296.9,139.4 297.8,138.6 298.3,137.5 C298.8,136.4 299.1,134.5 299.1,131.9 L299.1,79.6 L299,79.6 C295.3,79.6 291.9,81.3 288.7,84.8 C285.5,88.3 283,94.1 281,102.1 L278.9,102.1 C279,100.7 279,98.5 279,95.7 Z" id="Shape"></path>
                    <path d="M369.5,80.1 C368.6,80.5 368,81.2 367.7,82.2 C367.4,83.2 367.2,84.9 367.2,87.2 L367.2,132.5 C367.2,134.8 367.4,136.5 367.7,137.5 C368,138.5 368.6,139.3 369.5,139.6 C370.4,140 371.8,140.2 373.7,140.3 L373.7,142.1 C370.1,141.9 365,141.8 358.4,141.8 C351,141.8 345.6,141.9 342.1,142.1 L342.1,140.4 C344.1,140.3 345.5,140.1 346.4,139.7 C347.3,139.3 347.9,138.6 348.2,137.6 C348.5,136.6 348.7,134.9 348.7,132.6 L348.7,87.3 C348.7,85 348.5,83.3 348.2,82.3 C347.9,81.3 347.3,80.5 346.4,80.2 C345.5,79.8 344.1,79.6 342.2,79.5 L342.2,77.7 C345.7,77.9 351.1,78 358.5,78 C365.1,78 370.2,77.9 373.8,77.7 L373.8,79.5 C371.8,79.5 370.4,79.7 369.5,80.1 Z" id="Shape"></path>
                    <path d="M429.2,80.2 C434.4,82.8 438.4,86.6 441.2,91.6 C444.1,96.6 445.5,102.5 445.5,109.4 C445.5,116.1 444,122.1 441.1,127.2 C438.2,132.4 434.1,136.4 428.9,139.2 C423.7,142.1 417.7,143.5 411,143.5 C404.1,143.5 398.1,142.2 392.9,139.6 C387.7,137 383.7,133.2 380.9,128.2 C378,123.2 376.6,117.3 376.6,110.4 C376.6,103.7 378.1,97.7 381,92.6 C383.9,87.4 388,83.4 393.2,80.6 C398.4,77.7 404.4,76.3 411.1,76.3 C418,76.2 424,77.6 429.2,80.2 Z M402.8,82 C400.5,84.7 398.8,88.5 397.6,93.4 C396.4,98.3 395.7,103.8 395.7,110.1 C395.7,116.4 396.4,122 397.8,126.8 C399.2,131.6 401.1,135.4 403.5,138 C405.9,140.6 408.5,141.9 411.4,141.9 C414.4,141.9 417,140.5 419.3,137.8 C421.6,135.1 423.3,131.3 424.5,126.4 C425.7,121.5 426.4,116 426.4,109.7 C426.4,103.4 425.7,97.8 424.3,93 C422.9,88.2 421,84.4 418.6,81.8 C416.2,79.2 413.6,77.9 410.7,77.9 C407.7,77.9 405.1,79.2 402.8,82 Z" id="Shape"></path>
                    <path d="M506.5,81.4 C505.6,82.3 505,83.7 504.7,85.5 C504.4,87.3 504.2,90.1 504.2,93.7 L504.2,142.3 C503.3,142.2 502.3,142.2 501.2,142.2 C500.1,142.2 499,142.2 497.8,142.3 L457.3,98.1 L457.3,124.4 C457.3,128.9 457.5,132.1 457.8,134.1 C458.2,136.1 459,137.5 460.2,138.4 C461.4,139.3 463.5,140 466.5,140.4 L466.5,142.2 C464.1,142 460.6,141.9 456.2,141.9 C453,141.9 450.5,142 448.6,142.2 L448.6,140.4 C450.5,140 451.9,139.3 452.8,138.4 C453.7,137.5 454.3,136.1 454.6,134.3 C454.9,132.5 455.1,129.7 455.1,126.1 L455.1,87.2 C455.1,84.9 454.9,83.2 454.6,82.2 C454.3,81.2 453.7,80.4 452.8,80.1 C451.9,79.7 450.5,79.5 448.6,79.4 L448.6,77.6 C450.4,77.8 453,77.9 456.2,77.9 C459.6,77.9 462.4,77.8 464.6,77.6 L501.9,117.1 L501.9,95.5 C501.9,91 501.7,87.8 501.4,85.8 C501,83.8 500.2,82.4 499,81.5 C497.8,80.6 495.7,79.9 492.7,79.5 L492.7,77.7 C495.2,77.9 498.6,78 502.9,78 C506.1,78 508.7,77.9 510.5,77.7 L510.5,79.5 C508.8,79.8 507.4,80.5 506.5,81.4 Z" id="Shape"></path>
                </g>
            </g>
        </g>
    </g>
</svg>