<?xml version="1.0" encoding="UTF-8" standalone="no"?>
<svg width="820px" height="93px" viewBox="0 0 820 93" version="1.1" xmlns="http://www.w3.org/2000/svg" xmlns:xlink="http://www.w3.org/1999/xlink">
    <!-- Generator: Sketch 41.2 (35397) - http://www.bohemiancoding.com/sketch -->
    <title>large-icons</title>
    <desc>Created with Sketch.</desc>
    <defs></defs>
    <g id="case-studies" stroke="none" stroke-width="1" fill="none" fill-rule="evenodd">
        <g id="Desktop-HD" transform="translate(-268.000000, -3800.000000)" fill="#FFFFFF">
            <g id="large-icons" transform="translate(267.000000, 3800.000000)">
                <g id="Page-1">
                    <g>
                        <g id="large-icons">
                            <g id="durable" transform="translate(0.000000, 9.525333)">
                                <path d="M85.1353064,22.045792 L71.6509508,3.81906667 C70.0477659,1.65443467 66.8080954,0.0232213333 64.1178844,0.0232213333 L22.8679827,0.0232213333 C20.1706358,0.0232213333 16.9404797,1.66872267 15.353945,3.857168 L2.17880925,22.038648 C0.432907514,24.446176 0.632710982,28.0562773 2.63074566,30.2518667 L39.787055,71.1345973 C40.6148121,72.0442667 41.6756735,72.6086427 42.8293006,72.8062933 C43.1171127,72.85392 43.4073034,72.8991653 43.7046301,72.8991653 L43.7070087,72.8991653 C43.9829277,72.8991653 44.2493323,72.85392 44.515737,72.8134373 C45.6979075,72.6276933 46.7849335,72.060936 47.6269624,71.132216 L84.726185,30.2518667 C86.7265982,28.046752 86.9073729,24.4414133 85.1353064,22.045792 L85.1353064,22.045792 Z M68.6705492,6.028944 L82.1549046,24.2556693 C82.1739335,24.2794827 82.1786908,24.3152027 82.195341,24.3413973 L62.9809075,24.3413973 L67.6905607,5.09784267 C68.0830318,5.39074667 68.4279307,5.70270133 68.6705492,6.028944 L68.6705492,6.028944 Z M43.6023498,64.9859947 L28.3126271,28.053896 L58.0976156,28.053896 L43.6023498,64.9859947 L43.6023498,64.9859947 Z M43.0505116,5.314544 L57.0462687,24.3413973 L29.259315,24.3413973 L43.0505116,5.314544 L43.0505116,5.314544 Z M64.1178844,3.73333867 C64.1440492,3.73333867 64.1773498,3.74524533 64.2035145,3.74762667 L59.7864307,21.8076587 L46.4923642,3.73333867 L64.1178844,3.73333867 L64.1178844,3.73333867 Z M22.8679827,3.73333867 L39.6181735,3.73333867 L26.5667255,21.7386 L22.3327948,3.81668533 C22.5111908,3.792872 22.7038584,3.73333867 22.8679827,3.73333867 L22.8679827,3.73333867 Z M5.17823988,24.217568 L18.3533757,6.036088 C18.4960925,5.84081867 18.7149249,5.65983733 18.9147283,5.47409333 L23.3722486,24.3413973 L5.12115318,24.3413973 C5.14731792,24.303296 5.15207514,24.2556693 5.17823988,24.217568 L5.17823988,24.217568 Z M5.64444797,28.053896 L24.2999075,28.053896 L39.9083642,65.7551653 L5.64444797,28.053896 L5.64444797,28.053896 Z M47.1274538,66.1623733 L62.0580058,28.1205733 L62.0841705,28.053896 L81.7124827,28.053896 L47.1274538,66.1623733 L47.1274538,66.1623733 Z" id="Fill-83"></path>
                            </g>
                            <g id="anti-mould" transform="translate(246.253598, 2.509333)">
                                <path d="M71.2388698,60.9502267 C68.424971,60.9502267 65.8417975,61.8908533 63.7272109,63.4411013 L57.8829594,58.8213147 C59.0936732,56.7638427 59.8001212,54.3753653 59.8001212,51.8178133 C59.8001212,46.164528 56.4010837,41.3018453 51.5439565,39.141976 L53.2613149,33.50536 C53.9630057,33.5958507 54.6718322,33.6577653 55.3949306,33.6577653 C64.5597254,33.6577653 72.0142975,26.1922853 72.0142975,17.0193893 C72.0142975,7.844112 64.5597254,0.383394667 55.3949306,0.383394667 C46.2325144,0.383394667 38.7779421,7.844112 38.7779421,17.0193893 C38.7779421,24.1705333 43.3163352,30.2667467 49.6577166,32.61236 L47.9807947,38.1180027 C47.3147831,38.0179867 46.6392571,37.948928 45.9470808,37.948928 C38.796971,37.948928 32.8980115,43.3998 32.1725346,50.3699627 L23.4644334,51.04388 C22.1110027,46.0811813 17.6154248,42.4044027 12.2350028,42.4044027 C5.78896232,42.4044027 0.54649989,47.6528613 0.54649989,54.1038933 C0.54649989,60.5573067 5.78896232,65.8057653 12.2350028,65.8057653 C18.4645895,65.8057653 23.5238987,60.888312 23.8592831,54.7349467 L32.2962224,54.0824613 C32.9717485,58.1712107 35.431234,61.65272 38.8516791,63.7078107 L37.4554334,67.9703973 C37.0391762,67.910864 36.622919,67.8418053 36.1900115,67.8418053 C31.2781762,67.8418053 27.2821069,71.8424453 27.2821069,76.7598987 C27.2821069,81.6797333 31.2781762,85.677992 36.1900115,85.677992 C41.1018467,85.677992 45.0955375,81.6797333 45.0955375,76.7598987 C45.0955375,73.5951067 43.4305085,70.8279973 40.9401011,69.2444107 L42.2745027,65.1770933 C43.4447802,65.4985733 44.674523,65.6866987 45.9470808,65.6866987 C49.7005317,65.6866987 53.1019479,64.1793147 55.5994912,61.745592 L61.0703005,66.0700933 C59.445708,68.218056 58.444312,70.861336 58.444312,73.7594187 C58.444312,80.8224533 64.1839045,86.5686107 71.2388698,86.5686107 C78.2938352,86.5686107 84.0334276,80.8224533 84.0334276,73.7594187 C84.0334276,66.696384 78.2938352,60.9502267 71.2388698,60.9502267 L71.2388698,60.9502267 Z M42.4861993,17.0193893 C42.4861993,9.89205867 48.2781212,4.093512 55.3949306,4.093512 C62.5141184,4.093512 68.308419,9.89205867 68.308419,17.0193893 C68.308419,24.14672 62.5141184,29.9452667 55.3949306,29.9452667 C48.2781212,29.9452667 42.4861993,24.14672 42.4861993,17.0193893 L42.4861993,17.0193893 Z M12.2350028,62.0932667 C7.83456926,62.0932667 4.25475711,58.50936 4.25475711,54.1038933 C4.25475711,49.6984267 7.83456926,46.11452 12.2350028,46.11452 C16.6354363,46.11452 20.2152485,49.6984267 20.2152485,54.1038933 C20.2152485,58.50936 16.6354363,62.0932667 12.2350028,62.0932667 L12.2350028,62.0932667 Z M41.3896589,76.7598987 C41.3896589,79.6317867 39.0562398,81.9678747 36.1900115,81.9678747 C33.3214045,81.9678747 30.9879854,79.6317867 30.9879854,76.7598987 C30.9879854,73.8880107 33.3214045,71.554304 36.1900115,71.554304 C39.0562398,71.554304 41.3896589,73.8880107 41.3896589,76.7598987 L41.3896589,76.7598987 Z M45.9470808,61.9742 C40.3549623,61.9742 35.8022975,57.4187093 35.8022975,51.8178133 C35.8022975,46.2192987 40.3549623,41.6614267 45.9470808,41.6614267 C51.541578,41.6614267 56.091864,46.2192987 56.091864,51.8178133 C56.091864,57.4187093 51.541578,61.9742 45.9470808,61.9742 L45.9470808,61.9742 Z M71.2388698,82.8584933 C66.2271328,82.8584933 62.1501907,78.776888 62.1501907,73.7594187 C62.1501907,68.7419493 66.2271328,64.660344 71.2388698,64.660344 C76.2506069,64.660344 80.3275491,68.7419493 80.3275491,73.7594187 C80.3275491,78.776888 76.2506069,82.8584933 71.2388698,82.8584933 L71.2388698,82.8584933 Z" id="Fill-84"></path>
                            </g>
                            <g id="feature" transform="translate(480.479769, 4.762667)">
                                <path d="M104.635173,36.6457467 L104.620902,36.5647813 C104.335468,35.2312347 104.047656,33.897688 103.854988,32.5641413 C103.786009,31.49016 103.093832,30.797192 102.715633,30.4161787 C101.155263,28.8564053 99.1952861,28.0658027 96.8880318,28.0658027 C95.7938699,28.0658027 95.1278584,27.8443387 94.7092225,27.439512 C94.3667024,27.010872 94.0194249,26.5846133 93.7625347,26.153592 C93.6245751,25.9226027 93.4866156,25.6701813 93.348656,25.41776 C93.1869104,25.117712 93.0227861,24.8200453 92.8110896,24.4723707 C92.0237687,23.288848 92.0118757,22.124376 92.765896,20.817024 C94.0455896,18.6404853 94.2810723,16.4496587 93.4866156,14.1254773 C93.3557919,13.4063147 92.9133699,12.972912 92.6659942,12.7347787 L88.8673498,9.52236 C88.6960896,9.350904 88.1965809,8.850824 87.342659,8.786528 C84.8546301,8.42456533 82.6639277,9.043712 80.8181243,10.643968 C80.1497341,11.2321573 79.6383323,11.5036293 79.124552,11.6036453 C78.5013555,11.6679413 77.8948092,11.6036453 77.4500087,11.4393333 C77.0527803,11.2702587 76.6293873,11.1273787 76.2059942,10.9844987 C75.8777456,10.8749573 75.549497,10.7677973 75.1546474,10.601104 C73.8939827,10.136744 73.2398642,9.31756533 73.0353034,7.94829867 C72.6499682,5.36931467 71.3369739,3.40233333 69.0106908,2.03782933 C68.7157428,1.892568 68.2233699,1.64729067 67.590659,1.64729067 L62.4243121,1.64729067 C61.7892225,1.64729067 61.2992283,1.892568 60.8805925,2.10450667 C58.677997,3.40233333 57.3673815,5.36693333 56.9796677,7.94829867 C56.7727283,9.31756533 56.1209884,10.136744 54.772315,10.636824 C54.4654739,10.7677973 54.1372255,10.8749573 53.8113555,10.9844987 C53.3855838,11.1249973 52.9621908,11.2702587 52.6434566,11.408376 C52.1201618,11.6036453 51.5159942,11.672704 51.0164855,11.622696 C50.3766387,11.5036293 49.865237,11.2321573 49.189711,10.6392053 C47.3486647,9.043712 45.1555838,8.41742133 42.6723121,8.786528 C41.8183902,8.850824 41.3260173,9.34376 41.2594162,9.41758133 L38.4050809,11.84416 C36.7995173,9.20564267 35.210604,6.63380267 33.700185,4.22627467 L32.846263,2.835576 C32.3634046,2.14022667 30.9029364,0.0256026667 28.4101502,0.0256026667 C26.0362948,0.0256026667 24.3855376,2.078312 23.9193295,3.028464 L21.3028555,7.272 C19.1906474,10.6487307 17.0047024,14.1421467 14.980503,17.602224 C9.55250867,26.6631973 5.46843064,34.8430773 2.4880289,42.6348 C1.35343064,45.7329147 0.180774566,48.9405707 0.0689797687,52.443512 C-0.252132948,61.4211387 2.99705203,69.0080667 9.72852601,74.9995013 C14.9353092,79.5716613 21.6049393,82.0887307 28.510052,82.0887307 C35.2201185,82.0887307 41.5210636,79.7526427 46.616052,75.4852933 C46.8919711,76.1639733 47.2321127,76.833128 47.7125925,77.4808507 C48.0574913,77.9071093 48.4570982,78.1857253 48.906656,78.3095547 C50.4646474,79.026336 52.186763,79.6383387 54.3037283,80.226528 L54.6961994,80.2932053 C54.9150318,80.3289253 55.3931329,80.4075093 55.9473498,80.2170027 C58.1713526,79.683584 59.8815751,78.3786133 61.0518526,76.2925653 C61.6583988,75.1447627 62.590815,74.53276 63.7277919,74.468464 L66.189656,74.4660827 C67.4217775,74.53276 68.3541936,75.1447627 68.9845261,76.3354293 C70.133396,78.3786133 71.8412399,79.683584 74.0652428,80.2170027 C74.3411618,80.312256 74.5956735,80.340832 74.7978555,80.340832 C75.0000376,80.340832 75.1498902,80.312256 75.2164913,80.2955867 L75.7112428,80.226528 C77.8234508,79.64072 79.5455665,79.0287173 81.1011792,78.311936 C81.5483584,78.1928693 81.9360723,77.9285413 82.238156,77.5499093 L82.4308237,77.326064 C83.8675058,75.3638453 84.3598787,73.1087227 83.8603699,70.8583627 C83.5987225,69.489096 83.9793006,68.4770293 85.1305492,67.4935387 C85.696659,67.13872 86.2627687,66.688648 86.6695116,66.274296 C87.8183815,65.2717547 88.9054075,65.0717227 90.351604,65.624192 C92.5304133,66.3933627 94.7686879,66.2576267 96.8095376,65.2336533 C97.1211358,65.0788667 97.770497,64.7573867 98.0297659,64.2001547 C99.233344,62.3927227 100.108673,60.8639067 100.853179,59.28032 C101.233757,58.5182933 101.31463,57.6824453 101.136234,57.0132907 C100.862694,54.8319893 99.8565404,53.0126507 98.2462197,51.7767387 C97.7681185,51.393344 97.1687081,50.728952 97.0117197,49.7049787 C96.9427399,49.3025333 96.9427399,48.9119947 97.0236127,48.4333467 C97.0664277,48.078528 97.1330289,47.7451413 97.2020087,47.4117547 C97.2852601,46.99264 97.3685116,46.571144 97.4160838,46.1686987 C97.6111301,44.8803973 98.2961705,44.120752 99.6496012,43.6444853 C101.604821,43.034864 103.153298,41.684648 104.266488,39.591456 C104.701775,38.719888 104.820705,37.755448 104.635173,36.6457467 L104.635173,36.6457467 Z M12.1832543,72.218104 C6.24385838,66.9291627 3.49180347,60.5043253 3.77485838,52.5697227 C3.86524566,49.6549707 4.88804913,46.864048 5.96080347,43.9326267 C8.85319653,36.3742747 12.8421301,28.3849013 18.1726012,19.495384 C20.175393,16.066264 22.3470665,12.5966613 24.445003,9.24136267 L27.1566213,4.828752 C27.3588034,4.44535733 27.9867572,3.73810133 28.4101502,3.73810133 C28.7764566,3.73810133 29.2402861,4.14530933 29.7421735,4.864472 L30.5532803,6.18373067 C32.4870925,9.26993867 34.5303208,12.5633227 36.5901994,15.994824 L36.6163642,16.0400693 C41.021555,23.3864827 44.546659,29.8994293 47.3986156,35.9527787 L49.1492745,39.6676587 L50.7786243,35.898008 C53.2238382,30.232816 58.8111994,26.5655627 65.005107,26.5560373 C73.4515607,26.567944 80.3971098,33.404752 80.4851185,41.7941893 C80.5279335,45.8591253 78.9580492,49.7121227 76.0608988,52.643544 C73.1589913,55.579728 69.2961243,57.1966533 65.2429682,57.1966533 L64.8314682,57.1966533 C61.6369913,57.1966533 58.5662024,56.2060187 55.952107,54.3342907 L53.2309739,52.38636 L53.0240347,55.729752 C52.800445,59.2993707 51.6753613,62.9118533 49.7058699,66.4076507 C48.8852486,67.7507227 47.8576879,69.0795067 46.561344,70.467824 C46.4543064,70.582128 46.3448902,70.696432 46.2354739,70.810736 L46.1688729,70.7940667 C46.161737,70.8297867 46.1522225,70.867888 46.1450867,70.9012267 C41.4354335,75.7281893 35.1963323,78.3786133 28.510052,78.3786133 C22.504055,78.3786133 16.7026185,76.1877867 12.1832543,72.218104 L12.1832543,72.218104 Z M100.97211,37.8864213 C100.33702,39.0794693 99.5663498,39.7819627 98.4840809,40.1224933 C95.7843555,41.0678827 94.1478699,42.9681867 93.7435058,45.663856 C93.7006908,46.0186747 93.631711,46.3520613 93.5651098,46.685448 C93.4818584,47.1045627 93.398607,47.5260587 93.3557919,47.8975467 C93.220211,48.6976747 93.220211,49.514472 93.3510347,50.293168 C93.6126821,51.9958213 94.528448,53.5532133 95.9579942,54.6962533 C96.8047803,55.3463573 97.3090462,56.2822213 97.5183642,57.658632 C96.8856532,59.0040853 96.1577976,60.2900053 95.0874219,61.9474133 C93.9480665,62.49512 92.8015751,62.5546533 91.6289191,62.1403013 C88.9553584,61.1187093 86.3935925,61.5830693 84.1410462,63.5643387 C83.8246908,63.8786747 83.4441127,64.181104 83.0920781,64.3906613 L82.8684884,64.5502107 C80.6159422,66.4052693 79.6977976,68.8294667 80.2282283,71.6084827 C80.4922544,72.7943867 80.2805578,73.882656 79.5836243,74.92568 C78.246844,75.5424453 76.7483179,76.0782453 74.9001358,76.5997573 C73.6870434,76.304472 72.8569075,75.6591307 72.2384682,74.5589547 C71.0158613,72.2419173 68.9345751,70.8940827 66.2871792,70.7583467 L65.0074855,70.7583467 L63.6326474,70.760728 C61.0780173,70.8940827 58.9991098,72.2419173 57.7979104,74.5160907 C57.1580636,75.6567493 56.3255492,76.304472 55.1148353,76.5997573 C53.2666532,76.0782453 51.7681271,75.5424453 50.4313468,74.9280613 C49.9318382,74.1731787 49.6939769,73.3801947 49.7106271,72.5205333 C50.9760492,71.1155467 52.015503,69.739136 52.9027255,68.288904 C54.6391127,65.202696 55.7998757,62.059336 56.3659855,58.9064507 C58.9753237,60.2114213 61.8486879,60.894864 64.8671474,60.894864 L64.9289913,60.894864 L65.1811243,60.9067707 C70.292763,60.9067707 75.0928034,58.901688 78.6940231,55.2534853 C82.2952428,51.6124267 84.2480838,46.8188027 84.1933757,41.7537067 C84.0815809,31.3425173 75.4757601,22.8578267 65.005107,22.8435387 C58.6018815,22.853064 52.7243295,26.017856 49.1920896,31.1424853 C46.7183323,26.160736 43.8045318,20.859888 40.3460289,15.0541973 L43.4334682,12.4275867 C44.7417052,12.2918507 45.8025665,12.6109493 46.7563902,13.437272 C47.5460896,14.13024 48.6711735,14.966088 50.4812976,15.2923307 C51.6801185,15.4256853 52.8789393,15.2851867 54.023052,14.851784 C54.3275145,14.7208107 54.6581416,14.6136507 54.9840116,14.5064907 C55.4097833,14.3636107 55.8331763,14.2207307 56.142396,14.0849947 C58.6803757,13.1467493 60.2383671,11.215488 60.6451098,8.500768 C60.8568064,7.079112 61.5014104,6.078952 62.6859596,5.357408 L67.3432833,5.357408 C68.5111821,6.07657067 69.1557861,7.07673067 69.3698613,8.500768 C69.776604,11.215488 71.3345954,13.1467493 73.7821879,14.0492747 C74.1794162,14.2207307 74.6051879,14.3636107 75.0309596,14.5064907 C75.3592081,14.6136507 75.6850781,14.7208107 76.0704133,14.8851227 C77.1360318,15.2851867 78.3348526,15.4256853 79.6621185,15.27328 C81.3414191,14.966088 82.466503,14.1326213 83.251445,13.444416 C84.2076474,12.6133307 85.2708873,12.2823253 86.5672313,12.4275867 L89.9734046,15.309 C90.4205838,16.6068267 90.296896,17.6974773 89.5642833,18.945296 C88.0990578,21.4790347 88.1561445,24.174704 89.6808353,26.4560213 C89.8187948,26.6870107 89.9543757,26.939432 90.0923353,27.1942347 C90.2564596,27.4919013 90.4205838,27.7919493 90.5823295,28.0634213 C90.9200925,28.625416 91.364893,29.1945547 91.9643034,29.9280053 C93.6198179,31.5854133 95.5679018,31.77592 96.8880318,31.77592 C98.1938902,31.77592 99.2428584,32.190272 100.092023,33.0427893 C100.125324,33.0737467 100.158624,33.1070853 100.191925,33.1380427 C100.394107,34.5239787 100.689055,35.9099147 100.986381,37.2958507 C101.043468,37.6721013 101.003032,37.8221253 100.97211,37.8864213 L100.97211,37.8864213 Z" id="Fill-85"></path>
                                <path d="M54.379844,40.070104 C55.3693468,42.2180667 56.4468584,44.7827627 56.9344739,47.5260587 C57.0985982,48.485736 57.1461705,49.45732 57.081948,50.4955813 L57.020104,51.521936 L57.854997,52.1196507 C60.0028844,53.657992 62.5289711,54.472408 65.3785492,54.472408 C68.763315,54.472408 71.9411416,53.143624 74.3245116,50.7313333 C76.705503,48.321424 77.9994682,45.1471067 77.963789,41.7941893 C77.890052,34.9026107 72.1956532,29.2874267 65.2667544,29.2779013 C60.1884162,29.2850453 55.6095867,32.2926693 53.6067948,36.941032 L53.273789,37.7102027 L53.8232486,38.877056 C54.0087803,39.2675947 54.1943121,39.6581333 54.379844,40.070104 L54.379844,40.070104 Z M65.2667544,32.9880187 C70.1714538,32.997544 74.2032024,36.9648453 74.2555318,41.8322907 C74.2816966,44.1874293 73.3706879,46.42112 71.6890087,48.121392 C70.0073295,49.8240453 67.7666763,50.7622907 65.4736936,50.764672 L65.1597167,50.7622907 C63.6255116,50.7622907 62.1412572,50.3693707 60.8163699,49.6168693 C60.8163699,48.685768 60.7402544,47.7737173 60.5880231,46.892624 L60.5856445,46.8830987 C60.0242919,43.7230693 58.8349855,40.8797573 57.7527167,38.5317627 C57.6266502,38.248384 57.4958265,37.9673867 57.3626243,37.6863893 C58.9206156,34.81212 61.9438323,32.9951627 65.2667544,32.9880187 L65.2667544,32.9880187 Z" id="Fill-86"></path>
                                <path d="M16.3172833,53.615128 L12.6114046,53.615128 C12.6114046,62.337952 19.6996705,69.431944 28.4101502,69.431944 L28.4101502,65.7218267 C21.7428988,65.7218267 16.3172833,60.2900053 16.3172833,53.615128" id="Fill-87"></path>
                            </g>
                            <g id="summary" transform="translate(733.869206, 0.000000)">
                                <path d="M79.4046473,9.76287467 C72.8372975,3.12609867 61.5531589,0.035128 43.8895808,0.035128 C26.2260027,0.035128 14.9394854,3.12609867 8.37451434,9.76287467 C0.646401624,17.573648 0.755817809,29.1921733 0.874748444,41.49176 C0.889020121,43.049152 0.903291797,44.6303573 0.903291797,46.228232 L0.903291797,48.3309493 L5.50590741,48.3309493 L5.50590741,50.107424 L5.729497,50.521776 C6.30036406,51.5743253 7.53486406,52.2530053 8.8716444,52.2530053 L10.5224016,52.2530053 L10.5224016,58.4182773 L10.5771097,58.5182933 L10.5771097,78.712 C10.5771097,79.92648 11.300208,81.2147813 11.8758323,81.9887147 C12.6679103,84.3105147 17.3062051,92.1832027 43.6445837,92.1832027 L43.8895808,92.1808213 L44.1321993,92.1832027 C70.470578,92.1832027 75.1088728,84.3105147 75.9033294,81.9887147 C76.4789537,81.2147813 77.1996732,79.92648 77.1996732,78.712 L77.1996732,64.038224 L77.25676,64.0977573 L77.25676,58.687368 L77.1996732,58.6040213 L77.1996732,52.2530053 L78.9075172,52.2530053 C80.2442975,52.2530053 81.476419,51.5743253 82.047286,50.521776 L82.2732543,50.107424 L82.2732543,48.3309493 L86.8734912,48.3309493 L86.8734912,46.228232 C86.8734912,44.6303573 86.8901415,43.049152 86.9044132,41.49176 C87.0209652,29.1921733 87.13276,17.573648 79.4046473,9.76287467 L79.4046473,9.76287467 Z M9.21178601,48.5262187 L9.21178601,44.392224 L14.2211443,44.392224 L14.2211443,44.3469787 L14.2282802,44.3588853 L14.2282802,43.8540427 C20.7266501,55.8916827 30.0032398,60.9353467 40.9995664,58.1134667 C53.9082975,54.8057947 61.94563,52.9531173 67.5734276,55.008208 C63.6558525,55.7249893 59.3291559,58.2182453 54.6599392,60.9067707 C49.495971,63.881056 43.6398264,67.2554053 36.9892254,69.1985733 C27.9909334,71.8370907 20.3508294,67.9055093 14.285367,57.522896 L14.285367,48.542888 L9.21178601,48.5262187 L9.21178601,48.5262187 Z M72.4900202,25.0296027 L72.3996328,25.5296827 C72.3853612,25.6058853 69.8545172,33.2094827 44.1321993,33.2094827 L43.6445837,33.2094827 C17.7676559,33.2094827 15.384286,25.532064 15.3771501,25.5296827 L15.2891415,25.0296027 L15.0607947,24.767656 L15.3248206,24.4628453 L15.4199652,23.9794347 C15.4366155,23.903232 18.1101762,16.2686773 43.8895808,16.2686773 L43.9228814,16.2686773 C69.8354883,16.2686773 72.349682,23.974672 72.3568178,23.9794347 L72.4519623,24.4628453 L72.7159883,24.767656 L72.4900202,25.0296027 L72.4900202,25.0296027 Z M72.8206473,79.9098107 L72.5256993,80.3098747 L72.4162831,80.7170827 C72.3948756,80.7956667 70.009127,88.4730853 44.1321993,88.4730853 L43.8895808,88.470704 L43.6445837,88.4730853 C17.7676559,88.4730853 15.384286,80.7956667 15.3771501,80.790904 L15.2891415,80.2932053 L14.9561357,79.9098107 C14.6088583,79.5073653 14.3091531,78.8858373 14.285367,78.712 L14.285367,64.0763253 C19.2376386,70.4201973 25.1151907,73.7159627 31.684919,73.7135813 C33.7352831,73.7135813 35.854627,73.3992453 38.0286791,72.761048 C45.1050519,70.6940507 51.1633786,67.203016 56.5104999,64.123952 C65.0425837,59.20888 69.8426242,56.7251493 73.4937947,60.1066427 L73.4937947,78.6786613 C73.46763,78.8858373 73.1679248,79.5073653 72.8206473,79.9098107 L72.8206473,79.9098107 Z M78.5649969,48.542888 L73.4937947,48.542888 L73.4937947,54.2747573 C66.0416011,47.892784 55.2545923,50.628936 39.903026,54.5628987 C26.0452282,58.1134667 18.3409017,45.9234213 14.285367,34.862128 L14.2829883,30.1137493 C14.5589074,30.3637893 14.8752629,30.618592 15.213026,30.8733947 C15.2986559,30.940072 15.3866646,31.004368 15.4770519,31.068664 C15.795786,31.3020347 16.1406849,31.5354053 16.5188843,31.7663947 C16.564078,31.7949707 16.6045144,31.825928 16.6520866,31.854504 C17.0707224,32.1069253 17.5345519,32.3593467 18.0293033,32.6093867 C18.1553698,32.6736827 18.2885722,32.7355973 18.4193959,32.7998933 C18.8523033,33.0094507 19.3137543,33.2166267 19.806127,33.41904 C19.9203005,33.4642853 20.0225808,33.511912 20.1391328,33.5595387 C20.7361646,33.7952907 21.3783901,34.0238987 22.0634306,34.247744 C22.2251762,34.3001333 22.3964363,34.3501413 22.5605606,34.4001493 C23.1433206,34.5811307 23.7593814,34.754968 24.406364,34.9216613 C24.5918959,34.969288 24.7726704,35.019296 24.965338,35.0669227 C25.7716877,35.262192 26.6232311,35.447936 27.5318612,35.6217733 C27.7102571,35.655112 27.9053033,35.683688 28.0884565,35.7170267 C28.8662629,35.8575253 29.6845057,35.9861173 30.5384276,36.105184 C30.8024537,36.140904 31.0617224,36.1790053 31.3328843,36.212344 C32.3842311,36.34808 33.4831501,36.4671467 34.6510491,36.5671627 C34.8032802,36.5790693 34.9697831,36.5885947 35.1243929,36.6005013 C36.1709826,36.6814667 37.2722802,36.748144 38.4116357,36.798152 C38.7589132,36.81244 39.103812,36.8291093 39.4582254,36.841016 C40.7950057,36.8862613 42.1746011,36.9196 43.6445837,36.9196 L44.1321993,36.9196 C45.602182,36.9196 46.9817774,36.8862613 48.3185577,36.841016 C48.672971,36.8291093 49.0202485,36.81244 49.3651473,36.798152 C50.50926,36.748144 51.6105577,36.6814667 52.6571473,36.6005013 C52.8093786,36.5862133 52.9735027,36.5790693 53.1233554,36.5671627 C54.2936328,36.4671467 55.3925519,36.34808 56.4462774,36.212344 C56.7150606,36.1790053 56.9743294,36.140904 57.2383554,36.105184 C58.0922774,35.9861173 58.9128987,35.8575253 59.6930837,35.7170267 C59.8738583,35.683688 60.066526,35.655112 60.2449218,35.6217733 C61.1535519,35.447936 62.0074738,35.262192 62.8162023,35.0669227 C63.0041126,35.019296 63.1825085,34.969288 63.3656617,34.9240427 C64.0174017,34.754968 64.6382196,34.5787493 65.2257369,34.397768 C65.3851039,34.34776 65.5539854,34.3001333 65.7085953,34.2501253 C66.3960144,34.02628 67.0429969,33.7952907 67.6400288,33.5571573 C67.7518236,33.5142933 67.8517254,33.4666667 67.9611415,33.4238027 C68.4606501,33.2166267 68.9292369,33.0070693 69.3692802,32.7951307 C69.4929681,32.733216 69.6214132,32.6736827 69.7427224,32.6141493 C70.2398525,32.361728 70.7084392,32.1069253 71.1294537,31.8521227 C71.1722686,31.825928 71.2055692,31.8021147 71.2460057,31.77592 C71.6289623,31.540168 71.9786184,31.3020347 72.3044883,31.0662827 C72.3924969,31.004368 72.478127,30.940072 72.5613786,30.8781573 C72.8991415,30.6209733 73.2178756,30.3661707 73.4937947,30.1137493 L73.5056877,39.09852 L73.4937947,39.09852 L73.5580172,44.392224 L78.5649969,44.413656 L78.5649969,48.542888 L78.5649969,48.542888 Z M83.1961559,41.4536587 C83.1866415,42.5014453 83.177127,43.556376 83.1723698,44.6184507 L82.2732543,44.6184507 L82.2732543,42.784824 L82.0401501,42.363328 C81.4740403,41.341736 80.2442975,40.6821067 78.9075172,40.6821067 L77.2139449,40.6821067 L77.1996732,26.025 C77.1996732,25.6582747 77.1164218,25.2629733 76.9832196,24.8510027 L77.0379276,24.7438427 L76.5883698,23.8913253 L74.9185837,20.7360587 L74.8281965,20.9122773 C72.4424479,17.7284347 65.2804449,12.55856 43.9228814,12.55856 L43.8562802,12.55856 C22.4987166,12.55856 15.3367138,17.7284347 12.9485866,20.9146587 L12.8581993,20.7360587 L11.1907918,23.888944 L11.1884132,23.8913253 L10.7388554,24.7438427 L10.7935635,24.8510027 C10.7792918,24.8986293 10.7459912,24.9534 10.7340982,25.0010267 L10.5224016,24.410456 L10.5224016,38.791328 L10.5652167,38.8580053 L10.5652167,40.6821067 L8.8716444,40.6821067 C7.53248544,40.6821067 6.30274267,41.341736 5.73663284,42.363328 L5.50590741,42.784824 L5.50590741,44.6184507 L4.60679179,44.6184507 C4.59965595,43.556376 4.59014151,42.5014453 4.58062705,41.45604 C4.46645364,29.4517387 4.36893053,19.0857947 11.0076386,12.3751973 C16.7519883,6.56950667 27.508075,3.74762667 43.8895808,3.74762667 C60.2710866,3.74762667 71.0271732,6.56950667 76.771523,12.3751973 C83.4102311,19.0857947 83.3103294,29.4517387 83.1961559,41.4536587 L83.1961559,41.4536587 Z" id="Fill-88"></path>
                            </g>
                        </g>
                    </g>
                </g>
            </g>
        </g>
    </g>
</svg>