<?xml version="1.0" encoding="utf-8"?>
<!-- Generator: Adobe Illustrator 17.0.0, SVG Export Plug-In . SVG Version: 6.00 Build 0)  -->
<!DOCTYPE svg PUBLIC "-//W3C//DTD SVG 1.1//EN" "http://www.w3.org/Graphics/SVG/1.1/DTD/svg11.dtd">
<svg version="1.1" id="Layer_1" xmlns="http://www.w3.org/2000/svg" xmlns:xlink="http://www.w3.org/1999/xlink" x="0px" y="0px"
	 width="585.952px" height="147.169px" viewBox="0 0 585.952 147.169" enable-background="new 0 0 585.952 147.169"
	 xml:space="preserve">
<g>
	<path fill="none" stroke="#FFFFFF" stroke-width="2.5" stroke-miterlimit="10" d="M7.865,76.437
		c0-24.374,86.348-44.215,192.864-44.215c47.468,0,90.931,3.932,124.532,10.451"/>
	<path fill="none" stroke="#FFFFFF" stroke-width="2.5" stroke-miterlimit="10" d="M249.385,26.517
		c39.667,8.11,124.563,36.384,124.563,49.92c0,24.419-81.951,44.215-183.041,44.215S7.865,100.856,7.865,76.437"/>
</g>
<g>
	<path fill="#FFFFFF" d="M385.444,72.155h6.48v3.189h-6.48V72.155z"/>
	<path fill="#FFFFFF" d="M413.132,79.622c-1.494,0.759-2.709,0.911-3.721,0.911c-3.114,0-5.215-1.063-6.632-2.456
		c-1.519-1.467-2.633-3.695-2.633-6.404c0-2.658,1.115-4.885,2.633-6.353c1.493-1.444,3.67-2.43,6.303-2.43
		c1.113,0,2.404,0.227,4.05,0.936v4.506c-0.861-0.911-2.151-1.798-3.949-1.798c-1.418,0-2.557,0.456-3.442,1.317
		c-0.937,0.911-1.595,2.278-1.595,3.898c0,1.746,0.709,2.986,1.468,3.721c0.355,0.354,1.569,1.417,3.646,1.417
		c1.012,0,2.378-0.277,3.872-1.746V79.622z"/>
	<path fill="#FFFFFF" d="M426.823,78.711c-1.012,1.012-2.735,1.822-4.936,1.822s-3.923-0.81-4.935-1.822
		c-1.139-1.139-1.696-2.759-1.696-4.202c0-1.444,0.557-3.064,1.696-4.203c1.012-1.012,2.733-1.822,4.935-1.822
		s3.924,0.81,4.936,1.822c1.139,1.139,1.695,2.759,1.695,4.203C428.518,75.952,427.962,77.572,426.823,78.711z M419.836,72.383
		c-0.531,0.531-0.835,1.214-0.835,2.127c0,1.037,0.404,1.695,0.835,2.126c0.456,0.456,1.115,0.81,2.076,0.81
		c0.81,0,1.493-0.279,2.024-0.81c0.531-0.531,0.836-1.214,0.836-2.126s-0.305-1.595-0.836-2.127s-1.214-0.81-2.05-0.81
		C421.052,71.573,420.368,71.851,419.836,72.383z"/>
	<path fill="#FFFFFF" d="M430.795,68.864h3.644v1.317c0.937-1.418,2.304-1.595,3.165-1.595c0.481,0,1.366,0.051,2.125,0.507
		c0.582,0.329,1.064,0.885,1.367,1.569c0.279-0.456,0.709-0.988,1.442-1.444c0.785-0.481,1.519-0.632,2.405-0.632
		c1.366,0,2.481,0.406,3.164,1.064c1.089,1.037,1.165,2.556,1.165,3.366v7.138h-3.646v-5.721c0-0.582,0-1.595-0.481-2.202
		c-0.303-0.38-0.784-0.608-1.317-0.608c-0.607,0-1.113,0.279-1.417,0.683c-0.482,0.608-0.557,1.494-0.557,2.228v5.62h-3.646v-5.872
		c0-0.759-0.025-1.646-0.582-2.202c-0.38-0.38-0.835-0.456-1.214-0.456c-0.481,0-0.911,0.127-1.266,0.456
		c-0.683,0.657-0.709,1.923-0.709,2.303v5.771h-3.644v-11.29H430.795z"/>
	<path fill="#FFFFFF" d="M452.129,68.864h3.644v1.317c0.937-1.418,2.304-1.595,3.165-1.595c0.481,0,1.366,0.051,2.125,0.507
		c0.582,0.329,1.064,0.885,1.367,1.569c0.279-0.456,0.709-0.988,1.442-1.444c0.785-0.481,1.519-0.632,2.405-0.632
		c1.366,0,2.481,0.406,3.164,1.064c1.089,1.037,1.165,2.556,1.165,3.366v7.138h-3.646v-5.721c0-0.582,0-1.595-0.481-2.202
		c-0.303-0.38-0.784-0.608-1.317-0.608c-0.607,0-1.113,0.279-1.417,0.683c-0.482,0.608-0.557,1.494-0.557,2.228v5.62h-3.646v-5.872
		c0-0.759-0.025-1.646-0.582-2.202c-0.38-0.38-0.835-0.456-1.214-0.456c-0.481,0-0.911,0.127-1.266,0.456
		c-0.683,0.657-0.709,1.923-0.709,2.303v5.771h-3.644v-11.29H452.129z"/>
	<path fill="#FFFFFF" d="M475.539,61.929c1.19,0,2.127,0.936,2.127,2.125c0,1.19-0.937,2.127-2.127,2.127s-2.125-0.937-2.125-2.127
		C473.414,62.865,474.35,61.929,475.539,61.929z M477.363,68.864v11.29h-3.646v-11.29H477.363z"/>
	<path fill="#FFFFFF" d="M480.449,68.864h3.644v1.341c1.115-1.418,2.43-1.645,3.494-1.645c0.986,0,2.277,0.176,3.24,1.139
		c1.063,1.063,1.138,2.404,1.138,3.315v7.138h-3.644v-5.797c0-0.734-0.026-1.671-0.608-2.252c-0.279-0.279-0.734-0.507-1.392-0.507
		c-0.759,0-1.24,0.305-1.519,0.608c-0.608,0.608-0.709,1.418-0.709,2.151v5.797h-3.644L480.449,68.864L480.449,68.864z"/>
	<path fill="#FFFFFF" d="M503.379,68.864h3.644v10.607c0,1.594-0.075,3.392-1.392,4.809c-1.392,1.493-3.519,1.671-4.759,1.671
		c-1.493,0-3.291-0.228-4.708-1.444c-0.708-0.607-1.442-1.569-1.695-2.986h3.974c0.152,0.582,0.507,0.911,0.81,1.113
		c0.43,0.279,1.038,0.38,1.569,0.38c1.038,0,1.569-0.38,1.822-0.608c0.709-0.683,0.735-1.873,0.735-2.354v-1.291
		c-0.43,0.709-1.291,1.695-3.367,1.695c-1.746,0-3.088-0.556-4.125-1.594c-0.912-0.937-1.646-2.303-1.646-4.252
		c0-1.925,0.709-3.519,1.671-4.506c0.683-0.709,2-1.62,4.101-1.62c2.05,0,2.961,1.089,3.367,1.696L503.379,68.864L503.379,68.864z
		 M498.848,72.383c-0.557,0.531-0.861,1.418-0.861,2.101c0,0.734,0.279,1.493,0.784,2.026c0.507,0.531,1.19,0.809,2.05,0.809
		c0.962,0,1.595-0.378,1.975-0.734c0.556-0.531,0.885-1.317,0.885-2.151c0-0.886-0.38-1.62-0.861-2.076
		c-0.531-0.481-1.315-0.708-1.974-0.708C500.038,71.649,499.303,71.952,498.848,72.383z"/>
	<path fill="#FFFFFF" d="M522.664,71.75c-0.557-0.329-1.291-0.634-2-0.634c-0.38,0-0.81,0.101-1.038,0.329
		c-0.127,0.127-0.228,0.329-0.228,0.507c0,0.253,0.178,0.404,0.355,0.505c0.253,0.153,0.633,0.228,1.089,0.38l0.962,0.305
		c0.633,0.202,1.291,0.455,1.873,0.988c0.658,0.607,0.886,1.291,0.886,2.151c0,1.493-0.658,2.455-1.165,2.961
		c-1.113,1.113-2.481,1.291-3.67,1.291c-1.519,0-3.164-0.329-4.632-1.62l1.544-2.456c0.355,0.305,0.861,0.658,1.24,0.836
		c0.507,0.253,1.038,0.354,1.519,0.354c0.228,0,0.81,0,1.139-0.253c0.228-0.178,0.38-0.455,0.38-0.734
		c0-0.203-0.075-0.456-0.404-0.658c-0.254-0.152-0.583-0.253-1.115-0.406l-0.911-0.277c-0.658-0.203-1.341-0.557-1.822-1.038
		c-0.531-0.557-0.81-1.19-0.81-2.05c0-1.089,0.43-2,1.089-2.608c1.012-0.937,2.38-1.139,3.416-1.139c1.671,0,2.836,0.43,3.747,0.962
		L522.664,71.75z"/>
	<path fill="#FFFFFF" d="M537.747,78.711c-1.012,1.012-2.735,1.822-4.936,1.822c-2.202,0-3.923-0.81-4.935-1.822
		c-1.139-1.139-1.696-2.759-1.696-4.202c0-1.444,0.557-3.064,1.696-4.203c1.012-1.012,2.733-1.822,4.935-1.822
		s3.924,0.81,4.936,1.822c1.139,1.139,1.695,2.759,1.695,4.203C539.443,75.952,538.886,77.572,537.747,78.711z M530.761,72.383
		c-0.531,0.531-0.835,1.214-0.835,2.127c0,1.037,0.404,1.695,0.835,2.126c0.456,0.456,1.115,0.81,2.076,0.81
		c0.81,0,1.493-0.279,2.024-0.81s0.836-1.214,0.836-2.126s-0.305-1.595-0.836-2.127s-1.214-0.81-2.05-0.81
		C531.976,71.573,531.292,71.851,530.761,72.383z"/>
	<path fill="#FFFFFF" d="M552.731,78.711c-1.012,1.012-2.735,1.822-4.936,1.822c-2.202,0-3.923-0.81-4.935-1.822
		c-1.139-1.139-1.696-2.759-1.696-4.202c0-1.444,0.557-3.064,1.696-4.203c1.012-1.012,2.733-1.822,4.935-1.822
		s3.924,0.81,4.936,1.822c1.139,1.139,1.695,2.759,1.695,4.203C554.426,75.952,553.87,77.572,552.731,78.711z M545.744,72.383
		c-0.531,0.531-0.835,1.214-0.835,2.127c0,1.037,0.404,1.695,0.835,2.126c0.456,0.456,1.115,0.81,2.076,0.81
		c0.81,0,1.493-0.279,2.024-0.81s0.836-1.214,0.836-2.126s-0.305-1.595-0.836-2.127s-1.214-0.81-2.05-0.81
		C546.959,71.573,546.275,71.851,545.744,72.383z"/>
	<path fill="#FFFFFF" d="M556.702,68.864h3.644v1.341c1.115-1.418,2.43-1.645,3.494-1.645c0.986,0,2.277,0.176,3.24,1.139
		c1.063,1.063,1.138,2.404,1.138,3.315v7.138h-3.644v-5.797c0-0.734-0.026-1.671-0.608-2.252c-0.279-0.279-0.734-0.507-1.392-0.507
		c-0.759,0-1.24,0.305-1.519,0.608c-0.608,0.608-0.709,1.418-0.709,2.151v5.797h-3.644L556.702,68.864L556.702,68.864z"/>
</g>
</svg>
