<?xml version="1.0" encoding="utf-8"?>
<!-- Generator: Adobe Illustrator 20.0.0, SVG Export Plug-In . SVG Version: 6.00 Build 0)  -->
<svg version="1.1" id="Layer_1" xmlns:sketch="http://www.bohemiancoding.com/sketch/ns"
	 xmlns="http://www.w3.org/2000/svg" xmlns:xlink="http://www.w3.org/1999/xlink" x="0px" y="0px" viewBox="0 0 324.8 90.2"
	 style="enable-background:new 0 0 324.8 90.2;" xml:space="preserve">
<style type="text/css">
	.st0{opacity:0.9;}
	.st1{fill:#FFFFFF;}
</style>
<title>Imported Layers</title>
<desc>Created with Sketch.</desc>
<g id="Welcome" sketch:type="MSPage" class="st0">
	
		<g id="Imported-Layers" transform="translate(232.000000, 130.000000) rotate(3.000000) translate(-232.000000, -130.000000) translate(85.000000, 108.000000)" sketch:type="MSLayerGroup">
		<path id="Fill-1" sketch:type="MSShapeGroup" class="st1" d="M211.1-69.3c0,0,0-0.2,0.1-0.2c1.5-0.3,2.8-0.8,4.2-1.5
			c0.1-0.2,0.3,0,0.5,0c0.2,0.4,0.1,0.4-0.3,0.6c-1.2,0.5-2.4,0.8-3.8,1.1c0,0.2,0.1,0.2,0.2,0.4c-1.3,0.5-2.8,1-4.2,1.5
			c-0.3-0.4-0.4-0.7-1-0.5c-0.6,0.2-6.8,1.5-7.6,1.7c1,0.3,7-1.3,8-1.4c-0.4,0.2-0.8,0.4-1,0.7c0.2,0.2,0.4,0.5,0.6,0.7
			c0.7-0.1,1.4-0.3,2.1-0.4c-0.2-0.2-0.3-0.4-0.5-0.7c1.1-0.5,1.2-0.5,1.3,0.3c0.3,0,0.6,0,0.8-0.1c0.6-0.2,1.3-0.5,2-0.5
			c0.6-0.2,1.3-0.5,1.9-0.9c0.3,0,0.5-0.4,0.8-0.1l0-0.2c-0.3,0.4-0.8,0.6-1.5,0.7l0,0c-0.4,0-0.7,0.2-1.1,0.5
			c-0.8,0.3-1.6,0.7-2.5,0.8c-0.3,0-0.4,0.2-0.7,0.4c0.3,1.1,0.3,0.9-0.8,1.2c-0.6,0.2-1.3,0.5-1.8,0.9c0.2,0,0.5,0,0.7-0.1
			c0,0,0,0.2,0.1,0.2c-0.2,0-0.4,0-0.5,0.2c-2.4,0.6-10.2,2.3-12.6,2.9c-0.5,0.2-1.1,0.5-1.7,0.7c-0.2,0-0.5,0.2-0.7,0.1
			c-0.7-0.3-1.2-0.1-1.6,0.1c-0.7,0.2-1.3,0.9-2.2,0.2c-0.2-0.2-0.7-0.1-1.2-0.1c0.8-0.6,2.3-0.4,2.4-1.3c-1.1-0.1-2.1,0-3,0.4
			c-0.2,0-0.5,0-0.7,0.1c-0.6,0-1.2-0.1-1.8-0.2c0,0.2,0.1,0.4,0,0.6c-0.5,0-9.6,0-10.1-0.2c-0.3-0.2-0.7,0.1-1,0.3
			c-0.1-0.2-0.2-0.4-0.6-0.7c-0.3,0.4-0.7,0.4-1,0.7c-0.3,0.2-0.2,0.2-0.7,0.1c-0.1,0-0.2-0.2-0.3-0.2c-0.9,0.1-1.9,0.1-2.8,0.4
			c-0.2,0-0.3,0.2-0.4,0.2c-0.2,0-7.8,1.7-8.1,1.8c-0.5,0-1.2,0.3-1.5,0.1c-1.1-0.5-2,0-3.3,0.1c0.7,0.5,1.2,0.7,1.6,1
			c1.4-0.1,10-1.9,11.5-1.8c0.2,0,0.4,0,0.6,0c0.6,0,1-0.5,1.6,0.1c0.1,0.2,0.7-0.1,1.1-0.1l0,0c0.1,0.2,0.3,0.4,0.5,0.5l1.2,0.1
			l-0.1-0.2c0.2,0,0.3-0.4,0.6-0.2c0.7-0.1,1.5-0.1,2.2-0.2c-0.8-0.1-1.6-0.1-2.4-0.2c1.1-0.5,10.9-0.3,12.3-0.4
			c-0.3,0.2-9.1-0.1-9.4,0.1c0.4,0,9.3,0.4,9.8,0.4c-0.5,0.2-9.5,0-9.8,0.2c0.3,0.2,9.1,0.6,9.4,0.6c-0.6,0.4-10.2-0.2-10.8,0.3
			c-0.1,0.2-0.1,0.6-0.3,0.8c0.8-0.3,10.3,0.5,11.1,0.3c0.8-0.3,1.7-0.3,2.5-0.4c-0.5,0.2-1.1,0.5-1.7,0.7
			c-0.7,0.1-10.1-0.2-10.7-0.1c-0.7,0.1-0.7,0.1-0.4,0.8c-0.3,0-0.6,0-0.9,0.3c0.1,0,0.2,0.2,0.2,0.2c0.3,0,0.7-0.1,0.9-0.1
			c1.4,0.3,11.2,0.1,12.6,0c-0.2-0.2-0.3-0.4-0.5-0.5c0.3,0,0.7-0.1,0.7-0.1c0.4,0.7,1.1,0.5,1.7,0.2c0,0,0.1,0,0.2,0l0.1,0.8
			c0.2,0,0.5,0,0.7-0.1l0,0.2c-0.2,0-0.7,0.1-0.3,0.6l0,0.2c-0.6,0-1.1,0.3-1.7,0.3c-0.2,0-0.5-0.2-0.7-0.1c0-0.2,0-0.2,0-0.2
			c0.4,0,0.7-0.1,1.1-0.1c0,0,0,0,0-0.2c-1.2-0.1-2.4-0.2-3.6-0.3c-0.9,0.1-10.6,0.1-11.5,0.1c-0.2,0-0.4,0.2-0.7,0.1
			c-0.9-0.3-1.7-0.1-2.6,0c-0.6,0-1,0.1-1.6,0.1c-0.4,0-0.8,0.1-0.9,0.4c-1.2-0.1-9.6,1.1-10.7,1c-0.4,0-0.7,0.1-1.2,0.1
			c0.1,0.2,0.2,0.4,0.3,0.4c-0.2,0.4-0.6,0.2-1,0.3c-1.2-0.1-2.5-0.2-3.7-0.1c-1.4-0.1-2.8,0.2-4.2,0.1c-0.7,0.1-1.5,0.1-2.1-0.6
			c0.2,0,0.3,0,0.6-0.2l-2,0c0.1,0,0.1,0.2,0.2,0.2s0.2,0,0.3,0c-0.2,0.2-0.3,0.4-0.5,0.8c1.5,0.1,2.7,0,3.9,0.1
			c1.2,0.1,2.5,0.2,3.6,0.3c0,0.2,0,0.2,0,0.2l-1.2-0.1c-0.7,0.1-1.5-0.1-2.2,0c-0.7,0.1-1.3-0.1-1.9,0c-0.9-0.1-1.8-0.4-2.6,0
			c-0.2,0-0.5,0-0.7,0.1c-0.3,0-0.6,0-0.9,0.1c0.2,0,0.3,0.2,0.5,0.2c0.7-0.1,1.3,0.1,2,0c0.8-0.1,1.8,0.1,2.7,0
			c1.6,0.1,3.3-0.1,5,0.2c0.6,0.1,1.2-0.1,1.8-0.1c0.8-0.1,1.6,0.1,2.5,0c0.3,0,0.7-0.1,1.1-0.3c-0.5-0.2-0.8-0.3-1.2-0.5l0,0
			c0.3,0,0.6,0,0.9,0.1c0.8,0.1,1.4,0.1,1.7-0.7c0.2,0.4,0.2,0.4,0.4,0.5c-0.7,0.1-1.2,0.5-1.5,0.9c-0.1,0.2-0.3,0.2-0.5,0.2
			c-0.7,0.1-1.3,0.3-2.1,0.4c-0.3-0.6-0.9-0.7-1.5-0.5c-0.4,0-0.8,0.1-1.3,0.1c0.6,0,1.2,0.1,1.7,0.1c-0.7,0.4-1.5,0.7-2.4,0.4
			c-1.8-0.2-3.6-0.3-5.4-0.2c-1.5,0.1-3-0.2-4.3,0.1c-0.4,0-0.7,0.1-1.2-0.1c0.1,0.2,0.1,0.2,0.2,0.2c1.9,0,3.8,0.1,5.7,0.3
			c0.1,0,0.2,0,0.2,0c1.2,0.5,2.4,0.4,3.7,0.5c-0.2,0-0.4,0-0.6,0c-1.7-0.1-3.5-0.1-5.2-0.2c-2.5,0-4.9,0-7.5,0
			c-0.8,0.1-1.7-0.1-2.6-0.2c-0.7,0.1-1.4-0.1-2,0.5c0.9-0.1,1.7,0.1,2.6,0.2c-0.3,0.2-1.1-0.1-1.1,0.5c0,0-0.2,0-0.3,0
			c-1-0.3-1.9,0.1-2.8,0c-0.9,0.1-20.4,0-21.4,0.1c-0.3,0-0.6,0-0.9,0.1s-0.8-0.1-1.2-0.1c-0.9,0.1-2,0.2-3-0.2
			c-0.3-0.2-0.6,0-1.1,0.1c0.3,0.2,0.6,0.5,0.7,0.5c1.2,0.1,2.3,0.2,3.4,0.1c0.5,0,1,0.1,1.4-0.3c0.1-0.2,0.5,0,0.7-0.1
			c1.2,0.3,20.8,0.3,22,0.2c0.2,0,0.4,0,0.6,0c0.5,0.2,1,0.1,1.4,0.1c0.3,0,0.8,0.1,1.2,0.3c-1,0.1-2,0.2-3,0
			c-2.7,0-23.8-0.1-26.4-0.1c-1.7-0.1,2.1-1.1,0.4-1c-1.9,0.1-3.7,0.3-5.5,0.4c-2.6,0-5,0-7.6,0c-3.5-0.1,1.8-0.1-1.7-0.4
			c-1.2-0.1-2.5-0.2-3.7-0.3c-0.7,0.1-1.3-0.1-1.9,0.3c-0.3,0.4-1.3,0.3-2,0.2c-0.7,0.1-1.3-0.3-1.9-0.2c-3.5-0.1-7-0.2-10.4,0
			c-1.2,0.1-2.4,0.2-3.7,0.1c-3.2,0.2-6.5,0.3-9.7,0.4c-1.3,0.1-2.6,0.2-3.9,0.3c-4.9,0-9.7,0.2-14.6,0.4c-2.2,0.2-4.5,0.2-6.9,0.3
			c-1.4,0.1-2.9,0-4.3,0.1c-0.7,0.1-1.5,0.1-2.2,0.2c-0.5,0-1,0.1-1.5-0.1c-0.6,0-1.3-0.3-1.7,0.3c-0.1,0.2-0.7,0.1-1-0.1
			c-0.6-0.3-1.2-0.1-1.6,0.1c-0.5,0.2-1.1,0.3-1.7,0.1c-0.5-0.2-1-0.1-1.4-0.1c0.2,0,0.5,0.2,0.9,0.1c-1.3,0.5-2.6,0.4-3.9,0.5
			c0,0.2,0,0.2,0,0.2c1.2,0.1,2.2-0.2,3.3-0.1c1.1-0.1,2.2-0.2,3.4-0.3c1.1-0.1,2.3,0,3.4,0.1c0,0.2,0,0.2,0.1,0.2
			c-0.3,0-0.5,0.2-0.9,0.3c-1.8,0.1-3.4,0.5-5.2,0.4c-0.4,0-0.7,0.1-0.7,0.4l5.7-0.1c-1.7,0.1-3.4,0.3-5.1,0.4
			c-0.8,0.1-1.9,0.1-2.6,0.4c-2.4,0.8-5.1,0.4-7.6,0.4c-1.7-0.1-3.4,0.1-5.1,0c-1.9,0-3.9-0.1-5.8-0.1c-1.3-0.1-2.7-0.4-4.1-0.5
			c-2,0-3.9-0.3-5.9-0.3c-1.2-0.1-2.4,0-3.5,0.1c-2,0-4.1-0.1-6.1-0.1c-1.2-0.1-2.4,0-3.6,0.1c-4.2,0.3-8.4,0.6-12.7,0.8
			c-3.8,0.3-7.7,0.4-11.6,0.1c-1.9,0,0.8-0.8-1.1-1.1c-1.7-0.1-3.2-0.5-4.3-1.6c-0.4-0.3-1.2-0.7-1.9-1c-0.6-0.1-0.5-0.3-0.4-0.7
			c-0.6,0-1.2-0.1-1.7-0.1c-0.7,0.1-1.4,0.1-2.1,0.2s-1.3-0.3-2-0.4c-0.3-0.2-5.3,0.6-5.7,0.6c-0.5-0.7-0.9-1.5-1.4-2.2
			c0.8,0.1,6.1-0.7,6.8-0.7c1.2,0.1,1.2,0.1,1.2-0.9c0-0.2,0-0.2-0.1-0.4c-0.7-0.1-1.3-0.5-2.1-0.4c-0.3,0-5.4,0.6-5.7,0.4
			c0.4,0,5.4-0.8,6-0.6c-0.9-0.7-6.8,0.1-7.8-0.5c0.5,0,0.7-0.1,1.1-0.1c0.3-0.8,0.1-1-0.9-1.3c-0.7-0.1-1.6-0.3-1.9-0.8
			c0-0.2-0.4,0-0.7,0.1l0-0.2c-0.1-0.6,0.2-0.8,0.9-1c0.3,0,0.8-0.3,0.7-0.8c-0.2-0.6-0.8-0.9-1.2-1.2c-0.3-0.2-0.7,0.1-0.9,0.6
			c-0.4-0.2-0.8-0.3-1.3-0.5c0.7-0.2,1.3-0.3,2-0.5c0.4,0.3,0.9,0.3,1.5,0.1c0.3,0,0.6,0,0.9-0.1c0.1-0.2,0-0.6,0.1-1
			c-0.4,0-0.9,0.3-1.2-0.3c0.3-0.2,0.7-0.6,1.1-0.8c0.3,0,0.7-0.1,0.8,0.1c0,0.2,4.7-0.5,4.9-0.4c0.1-0.2,0.1-0.4,0.2-0.4
			c0.2,0,0.4,0.2,0.6,0.1c0-0.4,0.1-0.6,0.2-0.8c-0.7-0.5-5.9,0.1-6.6-0.3c-0.2-0.2-0.5-0.2-0.8-0.1c-0.5,0-0.8-0.1-0.7-0.5l0,0
			c0.4-0.2,0.6-0.6,1.1-0.8c0.8-0.3,6.1-1.2,6.8-0.9c0.1,0,0.3,0,0.6,0.1c-0.7-0.9-1.7-1.2-1.7-2.2c-0.3-0.2-5.3,0.6-5.8,0.4
			c-0.1,0.4-0.2,0.6-0.3,0.8c-0.8-0.1-0.9-0.5-0.4-1.3c1.3,0.5,7.3-0.4,8.8-0.5c0-0.6,0.4-1,1.4-0.9c0.7-0.1,1.6-0.1,2.3-0.2
			c0.6,0,1-0.3,1.3-0.5c0.3-0.4,0.8-0.6,1.3-0.9c-0.4-0.3-1-0.9-1.3-1.2c0.1,0,0.2,0,0.2,0c0.6,0.3,1.2,0.9,1.8,1.2
			c0.5,0.3,0.9,0.5,1.4,0.1c0.4-0.2,0.9-0.3,1.4-0.1c2-0.2-0.7,0.4,1.3,0.3c0.7-0.1,1.3-0.1,2.1,0c0.6,0.1,1.2,0.3,1.7,0.2
			c2.7,0,5.3-0.2,8-0.4c0.4,0,0.7-0.1,1.2,0.1c0.7,0.1,1.4,0.3,2.1,0c4.1-0.1,8.1-0.2,12.2-0.4c1.2,0.1,2.4,0,3.7,0.1
			c0-0.2-0.2-0.4-0.2-0.6c0.7-0.1,1.4-0.1,2.2-0.2c0.7-0.1,1.5,0.1,2.2,0c0.4,0,0.7-0.1,1.2,0.1c1.7-0.1,3.4-0.3,5.2,0
			c0.8,0.1,1.6-0.1,2.3-0.2c0.3,0,0.6,0,0.7-0.1c0.9-0.1,1.9,0,2.9,0c1-0.1,2.1,0,3.1,0.1c0.7,0.1,1.5,0.3,2.2,0.4
			c2.8,0,5.7-0.1,8.5-0.1c0.7-0.1,1.5,0.1,2.3,0.2c1.3,0.3,2.4,0.2,3.6-0.1c0.7-0.1,1.4-0.3,2-0.5c-1.6-0.1-3-0.3-4.7-1
			c0.7-0.1,1.3-0.3,1.7-0.3c0.9-0.1,1.9-0.1,2.9-0.2c0.1,0,0.3,0,0.4,0c0.9,0.5,1.7,0.1,2.6,0.2c1.4,0.1,2.7,0,4.2,0.1
			c1.8,0.1,3.5,0.1,5.3,0.2c0.7-0.1,1.3,0.1,2,0c0.9-0.1,1.9,0,2.9,0c0.7-0.1,1.4,0.1,1.8-0.3c0.1-0.2,0.5,0,0.7-0.1
			c1.5-0.1,3-0.2,4.5,0c0.4,0.2,0.8-0.1,1.2,0.1c0.6,0,1.2,0.1,1.6,0.5c0.2,0.2,0.7,0.3,1.1,0.3c1.2,0.1,2.3,0,3.4,0.1
			c1.2,0.1,2.6,0,3.8,0.1c0.1,0.2,0.2,0.4,0.2,0.4c0.1,0.2,0.4,0.2,0.6,0.1c1.8-0.1,3.7-0.1,5.5-0.2c0.2,0,0.5,0,0.7-0.1
			c1.4-0.5,3.1-0.4,4.6-0.5c0.1,0,0.2,0,0.4,0.2c-0.2,0-0.2,0.4-0.3,0.4l9.7,0c-1.1,0.3-2.2,0.2-3.5,0.3c-0.6,0-1.1,0.1-1.9,0.1
			c1.7,0.6,3.1,0.1,4.5,0.4c1.4,0.1,2.8-0.2,4.2-0.1c-0.8,0.4-1.7,0.3-2.6,0.4c-0.9,0.1-1.9,0-2.8,0.2c0,0.2,0,0.2,0,0.2
			c1.6,0.1,3.3-0.1,4.9,0c2.9,0,5.9-0.1,8.8-0.1c0.3,0,0.6,0.1,1,0.1c0.5,0,1,0.1,1.3,0.1c0.8-0.3-6.9-0.6-6.1-0.7
			c1.5,0.1,3,0,4.6,0c1.6-0.1,3.1-0.2,4.7-0.4c2.4,0,4.8-0.4,7.1-0.4c3,0,0.5,0.7,3.5,0.5c1.8-0.1,3.6-0.1,5.5-0.2
			c2.2-0.2,23.1-0.1,25.4,0c2-0.2,4-0.3,6-0.5c0.3,0,0.6,0,0.8-0.1c4.6,0.2,9.1,0.3,13.6,0.5c0.4,0,0.8,0.1,1-0.3
			c0.1-0.2,0.5,0,0.7-0.1c3.3,0.1,14.1-1.3,17.4-1.2c1.2,0.1,10.9,0.3,11.9-0.3c-0.1-0.2-8.8-0.5-8.9-0.6c0.7-0.8,10.3,0.5,11,0.3
			c-0.6,0-1.2-0.1-1.7,0.3c1.8,0.4,3.2-0.1,4.7,0s3,0,4.5-0.2c0.1-0.2,0.1-0.4,0.2-0.6c0.9-0.1,1.8,0.2,2.8,0.4
			c0.7,0.1,1.4-0.1,2.2-0.2c1.4-0.1,8.3-1.6,9.6-1.9c0.2,0,0.4,0,0.7-0.1c-0.3,0.2-0.3,0.4-0.4,0.2c-1.2,0.1-7.7,1.7-8.8,2
			c-1.1,0.3-2.3,0.4-3.4,0.6c-0.3,0-0.6,0-0.9,0.1c-1.2,0.3-2.4,0.4-3.6,0.5c-0.4,0-0.8-0.1-1.3-0.3c-0.6,0.4-1.7,0.1-2.5,0.4
			c-1.3-0.5-2.6-0.2-3.8-0.3c-2.3,0-13.1-0.3-15.3-0.3c-0.4,0-0.7,0.1-1,0.3c2.4,0.2,4.8,0.2,7.1,0.2c-0.9,0.4-2.1,0.2-3,0.4
			c2,0.6,12.6,0.4,14.8,0.8c-0.4,0.2-0.6,0.4-1,0.5c-0.5,0-0.9,0.1-1.3-0.1c-0.8-0.1-10.1-0.8-10.8-0.3c-0.1,0.2-0.5,0-0.7,0.1
			c-0.7,0.1-1.4-0.1-2.1,0.2c1.4,0.1,2.9,0.7,4.2,0.2c0.6-0.2,9.6,0.2,10.1,0.6c-1.2,0.3-10.9-0.1-12.1,0c-1.1,0.1-2.2,0.2-3.5,0.3
			c0.1,0.2,0.2,0.2,0.5,0.2c-0.4,0-0.7,0.1-0.9-0.1c-0.4,0-0.9-0.1-1.2-0.1c0,0.2,0,0.2,0,0.2l1.3,0.1c0.1,0.4,0.2,0.4,0.6,0.3
			c0.5,0,0.9-0.1,1.4,0.1c0,0.6,0,0.6-1.1,0.7c0.1-0.2,0.2,0,0.3-0.2c0.1,0,0.1-0.2,0.3-0.2c-1.2-0.1-2.4,0-3.5-0.1
			c-1.2-0.1-9.6,1.3-10.7,1c0.9-0.3,9.4-1.3,10.4-1.6c-0.2-0.2-7.7,1-7.9,1c-1.2-0.1-2.4-0.2-3.6-0.3c-1-0.1-1.8-0.1-2.3,0.6
			c-0.1,0,0,0.2,0,0.2l-2.3,0l0,0.2c0.2,0,0.4,0.2,0.6,0.1c1.2,0.1,2.4,0.2,3.6,0.3c0.5,0,0.8,0.3,1.4,0.3c0.7-0.1,1.2,0.1,1.9-0.1
			c0.5,0,8.2-1.2,8.7-1.1c0-0.6,0.7-0.2,1.2-0.5c0.5,0,0.8,0.1,0.9,0.7c-0.4,0-0.7,0.1-1.5,0.1c0.7,0.3,1.2,0.5,1.7,0.8l0,0
			c-0.1,0-0.2,0-0.3-0.2c-0.1,0.6-0.7,0.4-1.3,0.5c-0.5,0-8.2,1.4-8.4,1.8c-0.1,0.2-0.5,0.2-0.8,0.4c1.6,0.3,10.4-1.2,11.9-1.3
			s3.1,0,4.6-0.2c1.5-0.1,11.6-0.1,13.3-0.1c1.5-0.1,2.7-0.8,4.3-0.7c0,0.2,0.1,0.4,0.1,0.6c0.5,0,0.8-0.3,1.4-0.1
			c-0.1-0.2-0.2-0.2-0.3-0.2c0.8-0.3,0.8-0.3,1.5-0.1c0.3,0,0.7-0.1,0.8-0.1c0.4-0.6,1.3-0.3,1.9-0.5c0.3,0,0.7,0.1,0.6,0.3
			c-0.2,0.4,0.3,0.6,0.6,0.9c1.2-0.3,7.8-1.6,9-1.8c0.3,0,0.4-0.4,0.6-0.6c1.4,0.3,1.4,0.3,1.9-0.5c0,0.2,0.2,0.4,0.2,0.4
			C209.5-68.8,210.3-69.1,211.1-69.3c-0.4,0.2-0.9,0.4-1.2,0.7c-0.4,0.2-1.2-0.1-1.4,0.7c1.2-0.1,2-0.3,2.8-0.8
			C211.2-69,211-69.1,211.1-69.3L211.1-69.3z M170.9-60.9L170.9-60.9c0.6,0,1.2,0.1,1.7,0.1c0.2,0,0.5,0,0.4-0.2
			c0-0.4,0.4-0.4,0.9-0.4c0.4,0,9.2,0.2,9.6,0.2c0-0.2,0-0.2,0.1-0.2c-0.3-0.2-9.3-0.6-9.4-0.6c-0.7,0.4-1.4,0.3-2.2,0.2
			c-0.2,0-0.4,0-0.6,0c-0.4,0.2-1,0.3-1.6,0.1c-0.5-0.2-0.7,0.1-1,0.3C169.7-61.4,170.2-61.2,170.9-60.9L170.9-60.9z M189.1-62.3
			c0.7-0.1,1.7,0.3,2.2-0.2c0.1,0,0.2,0,0.4,0c1-0.1,2.1-0.2,3.1-0.2c0.4,0,0.7-0.1,1-0.3c0.2,0,0.4,0,0.4-0.2
			c0.4-0.8,0.4-0.8,1.4-0.9c0.2,0,0.4,0,0.5-0.2c-0.3-0.2-0.5-0.2-0.7-0.1c-1.1,0.3-2.3,0.6-3.4,0.8c-0.3,0-0.6,0-0.7,0.1
			c-0.7,0.1-1.3,0.1-1.6,0.7c0,0-0.3,0-0.4,0C190.4-62.8,189.7-62.5,189.1-62.3c-0.1-0.2-0.2-0.2-0.4-0.3c0.3-0.2,0.7-0.2,1.1-0.5
			c-0.5,0-0.9,0.1-1.4,0.3c-0.2,0-0.2,0.4-0.3,0.6c-0.7,0.1-1.5,0.1-1.8,0.9c1-0.1,1.9-0.3,2.9-0.4L189.1-62.3L189.1-62.3
			L189.1-62.3z M184.4-63.7L184.4-63.7c1.1,0.7,2.1,0.4,3.1,0.1c0.4,0,0.7-0.2,1.1-0.1c0.7,0.1,1.2,0.1,1.5-0.5
			c0.1-0.2,0.4-0.2,0.6-0.2c0.4,0.2,0.7,0.3,0.9,0.5c0.4-0.2,0.8-0.3,1.2-0.5c0.2,0.4,0.5,0.2,0.7-0.1c0.5-0.2,1.2-0.5,1.7-0.5
			c1.2-0.1,2.3-0.6,3.4-0.8c-0.3-0.2-0.6-0.3-0.9-0.3c-0.9,0.1-1.7,0.3-2.7,0.4l-0.1-1.1c-0.9,0.3-1.5,0.9-2.6,0.6
			c-0.3,0.4-1,0.1-1.2,0.1c-0.4,0.2-0.9,0.3-1.5,0.3c-1.4,0.5-3.1,0.4-4.6,0.5c-1,0.1-10.8-0.3-11.5,0.1c-0.3-0.2-0.5-0.2-0.7-0.3
			c-0.3,0-0.6,0-0.9,0.1c0.3,0.2,0.4,0.3,0.7,0.5c-1,0.3-0.2,0.8-0.4,1.4c1.1-0.3,10.9,0.5,11.8-0.1
			C184.1-63.4,183.9-63.8,184.4-63.7L184.4-63.7z M154.9-61L154.9-61c-0.7-0.1-1.4-0.1-2.1,0c-1,0.1-2.1,0-3.1,0
			c-0.7,0.1-1.3,0.3-1.7-0.2c-0.1-0.2-0.3-0.2-0.4-0.2c-0.6,0-1.2-0.1-2,0c0.6,0.3,1.1,0.5,1.6,0.8c-0.4,0-0.6,0-0.7,0.1
			c-0.2,0-0.4-0.2-0.6-0.1c0,0.2-0.1,0.2-0.1,0.2c0.4,0.2,0.7,0.3,1.1,0.3c0.7-0.1,1.3-0.1,2-0.2c-0.1-0.4,0.3-0.6,0.7-0.4
			c0.4,0.2,0.8,0.1,1.2,0.3c-0.2,0.2-0.5,0.2-0.6,0.2c-0.1,0.6-0.8,0.4-1.3,0.5c-0.6,0-1,0.1-1.6,0.1c-1.4-0.1-2.9,0-4.3,0.1
			c0.1,0.2,0.3,0.4,0.5,0.3c0.8-0.1,1.8-0.1,2.6-0.2c0.7-0.1,1.4,0.1,2.2,0c0.3,0,0.5,0.3,0.8,0.5c0.6,0.1,1.2,0.1,1.8,0.2
			c0,0.2,0,0.2,0.2,0.4c0.9-0.3,2,0,2.9-0.2c0.1,0,0.3,0,0.5,0c0.9-0.1,1.8,0.1,2.8,0.2c0.1,0,0.3,0,0.5-0.2
			c-0.7,0.1-1.2-0.1-1.8-0.1c-0.5,0-1,0.1-1.7-0.2c1.1-0.1,2.1-0.2,2.9-0.2c-0.2-0.4-0.4-0.5-0.5-0.9c-0.3,0-0.6,0-0.7,0.1
			c-0.1,0.2,0,0.4-0.1,0.6c-0.3,0-0.6,0-0.8,0.1c-1.2-0.1-2.1-0.4-3.1-0.9C152.8-60.7,153.8-60.9,154.9-61L154.9-61z M170.3-57
			c0-0.2,0-0.2,0-0.2c-0.2,0-0.5-0.2-0.7-0.1c-0.5,0.2-1.1,0.1-1.7,0.1c-0.3,0-0.6,0-0.9,0.1c-0.3,0-7.9,1.4-8.1,1.4
			c-0.9-0.3-1.7-0.2-2.6,0c-0.5,0-0.8,0.3-1.3,0.1c0.1-0.4,0.2-0.6,0.4-1c-0.7,0.1-1.2,0.3-1.7,0.3c-0.6,0.2-0.1,0.6-0.3,1.2l2.7,0
			c-0.6,0.8-1.8,0.3-2.5,0.8c0.4,0.5,1.4,0.3,1.9,0.6c0.2,0.2,0.6,0,0.9-0.1c0.3,0,0.6,0,0.7-0.1c0.2,0,0.2-0.4,0.5-0.6
			c0.3,0.6,0.8,0.7,1.3,0.5c0.7-0.1,8.8-1.6,9.6-1.5c0.2,0,0.4,0,0.5,0c0.7,0.5,1.4,0.1,2.1,0c0-0.4,0.2-0.6,0.3-0.8
			c-1-0.3-1.3,0.7-2.3,0.4c-0.8-0.1-9,1.3-9.7,1.3c0.1-0.2,0.1-0.4,0-0.6c-0.4-0.3,7.3-1.9,7.7-1.9c0.7-0.1,1.3-0.1,2-0.2
			C169.6-57,169.9-57,170.3-57L170.3-57z M32.4-46.4c0-0.2,0-0.2,0-0.2c-2.3-0.2-4.6,0-6.7,0.1c-2.3,0-4.5,0.2-6.8,0
			c0,0.2,0,0.2,0,0.2c2.9,0,5.9,0.1,8.9,0.3C29.3-46.2,30.8-46.3,32.4-46.4L32.4-46.4z M193.6-61.7c0,0.2,0.1,0.2,0.1,0.2
			c1.5-0.5,3-0.8,4.7-1.1c1.5-0.5,8.6-1.8,10.2-2.3c-0.1-0.2-0.3-0.4-0.4-0.3c-0.8,0.3-7,1.7-7.8,1.9c-0.7,0.1-1.4,0.3-2.1,0.5
			c-0.6,0.2-1.3,0.5-1.8,0.5C195.2-62.6,194.5-62.1,193.6-61.7L193.6-61.7z M93.2-70.8c0.8,0.5,0.9,0.5,2,0.4c1.2-0.1,2.6,0,3.8-0.1
			c0.2,0,0.4,0,0.7-0.1C98.9-71.2,95.5-71.3,93.2-70.8L93.2-70.8z M138.5-62.6c2.1,0.4,9.3,0.2,10.1,0L138.5-62.6L138.5-62.6z
			 M140.3-67.3l7.3-0.2c-0.2-0.4-0.4-0.5-0.5-0.9c-0.4,0.2-0.8,0.4-1.2,0.5c-1.4,0.1-2.9,0-4.3,0.1
			C141.1-67.6,140.7-67.7,140.3-67.3L140.3-67.3z M135.8-51.5c0.2,0,0.4,0.2,0.5,0.2c0.8-0.1,1.6,0.1,2.4,0.2
			c0.5,0.2,1.1,0.3,1.5-0.1c-0.3-0.6-0.3-0.6-0.7-0.5c-0.3,0-0.7,0.1-0.8,0.1c-0.9-0.5-1.6-0.1-2.5,0C136-51.9,136-51.7,135.8-51.5
			L135.8-51.5z M138.4-60.5c0.7-0.2,1.3-0.5,2.2-0.2c0.4,0.2,0.9-0.1,1.4,0.1c-0.2-0.4-0.3-0.6-0.4-0.7c-1.4,0.1-2.8,0-4.1,0.7
			C137.8-60.8,138.1-60.7,138.4-60.5L138.4-60.5z M29.8-45.5c-2.8-0.2-5.4-0.2-8.4-0.1c0.4,0.2,0.5,0.2,0.5,0.2
			c1.9,0,3.8-0.1,5.7,0.3C28.3-45.2,29.1-45,29.8-45.5L29.8-45.5z M150.8-66.2c0,0.2,0,0.2-0.1,0.2c0.2,0.2,0.4,0.2,0.5,0.2
			c1-0.3,2.1,0,3.1-0.2c0.5,0,0.9-0.3,1.1-0.7c-0.6,0.2-1.2,0.3-1.7,0.3c-0.4,0-0.7,0.1-1.1,0.1C152.1-66.1,151.4-66.1,150.8-66.2
			L150.8-66.2z M136.5-68.4L136.5-68.4c2.2,0.2,4.3,0.1,6.5,0.3c0.3,0,0.5,0,0.7-0.1c-0.7-0.1-1.3-0.3-2-0.4
			c-1.2-0.1-2.2,0.2-3.3,0.3C137.8-68.3,137.2-68.2,136.5-68.4L136.5-68.4z M141.5-59c-1.2-0.7-1.6-0.8-2.8-0.4
			C139.4-58.9,140.1-58.7,141.5-59L141.5-59z M87.4-70.5c-1.2-0.1-2.4-0.2-3.6-0.3c-0.3,0-0.7,0.1-0.8,0.3
			C84.6-69.9,86-70.2,87.4-70.5L87.4-70.5z M171.6-63.8c-0.3-0.2-0.5-0.3-0.7-0.3c-0.4,0-0.8,0.1-1.2,0.1c-0.5,0-0.7,0.2-0.5,0.6
			c0.2,0.4,0.5,0.2,0.9,0.1C170.5-63.5,170.9-63.8,171.6-63.8L171.6-63.8z M166.4-63.8c-1.3-0.3-9.6,1.1-10.2,1.5
			C157.2-62.5,165.6-63.4,166.4-63.8L166.4-63.8z M152-64.4c0.1,0.6,0.7,0.5,1.1,0.5c0.4,0,0.9,0.1,0.7-0.4L152-64.4L152-64.4z
			 M152.4-69.4c0.7,0.7,0.7,0.7,2.3,0.2C153.9-69.3,153.2-69.7,152.4-69.4L152.4-69.4z M151.1-62.6L151.1-62.6l4.1,0.1l0-0.2
			L151.1-62.6L151.1-62.6z M150.1-54.7L150.1-54.7l2.3,0.2l0-0.2L150.1-54.7L150.1-54.7z M86.6-63.4c0,0.2,0.1,0.2,0.1,0.2
			c0.6-0.2,1.4,0.1,2-0.3c-0.7-0.1-1.3-0.1-2,0C86.7-63.6,86.6-63.6,86.6-63.4L86.6-63.4z M151.9-70.9L151.9-70.9l3.3-0.1l0-0.2
			L151.9-70.9L151.9-70.9z M184.2-61.5c1,0.3,1,0.3,1.3-0.5C185-61.8,184.6-61.6,184.2-61.5L184.2-61.5z M173.1-57.3
			c0-0.2,0-0.2-0.1-0.2c-0.5,0-1.1-0.1-1.3,0.5C172.2-57.2,172.6-57.2,173.1-57.3L173.1-57.3z M168.1-60.5L168.1-60.5
			c-0.6,0-1.2-0.1-1.8,0.1l0,0.2C166.9-60.4,167.6-60.3,168.1-60.5L168.1-60.5z M39-47.3c0-0.2,0-0.2,0-0.2c-0.7,0.1-1.4-0.3-2,0.3
			C37.8-47.2,38.4-47.3,39-47.3L39-47.3z M26.9-47.1L26.9-47.1l2.7,0.2l0-0.2L26.9-47.1L26.9-47.1z M144.6-61
			c-0.7-0.5-0.7-0.5-1.4-0.1C143.7-60.9,144.1-60.9,144.6-61L144.6-61z M146.7-65.9c0-0.2,0-0.2,0-0.2c-0.5-0.2-1-0.3-1.4,0.1
			L146.7-65.9L146.7-65.9z M142.2-71.3L142.2-71.3l-2,0l0,0.2L142.2-71.3L142.2-71.3z M137.6-65.8c-0.5-0.2-0.8-0.5-1.4-0.1
			C136.8-65.5,137.1-65.4,137.6-65.8L137.6-65.8z M199.1-65.2c0,0.2,0.1,0.2,0.1,0.2c0.4,0,0.7-0.1,1.1-0.3
			C199.7-65.6,199.4-65.4,199.1-65.2L199.1-65.2z M169.7-56L169.7-56l-1.2-0.1c0,0.2,0,0.2,0,0.2C169-56,169.3-56.2,169.7-56
			L169.7-56z M150.1-58.2c0.7,0.3,0.8,0.3,1.1-0.3C150.9-58.4,150.6-58.2,150.1-58.2L150.1-58.2z M166.6-65.1L166.6-65.1
			c-0.6-0.1-8.4,1.4-9,1.3l0,0.2C158.2-63.7,166-65.1,166.6-65.1L166.6-65.1z M143.7-60.3c0-0.2,0-0.2,0-0.2c-0.4,0-0.7,0.1-1,0.3
			l0,0.2C143.1-60.3,143.4-60.3,143.7-60.3L143.7-60.3z M143.8-53.7C143.9-53.7,143.9-53.7,143.8-53.7l1.3,0.1l0-0.2L143.8-53.7
			L143.8-53.7z M133.8-68.2L133.8-68.2l-1.5-0.1l0,0.2L133.8-68.2L133.8-68.2z M195.7-66.2c0.2,0.2,0.3,0.2,0.4,0.2
			c0.2,0,0.3,0,0.3-0.2c-0.1-0.2-0.2-0.2-0.3-0.2C196-66.5,195.9-66.3,195.7-66.2L195.7-66.2z M149-58.8c0.3,0.2,0.6,0.1,1,0.3
			C149.7-59.1,149.4-58.7,149-58.8L149-58.8z M190.3-60.9c0.1,0.2,0.1,0.2,0.2,0.2c0.2,0,0.3-0.2,0.5-0.4l-0.1-0.2
			C190.6-61.1,190.4-61.1,190.3-60.9L190.3-60.9z M80.7-64.3L80.7-64.3l1.2,0.1l0-0.2L80.7-64.3L80.7-64.3z M80.5-70.2L80.5-70.2
			c0.4,0.2,0.7,0.1,1-0.1l0,0C81.2-70,80.9-70,80.5-70.2L80.5-70.2z M145.2-65.2c0.5,0.2,0.5,0.2,0.9-0.1
			C145.8-65.3,145.5-65.4,145.2-65.2L145.2-65.2z M167.7-63.7c-0.3-0.4-0.5-0.3-1.1-0.3C167.1-63.7,167.4-63.7,167.7-63.7
			L167.7-63.7z M154.5-58.3C154.5-58.3,154.5-58.1,154.5-58.3l0.8,0.1l0-0.2L154.5-58.3L154.5-58.3z M156.4-50.6L156.4-50.6
			l-0.7-0.1l0,0.2C155.9-50.6,156.1-50.6,156.4-50.6L156.4-50.6z M139.3-53.1L139.3-53.1c0.3,0.2,0.5,0.2,0.8,0.1l0-0.2L139.3-53.1
			L139.3-53.1z M145.7-64.3L145.7-64.3c-0.2-0.2-0.5-0.2-0.7-0.1c0,0,0,0,0,0.2C145.3-64.3,145.5-64.3,145.7-64.3L145.7-64.3z
			 M147.4-64.2c-0.1-0.2-0.2-0.2-0.2-0.2c-0.1,0-0.2,0-0.3,0C147-64.2,147.2-64.2,147.4-64.2L147.4-64.2z"/>
		<path id="Fill-2" sketch:type="MSShapeGroup" class="st1" d="M171.8-64c0.9-0.1,10.4,0,11.4-0.1c0.1-0.2,0-0.4,0.2-0.6
			c0.2-0.2,0.6-0.4,0.8-0.3c0.9,0.3,1.2-0.3,1.5-0.5c0,0,0.1-0.2,0.3,0c0.5,0.2,0.9,0.3,1.5,0.5c0.3,0,0.5-0.2,0.9-0.3
			c0.1,0.2,0.2,0.4,0.4,0.5c0.5-0.2,0.9-0.4,1.2-0.7c0.5,0.2,1,0.3,1.5,0.5c-1.3,0.7-3.1,0-4.6,0.5c0.1,0.2,0.2,0.4,0.2,0.4
			c-0.2,0-0.4,0.2-0.9,0.3l3.3-0.1c0.1,0.2,0.2,0.4,0.4,0.5c-0.5-0.5-1-0.3-1.6-0.3c-0.4,0-0.7,0.1-1,0.1c-0.7,0.1-1.5-0.1-2,0.5
			c-0.2,0-0.4,0.2-0.7,0.2c-0.9,0.1-10.6-0.3-11.6-0.1c-0.1,0-0.4-0.2-0.7-0.1C172.3-63.3,172.4-63.9,171.8-64L171.8-64L171.8-64z
			 M173-63.5c0.9,0.3,10.3,0.9,11,0.1C183-63.4,173.8-63.6,173-63.5L173-63.5z M185.8-64.3L185.8-64.3c-0.3-0.2-0.5-0.2-0.8-0.1
			l0,0.2C185.4-64.3,185.6-64.3,185.8-64.3L185.8-64.3z"/>
		<path id="Fill-3" sketch:type="MSShapeGroup" class="st1" d="M79.1-68.7c1.2-0.5,2.7,0,3.9-0.3c1.3-0.3,2.6-0.2,3.9-0.3
			c1.3,0.1,2.7,0.2,4.1,0.3c-0.4,0-0.8,0.3-1.2,0.3c-1.2,0.1-2.5,0.2-3.7,0.5c-1.3,0.1-2.6,0.2-4.1-0.1c-0.5-0.2-0.9,0.1-1.4-0.1
			c-0.5,0-0.9,0.1-1.4-0.1C79.1-68.5,79.1-68.5,79.1-68.7"/>
		<path id="Fill-4" sketch:type="MSShapeGroup" class="st1" d="M172-50.3c0.4,0,0.9,0.1,1.3,0.1c0.9-0.1,1.8-0.1,2.7,0
			c0.3,0,9,0.3,9.4,0.6c-0.2,0-9-0.3-9.2-0.2c-0.7,0.1-1.4-0.1-2.1,0c-0.5,0-1.2-0.1-1.3,0.5c0,0.2-0.8,0.3-0.8,0.3
			c-0.4-0.3-0.9-0.1-1.3-0.1C171.2-49.7,171.6-49.9,172-50.3"/>
		<path id="Fill-5" sketch:type="MSShapeGroup" class="st1" d="M190.6-66.8c0.1-0.4,0.2-0.6,0.4-1c0.7-0.1,1.3-0.1,2.1-0.2l0,0.2
			c-0.4,0-0.7,0.2-1.1,0.3c0,0.2,0,0.2,0,0.2c0.5,0,1-0.1,1.5-0.1C192.5-67,191.7-66.7,190.6-66.8"/>
		<path id="Fill-6" sketch:type="MSShapeGroup" class="st1" d="M219.6-65.4L219.6-65.4c0.3-0.2,0.5-0.6,0.8-0.6
			c1-0.1,1.8-0.5,2.6-0.8c0.2,0,0.4,0,0.7-0.1c-1.3,0.5-2.6,1.2-3.8,1.6C219.7-65,219.6-65.2,219.6-65.4"/>
		<path id="Fill-7" sketch:type="MSShapeGroup" class="st1" d="M77.1-68.8l4.9,0c-0.8,0.3-1.7,0.3-2.7,0.6c-0.3,0-0.9,0.3-1-0.3
			c0,0-0.3,0-0.4,0C77.7-68.6,77.4-68.6,77.1-68.8C77.1-68.6,77.1-68.6,77.1-68.8"/>
		<path id="Fill-8" sketch:type="MSShapeGroup" class="st1" d="M196.9-56.4c-0.6,0-3.1,0.6-3.5,0.8c-0.3,0.2-0.7,0.2-1.2-0.1
			c0.3-0.2,0.5-0.4,0.7-0.4c1.2,0.1,2.4-0.2,3.4-0.6C196.8-56.8,196.8-56.6,196.9-56.4L196.9-56.4"/>
		<path id="Fill-9" sketch:type="MSShapeGroup" class="st1" d="M196.9-64.6c-1.2,0.5-2.3,0.8-3.8,0.7
			C194.2-64.8,195.7-64.3,196.9-64.6"/>
		<path id="Fill-10" sketch:type="MSShapeGroup" class="st1" d="M187.6-50.4c0.1,0,0.3,0,0.4,0l0,0c0.4,0.3,0.7,0.5,1.2,0.1
			c0.2,0,0.7-0.1,0.9-0.1c-0.4,0.2-0.9,0.4-1.5,0.5c-0.6-0.1-0.7,0.1-0.6,0.8c-0.5,0-1,0.1-1.5,0.1
			C187.4-49.4,187.5-49.6,187.6-50.4L187.6-50.4"/>
		<path id="Fill-11" sketch:type="MSShapeGroup" class="st1" d="M224.5-69.8c-1,1-2.3,1.3-3.5,1.8l-0.1-0.2
			C222-68.7,223.3-69.1,224.5-69.8"/>
		<path id="Fill-12" sketch:type="MSShapeGroup" class="st1" d="M63.9-70c-1.2,0.1-2.4,0.4-3.6,0.5c0-0.2,0-0.2,0-0.2
			c1.2-0.3,2.4-0.4,3.6-0.5C63.9-70,63.9-70,63.9-70"/>
		<path id="Fill-13" sketch:type="MSShapeGroup" class="st1" d="M86.5-68.9c0,0.2,0,0.4,0,0.8l-2.7,0C84.8-68.4,85.6-68.6,86.5-68.9
			"/>
		<path id="Fill-14" sketch:type="MSShapeGroup" class="st1" d="M198.8-57.1c0.5-0.2,0.9-0.4,1.3-0.7c0.2,0,0.5,0,0.7-0.1
			c0,0.4-1,0.5-0.4,0.8c-0.3,0-0.5,0.2-0.8,0.3C199.3-56.8,199.1-57,198.8-57.1"/>
		<path id="Fill-15" sketch:type="MSShapeGroup" class="st1" d="M96.1-69.3c-1.3,0.3-2.7,0.2-4,0.5c0-0.2,0-0.2,0-0.2
			C93.3-69.4,94.7-69.2,96.1-69.3"/>
		<path id="Fill-16" sketch:type="MSShapeGroup" class="st1" d="M160.2-49c-1,0.5-2.4,0.6-3.6,0.1C157.8-49,159.1-49.1,160.2-49
			L160.2-49"/>
		<path id="Fill-17" sketch:type="MSShapeGroup" class="st1" d="M210.7-53.5c0.2,0.2,0.4,0.3,0.7,0.7c-0.1,0.4-0.6,0.4-1.4,0.7
			C210.1-52.5,210.3-52.9,210.7-53.5"/>
		<path id="Fill-18" sketch:type="MSShapeGroup" class="st1" d="M193.8-50.8c-0.7,0.2-1,1.2-2.2,0.5C192-51.1,193-50.8,193.8-50.8"
			/>
		<path id="Fill-19" sketch:type="MSShapeGroup" class="st1" d="M-6-75.3c0.2,0.4,0.4,0.9,0.5,1.3c-0.1,0-0.3,0-0.4,0
			c-0.3-0.4-0.6-0.9-0.9-1.5"/>
		<path id="Fill-20" sketch:type="MSShapeGroup" class="st1" d="M144-46c-0.9,0.4-1.8,0.1-2.6,0.2c0.2-0.8,0.9,0.1,1.2-0.3
			C142.9-46.3,143.4-46.2,144-46"/>
		<path id="Fill-21" sketch:type="MSShapeGroup" class="st1" d="M187.9-50.6c0.7-0.2,1.2-0.7,2.2-0.7c0.2,0,0.4,0,0.7,0.1
			c-0.1,0.2-0.2,0.2-0.2,0.2C189.7-50.7,188.8-50.6,187.9-50.6L187.9-50.6"/>
		<path id="Fill-22" sketch:type="MSShapeGroup" class="st1" d="M174.9-55.9c-0.3-0.2-0.5-0.3-0.8-0.5c0.6,0,9.8,0.2,10.5,0
			C184.6-55.7,175.3-55.9,174.9-55.9L174.9-55.9"/>
		<path id="Fill-23" sketch:type="MSShapeGroup" class="st1" d="M187.6-50.4l-1.9,0c0.8-0.4,0.8-0.4,1.9-0.3
			C187.5-50.7,187.5-50.5,187.6-50.4L187.6-50.4"/>
		<path id="Fill-24" sketch:type="MSShapeGroup" class="st1" d="M210.8-60.2c0,0.2,0,0.2,0.1,0.4c-0.7-0.1-1.1,0.3-1.4,0.5
			c-0.3-0.2-0.7-0.3-0.1-0.6C209.8-59.9,210.3-60.1,210.8-60.2"/>
		<path id="Fill-25" sketch:type="MSShapeGroup" class="st1" d="M201.2-57.5c0.3-0.4,6-1.8,6.7-1.7
			C208.1-58.6,202.2-57.4,201.2-57.5"/>
		<path id="Fill-26" sketch:type="MSShapeGroup" class="st1" d="M197.3-50.3c-0.7,0.2-1.4,0.3-2.2,0.5
			C195.4-50.2,195.4-50.2,197.3-50.3"/>
		<path id="Fill-27" sketch:type="MSShapeGroup" class="st1" d="M151-46.2l2,0C152.3-45.9,151.7-45.9,151-46.2"/>
		<path id="Fill-28" sketch:type="MSShapeGroup" class="st1" d="M200.1-65.1c-0.5,0-1,0.3-1.4,0.5c-0.1,0-0.2,0-0.2,0
			C198.9-65.2,198.9-65.2,200.1-65.1"/>
		<path id="Fill-29" sketch:type="MSShapeGroup" class="st1" d="M30.5-43.2l-1.5-0.1C29.5-43.5,30-43.6,30.5-43.2"/>
		<path id="Fill-30" sketch:type="MSShapeGroup" class="st1" d="M208.3-65.1c0.1-0.6,0.6-0.4,1.2-0.5
			C209.2-65.2,208.8-65.2,208.3-65.1"/>
		<path id="Fill-31" sketch:type="MSShapeGroup" class="st1" d="M189.2-49.1c0.7-0.4,0.7-0.4,1.2,0.1L189.2-49.1"/>
		<path id="Fill-32" sketch:type="MSShapeGroup" class="st1" d="M150.7-70.4l-1.9,0C149.4-70.7,150.1-70.6,150.7-70.4"/>
		<path id="Fill-33" sketch:type="MSShapeGroup" class="st1" d="M209.9-58.8c-0.3,0.2-0.6,0.8-1.3,0.5
			C208.9-58.3,209.4-58.5,209.9-58.8"/>
		<path id="Fill-34" sketch:type="MSShapeGroup" class="st1" d="M216.1-53.9c0.4,0,0.8-0.3,1.2-0.3
			C217.1-53.8,216.7-53.6,216.1-53.9"/>
		<path id="Fill-35" sketch:type="MSShapeGroup" class="st1" d="M205.1-73.6c0.6,0,1.2-0.3,1.7-0.3c0,0.2,0,0.2,0.1,0.2
			C206.4-73.7,205.8-73.7,205.1-73.6C205.2-73.7,205.2-73.7,205.1-73.6"/>
		<path id="Fill-36" sketch:type="MSShapeGroup" class="st1" d="M194.8-50.9c0.6,0,0.8-0.3,1.2-0.3C195.7-51,195.7-50.6,194.8-50.9"
			/>
		<path id="Fill-37" sketch:type="MSShapeGroup" class="st1" d="M149.5-45.9c-0.4,0-0.7,0.1-1.1,0.1
			C148.8-46.2,148.8-46.2,149.5-45.9"/>
		<path id="Fill-38" sketch:type="MSShapeGroup" class="st1" d="M190-55.3c0.5-0.6,0.5-0.6,1-0.1C190.7-55.4,190.4-55.2,190-55.3"/>
		<path id="Fill-39" sketch:type="MSShapeGroup" class="st1" d="M197.6-54.9c0-0.4,0.1-0.6,0.1-0.8c0.1,0,0.3,0,0.3,0
			C198-55.4,198.3-55,197.6-54.9"/>
		<path id="Fill-40" sketch:type="MSShapeGroup" class="st1" d="M196.6-52.4c-0.5,0-0.8,0.1-1.2,0.3
			C195.5-52.7,195.9-52.7,196.6-52.4"/>
		<path id="Fill-41" sketch:type="MSShapeGroup" class="st1" d="M172.4-71.5c-0.4,0-0.7,0.1-1,0.1l0-0.2
			C171.6-71.6,172-71.7,172.4-71.5C172.2-71.7,172.3-71.5,172.4-71.5"/>
		<path id="Fill-42" sketch:type="MSShapeGroup" class="st1" d="M80.3-69.4c-0.3,0-0.7,0.1-0.9,0.1l0-0.2c0.4,0,0.7-0.1,1-0.3
			C80.5-69.6,80.4-69.4,80.3-69.4"/>
		<path id="Fill-43" sketch:type="MSShapeGroup" class="st1" d="M-52.7-60.3L-52.7-60.3c-0.2,0-0.4,0-0.7,0.1
			c0.1-0.2,0.1-0.4,0.3-0.4C-52.5-60.7-52.5-60.5-52.7-60.3"/>
		<path id="Fill-44" sketch:type="MSShapeGroup" class="st1" d="M55.9-44.4l-1.3-0.1l0-0.2L55.9-44.4C55.9-44.6,55.9-44.4,55.9-44.4
			"/>
		<path id="Fill-45" sketch:type="MSShapeGroup" class="st1" d="M228.4-61.1c0-0.6,0.2-0.8,1-0.5C229-61.4,228.8-61.3,228.4-61.1"/>
		<path id="Fill-46" sketch:type="MSShapeGroup" class="st1" d="M194.1-68l1-0.1l0,0L194.1-68C194.2-67.8,194.1-68,194.1-68"/>
		<path id="Fill-47" sketch:type="MSShapeGroup" class="st1" d="M181.7-70.5c0.3,0,0.6,0.1,0.8,0.1c0,0.2,0,0.2,0,0.2
			c-0.3,0-9.2-0.4-9.4-0.4C173-70.8,181.6-70.5,181.7-70.5"/>
		<path id="Fill-48" sketch:type="MSShapeGroup" class="st1" d="M201.8-53.7c0.3,0,6-1,6.2-1.2l0.1,0.2c-0.2,0-6,1.2-6.1,1.4
			C202-53.4,201.9-53.6,201.8-53.7"/>
		<path id="Fill-49" sketch:type="MSShapeGroup" class="st1" d="M214.6-64.8c0.3,0,0.6,0,0.8-0.3C215.2-64.7,215.2-64.7,214.6-64.8"
			/>
		<path id="Fill-50" sketch:type="MSShapeGroup" class="st1" d="M201.4-56.4c0.2,0,0.3-0.2,0.4-0.2l0.1,0.2c-0.2,0-0.3,0.2-0.4,0.2
			L201.4-56.4"/>
		<path id="Fill-51" sketch:type="MSShapeGroup" class="st1" d="M33.8-43.5l-0.7,0.1l0-0.2L33.8-43.5L33.8-43.5"/>
		<path id="Fill-52" sketch:type="MSShapeGroup" class="st1" d="M168.9-71.6c0.2,0,0.5,0,0.7-0.1c0,0.2,0,0.2,0,0.2
			c-0.2,0-0.5,0-0.7,0.1L168.9-71.6"/>
		<path id="Fill-53" sketch:type="MSShapeGroup" class="st1" d="M147.5-45.9c-0.3,0-0.7,0.1-0.9,0.1c0,0,0-0.2-0.1-0.2
			c0.1,0,0.3,0,0.4,0c0.2,0,0.4,0,0.5,0C147.4-46.1,147.5-46.1,147.5-45.9"/>
		<path id="Fill-54" sketch:type="MSShapeGroup" class="st1" d="M214.9-62.8c0.1-0.2,0.1-0.4,0.1-0.4c0.1,0,0.2,0,0.2,0
			c0,0.2,0,0.2,0,0.2c0,0.2-0.1,0.2-0.1,0.2C215.1-62.6,215-62.8,214.9-62.8"/>
		<path id="Fill-55" sketch:type="MSShapeGroup" class="st1" d="M217.1-73.4l-0.7,0.1l0-0.2c0.2,0,0.5,0,0.7-0.1
			C217-73.6,217.1-73.4,217.1-73.4"/>
		<path id="Fill-56" sketch:type="MSShapeGroup" class="st1" d="M212.6-70c-0.3,0-0.5,0-0.7,0.2l-0.1-0.2c0.2,0,0.4-0.2,0.6-0.2
			C212.4-70,212.5-70,212.6-70"/>
		<path id="Fill-57" sketch:type="MSShapeGroup" class="st1" d="M-54.4-51c-0.1-0.2-0.2-0.4-0.4-0.3c0.1,0,0.2,0,0.3,0
			c0.1,0.2,0.2,0.4,0.3,0.4C-54.2-51.2-54.3-51-54.4-51"/>
		<path id="Fill-58" sketch:type="MSShapeGroup" class="st1" d="M173-48.5c-0.2,0-0.4,0-0.7,0.1l0-0.2
			C172.5-48.4,172.8-48.6,173-48.5L173-48.5"/>
		<path id="Fill-59" sketch:type="MSShapeGroup" class="st1" d="M193.3-65.5c0.3,0,0.7-0.1,0.9-0.1l0,0.2c-0.4,0-0.7,0.1-1,0.1
			C193.3-65.3,193.3-65.3,193.3-65.5"/>
		<path id="Fill-60" sketch:type="MSShapeGroup" class="st1" d="M192.5-57.6c0.2,0,0.5,0,0.7-0.1l0,0.2c-0.2,0-0.5,0-0.6,0.2
			C192.5-57.6,192.5-57.6,192.5-57.6"/>
		<path id="Fill-61" sketch:type="MSShapeGroup" class="st1" d="M196.9-56.4c0.4,0,0.4-0.6,1-0.3C197.6-56.7,197.3-56.6,196.9-56.4
			L196.9-56.4"/>
		<path id="Fill-62" sketch:type="MSShapeGroup" class="st1" d="M83.8-69.5l0.6,0l0,0L83.8-69.5L83.8-69.5"/>
		<path id="Fill-63" sketch:type="MSShapeGroup" class="st1" d="M82.1-68.2c0.1-0.2,0.2,0,0.3,0c0.1,0,0.2,0.2,0.3,0.2
			c-0.1,0.2-0.1,0.2-0.2,0C82.3-68.2,82.3-68.2,82.1-68.2"/>
		<path id="Fill-64" sketch:type="MSShapeGroup" class="st1" d="M183.3-71l-0.6,0l0-0.2L183.3-71C183.5-71,183.5-70.8,183.3-71"/>
		<path id="Fill-65" sketch:type="MSShapeGroup" class="st1" d="M60.7-69c0.2,0,0.4,0,0.7-0.1l0,0.2C61.2-69.1,61-69,60.7-69
			L60.7-69"/>
		<path id="Fill-66" sketch:type="MSShapeGroup" class="st1" d="M188.1-68.3c-0.3,0-0.6,0-0.8,0.1l0-0.2L188.1-68.3L188.1-68.3"/>
		<path id="Fill-67" sketch:type="MSShapeGroup" class="st1" d="M169.9-70.9c0.1,0.2,0.2,0.2,0.2,0.2c-0.1,0-0.2,0-0.3,0
			c0,0-0.2-0.2-0.1-0.2C169.7-70.7,169.8-70.7,169.9-70.9"/>
		<path id="Fill-68" sketch:type="MSShapeGroup" class="st1" d="M201.6-51.1c-0.2,0-0.4,0-0.5,0.2l-0.1-0.2
			C201.1-51.2,201.3-51,201.6-51.1C201.6-51.2,201.6-51.2,201.6-51.1"/>
		<path id="Fill-69" sketch:type="MSShapeGroup" class="st1" d="M-50.5-45.4c-0.1-0.2-0.1-0.2-0.2-0.4c0.1,0,0.1,0,0.2,0
			c0.1,0.2,0.1,0.2,0.2,0.4C-50.5-45.6-50.6-45.6-50.5-45.4"/>
		<path id="Fill-70" sketch:type="MSShapeGroup" class="st1" d="M200.6-50.2c-0.1-0.2-0.2-0.2-0.2-0.2c0-0.2,0.1-0.2,0.2-0.2
			c0.1,0,0.2,0.2,0.2,0.2C200.8-50.2,200.7-50.2,200.6-50.2"/>
		<path id="Fill-71" sketch:type="MSShapeGroup" class="st1" d="M156.6-46.3c-0.2,0-0.4,0-0.6,0c0,0,0,0,0-0.2
			C156.2-46.4,156.4-46.4,156.6-46.3L156.6-46.3"/>
		<path id="Fill-72" sketch:type="MSShapeGroup" class="st1" d="M220.7-64.5c-0.2,0-0.4,0-0.5,0.2c0,0,0-0.2-0.1-0.2
			C220.2-64.5,220.4-64.5,220.7-64.5C220.6-64.7,220.7-64.5,220.7-64.5"/>
		<path id="Fill-73" sketch:type="MSShapeGroup" class="st1" d="M218.1-64.5c-0.1,0.2,0.4,0.5-0.3,0.8
			C217.9-64.1,218-64.3,218.1-64.5L218.1-64.5"/>
		<path id="Fill-74" sketch:type="MSShapeGroup" class="st1" d="M191.5-63.6c-0.1-0.2-0.2-0.2-0.2-0.4c0-0.2,0.1-0.2,0.2-0.2
			c0.1,0,0.2,0.2,0.2,0.2C191.7-63.8,191.6-63.8,191.5-63.6"/>
		<path id="Fill-75" sketch:type="MSShapeGroup" class="st1" d="M213.7-59.8c0.2,0,0.4,0,0.5,0l0,0.2
			C213.9-59.8,213.8-59.8,213.7-59.8C213.7-59.6,213.7-59.8,213.7-59.8"/>
		<path id="Fill-76" sketch:type="MSShapeGroup" class="st1" d="M-54.1-60.6c-0.1-0.2-0.2-0.2-0.3-0.4c0.1,0,0.2,0,0.2,0
			c0.1,0.2,0.2,0.2,0.3,0.4C-53.9-60.6-54-60.6-54.1-60.6"/>
		<path id="Fill-77" sketch:type="MSShapeGroup" class="st1" d="M188.9-60.8c0.1-0.2,0.2-0.2,0.2-0.4c-0.4-0.2-0.7-0.1-1-0.3l0-0.2
			c0.6,0,1.1-0.1,1.9-0.3C189.6-61.4,189.7-60.8,188.9-60.8L188.9-60.8"/>
		<path id="Fill-78" sketch:type="MSShapeGroup" class="st1" d="M170.3-53.6c-0.4,0.2-0.8,0.4-1.1,0.7c-0.2-0.4-0.3-0.6-0.3-0.7
			L170.3-53.6"/>
		<path id="Fill-79" sketch:type="MSShapeGroup" class="st1" d="M175.3-58.2c-0.2-0.2,8.2-0.1,8.8-0.3
			C184-58.1,175.3-58.4,175.3-58.2L175.3-58.2"/>
	</g>
</g>
</svg>
