<?xml version="1.0" encoding="utf-8"?>
<!-- Generator: Adobe Illustrator 19.2.1, SVG Export Plug-In . SVG Version: 6.00 Build 0)  -->
<svg version="1.1" id="Layer_1" xmlns:sketch="http://www.bohemiancoding.com/sketch/ns"
	 xmlns="http://www.w3.org/2000/svg" xmlns:xlink="http://www.w3.org/1999/xlink" x="0px" y="0px" viewBox="0 0 324.8 90.2"
	 style="enable-background:new 0 0 324.8 90.2;" xml:space="preserve">
<style type="text/css">
	.st0{fill:#FFFFFF;}
</style>
<title>Imported Layers</title>
<desc>Created with Sketch.</desc>
<metadata><?xpacket begin="﻿" id="W5M0MpCehiHzreSzNTczkc9d"?>
<x:xmpmeta xmlns:x="adobe:ns:meta/" x:xmptk="Adobe XMP Core 5.6-c111 79.158366, 2015/09/25-01:12:00        ">
   <rdf:RDF xmlns:rdf="http://www.w3.org/1999/02/22-rdf-syntax-ns#">
      <rdf:Description rdf:about=""
            xmlns:dc="http://purl.org/dc/elements/1.1/">
         <dc:description>
            <rdf:Alt>
               <rdf:li xml:lang="x-default">Created with Sketch.</rdf:li>
            </rdf:Alt>
         </dc:description>
         <dc:title>
            <rdf:Alt>
               <rdf:li xml:lang="x-default">Imported Layers</rdf:li>
            </rdf:Alt>
         </dc:title>
      </rdf:Description>
   </rdf:RDF>
</x:xmpmeta>
                                                                                                    
                                                                                                    
                                                                                                    
                                                                                                    
                                                                                                    
                                                                                                    
                                                                                                    
                                                                                                    
                                                                                                    
                                                                                                    
                                                                                                    
                                                                                                    
                                                                                                    
                                                                                                    
                                                                                                    
                                                                                                    
                                                                                                    
                                                                                                    
                                                                                                    
                                                                                                    
                           
<?xpacket end="w"?></metadata>
<g id="Welcome" sketch:type="MSPage">
	
		<g id="Imported-Layers" transform="translate(232.000000, 130.000000) rotate(3.000000) translate(-232.000000, -130.000000) translate(85.000000, 108.000000)" sketch:type="MSLayerGroup">
		<path id="Fill-1" sketch:type="MSShapeGroup" class="st0" d="M260.3-52.4c0,0,0-0.1,0.1-0.1c1.6-0.1,3.1-0.3,4.7-0.6
			c0.1-0.1,0.3,0,0.5,0c0.2,0.2,0,0.2-0.4,0.3c-1.3,0.2-2.7,0.3-4.2,0.4c0,0.1,0.1,0.1,0.1,0.2c-1.5,0.2-3.1,0.4-4.7,0.6
			c-0.3-0.2-0.3-0.4-1-0.3c-0.7,0.1-7.4,0.5-8.3,0.6c1,0.2,7.6-0.4,8.7-0.4c-0.5,0.1-0.9,0.2-1.2,0.3c0.2,0.1,0.3,0.3,0.5,0.4
			c0.8,0,1.5-0.1,2.3-0.1c-0.2-0.1-0.3-0.2-0.4-0.4c1.2-0.2,1.3-0.2,1.3,0.2c0.3,0,0.6,0,0.9,0c0.7-0.1,1.5-0.2,2.2-0.2
			c0.7-0.1,1.4-0.2,2.2-0.4c0.3,0,0.6-0.2,0.9,0l0-0.1c-0.4,0.2-1,0.3-1.7,0.3l0,0c-0.4,0-0.8,0.1-1.2,0.2c-0.9,0.1-1.8,0.3-2.8,0.3
			c-0.3,0-0.5,0.1-0.8,0.2c0.1,0.6,0.2,0.5-1.1,0.6c-0.7,0.1-1.4,0.2-2,0.4c0.2,0,0.5,0,0.7,0c0,0,0,0.1,0.1,0.1
			c-0.2,0-0.4,0-0.6,0.1c-2.6,0.2-11.2,0.8-13.8,1c-0.6,0.1-1.2,0.2-1.9,0.3c-0.2,0-0.6,0.1-0.8,0c-0.7-0.2-1.2-0.1-1.7,0
			c-0.8,0.1-1.5,0.4-2.4,0c-0.2-0.1-0.7-0.1-1.2-0.1c0.9-0.3,2.5-0.1,2.8-0.6c-1.1-0.1-2.2-0.1-3.2,0.1c-0.2,0-0.5,0-0.8,0
			c-0.6,0-1.3-0.1-1.9-0.2c0,0.1,0,0.2-0.1,0.3c-0.5,0-10.1-0.4-10.6-0.5c-0.3-0.1-0.7,0-1.1,0.1c-0.1-0.1-0.2-0.2-0.5-0.4
			c-0.4,0.2-0.8,0.2-1.2,0.3c-0.3,0.1-0.2,0.1-0.7,0c-0.1,0-0.2-0.1-0.3-0.1c-1,0-2,0-3,0.1c-0.2,0-0.3,0.1-0.5,0.1
			c-0.2,0-8.5,0.6-8.8,0.6c-0.5,0-1.3,0.1-1.6,0c-1.1-0.3-2.1-0.1-3.5-0.1c0.7,0.3,1.2,0.4,1.5,0.6c1.5,0,10.9-0.6,12.4-0.5
			c0.2,0,0.4,0,0.6,0c0.6,0,1.1-0.2,1.7,0.1c0.1,0.1,0.8,0,1.2,0l0,0c0.1,0.1,0.3,0.2,0.4,0.3l1.3,0.1l-0.1-0.1
			c0.2,0,0.4-0.2,0.7-0.1c0.8,0,1.6,0,2.4,0c-0.8-0.1-1.7-0.1-2.5-0.2c1.2-0.2,11.6,0.3,13,0.3c-0.3,0.1-9.6-0.4-9.9-0.3
			c0.4,0,9.7,0.6,10.3,0.6c-0.6,0.1-10-0.4-10.4-0.3c0.3,0.1,9.5,0.7,9.8,0.7c-0.7,0.2-10.7-0.5-11.4-0.3c-0.1,0.1-0.2,0.3-0.4,0.4
			c0.9-0.1,10.8,0.7,11.7,0.6c0.9-0.1,1.8-0.1,2.7-0.1c-0.6,0.1-1.2,0.2-1.9,0.3c-0.8,0-10.6-0.5-11.3-0.5c-0.8,0-0.8,0-0.6,0.4
			c-0.3,0-0.6,0-1,0.1c0.1,0,0.2,0.1,0.2,0.1c0.3,0,0.7,0,1,0c1.4,0.2,11.8,0.5,13.3,0.5c-0.2-0.1-0.3-0.2-0.4-0.3
			c0.3,0,0.7,0,0.7,0c0.3,0.4,1.1,0.3,1.8,0.2c0,0,0.1,0,0.2,0l0,0.4c0.2,0,0.5,0,0.7,0l0,0.1c-0.2,0-0.7,0-0.4,0.3l0,0.1
			c-0.6,0-1.2,0.1-1.8,0.1c-0.2,0-0.5-0.1-0.7-0.1c0-0.1,0-0.1,0-0.1c0.4,0,0.8,0,1.2,0c0,0,0,0,0-0.1c-1.2-0.1-2.5-0.2-3.7-0.3
			c-1,0-11.2-0.4-12.2-0.4c-0.2,0-0.5,0.1-0.7,0c-0.9-0.2-1.8-0.1-2.7-0.1c-0.6,0-1.1,0-1.7,0c-0.4,0-0.9,0-1,0.2
			c-1.2-0.1-10.3,0.2-11.5,0.1c-0.4,0-0.8,0-1.3,0c0.1,0.1,0.2,0.2,0.3,0.2c-0.3,0.2-0.7,0.1-1.1,0.1c-1.3-0.1-2.6-0.2-3.9-0.2
			c-1.5-0.1-3,0-4.5-0.1c-0.7,0-1.6,0-2.1-0.4c0.2,0,0.3,0,0.7-0.1l-2.1-0.1c0.1,0,0.1,0.1,0.2,0.1c0.1,0,0.2,0,0.3,0
			c-0.2,0.1-0.4,0.2-0.7,0.4c1.6,0.1,2.9,0.1,4.1,0.2c1.3,0.1,2.6,0.2,3.8,0.3c0,0.1,0,0.1,0,0.1l-1.2-0.1c-0.8,0-1.6-0.1-2.3-0.1
			c-0.7,0-1.4-0.1-2-0.1c-0.9-0.1-1.8-0.3-2.7-0.1c-0.2,0-0.5,0-0.8,0c-0.3,0-0.6,0-1,0c0.2,0,0.3,0.1,0.5,0.1
			c0.7,0,1.4,0.1,2.1,0.1c0.9,0,1.9,0.1,2.8,0.1c1.7,0.1,3.5,0.1,5.2,0.3c0.6,0.1,1.3,0,1.9,0c0.9,0,1.7,0.1,2.6,0.1
			c0.3,0,0.7,0,1.2-0.1c-0.5-0.1-0.8-0.2-1.2-0.3l0,0c0.3,0,0.6,0,0.9,0.1c0.8,0.1,1.5,0.1,1.9-0.3c0.1,0.2,0.2,0.2,0.3,0.3
			c-0.7,0-1.3,0.2-1.7,0.4c-0.1,0.1-0.4,0.1-0.6,0.1c-0.7,0-1.4,0.1-2.3,0.1c-0.2-0.3-0.8-0.4-1.5-0.3c-0.4,0-0.9,0-1.4,0
			c0.6,0,1.2,0.1,1.8,0.1c-0.8,0.2-1.7,0.3-2.6,0.1c-1.9-0.2-3.8-0.3-5.7-0.3c-1.6,0-3.1-0.2-4.6-0.1c-0.4,0-0.7,0-1.2-0.1
			c0.1,0.1,0.1,0.1,0.2,0.1c2,0.1,4,0.2,6,0.4c0.1,0,0.2,0,0.2,0c1.2,0.3,2.5,0.3,3.8,0.4c-0.2,0-0.4,0-0.6,0
			c-1.8-0.1-3.7-0.2-5.5-0.3c-2.6-0.1-5.2-0.2-7.9-0.3c-0.9,0-1.8-0.1-2.7-0.2c-0.7,0-1.5-0.1-2.2,0.2c1,0,1.8,0.1,2.7,0.2
			c-0.3,0.1-1.1-0.1-1.2,0.2c0,0-0.2,0-0.3,0c-1-0.2-2,0-3-0.1c-1,0-21.5-0.8-22.6-0.8c-0.3,0-0.6,0-1,0c-0.4,0-0.8-0.1-1.2-0.1
			c-1,0-2.1,0-3.1-0.2c-0.3-0.1-0.6,0-1.2,0c0.3,0.1,0.5,0.3,0.7,0.3c1.2,0.1,2.4,0.2,3.6,0.2c0.5,0,1,0.1,1.5-0.1
			c0.1-0.1,0.5,0,0.8,0c1.2,0.2,21.9,1,23.2,1c0.2,0,0.4,0,0.6,0c0.5,0.1,1,0.1,1.5,0.1c0.3,0,0.8,0.1,1.2,0.2c-1.1,0-2.1,0-3.2-0.1
			c-2.8-0.1-25.1-1-27.9-1.1c-1.8-0.1,2.4-0.5,0.6-0.5c-2,0-3.9,0-5.9,0c-2.7-0.1-5.3-0.2-8-0.3c-3.7-0.2,1.9,0-1.7-0.3
			c-1.3-0.1-2.6-0.2-3.9-0.3c-0.7,0-1.4-0.1-2.1,0.1c-0.4,0.2-1.4,0.1-2.1,0c-0.7,0-1.3-0.2-2-0.2c-3.7-0.2-7.4-0.4-11-0.4
			c-1.3,0-2.6,0-3.9-0.1c-3.4,0-6.9-0.1-10.3-0.2c-1.4,0-2.8,0-4.2,0c-5.2-0.2-10.3-0.3-15.5-0.4c-2.4,0-4.8-0.1-7.3-0.1
			c-1.5,0-3.1-0.1-4.6-0.1c-0.8,0-1.6,0-2.4,0c-0.5,0-1.1,0-1.6-0.1c-0.6,0-1.3-0.2-1.9,0.1c-0.1,0.1-0.7,0-1-0.1
			c-0.6-0.2-1.2-0.1-1.7,0c-0.6,0.1-1.2,0.1-1.8,0c-0.5-0.1-1-0.1-1.5-0.1c0.2,0,0.5,0.1,0.9,0.1c-1.4,0.2-2.8,0.1-4.2,0.1
			c0,0.1,0,0.1,0,0.1c1.2,0.1,2.3,0,3.5,0.1c1.2,0,2.4,0,3.6,0c1.2,0,2.4,0.1,3.6,0.2c0,0.1,0,0.1,0.1,0.1c-0.3,0-0.6,0.1-1,0.1
			c-1.9,0-3.7,0.1-5.6,0c-0.4,0-0.8,0-0.8,0.2l6,0.2c-1.8,0-3.6,0-5.5,0c-0.9,0-2,0-2.8,0.1c-2.7,0.3-5.4,0-8.1-0.1
			c-1.8-0.1-3.6-0.1-5.4-0.2c-2-0.1-4.1-0.2-6.1-0.3c-1.4-0.1-2.8-0.3-4.2-0.4c-2.1-0.1-4.1-0.3-6.2-0.4c-1.2-0.1-2.5-0.1-3.7-0.1
			c-2.1-0.1-4.3-0.2-6.4-0.3c-1.3-0.1-2.5-0.1-3.8-0.1c-4.5,0-9,0-13.5-0.1c-4.1,0-8.2-0.1-12.3-0.4c-2-0.1,1-0.4-1-0.6
			c-1.8-0.1-3.3-0.4-4.3-1c-0.4-0.2-1.2-0.4-1.8-0.6c-0.6-0.1-0.5-0.2-0.3-0.4c-0.6,0-1.2-0.1-1.8-0.1c-0.7,0-1.5,0-2.2,0
			c-0.7,0-1.3-0.2-2-0.3c-0.3-0.1-5.7,0.1-6.1,0.1c-0.4-0.4-0.7-0.8-1.1-1.2c0.8,0.1,6.5-0.1,7.3-0.1c1.2,0.1,1.3,0.1,1.4-0.4
			c0-0.1,0-0.1,0-0.2c-0.7-0.1-1.3-0.3-2.1-0.3c-0.3,0-5.8,0.1-6.1,0c0.4,0,5.8-0.2,6.4-0.1c-0.8-0.4-7.2-0.2-8.1-0.6
			c0.5,0,0.8,0,1.2,0c0.4-0.4,0.3-0.5-0.7-0.7c-0.7-0.1-1.6-0.2-1.9-0.5c0-0.1-0.4,0-0.7,0l0-0.1c0-0.3,0.3-0.4,1.1-0.5
			c0.3,0,0.9-0.1,0.9-0.4c-0.1-0.3-0.7-0.5-1.1-0.7c-0.3-0.1-0.8,0-1.1,0.3c-0.4-0.1-0.8-0.2-1.3-0.3c0.8-0.1,1.4-0.1,2.2-0.2
			c0.4,0.2,0.9,0.2,1.6,0.1c0.3,0,0.6,0,1,0c0.1-0.1,0.1-0.3,0.3-0.5c-0.4,0-1,0.1-1.2-0.2c0.4-0.1,0.8-0.3,1.3-0.4
			c0.3,0,0.7,0,0.8,0.1c0,0.1,5-0.1,5.2,0c0.1-0.1,0.2-0.2,0.3-0.2c0.2,0,0.4,0.1,0.6,0.1c0.1-0.2,0.2-0.3,0.3-0.4
			c-0.7-0.3-6.2-0.2-6.9-0.4c-0.2-0.1-0.5-0.1-0.8-0.1c-0.5,0-0.8-0.1-0.7-0.3l0,0c0.5-0.1,0.7-0.3,1.3-0.4c0.9-0.1,6.6-0.4,7.3-0.2
			c0.1,0,0.3,0,0.6,0.1c-0.6-0.5-1.6-0.7-1.4-1.2c-0.3-0.1-5.7,0.1-6.2,0c-0.2,0.2-0.3,0.3-0.5,0.4c-0.8-0.1-0.9-0.3-0.2-0.7
			c1.3,0.3,7.8,0.1,9.4,0.1c0.1-0.3,0.6-0.5,1.6-0.4c0.8,0,1.7,0,2.5,0c0.6,0,1.1-0.1,1.5-0.2c0.4-0.2,0.9-0.3,1.5-0.4
			c-0.4-0.2-0.9-0.5-1.2-0.7c0.1,0,0.2,0,0.2,0c0.6,0.2,1.1,0.5,1.7,0.7c0.5,0.2,0.9,0.3,1.5,0.1c0.5-0.1,1-0.1,1.5,0
			c2.1,0-0.8,0.2,1.3,0.2c0.8,0,1.4,0,2.2,0.1c0.6,0.1,1.2,0.2,1.8,0.2c2.8,0.1,5.6,0.1,8.5,0.1c0.4,0,0.8,0,1.2,0.1
			c0.7,0.1,1.4,0.2,2.2,0.1c4.3,0.1,8.6,0.2,12.9,0.3c1.3,0.1,2.5,0.1,3.9,0.2c0-0.1-0.1-0.2-0.1-0.3c0.8,0,1.5,0,2.3,0
			c0.8,0,1.6,0.1,2.3,0.1c0.4,0,0.8,0,1.2,0.1c1.8,0,3.6,0,5.5,0.2c0.8,0.1,1.7,0,2.5,0c0.3,0,0.6,0,0.8,0c1,0,2,0.1,3.1,0.1
			c1.1,0,2.2,0.1,3.2,0.2c0.7,0.1,1.5,0.2,2.3,0.3c3,0.1,6,0.2,9,0.3c0.8,0,1.6,0.1,2.4,0.2c1.3,0.2,2.5,0.2,3.8,0.1
			c0.7,0,1.5-0.1,2.2-0.2c-1.7-0.1-3.1-0.3-4.8-0.7c0.8,0,1.4-0.1,1.9-0.1c1,0,2,0,3.1,0c0.1,0,0.3,0,0.4,0c0.9,0.3,1.8,0.1,2.7,0.2
			c1.5,0.1,2.9,0.1,4.4,0.2c1.9,0.1,3.7,0.2,5.6,0.3c0.7,0,1.4,0.1,2.1,0.1c1,0,2,0.1,3.1,0.1c0.7,0,1.5,0.1,2-0.1
			c0.1-0.1,0.5,0,0.7,0c1.6,0,3.2,0,4.7,0.2c0.4,0.1,0.9,0,1.3,0.1c0.6,0,1.2,0.1,1.6,0.3c0.2,0.1,0.7,0.2,1.1,0.2
			c1.2,0.1,2.4,0.1,3.6,0.2c1.3,0.1,2.7,0.1,4,0.2c0.1,0.1,0.1,0.2,0.2,0.2c0.1,0.1,0.4,0.1,0.6,0.1c1.9,0,3.9,0.1,5.8,0.1
			c0.2,0,0.5,0,0.7,0c1.6-0.2,3.3-0.1,4.9-0.1c0.1,0,0.2,0,0.4,0.1c-0.2,0-0.3,0.2-0.4,0.2l10.2,0.4c-1.2,0.1-2.4,0-3.7,0
			c-0.6,0-1.2,0-2,0c1.7,0.4,3.2,0.2,4.7,0.4c1.5,0.1,3,0,4.5,0.1c-0.9,0.2-1.9,0.1-2.8,0.1c-1,0-2-0.1-3,0c0,0.1,0,0.1,0,0.1
			c1.7,0.1,3.5,0.1,5.2,0.2c3.1,0.1,6.2,0.2,9.3,0.3c0.3,0,0.6,0.1,1,0.1c0.5,0,1,0.1,1.4,0.1c0.9-0.1-7.2-0.6-6.3-0.6
			c1.6,0.1,3.2,0.1,4.9,0.2c1.7,0,3.3,0,5,0c2.5,0.1,5.1,0,7.6,0.1c3.2,0.1,0.4,0.4,3.6,0.4c1.9,0,3.8,0.1,5.8,0.1
			c2.4,0,24.4,0.9,26.8,1c2.1,0,4.3,0,6.4,0c0.3,0,0.6,0,0.9,0c4.8,0.3,9.6,0.5,14.3,0.8c0.4,0,0.8,0.1,1.1-0.1c0.1-0.1,0.5,0,0.8,0
			c3.5,0.2,15.1-0.1,18.6,0.1c1.2,0.1,11.4,0.6,12.6,0.3c-0.1-0.1-9.2-0.6-9.3-0.7c0.9-0.4,10.8,0.7,11.6,0.6
			c-0.6,0-1.2-0.1-1.8,0.1c1.8,0.3,3.4,0.1,5,0.2c1.6,0.1,3.2,0.1,4.8,0.1c0.1-0.1,0.2-0.2,0.3-0.3c1,0,1.9,0.2,2.9,0.3
			c0.7,0.1,1.5,0,2.3,0c1.5,0,9-0.5,10.4-0.6c0.2,0,0.4,0,0.8,0c-0.3,0.1-0.4,0.2-0.5,0.1c-1.3,0-8.4,0.6-9.6,0.7
			c-1.2,0.1-2.5,0.1-3.7,0.2c-0.3,0-0.6,0-1,0c-1.3,0.1-2.6,0.1-3.9,0.1c-0.4,0-0.8-0.1-1.3-0.2c-0.7,0.2-1.8,0-2.7,0.1
			c-1.3-0.3-2.7-0.2-4-0.3c-2.4-0.1-13.8-0.7-16.1-0.8c-0.4,0-0.7,0-1.1,0.1c2.5,0.2,5,0.3,7.5,0.4c-1,0.2-2.2,0-3.2,0.1
			c2,0.4,13.2,0.7,15.5,1c-0.5,0.1-0.7,0.2-1.1,0.2c-0.5,0-1,0-1.4-0.1c-0.8-0.1-10.5-0.8-11.3-0.6c-0.1,0.1-0.5,0-0.7,0
			c-0.7,0-1.5-0.1-2.2,0c1.5,0.1,2.9,0.5,4.4,0.3c0.7-0.1,10.1,0.5,10.6,0.7c-1.3,0.1-11.5-0.5-12.8-0.5c-1.2,0-2.4,0-3.7,0
			c0.1,0.1,0.2,0.1,0.5,0.1c-0.4,0-0.7,0-0.9-0.1c-0.4,0-0.9-0.1-1.3-0.1c0,0.1,0,0.1,0,0.1l1.4,0.1c0,0.2,0.2,0.2,0.6,0.2
			c0.5,0,1,0,1.5,0.1c-0.1,0.3-0.1,0.3-1.3,0.3c0.1-0.1,0.2,0,0.3-0.1c0.1,0,0.1-0.1,0.3-0.1c-1.3-0.1-2.5-0.1-3.7-0.2
			c-1.2-0.1-10.3,0.3-11.5,0.1c1-0.1,10.1-0.3,11.2-0.4c-0.2-0.1-8.3,0.2-8.5,0.2c-1.2-0.1-2.5-0.2-3.7-0.3c-1-0.1-1.9-0.1-2.5,0.2
			c-0.1,0,0,0.1,0,0.1l-2.4-0.1l0,0.1c0.2,0,0.4,0.1,0.6,0.1c1.2,0.1,2.5,0.2,3.7,0.3c0.5,0,0.8,0.2,1.4,0.2c0.7,0,1.3,0.1,2,0
			c0.5,0,8.9-0.3,9.4-0.2c0.1-0.3,0.8-0.1,1.3-0.2c0.5,0,0.8,0.1,0.8,0.4c-0.4,0-0.8,0-1.6,0c0.7,0.2,1.2,0.3,1.7,0.5l0,0
			c-0.1,0-0.2,0-0.3-0.1c-0.2,0.3-0.8,0.2-1.4,0.2c-0.5,0-8.9,0.4-9.2,0.6c-0.1,0.1-0.6,0.1-0.9,0.2c1.6,0.2,11.2-0.2,12.8-0.2
			c1.6,0,3.3,0.1,4.9,0.1c1.6,0,12.3,0.4,14,0.5c1.6,0,3-0.3,4.7-0.2c0,0.1,0,0.2,0,0.3c0.5,0,0.9-0.1,1.5,0
			c-0.1-0.1-0.2-0.1-0.3-0.1c0.9-0.1,0.9-0.1,1.6,0c0.3,0,0.8,0,0.9,0c0.5-0.3,1.4-0.1,2.1-0.2c0.3,0,0.7,0.1,0.6,0.2
			c-0.3,0.2,0.2,0.3,0.5,0.5c1.3-0.1,8.5-0.5,9.8-0.6c0.3,0,0.5-0.2,0.7-0.3c1.4,0.2,1.4,0.2,2.1-0.2c0,0.1,0.1,0.2,0.1,0.2
			C258.5-52.2,259.4-52.3,260.3-52.4c-0.5,0.1-1,0.2-1.4,0.3c-0.5,0.1-1.2-0.1-1.6,0.3c1.3,0,2.2-0.1,3.1-0.3
			C260.3-52.2,260.2-52.3,260.3-52.4L260.3-52.4z M216.5-49.6L216.5-49.6c0.6,0,1.2,0.1,1.8,0.1c0.2,0,0.5,0,0.5-0.1
			c0.1-0.2,0.5-0.2,1-0.2c0.4,0,9.7,0.5,10.1,0.5c0-0.1,0-0.1,0.1-0.1c-0.3-0.1-9.7-0.7-9.8-0.7c-0.8,0.2-1.5,0.1-2.3,0
			c-0.2,0-0.4,0-0.6,0c-0.5,0.1-1.1,0.1-1.7,0c-0.5-0.1-0.8,0-1.1,0.1C215.3-49.9,215.8-49.8,216.5-49.6L216.5-49.6z M235.9-49.6
			c0.8,0,1.7,0.2,2.4,0c0.1,0,0.2,0,0.4,0c1.1,0,2.2,0,3.3,0c0.4,0,0.7,0,1.1-0.1c0.2,0,0.4,0,0.5-0.1c0.6-0.4,0.6-0.4,1.6-0.4
			c0.2,0,0.4,0,0.6-0.1c-0.3-0.1-0.5-0.1-0.7-0.1c-1.2,0.1-2.5,0.2-3.7,0.3c-0.3,0-0.6,0-0.8,0c-0.7,0-1.4,0-1.8,0.3
			c0,0-0.3,0-0.4,0C237.4-49.8,236.6-49.7,235.9-49.6c-0.1-0.1-0.2-0.1-0.4-0.2c0.4-0.1,0.8-0.1,1.2-0.2c-0.5,0-1,0-1.5,0.1
			c-0.2,0-0.3,0.2-0.4,0.3c-0.8,0-1.6,0-2,0.4c1.1,0,2.1-0.1,3.1-0.1L235.9-49.6L235.9-49.6L235.9-49.6z M231.2-50.5L231.2-50.5
			c1,0.4,2.1,0.3,3.2,0.2c0.4,0,0.8-0.1,1.2,0c0.7,0.1,1.3,0.1,1.7-0.2c0.1-0.1,0.5-0.1,0.7-0.1c0.4,0.1,0.7,0.2,0.9,0.3
			c0.5-0.1,0.9-0.1,1.3-0.2c0.2,0.2,0.5,0.1,0.8,0c0.6-0.1,1.3-0.2,1.9-0.2c1.3,0,2.5-0.2,3.7-0.3c-0.3-0.1-0.6-0.2-0.9-0.2
			c-1,0-1.9,0.1-2.9,0.1l0.1-0.6c-1,0.1-1.7,0.4-2.8,0.2c-0.4,0.2-1.1,0-1.3,0c-0.5,0.1-1,0.1-1.6,0.1c-1.6,0.2-3.3,0.1-4.9,0.1
			c-1.1,0-11.3-0.6-12.2-0.4c-0.3-0.1-0.5-0.1-0.7-0.2c-0.3,0-0.6,0-1,0c0.3,0.1,0.4,0.2,0.7,0.3c-1.1,0.1-0.3,0.4-0.7,0.7
			c1.2-0.1,11.4,0.7,12.5,0.4C230.8-50.4,230.7-50.6,231.2-50.5L231.2-50.5z M199.6-50.3L199.6-50.3c-0.7-0.1-1.5-0.1-2.2-0.1
			c-1.1,0-2.2-0.1-3.3-0.1c-0.7,0-1.4,0.1-1.8-0.2c-0.1-0.1-0.3-0.1-0.4-0.1c-0.6,0-1.2-0.1-2.1-0.1c0.6,0.2,1.1,0.3,1.5,0.5
			c-0.4,0-0.6,0-0.8,0s-0.4-0.1-0.6-0.1c0,0.1-0.1,0.1-0.1,0.1c0.4,0.1,0.7,0.2,1.1,0.2c0.7,0,1.4,0,2.1,0c0-0.2,0.4-0.3,0.8-0.2
			s0.8,0.1,1.2,0.2c-0.2,0.1-0.6,0.1-0.7,0.1c-0.2,0.3-0.9,0.2-1.5,0.2s-1.1,0-1.7,0c-1.5-0.1-3.1-0.1-4.6-0.1
			c0.1,0.1,0.3,0.2,0.5,0.2c0.9,0,1.9,0,2.8,0c0.8,0,1.5,0.1,2.3,0.1c0.3,0,0.5,0.2,0.8,0.3c0.6,0.1,1.2,0.1,1.9,0.2
			c0,0.1,0,0.1,0.1,0.2c1-0.1,2.1,0.1,3.1,0c0.1,0,0.3,0,0.5,0c1,0,1.9,0.1,2.9,0.2c0.1,0,0.3,0,0.6-0.1c-0.8,0-1.3-0.1-1.9-0.1
			c-0.5,0-1.1,0-1.8-0.2c1.2,0,2.2,0,3.1,0c-0.1-0.2-0.3-0.3-0.4-0.5c-0.3,0-0.6,0-0.7,0c-0.1,0.1-0.1,0.2-0.2,0.3
			c-0.3,0-0.6,0-0.9,0c-1.2-0.1-2.1-0.3-3.1-0.6C197.3-50.2,198.4-50.3,199.6-50.3L199.6-50.3z M215.2-47.6c0-0.1,0-0.1,0-0.1
			c-0.2,0-0.5-0.1-0.7-0.1c-0.6,0.1-1.2,0-1.8,0c-0.3,0-0.6,0-1,0c-0.3,0-8.6,0.4-8.8,0.4c-0.9-0.2-1.8-0.2-2.7-0.1
			c-0.5,0-0.9,0.1-1.4,0c0.2-0.2,0.3-0.3,0.6-0.5c-0.7,0-1.3,0.1-1.8,0.1c-0.7,0.1-0.2,0.3-0.5,0.6l2.8,0.1c-0.8,0.4-2,0.1-2.8,0.3
			c0.3,0.3,1.4,0.2,1.9,0.4c0.2,0.1,0.6,0,1,0c0.3,0,0.6,0,0.8,0c0.2,0,0.3-0.2,0.6-0.3c0.2,0.3,0.7,0.4,1.3,0.3
			c0.8,0,9.6-0.5,10.4-0.4c0.2,0,0.4,0,0.5,0c0.7,0.3,1.5,0.1,2.2,0.1c0.1-0.2,0.3-0.3,0.4-0.4c-1-0.2-1.5,0.3-2.5,0.1
			c-0.8-0.1-9.7,0.3-10.5,0.3c0.1-0.1,0.2-0.2,0.1-0.3c-0.4-0.2,8-0.7,8.5-0.7c0.7,0,1.4,0,2.1,0C214.4-47.6,214.8-47.6,215.2-47.6
			L215.2-47.6z M67.9-47.6c0-0.1,0-0.1,0-0.1c-2.4-0.2-4.8-0.2-7.1-0.2c-2.4-0.1-4.8-0.1-7.2-0.3c0,0.1,0,0.1,0,0.1
			c3.1,0.1,6.2,0.3,9.3,0.5C64.6-47.6,66.2-47.6,67.9-47.6L67.9-47.6z M240.6-49.1c0,0.1,0.1,0.1,0.1,0.1c1.7-0.2,3.3-0.3,5.1-0.4
			c1.7-0.2,9.4-0.6,11.2-0.8c-0.1-0.1-0.3-0.2-0.4-0.2c-0.9,0.1-7.7,0.6-8.6,0.7c-0.8,0-1.5,0.1-2.3,0.2c-0.7,0.1-1.4,0.2-2,0.2
			C242.4-49.5,241.6-49.3,240.6-49.1L240.6-49.1z M136.1-57.9c0.8,0.3,0.9,0.3,2,0.3c1.3,0,2.7,0.1,4,0.1c0.2,0,0.4,0,0.7,0
			C142.2-57.9,138.7-58.1,136.1-57.9L136.1-57.9z M182.6-51.8c2.1,0.3,9.8,0.5,10.7,0.4L182.6-51.8L182.6-51.8z M185.3-54.2L193-54
			c-0.2-0.2-0.3-0.3-0.4-0.5c-0.5,0.1-0.9,0.2-1.3,0.2c-1.5,0-3.1-0.1-4.6-0.1C186.2-54.3,185.7-54.4,185.3-54.2L185.3-54.2z
			 M177.9-46.1c0.2,0,0.4,0.1,0.5,0.1c0.9,0,1.7,0.1,2.5,0.2c0.5,0.1,1.1,0.2,1.6,0c-0.2-0.3-0.2-0.3-0.7-0.3c-0.3,0-0.8,0-0.9,0
			c-0.9-0.3-1.7-0.1-2.6-0.1C178.1-46.3,178.1-46.2,177.9-46.1L177.9-46.1z M182.1-50.7c0.8-0.1,1.5-0.2,2.3,0c0.4,0.1,1,0,1.5,0.1
			c-0.1-0.2-0.2-0.3-0.3-0.4c-1.5,0-3-0.1-4.4,0.2C181.5-50.9,181.8-50.8,182.1-50.7L182.1-50.7z M65-47.2c-2.9-0.2-5.7-0.3-8.8-0.4
			c0.4,0.1,0.5,0.1,0.5,0.1c2,0.1,4,0.1,6,0.4C63.4-47.1,64.2-47,65-47.2L65-47.2z M196.2-53.2c0,0.1,0,0.1-0.1,0.1
			c0.2,0.1,0.4,0.1,0.5,0.1c1.1-0.1,2.2,0.1,3.3,0c0.5,0,1-0.1,1.3-0.3c-0.7,0.1-1.3,0.1-1.9,0.1c-0.4,0-0.8,0-1.2,0
			C197.5-53.1,196.8-53.1,196.2-53.2L196.2-53.2z M181.4-54.9L181.4-54.9c2.3,0.2,4.5,0.2,6.8,0.4c0.3,0,0.5,0,0.8,0
			c-0.7-0.1-1.3-0.2-2-0.3c-1.2-0.1-2.3,0-3.5,0C182.8-54.8,182.1-54.8,181.4-54.9L181.4-54.9z M185.1-49.8
			c-1.2-0.4-1.6-0.5-2.9-0.3C182.9-49.8,183.6-49.7,185.1-49.8L185.1-49.8z M130-58c-1.2-0.1-2.5-0.2-3.7-0.3c-0.3,0-0.7,0-0.9,0.1
			C126.9-57.8,128.4-57.9,130-58L130-58z M217.7-51.1c-0.3-0.1-0.5-0.2-0.7-0.2c-0.4,0-0.9,0-1.3,0c-0.5,0-0.8,0.1-0.6,0.3
			s0.5,0.1,0.9,0.1C216.5-51,217-51.1,217.7-51.1L217.7-51.1z M212.2-51.3c-1.3-0.2-10.3,0.2-11,0.4C202.3-51,211.3-51.1,212.2-51.3
			L212.2-51.3z M197.1-52.2c0,0.3,0.7,0.3,1.1,0.3c0.4,0,0.9,0.1,0.8-0.2L197.1-52.2L197.1-52.2z M198.4-54.8
			c0.6,0.4,0.6,0.4,2.4,0.2C200-54.7,199.3-54.9,198.4-54.8L198.4-54.8z M195.9-51.3L195.9-51.3l4.3,0.2l0-0.1L195.9-51.3
			L195.9-51.3z M193.5-47.2L193.5-47.2l2.4,0.2l0-0.1L193.5-47.2L193.5-47.2z M127.9-54.3c0,0.1,0.1,0.1,0.1,0.1
			c0.7-0.1,1.5,0.1,2.2-0.1c-0.7-0.1-1.4-0.1-2.1-0.1C128.1-54.4,128-54.4,127.9-54.3L127.9-54.3z M198.1-55.6L198.1-55.6l3.5,0.1
			l0-0.1L198.1-55.6L198.1-55.6z M230.6-49.4c1,0.2,1,0.2,1.4-0.2C231.5-49.5,231-49.4,230.6-49.4L230.6-49.4z M218.2-47.6
			c0-0.1,0-0.1-0.1-0.1c-0.5,0-1.1-0.1-1.5,0.2C217.2-47.6,217.7-47.6,218.2-47.6L218.2-47.6z M213.5-49.5L213.5-49.5
			c-0.6,0-1.3-0.1-1.9,0l0,0.1C212.2-49.5,212.9-49.4,213.5-49.5L213.5-49.5z M75-47.8c0-0.1,0-0.1,0-0.1c-0.7,0-1.4-0.2-2.2,0.1
			C73.7-47.8,74.4-47.8,75-47.8L75-47.8z M62.2-48.2L62.2-48.2L65-48l0-0.1L62.2-48.2L62.2-48.2z M188.7-50.7
			c-0.7-0.3-0.7-0.3-1.5-0.1C187.8-50.7,188.2-50.7,188.7-50.7L188.7-50.7z M191.8-53.2c0-0.1,0-0.1,0-0.1c-0.5-0.1-1-0.2-1.5,0
			L191.8-53.2L191.8-53.2z M187.9-56.2L187.9-56.2l-2.1-0.1l0,0.1L187.9-56.2L187.9-56.2z M182.2-53.5c-0.5-0.1-0.8-0.3-1.5-0.1
			C181.3-53.4,181.6-53.3,182.2-53.5L182.2-53.5z M247-50.7c0,0.1,0.1,0.1,0.1,0.1c0.4,0,0.7,0,1.2-0.1
			C247.6-50.9,247.3-50.8,247-50.7L247-50.7z M214.4-47.1L214.4-47.1l-1.3-0.1c0,0.1,0,0.1,0,0.1C213.6-47.1,214-47.2,214.4-47.1
			L214.4-47.1z M194.1-49c0.7,0.2,0.8,0.2,1.2-0.1C194.9-49.1,194.6-49,194.1-49L194.1-49z M212.6-52L212.6-52
			c-0.6-0.1-9.1,0.4-9.7,0.3l0,0.1C203.5-51.6,212-52,212.6-52L212.6-52z M187.7-50.4c0-0.1,0-0.1,0-0.1c-0.4,0-0.7,0-1.1,0.1l0,0.1
			C187-50.4,187.4-50.4,187.7-50.4L187.7-50.4z M186.7-46.9C186.8-46.9,186.8-46.9,186.7-46.9l1.4,0.1l0-0.1L186.7-46.9L186.7-46.9z
			 M178.5-54.9L178.5-54.9l-1.6-0.1l0,0.1L178.5-54.9L178.5-54.9z M243.5-51.4c0.2,0.1,0.3,0.1,0.4,0.1c0.2,0,0.3,0,0.4-0.1
			c-0.1-0.1-0.2-0.1-0.3-0.1C243.9-51.5,243.8-51.4,243.5-51.4L243.5-51.4z M193-49.4c0.3,0.1,0.6,0.1,1,0.2
			C193.8-49.5,193.4-49.3,193-49.4L193-49.4z M236.9-48.8c0.1,0.1,0.1,0.1,0.2,0.1c0.2,0,0.4-0.1,0.6-0.2l-0.1-0.1
			C237.3-48.9,237.1-48.9,236.9-48.8L236.9-48.8z M121.9-55C121.9-55,121.9-55,121.9-55l1.3,0.1l0-0.1L121.9-55L121.9-55z
			 M122.6-58.1L122.6-58.1c0.4,0.1,0.7,0.1,1.1,0l0,0C123.3-58,123-58,122.6-58.1L122.6-58.1z M190.1-52.9c0.5,0.1,0.5,0.1,1,0
			C190.7-52.9,190.4-53,190.1-52.9L190.1-52.9z M213.6-51.2c-0.3-0.2-0.5-0.2-1.1-0.2C212.9-51.2,213.2-51.2,213.6-51.2L213.6-51.2z
			 M198.7-48.9C198.7-48.9,198.7-48.8,198.7-48.9l0.8,0.1l0-0.1L198.7-48.9L198.7-48.9z M199.4-44.8L199.4-44.8l-0.7-0.1l0,0.1
			C198.9-44.8,199.1-44.8,199.4-44.8L199.4-44.8z M181.8-46.8L181.8-46.8c0.3,0.1,0.5,0.1,0.8,0.1l0-0.1L181.8-46.8L181.8-46.8z
			 M190.4-52.4L190.4-52.4c-0.2-0.1-0.5-0.1-0.7-0.1c0,0,0,0,0,0.1C190-52.4,190.2-52.4,190.4-52.4L190.4-52.4z M192.2-52.3
			c-0.1-0.1-0.2-0.1-0.2-0.1c-0.1,0-0.2,0-0.3,0C191.8-52.3,192-52.3,192.2-52.3L192.2-52.3z"/>
		<path id="Fill-2" sketch:type="MSShapeGroup" class="st0" d="M217.9-51.2c1,0,11,0.4,12.1,0.4c0.1-0.1,0.1-0.2,0.3-0.3
			c0.2-0.1,0.7-0.2,0.9-0.1c0.9,0.2,1.3-0.1,1.7-0.2c0,0,0.1-0.1,0.3,0c0.5,0.1,0.9,0.2,1.5,0.3c0.3,0,0.6-0.1,1-0.1
			c0.1,0.1,0.2,0.2,0.3,0.3c0.6-0.1,1-0.2,1.4-0.3c0.5,0.1,1,0.2,1.5,0.3c-1.5,0.3-3.3-0.1-4.9,0.1c0.1,0.1,0.1,0.2,0.1,0.2
			c-0.2,0-0.5,0.1-1,0.1l3.5,0.1c0.1,0.1,0.2,0.2,0.3,0.3c-0.4-0.3-1-0.2-1.6-0.2c-0.4,0-0.7,0-1.1,0c-0.8,0-1.6-0.1-2.2,0.2
			c-0.2,0-0.5,0.1-0.8,0.1c-1,0-11.1-0.6-12.2-0.5c-0.1,0-0.4-0.1-0.7-0.1C218.3-50.8,218.6-51.1,217.9-51.2L217.9-51.2L217.9-51.2z
			 M219.1-50.9c0.9,0.2,10.7,0.9,11.6,0.5C229.7-50.4,220-50.9,219.1-50.9L219.1-50.9z M232.8-50.8L232.8-50.8
			c-0.3-0.1-0.5-0.1-0.8-0.1l0,0.1C232.3-50.8,232.6-50.8,232.8-50.8L232.8-50.8z"/>
		<path id="Fill-3" sketch:type="MSShapeGroup" class="st0" d="M120.9-57.4c1.3-0.2,2.8,0.1,4.2,0c1.4-0.1,2.8,0,4.2,0
			c1.4,0.1,2.8,0.2,4.3,0.3c-0.4,0-0.9,0.1-1.3,0.1c-1.3,0-2.7,0-4,0.1c-1.4,0-2.8,0-4.3-0.2c-0.5-0.1-1,0-1.5-0.1
			c-0.5,0-1,0-1.5-0.1C120.9-57.3,120.9-57.3,120.9-57.4"/>
		<path id="Fill-4" sketch:type="MSShapeGroup" class="st0" d="M215.9-44c0.4,0,0.9,0.1,1.4,0.1c1,0,1.9,0,2.9,0.1
			c0.3,0,9.5,0.5,9.8,0.7c-0.2,0-9.5-0.5-9.7-0.5c-0.7,0-1.5-0.1-2.2-0.1c-0.5,0-1.2-0.1-1.4,0.2c0,0.1-0.9,0.1-0.9,0.1
			c-0.4-0.2-0.9-0.1-1.4-0.1C214.9-43.7,215.4-43.8,215.9-44"/>
		<path id="Fill-5" sketch:type="MSShapeGroup" class="st0" d="M238.2-51.9c0.2-0.2,0.3-0.3,0.6-0.5c0.7,0,1.4,0,2.2,0l0,0.1
			c-0.4,0-0.8,0.1-1.2,0.1c0,0.1,0,0.1,0,0.1c0.5,0,1.1,0,1.6,0C240.3-51.9,239.4-51.8,238.2-51.9"/>
		<path id="Fill-6" sketch:type="MSShapeGroup" class="st0" d="M268.6-50L268.6-50c0.3-0.1,0.6-0.3,1-0.3c1.1,0,2-0.2,2.9-0.3
			c0.2,0,0.4,0,0.7,0c-1.4,0.2-2.9,0.5-4.3,0.7C268.7-49.8,268.6-49.9,268.6-50"/>
		<path id="Fill-7" sketch:type="MSShapeGroup" class="st0" d="M118.8-57.5l5.2,0.2c-0.9,0.1-1.9,0.1-2.9,0.2c-0.3,0-1,0.1-1-0.2
			c0,0-0.3,0-0.4,0C119.4-57.4,119.1-57.4,118.8-57.5C118.8-57.4,118.8-57.4,118.8-57.5"/>
		<path id="Fill-8" sketch:type="MSShapeGroup" class="st0" d="M243.2-46.2c-0.6,0-3.4,0.2-3.8,0.3c-0.4,0.1-0.8,0.1-1.3-0.1
			c0.3-0.1,0.6-0.2,0.8-0.2c1.3,0.1,2.6,0,3.7-0.2C243.1-46.4,243.1-46.3,243.2-46.2L243.2-46.2"/>
		<path id="Fill-9" sketch:type="MSShapeGroup" class="st0" d="M244.5-50.5c-1.3,0.2-2.6,0.3-4.1,0.2
			C241.7-50.7,243.2-50.4,244.5-50.5"/>
		<path id="Fill-10" sketch:type="MSShapeGroup" class="st0" d="M232.3-43.4c0.1,0,0.3,0,0.4,0l0,0c0.4,0.2,0.7,0.3,1.3,0.1
			c0.2,0,0.7,0,1,0c-0.5,0.1-1,0.2-1.7,0.2c-0.6-0.1-0.8,0-0.8,0.4c-0.5,0-1.1,0-1.6,0C231.9-42.9,232.1-43,232.3-43.4L232.3-43.4"
			/>
		<path id="Fill-11" sketch:type="MSShapeGroup" class="st0" d="M274.5-52.1c-1.2,0.5-2.6,0.6-4,0.8l-0.1-0.1
			C271.7-51.6,273.1-51.8,274.5-52.1"/>
		<path id="Fill-12" sketch:type="MSShapeGroup" class="st0" d="M105.1-58.7c-1.3,0-2.6,0.1-3.9,0.1c0-0.1,0-0.1,0-0.1
			c1.3-0.1,2.6-0.1,3.9-0.1C105.1-58.7,105.1-58.7,105.1-58.7"/>
		<path id="Fill-13" sketch:type="MSShapeGroup" class="st0" d="M128.8-57.2c0,0.1-0.1,0.2-0.1,0.4l-2.9-0.1
			C126.9-57,127.8-57.1,128.8-57.2"/>
		<path id="Fill-14" sketch:type="MSShapeGroup" class="st0" d="M245.3-46.5c0.6-0.1,1-0.2,1.5-0.3c0.2,0,0.5,0,0.8,0
			c-0.1,0.2-1.1,0.2-0.6,0.4c-0.3,0-0.6,0.1-0.9,0.1S245.6-46.4,245.3-46.5"/>
		<path id="Fill-15" sketch:type="MSShapeGroup" class="st0" d="M138.9-57c-1.4,0.1-2.9,0-4.3,0.1c0-0.1,0-0.1,0-0.1
			C136-57.2,137.4-57,138.9-57"/>
		<path id="Fill-16" sketch:type="MSShapeGroup" class="st0" d="M203.2-43.8c-1.1,0.2-2.6,0.2-3.8-0.1
			C200.7-43.9,202-43.9,203.2-43.8L203.2-43.8"/>
		<path id="Fill-17" sketch:type="MSShapeGroup" class="st0" d="M257.2-44.1c0.2,0.1,0.4,0.2,0.6,0.4c-0.2,0.2-0.7,0.2-1.6,0.3
			C256.4-43.6,256.7-43.8,257.2-44.1"/>
		<path id="Fill-18" sketch:type="MSShapeGroup" class="st0" d="M238.9-43.4c-0.8,0.1-1.3,0.6-2.4,0.2
			C237.1-43.6,238.1-43.4,238.9-43.4"/>
		<path id="Fill-19" sketch:type="MSShapeGroup" class="st0" d="M32.2-64.3c0.2,0.2,0.3,0.5,0.3,0.7c-0.1,0-0.3,0-0.4,0
			c-0.3-0.2-0.5-0.5-0.7-0.8"/>
		<path id="Fill-20" sketch:type="MSShapeGroup" class="st0" d="M185.6-42.9c-1,0.2-1.9,0-2.8,0c0.3-0.4,0.9,0.1,1.3-0.1
			C184.5-43.1,185-43,185.6-42.9"/>
		<path id="Fill-21" sketch:type="MSShapeGroup" class="st0" d="M232.7-43.5c0.8-0.1,1.4-0.3,2.4-0.3c0.2,0,0.4,0,0.7,0.1
			c-0.1,0.1-0.2,0.1-0.2,0.1C234.6-43.5,233.6-43.5,232.7-43.5L232.7-43.5"/>
		<path id="Fill-22" sketch:type="MSShapeGroup" class="st0" d="M219.8-46.8c-0.3-0.1-0.5-0.2-0.8-0.3c0.6,0,10.3,0.5,11.1,0.4
			C230-46.3,220.3-46.8,219.8-46.8L219.8-46.8"/>
		<path id="Fill-23" sketch:type="MSShapeGroup" class="st0" d="M232.3-43.4l-2-0.1c0.9-0.2,0.9-0.2,2.1-0.1
			C232.3-43.6,232.3-43.5,232.3-43.4L232.3-43.4"/>
		<path id="Fill-24" sketch:type="MSShapeGroup" class="st0" d="M258.4-47.6c0,0.1,0,0.1,0,0.2c-0.7-0.1-1.2,0.1-1.6,0.2
			c-0.3-0.1-0.7-0.2,0-0.3C257.3-47.5,257.9-47.6,258.4-47.6"/>
		<path id="Fill-25" sketch:type="MSShapeGroup" class="st0" d="M247.9-46.6c0.4-0.2,6.6-0.7,7.4-0.6
			C255.3-46.9,248.9-46.5,247.9-46.6"/>
		<path id="Fill-26" sketch:type="MSShapeGroup" class="st0" d="M242.6-43c-0.8,0.1-1.5,0.1-2.4,0.2C240.5-43,240.5-43,242.6-43"/>
		<path id="Fill-27" sketch:type="MSShapeGroup" class="st0" d="M193-42.7l2.1,0.1C194.3-42.5,193.7-42.5,193-42.7"/>
		<path id="Fill-28" sketch:type="MSShapeGroup" class="st0" d="M248-50.6c-0.5,0-1.1,0.1-1.6,0.2c-0.1,0-0.2,0-0.2,0
			C246.7-50.7,246.7-50.7,248-50.6"/>
		<path id="Fill-29" sketch:type="MSShapeGroup" class="st0" d="M65.3-46l-1.6-0.1C64.3-46.2,64.9-46.2,65.3-46"/>
		<path id="Fill-30" sketch:type="MSShapeGroup" class="st0" d="M256.6-50.3c0.2-0.3,0.7-0.2,1.3-0.2
			C257.6-50.3,257.2-50.3,256.6-50.3"/>
		<path id="Fill-31" sketch:type="MSShapeGroup" class="st0" d="M233.8-42.7c0.8-0.2,0.8-0.2,1.2,0.1L233.8-42.7"/>
		<path id="Fill-32" sketch:type="MSShapeGroup" class="st0" d="M196.8-55.4l-2-0.1C195.4-55.6,196.1-55.5,196.8-55.4"/>
		<path id="Fill-33" sketch:type="MSShapeGroup" class="st0" d="M257.3-46.9c-0.4,0.1-0.8,0.4-1.5,0.2
			C256.1-46.7,256.7-46.8,257.3-46.9"/>
		<path id="Fill-34" sketch:type="MSShapeGroup" class="st0" d="M263-44.1c0.4,0,0.9-0.1,1.3-0.1C264-44,263.6-43.9,263-44.1"/>
		<path id="Fill-35" sketch:type="MSShapeGroup" class="st0" d="M254.7-54.9c0.6,0,1.3-0.1,1.9-0.1c0,0.1,0,0.1,0.1,0.1
			C256.1-54.9,255.4-54.9,254.7-54.9C254.8-54.9,254.8-54.9,254.7-54.9"/>
		<path id="Fill-36" sketch:type="MSShapeGroup" class="st0" d="M240-43.4c0.6,0,0.9-0.1,1.3-0.1C241-43.4,240.9-43.2,240-43.4"/>
		<path id="Fill-37" sketch:type="MSShapeGroup" class="st0" d="M191.4-42.6c-0.4,0-0.7,0-1.2,0C190.7-42.8,190.7-42.8,191.4-42.6"
			/>
		<path id="Fill-38" sketch:type="MSShapeGroup" class="st0" d="M235.7-45.9c0.6-0.3,0.6-0.3,1.1,0
			C236.4-45.9,236.1-45.8,235.7-45.9"/>
		<path id="Fill-39" sketch:type="MSShapeGroup" class="st0" d="M243.6-45.4c0.1-0.2,0.2-0.3,0.2-0.4c0.1,0,0.3,0,0.3,0
			C244.1-45.6,244.4-45.4,243.6-45.4"/>
		<path id="Fill-40" sketch:type="MSShapeGroup" class="st0" d="M242.2-44.1c-0.5,0-0.9,0-1.3,0.1C241.1-44.3,241.5-44.3,242.2-44.1
			"/>
		<path id="Fill-41" sketch:type="MSShapeGroup" class="st0" d="M219.8-55.1c-0.4,0-0.7,0-1.1,0l0-0.1
			C219-55.2,219.4-55.2,219.8-55.1C219.7-55.2,219.7-55.1,219.8-55.1"/>
		<path id="Fill-42" sketch:type="MSShapeGroup" class="st0" d="M122.3-57.7c-0.3,0-0.7,0-1,0l0-0.1c0.4,0,0.7,0,1.1-0.1
			C122.5-57.8,122.4-57.7,122.3-57.7"/>
		<path id="Fill-43" sketch:type="MSShapeGroup" class="st0" d="M-19.6-58.3L-19.6-58.3c-0.2,0-0.4,0-0.7,0c0.1-0.1,0.2-0.2,0.4-0.2
			C-19.3-58.5-19.3-58.4-19.6-58.3"/>
		<path id="Fill-44" sketch:type="MSShapeGroup" class="st0" d="M92.4-45.6L91-45.7l0-0.1L92.4-45.6C92.4-45.7,92.4-45.6,92.4-45.6"
			/>
		<path id="Fill-45" sketch:type="MSShapeGroup" class="st0" d="M277.2-47.4c0.1-0.3,0.3-0.4,1.1-0.2
			C277.9-47.5,277.6-47.5,277.2-47.4"/>
		<path id="Fill-46" sketch:type="MSShapeGroup" class="st0" d="M242.1-52.4l1.1,0l0,0L242.1-52.4C242.2-52.3,242.2-52.4,242.1-52.4
			"/>
		<path id="Fill-47" sketch:type="MSShapeGroup" class="st0" d="M229.5-54.2c0.3,0,0.6,0.1,0.8,0.1c0,0.1,0,0.1,0,0.1
			c-0.3,0-9.6-0.6-9.9-0.6C220.4-54.7,229.4-54.2,229.5-54.2"/>
		<path id="Fill-48" sketch:type="MSShapeGroup" class="st0" d="M247.9-44.6c0.3,0,6.5-0.3,6.8-0.4l0.1,0.1c-0.2,0-6.5,0.4-6.7,0.5
			C248-44.4,248-44.5,247.9-44.6"/>
		<path id="Fill-49" sketch:type="MSShapeGroup" class="st0" d="M263.3-49.9c0.3,0,0.6,0,0.9-0.1C263.9-49.8,263.9-49.8,263.3-49.9"
			/>
		<path id="Fill-50" sketch:type="MSShapeGroup" class="st0" d="M247.9-46c0.2,0,0.4-0.1,0.5-0.1l0.1,0.1c-0.2,0-0.3,0.1-0.5,0.1
			C248-45.9,247.9-46,247.9-46"/>
		<path id="Fill-51" sketch:type="MSShapeGroup" class="st0" d="M68.9-46l-0.7,0l0-0.1L68.9-46C68.9-46,68.9-46,68.9-46"/>
		<path id="Fill-52" sketch:type="MSShapeGroup" class="st0" d="M216.2-55.3c0.2,0,0.5,0,0.7,0c0,0.1,0,0.1,0,0.1
			c-0.2,0-0.5,0-0.7,0C216.2-55.2,216.2-55.3,216.2-55.3"/>
		<path id="Fill-53" sketch:type="MSShapeGroup" class="st0" d="M189.3-42.7c-0.3,0-0.7,0-1,0c0,0,0-0.1-0.1-0.1c0.1,0,0.3,0,0.4,0
			c0.2,0,0.4,0,0.5,0C189.2-42.8,189.3-42.8,189.3-42.7"/>
		<path id="Fill-54" sketch:type="MSShapeGroup" class="st0" d="M263.2-48.8c0.1-0.1,0.2-0.2,0.2-0.2c0.1,0,0.2,0,0.2,0
			c0,0.1,0,0.1,0,0.1c0,0.1-0.1,0.1-0.1,0.1C263.4-48.7,263.3-48.8,263.2-48.8"/>
		<path id="Fill-55" sketch:type="MSShapeGroup" class="st0" d="M267.3-54.3l-0.7,0l0-0.1c0.2,0,0.5,0,0.7,0
			C267.3-54.4,267.3-54.3,267.3-54.3"/>
		<path id="Fill-56" sketch:type="MSShapeGroup" class="st0" d="M262-52.7c-0.3,0-0.5,0-0.8,0.1l-0.1-0.1c0.2,0,0.5-0.1,0.7-0.1
			C261.8-52.7,261.9-52.7,262-52.7"/>
		<path id="Fill-57" sketch:type="MSShapeGroup" class="st0" d="M-22.9-53.5c-0.1-0.1-0.2-0.2-0.4-0.2c0.1,0,0.2,0,0.3,0
			c0.1,0.1,0.2,0.2,0.3,0.2C-22.7-53.6-22.8-53.5-22.9-53.5"/>
		<path id="Fill-58" sketch:type="MSShapeGroup" class="st0" d="M216.6-43c-0.2,0-0.4,0-0.7,0l0-0.1C216.1-43,216.4-43.1,216.6-43
			L216.6-43"/>
		<path id="Fill-59" sketch:type="MSShapeGroup" class="st0" d="M240.9-51.1c0.3,0,0.7,0,1,0l0,0.1c-0.4,0-0.7,0-1.1,0
			C240.9-51,240.9-51,240.9-51.1"/>
		<path id="Fill-60" sketch:type="MSShapeGroup" class="st0" d="M238.7-47c0.2,0,0.5,0,0.7,0l0,0.1c-0.2,0-0.5,0-0.7,0.1
			C238.7-47,238.7-47,238.7-47"/>
		<path id="Fill-61" sketch:type="MSShapeGroup" class="st0" d="M243.2-46.2c0.4,0,0.5-0.3,1.1-0.1
			C243.9-46.3,243.6-46.3,243.2-46.2L243.2-46.2"/>
		<path id="Fill-62" sketch:type="MSShapeGroup" class="st0" d="M126-57.6l0.6,0l0,0L126-57.6L126-57.6"/>
		<path id="Fill-63" sketch:type="MSShapeGroup" class="st0" d="M124-57c0.1-0.1,0.2,0,0.3,0c0.1,0,0.2,0.1,0.3,0.1
			c-0.1,0.1-0.1,0.1-0.2,0C124.2-57,124.2-57,124-57"/>
		<path id="Fill-64" sketch:type="MSShapeGroup" class="st0" d="M231.3-54.4l-0.6,0l0-0.1L231.3-54.4
			C231.5-54.4,231.4-54.3,231.3-54.4"/>
		<path id="Fill-65" sketch:type="MSShapeGroup" class="st0" d="M101.6-58.3c0.2,0,0.4,0,0.7,0l0,0.1
			C102.1-58.3,101.9-58.3,101.6-58.3C101.6-58.3,101.6-58.3,101.6-58.3"/>
		<path id="Fill-66" sketch:type="MSShapeGroup" class="st0" d="M235.9-52.8c-0.3,0-0.6,0-0.9,0l0-0.1L235.9-52.8L235.9-52.8"/>
		<path id="Fill-67" sketch:type="MSShapeGroup" class="st0" d="M217.1-54.9c0.1,0.1,0.2,0.1,0.2,0.1c-0.1,0-0.2,0-0.3,0
			c0,0-0.2-0.1-0.1-0.1C216.9-54.8,217-54.8,217.1-54.9"/>
		<path id="Fill-68" sketch:type="MSShapeGroup" class="st0" d="M247.2-43.2c-0.2,0-0.4,0-0.6,0.1l-0.1-0.1
			C246.7-43.3,246.9-43.2,247.2-43.2C247.2-43.3,247.2-43.3,247.2-43.2"/>
		<path id="Fill-69" sketch:type="MSShapeGroup" class="st0" d="M-19.8-50.4c-0.1-0.1-0.1-0.1-0.2-0.2c0.1,0,0.1,0,0.2,0
			c0.1,0.1,0.1,0.1,0.2,0.2C-19.7-50.5-19.8-50.5-19.8-50.4"/>
		<path id="Fill-70" sketch:type="MSShapeGroup" class="st0" d="M246-42.8c-0.1-0.1-0.2-0.1-0.2-0.1c0-0.1,0.1-0.1,0.2-0.1
			c0.1,0,0.2,0.1,0.2,0.1C246.2-42.8,246.1-42.8,246-42.8"/>
		<path id="Fill-71" sketch:type="MSShapeGroup" class="st0" d="M198.9-42.5c-0.2,0-0.4,0-0.6,0c0,0,0,0,0-0.1
			C198.5-42.6,198.7-42.6,198.9-42.5L198.9-42.5"/>
		<path id="Fill-72" sketch:type="MSShapeGroup" class="st0" d="M269.6-49.5c-0.2,0-0.4,0-0.6,0.1c0,0,0-0.1-0.1-0.1
			C269.1-49.5,269.3-49.5,269.6-49.5C269.6-49.6,269.6-49.5,269.6-49.5"/>
		<path id="Fill-73" sketch:type="MSShapeGroup" class="st0" d="M266.9-49.6c-0.1,0.1,0.3,0.3-0.4,0.4
			C266.6-49.4,266.8-49.5,266.9-49.6L266.9-49.6"/>
		<path id="Fill-74" sketch:type="MSShapeGroup" class="st0" d="M238.7-50.2c-0.1-0.1-0.2-0.1-0.1-0.2c0-0.1,0.1-0.1,0.2-0.1
			c0.1,0,0.2,0.1,0.2,0.1C238.9-50.3,238.8-50.3,238.7-50.2"/>
		<path id="Fill-75" sketch:type="MSShapeGroup" class="st0" d="M261.4-47.3c0.2,0,0.4,0,0.5,0l0,0.1
			C261.7-47.3,261.6-47.3,261.4-47.3C261.4-47.2,261.4-47.3,261.4-47.3"/>
		<path id="Fill-76" sketch:type="MSShapeGroup" class="st0" d="M-21-58.5c-0.1-0.1-0.2-0.1-0.3-0.2c0.1,0,0.2,0,0.2,0
			c0.1,0.1,0.2,0.1,0.3,0.2C-20.8-58.5-20.9-58.5-21-58.5"/>
		<path id="Fill-77" sketch:type="MSShapeGroup" class="st0" d="M235.4-48.8c0.1-0.1,0.2-0.1,0.3-0.2c-0.4-0.1-0.7-0.1-1-0.2l0-0.1
			c0.6,0,1.2,0,2.1-0.1C236.3-49.1,236.3-48.8,235.4-48.8L235.4-48.8"/>
		<path id="Fill-78" sketch:type="MSShapeGroup" class="st0" d="M214.6-45.8c-0.5,0.1-0.9,0.2-1.3,0.3c-0.1-0.2-0.2-0.3-0.2-0.4
			L214.6-45.8"/>
		<path id="Fill-79" sketch:type="MSShapeGroup" class="st0" d="M220.7-48c-0.2-0.1,8.7,0.3,9.3,0.2C229.8-47.6,220.7-48.1,220.7-48
			L220.7-48"/>
	</g>
</g>
</svg>
