<svg xmlns="http://www.w3.org/2000/svg" xmlns:xlink="http://www.w3.org/1999/xlink" width="341" height="58" viewBox="0 0 341 58">
  <defs>
    <rect id="marquee-a" width="338" height="57.182" x="0" y="0"/>
    <path id="marquee-c" d="M11.3615057,37.4105114 C13.2691857,37.4105114 14.8146248,36.7283449 15.9978693,35.3639915 C17.1811139,33.9996381 17.7727273,32.2791297 17.7727273,30.2024148 L17.7727273,29.4598722 L18.2617188,29.4598722 L18.2617188,35.3277699 C17.2233613,36.3661274 16.154835,37.1267732 15.056108,37.6097301 C13.9573809,38.0926871 12.7137854,38.3341619 11.3252841,38.3341619 C9.20027347,38.3341619 7.32280645,37.697272 5.6928267,36.423473 C4.06284696,35.149674 2.81925145,33.4170919 1.96200284,31.2256747 C1.10475424,29.0342575 0.676136364,26.5681955 0.676136364,23.8274148 C0.676136364,21.1470036 1.15606764,18.6990523 2.1159446,16.4834872 C3.07582156,14.2679222 4.37374892,12.5323216 6.00976563,11.2766335 C7.64578233,10.0209454 9.42967784,9.3931108 11.3615057,9.3931108 C12.7862287,9.3931108 14.0449164,9.64364096 15.1376065,10.1447088 C16.2302967,10.6457767 17.271657,11.3973671 18.2617188,12.3995028 L18.2617188,18.3036222 L17.7727273,18.3036222 L17.7727273,17.959517 C17.7727273,15.7620629 17.1811139,13.9389277 15.9978693,12.4900568 C14.8146248,11.0411859 13.2691857,10.3167614 11.3615057,10.3167614 C9.69530417,10.3167614 8.24343659,10.9113932 7.00585938,12.1006747 C5.76828216,13.2899562 4.83558553,14.9018009 4.20774148,16.9362571 C3.57989743,18.9707133 3.26598011,21.2798166 3.26598011,23.8636364 C3.26598011,26.4353822 3.57989743,28.7384486 4.20774148,30.7729048 C4.83558553,32.807361 5.76828216,34.4222241 7.00585938,35.6175426 C8.24343659,36.8128611 9.69530417,37.4105114 11.3615057,37.4105114 Z M31.8267045,34.8025568 C31.126417,35.9254318 30.3959555,36.7947412 29.6352983,37.4105114 C28.8746411,38.0262815 27.9328891,38.3341619 26.8100142,38.3341619 C25.3611433,38.3341619 24.2624327,37.8119726 23.5138494,36.7675781 C22.7652661,35.7231837 22.3909801,34.3377217 22.3909801,32.6111506 L22.3909801,22.5234375 L20.4350142,22.5234375 L20.4350142,22.1974432 C21.895959,21.3039728 23.1576651,20.0664142 24.2201705,18.4847301 L24.4737216,18.4847301 L24.4737216,32.0678267 C24.4737216,33.5529194 24.7031227,34.6576668 25.1619318,35.3821023 C25.6207409,36.1065377 26.4417554,36.46875 27.625,36.46875 C28.5184704,36.46875 29.2670424,36.2846254 29.8707386,35.9163707 C30.4744348,35.5481161 31.126417,34.8931155 31.8267045,33.9513494 L31.8267045,22.5234375 L29.8526278,22.5234375 L29.8526278,22.1974432 C31.3135726,21.3039728 32.5752788,20.0664142 33.6377841,18.4847301 L33.8913352,18.4847301 L33.8913352,35.5450994 L35.8654119,35.9616477 L35.8654119,36.3238636 C34.4406889,37.0362252 33.1789828,37.7666866 32.0802557,38.5152699 L31.8267045,38.5152699 L31.8267045,34.8025568 Z M41.8963068,22.7226562 L41.8963068,35.7986506 C41.8963068,36.7887123 42.4396252,37.2837358 43.5262784,37.2837358 L43.9609375,37.2837358 L43.9609375,37.7727273 L37.7308239,37.7727273 L37.7308239,37.2837358 L38.1835938,37.2837358 C39.2702469,37.2837358 39.8135653,36.7887123 39.8135653,35.7986506 L39.8135653,22.5234375 L37.8394886,22.5234375 L37.8394886,22.1974432 C39.3004334,21.3039728 40.5621396,20.0664142 41.6246449,18.4847301 L41.8963068,18.4847301 L41.8963068,21.7446733 C42.9950339,19.6921062 44.1782607,18.6658381 45.4460227,18.6658381 C45.9772754,18.6658381 46.4028748,18.7986492 46.7228338,19.0642756 C47.0427928,19.3299019 47.2027699,19.7162617 47.2027699,20.2233665 C47.2027699,21.1651325 46.8043364,21.6360085 46.0074574,21.6360085 C45.6935354,21.6360085 45.3464153,21.5122527 44.9660866,21.2647372 C44.585758,21.0172218 44.2507117,20.8934659 43.9609375,20.8934659 C43.1519846,20.8934659 42.4637812,21.5031899 41.8963068,22.7226562 Z M52.4549006,22.7226562 L52.4549006,35.7986506 C52.4549006,36.7887123 52.998219,37.2837358 54.0848722,37.2837358 L54.5195313,37.2837358 L54.5195313,37.7727273 L48.2894176,37.7727273 L48.2894176,37.2837358 L48.7421875,37.2837358 C49.8288407,37.2837358 50.3721591,36.7887123 50.3721591,35.7986506 L50.3721591,22.5234375 L48.3980824,22.5234375 L48.3980824,22.1974432 C49.8590272,21.3039728 51.1207333,20.0664142 52.1832386,18.4847301 L52.4549006,18.4847301 L52.4549006,21.7446733 C53.5536277,19.6921062 54.7368545,18.6658381 56.0046165,18.6658381 C56.5358691,18.6658381 56.9614686,18.7986492 57.2814276,19.0642756 C57.6013865,19.3299019 57.7613636,19.7162617 57.7613636,20.2233665 C57.7613636,21.1651325 57.3629301,21.6360085 56.5660511,21.6360085 C56.2521291,21.6360085 55.905009,21.5122527 55.5246804,21.2647372 C55.1443518,21.0172218 54.8093054,20.8934659 54.5195313,20.8934659 C53.7105783,20.8934659 53.022375,21.5031899 52.4549006,22.7226562 Z M61.003196,26.90625 C61.003196,29.8885092 61.4318139,32.2157232 62.2890625,33.8879616 C63.1463111,35.5602001 64.371796,36.3963068 65.965554,36.3963068 C66.8107287,36.3963068 67.6045773,36.1095554 68.3471236,35.536044 C69.0896699,34.9625326 69.6541174,34.1264259 70.040483,33.0276989 L70.6019176,33.2088068 C70.0102953,34.935378 69.2828523,36.2212316 68.4195668,37.0664062 C67.5562812,37.9115809 66.4545522,38.3341619 65.1143466,38.3341619 C63.2428884,38.3341619 61.7065046,37.4195759 60.5051491,35.5903764 C59.3037937,33.7611769 58.703125,31.385668 58.703125,28.4637784 C58.703125,25.5660366 59.2856831,23.2086383 60.4508168,21.3915128 C61.6159504,19.5743872 63.1100761,18.6658381 64.9332386,18.6658381 C66.2734442,18.6658381 67.435542,19.1729353 68.4195668,20.1871449 C69.4035916,21.2013545 70.0585921,22.6622774 70.3845881,24.5699574 L61.2205256,24.3526278 C61.0756385,25.1615807 61.003196,26.0127796 61.003196,26.90625 Z M64.897017,19.5894886 C64.0397684,19.5894886 63.309307,19.9577378 62.7056108,20.6942472 C62.1019146,21.4307565 61.6551861,22.4147666 61.3654119,23.6463068 L67.4868608,23.6463068 C67.6076,23.6463068 67.6860794,23.6161225 67.7223011,23.5557528 C67.7585229,23.4953832 67.7766335,23.3867195 67.7766335,23.2297585 C67.7766335,22.1068836 67.544214,21.2194635 67.0793679,20.5674716 C66.6145218,19.9154797 65.8870788,19.5894886 64.897017,19.5894886 Z M86.4307528,25.131392 L86.4307528,35.7986506 C86.4307528,36.2574597 86.5665824,36.619672 86.8382457,36.8852983 C87.109909,37.1509246 87.511361,37.2837358 88.0426136,37.2837358 L88.5134943,37.2837358 L88.5134943,37.7727273 L82.2471591,37.7727273 L82.2471591,37.2837358 L82.7361506,37.2837358 C83.8228037,37.2837358 84.3661222,36.7887123 84.3661222,35.7986506 L84.3661222,25.6747159 C84.3661222,23.9722926 84.115592,22.6954943 83.6145241,21.8442827 C83.1134563,20.993071 82.2350915,20.5674716 80.9794034,20.5674716 C79.2528323,20.5674716 77.7737988,21.4186705 76.5422585,23.1210938 L76.5422585,35.7986506 C76.5422585,36.7887123 77.085577,37.2837358 78.1722301,37.2837358 L78.6068892,37.2837358 L78.6068892,37.7727273 L72.3767756,37.7727273 L72.3767756,37.2837358 L72.8295455,37.2837358 C73.9161986,37.2837358 74.459517,36.7887123 74.459517,35.7986506 L74.459517,22.5234375 L72.4854403,22.5234375 L72.4854403,22.1974432 C73.9463851,21.3039728 75.2080913,20.0664142 76.2705966,18.4847301 L76.5422585,18.4847301 L76.5422585,22.2336648 C77.2908418,21.086642 78.0635614,20.2052588 78.8604403,19.5894886 C79.6573193,18.9737185 80.6352925,18.6658381 81.7943892,18.6658381 C83.3036297,18.6658381 84.4536537,19.2574515 85.2444957,20.440696 C86.0353378,21.6239406 86.4307528,23.1874903 86.4307528,25.131392 Z M94.1459517,19.2272727 L97.8948864,19.2272727 L97.6051136,20.5674716 L94.1821733,20.5674716 L94.1821733,34.3678977 C94.1821733,35.1527028 94.3089476,35.7262056 94.5625,36.0884233 C94.8160524,36.450641 95.2205228,36.6317472 95.7759233,36.6317472 C96.5245066,36.6317472 97.2428943,36.2453874 97.931108,35.4726562 L98.2027699,35.762429 C97.3092995,37.344113 96.1200358,38.1349432 94.6349432,38.1349432 C92.9566677,38.1349432 92.1175426,37.0000113 92.1175426,34.7301136 L92.1175426,20.5674716 L90.4151278,20.5674716 L90.4151278,20.2958097 C91.8398509,18.9797519 92.9989302,17.4101654 93.8924006,15.5870028 L94.1459517,15.5870028 L94.1459517,19.2272727 Z M105.791193,37.7727273 L99.5610795,37.7727273 L99.5610795,37.2837358 L100.013849,37.2837358 C101.100503,37.2837358 101.643821,36.7887123 101.643821,35.7986506 L101.643821,13.2507102 L99.6335227,13.2507102 L99.6335227,12.8884943 C101.07032,12.139911 102.3441,10.9144261 103.454901,9.21200284 L103.726563,9.21200284 L103.726563,35.7986506 C103.726563,36.7887123 104.269881,37.2837358 105.356534,37.2837358 L105.791193,37.2837358 L105.791193,37.7727273 Z M109.35902,47.715554 C108.851915,47.715554 108.453482,47.6038719 108.163707,47.3805043 C107.873933,47.1571367 107.729048,46.8462378 107.729048,46.4477983 C107.729048,46.1097284 107.825638,45.8350508 108.018821,45.6237571 C108.212004,45.4124634 108.483663,45.3068182 108.833807,45.3068182 C109.171877,45.3068182 109.491831,45.430574 109.793679,45.6780895 C110.095527,45.9256049 110.367186,46.0493608 110.608665,46.0493608 C110.934661,46.0493608 111.236504,45.8833468 111.514205,45.5513139 C111.791905,45.219281 112.087711,44.6186123 112.401634,43.7492898 C112.932886,42.1796797 113.42791,40.5557612 113.886719,38.8774858 L108.725142,22.1612216 C108.218037,20.5553897 107.475502,19.7524858 106.497514,19.7524858 L106.316406,19.7524858 L106.316406,19.2272727 L112.582741,19.2272727 L112.582741,19.7524858 L111.840199,19.7524858 C111.260651,19.7524858 110.916549,19.9909422 110.807884,20.4678622 C110.699218,20.9447822 110.759587,21.497156 110.988991,22.125 L114.774148,35.2553267 L117.925426,22.125 C118.009944,21.7748562 118.067294,21.4790495 118.097479,21.237571 C118.127664,20.9960925 118.127664,20.7515992 118.097479,20.5040838 C118.067294,20.2565684 117.967686,20.0694253 117.798651,19.9426491 C117.629616,19.8158729 117.388141,19.7524858 117.074219,19.7524858 L116.295455,19.7524858 L116.295455,19.2272727 L121.040483,19.2272727 L121.040483,19.7524858 L120.823153,19.7524858 C119.881387,19.7524858 119.211295,20.5553897 118.812855,22.1612216 L114.882813,37.7002841 C114.327412,39.8735904 113.814278,41.6484306 113.343395,43.024858 C112.872512,44.4012853 112.407673,45.4215166 111.948864,46.0855824 C111.490055,46.7496482 111.07351,47.1873214 110.699219,47.3986151 C110.324927,47.6099087 109.878199,47.715554 109.35902,47.715554 Z M134.225142,37.7727273 L127.995028,37.7727273 L127.995028,37.2837358 L128.447798,37.2837358 C129.534451,37.2837358 130.07777,36.7887123 130.07777,35.7986506 L130.07777,13.2507102 L128.067472,13.2507102 L128.067472,12.8884943 C129.504269,12.139911 130.778048,10.9144261 131.888849,9.21200284 L132.160511,9.21200284 L132.160511,35.7986506 C132.160511,36.7887123 132.70383,37.2837358 133.790483,37.2837358 L134.225142,37.2837358 L134.225142,37.7727273 Z M148.043679,35.5088778 C146.739695,37.39241 145.10974,38.3341619 143.153764,38.3341619 C141.197789,38.3341619 139.567833,37.39241 138.263849,35.5088778 C136.959866,33.6253457 136.307884,31.2890764 136.307884,28.5 C136.307884,25.7109236 136.959866,23.3746543 138.263849,21.4911222 C139.567833,19.60759 141.197789,18.6658381 143.153764,18.6658381 C145.10974,18.6658381 146.742714,19.60759 148.052734,21.4911222 C149.362755,23.3746543 150.017756,25.7109236 150.017756,28.5 C150.017756,31.2890764 149.359737,33.6253457 148.043679,35.5088778 Z M146.522372,22.0706676 C145.761715,20.41654 144.638857,19.5894886 143.153764,19.5894886 C141.668672,19.5894886 140.545813,20.4135216 139.785156,22.0616122 C139.024499,23.7097028 138.644176,25.8558106 138.644176,28.5 C138.644176,31.1441894 139.024499,33.2902972 139.785156,34.9383878 C140.545813,36.5864784 141.668672,37.4105114 143.153764,37.4105114 C144.638857,37.4105114 145.764733,36.5864784 146.531428,34.9383878 C147.298122,33.2902972 147.681463,31.1441894 147.681463,28.5 C147.681463,25.8558106 147.295103,23.7127213 146.522372,22.0706676 Z M164.126065,35.5088778 C162.822082,37.39241 161.192126,38.3341619 159.236151,38.3341619 C157.280175,38.3341619 155.65022,37.39241 154.346236,35.5088778 C153.042252,33.6253457 152.39027,31.2890764 152.39027,28.5 C152.39027,25.7109236 153.042252,23.3746543 154.346236,21.4911222 C155.65022,19.60759 157.280175,18.6658381 159.236151,18.6658381 C161.192126,18.6658381 162.8251,19.60759 164.135121,21.4911222 C165.445141,23.3746543 166.100142,25.7109236 166.100142,28.5 C166.100142,31.2890764 165.442123,33.6253457 164.126065,35.5088778 Z M162.604759,22.0706676 C161.844101,20.41654 160.721243,19.5894886 159.236151,19.5894886 C157.751058,19.5894886 156.6282,20.4135216 155.867543,22.0616122 C155.106885,23.7097028 154.726563,25.8558106 154.726563,28.5 C154.726563,31.1441894 155.106885,33.2902972 155.867543,34.9383878 C156.6282,36.5864784 157.751058,37.4105114 159.236151,37.4105114 C160.721243,37.4105114 161.84712,36.5864784 162.613814,34.9383878 C163.380508,33.2902972 163.763849,31.1441894 163.763849,28.5 C163.763849,25.8558106 163.37749,23.7127213 162.604759,22.0706676 Z M172.239702,35.7986506 C172.239702,36.7887123 172.789057,37.2837358 173.887784,37.2837358 L174.322443,37.2837358 L174.322443,37.7727273 L168.09233,37.7727273 L168.09233,37.2837358 L168.545099,37.2837358 C169.631753,37.2837358 170.175071,36.7887123 170.175071,35.7986506 L170.175071,13.2869318 L168.164773,13.2869318 L168.164773,12.9247159 C169.577422,12.1882065 170.851202,10.9506479 171.986151,9.21200284 L172.239702,9.21200284 L172.239702,28.8259943 L176.803622,22.125 C177.310727,21.3643428 177.534091,20.7727294 177.473722,20.350142 C177.413352,19.9275547 177.081324,19.7162642 176.477628,19.7162642 L175.735085,19.7162642 L175.735085,19.2272727 L181.222656,19.2272727 L181.222656,19.7162642 L180.769886,19.7162642 C179.840194,19.7162642 178.801852,20.5312419 177.65483,22.1612216 L174.738991,26.3448153 L179.447798,34.8387784 C180.353343,36.4687581 181.355463,37.2837358 182.45419,37.2837358 L182.67152,37.2837358 L182.67152,37.7727273 L176.368963,37.7727273 L176.368963,37.2837358 L176.803622,37.2837358 C177.334875,37.2837358 177.618608,37.0754637 177.65483,36.6589134 C177.691051,36.242363 177.55824,35.7865792 177.256392,35.2915483 L173.471236,28.1740057 L172.239702,29.9488636 L172.239702,35.7986506 Z M186.54723,14.4460227 C186.112569,14.4460227 185.765449,14.3222669 185.505859,14.0747514 C185.24627,13.827236 185.116477,13.4921896 185.116477,13.0696023 C185.116477,12.6470149 185.249288,12.2998948 185.514915,12.0282315 C185.780541,11.7565682 186.124643,11.6207386 186.54723,11.6207386 C186.957744,11.6207386 187.301845,11.7565682 187.579545,12.0282315 C187.857246,12.2998948 187.996094,12.6470149 187.996094,13.0696023 C187.996094,13.4921896 187.860264,13.827236 187.588601,14.0747514 C187.316938,14.3222669 186.969817,14.4460227 186.54723,14.4460227 Z M187.597656,35.7986506 C187.597656,36.7887123 188.140975,37.2837358 189.227628,37.2837358 L189.662287,37.2837358 L189.662287,37.7727273 L183.432173,37.7727273 L183.432173,37.2837358 L183.884943,37.2837358 C184.971596,37.2837358 185.514915,36.7887123 185.514915,35.7986506 L185.514915,22.5234375 L183.558949,22.5234375 L183.558949,22.1974432 C185.00782,21.3160467 186.263489,20.0784881 187.325994,18.4847301 L187.597656,18.4847301 L187.597656,35.7986506 Z M205.599787,25.131392 L205.599787,35.7986506 C205.599787,36.2574597 205.735617,36.619672 206.00728,36.8852983 C206.278943,37.1509246 206.680395,37.2837358 207.211648,37.2837358 L207.682528,37.2837358 L207.682528,37.7727273 L201.416193,37.7727273 L201.416193,37.2837358 L201.905185,37.2837358 C202.991838,37.2837358 203.535156,36.7887123 203.535156,35.7986506 L203.535156,25.6747159 C203.535156,23.9722926 203.284626,22.6954943 202.783558,21.8442827 C202.28249,20.993071 201.404126,20.5674716 200.148438,20.5674716 C198.421866,20.5674716 196.942833,21.4186705 195.711293,23.1210938 L195.711293,35.7986506 C195.711293,36.7887123 196.254611,37.2837358 197.341264,37.2837358 L197.775923,37.2837358 L197.775923,37.7727273 L191.54581,37.7727273 L191.54581,37.2837358 L191.99858,37.2837358 C193.085233,37.2837358 193.628551,36.7887123 193.628551,35.7986506 L193.628551,22.5234375 L191.654474,22.5234375 L191.654474,22.1974432 C193.115419,21.3039728 194.377125,20.0664142 195.439631,18.4847301 L195.711293,18.4847301 L195.711293,22.2336648 C196.459876,21.086642 197.232595,20.2052588 198.029474,19.5894886 C198.826353,18.9737185 199.804327,18.6658381 200.963423,18.6658381 C202.472664,18.6658381 203.622688,19.2574515 204.41353,20.440696 C205.204372,21.6239406 205.599787,23.1874903 205.599787,25.131392 Z M209.946378,25.2400568 C209.946378,23.3927464 210.423291,21.8352336 211.377131,20.5674716 C212.330971,19.2997096 213.520234,18.6658381 214.944957,18.6658381 C215.681467,18.6658381 216.375707,18.8529811 217.027699,19.2272727 L221.066406,19.2272727 L220.849077,20.5674716 L218.512784,20.5674716 C219.478698,21.8714554 219.961648,23.4289682 219.961648,25.2400568 C219.961648,27.0994411 219.481716,28.6629908 218.521839,29.9307528 C217.561963,31.1985149 216.36968,31.8323864 214.944957,31.8323864 C214.353335,31.8323864 213.761722,31.6995752 213.170099,31.4339489 C212.518108,31.8203144 212.059305,32.191582 211.793679,32.5477628 C211.528053,32.9039435 211.395241,33.3114324 211.395241,33.7702415 C211.395241,34.3497898 211.53409,34.7904814 211.81179,35.0923295 C212.08949,35.3941776 212.602624,35.5450994 213.351207,35.5450994 L216.14027,35.5450994 C217.975506,35.5450994 219.26136,35.985791 219.997869,36.8671875 C220.734379,37.748584 221.102628,38.9801057 221.102628,40.5617898 C221.102628,42.5056915 220.44159,44.1658381 219.119496,45.5422585 C217.797401,46.9186859 216.176501,47.6068892 214.256747,47.6068892 C212.457732,47.6068892 211.135658,47.1541238 210.290483,46.2485795 C209.445308,45.3430352 209.022727,44.1839559 209.022727,42.7713068 C209.022727,40.8877747 209.934295,39.1853769 211.757457,37.6640625 C210.501769,37.2776969 209.873935,36.28765 209.873935,34.693892 C209.873935,33.9694566 210.09428,33.2872901 210.534979,32.6473722 C210.975677,32.0074542 211.594456,31.452062 212.391335,30.981179 C211.642752,30.4016306 211.04812,29.6047636 210.607422,28.590554 C210.166724,27.5763444 209.946378,26.4595231 209.946378,25.2400568 Z M217.806463,25.2400568 C217.806463,23.4531161 217.543859,22.0736909 217.018643,21.1017401 C216.493428,20.1297892 215.802206,19.643821 214.944957,19.643821 C214.075635,19.643821 213.384413,20.1267707 212.871271,21.0926847 C212.35813,22.0585986 212.101563,23.4410421 212.101563,25.2400568 C212.101563,27.0511454 212.35813,28.4426443 212.871271,29.4145952 C213.384413,30.3865461 214.075635,30.8725142 214.944957,30.8725142 C215.802206,30.8725142 216.493428,30.3865461 217.018643,29.4145952 C217.543859,28.4426443 217.806463,27.0511454 217.806463,25.2400568 Z M210.471591,41.8476562 C210.471591,43.0309008 210.827766,44.0028371 211.540128,44.7634943 C212.252489,45.5241515 213.327052,45.9044744 214.763849,45.9044744 C216.417977,45.9044744 217.727978,45.4335985 218.693892,44.4918324 C219.659806,43.5500663 220.142756,42.3245814 220.142756,40.8153409 C220.142756,39.7649095 219.828838,39.0072822 219.200994,38.5424361 C218.57315,38.07759 217.577066,37.8451705 216.212713,37.8451705 L213.170099,37.8451705 C212.916547,37.8451705 212.729404,37.8330967 212.608665,37.8089489 C212.113634,38.2073884 211.712182,38.599785 211.404297,38.9861506 C211.096412,39.3725161 210.879084,39.7468022 210.752308,40.1090199 C210.625532,40.4712376 210.547053,40.7670443 210.516868,40.9964489 C210.486683,41.2258534 210.471591,41.5095864 210.471591,41.8476562 Z M233.90696,35.7986506 C233.90696,36.7887123 234.450279,37.2837358 235.536932,37.2837358 L235.971591,37.2837358 L235.971591,37.7727273 L229.741477,37.7727273 L229.741477,37.2837358 L230.194247,37.2837358 C231.2809,37.2837358 231.824219,36.7887123 231.824219,35.7986506 L231.824219,20.5674716 L229.741477,20.5674716 L229.741477,20.2595881 L231.824219,19.2634943 C231.944958,16.3416047 232.687493,13.9992986 234.051847,12.2365057 C235.4162,10.4737128 236.949565,9.59232955 238.651989,9.59232955 C239.581681,9.59232955 240.351382,9.7915463 240.961115,10.1899858 C241.570848,10.5884253 241.87571,11.1136331 241.87571,11.765625 C241.87571,12.079547 241.791194,12.3270588 241.622159,12.5081676 C241.453124,12.6892765 241.22976,12.7798295 240.95206,12.7798295 C240.722655,12.7798295 240.517401,12.713424 240.336293,12.5806108 C240.155184,12.4477976 239.995207,12.290839 239.856357,12.1097301 C239.717506,11.9286213 239.566585,11.7444967 239.403587,11.5573509 C239.240589,11.370205 239.023261,11.2102279 238.751598,11.0774148 C238.479935,10.9446016 238.162999,10.878196 237.800781,10.878196 C236.665832,10.878196 235.733136,11.349072 235.002663,12.2908381 C234.272191,13.2326041 233.90696,14.7780432 233.90696,16.9272017 L233.90696,19.2272727 L237.76456,19.2272727 L237.492898,20.5674716 L233.90696,20.5674716 L233.90696,35.7986506 Z M250.424006,35.5088778 C249.120022,37.39241 247.490067,38.3341619 245.534091,38.3341619 C243.578115,38.3341619 241.94816,37.39241 240.644176,35.5088778 C239.340192,33.6253457 238.68821,31.2890764 238.68821,28.5 C238.68821,25.7109236 239.340192,23.3746543 240.644176,21.4911222 C241.94816,19.60759 243.578115,18.6658381 245.534091,18.6658381 C247.490067,18.6658381 249.12304,19.60759 250.433061,21.4911222 C251.743082,23.3746543 252.398082,25.7109236 252.398082,28.5 C252.398082,31.2890764 251.740063,33.6253457 250.424006,35.5088778 Z M248.902699,22.0706676 C248.142042,20.41654 247.019184,19.5894886 245.534091,19.5894886 C244.048998,19.5894886 242.92614,20.4135216 242.165483,22.0616122 C241.404826,23.7097028 241.024503,25.8558106 241.024503,28.5 C241.024503,31.1441894 241.404826,33.2902972 242.165483,34.9383878 C242.92614,36.5864784 244.048998,37.4105114 245.534091,37.4105114 C247.019184,37.4105114 248.14506,36.5864784 248.911754,34.9383878 C249.678448,33.2902972 250.06179,31.1441894 250.06179,28.5 C250.06179,25.8558106 249.67543,23.7127213 248.902699,22.0706676 Z M258.736861,22.7226562 L258.736861,35.7986506 C258.736861,36.7887123 259.280179,37.2837358 260.366832,37.2837358 L260.801491,37.2837358 L260.801491,37.7727273 L254.571378,37.7727273 L254.571378,37.2837358 L255.024148,37.2837358 C256.110801,37.2837358 256.654119,36.7887123 256.654119,35.7986506 L256.654119,22.5234375 L254.680043,22.5234375 L254.680043,22.1974432 C256.140987,21.3039728 257.402694,20.0664142 258.465199,18.4847301 L258.736861,18.4847301 L258.736861,21.7446733 C259.835588,19.6921062 261.018815,18.6658381 262.286577,18.6658381 C262.817829,18.6658381 263.243429,18.7986492 263.563388,19.0642756 C263.883347,19.3299019 264.043324,19.7162617 264.043324,20.2233665 C264.043324,21.1651325 263.64489,21.6360085 262.848011,21.6360085 C262.534089,21.6360085 262.186969,21.5122527 261.806641,21.2647372 C261.426312,21.0172218 261.091266,20.8934659 260.801491,20.8934659 C259.992539,20.8934659 259.304335,21.5031899 258.736861,22.7226562 Z M275.670455,22.7226562 L275.670455,35.7986506 C275.670455,36.7887123 276.213773,37.2837358 277.300426,37.2837358 L277.735085,37.2837358 L277.735085,37.7727273 L271.504972,37.7727273 L271.504972,37.2837358 L271.957741,37.2837358 C273.044395,37.2837358 273.587713,36.7887123 273.587713,35.7986506 L273.587713,22.5234375 L271.613636,22.5234375 L271.613636,22.1974432 C273.074581,21.3039728 274.336287,20.0664142 275.398793,18.4847301 L275.670455,18.4847301 L275.670455,21.7446733 C276.769182,19.6921062 277.952408,18.6658381 279.22017,18.6658381 C279.751423,18.6658381 280.177023,18.7986492 280.496982,19.0642756 C280.816941,19.3299019 280.976918,19.7162617 280.976918,20.2233665 C280.976918,21.1651325 280.578484,21.6360085 279.781605,21.6360085 C279.467683,21.6360085 279.120563,21.5122527 278.740234,21.2647372 C278.359906,21.0172218 278.024859,20.8934659 277.735085,20.8934659 C276.926132,20.8934659 276.237929,21.5031899 275.670455,22.7226562 Z M284.21875,26.90625 C284.21875,29.8885092 284.647368,32.2157232 285.504616,33.8879616 C286.361865,35.5602001 287.58735,36.3963068 289.181108,36.3963068 C290.026283,36.3963068 290.820131,36.1095554 291.562678,35.536044 C292.305224,34.9625326 292.869671,34.1264259 293.256037,33.0276989 L293.817472,33.2088068 C293.225849,34.935378 292.498406,36.2212316 291.635121,37.0664062 C290.771835,37.9115809 289.670106,38.3341619 288.329901,38.3341619 C286.458442,38.3341619 284.922059,37.4195759 283.720703,35.5903764 C282.519348,33.7611769 281.918679,31.385668 281.918679,28.4637784 C281.918679,25.5660366 282.501237,23.2086383 283.666371,21.3915128 C284.831504,19.5743872 286.32563,18.6658381 288.148793,18.6658381 C289.488998,18.6658381 290.651096,19.1729353 291.635121,20.1871449 C292.619146,21.2013545 293.274146,22.6622774 293.600142,24.5699574 L284.43608,24.3526278 C284.291192,25.1615807 284.21875,26.0127796 284.21875,26.90625 Z M288.112571,19.5894886 C287.255322,19.5894886 286.524861,19.9577378 285.921165,20.6942472 C285.317469,21.4307565 284.87074,22.4147666 284.580966,23.6463068 L290.702415,23.6463068 C290.823154,23.6463068 290.901633,23.6161225 290.937855,23.5557528 C290.974077,23.4953832 290.992188,23.3867195 290.992188,23.2297585 C290.992188,22.1068836 290.759768,21.2194635 290.294922,20.5674716 C289.830076,19.9154797 289.102633,19.5894886 288.112571,19.5894886 Z M313.14169,37.7727273 L313.14169,37.2837358 L313.630682,37.2837358 C314.717335,37.2837358 315.260653,36.7887123 315.260653,35.7986506 L315.260653,25.6747159 C315.260653,23.9239969 315.067474,22.6351249 314.681108,21.8080611 C314.294742,20.9809973 313.558244,20.5674716 312.471591,20.5674716 C311.879969,20.5674716 311.357779,20.66708 310.905007,20.8662997 C310.452235,21.0655195 310.05682,21.3251049 309.71875,21.6450639 C309.38068,21.9650229 308.939989,22.4570279 308.396662,23.1210938 C308.493253,23.6523464 308.541548,24.3224391 308.541548,25.131392 L308.541548,35.7986506 C308.541548,36.7887123 309.084867,37.2837358 310.17152,37.2837358 L310.660511,37.2837358 L310.660511,37.7727273 L304.357955,37.7727273 L304.357955,37.2837358 L304.828835,37.2837358 C305.915488,37.2837358 306.458807,36.7887123 306.458807,35.7986506 L306.458807,25.6747159 C306.458807,23.9360709 306.25959,22.6502172 305.861151,21.8171165 C305.462711,20.9840157 304.738287,20.5674716 303.687855,20.5674716 C302.830607,20.5674716 302.14844,20.7455593 301.641335,21.1017401 C301.13423,21.4579208 300.506396,22.1189582 299.757813,23.0848722 L299.757813,35.7986506 C299.757813,36.7887123 300.301131,37.2837358 301.387784,37.2837358 L301.822443,37.2837358 L301.822443,37.7727273 L295.59233,37.7727273 L295.59233,37.2837358 L296.045099,37.2837358 C297.131753,37.2837358 297.675071,36.7887123 297.675071,35.7986506 L297.675071,22.5234375 L295.700994,22.5234375 L295.700994,22.1974432 C297.161939,21.3039728 298.423645,20.0664142 299.486151,18.4847301 L299.757813,18.4847301 L299.757813,22.2698864 C300.132104,21.690338 300.446021,21.2345542 300.699574,20.9025213 C300.953126,20.5704884 301.276099,20.2052577 301.668501,19.8068182 C302.060904,19.4083787 302.480467,19.1186089 302.927202,18.9375 C303.373937,18.7563911 303.862923,18.6658381 304.394176,18.6658381 C306.410521,18.6658381 307.708449,19.9154705 308.287997,22.4147727 C308.650215,21.8352244 308.976206,21.3552931 309.26598,20.9749645 C309.555754,20.5946359 309.902874,20.2112945 310.307351,19.824929 C310.711827,19.4385634 311.155537,19.1487936 311.638494,18.9556108 C312.121451,18.762428 312.646659,18.6658381 313.214134,18.6658381 C314.602635,18.6658381 315.63494,19.2483962 316.31108,20.4135298 C316.987219,21.5786635 317.325284,23.1512685 317.325284,25.131392 L317.325284,35.7986506 C317.325284,36.2574597 317.461114,36.619672 317.732777,36.8852983 C318.00444,37.1509246 318.417966,37.2837358 318.973366,37.2837358 L319.444247,37.2837358 L319.444247,37.7727273 L313.14169,37.7727273 Z M333.045455,35.5088778 C331.741471,37.39241 330.111515,38.3341619 328.15554,38.3341619 C326.199564,38.3341619 324.569609,37.39241 323.265625,35.5088778 C321.961641,33.6253457 321.309659,31.2890764 321.309659,28.5 C321.309659,25.7109236 321.961641,23.3746543 323.265625,21.4911222 C324.569609,19.60759 326.199564,18.6658381 328.15554,18.6658381 C330.111515,18.6658381 331.744489,19.60759 333.05451,21.4911222 C334.364531,23.3746543 335.019531,25.7109236 335.019531,28.5 C335.019531,31.2890764 334.361512,33.6253457 333.045455,35.5088778 Z M331.524148,22.0706676 C330.763491,20.41654 329.640632,19.5894886 328.15554,19.5894886 C326.670447,19.5894886 325.547589,20.4135216 324.786932,22.0616122 C324.026275,23.7097028 323.645952,25.8558106 323.645952,28.5 C323.645952,31.1441894 324.026275,33.2902972 324.786932,34.9383878 C325.547589,36.5864784 326.670447,37.4105114 328.15554,37.4105114 C329.640632,37.4105114 330.766509,36.5864784 331.533203,34.9383878 C332.299897,33.2902972 332.683239,31.1441894 332.683239,28.5 C332.683239,25.8558106 332.296879,23.7127213 331.524148,22.0706676 Z M341.122869,19.2272727 L344.871804,19.2272727 L344.582031,20.5674716 L341.159091,20.5674716 L341.159091,34.3678977 C341.159091,35.1527028 341.285865,35.7262056 341.539418,36.0884233 C341.79297,36.450641 342.19744,36.6317472 342.752841,36.6317472 C343.501424,36.6317472 344.219812,36.2453874 344.908026,35.4726562 L345.179688,35.762429 C344.286217,37.344113 343.096953,38.1349432 341.611861,38.1349432 C339.933585,38.1349432 339.09446,37.0000113 339.09446,34.7301136 L339.09446,20.5674716 L337.392045,20.5674716 L337.392045,20.2958097 C338.816768,18.9797519 339.975848,17.4101654 340.869318,15.5870028 L341.122869,15.5870028 L341.122869,19.2272727 Z M348.892401,26.90625 C348.892401,29.8885092 349.321018,32.2157232 350.178267,33.8879616 C351.035516,35.5602001 352.261001,36.3963068 353.854759,36.3963068 C354.699933,36.3963068 355.493782,36.1095554 356.236328,35.536044 C356.978874,34.9625326 357.543322,34.1264259 357.929688,33.0276989 L358.491122,33.2088068 C357.8995,34.935378 357.172057,36.2212316 356.308771,37.0664062 C355.445486,37.9115809 354.343757,38.3341619 353.003551,38.3341619 C351.132093,38.3341619 349.595709,37.4195759 348.394354,35.5903764 C347.192998,33.7611769 346.59233,31.385668 346.59233,28.4637784 C346.59233,25.5660366 347.174888,23.2086383 348.340021,21.3915128 C349.505155,19.5743872 350.999281,18.6658381 352.822443,18.6658381 C354.162649,18.6658381 355.324747,19.1729353 356.308771,20.1871449 C357.292796,21.2013545 357.947797,22.6622774 358.273793,24.5699574 L349.10973,24.3526278 C348.964843,25.1615807 348.892401,26.0127796 348.892401,26.90625 Z M352.786222,19.5894886 C351.928973,19.5894886 351.198512,19.9577378 350.594815,20.6942472 C349.991119,21.4307565 349.544391,22.4147666 349.254616,23.6463068 L355.376065,23.6463068 C355.496805,23.6463068 355.575284,23.6161225 355.611506,23.5557528 C355.647727,23.4953832 355.665838,23.3867195 355.665838,23.2297585 C355.665838,22.1068836 355.433419,21.2194635 354.968572,20.5674716 C354.503726,19.9154797 353.776283,19.5894886 352.786222,19.5894886 Z M379.227983,38.2254972 L375.696378,23.2659801 L372.182884,38.2254972 L371.404119,38.2254972 L367.618963,22.1612216 C367.413706,21.3401948 367.1179,20.7274523 366.731534,20.3229759 C366.345169,19.9184994 365.89844,19.7162642 365.391335,19.7162642 L365.210227,19.7162642 L365.210227,19.2272727 L371.440341,19.2272727 L371.440341,19.7162642 L370.73402,19.7162642 C370.420098,19.7162642 370.175605,19.7766329 370.000533,19.8973722 C369.825461,20.0181114 369.722834,20.202236 369.692649,20.4497514 C369.662464,20.6972669 369.659446,20.9417602 369.683594,21.1832386 C369.707742,21.4247171 369.762073,21.7386344 369.846591,22.125 L372.472656,33.8426847 L375.261719,21.5273438 C374.827057,20.3199513 374.144891,19.7162642 373.215199,19.7162642 L373.034091,19.7162642 L373.034091,19.2272727 L379.264205,19.2272727 L379.264205,19.7162642 L378.557884,19.7162642 C378.243961,19.7162642 377.999468,19.7766329 377.824396,19.8973722 C377.649324,20.0181114 377.546698,20.202236 377.516513,20.4497514 C377.486328,20.6972669 377.48331,20.9417602 377.507457,21.1832386 C377.531605,21.4247171 377.585937,21.7386344 377.670455,22.125 L380.29652,33.8426847 L382.940696,22.125 C383.01314,21.8231519 383.061435,21.608843 383.085582,21.4820668 C383.10973,21.3552906 383.136896,21.171166 383.167081,20.9296875 C383.197266,20.688209 383.200284,20.5161582 383.176136,20.4135298 C383.151989,20.3109015 383.10973,20.1931825 383.049361,20.0603693 C382.988991,19.9275562 382.889383,19.8370031 382.750533,19.7887074 C382.611683,19.7404117 382.439632,19.7162642 382.234375,19.7162642 L381.419389,19.7162642 L381.419389,19.2272727 L386.164418,19.2272727 L386.164418,19.7162642 L385.98331,19.7162642 C385.500353,19.7162642 385.065698,19.9184994 384.679332,20.3229759 C384.292967,20.7274523 383.99716,21.3401948 383.791903,22.1612216 L380.006747,38.2254972 L379.227983,38.2254972 Z M398.443537,35.5088778 C397.139553,37.39241 395.509598,38.3341619 393.553622,38.3341619 C391.597646,38.3341619 389.967691,37.39241 388.663707,35.5088778 C387.359724,33.6253457 386.707741,31.2890764 386.707741,28.5 C386.707741,25.7109236 387.359724,23.3746543 388.663707,21.4911222 C389.967691,19.60759 391.597646,18.6658381 393.553622,18.6658381 C395.509598,18.6658381 397.142572,19.60759 398.452592,21.4911222 C399.762613,23.3746543 400.417614,25.7109236 400.417614,28.5 C400.417614,31.2890764 399.759595,33.6253457 398.443537,35.5088778 Z M396.92223,22.0706676 C396.161573,20.41654 395.038715,19.5894886 393.553622,19.5894886 C392.06853,19.5894886 390.945671,20.4135216 390.185014,22.0616122 C389.424357,23.7097028 389.044034,25.8558106 389.044034,28.5 C389.044034,31.1441894 389.424357,33.2902972 390.185014,34.9383878 C390.945671,36.5864784 392.06853,37.4105114 393.553622,37.4105114 C395.038715,37.4105114 396.164591,36.5864784 396.931286,34.9383878 C397.69798,33.2902972 398.081321,31.1441894 398.081321,28.5 C398.081321,25.8558106 397.694961,23.7127213 396.92223,22.0706676 Z M406.756392,22.7226562 L406.756392,35.7986506 C406.756392,36.7887123 407.29971,37.2837358 408.386364,37.2837358 L408.821023,37.2837358 L408.821023,37.7727273 L402.590909,37.7727273 L402.590909,37.2837358 L403.043679,37.2837358 C404.130332,37.2837358 404.673651,36.7887123 404.673651,35.7986506 L404.673651,22.5234375 L402.699574,22.5234375 L402.699574,22.1974432 C404.160519,21.3039728 405.422225,20.0664142 406.48473,18.4847301 L406.756392,18.4847301 L406.756392,21.7446733 C407.855119,19.6921062 409.038346,18.6658381 410.306108,18.6658381 C410.837361,18.6658381 411.26296,18.7986492 411.582919,19.0642756 C411.902878,19.3299019 412.062855,19.7162617 412.062855,20.2233665 C412.062855,21.1651325 411.664422,21.6360085 410.867543,21.6360085 C410.553621,21.6360085 410.2065,21.5122527 409.826172,21.2647372 C409.445843,21.0172218 409.110797,20.8934659 408.821023,20.8934659 C408.01207,20.8934659 407.323866,21.5031899 406.756392,22.7226562 Z M417.043324,35.7986506 C417.043324,36.7887123 417.592679,37.2837358 418.691406,37.2837358 L419.126065,37.2837358 L419.126065,37.7727273 L412.895952,37.7727273 L412.895952,37.2837358 L413.348722,37.2837358 C414.435375,37.2837358 414.978693,36.7887123 414.978693,35.7986506 L414.978693,13.2869318 L412.968395,13.2869318 L412.968395,12.9247159 C414.381044,12.1882065 415.654824,10.9506479 416.789773,9.21200284 L417.043324,9.21200284 L417.043324,28.8259943 L421.607244,22.125 C422.114349,21.3643428 422.337713,20.7727294 422.277344,20.350142 C422.216974,19.9275547 421.884946,19.7162642 421.28125,19.7162642 L420.538707,19.7162642 L420.538707,19.2272727 L426.026278,19.2272727 L426.026278,19.7162642 L425.573509,19.7162642 C424.643816,19.7162642 423.605474,20.5312419 422.458452,22.1612216 L419.542614,26.3448153 L424.25142,34.8387784 C425.156965,36.4687581 426.159085,37.2837358 427.257813,37.2837358 L427.475142,37.2837358 L427.475142,37.7727273 L421.172585,37.7727273 L421.172585,37.2837358 L421.607244,37.2837358 C422.138497,37.2837358 422.42223,37.0754637 422.458452,36.6589134 C422.494673,36.242363 422.361862,35.7865792 422.060014,35.2915483 L418.274858,28.1740057 L417.043324,29.9488636 L417.043324,35.7986506 Z M431.713068,37.6459517 C431.387072,37.9719477 430.970528,38.1349432 430.463423,38.1349432 C429.956318,38.1349432 429.539774,37.9719477 429.213778,37.6459517 C428.887782,37.3199558 428.724787,36.9034116 428.724787,36.3963068 C428.724787,35.8771281 428.890801,35.4515286 429.222834,35.1194957 C429.554867,34.7874628 429.968392,34.6214489 430.463423,34.6214489 C430.970528,34.6214489 431.390091,34.7904813 431.722124,35.1285511 C432.054156,35.466621 432.22017,35.889202 432.22017,36.3963068 C432.22017,36.9034116 432.051138,37.3199558 431.713068,37.6459517 Z"/>
    <linearGradient id="marquee-d" x1="0%" x2="100%" y1="50%" y2="50%">
      <stop offset="0%" stop-color="#FAF9F2"/>
      <stop offset="100%" stop-color="#FAF9F2" stop-opacity="0"/>
    </linearGradient>
    <linearGradient id="marquee-e" x1="0%" x2="100%" y1="50%" y2="50%">
      <stop offset="0%" stop-color="#FAF9F2" stop-opacity="0"/>
      <stop offset="100%" stop-color="#FAF9F2"/>
    </linearGradient>
  </defs>
  <g fill="none" fill-rule="evenodd">
    <rect width="340" height="57.182" fill="#FAF9F2" fill-rule="nonzero" transform="translate(.773)"/>
    <g transform="translate(.773)">
      <mask id="marquee-b" fill="#fff">
        <use xlink:href="#marquee-a"/>
      </mask>
      <g fill="#000" fill-rule="nonzero" mask="url(#marquee-b)">
        <use xlink:href="#marquee-c"/>
        <use xlink:href="#marquee-c"/>
      </g>
    </g>
    <rect width="81.136" height="57.182" x="258.864" fill="url(#marquee-d)" fill-rule="nonzero" transform="rotate(-180 299.432 28.59)"/>
    <rect width="28.591" height="57.182" fill="url(#marquee-e)" fill-rule="nonzero" transform="rotate(-180 14.295 28.59)"/>
  </g>
</svg>
