<?xml version="1.0" encoding="utf-8"?>
<!-- Generator: Adobe Illustrator 17.0.0, SVG Export Plug-In . SVG Version: 6.00 Build 0)  -->
<!DOCTYPE svg PUBLIC "-//W3C//DTD SVG 1.1//EN" "http://www.w3.org/Graphics/SVG/1.1/DTD/svg11.dtd">
<svg version="1.1" id="Layer_1" xmlns:sketch="http://www.bohemiancoding.com/sketch/ns"
	 xmlns="http://www.w3.org/2000/svg" xmlns:xlink="http://www.w3.org/1999/xlink" x="0px" y="0px" width="296.128px"
	 height="54.825px" viewBox="0 0 296.128 54.825" enable-background="new 0 0 296.128 54.825" xml:space="preserve">
<title>Imported Layers</title>
<desc>Created with Sketch.</desc>
<g id="Welcome" sketch:type="MSPage">
	
		<g id="Imported-Layers" transform="translate(250.500000, 130.000000) rotate(3.000000) translate(-250.500000, -130.000000) translate(101.000000, 108.000000)" sketch:type="MSLayerGroup">
		<path id="Fill-1" sketch:type="MSShapeGroup" fill="#9F750A" d="M88.182-79.032c-0.582,0.067-1.178,0.577-1.745-0.107
			c-0.059-0.072-0.28,0.089-0.425,0.088c-0.361-0.001-0.722-0.034-1.083-0.053c-0.003-0.113-0.007-0.226-0.012-0.339
			c0.439-0.138,0.879-0.274,1.467-0.459c-0.344-0.271-0.56-0.442-0.823-0.651c0.135-0.124,0.214-0.244,0.312-0.279
			c0.467-0.16,0.937-0.308,1.411-0.437c0.353-0.097,0.711-0.223,1.068-0.225c1.227-0.005,2.454,0.049,3.681,0.058
			c0.283,0.002,0.579-0.035,0.845-0.141c0.921-0.369,1.773-0.279,2.613,0.522c-0.234,0.252-0.457,0.494-0.711,0.768
			c0.69,0.711,1.448,0.421,2.16,0.411c0.437-0.007,0.894-0.264,1.232,0.322c0.051,0.087,0.24,0.139,0.324,0.094
			c0.573-0.306,1.135-0.643,1.691-1.262c-0.688-0.118-1.375-0.235-2.066-0.353c0.213-1.568,1.295-0.843,1.862-1.248
			c0.394,0.147,0.271,1.066,0.821,0.66c0.116-0.086,0.078-0.485,0.115-0.77c0.545-0.058,1.142-0.12,1.887-0.2
			c-0.414-0.881-0.972-0.66-1.45-0.676c-0.491-0.017-0.982-0.005-1.742-0.005c0.393-0.339,0.584-0.505,0.855-0.74
			c-0.012-0.377-0.613-0.565-0.321-1.269c0.192-0.464-0.415-0.769-0.851-0.751c-0.937,0.038-1.872,0.151-2.809,0.181
			c-2.439,0.08-4.879,0.2-7.317,0.164c-1.092-0.015-2.18-0.362-3.412-0.585c0.596-0.956,1.333-0.772,1.94-0.716
			c2.607,0.241,5.206,0.336,7.81-0.054c0.272-0.041,0.663,0.118,0.841,0.359c0.308,0.418,0.556,0.328,0.957,0.267
			c1.055-0.16,2.037-0.754,3.146-0.64c0.8,0.082,1.621-0.19,2.431-0.173c0.839,0.016,1.642,0.34,2.51-0.161
			c0.459-0.266,1.127,0.045,1.697,0.014c0.491-0.027,0.696-0.293,0.213-0.897c0.368-0.167,0.983-0.228,1.068-0.519
			c0.49-1.687,1.555-1.196,2.525-1.171c0.774,0.02,1.532-0.296,2.314,0.285c0.3,0.222,0.911-0.183,1.426-0.314
			c-0.21-0.578-0.386-1.064-0.607-1.674c0.342-0.095,0.603-0.155,0.859-0.242c0.563-0.19,1.056,0.763,1.724,0.017
			c0.358-0.399,1.053-0.349,1.593-0.622c-2.703-0.199-5.397,0.141-8.252,0.346c0.399-0.761,0.92-0.761,1.367-0.828
			c1.304-0.195,2.613-0.342,3.923-0.478c2.782-0.289,5.564-0.596,8.35-0.824c1.184-0.097,2.378-0.016,3.695-0.016
			c-0.423,0.188-0.754,0.333-1.084,0.479c0.004,0.093,0.007,0.186,0.011,0.279c0.572,0,1.156,0.093,1.713-0.015
			c2.716-0.523,5.428-1.078,8.134-1.672c0.948-0.207,1.919-0.124,2.859-0.563c0.407-0.19,0.993,0.196,1.506,0.608
			c-1.41,0.512-2.819,1.024-4.229,1.535c0.018,0.108,0.036,0.217,0.054,0.324c0.777-0.124,1.555-0.248,2.333-0.371
			c0.021,0.076,0.041,0.153,0.062,0.229c-0.111,0.11-0.218,0.223-0.331,0.329c-0.478,0.445-0.597,1.032-0.632,1.89
			c-0.041,1.006,0.152,2.224-1.036,2.714c0.251,0.094,0.502,0.189,0.857,0.322c-0.3,0.219-0.537,0.391-0.731,0.533
			c-0.028,0.619-0.056,1.215-0.093,2.005c0.539,0.229,1.168,0.498,1.982,0.846c-0.39,0.267-0.643,0.575-0.91,0.596
			c-0.678,0.051-1.092,0.362-1.061,1.234c-0.258,0.043-0.433,0.134-0.578,0.087c-1.482-0.482-2.709-0.007-3.891,1.196
			c-0.517,0.527-1.353,0.585-2.171,0.663c0.288-0.331,0.576-0.661,0.978-1.123c-0.324-0.365-0.604-0.681-0.793-0.893
			c-0.94,0.399-1.768,0.751-2.593,1.102c0.125,0.527,0.246,1.041,0.407,1.723c-0.717,0.218-1.42,0.431-2.122,0.643
			c-0.022-0.071-0.045-0.141-0.067-0.212c0.431-0.322,0.86-0.644,1.29-0.965c-0.015-0.086-0.028-0.171-0.043-0.258
			c-0.183-0.015-0.419-0.129-0.542-0.031c-0.777,0.624-1.626,0.354-2.435,0.287c-0.896-0.074-1.52,0.405-2.29,1.217
			c0.543,0.155,0.911,0.261,1.31,0.374c-0.084,0.284-0.166,0.558-0.275,0.922c0.251,0.087,0.498,0.171,0.743,0.256
			c-0.018,0.096-0.019,0.178-0.035,0.183c-0.68,0.205-0.842,1.136-1.377,1.494c-0.42,0.283-0.93,0.376-1.408,0.516
			c-1.176,0.344-2.356,0.659-3.533,0.998c-0.649,0.186-1.292,0.397-1.945,0.599c0.422,1.176,0.865,0.357,1.323,0.039
			c0.442,0.6,0.322,1.018-0.266,1.168c-0.864,0.221-1.745,0.345-2.617,0.523c-0.225,0.045-0.445,0.133-0.661,0.325
			c1.073,0.332,2.139,0.264,3.214,0.045c0.293-0.059,0.603,0.008,0.905,0.016l-0.028-0.025c0.599,1.034,1.388,1.593,2.443,1.52
			c0.069-0.518,0.132-0.978,0.204-1.519c-0.298-0.337-0.65-0.734-1.025-1.157c-0.469,0.056-1,0.654-1.414-0.141
			c0.605-1.149,0.602-1.134,1.617-0.83c0.206,0.063,0.46,0.017,0.665-0.069c0.618-0.263,1.482-0.247,2.177,0.095
			c0.223,1.349,0.335,2.641-1.214,3.144c0.763,0.185,1.331,0.288,1.997,0.001c0.914-0.395,1.925-0.657,2.884-0.622
			c0.722,0.027,1.413,0.624,2.215,0.595c1.147-0.042,2.301,0.116,3.442,0.014c0.653-0.058,1.285-0.46,1.914-0.703
			c0.136,0.729-0.079,1.09-0.875,1.264c-0.842,0.185-1.771,0.196-2.514,0.932c-0.159,0.156-0.549,0.082-0.776-0.041
			c-0.096-0.052-0.045-0.506-0.073-0.961c-1.572,0.095-3.19,0.196-4.808,0.289c-0.492,0.029-1.012,0.182-1.468,0.036
			c-0.909-0.291-1.722-0.163-2.531,0.373c-0.112,0.073-0.294-0.014-0.454-0.027c-0.035,0.374-0.062,0.668-0.094,0.996
			c-0.593,0.182-1.176,0.36-1.907,0.584c0.262,0.131,0.366,0.232,0.467,0.226c1.775-0.105,3.526-0.446,5.265-0.872
			c0.294-0.072,0.615-0.008,0.612-0.676c-0.003-0.497,0.62-0.457,0.754-0.218c0.434,0.773,0.942,0.366,1.434,0.285
			c0.629-0.103,1.254-0.234,1.865-0.351c0.234,1.017-0.575,0.834-0.786,1.444c0.65,0.146,1.262,0.285,1.966,0.443
			c-0.244,0.645-0.351,1.132-1.171,0.741c-0.682-0.324-1.412,0.223-2.032,0.734c-0.199,0.163-0.393,0.402-0.612,0.453
			c-1.641,0.383-3.144,1.402-4.867,1.464c-0.825,0.029-1.641,0.45-2.463,0.695c0.007,0.127,0.016,0.255,0.023,0.383
			c0.862,0.139,1.723,0.279,2.517,0.408c-0.596,0.152-1.257,0.358-1.929,0.477c-0.35,0.063-0.718-0.008-1.075-0.054
			c-0.965-0.125-1.928-0.292-2.895-0.384c-0.199-0.02-0.414,0.211-0.854,0.455c1.185,0.474,2.157,0.276,3.113,0.296
			c0.446,0.009,0.897,0.01,1.337,0.091c0.452,0.085,0.519,0.492,0.358,1.115c1.202,0.135,2.371,0.267,3.54,0.399
			c0.003,0.038,0.006,0.076,0.009,0.115c-0.92,0.09-1.839,0.196-2.76,0.266c-0.609,0.046-1.22,0.025-1.829,0.063
			c-3.23,0.193-6.459,0.455-9.69,0.577c-2.5,0.094-5.004,0.05-7.506,0.007c-2.87-0.049-5.745-0.053-8.608-0.28
			c-3.367-0.266-6.718-0.175-10.083,0.025c-3.895,0.232-7.801,0.173-11.699,0.354c-3.567,0.168-7.128,0.504-10.692,0.739
			c-4.304,0.285-8.609,0.531-12.913,0.816c-3.973,0.263-7.946,0.563-11.918,0.833c-3.726,0.252-7.451,0.486-11.177,0.731
			c-3.193,0.208-6.384,0.467-9.58,0.61c-2.006,0.09-4.018-0.008-6.026,0.012c-2.873,0.029-5.75,0.006-8.62,0.155
			c-3.895,0.204-7.786,0.571-11.68,0.826c-1.557,0.103-3.121,0.184-4.678,0.119c-3.703-0.155-7.377,0.295-11.063,0.569
			c-2.449,0.182-4.91,0.1-7.367,0.142c-0.242,0.005-0.492,0.016-0.722,0.094c-0.95,0.315-1.906,0.614-2.836,0.999
			c-1.107,0.46-2.185,0.638-3.373,0.405c-2.83-0.555-5.687-0.89-8.52-1.424c-1.867-0.351-3.723-0.816-5.618-0.653
			c-2.495,0.213-4.986,0.512-7.477,0.792c-0.323,0.036-0.646,0.153-0.956,0.281c-2.308,0.96-4.61,0.557-6.923,0.027
			c-1.123-0.257-2.263-0.409-3.396-0.589c-1.945-0.31-3.915-0.096-5.864-0.537c-1.11-0.251-2.286-0.049-3.431-0.087
			c-2.857-0.097-5.42-1.13-7.356-3.826c-0.905-1.26-1.929-2.077-3.288-2.39c-0.835-0.192-1.634-0.64-2.436-1.017
			c-0.447-0.21-0.778-0.193-0.932,0.569c-2.259-2.025-4.473-3.95-7.167-5.516c1.412-0.189,2.127,1.671,3.411,0.926
			c-0.161-1.069-1.028-1.264-1.513-1.979c0.398-0.242,0.739-0.449,1.228-0.746c-0.256-0.622-0.481-1.171-0.746-1.816
			c0.493-0.489,0.401-1.087-0.105-1.635c-0.539-0.585-1.094-1.147-1.558-1.938c1.054,0.318,2.109,0.638,3.335,1.009
			c-0.901-0.973-1.692-1.759-2.408-2.637c-0.231-0.284-0.182-0.899-0.404-1.204c-0.533-0.728-0.82-1.567-1.114-2.458
			c-0.261-0.79-0.095-1.447-0.058-2.379c1.135,1.141,2.095,2.2,3.139,3.114c0.481,0.421,1.118,0.596,1.702,0.808
			c0.5,0.181,1.025,0.254,1.559,0.38c-0.973-1.518-1.926-3.005-2.879-4.49c-0.025-0.039-0.053-0.08-0.085-0.109
			c-1.228-1.064-2.456-2.127-3.703-3.206c-0.088-0.696,0.068-1.477-0.529-2.038c0.377-0.33,0.666-0.584,1.059-0.926
			c-0.445-0.805-0.889-1.606-1.446-2.612c0.56,0.174,0.936,0.289,1.393,0.431c0.147-0.163,0.435-0.323,0.483-0.557
			c0.371-1.779,1.841-2.287,2.687-3.513c0.213-0.308,0.745-0.343,1.14-0.39c1.996-0.242,3.906,0.5,5.853,0.824
			c0.85,0.142,1.675,0.489,2.521,0.676c3.935,0.873,7.866,1.297,11.806-0.024c0.82-0.274,1.705-0.369,2.557-0.359
			c1.928,0.022,3.87,0.007,5.777,0.294c1.944,0.293,3.85,0.94,5.777,1.409c0.557,0.135,1.127,0.218,1.694,0.274
			c0.694,0.069,1.395,0.053,2.089,0.132c2.745,0.314,5.476,0.292,8.224-0.089c2.197-0.305,4.416-0.343,6.626,0.087
			c0.845,0.163,1.723,0.181,2.58,0.124c1.356-0.088,2.656,0.237,3.984,0.471c1.202,0.212,2.449,0.045,3.712,0.045
			c0.137-0.349,0.218-0.813,0.452-1.065c0.174-0.188,0.552-0.157,0.829-0.12c0.607,0.082,1.124,0.712,1.084,1.569
			c-0.027,0.575-0.273,1.288-0.62,1.655c-0.586,0.622-0.565,1.24-0.373,2.07c0.735,0.185,1.401,0.16,2.138-0.164
			c0.862-0.38,1.766-0.654,2.749-0.367c0.7,0.205,1.469,0.093,2.206,0.069c1.722-0.053,3.446-0.102,5.165-0.228
			c0.589-0.044,1.167-0.315,1.74-0.768c-0.493-0.088-0.985-0.175-1.477-0.262c-0.005-0.079-0.009-0.159-0.015-0.237
			c0.31-0.032,0.618-0.075,0.928-0.093c0.326-0.019,0.654-0.006,0.98-0.015c2.048-0.06,4.095-0.116,6.142-0.195
			c0.28-0.01,0.572-0.098,0.833-0.225c1.241-0.604,2.527-0.772,3.854-0.776c0.898-0.002,1.793-0.244,2.693-0.32
			c1.591-0.132,3.202-0.082,4.773-0.364c1.42-0.254,2.746,0.399,4.13,0.321c0.139-0.008,0.284,0.12,0.451,0.471
			c-1.032,0.332-2.065,0.666-3.154,1.017c0.332,1.018,0.849,1.332,1.497,1.361c1.231,0.054,2.467,0.159,3.692,0.075
			c0.718-0.047,1.427-0.393,2.128-0.651c0.372-0.137,0.751-0.633,0.983,0.192c0.835-0.029,1.648-0.22,2.26-0.949
			c0.395-0.469,0.817-0.71,1.321-0.573c0.65,0.175,1.163,0.081,1.609-0.591c0.162-0.245,0.494-0.322,0.88-0.556v1.31
			c0.34-0.105,0.691-0.154,0.999-0.32c1.676-0.894,3.387-1.486,5.248-1.26c0.562,0.069,1.141-0.089,1.714-0.097
			c1.263-0.016,2.528-0.005,3.992-0.005c-0.275,0.632-0.45,1.035-0.624,1.439c1.441,1.334,1.609,1.342,2.572-0.006
			c-0.396-0.08-0.741-0.104-1.058-0.235c-0.157-0.065-0.354-0.321-0.36-0.5c-0.007-0.179,0.172-0.456,0.323-0.537
			c0.334-0.178,0.705-0.373,1.057-0.36c1.024,0.035,2.047,0.162,3.069,0.264c0.432,0.044,0.431,0.337,0.271,0.718
			c-1.397-0.31-1.622-0.189-1.932,1.027c2.128,0.345,4.249,0.784,6.386,0.999c1.171,0.118,2.371-0.093,3.547-0.272
			c0.244-0.038,0.436-0.597,0.722-1.02c0.188,0.009,0.478-0.005,0.47,0.609c-0.007,0.503,0.109,1.007,0.161,1.425
			c0.75,0.283,1.236,0.129,1.681-0.423c0.586-0.727,1.375-0.578,2.101-0.551c1.285,0.047,2.53-0.266,3.788-0.499
			c0.59-0.109,1.204-0.019,1.887-0.019c0.068-0.374,0.132-0.726,0.191-1.053c-0.55-0.49-1.376,0.102-1.683-1.014
			c1.03-0.344,2.061-0.63,3.088-0.307c0.496,0.156,0.843,0.137,1.258-0.175c0.268-0.203,0.596-0.351,0.909-0.396
			c4.546-0.657,9.125-0.978,13.606,0.262c2.194,0.607,4.56,0.761,6.58,2.397c-0.028,0.299-0.059,0.621-0.094,0.985
			c0.83,0.175,1.612,0.34,2.379,0.503c-0.495,0.146-0.995,0.294-1.655,0.489c1.117,0.886,2.381,0.188,3.365,1.114
			c-0.241,0.493-0.457,0.932-0.752,1.533c-0.498,0.233-1.199,0.56-1.9,0.887c0.006,0.08,0.013,0.157,0.019,0.236
			c0.84,0.088,1.679,0.175,2.687,0.279c-0.2,0.323-0.323,0.52-0.452,0.728c0.22,0.628,0.447,1.276,0.711,2.026
			c0.529,0.057,1.135,0.123,1.74,0.188c0.013,0.051,0.024,0.103,0.037,0.154c-0.501,0.142-1.003,0.284-1.596,0.452
			c1.092,0.867,2.244,0.438,3.338,0.815c-0.457,0.222-0.913,0.445-1.522,0.742c0.996,0.588,1.862,1.1,2.961,1.748
			c-1.022,0.107-1.803,0.188-2.586,0.269c-0.007,0.093-0.015,0.186-0.022,0.279c0.544,0.3,1.089,0.6,1.633,0.9
			c-0.024,0.138-0.048,0.277-0.073,0.415c-1.837,0.054-3.679-0.088-5.529-0.083c0.092,0.522-0.097,0.765-0.503,0.775
			c-0.371,0.009-0.74,0.002-1.11,0.1c0.785,0.556,1.833-0.425,2.384,0.745c0.572-0.273,1.061-0.593,1.582-0.732
			c0.57-0.152,1.184-0.171,1.16,1.335c0.361-0.676,0.494-0.925,0.674-1.263c0.551-0.147,1.218-0.41,1.834,0.292
			c0.073,0.085,0.402-0.168,0.674-0.293c0.443,0.76,0.916,0.929,1.803,0.714c0.891-0.214,1.77-0.439,2.647-0.757
			c0.414-0.151,0.896-0.079,1.338-0.012c0.107,0.016,0.175,0.41,0.336,0.822c0.052,0.005,0.344,0.031,0.636,0.057
			c0.028,0.087,0.057,0.174,0.085,0.259c-0.268,0.23-0.538,0.461-0.898,0.77c0.114,0.397,0.735,1.003-0.341,1.295
			c0.479,0.411,0.758,0.651,1.015,0.872c-0.132,1.04-0.941,0.416-1.387,1.057c0.678,0.145,1.261,0.27,2.008,0.431
			c-0.262,0.23-0.43,0.379-0.695,0.611c0.272,0.307,0.789,0.346,0.53,1.226c-0.228,0.775,0.941,1.824,1.782,1.884
			c1.594,0.116,3.201,0.112,4.78,0.371c1.021,0.167,2.004,0.361,3.027-0.027c0.012-0.223,0.023-0.456,0.041-0.813h2.197
			c0.004-0.1,0.009-0.199,0.015-0.299c-0.861-0.079-1.721-0.157-2.7-0.247c0.2-0.437,0.338-0.735,0.567-1.237
			c-0.72-0.113-1.303-0.267-1.888-0.279c-0.567-0.012-1.144,0.076-1.705,0.203c-0.711,0.161-1.408,0.387-1.915-0.498
			c0.664-0.154,1.392-0.314,2.115-0.497c0.152-0.038,0.319-0.124,0.431-0.251c0.8-0.923,0.96-0.937,1.883-0.083
			c0.292-0.357,0.721-0.648,0.354-1.349c0.642,0,1.254-0.056,1.855,0.015c0.602,0.072,1.034-0.147,1.287-0.68
			c-0.098-0.46-0.18-0.842-0.312-1.455c-0.656,0.039-1.475,0.087-2.395,0.141c0.275-0.838,0.731-0.87,1.174-0.771
			c2.034,0.45,3.824-0.53,5.647-1.596c-0.492-0.014-0.985,0.007-1.472-0.059c-0.194-0.025-0.477-0.197-0.533-0.384
			c-0.132-0.441,0.125-0.608,0.464-0.643c1.103-0.109,2.209-0.186,3.306-0.357c1.463-0.228,2.918-0.536,4.38-0.798
			c0.444-0.08,0.904-0.063,1.337-0.189c0.506-0.147,0.992-0.402,1.488-0.609c0.414,0.001,0.828,0.001,1.346,0.001
			c-0.045-0.596-0.076-0.996-0.132-1.73c-0.501,0.747-0.843,1.257-1.185,1.768c-0.299-0.16-0.598-0.32-0.979-0.523
			c-0.49,0.767-1.119,0.938-1.902,0.52c-0.264-0.141-0.641,0.051-0.968,0.065c-0.281,0.013-0.609,0.102-0.837-0.037
			c-0.99-0.599-1.971-0.223-2.971-0.118c-1.558,0.164-3.096,0.438-4.694,0.237c-1.942-0.245-3.919-0.083-5.88-0.096
			c-0.36-0.002-0.719,0-1.143-0.289c0.213-0.113,0.423-0.318,0.638-0.323c0.984-0.023,1.971,0.035,2.955,0.01
			c0.549-0.014,1.094-0.131,1.79-0.22c-0.551-1.134-1.254-0.72-1.835-0.758c-0.632-0.041-1.267-0.009-2.055-0.009
			c0.23,0.302,0.311,0.409,0.392,0.515c-0.025,0.083-0.049,0.167-0.075,0.25c-0.647-0.21-1.292-0.439-1.945-0.621
			c-0.273-0.075-0.574-0.117-0.844-0.058c-0.809,0.179-1.536-0.053-2.297-0.515c0.16-0.779,0.59-0.72,1.041-0.636
			c0.616,0.116,1.228,0.185,1.637-0.6c-1.195-0.613-2.383-0.39-3.664-0.056c-0.037,0.485-0.077,1.005-0.136,1.762
			c-0.53-0.228-0.966-0.417-1.403-0.606c0.278-0.287,0.556-0.573,0.833-0.859c-0.038-0.091-0.076-0.182-0.114-0.273h-1.562
			C87.57-79.721,88.43-79.985,88.182-79.032L88.182-79.032z M112.745-66.967c0.332-0.024,0.664-0.071,0.995-0.067
			c0.312,0.002,0.311,0.025,0.754-0.767c-0.639,0.402-1.411-0.159-1.751,0.839c-0.683-0.729-0.683-0.729-1.562-0.267
			C111.701-67.142,112.224-67.053,112.745-66.967L112.745-66.967z M115.072-70.899c-0.322-0.185-0.643-0.371-1.016-0.585
			c-0.584,1.109-1.617,0.11-2.593,0.887c0.872,0.367,1.506,0.632,2.239,0.941c0.419-0.397,0.883-0.835,1.347-1.274
			c0.412,0.088,0.763,0.057,0.874-0.702C115.44-71.596,115.048-71.628,115.072-70.899L115.072-70.899z M132.302-87.204
			c0.437,0.227,0.834,0.198,1.294-0.039c0.573-0.295,1.197-0.665,1.935-0.14c-0.84,1.086-1.693,1.934-2.931,1.802
			c-0.709-0.076-0.783,0.45-0.861,1.174h1.227c-0.197,0.563-0.338,0.968-0.509,1.455c0.467-0.14,1.083,0.117,0.963-0.98
			c-0.072-0.652,0.297-0.808,0.857-0.785c-0.079,0.434-0.137,0.761-0.207,1.154c0.689-0.141,1.074-0.54,1.278-1.224
			c-0.194-0.173-0.324-0.288-0.445-0.396c0.185-0.344,0.34-0.681,0.537-0.976c0.196-0.294,0.536-0.504,0.625-0.828
			c0.087-0.315-0.156-0.756-0.087-1.091c0.093-0.447,0.345-0.844,0.531-1.261c0.125-0.283,0.255-0.564,0.407-0.902
			c-1.675-0.064-3.621,0.674-4.443,1.516c-0.063,0.668-0.105,1.113-0.147,1.556c-0.311-0.152-0.574-0.63-0.972-0.218
			C131.837-86.485,131.837-86.485,132.302-87.204L132.302-87.204z M42.311-73.436c0.193,0.667,0.656,0.98,0.954,0.57
			c0.476-0.657,0.922-0.36,1.43-0.317c0.69,0.059,1.433,0.197,2.067-0.043c0.809-0.305,1.506-0.632,2.18,0.264
			c0.067,0.091,0.237,0.129,0.345,0.103c0.629-0.146,1.274-0.521,1.872-0.427c0.679,0.107,1.325,0.397,2.029,0.163
			c0.347-0.116,0.713-0.16,1.073-0.205c0.431-0.053,0.816,0.021,1.121-0.621c0.242-0.511,0.83-0.513,1.27-0.05
			c0.079,0.083,0.154,0.174,0.29,0.325c0.019-0.481,0.035-0.849,0.048-1.19c-0.455-0.066-0.946,0.044-1.172-0.206
			c-0.493-0.545-1.051-0.628-1.601-0.537c-1.084,0.176-2.149,0.513-3.229,0.732c-1.2,0.244-2.404,0.536-3.614,0.616
			C45.681-74.146,43.944-74.59,42.311-73.436L42.311-73.436z M47.69-76.645c-0.489,0-0.928-0.14-1.264,0.027
			c-1.006,0.5-1.997,0.276-2.972,0.007c-0.964-0.264-1.115-0.197-1.277,1.129c1.752,0.827,3.564,0.401,5.409,0.453
			C47.619-75.532,47.646-75.953,47.69-76.645L47.69-76.645z M53.116-88.931c-0.612,0.193-1.173,0.404-1.746,0.543
			c-0.549,0.132-1.11,0.188-1.665,0.278c0.014,0.127,0.027,0.256,0.041,0.384c1.493,0.289,2.933-0.149,4.371-0.582
			c-0.076-1.527-0.076-1.524-1.083-1.694c-0.283-0.047-0.562-0.173-0.843-0.175c-0.865-0.008-1.75-0.151-2.814,0.454
			C50.776-89.427,51.921-89.184,53.116-88.931L53.116-88.931z M108.088-70.991c-0.5,0.345-0.925,0.71-1.395,0.944
			c-0.485,0.242-1.184-0.145-1.069-0.519c0.291-0.944-0.516-0.797-0.589-1.343c-0.412,0.44-0.729,0.78-1.074,1.15
			c0.422,0.889,0.864,1.497,1.79,1.147c0.279-0.105,0.632,0.123,0.952,0.131c0.895,0.02,1.793,0.031,2.687-0.025
			c0.122-0.008,0.227-0.42,0.341-0.645c-0.162-0.098-0.331-0.289-0.484-0.271c-0.227,0.027-0.444,0.2-0.702,0.33
			C108.375-70.429,108.226-70.721,108.088-70.991L108.088-70.991z M-0.622-86.759c0.607,0.751,0.634,0.863,1.324,0.614
			c0.775-0.279,1.839,0.229,2.338-1.076C2.051-87.777,1.384-87.685-0.622-86.759L-0.622-86.759z M130.402-84.298
			c-2.074,0.044-3.804,1.075-5.599,1.819c1.787-0.316,3.545-0.795,5.299-1.299C130.203-83.807,130.263-84.049,130.402-84.298
			L130.402-84.298z M110.05-73.106c-0.002-0.109-0.005-0.219-0.007-0.328h-1.311c0.043-0.2,0.073-0.328,0.098-0.456
			c0.023-0.119,0.042-0.239,0.072-0.412c-0.88-0.184-1.686-0.259-2.41,0.292c0.33,0.302,0.621,0.57,0.986,0.904L110.05-73.106
			L110.05-73.106z M108.266-85.419c-0.265-0.374-0.48-0.933-0.698-0.934c-0.546-0.005-1.097,0.228-1.635,0.415
			c-0.065,0.022-0.119,0.371-0.073,0.519c0.046,0.147,0.286,0.358,0.337,0.322c0.497-0.355,0.93,0.081,1.389,0.108
			C107.755-84.981,107.934-85.2,108.266-85.419L108.266-85.419z M102.759-84.355c0.846-0.108,1.475-0.433,1.774-1.587
			c-0.777-0.003-1.501-0.375-2.134,0.394C102.521-85.146,102.627-84.794,102.759-84.355L102.759-84.355z M72.581-74.744
			c-0.597,0-1.198-0.049-1.788,0.027c-0.206,0.025-0.386,0.357-0.578,0.549c0.201,0.188,0.382,0.459,0.609,0.542
			c0.257,0.095,0.554,0.022,0.928,0.022C71.588-74.553,72.105-74.595,72.581-74.744L72.581-74.744z M103.754-83.296
			c0.564,0.607,0.771,1.264,1.343,1.114c0.463-0.122,0.693-0.578,0.659-1.374C105.132-83.475,104.572-83.403,103.754-83.296
			L103.754-83.296z M15.151-72.105c0.387,0.152,0.685,0.267,1.019,0.397c0.147-0.201,0.283-0.379,0.412-0.563
			c0.099-0.14,0.19-0.289,0.281-0.431C15.995-73.652,15.751-73.572,15.151-72.105L15.151-72.105z M98.871-63.412
			c0.825-0.104,1.489-0.189,2.151-0.272c0.009-0.109,0.019-0.218,0.028-0.327c-0.408-0.23-0.801-0.553-1.231-0.669
			C99.186-64.851,99.096-64.17,98.871-63.412L98.871-63.412z M114.38-68.957c-0.746,0.402-1.706-0.376-2.542,0.727
			C112.892-68.28,113.788-67.762,114.38-68.957L114.38-68.957z M114.351-61.682c1.203,0.651,1.929,0.617,2.615,0H114.351
			L114.351-61.682z M130.038-87.256c0.393-0.295,0.711-0.535,1.029-0.773c-0.035-0.088-0.069-0.176-0.105-0.264
			c-0.578,0.249-1.157,0.499-1.734,0.748c0.145,0.533,0.252,0.922,0.348,1.278C130.427-86.14,130.043-86.798,130.038-87.256
			L130.038-87.256z M120.35-73.568v1.296c0.866-0.331,1.289-1.006,0.865-1.504C120.956-73.714,120.648-73.64,120.35-73.568
			L120.35-73.568z M109.201-72.617c-0.23,0.315-0.441,0.606-0.779,1.069c0.722,0.126,1.217,0.212,1.559,0.272
			C109.767-71.643,109.52-72.069,109.201-72.617L109.201-72.617z M-101.23-83.2c0.562,2.148,0.562,2.148,1.339,2.414
			C-100.362-81.636-100.796-82.418-101.23-83.2L-101.23-83.2z M123.394-66.937c0.62-0.098,1.344,0.399,1.938-0.499
			C124.53-67.737,123.913-67.616,123.394-66.937L123.394-66.937z M75.783-76.332c-0.536-0.112-1.071-0.226-1.606-0.338
			c-0.017,0.127-0.034,0.256-0.051,0.383C74.64-76.004,75.194-76.032,75.783-76.332L75.783-76.332z M46.656-81.855
			c-0.712,0.098-1.512-0.78-2.406,0.278C45.209-81.687,45.933-81.771,46.656-81.855L46.656-81.855z M13.497-77.234
			c0.623-0.124,1.247-0.248,1.871-0.372C14.658-78.095,14.033-77.828,13.497-77.234L13.497-77.234z M121.398-66.163
			c-0.223-0.365-0.334-0.714-0.466-0.727c-0.323-0.031-0.73-0.024-0.749,0.727H121.398L121.398-66.163z M117.931-69.196h1.068
			C118.633-69.981,118.633-69.981,117.931-69.196L117.931-69.196z M111.776-64.402c0.836,0.344,0.836,0.344,1.158-0.368
			C112.471-64.622,112.124-64.512,111.776-64.402L111.776-64.402z M118.25-77.983c0.295-0.215,0.555-0.3,0.577-0.44
			c0.084-0.536-0.202-0.745-0.676-0.843C118.18-78.887,118.205-78.572,118.25-77.983L118.25-77.983z M42.02-88.085
			c-0.001,0.131-0.003,0.262-0.004,0.391c0.515-0.075,1.029-0.151,1.543-0.226c-0.001-0.056-0.003-0.11-0.004-0.166L42.02-88.085
			L42.02-88.085z M53.366-91.764c-0.443,0.1-0.765,0.174-1.088,0.247c0.018,0.111,0.037,0.222,0.055,0.333
			C52.649-91.294,53.119-90.501,53.366-91.764L53.366-91.764z M74.492-77.937c-0.653-0.897-0.895-0.24-1.187,0.179
			C73.645-77.809,73.986-77.86,74.492-77.937L74.492-77.937z M53.415-70.775c0.02-0.115,0.04-0.228,0.06-0.343
			c-0.356,0.024-0.685-0.643-1.174,0.12C52.736-70.91,53.075-70.843,53.415-70.775L53.415-70.775z M46.37-71.312
			c-0.235-0.189-0.471-0.379-0.796-0.64C45.455-70.993,45.678-70.755,46.37-71.312L46.37-71.312z M13.921-72.808
			c0.282,0.694,0.595,0.807,1.04,0.159C14.526-72.716,14.224-72.762,13.921-72.808L13.921-72.808z M116.957-78.971
			c0.172,0.349,0.304,0.615,0.436,0.882c0.076-0.057,0.151-0.115,0.226-0.171C117.386-78.454,117.877-79.125,116.957-78.971
			L116.957-78.971z M35.03-78.449c0.024,0.142,0.047,0.284,0.072,0.426c0.235-0.064,0.47-0.127,0.705-0.19
			c-0.016-0.108-0.032-0.217-0.047-0.324C35.516-78.507,35.273-78.478,35.03-78.449L35.03-78.449z M131.708-92.086
			c-0.043-0.139-0.086-0.279-0.13-0.418c-0.234,0.151-0.466,0.302-0.7,0.453c0.037,0.095,0.074,0.191,0.111,0.287
			C131.229-91.872,131.468-91.979,131.708-92.086L131.708-92.086z M88.85-63.21c0.011,0.11,0.021,0.219,0.033,0.329
			c0.178-0.053,0.356-0.107,0.534-0.161c-0.008-0.056-0.017-0.112-0.025-0.168H88.85L88.85-63.21z M99.618-68.827
			c0.014-0.083,0.027-0.167,0.041-0.25c-0.264-0.021-0.527-0.053-0.792-0.054c-0.065,0-0.131,0.101-0.373,0.305L99.618-68.827
			L99.618-68.827z M43.283-81.475c0.011-0.109,0.02-0.219,0.031-0.329h-0.742c-0.004,0.082-0.007,0.166-0.011,0.248
			C42.802-81.529,43.042-81.502,43.283-81.475L43.283-81.475z M102.239-70.533c-0.142-0.119-0.239-0.262-0.31-0.244
			c-0.094,0.023-0.166,0.171-0.247,0.265c0.085,0.08,0.167,0.213,0.258,0.223C102.016-70.279,102.103-70.415,102.239-70.533
			L102.239-70.533z M128.588-90.284c-0.013-0.063-0.024-0.126-0.037-0.189c-0.226,0.054-0.453,0.109-0.679,0.163
			c0.016,0.083,0.032,0.166,0.048,0.249C128.142-90.136,128.364-90.21,128.588-90.284L128.588-90.284z"/>
		<path id="Fill-2" sketch:type="MSShapeGroup" fill="#9F750A" d="M182.272-70.499c0.142,0.975,1.045,0.787,1.62,1.51
			c-1.229,0.177-2.211-0.338-3.334-0.295c0.381,0.639,0.762,1.278,1.149,1.926c0.391-0.272,0.836-0.416,1.054-0.77
			c0.411-0.667,0.905-0.258,1.017,0.021c0.227,0.57,0.704,0.98,0.625,1.802c-0.154,1.613-0.089,1.622,1.168,2.379
			c-0.2,0.221-0.376,0.415-0.611,0.674c0.303,0.619,0.318,1.37,1.211,1.355c0.472-0.008,0.874,0.725,0.959,1.523
			c-0.516-0.213-0.966-0.399-1.417-0.586c-0.014,0.053-0.026,0.108-0.04,0.161c0.997,0.751,1.955,1.596,2.999,2.228
			c1.122,0.681,1.652,1.977,2.459,3.114c-0.304,0.339-0.721,0.424-0.929,0.068c-0.432-0.739-1.077-0.661-1.649-0.837
			c-2.34-0.726-4.676-1.498-7.04-2.083c-1.393-0.345-2.843-0.333-4.26-0.551c-2.237-0.344-4.464-0.79-6.703-1.112
			c-1.618-0.233-3.249-0.333-4.858-0.492c-0.076-0.657-0.123-1.149-0.21-1.63c-0.006-0.039-0.282-0.006-0.47-0.006v1.239
			c-0.122,0.094-0.22,0.23-0.326,0.24c-0.363,0.036-0.731,0.024-1.096,0.036c-1.716,0.058-3.432,0.116-5.148,0.176
			c-0.163,0.006-0.331,0.051-0.491,0.027c-3.255-0.483-6.447,0.606-9.684,0.57c-2.626-0.03-5.251-0.052-7.876-0.129
			c-1.553-0.045-3.104-0.189-4.691-0.401c0.191-0.043,0.38-0.103,0.572-0.125c1.336-0.151,2.69,0.002,4.005-0.549
			c0.516-0.217,1.134-0.052,1.705-0.089c0.512-0.032,1.022-0.103,1.672-0.171c-0.266-0.731-0.456-1.251-0.689-1.89h3.33
			c0.013,0.081,0.024,0.162,0.037,0.244c-0.507,0.086-1.015,0.171-1.522,0.257c0.003,0.098,0.005,0.197,0.007,0.295
			c1.564,0.289,3.135,0.169,4.705,0.1c0.014-0.105,0.028-0.211,0.042-0.316c-0.459-0.144-0.918-0.286-1.462-0.454
			c0.2-0.332,0.339-0.563,0.476-0.793c-0.06-0.066-0.114-0.178-0.179-0.191c-1.871-0.34-3.752-0.596-5.644-0.478
			c-0.894,0.056-1.777,0.33-2.67,0.469c-0.474,0.074-0.957,0.237-1.359-0.362c-0.132-0.196-0.557-0.272-0.778-0.171
			c-0.952,0.435-1.906,0.405-2.894,0.287c-0.794-0.095-1.602-0.02-2.405-0.02c-0.004-0.112-0.008-0.225-0.013-0.337
			c0.772-0.05,1.543-0.118,2.316-0.142c0.772-0.025,1.544-0.006,2.316-0.006c0.012-0.103,0.022-0.207,0.034-0.31
			c-0.545-0.073-1.091-0.147-1.857-0.25c0.406-0.276,0.624-0.424,0.903-0.614c-0.512-0.98-1.304,0.184-1.822-0.529
			c0.011-0.185,0.025-0.449,0.039-0.714c-1.188-0.362-2.415,0.696-3.55-0.435c1.807-0.191,3.562-0.375,5.391-0.569
			c-0.303-0.514-1.145-0.212-0.974-0.99c0.168-0.769,0.742-0.265,1.153-0.256c2.7,0.061,5.401,0.119,8.101,0.167
			c1.016,0.017,2.031,0.002,3.055-0.184c-1.262-0.77-2.638-0.188-3.958-0.555c-1.368-0.381-2.835-0.299-4.259-0.286
			c-1.375,0.012-2.75,0.193-4.07,0.295c-0.221-0.574-0.337-1.103-0.596-1.491c-0.407-0.611-0.901-1.062-1.655-0.885
			c-0.428,0.1-0.9-0.112-1.343-0.066c-0.613,0.064-1.217,0.237-1.925,0.386c-0.072-0.115-0.253-0.405-0.571-0.919h5.484
			c-0.403-0.457-0.56-0.636-0.724-0.821c1.272-0.559,2.5-0.537,4.102,0.1c-0.534,0.11-0.989,0.205-1.444,0.299
			c-0.002,0.095-0.005,0.19-0.007,0.284c0.831,0.132,1.661,0.263,2.537,0.401c-0.035-0.623-0.068-1.235-0.109-1.986
			c0.504-0.015,0.957-0.603,1.228,0.415c0.062,0.232,0.589,0.277,0.984,0.442c0.112-0.812,0.197-1.435,0.288-2.103h1.133
			c-0.2,0.28-0.359,0.501-0.589,0.822c0.615,0.38,1.225,0.594,1.853,0.585c0.284-0.003,0.596-0.272,0.832-0.512
			c0.078-0.08-0.043-0.45-0.079-0.734c0.663-0.449,1.34-0.886,2.177-0.16c-0.265,0.263-0.496,0.491-0.932,0.924
			c0.697,0.129,1.163,0.215,1.672,0.31c-0.044,0.173-0.094,0.365-0.16,0.622c0.565,0.321,1.015,0.223,1.323-0.478
			c0.304-0.692-0.251-0.82-0.636-1.252c0.486-0.116,0.879-0.211,1.417-0.339c-0.399-0.369-0.665-0.617-1.185-1.099
			c0.613-0.079,0.95-0.113,1.284-0.166c0.556-0.087,1.109-0.208,1.666-0.266c0.255-0.027,0.677-0.417,0.698,0.337
			c0.536,0.009,0.964,0.586,1.62,0.181c0.578-0.358,1.29-0.447,2.017-0.117c0.46,0.21,1.05-0.06,1.575-0.009
			c1.93,0.186,3.855,0.443,5.786,0.617c1.05,0.095,2.108,0.058,3.16,0.118c0.36,0.02,0.723,0.12,1.069,0.249
			c0.816,0.303,1.612,0.69,2.434,0.959c0.681,0.222,1.389,0.324,2.125,0.49c0.108-0.254,0.215-0.503,0.335-0.784
			c1.897,0.601,3.774,1.225,5.762,1.538c-0.038-0.855-0.569-0.786-0.876-1.031c-0.298-0.237-0.888,0.173-0.958-0.761
			c0.319,0.03,0.607,0.058,0.835,0.079c-0.208-0.337-0.439-0.711-0.67-1.086c-0.028,0.086-0.057,0.17-0.084,0.256
			c-0.74-0.141-1.481-0.273-2.219-0.426c-0.684-0.142-1.369-0.293-2.048-0.468c-0.277-0.071-0.6-0.133-0.794-0.346
			c-0.156-0.171-0.147-0.565-0.231-0.944c-0.469-0.122-1.047-0.271-1.672-0.433c0.307-0.944,0.849-0.621,1.299-0.608
			c0.303,0.009,0.294,0.012,0.901-0.551c0.153-0.141,0.385-0.201,0.584-0.208c0.735-0.024,1.471-0.009,2.28-0.009
			c0.156-0.257,0.345-0.89,0.616-0.948c0.53-0.113,1.104,0.096,1.92,0.206c-0.445,0.305-0.65,0.443-0.854,0.582
			c0.998,0.971,1.04,0.985,2.303,0.731c-0.029-0.185-0.021-0.398-0.098-0.541c-0.084-0.154-0.25-0.242-0.345-0.58
			c0.7,0.166,1.4,0.331,2.175,0.513c-0.157,0.381-0.237,0.573-0.373,0.903c0.697,0.482,1.389,0.959,2.18,1.505
			c-0.254,0.1-0.432,0.168-0.669,0.261c0.163,0.169,0.321,0.332,0.401,0.416c-0.118,0.45-0.363,0.924-0.265,1.084
			c0.524,0.857,1.244,1.062,2.104,0.505c-0.069,1.693,1.637,0.771,1.82,2.062c-1.043-0.229-2.073-0.456-3.103-0.682l0.033,0.03
			c-0.245-0.186-0.49-0.374-0.794-0.606c-0.242,1.715-0.242,1.715-1.806,2.03c0.279,0.823,0.914,0.696,1.416,0.871
			c0.549,0.192,1.098,0.379,1.887,0.651c-0.488,0.122-0.738,0.183-1.031,0.256c0.38,0.264,0.722,0.501,1.064,0.739
			c-0.031,0.096-0.061,0.193-0.093,0.291c-0.215-0.03-0.43-0.06-0.651-0.083c-0.442-0.017-0.874-0.602-1.361,0.032
			C181.391-69.81,181.83-70.305,182.272-70.499L182.272-70.499z M178.68-69.711c-0.373-0.723-0.935-0.501-1.466-0.439
			c-0.36-0.167-0.714-0.366-1.082-0.494c-1.722-0.599-3.449-1.179-5.175-1.758c-0.112-0.037-0.239-0.005-0.505-0.005
			c0.363-0.38,1.003-0.278,0.64-0.892c-0.68,0.053-1.303,0.102-1.957,0.153c0.142,0.409,0.048,0.764-0.425,0.68
			c-0.516-0.093-1.021-0.273-1.521-0.406c0.412,0.079,0.824,0.156,1.236,0.234c0.003-0.127,0.006-0.255,0.011-0.382
			c-0.413,0.054-0.824,0.109-1.236,0.163c-0.595,0.028-1.19,0.061-1.786,0.082c-0.403,0.014-0.826-0.035-0.939,0.613
			c-0.351-0.657-0.85-0.831-1.476-0.833c-1.832-0.003-3.664-0.088-5.496-0.104c-0.41-0.003-0.82,0.144-1.23,0.222
			c0.006,0.123,0.013,0.245,0.019,0.368c0.951,0.067,1.9,0.163,2.852,0.197c1.776,0.064,3.553,0.091,5.33,0.134
			c0.276-0.042,0.571-0.178,0.826-0.107c1.057,0.294,2.102,0.654,3.153,0.982c0.151,0.047,0.382,0.137,0.457,0.051
			c0.537-0.623,1.2-0.344,1.733-0.221c1.159,0.269,2.49,0.029,3.295,1.351c0.554-0.045,1.059-0.211,1.511-0.087
			c0.447,0.123,0.84,0.54,1.374,0.908c-0.025-0.47-0.037-0.697-0.055-1.029c0.175,0.069,0.312,0.125,0.449,0.179
			c0.499,0.132,0.998,0.265,1.497,0.397c-0.159,0.152-0.317,0.305-0.482,0.463c0.464,0.482,0.853,0.742,1.387,0.041
			C179.242-69.436,178.962-69.574,178.68-69.711L178.68-69.711z M173.567-62.878c0.699,0.093,1.397,0.185,2.096,0.278
			c-0.696-0.677-1.407-0.769-2.124-0.245c-0.034-0.198-0.037-0.547-0.107-0.569c-0.43-0.131-0.875-0.184-1.313-0.277
			c-0.058-0.012-0.105-0.102-0.152-0.151c0.1-0.151,0.196-0.294,0.496-0.745c-1.045,0.193-1.826,0.337-2.605,0.481
			c-0.004,0.125-0.009,0.25-0.014,0.375C171.031-63.173,172.274-62.927,173.567-62.878L173.567-62.878z M168.739-63.72
			c-0.819-1.405-1.563-1.842-2.342-1.293c-0.946,0.668-1.872,0.044-2.805,0.059c-0.086-0.865-0.556-0.498-0.92-0.415
			c-0.667,0.153-1.33,0.339-1.997,0.496c-0.325,0.075-0.679,0.082-0.595,0.754C162.95-63.987,165.826-63.854,168.739-63.72
			L168.739-63.72z M136.926-65.964c0.411,0.243,0.624,0.379,0.845,0.498c0.626,0.338,1.277,1.142,1.831-0.144
			c0.036-0.085,0.258-0.147,0.335-0.094c1.001,0.707,1.82-0.038,2.507-0.368c-0.171-0.317-0.325-0.77-0.599-1.042
			c-0.144-0.144-0.666-0.075-0.727,0.075c-0.304,0.754-0.806,0.679-1.352,0.711C138.88-66.275,138-66.109,136.926-65.964
			L136.926-65.964z M158.298-63.367c0.435-0.398,0.801-0.734,1.255-1.151c-0.405-0.221-0.707-0.388-0.968-0.53
			c0.064-0.23,0.109-0.395,0.178-0.639h-0.895c-0.515,0.622-0.866,1.047-1.301,1.572C157.173-63.853,157.713-63.619,158.298-63.367
			L158.298-63.367z M169.92-61.158c0.884,0.985,2.336,1.152,3.374,0.387C172.554-61.494,171.35-61.632,169.92-61.158L169.92-61.158z
			 M174.376-74.251c1.296,0.064,2.437,1.357,3.828,0.681C176.97-74.127,175.664-74.124,174.376-74.251L174.376-74.251z
			 M150.326-76.43c1.158,0.492,2.993,0.486,3.793,0H150.326L150.326-76.43z M155.456-72.805c-0.674-0.236-1.343-0.388-2.073,0.144
			C154.18-72.034,154.831-72.138,155.456-72.805L155.456-72.805z M166.439-73.239c-0.507-0.258-1.016-0.516-1.682-0.855
			C165.089-72.635,165.805-73.075,166.439-73.239L166.439-73.239z M175.368-72.296c-0.009,0.159-0.02,0.316-0.029,0.475
			c0.685,0.066,1.372,0.132,2.057,0.199c0.011-0.146,0.021-0.292,0.033-0.438C176.741-72.139,176.055-72.218,175.368-72.296
			L175.368-72.296z M149.989-72.843c-0.022-0.141-0.044-0.281-0.067-0.421c-0.378,0.072-0.757,0.145-1.237,0.236
			C149.283-71.759,149.609-72.68,149.989-72.843L149.989-72.843z M181.714-58.924c-0.534-0.498-1.103-0.734-1.948-0.394
			C180.47-58.651,181.102-58.857,181.714-58.924L181.714-58.924z M140.906-73.29c0.504,0.755,0.504,0.755,1.22,0.065
			C141.638-73.251,141.272-73.27,140.906-73.29L140.906-73.29z M151.747-65.309c0.446,0.046,0.904,0.349,1.45-0.067
			C152.605-65.798,152.16-66.022,151.747-65.309L151.747-65.309z M173.501-78.407c0.904,0.281,0.904,0.281,1.084-0.655
			C174.258-78.864,173.994-78.704,173.501-78.407L173.501-78.407z M156.003-76.463c0,0.142,0,0.285-0.001,0.427
			c0.347-0.051,0.694-0.102,1.04-0.153c-0.006-0.091-0.012-0.183-0.018-0.274H156.003L156.003-76.463z M162.964-74.225
			c0.009,0.127,0.019,0.255,0.027,0.383c0.223-0.014,0.446-0.028,0.67-0.042c-0.014-0.17-0.028-0.34-0.042-0.509
			C163.401-74.338,163.182-74.281,162.964-74.225L162.964-74.225z M139.664-71.037c0.047-0.112,0.095-0.225,0.142-0.337
			c-0.199-0.115-0.397-0.235-0.602-0.331c-0.009-0.005-0.087,0.213-0.134,0.327C139.268-71.265,139.466-71.15,139.664-71.037
			L139.664-71.037z M164.08-76.273h-1.334C163.364-75.902,163.364-75.902,164.08-76.273L164.08-76.273z M141.578-68.458
			c-0.029,0.071-0.059,0.141-0.088,0.212h1.327c0.002-0.071,0.003-0.141,0.005-0.212H141.578L141.578-68.458z M145.535-72.903
			c0,0.029-0.001,0.057-0.002,0.086h1.153c0.001-0.029,0.002-0.057,0.003-0.086H145.535L145.535-72.903z M153.234-69.517
			c0-0.014-0.001-0.029-0.002-0.043h-0.799c0.003,0.045,0.005,0.091,0.008,0.137C152.705-69.455,152.97-69.486,153.234-69.517
			L153.234-69.517z M150.277-64.219c0.007,0.123,0.015,0.247,0.022,0.369c0.196-0.047,0.391-0.095,0.586-0.144
			c-0.009-0.075-0.018-0.151-0.027-0.226L150.277-64.219L150.277-64.219z M172.98-77.999c0.011-0.135,0.022-0.27,0.033-0.405h-0.777
			c-0.004,0.089-0.008,0.178-0.014,0.266C172.474-78.092,172.727-78.045,172.98-77.999L172.98-77.999z M158.125-73.961
			c0.035,0.082,0.068,0.166,0.102,0.248c0.159-0.1,0.321-0.193,0.473-0.309c0.013-0.009-0.047-0.162-0.074-0.249
			C158.459-74.169,158.293-74.065,158.125-73.961L158.125-73.961z M153.53-63.999c-0.001-0.05-0.001-0.1-0.002-0.148h-0.897
			c0.001,0.049,0.002,0.098,0.003,0.148L153.53-63.999L153.53-63.999z M140.752-68.151c-0.012-0.105-0.022-0.211-0.034-0.316
			c-0.174,0.028-0.347,0.056-0.522,0.083c0.027,0.119,0.06,0.344,0.081,0.342C140.437-68.053,140.594-68.108,140.752-68.151
			L140.752-68.151z M168.287-73.32c0.023-0.104,0.047-0.21,0.072-0.314c-0.163-0.063-0.325-0.132-0.492-0.17
			c-0.012-0.003-0.059,0.222-0.09,0.342C167.947-73.415,168.117-73.367,168.287-73.32L168.287-73.32z"/>
		<path id="Fill-3" sketch:type="MSShapeGroup" fill="#9F750A" d="M166.669-83.723c-0.141-0.087-0.488-0.383-0.873-0.516
			c-0.33-0.113-0.714-0.118-1.052-0.034c-0.674,0.166-1.332,0.426-2.159,0.702c0.197,0.5,0.398,1.011,0.589,1.493
			c-0.83,0.236-1.147-0.536-0.759-2.291c-0.953-0.357-1.89-0.731-2.968-0.149c0.632,0.369,1.171,0.684,1.944,1.136
			c-0.714,0.223-1.144,0.358-1.619,0.507v0.805c-0.353-0.036-0.692-0.071-1.131-0.115c0.115-0.452,0.192-0.75,0.28-1.093
			c-0.293-0.05-0.529-0.089-0.948-0.16c0.427-0.071,0.679-0.112,0.933-0.154c-0.143-0.878-0.143-0.878-1.301-1.305
			c0.338-0.699,0.658-1.361,1.096-2.265c0.186,0.041,0.598,0.13,0.892,0.193v1.589c1.141,1.103,1.629-0.589,2.55-0.388
			c-0.17-0.449-0.287-0.763-0.434-1.151c0.217-0.235,0.443-0.481,0.785-0.852c0.182,0.595,0.334,1.09,0.53,1.728
			c0.247,0.175,0.598,0.424,1.016,0.72c0.747-0.651,1.578-1.105,2.605-0.71c-0.24-0.17-0.479-0.34-0.766-0.544
			c0.274-0.754,0.93-0.461,1.37-0.827c0.26,0.274,0.496,0.522,0.794,0.836c0.178-0.314,0.326-0.574,0.465-0.82
			c0.113,0.028,0.248,0.038,0.252,0.065c0.045,0.528,0.288,0.813,0.708,0.858c0.484,0.051,0.971,0.097,1.457,0.103
			c0.662,0.008,1.24,0.156,1.841,0.622c0.707,0.547,1.555,0.857,2.372,1.139c0.345,0.12,0.767-0.091,1.18-0.155
			c-0.097-0.321-0.15-0.494-0.257-0.851c0.437,0.302,0.854,0.09,1.131,0.763c0.347,0.843,0.57,0.783,1.098,0.015
			c0.048-0.071,0.129-0.109,0.313-0.257c1.504,0.464,3.102,0.958,4.76,1.471c0.153-0.811-0.258-1.005-0.775-1.13
			c-1.282-0.31-2.568-0.608-3.842-0.968c-0.953-0.269-1.908-0.563-2.83-0.959c-1.8-0.773-3.682-0.779-5.54-1.029
			c-0.93-0.124-1.847-0.386-2.787-0.707h2.752v-0.966c1.216,0.485,2.357,0.94,3.418,1.363c0.218-0.258,0.397-0.636,0.55-0.619
			c0.308,0.031,0.599,0.287,0.902,0.432c0.954,0.457,1.885,0.924,2.962,0.468c0.622-0.264,1.212,0.14,1.68,0.652
			c0.521,0.571,1.087,0.882,1.79,0.782c0.121-0.017,0.253-0.022,0.366,0.019c2.59,0.917,5.146,1.946,7.508,3.579
			c0.379,0.263,0.705,0.639,1.008,1.077c-2.215-0.518-4.074-2.525-6.45-2.242c1.189,1.217,2.66,1.591,4.052,2.177
			c0.92,0.388,0.937,0.329,1.68,1.565c-0.325-0.082-0.555-0.142-0.784-0.197c-0.218-0.052-0.436-0.098-0.745-0.167
			c0.177,1.561,1.631,1.323,1.979,2.483c-0.779-0.481-1.638-0.582-2.415-1.054c-0.731-0.442-1.561-0.655-2.36-0.905
			c-0.865-0.272-1.746-0.471-2.789-0.747c0.084,0.438,0.124,0.646,0.192,1c-0.225-0.08-0.534-0.12-0.541-0.203
			c-0.12-1.268-0.993-1.352-1.701-1.545c-0.834-0.227-1.705-0.249-2.558-0.366c-0.201-0.027-0.44-0.009-0.595-0.135
			c-1.112-0.91-2.423-1.064-3.643-1c-1.203,0.063-2.548-0.38-3.695,0.731c0.234,0.195,0.426,0.354,0.61,0.506
			c-0.06,0.511-1.693,0.122-2.579-0.623c0.205-0.189,0.403-0.344,0.575-0.536c0.16-0.179,0.445-0.494,0.409-0.58
			c-0.118-0.276-0.364-0.673-0.55-0.663C168.037-84.097,167.465-83.903,166.669-83.723"/>
		<path id="Fill-4" sketch:type="MSShapeGroup" fill="#9F750A" d="M103.764-89.447c-0.732,0.139-1.3,0.221-1.86,0.362
			c-0.354,0.09-0.726,0.199-1.034,0.419c-1.056,0.751-1.046,0.771-2.247,0.751c0.044-0.142,0.083-0.267,0.121-0.391
			c0.057-0.189,0.176-0.394,0.148-0.562c-0.017-0.102-0.284-0.242-0.398-0.2c-0.268,0.098-0.54,0.252-0.762,0.462
			c-1.296,1.222-2.814,1.085-4.31,1.092c-0.738,0.003-1.476,0.009-2.213-0.02c-0.451-0.017-0.916,0.283-1.323-0.41
			c-0.165-0.28-0.844-0.16-1.284-0.131c-0.644,0.044-1.283,0.17-1.992,0.27c0.298-0.658,0.323-1.454,1.074-1.432
			c-0.471-0.039-0.941-0.078-1.412-0.117v-0.129c0.71-0.061,1.419-0.123,2.171-0.189c-0.063-0.738-0.474-0.707-0.815-0.75
			c-1.697-0.217-3.396-0.417-5.305-0.648c0.334-0.31,0.465-0.432,0.671-0.623c-0.912-0.698-1.962-0.095-2.878-0.58
			c0.592-0.654,0.592-0.651,2.751-0.68c0.984-0.014,1.97-0.09,2.952-0.05c0.972,0.041,1.94,0.193,2.962,0.302
			c-0.065,0.381-0.097,0.564-0.13,0.755c0.061,0.035,0.123,0.097,0.187,0.1c0.605,0.03,1.212,0.087,1.815,0.054
			c0.246-0.014,0.622-0.152,0.703-0.367c0.285-0.757,0.843-0.735,1.348-0.823c1.8-0.316,3.596-0.457,5.33,0.465
			c0.172,0.091,0.386,0.107,0.578,0.093c2.531-0.184,5.061-0.381,7.593-0.565c0.189-0.014,0.382,0.035,0.6,0.242
			c-0.526,0.21-1.052,0.419-1.643,0.654C105.438-90.524,103.441-90.994,103.764-89.447L103.764-89.447z M100.916-91.546
			c-0.54-0.147-1-0.267-1.459-0.399c-1.094-0.314-1.7-0.02-2.192,1.15c0.729,0.308,1.444,0.611,2.074,0.878
			c0.397-0.251,0.702-0.544,1.043-0.637C100.853-90.681,100.993-90.97,100.916-91.546L100.916-91.546z M90.863-90.42
			c-0.534-0.1-1.074-0.281-1.583,0.23C90.123-89.491,90.131-89.492,90.863-90.42L90.863-90.42z M88.734-88.635
			c0.514-0.252,1.263,0.483,1.524-0.579c-0.178-0.028-0.327-0.068-0.479-0.074c-0.316-0.01-0.632-0.002-0.959-0.002
			C88.785-89.016,88.76-88.825,88.734-88.635L88.734-88.635z"/>
		<path id="Fill-5" sketch:type="MSShapeGroup" fill="#9F750A" d="M124.405-73.384c-0.582-0.333-1.156-0.662-1.732-0.992
			c0.178-0.886,1.467-0.205,1.261-1.577c0.327,0.299,0.56,0.474,0.752,0.699c0.108,0.129,0.243,0.375,0.208,0.508
			c-0.203,0.792,0.31,0.727,0.624,0.739c0.466,0.017,0.937-0.102,1.491,0.103c-0.25,0.249-0.498,0.498-0.74,0.74
			c0.202,0.134,0.402,0.267,0.765,0.508c-1.511,1.334-2.782,0.141-4.099-0.204C123.421-73.032,123.908-73.205,124.405-73.384"/>
		<path id="Fill-6" sketch:type="MSShapeGroup" fill="#9F750A" d="M155.21-83.912h-0.951c-0.001,0.045-0.002,0.091-0.003,0.137
			c0.292,0.068,0.584,0.137,0.904,0.212c-0.245,0.449-0.454,0.83-0.682,1.249c-1.056-0.243-1.432-1.181-1.614-2.301
			C154.452-85.464,154.551-85.444,155.21-83.912"/>
		<path id="Fill-7" sketch:type="MSShapeGroup" fill="#9F750A" d="M144.645-84.814c-0.059,0.835-1.164,0.364-0.768,1.383
			c-0.157,0.02-0.432,0.105-0.452,0.05c-0.392-1.072-1.467-0.845-2.107-1.724C142.518-85.322,143.622-85.682,144.645-84.814"/>
		<path id="Fill-8" sketch:type="MSShapeGroup" fill="#9F750A" d="M39.382-91.74h3.409c0.011,0.094,0.021,0.188,0.032,0.283
			c-0.282,0.067-0.576,0.095-0.843,0.213c-0.232,0.102-0.486,0.252-0.639,0.476c-0.402,0.593-0.692,0.68-1.135,0.179
			C39.972-90.852,39.782-91.175,39.382-91.74"/>
		<path id="Fill-9" sketch:type="MSShapeGroup" fill="#9F750A" d="M143.309-90.081c-1.164,1.475-1.483,1.557-2.246,0.646
			C141.594-90.538,142.424-90.191,143.309-90.081"/>
		<path id="Fill-10" sketch:type="MSShapeGroup" fill="#9F750A" d="M124.97-78.994c0.965-0.206,1.82-0.389,2.744-0.587
			C127.064-78.223,126.125-78.009,124.97-78.994"/>
		<path id="Fill-11" sketch:type="MSShapeGroup" fill="#9F750A" d="M142.486-82.757c-0.757,0.193-1.321,0.041-1.606-0.806
			c-0.063-0.191-0.045-0.536,0.058-0.667c0.105-0.132,0.399-0.189,0.542-0.104C141.993-84.029,142.55-83.724,142.486-82.757"/>
		<path id="Fill-12" sketch:type="MSShapeGroup" fill="#9F750A" d="M111.026-90.964c0.802-0.364,1.316-0.595,1.849-0.837
			c0.121,0.394,0.206,0.672,0.312,1.014C112.506-90.505,111.883-90.349,111.026-90.964"/>
		<path id="Fill-13" sketch:type="MSShapeGroup" fill="#9F750A" d="M175.049-75.804c-1.073-0.098-1.974-0.179-2.989-0.272
			c0.298-0.776,0.717-0.571,1.014-0.508C173.713-76.447,174.502-76.916,175.049-75.804"/>
		<path id="Fill-14" sketch:type="MSShapeGroup" fill="#9F750A" d="M149.106-84.68c-0.237,0.506-0.413,0.885-0.576,1.231
			c-0.737,0.003,0.236-1.752-1.214-0.959C148.06-85.337,148.531-85.153,149.106-84.68"/>
		<path id="Fill-15" sketch:type="MSShapeGroup" fill="#9F750A" d="M-7.743-92.366c0.689-0.243,1.248-0.309,1.845,0.134
			C-7.068-91.367-7.328-91.376-7.743-92.366"/>
		<path id="Fill-16" sketch:type="MSShapeGroup" fill="#9F750A" d="M32.982-91.244c-0.797,0.226-1.595,0.453-2.494,0.709
			C30.842-91.58,30.846-91.581,32.982-91.244"/>
		<path id="Fill-17" sketch:type="MSShapeGroup" fill="#9F750A" d="M146.774-89.74c-0.889,0.572-1.228,0.55-2.288-0.11
			C145.346-90.642,146.019-89.239,146.774-89.74"/>
		<path id="Fill-18" sketch:type="MSShapeGroup" fill="#9F750A" d="M88.831-77.006c0.713-0.789,1.361-0.454,2.045-0.23
			C89.745-76.567,89.495-76.531,88.831-77.006"/>
		<path id="Fill-19" sketch:type="MSShapeGroup" fill="#9F750A" d="M139.834-75.77c-0.929,0.071-1.656,0.126-2.383,0.181
			c-0.005-0.11-0.011-0.22-0.015-0.331C138.168-76.181,138.899-76.479,139.834-75.77"/>
		<path id="Fill-20" sketch:type="MSShapeGroup" fill="#9F750A" d="M188.654-69.34c-0.617-0.425-1.234-0.849-1.984-1.365
			C187.665-70.769,187.911-70.623,188.654-69.34"/>
		<path id="Fill-21" sketch:type="MSShapeGroup" fill="#9F750A" d="M134.982-79.632c-0.039,1.291-0.083,1.315-1.132,0.647
			C134.261-79.219,134.59-79.407,134.982-79.632"/>
		<path id="Fill-22" sketch:type="MSShapeGroup" fill="#9F750A" d="M128.85-64.661c-0.415-0.064-0.83-0.129-1.301-0.201
			C128.161-65.558,128.315-65.554,128.85-64.661"/>
		<path id="Fill-23" sketch:type="MSShapeGroup" fill="#9F750A" d="M-39.148-92.15c-0.475,0.868-1.068,0.771-1.673,0.569
			c-0.013-0.109-0.025-0.218-0.038-0.327C-40.289-91.988-39.719-92.069-39.148-92.15"/>
		<path id="Fill-24" sketch:type="MSShapeGroup" fill="#9F750A" d="M139.293-93.435c0.602-1.164,1.264-0.949,1.934-0.728
			C140.67-93.954,140.112-93.743,139.293-93.435"/>
		<path id="Fill-25" sketch:type="MSShapeGroup" fill="#9F750A" d="M142.513-54.341c0.392,0.397,0.688,0.698,1.052,1.069
			C142.245-53.009,142.215-53.036,142.513-54.341"/>
		<path id="Fill-26" sketch:type="MSShapeGroup" fill="#9F750A" d="M182.223-74.648c0.321,0.438,0.641,0.877,0.962,1.314
			c-0.076,0.1-0.152,0.199-0.227,0.299c-0.374-0.364-0.749-0.728-1.215-1.182c0.228-0.171,0.375-0.281,0.517-0.396
			C182.256-74.618,182.223-74.648,182.223-74.648"/>
		<path id="Fill-27" sketch:type="MSShapeGroup" fill="#9F750A" d="M-39.349-92.745h-2.53v-0.067
			c0.843-0.046,1.688-0.093,2.531-0.139C-39.348-92.883-39.349-92.814-39.349-92.745"/>
		<path id="Fill-28" sketch:type="MSShapeGroup" fill="#9F750A" d="M46.681-89.928h-2.209c0-0.066,0-0.132-0.001-0.198h2.208
			C46.678-90.06,46.679-89.994,46.681-89.928"/>
		<path id="Fill-29" sketch:type="MSShapeGroup" fill="#9F750A" d="M147.577-88.469c-0.469-0.079-0.936-0.159-1.404-0.237
			c0.009-0.123,0.019-0.245,0.028-0.369c0.476,0.046,0.953,0.093,1.429,0.139C147.613-88.78,147.595-88.625,147.577-88.469"/>
		<path id="Fill-30" sketch:type="MSShapeGroup" fill="#9F750A" d="M4.487-89.514c-0.297,0.14-0.694,0.328-1.073,0.506
			C3.365-89.825,3.365-89.825,4.487-89.514"/>
		<path id="Fill-31" sketch:type="MSShapeGroup" fill="#9F750A" d="M164.622-80.428c0.683,0.184,1.095,0.294,1.663,0.446
			C165.468-79.453,165.468-79.453,164.622-80.428"/>
		<path id="Fill-32" sketch:type="MSShapeGroup" fill="#9F750A" d="M138.12-77.969c0.094,0.983-0.51,0.697-0.984,0.931
			c0.087-0.981,0.652-0.742,1.009-0.907L138.12-77.969"/>
		<path id="Fill-33" sketch:type="MSShapeGroup" fill="#9F750A" d="M88.76-71.51c0.335,0.064,0.669,0.127,1.003,0.191
			C89.371-70.994,89.005-70.848,88.76-71.51"/>
		<path id="Fill-34" sketch:type="MSShapeGroup" fill="#9F750A" d="M137.958-78.731c-0.322,0.204-0.643,0.408-1.084,0.689
			c0.062-1.053,0.431-1.187,0.936-1.062C137.859-78.98,137.908-78.856,137.958-78.731"/>
		<path id="Fill-35" sketch:type="MSShapeGroup" fill="#9F750A" d="M94.294-64.904h-2.312v-0.247h2.301
			C94.288-65.069,94.291-64.987,94.294-64.904"/>
		<path id="Fill-36" sketch:type="MSShapeGroup" fill="#9F750A" d="M156.498-86.797c0.459-0.13,0.755-0.213,1.047-0.296
			c0.039,0.171,0.099,0.295,0.072,0.338C157.341-86.306,157.033-86.103,156.498-86.797"/>
		<path id="Fill-37" sketch:type="MSShapeGroup" fill="#9F750A" d="M151.293-80.329c-0.204,0.226-0.396,0.439-0.733,0.812
			c-0.02-0.445-0.091-0.692-0.027-0.868C150.746-80.982,150.999-80.731,151.293-80.329"/>
		<path id="Fill-38" sketch:type="MSShapeGroup" fill="#9F750A" d="M173.185-86.077c0.592,0.2,0.981,0.333,1.372,0.467
			C174.136-85.582,173.637-85.097,173.185-86.077"/>
		<path id="Fill-39" sketch:type="MSShapeGroup" fill="#9F750A" d="M141.468-78.103c-0.259,0.047-0.519,0.094-0.778,0.141
			c-0.014-0.094-0.028-0.188-0.042-0.281c0.264-0.075,0.529-0.149,0.792-0.225C141.449-78.346,141.458-78.225,141.468-78.103"/>
		<path id="Fill-40" sketch:type="MSShapeGroup" fill="#9F750A" d="M139.518-84.879c0.45-0.755,0.781-0.55,1.273,0H139.518"/>
		<path id="Fill-41" sketch:type="MSShapeGroup" fill="#9F750A" d="M123.346-76.97c0.301-0.098,0.601-0.197,0.902-0.295
			c0.024,0.108,0.049,0.215,0.074,0.323c-0.3,0.102-0.601,0.204-0.901,0.307C123.395-76.747,123.37-76.859,123.346-76.97"/>
		<path id="Fill-42" sketch:type="MSShapeGroup" fill="#9F750A" d="M162.706-79.989c-0.244,0.057-0.487,0.115-0.941,0.22
			C162.148-80.382,162.39-80.45,162.706-79.989"/>
		<path id="Fill-43" sketch:type="MSShapeGroup" fill="#9F750A" d="M132.103-68.883c-0.244,0.019-0.49,0.037-0.734,0.056
			c-0.012-0.095-0.022-0.19-0.033-0.285c0.245-0.056,0.491-0.111,0.737-0.168C132.083-69.148,132.093-69.015,132.103-68.883"/>
		<path id="Fill-44" sketch:type="MSShapeGroup" fill="#9F750A" d="M96.084-69.608c-0.444,0.69-0.731,0.602-0.917-0.27
			C95.452-69.793,95.739-69.71,96.084-69.608"/>
		<path id="Fill-45" sketch:type="MSShapeGroup" fill="#9F750A" d="M102.804-87.753c-0.068-0.261-0.132-0.395-0.132-0.529
			c0-0.125,0.066-0.251,0.103-0.377c0.117,0.096,0.247,0.175,0.338,0.299C103.134-88.333,103.008-88.148,102.804-87.753"/>
		<path id="Fill-46" sketch:type="MSShapeGroup" fill="#9F750A" d="M165.754-82.777c0.146,0.179,0.293,0.359,0.439,0.54
			c-0.049,0.073-0.1,0.146-0.151,0.219c-0.174-0.155-0.348-0.31-0.522-0.465C165.598-82.582,165.676-82.679,165.754-82.777"/>
		<path id="Fill-47" sketch:type="MSShapeGroup" fill="#9F750A" d="M161.082-79.83c-0.245,0.05-0.49,0.101-0.735,0.152
			c-0.02-0.086-0.041-0.173-0.062-0.258c0.24-0.096,0.479-0.191,0.718-0.286C161.029-80.091,161.055-79.961,161.082-79.83"/>
		<path id="Fill-48" sketch:type="MSShapeGroup" fill="#9F750A" d="M120.259-61.904c-0.185,0-0.37,0.001-0.555-0.007
			c-0.004,0-0.005-0.105-0.007-0.161h0.562L120.259-61.904"/>
		<path id="Fill-49" sketch:type="MSShapeGroup" fill="#9F750A" d="M117.219-72.154c0.254-0.139,0.507-0.279,0.761-0.418
			c0.019,0.096,0.038,0.192,0.058,0.289c-0.281,0.036-0.562,0.071-0.845,0.104C117.191-72.179,117.219-72.154,117.219-72.154"/>
		<path id="Fill-50" sketch:type="MSShapeGroup" fill="#9F750A" d="M139.462-86.837c0.146-0.109,0.293-0.217,0.439-0.325
			c0.029,0.081,0.091,0.228,0.082,0.234c-0.142,0.103-0.293,0.189-0.441,0.279C139.516-86.712,139.488-86.775,139.462-86.837"/>
		<path id="Fill-51" sketch:type="MSShapeGroup" fill="#9F750A" d="M151.084-83.552c0.193-0.046,0.384-0.093,0.576-0.14
			c0.014,0.093,0.026,0.183,0.039,0.274c-0.195,0.029-0.391,0.059-0.585,0.087C151.104-83.404,151.094-83.478,151.084-83.552"/>
		<path id="Fill-52" sketch:type="MSShapeGroup" fill="#9F750A" d="M138.144-77.945c0.372-0.066,0.742-0.133,1.114-0.2
			c0.002,0.061,0.005,0.122,0.007,0.183c-0.379,0-0.759,0-1.142-0.003C138.12-77.969,138.144-77.945,138.144-77.945"/>
		<path id="Fill-53" sketch:type="MSShapeGroup" fill="#9F750A" d="M134.343-88.2c-0.237,0.196-0.386,0.405-0.47,0.372
			c-0.173-0.072-0.33-0.252-0.446-0.434c-0.025-0.039,0.186-0.408,0.226-0.391C133.856-88.573,134.036-88.414,134.343-88.2"/>
	</g>
</g>
</svg>
