<?xml version="1.0" encoding="UTF-8" standalone="no"?>
<svg width="457px" height="442px" viewBox="0 0 457 442" version="1.1" xmlns="http://www.w3.org/2000/svg" xmlns:xlink="http://www.w3.org/1999/xlink">
    <!-- Generator: Sketch 41.2 (35397) - http://www.bohemiancoding.com/sketch -->
    <title>small-icons</title>
    <desc>Created with Sketch.</desc>
    <defs></defs>
    <g id="case-studies" stroke="none" stroke-width="1" fill="none" fill-rule="evenodd">
        <g id="Desktop-HD" transform="translate(-452.000000, -4054.000000)" fill="#FFFFFF">
            <g id="small-icons" transform="translate(452.000000, 4054.000000)">
                <g id="Group-2">
                    <g id="Page-1">
                        <g id="Group-2">
                            <g id="kitchen" transform="translate(3.000000, 2.000000)">
                                <path d="M38.195,14.653 L36.899,14.653 L36.899,12.918 C37.804,12.729 38.485,11.926 38.485,10.967 L38.485,10.319 C38.485,9.255 37.646,8.391 36.595,8.336 C35.587,6.008 31.996,4.316 27.68,4.316 L21.137,4.316 L21.137,1.977 L24.264,1.977 C24.695,1.977 25.043,1.629 25.043,1.198 C25.043,0.768 24.695,0.419 24.264,0.419 L16.45,0.419 C16.019,0.419 15.671,0.768 15.671,1.198 C15.671,1.629 16.019,1.977 16.45,1.977 L19.578,1.977 L19.578,4.316 L12.983,4.316 C8.661,4.316 5.066,6.013 4.064,8.345 C3.059,8.447 2.269,9.288 2.269,10.319 L2.269,10.967 C2.269,11.926 2.95,12.729 3.855,12.918 L3.855,14.653 L2.559,14.653 C1.457,14.653 0.56,15.55 0.56,16.651 L0.56,17.999 C0.56,19.101 1.457,19.997 2.559,19.997 L3.855,19.997 L3.855,30.217 C3.855,32.982 6.105,35.232 8.871,35.232 L31.884,35.232 C34.649,35.232 36.899,32.982 36.899,30.217 L36.899,19.997 L38.195,19.997 C39.297,19.997 40.194,19.101 40.194,17.999 L40.194,16.651 C40.194,15.55 39.297,14.653 38.195,14.653 L38.195,14.653 Z M38.635,17.999 C38.635,18.241 38.438,18.438 38.195,18.438 L36.899,18.438 L36.899,16.212 L38.195,16.212 C38.438,16.212 38.635,16.409 38.635,16.651 L38.635,17.999 L38.635,17.999 Z M35.341,19.997 L35.341,30.217 C35.341,32.123 33.79,33.674 31.884,33.674 L8.871,33.674 C6.964,33.674 5.414,32.123 5.414,30.217 L5.414,12.961 L35.341,12.961 L35.341,19.997 L35.341,19.997 Z M2.119,17.999 L2.119,16.651 C2.119,16.409 2.316,16.212 2.559,16.212 L3.855,16.212 L3.855,18.438 L2.559,18.438 C2.316,18.438 2.119,18.241 2.119,17.999 L2.119,17.999 Z M3.828,10.319 L3.828,10.316 C3.83,10.078 4.025,9.884 4.264,9.884 L36.491,9.884 C36.717,9.884 36.899,10.06 36.919,10.282 C36.92,10.295 36.927,10.306 36.927,10.319 L36.927,10.967 C36.927,11.015 36.914,11.058 36.899,11.102 C36.842,11.275 36.683,11.402 36.491,11.402 L4.264,11.402 C4.071,11.402 3.913,11.275 3.855,11.102 C3.841,11.058 3.828,11.015 3.828,10.967 L3.828,10.319 L3.828,10.319 Z M12.983,5.875 L27.68,5.875 C31.089,5.875 33.685,6.998 34.766,8.325 L5.898,8.325 C6.978,6.998 9.574,5.875 12.983,5.875 L12.983,5.875 Z" id="Fill-42"></path>
                                <path d="M33.497,22.774 C33.067,22.774 32.718,23.123 32.718,23.554 L32.718,29.118 C32.718,30.038 31.97,30.787 31.05,30.787 L24.355,30.787 C23.925,30.787 23.576,31.136 23.576,31.566 C23.576,31.997 23.925,32.346 24.355,32.346 L31.05,32.346 C32.829,32.346 34.276,30.898 34.276,29.118 L34.276,23.554 C34.276,23.123 33.928,22.774 33.497,22.774" id="Fill-43"></path>
                            </g>
                            <g id="kids-room" transform="translate(106.000000, 1.000000)">
                                <path d="M37.366,5.289 C38.403,4.957 39.161,3.995 39.161,2.849 C39.161,1.429 38.006,0.273 36.586,0.273 C35.167,0.273 34.012,1.429 34.012,2.849 C34.012,3.995 34.77,4.957 35.807,5.289 L35.807,9.857 L5.176,9.857 L5.176,5.29 C6.214,4.958 6.973,3.996 6.973,2.849 C6.973,1.429 5.818,0.273 4.398,0.273 C2.978,0.273 1.824,1.429 1.824,2.849 C1.824,3.994 2.581,4.956 3.617,5.289 L3.617,30.95 C2.854,30.498 2.11,30.02 1.396,29.505 L0.484,30.769 C1.479,31.486 2.535,32.124 3.617,32.724 C8.659,35.512 14.502,37.031 20.49,37.031 C26.477,37.031 32.321,35.512 37.326,32.744 C38.447,32.122 39.502,31.485 40.496,30.769 L39.584,29.505 C38.871,30.019 38.128,30.497 37.366,30.949 L37.366,5.289 Z M4.398,3.864 C3.838,3.864 3.382,3.408 3.382,2.849 C3.382,2.288 3.838,1.832 4.398,1.832 C4.958,1.832 5.415,2.288 5.415,2.849 C5.415,3.408 4.958,3.864 4.398,3.864 L4.398,3.864 Z M35.807,31.8 C31.206,34.178 25.911,35.473 20.49,35.473 C15.07,35.473 9.776,34.178 5.176,31.802 L5.176,28.806 L35.807,28.806 L35.807,31.8 L35.807,31.8 Z M35.807,27.247 L5.176,27.247 L5.176,11.416 L8.096,11.416 L8.096,25.237 L9.654,25.237 L9.654,11.416 L11.417,11.416 L11.417,25.237 L12.976,25.237 L12.976,11.416 L14.74,11.416 L14.74,25.237 L16.298,25.237 L16.298,11.416 L18.061,11.416 L18.061,25.237 L19.62,25.237 L19.62,11.416 L21.384,11.416 L21.384,25.237 L22.942,25.237 L22.942,11.416 L24.706,11.416 L24.706,25.237 L26.265,25.237 L26.265,11.416 L28.028,11.416 L28.028,25.237 L29.586,25.237 L29.586,11.416 L31.35,11.416 L31.35,25.237 L32.909,25.237 L32.909,11.416 L35.807,11.416 L35.807,27.247 L35.807,27.247 Z M36.586,3.864 C36.026,3.864 35.57,3.408 35.57,2.849 C35.57,2.288 36.026,1.832 36.586,1.832 C37.146,1.832 37.602,2.288 37.602,2.849 C37.602,3.408 37.146,3.864 36.586,3.864 L36.586,3.864 Z" id="Fill-44"></path>
                            </g>
                            <g id="office" transform="translate(208.000000, 1.000000)">
                                <path d="M39.24,8.949 L21.284,8.949 L21.284,7.823 C21.284,3.658 18.165,0.27 14.332,0.27 L12.165,0.27 C8.331,0.27 5.213,3.658 5.213,7.823 L5.213,8.949 L2.568,8.949 C1.268,8.949 0.211,10.007 0.211,11.306 L0.211,37.638 L2.107,37.638 L2.107,15.613 L5.213,15.613 L5.213,20.618 L3.716,20.618 L3.716,22.176 L5.272,22.176 C5.642,24.814 7.907,26.851 10.645,26.851 L15.852,26.851 C18.589,26.851 20.854,24.814 21.225,22.176 L22.78,22.176 L22.78,20.618 L21.284,20.618 L21.284,15.613 L24.799,15.613 L24.799,35.016 C24.799,36.892 26.167,38.418 27.848,38.418 L38.55,38.418 C40.231,38.418 41.598,36.892 41.598,35.016 L41.598,11.306 C41.598,10.007 40.541,8.949 39.24,8.949 L39.24,8.949 Z M19.725,15.613 L19.725,21.419 C19.725,23.554 17.987,25.293 15.852,25.293 L10.645,25.293 C8.509,25.293 6.771,23.554 6.771,21.419 L6.771,7.823 C6.771,4.518 9.191,1.829 12.165,1.829 L14.332,1.829 C17.306,1.829 19.725,4.518 19.725,7.823 L19.725,15.613 L19.725,15.613 Z M2.107,14.054 L1.769,14.054 L1.769,11.306 C1.769,10.866 2.128,10.508 2.568,10.508 L5.213,10.508 L5.213,14.054 L2.107,14.054 L2.107,14.054 Z M40.04,35.016 C40.04,36.032 39.371,36.859 38.55,36.859 L27.848,36.859 C27.026,36.859 26.358,36.032 26.358,35.016 L26.358,26.207 L40.04,26.207 L40.04,35.016 L40.04,35.016 Z M26.358,15.613 L40.04,15.613 L40.04,24.648 L26.358,24.648 L26.358,15.613 Z M24.799,14.054 L21.284,14.054 L21.284,10.508 L39.24,10.508 C39.681,10.508 40.04,10.866 40.04,11.306 L40.04,14.054 L24.799,14.054 L24.799,14.054 Z" id="Fill-47"></path>
                                <polygon id="Fill-48" points="30.798 19.088 35.121 19.088 35.121 20.647 30.798 20.647"></polygon>
                                <polygon id="Fill-49" points="30.798 29.9 35.121 29.9 35.121 31.459 30.798 31.459"></polygon>
                                <path d="M14.58,27.944 L11.917,27.944 C8.728,27.944 5.856,26.614 5.235,24.849 L3.765,25.367 C4.621,27.801 7.973,29.503 11.917,29.503 L12.469,29.503 L12.469,32.947 L4.947,36.577 L5.625,37.981 L13.248,34.302 L20.872,37.981 L21.549,36.577 L14.027,32.947 L14.027,29.503 L14.58,29.503 C18.524,29.503 21.876,27.801 22.732,25.367 L21.261,24.849 C20.641,26.614 17.769,27.944 14.58,27.944" id="Fill-50"></path>
                            </g>
                            <g id="bedroom" transform="translate(309.000000, 2.000000)">
                                <path d="M44.241,25.431 L43.491,25.431 C43.5,25.362 43.516,25.294 43.516,25.223 L43.516,20.141 C43.516,19.255 42.754,18.546 41.727,18.405 L41.727,1.839 C41.727,0.888 40.953,0.114 40.002,0.114 L6.288,0.114 C5.337,0.114 4.563,0.888 4.563,1.839 L4.563,18.386 C3.419,18.443 2.539,19.189 2.539,20.141 L2.539,25.223 C2.539,25.294 2.554,25.362 2.563,25.431 L2.048,25.431 C1.069,25.431 0.273,26.227 0.273,27.206 L0.273,28.027 C0.273,29.007 1.069,29.804 2.048,29.804 L4.97,29.804 L4.97,35.528 L6.528,35.528 L6.528,29.804 L38.694,29.804 L38.694,35.528 L40.253,35.528 L40.253,29.804 L44.241,29.804 C45.221,29.804 46.018,29.007 46.018,28.027 L46.018,27.206 C46.018,26.227 45.221,25.431 44.241,25.431 L44.241,25.431 Z M4.097,25.223 L4.094,20.161 C4.121,20.097 4.341,19.934 4.7,19.934 L41.354,19.934 C41.403,19.934 41.442,19.943 41.486,19.948 C41.763,19.982 41.936,20.103 41.957,20.141 L41.96,25.202 C41.933,25.268 41.713,25.431 41.354,25.431 L4.7,25.431 C4.34,25.431 4.121,25.268 4.097,25.223 L4.097,25.223 Z M38.399,18.375 L25.122,18.375 L25.122,16.606 C25.122,15.801 25.778,15.145 26.583,15.145 L36.937,15.145 C37.743,15.145 38.399,15.801 38.399,16.606 L38.399,18.375 L38.399,18.375 Z M21.168,18.375 L7.891,18.375 L7.891,16.606 C7.891,15.801 8.547,15.145 9.352,15.145 L19.706,15.145 C20.512,15.145 21.168,15.801 21.168,16.606 L21.168,18.375 L21.168,18.375 Z M6.122,1.839 C6.122,1.747 6.197,1.673 6.288,1.673 L40.002,1.673 C40.093,1.673 40.168,1.747 40.168,1.839 L40.168,18.375 L39.957,18.375 L39.957,16.606 C39.957,14.941 38.602,13.587 36.937,13.587 L26.583,13.587 C24.919,13.587 23.563,14.941 23.563,16.606 L23.563,18.375 L22.727,18.375 L22.727,16.606 C22.727,14.941 21.372,13.587 19.706,13.587 L9.352,13.587 C7.687,13.587 6.333,14.941 6.333,16.606 L6.333,18.375 L6.122,18.375 L6.122,1.839 L6.122,1.839 Z M44.459,28.027 C44.459,28.147 44.361,28.245 44.241,28.245 L2.048,28.245 C1.929,28.245 1.831,28.147 1.831,28.027 L1.831,27.206 C1.831,27.087 1.929,26.989 2.048,26.989 L44.241,26.989 C44.361,26.989 44.459,27.087 44.459,27.206 L44.459,28.027 L44.459,28.027 Z" id="Fill-51"></path>
                            </g>
                            <g id="bathroom" transform="translate(414.000000, 0.000000)">
                                <path d="M36.184,34.577 C35.199,35.691 33.877,36.233 32.144,36.233 L10.868,36.233 C9.137,36.233 7.818,35.693 6.834,34.581 C5.439,33.006 5.03,30.609 4.935,28.783 L3.365,28.783 C3.466,30.861 3.951,33.673 5.663,35.61 C6.753,36.843 8.188,37.553 9.932,37.738 L9.932,37.012 L11.491,37.012 L11.491,37.791 L31.522,37.791 L31.522,37.012 L33.08,37.012 L33.08,37.738 C34.826,37.553 36.262,36.842 37.352,35.608 C39.064,33.671 39.548,30.861 39.648,28.783 L38.08,28.783 C37.987,30.606 37.58,32.997 36.184,34.577" id="Fill-52"></path>
                                <path d="M5.064,5.421 C5.064,3.595 6.55,2.109 8.376,2.109 C9.275,2.109 10.119,2.485 10.741,3.126 C11.289,2.878 11.87,2.74 12.46,2.705 L12.087,2.267 C11.16,1.176 9.807,0.55 8.376,0.55 C5.839,0.55 3.749,2.499 3.525,4.979 L3.506,23.48 L5.064,23.48 L5.064,5.421" id="Fill-53"></path>
                                <path d="M11.785,4.318 L10.9,3.277 C10.852,3.22 10.792,3.179 10.741,3.126 C10.222,3.361 9.731,3.677 9.305,4.102 C8.434,4.973 7.928,6.131 7.882,7.363 L7.852,8.176 L17.654,8.121 L17.614,7.308 C17.556,6.098 17.051,4.96 16.193,4.102 C15.17,3.077 13.802,2.625 12.46,2.705 L12.972,3.308 L11.785,4.318 L11.785,4.318 Z M15.916,6.572 L9.572,6.608 C9.728,6.081 10.012,5.599 10.408,5.204 C11.053,4.558 11.901,4.236 12.75,4.236 C13.598,4.236 14.446,4.558 15.091,5.204 C15.478,5.59 15.758,6.06 15.916,6.572 L15.916,6.572 Z" id="Fill-54"></path>
                                <path d="M10.9,3.277 L11.785,4.318 L12.972,3.308 L12.46,2.705 C11.87,2.74 11.289,2.878 10.741,3.126 C10.792,3.179 10.852,3.22 10.9,3.277" id="Fill-55"></path>
                                <path d="M2.498,28.003 C1.612,28.003 0.894,27.285 0.894,26.399 L0.894,25.863 C0.894,24.977 1.612,24.259 2.498,24.259 L3.506,24.259 L3.506,23.48 L2.498,23.48 C1.184,23.48 0.115,24.548 0.115,25.863 L0.115,26.399 C0.115,27.713 1.184,28.783 2.498,28.783 L3.365,28.783 C3.352,28.508 3.345,28.249 3.344,28.003 L2.498,28.003" id="Fill-56"></path>
                                <path d="M4.935,28.783 L38.08,28.783 C38.095,28.505 38.103,28.248 38.105,28.003 L4.91,28.003 C4.912,28.249 4.921,28.505 4.935,28.783" id="Fill-57"></path>
                                <path d="M40.515,23.48 L5.064,23.48 L5.064,24.259 L40.515,24.259 C41.4,24.259 42.118,24.977 42.118,25.863 L42.118,26.399 C42.118,27.285 41.4,28.003 40.515,28.003 L39.669,28.003 C39.667,28.249 39.661,28.508 39.648,28.783 L40.515,28.783 C41.829,28.783 42.898,27.713 42.898,26.399 L42.898,25.863 C42.898,24.548 41.829,23.48 40.515,23.48" id="Fill-58"></path>
                                <path d="M4.91,28.003 L3.344,28.003 C3.345,28.249 3.352,28.508 3.365,28.783 L4.935,28.783 C4.921,28.505 4.912,28.249 4.91,28.003" id="Fill-59"></path>
                                <path d="M38.105,28.003 C38.103,28.248 38.095,28.505 38.08,28.783 L39.648,28.783 C39.661,28.508 39.667,28.249 39.669,28.003 L38.105,28.003" id="Fill-60"></path>
                                <polygon id="Fill-61" points="3.506 24.259 5.064 24.259 5.064 23.48 3.506 23.48"></polygon>
                                <path d="M38.095,27.224 L4.918,27.224 C4.91,27.455 4.908,27.713 4.91,28.003 L38.105,28.003 C38.106,27.713 38.104,27.455 38.095,27.224" id="Fill-62"></path>
                                <path d="M3.506,24.259 L2.498,24.259 C1.612,24.259 0.894,24.977 0.894,25.863 L0.894,26.399 C0.894,27.285 1.612,28.003 2.498,28.003 L3.344,28.003 C3.342,27.721 3.344,27.456 3.352,27.224 L2.498,27.224 C2.044,27.224 1.673,26.854 1.673,26.399 L1.673,25.863 C1.673,25.409 2.044,25.039 2.498,25.039 L40.515,25.039 C40.969,25.039 41.339,25.409 41.339,25.863 L41.339,26.399 C41.339,26.854 40.969,27.224 40.515,27.224 L39.66,27.224 C39.668,27.456 39.671,27.721 39.669,28.003 L40.515,28.003 C41.4,28.003 42.118,27.285 42.118,26.399 L42.118,25.863 C42.118,24.977 41.4,24.259 40.515,24.259 L3.506,24.259" id="Fill-63"></path>
                                <path d="M4.918,27.224 L3.352,27.224 C3.344,27.456 3.342,27.721 3.344,28.003 L4.91,28.003 C4.908,27.713 4.91,27.455 4.918,27.224" id="Fill-64"></path>
                                <path d="M39.66,27.224 L38.095,27.224 C38.104,27.455 38.106,27.713 38.105,28.003 L39.669,28.003 C39.671,27.721 39.668,27.456 39.66,27.224" id="Fill-65"></path>
                                <path d="M3.506,24.259 L5.064,24.259" id="Fill-66"></path>
                                <path d="M37.267,29.727 L35.737,29.428 C35.237,31.99 34.71,33.571 31.616,33.925 L31.794,35.474 C35.904,35.003 36.728,32.487 37.267,29.727" id="Fill-67"></path>
                                <path d="M9.932,37.738 L9.932,40.666 L11.491,40.666 L11.491,37.791 L10.868,37.791 C10.546,37.791 10.236,37.77 9.932,37.738" id="Fill-68"></path>
                                <path d="M9.932,37.012 L9.932,37.738 C10.236,37.77 10.546,37.791 10.868,37.791 L11.491,37.791 L11.491,37.012 L9.932,37.012" id="Fill-69"></path>
                                <path d="M31.522,37.791 L31.522,40.666 L33.08,40.666 L33.08,37.738 C32.776,37.77 32.466,37.791 32.144,37.791 L31.522,37.791" id="Fill-70"></path>
                                <path d="M31.522,37.012 L31.522,37.791 L32.144,37.791 C32.466,37.791 32.776,37.77 33.08,37.738 L33.08,37.012 L31.522,37.012" id="Fill-71"></path>
                            </g>
                            <g id="living-room" transform="translate(3.000000, 103.000000)">
                                <path d="M40.248,16 C40.248,14.834 39.3,13.886 38.134,13.886 L34.764,13.886 L34.764,2.667 C34.764,1.501 33.816,0.553 32.65,0.553 L8.203,0.553 C7.037,0.553 6.088,1.501 6.088,2.667 L6.088,13.886 L2.73,13.886 C1.564,13.886 0.616,14.834 0.616,16 L0.605,22.073 C0.605,22.075 0.604,22.078 0.604,22.08 L0.604,22.479 L0.592,28.957 C0.592,30.123 1.541,31.071 2.707,31.071 L4.927,31.071 L4.927,35.977 L6.486,35.977 L6.486,31.071 L34.279,31.071 L34.279,35.977 L35.838,35.977 L35.838,31.071 L38.134,31.071 C39.3,31.071 40.248,30.123 40.248,28.957 L40.248,22.08 C40.248,22.044 40.24,22.011 40.238,21.975 L40.248,16 L40.248,16 Z M2.718,29.513 L2.707,29.513 C2.4,29.513 2.151,29.264 2.151,28.957 L2.151,22.165 L2.159,20.054 L2.159,20.05 L2.174,16 C2.174,15.693 2.424,15.444 2.73,15.444 L7.071,15.444 C7.373,15.444 7.627,15.699 7.627,16 L7.627,21.524 L33.237,21.524 L33.237,16 C33.237,15.693 33.487,15.444 33.793,15.444 L38.134,15.444 C38.44,15.444 38.69,15.693 38.69,16 L38.683,20.047 L38.683,20.051 L38.667,28.957 C38.667,29.264 38.417,29.513 38.111,29.513 L2.718,29.513 L2.718,29.513 Z M32.639,2.111 C32.94,2.111 33.194,2.366 33.194,2.667 L33.194,13.983 C32.321,14.243 31.679,15.043 31.679,16 L31.679,19.966 L9.185,19.966 L9.185,16 C9.185,15.039 8.537,14.235 7.658,13.979 L7.658,2.667 C7.658,2.366 7.913,2.111 8.214,2.111 L32.639,2.111 L32.639,2.111 Z" id="Fill-72"></path>
                                <polyline id="Fill-73" points="19.641 12.911 21.2 12.911 21.2 11.583 22.529 11.583 22.529 10.024 21.2 10.024 21.2 8.695 19.641 8.695 19.641 10.024 18.312 10.024 18.312 11.583 19.641 11.583 19.641 12.911"></polyline>
                                <polyline id="Fill-74" points="27.067 12.911 28.626 12.911 28.626 11.583 29.955 11.583 29.955 10.024 28.626 10.024 28.626 8.695 27.067 8.695 27.067 10.024 25.739 10.024 25.739 11.583 27.067 11.583 27.067 12.911"></polyline>
                                <polyline id="Fill-75" points="12.215 12.911 13.773 12.911 13.773 11.583 15.102 11.583 15.102 10.024 13.773 10.024 13.773 8.695 12.215 8.695 12.215 10.024 10.886 10.024 10.886 11.583 12.215 11.583 12.215 12.911"></polyline>
                            </g>
                            <g id="time" transform="translate(107.000000, 102.000000)">
                                <path d="M19.308,0.45 C8.945,0.45 0.515,8.881 0.515,19.243 C0.515,29.606 8.945,38.037 19.308,38.037 C29.67,38.037 38.101,29.606 38.101,19.243 C38.101,8.881 29.67,0.45 19.308,0.45 L19.308,0.45 Z M19.308,36.478 C9.805,36.478 2.073,28.747 2.073,19.243 C2.073,9.74 9.805,2.009 19.308,2.009 C28.811,2.009 36.542,9.74 36.542,19.243 C36.542,28.747 28.811,36.478 19.308,36.478 L19.308,36.478 Z" id="Fill-76"></path>
                                <path d="M18.528,19.001 L11.631,25.898 L12.733,27 L19.699,20.034 C19.877,19.857 20.087,19.541 20.087,19.043 L20.087,7.795 L18.529,7.795 L18.528,19.001" id="Fill-77"></path>
                            </g>
                            <g id="dining-room" transform="translate(209.000000, 99.000000)">
                                <path d="M39.0082179,29.4237344 L32.4482632,29.4237344 L32.4482632,23.9361153 C32.4482632,21.9957734 30.8700697,20.4175799 28.9302505,20.4175799 L11.7120771,20.4175799 C9.77225776,20.4175799 8.19406426,21.9957734 8.19406426,23.9361153 L8.19406426,29.4237344 L1.63358705,29.4237344 L1.63358705,22.0160141 L1.63358705,14.1758768 L0.0658451592,14.1758768 L0.0658451592,44.169392 L1.63358705,44.169392 L1.63358705,35.3231472 L8.19406426,35.3231472 L8.19406426,44.169392 L9.76180615,44.169392 L9.76180615,35.3231472 L16.4132124,35.3231472 L16.4132124,44.169392 L18.0447091,44.169392 L18.0447091,31.6237989 C18.0447091,30.4108892 17.0580769,29.4237344 15.8446447,29.4237344 L9.76180615,29.4237344 L9.76180615,26.9838055 L30.8805214,26.9838055 L30.8805214,29.4237344 L24.7971603,29.4237344 C23.583728,29.4237344 22.5970958,30.4108892 22.5970958,31.6237989 L22.5970958,44.169392 L24.2285925,44.169392 L24.2285925,35.3231472 L30.8805214,35.3231472 L30.8805214,44.169392 L32.4482632,44.169392 L32.4482632,35.3231472 L39.0082179,35.3231472 L39.0082179,44.169392 L40.5759598,44.169392 L40.5759598,14.1758768 L39.0082179,14.1758768 L39.0082179,29.4237344 Z M1.63358705,30.9914763 L8.19406426,30.9914763 L8.19406426,33.7554053 L1.63358705,33.7554053 L1.63358705,30.9914763 Z M15.8446447,30.9914763 C16.1932059,30.9914763 16.4769672,31.2752376 16.4769672,31.6237989 L16.4769672,33.7554053 L9.76180615,33.7554053 L9.76180615,30.9914763 L15.8446447,30.9914763 L15.8446447,30.9914763 Z M9.76180615,23.9361153 C9.76180615,22.8601217 10.6366061,21.9853218 11.7120771,21.9853218 L28.9302505,21.9853218 C30.0057214,21.9853218 30.8805214,22.8601217 30.8805214,23.9361153 L30.8805214,25.4160636 L9.76180615,25.4160636 L9.76180615,23.9361153 Z M24.1648377,33.7554053 L24.1648377,31.6237989 C24.1648377,31.2752376 24.448599,30.9914763 24.7971603,30.9914763 L30.8805214,30.9914763 L30.8805214,33.7554053 L24.1648377,33.7554053 L24.1648377,33.7554053 Z M32.4482632,30.9914763 L39.0082179,30.9914763 L39.0082179,33.7554053 L32.4482632,33.7554053 L32.4482632,30.9914763 Z" id="Fill-1"></path>
                                <path d="M25.4040442,14.8088059 L30.1459409,14.8082833 L29.6521022,13.7045931 C27.5424442,8.98882546 24.4613088,6.14389652 21.1058186,5.7587546 L21.1058186,0.519445145 L19.5380767,0.519445145 L19.5380767,5.7587546 C16.1820639,6.14389652 13.0998833,8.98987062 10.9902253,13.707206 L10.4958641,14.8108962 L15.2419413,14.8103737 C16.0017736,16.9414575 18.0027348,18.3822123 20.3209025,18.3822123 C22.615554,18.3822123 24.6415991,16.9346639 25.4040442,14.8088059 Z M20.3209025,16.8144704 C18.904709,16.8144704 17.6296122,16.0096962 16.9680251,14.8098511 L23.6774378,14.8093285 C23.0189862,16.0185801 21.7480702,16.8144704 20.3209025,16.8144704 L20.3209025,16.8144704 Z M20.3219476,7.2773739 C23.0764701,7.2773739 25.7212507,9.43354158 27.6903345,13.2405415 L12.951993,13.2431544 C14.9215994,9.43458674 17.56638,7.2773739 20.3219476,7.2773739 L20.3219476,7.2773739 Z" id="Fill-2"></path>
                            </g>
                            <g id="Group" transform="translate(314.000000, 102.000000)">
                                <path d="M4.667,9.616 C4.733,9.433 4.859,9.166 5.092,8.854 L5.055,8.781 L4.354,10.103 C4.354,10.104 4.353,10.105 4.353,10.105 L4.354,10.104 C4.441,9.938 4.552,9.767 4.667,9.616" id="Fill-1"></path>
                                <path d="M29.602,13.414 C29.764,13.315 29.911,13.215 30.047,13.116 C29.911,13.215 29.764,13.315 29.602,13.414" id="Fill-2"></path>
                                <path d="M11.698,15.111 C11.886,15.143 12.076,15.174 12.273,15.202 C12.075,15.174 11.886,15.142 11.698,15.111" id="Fill-3"></path>
                                <path d="M12.866,15.283 C13.266,15.334 13.68,15.38 14.119,15.418 C13.679,15.38 13.267,15.333 12.866,15.283" id="Fill-4"></path>
                                <path d="M6.115,10.79 L6.077,10.582 L5.98,10.469 L5.956,10.5 C5.946,10.512 5.935,10.526 5.923,10.541 L5.969,10.595 L6.01,10.792 C6.012,10.794 7.101,14.016 17.999,14.016 C7.12,14.016 6.117,10.792 6.115,10.79" id="Fill-5"></path>
                                <path d="M31.849,10.104 L31.849,10.105 C31.849,10.105 31.849,10.104 31.848,10.103 L31.148,8.781 L31.11,8.854 C31.344,9.166 31.469,9.433 31.535,9.616 C31.651,9.767 31.761,9.938 31.849,10.104" id="Fill-6"></path>
                                <path d="M28.97,13.766 C29.18,13.66 29.376,13.553 29.554,13.446 C29.376,13.553 29.179,13.66 28.97,13.766" id="Fill-7"></path>
                                <polyline id="Fill-8" points="18.204 15.574 18.146 15.574 18.204 15.574"></polyline>
                                <path d="M4.641,34.498 C4.973,35.471 6.918,38.781 17.999,38.781 L18.102,38.78 L18.204,38.781 C29.284,38.781 31.229,35.471 31.561,34.498 C31.754,34.239 32.106,33.687 32.106,33.124 L32.106,22.014 L32.823,22.014 C33.385,22.014 33.903,21.728 34.144,21.286 L34.238,21.112 L34.238,20.366 L33.459,20.366 L33.459,18.807 L34.238,18.807 L34.238,18.036 L34.14,17.86 C33.902,17.431 33.385,17.154 32.823,17.154 L32.111,17.154 L32.106,11 C32.106,10.845 32.07,10.679 32.015,10.507 L31.852,10.823 C31.768,10.989 31.667,11.152 31.56,11.294 C31.437,11.653 31.09,12.328 30.155,13.037 C30.298,12.929 30.431,12.821 30.547,12.716 L30.553,16.489 L30.547,16.489 L30.574,18.712 L32.68,18.721 L32.68,20.455 L30.547,20.455 L30.548,33.109 C30.537,33.196 30.41,33.458 30.264,33.629 L30.125,33.789 L30.088,33.998 C30.082,34.03 29.017,37.223 18.204,37.223 L18.102,37.222 L17.999,37.223 C7.12,37.223 6.117,33.999 6.115,33.998 L6.077,33.789 L5.939,33.629 C5.792,33.458 5.665,33.196 5.655,33.124 L5.655,20.455 L3.523,20.448 L3.523,18.712 L5.628,18.712 L5.65,14.746 L5.655,14.746 L5.655,12.783 C4.923,12.155 4.636,11.584 4.534,11.286 C4.456,11.152 4.416,11.023 4.386,10.928 C4.375,10.894 4.368,10.858 4.35,10.823 L4.188,10.507 C4.132,10.679 4.097,10.845 4.097,11 L4.091,17.154 L3.379,17.154 C2.817,17.154 2.301,17.431 2.062,17.86 L1.964,18.036 L1.964,18.807 L2.744,18.807 L2.744,20.366 L1.964,20.366 L1.964,21.112 L2.059,21.286 C2.299,21.728 2.817,22.014 3.379,22.014 L4.097,22.014 L4.097,33.124 C4.097,33.687 4.449,34.239 4.641,34.498" id="Fill-9"></path>
                                <path d="M20.404,15.523 C20.885,15.502 21.348,15.474 21.788,15.44 C21.348,15.474 20.885,15.502 20.404,15.523" id="Fill-10"></path>
                                <path d="M26.29,14.736 C26.564,14.665 26.824,14.592 27.071,14.515 C26.825,14.591 26.564,14.665 26.29,14.736" id="Fill-11"></path>
                                <path d="M21.984,15.426 C22.476,15.384 22.937,15.334 23.38,15.277 C22.938,15.334 22.476,15.384 21.984,15.426" id="Fill-12"></path>
                                <path d="M23.713,15.232 C24.073,15.182 24.418,15.128 24.745,15.069 C24.418,15.128 24.073,15.182 23.713,15.232" id="Fill-13"></path>
                                <path d="M24.978,15.029 C25.36,14.956 25.719,14.878 26.058,14.796 C25.719,14.878 25.36,14.956 24.978,15.029" id="Fill-14"></path>
                                <path d="M16.224,15.54 C16.791,15.56 17.375,15.574 17.999,15.574 C17.376,15.574 16.792,15.56 16.224,15.54" id="Fill-15"></path>
                                <path d="M18.204,15.574 C18.822,15.574 19.401,15.56 19.964,15.541 C19.401,15.56 18.822,15.574 18.204,15.574" id="Fill-16"></path>
                                <path d="M28.222,14.105 C28.431,14.019 28.628,13.931 28.813,13.842 C28.629,13.931 28.431,14.019 28.222,14.105" id="Fill-17"></path>
                                <path d="M27.275,14.453 C27.564,14.359 27.835,14.262 28.087,14.162 C27.835,14.262 27.564,14.359 27.275,14.453" id="Fill-18"></path>
                                <path d="M14.428,15.44 C14.852,15.474 15.298,15.5 15.76,15.522 C15.297,15.5 14.853,15.474 14.428,15.44" id="Fill-19"></path>
                                <path d="M4.165,10.463 L4.188,10.507 C4.23,10.377 4.28,10.244 4.353,10.105 L4.165,10.463" id="Fill-20"></path>
                                <path d="M31.849,10.105 C31.922,10.244 31.973,10.377 32.015,10.507 L32.038,10.463 L31.849,10.105" id="Fill-21"></path>
                                <path d="M24.745,15.069 C24.822,15.055 24.903,15.043 24.978,15.029 C24.903,15.043 24.822,15.055 24.745,15.069" id="Fill-22"></path>
                                <path d="M30.155,13.037 C30.12,13.063 30.084,13.09 30.047,13.116 C30.084,13.09 30.12,13.063 30.155,13.037" id="Fill-23"></path>
                                <path d="M26.058,14.796 C26.138,14.776 26.212,14.756 26.29,14.736 C26.212,14.756 26.138,14.776 26.058,14.796" id="Fill-24"></path>
                                <polyline id="Fill-25" points="18.146 15.574 18.05 14.794 17.999 15.574 18.146 15.574"></polyline>
                                <path d="M27.071,14.515 C27.139,14.494 27.209,14.474 27.275,14.453 C27.209,14.474 27.139,14.494 27.071,14.515" id="Fill-26"></path>
                                <path d="M19.964,15.541 C20.113,15.536 20.259,15.53 20.404,15.523 C20.259,15.53 20.113,15.536 19.964,15.541" id="Fill-27"></path>
                                <path d="M29.554,13.446 C29.571,13.435 29.586,13.425 29.602,13.414 C29.586,13.425 29.571,13.435 29.554,13.446" id="Fill-28"></path>
                                <path d="M15.76,15.522 C15.913,15.528 16.067,15.535 16.224,15.54 C16.067,15.535 15.912,15.528 15.76,15.522" id="Fill-29"></path>
                                <path d="M12.273,15.202 C12.467,15.231 12.662,15.258 12.866,15.283 C12.663,15.258 12.466,15.231 12.273,15.202" id="Fill-30"></path>
                                <path d="M28.813,13.842 C28.866,13.816 28.92,13.791 28.97,13.766 C28.92,13.791 28.866,13.816 28.813,13.842" id="Fill-31"></path>
                                <path d="M28.087,14.162 C28.134,14.143 28.176,14.124 28.222,14.105 C28.176,14.124 28.134,14.143 28.087,14.162" id="Fill-32"></path>
                                <path d="M23.38,15.277 C23.494,15.263 23.603,15.247 23.713,15.232 C23.603,15.247 23.494,15.263 23.38,15.277" id="Fill-33"></path>
                                <path d="M21.788,15.44 C21.852,15.435 21.921,15.431 21.984,15.426 C21.921,15.431 21.852,15.435 21.788,15.44" id="Fill-34"></path>
                                <path d="M14.119,15.418 C14.219,15.426 14.326,15.433 14.428,15.44 C14.326,15.433 14.219,15.426 14.119,15.418" id="Fill-35"></path>
                                <path d="M5.938,10.421 L5.98,10.469 L6.079,10.337 L6.126,10.171 C6.136,10.139 7.193,6.902 18.102,6.902 L18.116,6.902 C29.009,6.902 30.067,10.139 30.07,10.141 L30.11,10.344 L30.221,10.471 L30.125,10.582 L30.264,10.421 C30.316,10.361 30.396,10.248 30.466,10.112 L31.11,8.854 C30.108,7.516 27.097,5.344 18.116,5.344 L18.087,5.344 C9.105,5.344 6.095,7.516 5.092,8.854 L5.737,10.112 C5.807,10.248 5.887,10.361 5.938,10.421" id="Fill-36"></path>
                                <path d="M5.655,12.716 L5.655,12.783 C6.632,13.624 8.432,14.564 11.698,15.111 C8.384,14.55 6.602,13.575 5.655,12.716" id="Fill-37"></path>
                                <path d="M31.849,10.104 C31.761,9.938 31.651,9.767 31.535,9.616 C31.469,9.433 31.344,9.166 31.11,8.854 L30.466,10.112 C30.396,10.248 30.316,10.361 30.264,10.421 L30.125,10.582 L30.088,10.79 C30.082,10.823 29.017,14.016 18.204,14.016 L17.999,14.016 C7.101,14.016 6.012,10.794 6.01,10.792 L5.969,10.595 L5.923,10.541 C5.935,10.526 5.946,10.512 5.956,10.5 L5.98,10.469 L5.938,10.421 C5.887,10.361 5.807,10.248 5.737,10.112 L5.092,8.854 C4.859,9.166 4.733,9.433 4.667,9.616 C4.552,9.767 4.441,9.938 4.354,10.104 L4.353,10.105 C4.28,10.244 4.23,10.377 4.188,10.507 L4.35,10.823 C4.368,10.858 4.375,10.894 4.386,10.928 C4.416,11.023 4.456,11.152 4.534,11.286 C4.636,11.584 4.923,12.155 5.655,12.783 L5.655,12.716 C6.602,13.575 8.384,14.55 11.698,15.111 C11.886,15.142 12.075,15.174 12.273,15.202 C12.466,15.231 12.663,15.258 12.866,15.283 C13.267,15.333 13.679,15.38 14.119,15.418 C14.219,15.426 14.326,15.433 14.428,15.44 C14.853,15.474 15.297,15.5 15.76,15.522 C15.912,15.528 16.067,15.535 16.224,15.54 C16.792,15.56 17.376,15.574 17.999,15.574 L18.05,14.794 L18.146,15.574 L18.204,15.574 C18.822,15.574 19.401,15.56 19.964,15.541 C20.113,15.536 20.259,15.53 20.404,15.523 C20.885,15.502 21.348,15.474 21.788,15.44 C21.852,15.435 21.921,15.431 21.984,15.426 C22.476,15.384 22.938,15.334 23.38,15.277 C23.494,15.263 23.603,15.247 23.713,15.232 C24.073,15.182 24.418,15.128 24.745,15.069 C24.822,15.055 24.903,15.043 24.978,15.029 C25.36,14.956 25.719,14.878 26.058,14.796 C26.138,14.776 26.212,14.756 26.29,14.736 C26.564,14.665 26.825,14.591 27.071,14.515 C27.139,14.494 27.209,14.474 27.275,14.453 C27.564,14.359 27.835,14.262 28.087,14.162 C28.134,14.143 28.176,14.124 28.222,14.105 C28.431,14.019 28.629,13.931 28.813,13.842 C28.866,13.816 28.92,13.791 28.97,13.766 C29.179,13.66 29.376,13.553 29.554,13.446 C29.571,13.435 29.586,13.425 29.602,13.414 C29.764,13.315 29.911,13.215 30.047,13.116 C30.084,13.09 30.12,13.063 30.155,13.037 C31.09,12.328 31.437,11.653 31.56,11.294 C31.667,11.152 31.768,10.989 31.852,10.823 L32.015,10.507 C31.973,10.377 31.922,10.244 31.849,10.105 L31.849,10.104" id="Fill-38"></path>
                                <path d="M1.586,18.807 C1.584,18.361 1.58,17.918 1.576,17.479 C1.528,12.438 1.486,8.085 4.278,5.267 C6.692,2.829 11.214,1.644 18.102,1.644 C24.989,1.644 29.51,2.829 31.925,5.267 C34.716,8.085 34.675,12.438 34.627,17.479 C34.623,17.918 34.619,18.361 34.616,18.807 L34.238,18.807 L34.238,20.366 L36.173,20.366 L36.173,19.483 C36.173,18.813 36.179,18.149 36.185,17.494 C36.235,12.329 36.281,7.45 33.032,4.17 C30.272,1.383 25.528,0.085 18.102,0.085 C10.675,0.085 5.931,1.383 3.17,4.17 C-0.079,7.45 -0.032,12.329 0.017,17.494 C0.023,18.149 0.03,18.813 0.03,19.483 L0.03,20.366 L1.964,20.366 L1.964,18.807 L1.586,18.807" id="Fill-39"></path>
                                <polygon id="Fill-40" points="33.459 18.807 34.238 18.807 34.238 20.366 33.459 20.366"></polygon>
                            </g>
                            <g id="high-brightness" transform="translate(417.000000, 102.000000)">
                                <path d="M20.9261845,17.6515319 C20.3093543,16.5999832 19.8229395,15.7693184 19.4234685,14.3147739 L18.8418857,12.1964026 L18.2603029,14.3147739 C17.8620068,15.7704933 17.375592,16.6011581 16.7587618,17.6527068 C16.4227362,18.2248903 16.0420638,18.8746182 15.6378931,19.7005833 C15.0433862,20.9095706 15.0915577,22.2266501 15.7683086,23.3122713 C16.4344853,24.3826187 17.583552,25.0205974 18.8418857,25.0205974 C20.1002194,25.0205974 21.250461,24.3826187 21.9166377,23.3122713 C22.5933886,22.2266501 22.6415601,20.9095706 22.0494031,19.7005833 C21.6428826,18.8734433 21.2622102,18.2237154 20.9261845,17.6515319 L20.9261845,17.6515319 Z M20.8944618,22.6742926 C20.4491691,23.3886408 19.6819498,23.8151349 18.8418857,23.8151349 C18.0018216,23.8151349 17.2357772,23.3886408 16.7904845,22.6754675 C16.3393172,21.9505451 16.3134691,21.0599597 16.7199896,20.2316448 C17.1053616,19.4456268 17.4578361,18.8428955 17.7985614,18.2613127 C18.1792338,17.6127597 18.5293584,17.015903 18.8418857,16.2968552 C19.1555879,17.015903 19.5057126,17.6115848 19.8863849,18.2601378 C20.2271102,18.8428955 20.5807596,19.4456268 20.9661316,20.2316448 C21.3726522,21.0587848 21.346804,21.9493702 20.8944618,22.6742926 L20.8944618,22.6742926 Z" id="Fill-78"></path>
                                <path d="M36.142,23.387 L31.622,19.029 L36.008,14.704 C36.333,14.384 36.451,13.967 36.326,13.588 C36.201,13.209 35.856,12.945 35.404,12.882 L28.815,11.964 L29.999,4.828 C30.074,4.379 29.925,3.971 29.601,3.739 C29.277,3.506 28.843,3.495 28.441,3.708 L22.281,6.99 L19.524,1.485 C19.32,1.077 18.945,0.809 18.56,0.838 C18.161,0.84 17.803,1.086 17.605,1.496 L14.949,6.956 L8.893,3.815 C8.488,3.603 8.055,3.62 7.734,3.857 C7.411,4.094 7.267,4.503 7.346,4.951 L8.605,12.057 L1.856,13.078 C1.406,13.147 1.065,13.414 0.944,13.795 C0.823,14.175 0.946,14.591 1.275,14.906 L5.789,19.257 L1.407,23.575 C1.082,23.895 0.964,24.312 1.089,24.691 C1.214,25.07 1.558,25.334 2.01,25.397 L8.605,26.319 L7.423,33.463 C7.349,33.912 7.498,34.32 7.823,34.552 C7.992,34.674 8.192,34.735 8.401,34.735 C8.591,34.735 8.791,34.684 8.983,34.581 L15.135,31.301 L17.886,36.801 C18.089,37.206 18.447,37.448 18.844,37.448 L18.849,37.448 C19.248,37.447 19.606,37.2 19.806,36.79 L22.467,31.325 L28.532,34.468 C28.937,34.678 29.37,34.659 29.691,34.424 C30.012,34.187 30.156,33.779 30.077,33.33 L28.817,26.232 L35.559,25.215 C36.01,25.147 36.35,24.879 36.472,24.499 C36.593,24.119 36.47,23.703 36.142,23.387 L36.142,23.387 Z M34.209,14.289 L30.5,17.947 L28.322,15.848 C28.271,15.793 28.212,15.616 28.221,15.544 L28.56,13.502 L34.209,14.289 L34.209,14.289 Z M26.643,22.906 L27.002,24.93 L24.584,25.295 C24.011,25.381 23.412,25.822 23.159,26.342 L21.765,29.206 L19.603,28.085 C19.089,27.819 18.346,27.822 17.835,28.095 L15.813,29.173 L14.42,26.388 C14.161,25.871 13.557,25.437 12.984,25.357 L10.404,24.996 L10.735,22.999 C10.829,22.427 10.595,21.721 10.178,21.321 L8.023,19.244 L10.239,17.06 C10.651,16.654 10.876,15.946 10.776,15.376 L10.419,13.359 L12.83,12.994 C13.403,12.908 14.002,12.467 14.255,11.947 L15.651,9.077 L17.818,10.2 C18.332,10.468 19.076,10.464 19.586,10.192 L21.603,9.117 L22.995,11.897 C23.255,12.413 23.859,12.846 24.431,12.927 L27.016,13.287 L26.683,15.29 C26.589,15.86 26.823,16.566 27.239,16.968 L29.39,19.042 L27.18,21.221 C26.767,21.628 26.542,22.336 26.643,22.906 L26.643,22.906 Z M28.299,5.55 L27.271,11.749 L24.648,11.383 C24.574,11.369 24.423,11.261 24.388,11.198 L22.979,8.384 L28.299,5.55 L28.299,5.55 Z M18.573,3.068 L20.904,7.723 L18.855,8.815 C18.788,8.848 18.603,8.848 18.536,8.817 L16.333,7.674 L18.573,3.068 L18.573,3.068 Z M9.054,5.655 L14.267,8.359 L12.854,11.264 C12.818,11.329 12.67,11.439 12.597,11.453 L10.147,11.824 L9.054,5.655 L9.054,5.655 Z M3.068,14.471 L8.877,13.592 L9.241,15.645 C9.251,15.72 9.194,15.897 9.145,15.95 L6.9,18.162 L3.068,14.471 L3.068,14.471 Z M3.206,23.99 L6.912,20.338 L9.096,22.443 C9.148,22.496 9.206,22.672 9.197,22.744 L8.86,24.781 L3.206,23.99 L3.206,23.99 Z M9.123,32.74 L10.15,26.535 L12.766,26.9 C12.839,26.914 12.99,27.022 13.026,27.086 L14.437,29.907 L9.123,32.74 L9.123,32.74 Z M18.838,35.218 L16.511,30.567 L18.567,29.471 C18.634,29.439 18.82,29.437 18.886,29.469 L21.082,30.607 L18.838,35.218 L18.838,35.218 Z M28.369,32.628 L23.149,29.923 L24.56,27.025 C24.596,26.959 24.745,26.85 24.817,26.836 L27.274,26.465 L28.369,32.628 L28.369,32.628 Z M28.544,24.697 L28.178,22.635 C28.168,22.561 28.224,22.385 28.274,22.331 L30.512,20.124 L34.347,23.821 L28.544,24.697 L28.544,24.697 Z" id="Fill-79"></path>
                            </g>
                            <g id="one-coat" transform="translate(5.000000, 204.000000)">
                                <path d="M33.916,13.803 L33.916,3.572 C33.916,2.072 32.696,0.853 31.196,0.853 L3.575,0.853 C2.076,0.853 0.856,2.072 0.856,3.572 L0.856,30.049 C0.856,31.55 2.077,32.771 3.578,32.771 L10.599,32.771 L10.599,16.928 C10.599,15.205 11.929,13.803 13.562,13.803 L33.916,13.803 L33.916,13.803 Z M9.041,16.928 L9.041,31.212 L3.578,31.212 C2.937,31.212 2.415,30.691 2.415,30.049 L2.415,3.572 C2.415,2.932 2.935,2.411 3.575,2.411 L31.196,2.411 C31.837,2.411 32.357,2.932 32.357,3.572 L32.357,12.245 L13.562,12.245 C11.069,12.245 9.041,14.345 9.041,16.928 L9.041,16.928 Z" id="Fill-80"></path>
                                <path d="M33.696,20.392 L33.696,18.685 C33.696,16.79 32.155,15.249 30.261,15.249 L15.617,15.249 C13.722,15.249 12.181,16.79 12.181,18.685 L12.181,20.392 C12.181,22.286 13.722,23.827 15.617,23.827 L30.261,23.827 C32.155,23.827 33.696,22.286 33.696,20.392 L33.696,20.392 Z M13.74,20.392 L13.74,18.685 C13.74,17.649 14.582,16.808 15.617,16.808 L30.261,16.808 C31.296,16.808 32.138,17.649 32.138,18.685 L32.138,20.392 C32.138,21.427 31.296,22.269 30.261,22.269 L15.617,22.269 C14.582,22.269 13.74,21.427 13.74,20.392 L13.74,20.392 Z" id="Fill-81"></path>
                                <path d="M34.802,18.77 L34.164,18.77 L34.164,20.328 L34.659,20.328 L34.659,23.351 C34.655,23.404 34.583,23.507 34.554,23.522 L22.708,27.565 C22.057,27.805 21.565,28.509 21.565,29.204 L21.565,30.368 L20.63,30.368 C19.821,30.368 19.162,31.026 19.162,31.836 L19.162,36.266 L20.721,36.266 L20.721,31.926 L23.944,31.926 L23.944,36.266 L25.502,36.266 L25.502,31.836 C25.502,31.026 24.844,30.368 24.034,30.368 L23.124,30.368 L23.124,29.206 C23.128,29.153 23.2,29.049 23.229,29.035 L35.075,24.991 C35.727,24.751 36.218,24.047 36.218,23.354 L36.218,20.223 C36.218,19.421 35.583,18.77 34.802,18.77" id="Fill-82"></path>
                            </g>
                            <g id="durable" transform="translate(108.000000, 206.000000)">
                                <path d="M35.792,10.204 L30.123,2.55 C29.449,1.641 28.087,0.956 26.956,0.956 L9.614,0.956 C8.48,0.956 7.122,1.647 6.455,2.566 L0.916,10.201 C0.182,11.212 0.266,12.728 1.106,13.65 L16.727,30.818 C17.075,31.2 17.521,31.437 18.006,31.52 C18.127,31.54 18.249,31.559 18.374,31.559 L18.375,31.559 C18.491,31.559 18.603,31.54 18.715,31.523 C19.212,31.445 19.669,31.207 20.023,30.817 L35.62,13.65 C36.461,12.724 36.537,11.21 35.792,10.204 L35.792,10.204 Z M28.87,3.478 L34.539,11.132 C34.547,11.142 34.549,11.157 34.556,11.168 L26.478,11.168 L28.458,3.087 C28.623,3.21 28.768,3.341 28.87,3.478 L28.87,3.478 Z M18.331,28.236 L11.903,12.727 L24.425,12.727 L18.331,28.236 L18.331,28.236 Z M18.099,3.178 L23.983,11.168 L12.301,11.168 L18.099,3.178 L18.099,3.178 Z M26.956,2.514 C26.967,2.514 26.981,2.519 26.992,2.52 L25.135,10.104 L19.546,2.514 L26.956,2.514 L26.956,2.514 Z M9.614,2.514 L16.656,2.514 L11.169,10.075 L9.389,2.549 C9.464,2.539 9.545,2.514 9.614,2.514 L9.614,2.514 Z M2.177,11.116 L7.716,3.481 C7.776,3.399 7.868,3.323 7.952,3.245 L9.826,11.168 L2.153,11.168 C2.164,11.152 2.166,11.132 2.177,11.116 L2.177,11.116 Z M2.373,12.727 L10.216,12.727 L16.778,28.559 L2.373,12.727 L2.373,12.727 Z M19.813,28.73 L26.09,12.755 L26.101,12.727 L34.353,12.727 L19.813,28.73 L19.813,28.73 Z" id="Fill-83"></path>
                            </g>
                            <g id="anti-mould" transform="translate(211.000000, 204.000000)">
                                <path d="M30.478,25.595 C29.295,25.595 28.209,25.99 27.32,26.641 L24.863,24.701 C25.372,23.837 25.669,22.834 25.669,21.76 C25.669,19.386 24.24,17.344 22.198,16.437 L22.92,14.07 C23.215,14.108 23.513,14.134 23.817,14.134 C27.67,14.134 30.804,10.999 30.804,7.147 C30.804,3.294 27.67,0.161 23.817,0.161 C19.965,0.161 16.831,3.294 16.831,7.147 C16.831,10.15 18.739,12.71 21.405,13.695 L20.7,16.007 C20.42,15.965 20.136,15.936 19.845,15.936 C16.839,15.936 14.359,18.225 14.054,21.152 L10.393,21.435 C9.824,19.351 7.934,17.807 5.672,17.807 C2.962,17.807 0.758,20.011 0.758,22.72 C0.758,25.43 2.962,27.634 5.672,27.634 C8.291,27.634 10.418,25.569 10.559,22.985 L14.106,22.711 C14.39,24.428 15.424,25.89 16.862,26.753 L16.275,28.543 C16.1,28.518 15.925,28.489 15.743,28.489 C13.678,28.489 11.998,30.169 11.998,32.234 C11.998,34.3 13.678,35.979 15.743,35.979 C17.808,35.979 19.487,34.3 19.487,32.234 C19.487,30.905 18.787,29.743 17.74,29.078 L18.301,27.37 C18.793,27.505 19.31,27.584 19.845,27.584 C21.423,27.584 22.853,26.951 23.903,25.929 L26.203,27.745 C25.52,28.647 25.099,29.757 25.099,30.974 C25.099,33.94 27.512,36.353 30.478,36.353 C33.444,36.353 35.857,33.94 35.857,30.974 C35.857,28.008 33.444,25.595 30.478,25.595 L30.478,25.595 Z M18.39,7.147 C18.39,4.154 20.825,1.719 23.817,1.719 C26.81,1.719 29.246,4.154 29.246,7.147 C29.246,10.14 26.81,12.575 23.817,12.575 C20.825,12.575 18.39,10.14 18.39,7.147 L18.39,7.147 Z M5.672,26.075 C3.822,26.075 2.317,24.57 2.317,22.72 C2.317,20.87 3.822,19.365 5.672,19.365 C7.522,19.365 9.027,20.87 9.027,22.72 C9.027,24.57 7.522,26.075 5.672,26.075 L5.672,26.075 Z M17.929,32.234 C17.929,33.44 16.948,34.421 15.743,34.421 C14.537,34.421 13.556,33.44 13.556,32.234 C13.556,31.028 14.537,30.048 15.743,30.048 C16.948,30.048 17.929,31.028 17.929,32.234 L17.929,32.234 Z M19.845,26.025 C17.494,26.025 15.58,24.112 15.58,21.76 C15.58,19.409 17.494,17.495 19.845,17.495 C22.197,17.495 24.11,19.409 24.11,21.76 C24.11,24.112 22.197,26.025 19.845,26.025 L19.845,26.025 Z M30.478,34.795 C28.371,34.795 26.657,33.081 26.657,30.974 C26.657,28.867 28.371,27.153 30.478,27.153 C32.585,27.153 34.299,28.867 34.299,30.974 C34.299,33.081 32.585,34.795 30.478,34.795 L30.478,34.795 Z" id="Fill-84"></path>
                            </g>
                            <g id="feature" transform="translate(310.000000, 204.000000)">
                                <path d="M43.99,16.335 L43.984,16.301 C43.864,15.741 43.743,15.181 43.662,14.621 C43.633,14.17 43.342,13.879 43.183,13.719 C42.527,13.064 41.703,12.732 40.733,12.732 C40.273,12.732 39.993,12.639 39.817,12.469 C39.673,12.289 39.527,12.11 39.419,11.929 C39.361,11.832 39.303,11.726 39.245,11.62 C39.177,11.494 39.108,11.369 39.019,11.223 C38.688,10.726 38.683,10.237 39,9.688 C39.538,8.774 39.637,7.854 39.303,6.878 C39.248,6.576 39.062,6.394 38.958,6.294 L37.361,4.945 C37.289,4.873 37.079,4.663 36.72,4.636 C35.674,4.484 34.753,4.744 33.977,5.416 C33.696,5.663 33.481,5.777 33.265,5.819 C33.003,5.846 32.748,5.819 32.561,5.75 C32.394,5.679 32.216,5.619 32.038,5.559 C31.9,5.513 31.762,5.468 31.596,5.398 C31.066,5.203 30.791,4.859 30.705,4.284 C30.543,3.201 29.991,2.375 29.013,1.802 C28.889,1.741 28.682,1.638 28.416,1.638 L26.244,1.638 C25.977,1.638 25.771,1.741 25.595,1.83 C24.669,2.375 24.118,3.2 23.955,4.284 C23.868,4.859 23.594,5.203 23.027,5.413 C22.898,5.468 22.76,5.513 22.623,5.559 C22.444,5.618 22.266,5.679 22.132,5.737 C21.912,5.819 21.658,5.848 21.448,5.827 C21.179,5.777 20.964,5.663 20.68,5.414 C19.906,4.744 18.984,4.481 17.94,4.636 C17.581,4.663 17.374,4.87 17.346,4.901 L16.146,5.92 C15.471,4.812 14.803,3.732 14.168,2.721 L13.809,2.137 C13.606,1.845 12.992,0.957 11.944,0.957 C10.946,0.957 10.252,1.819 10.056,2.218 L8.956,4 C8.068,5.418 7.149,6.885 6.298,8.338 C4.016,12.143 2.299,15.578 1.046,18.85 C0.569,20.151 0.076,21.498 0.029,22.969 C-0.106,26.739 1.26,29.925 4.09,32.441 C6.279,34.361 9.083,35.418 11.986,35.418 C14.807,35.418 17.456,34.437 19.598,32.645 C19.714,32.93 19.857,33.211 20.059,33.483 C20.204,33.662 20.372,33.779 20.561,33.831 C21.216,34.132 21.94,34.389 22.83,34.636 L22.995,34.664 C23.087,34.679 23.288,34.712 23.521,34.632 C24.456,34.408 25.175,33.86 25.667,32.984 C25.922,32.502 26.314,32.245 26.792,32.218 L27.827,32.217 C28.345,32.245 28.737,32.502 29.002,33.002 C29.485,33.86 30.203,34.408 31.138,34.632 C31.254,34.672 31.361,34.684 31.446,34.684 C31.531,34.684 31.594,34.672 31.622,34.665 L31.83,34.636 C32.718,34.39 33.442,34.133 34.096,33.832 C34.284,33.782 34.447,33.671 34.574,33.512 L34.655,33.418 C35.259,32.594 35.466,31.647 35.256,30.702 C35.146,30.127 35.306,29.702 35.79,29.289 C36.028,29.14 36.266,28.951 36.437,28.777 C36.92,28.356 37.377,28.272 37.985,28.504 C38.901,28.827 39.842,28.77 40.7,28.34 C40.831,28.275 41.104,28.14 41.213,27.906 C41.719,27.147 42.087,26.505 42.4,25.84 C42.56,25.52 42.594,25.169 42.519,24.888 C42.404,23.972 41.981,23.208 41.304,22.689 C41.103,22.528 40.851,22.249 40.785,21.819 C40.756,21.65 40.756,21.486 40.79,21.285 C40.808,21.136 40.836,20.996 40.865,20.856 C40.9,20.68 40.935,20.503 40.955,20.334 C41.037,19.793 41.325,19.474 41.894,19.274 C42.716,19.018 43.367,18.451 43.835,17.572 C44.018,17.206 44.068,16.801 43.99,16.335 L43.99,16.335 Z M5.122,31.273 C2.625,29.052 1.468,26.354 1.587,23.022 C1.625,21.798 2.055,20.626 2.506,19.395 C3.722,16.221 5.399,12.866 7.64,9.133 C8.482,7.693 9.395,6.236 10.277,4.827 L11.417,2.974 C11.502,2.813 11.766,2.516 11.944,2.516 C12.098,2.516 12.293,2.687 12.504,2.989 L12.845,3.543 C13.658,4.839 14.517,6.222 15.383,7.663 L15.394,7.682 C17.246,10.767 18.728,13.502 19.927,16.044 L20.663,17.604 L21.348,16.021 C22.376,13.642 24.725,12.102 27.329,12.098 C30.88,12.103 33.8,14.974 33.837,18.497 C33.855,20.204 33.195,21.822 31.977,23.053 C30.757,24.286 29.133,24.965 27.429,24.965 L27.256,24.965 C25.913,24.965 24.622,24.549 23.523,23.763 L22.379,22.945 L22.292,24.349 C22.198,25.848 21.725,27.365 20.897,28.833 C20.552,29.397 20.12,29.955 19.575,30.538 C19.53,30.586 19.484,30.634 19.438,30.682 L19.41,30.675 C19.407,30.69 19.403,30.706 19.4,30.72 C17.42,32.747 14.797,33.86 11.986,33.86 C9.461,33.86 7.022,32.94 5.122,31.273 L5.122,31.273 Z M42.45,16.856 C42.183,17.357 41.859,17.652 41.404,17.795 C40.269,18.192 39.581,18.99 39.411,20.122 C39.393,20.271 39.364,20.411 39.336,20.551 C39.301,20.727 39.266,20.904 39.248,21.06 C39.191,21.396 39.191,21.739 39.246,22.066 C39.356,22.781 39.741,23.435 40.342,23.915 C40.698,24.188 40.91,24.581 40.998,25.159 C40.732,25.724 40.426,26.264 39.976,26.96 C39.497,27.19 39.015,27.215 38.522,27.041 C37.398,26.612 36.321,26.807 35.374,27.639 C35.241,27.771 35.081,27.898 34.933,27.986 L34.839,28.053 C33.892,28.832 33.506,29.85 33.729,31.017 C33.84,31.515 33.751,31.972 33.458,32.41 C32.896,32.669 32.266,32.894 31.489,33.113 C30.979,32.989 30.63,32.718 30.37,32.256 C29.856,31.283 28.981,30.717 27.868,30.66 L27.33,30.66 L26.752,30.661 C25.678,30.717 24.804,31.283 24.299,32.238 C24.03,32.717 23.68,32.989 23.171,33.113 C22.394,32.894 21.764,32.669 21.202,32.411 C20.992,32.094 20.892,31.761 20.899,31.4 C21.431,30.81 21.868,30.232 22.241,29.623 C22.971,28.327 23.459,27.007 23.697,25.683 C24.794,26.231 26.002,26.518 27.271,26.518 L27.297,26.518 L27.403,26.523 C29.552,26.523 31.57,25.681 33.084,24.149 C34.598,22.62 35.419,20.607 35.396,18.48 C35.349,14.108 31.731,10.545 27.329,10.539 C24.637,10.543 22.166,11.872 20.681,14.024 C19.641,11.932 18.416,9.706 16.962,7.268 L18.26,6.165 C18.81,6.108 19.256,6.242 19.657,6.589 C19.989,6.88 20.462,7.231 21.223,7.368 C21.727,7.424 22.231,7.365 22.712,7.183 C22.84,7.128 22.979,7.083 23.116,7.038 C23.295,6.978 23.473,6.918 23.603,6.861 C24.67,6.467 25.325,5.656 25.496,4.516 C25.585,3.919 25.856,3.499 26.354,3.196 L28.312,3.196 C28.803,3.498 29.074,3.918 29.164,4.516 C29.335,5.656 29.99,6.467 31.019,6.846 C31.186,6.918 31.365,6.978 31.544,7.038 C31.682,7.083 31.819,7.128 31.981,7.197 C32.429,7.365 32.933,7.424 33.491,7.36 C34.197,7.231 34.67,6.881 35,6.592 C35.402,6.243 35.849,6.104 36.394,6.165 L37.826,7.375 C38.014,7.92 37.962,8.378 37.654,8.902 C37.038,9.966 37.062,11.098 37.703,12.056 C37.761,12.153 37.818,12.259 37.876,12.366 C37.945,12.491 38.014,12.617 38.082,12.731 C38.224,12.967 38.411,13.206 38.663,13.514 C39.359,14.21 40.178,14.29 40.733,14.29 C41.282,14.29 41.723,14.464 42.08,14.822 C42.094,14.835 42.108,14.849 42.122,14.862 C42.207,15.444 42.331,16.026 42.456,16.608 C42.48,16.766 42.463,16.829 42.45,16.856 L42.45,16.856 Z" id="Fill-85"></path>
                                <path d="M22.862,17.773 C23.278,18.675 23.731,19.752 23.936,20.904 C24.005,21.307 24.025,21.715 23.998,22.151 L23.972,22.582 L24.323,22.833 C25.226,23.479 26.288,23.821 27.486,23.821 C28.909,23.821 30.245,23.263 31.247,22.25 C32.248,21.238 32.792,19.905 32.777,18.497 C32.746,15.603 30.352,13.245 27.439,13.241 C25.304,13.244 23.379,14.507 22.537,16.459 L22.397,16.782 L22.628,17.272 C22.706,17.436 22.784,17.6 22.862,17.773 L22.862,17.773 Z M27.439,14.799 C29.501,14.803 31.196,16.469 31.218,18.513 C31.229,19.502 30.846,20.44 30.139,21.154 C29.432,21.869 28.49,22.263 27.526,22.264 L27.394,22.263 C26.749,22.263 26.125,22.098 25.568,21.782 C25.568,21.391 25.536,21.008 25.472,20.638 L25.471,20.634 C25.235,19.307 24.735,18.113 24.28,17.127 C24.227,17.008 24.172,16.89 24.116,16.772 C24.771,15.565 26.042,14.802 27.439,14.799 L27.439,14.799 Z" id="Fill-86"></path>
                                <path d="M6.86,23.461 L5.302,23.461 C5.302,27.124 8.282,30.103 11.944,30.103 L11.944,28.545 C9.141,28.545 6.86,26.264 6.86,23.461" id="Fill-87"></path>
                            </g>
                            <g id="summary" transform="translate(416.000000, 202.000000)">
                                <path d="M33.911,5.046 C31.15,2.259 26.406,0.961 18.98,0.961 C11.554,0.961 6.809,2.259 4.049,5.046 C0.8,8.326 0.846,13.205 0.896,18.37 C0.902,19.024 0.908,19.688 0.908,20.359 L0.908,21.242 L2.843,21.242 L2.843,21.988 L2.937,22.162 C3.177,22.604 3.696,22.889 4.258,22.889 L4.952,22.889 L4.952,25.478 L4.975,25.52 L4.975,34 C4.975,34.51 5.279,35.051 5.521,35.376 C5.854,36.351 7.804,39.657 18.877,39.657 L18.98,39.656 L19.082,39.657 C30.155,39.657 32.105,36.351 32.439,35.376 C32.681,35.051 32.984,34.51 32.984,34 L32.984,27.838 L33.008,27.863 L33.008,25.591 L32.984,25.556 L32.984,22.889 L33.702,22.889 C34.264,22.889 34.782,22.604 35.022,22.162 L35.117,21.988 L35.117,21.242 L37.051,21.242 L37.051,20.359 C37.051,19.688 37.058,19.024 37.064,18.37 C37.113,13.205 37.16,8.326 33.911,5.046 L33.911,5.046 Z M4.401,21.324 L4.401,19.588 L6.507,19.588 L6.507,19.569 L6.51,19.574 L6.51,19.362 C9.242,24.417 13.142,26.535 17.765,25.35 C23.192,23.961 26.571,23.183 28.937,24.046 C27.29,24.347 25.471,25.394 23.508,26.523 C21.337,27.772 18.875,29.189 16.079,30.005 C12.296,31.113 9.084,29.462 6.534,25.102 L6.534,21.331 L4.401,21.324 L4.401,21.324 Z M31.004,11.457 L30.966,11.667 C30.96,11.699 29.896,14.892 19.082,14.892 L18.877,14.892 C7.998,14.892 6.996,11.668 6.993,11.667 L6.956,11.457 L6.86,11.347 L6.971,11.219 L7.011,11.016 C7.018,10.984 8.142,7.778 18.98,7.778 L18.994,7.778 C29.888,7.778 30.945,11.014 30.948,11.016 L30.988,11.219 L31.099,11.347 L31.004,11.457 L31.004,11.457 Z M31.143,34.503 L31.019,34.671 L30.973,34.842 C30.964,34.875 29.961,38.099 19.082,38.099 L18.98,38.098 L18.877,38.099 C7.998,38.099 6.996,34.875 6.993,34.873 L6.956,34.664 L6.816,34.503 C6.67,34.334 6.544,34.073 6.534,34 L6.534,27.854 C8.616,30.518 11.087,31.902 13.849,31.901 C14.711,31.901 15.602,31.769 16.516,31.501 C19.491,30.633 22.038,29.167 24.286,27.874 C27.873,25.81 29.891,24.767 31.426,26.187 L31.426,33.986 C31.415,34.073 31.289,34.334 31.143,34.503 L31.143,34.503 Z M33.558,21.331 L31.426,21.331 L31.426,23.738 C28.293,21.058 23.758,22.207 17.304,23.859 C11.478,25.35 8.239,20.231 6.534,15.586 L6.533,13.592 C6.649,13.697 6.782,13.804 6.924,13.911 C6.96,13.939 6.997,13.966 7.035,13.993 C7.169,14.091 7.314,14.189 7.473,14.286 C7.492,14.298 7.509,14.311 7.529,14.323 C7.705,14.429 7.9,14.535 8.108,14.64 C8.161,14.667 8.217,14.693 8.272,14.72 C8.454,14.808 8.648,14.895 8.855,14.98 C8.903,14.999 8.946,15.019 8.995,15.039 C9.246,15.138 9.516,15.234 9.804,15.328 C9.872,15.35 9.944,15.371 10.013,15.392 C10.258,15.468 10.517,15.541 10.789,15.611 C10.867,15.631 10.943,15.652 11.024,15.672 C11.363,15.754 11.721,15.832 12.103,15.905 C12.178,15.919 12.26,15.931 12.337,15.945 C12.664,16.004 13.008,16.058 13.367,16.108 C13.478,16.123 13.587,16.139 13.701,16.153 C14.143,16.21 14.605,16.26 15.096,16.302 C15.16,16.307 15.23,16.311 15.295,16.316 C15.735,16.35 16.198,16.378 16.677,16.399 C16.823,16.405 16.968,16.412 17.117,16.417 C17.679,16.436 18.259,16.45 18.877,16.45 L19.082,16.45 C19.7,16.45 20.28,16.436 20.842,16.417 C20.991,16.412 21.137,16.405 21.282,16.399 C21.763,16.378 22.226,16.35 22.666,16.316 C22.73,16.31 22.799,16.307 22.862,16.302 C23.354,16.26 23.816,16.21 24.259,16.153 C24.372,16.139 24.481,16.123 24.592,16.108 C24.951,16.058 25.296,16.004 25.624,15.945 C25.7,15.931 25.781,15.919 25.856,15.905 C26.238,15.832 26.597,15.754 26.937,15.672 C27.016,15.652 27.091,15.631 27.168,15.612 C27.442,15.541 27.703,15.467 27.95,15.391 C28.017,15.37 28.088,15.35 28.153,15.329 C28.442,15.235 28.714,15.138 28.965,15.038 C29.012,15.02 29.054,15 29.1,14.982 C29.31,14.895 29.507,14.807 29.692,14.718 C29.744,14.692 29.798,14.667 29.849,14.642 C30.058,14.536 30.255,14.429 30.432,14.322 C30.45,14.311 30.464,14.301 30.481,14.29 C30.642,14.191 30.789,14.091 30.926,13.992 C30.963,13.966 30.999,13.939 31.034,13.913 C31.176,13.805 31.31,13.698 31.426,13.592 L31.431,17.365 L31.426,17.365 L31.453,19.588 L33.558,19.597 L33.558,21.331 L33.558,21.331 Z M35.505,18.354 C35.501,18.794 35.497,19.237 35.495,19.683 L35.117,19.683 L35.117,18.913 L35.019,18.736 C34.781,18.307 34.264,18.03 33.702,18.03 L32.99,18.03 L32.984,11.875 C32.984,11.721 32.949,11.555 32.893,11.382 L32.916,11.337 L32.727,10.979 L32.025,9.654 L31.987,9.728 C30.984,8.391 27.973,6.22 18.994,6.22 L18.966,6.22 C9.987,6.22 6.976,8.391 5.972,9.729 L5.934,9.654 L5.233,10.978 L5.232,10.979 L5.043,11.337 L5.066,11.382 C5.06,11.402 5.046,11.425 5.041,11.445 L4.952,11.197 L4.952,17.236 L4.97,17.264 L4.97,18.03 L4.258,18.03 C3.695,18.03 3.178,18.307 2.94,18.736 L2.843,18.913 L2.843,19.683 L2.465,19.683 C2.462,19.237 2.458,18.794 2.454,18.355 C2.406,13.314 2.365,8.961 5.156,6.143 C7.571,3.705 12.093,2.52 18.98,2.52 C25.867,2.52 30.389,3.705 32.804,6.143 C35.595,8.961 35.553,13.314 35.505,18.354 L35.505,18.354 Z" id="Fill-88"></path>
                            </g>
                            <g id="hall" transform="translate(0.000000, 302.000000)">
                                <polygon id="Fill-1" points="27.79 17.051 30.844 17.051 30.844 18.61 27.79 18.61"></polygon>
                                <polygon id="Fill-2" points="9.263 17.051 12.317 17.051 12.317 18.61 9.263 18.61"></polygon>
                                <path d="M44.711,19.126 L43.932,19.143 L44.706,19.054 L44.218,14.794 C44.203,14.572 44.118,13.818 43.652,13.435 C43.449,13.267 43.201,13.193 42.946,13.225 L41.304,13.44 L40.753,9.236 C40.632,8.312 40.516,7.27 40.668,6.595 C40.789,6.065 41.027,5.851 41.582,5.779 C41.806,5.758 42.135,6.011 42.428,6.445 C42.84,7.055 43.148,7.952 43.273,8.907 L44.818,8.704 C44.661,7.5 44.27,6.388 43.72,5.573 C43.061,4.598 42.234,4.122 41.379,4.234 C40.184,4.39 39.412,5.087 39.148,6.25 C38.939,7.176 39.062,8.333 39.207,9.439 L39.758,13.642 L38.183,13.848 C37.789,13.552 37.305,13.371 36.775,13.371 L18.649,13.371 L17.591,7.857 C17.491,7.331 17.011,6.934 16.475,6.934 L13.771,6.934 L13.771,3.555 L12.212,3.555 L12.212,6.934 L10.154,6.934 L10.154,3.555 L8.595,3.555 L8.595,6.934 L5.891,6.934 C5.355,6.934 4.875,7.331 4.776,7.856 L3.717,13.371 L3.666,13.371 C2.366,13.371 1.309,14.428 1.309,15.728 L1.309,41.102 L2.867,41.102 L2.867,22.29 L37.575,22.29 L37.575,41.102 L39.133,41.102 L39.133,24.808 L43.066,40.582 C43.285,41.669 43.911,41.792 44.186,41.792 C44.233,41.792 44.269,41.79 44.292,41.787 C44.453,41.765 45.249,41.592 45.163,40.33 L44.711,19.126 L44.711,19.126 Z M6.24,8.493 L16.126,8.493 L17.063,13.371 L5.304,13.371 L6.24,8.493 L6.24,8.493 Z M19.441,20.732 L2.867,20.732 L2.867,15.728 C2.867,15.288 3.226,14.929 3.666,14.929 L19.441,14.929 L19.441,20.732 L19.441,20.732 Z M37.575,20.732 L21,20.732 L21,14.929 L36.775,14.929 C36.952,14.929 37.107,14.998 37.24,15.096 C37.232,15.36 37.268,15.587 37.286,15.675 L37.575,17.628 L37.575,20.732 L37.575,20.732 Z M39.443,19.604 L39.133,17.515 L39.133,15.728 C39.133,15.582 39.116,15.44 39.09,15.302 L42.656,14.834 C42.66,14.866 42.663,14.899 42.665,14.935 L43.154,19.196 L43.51,35.922 L39.443,19.604 L39.443,19.604 Z" id="Fill-3"></path>
                                <path d="M6.531,1.835 L15.835,1.835 L15.835,6.488 L22.203,6.488 L22.185,5.691 C22.115,2.51 19.995,0.436 16.651,0.277 L15.835,0.238 L15.835,0.276 L6.531,0.276 L6.531,0.238 L5.715,0.277 C2.372,0.436 0.251,2.51 0.181,5.691 L0.164,6.488 L6.531,6.488 L6.531,1.835 L6.531,1.835 Z M17.394,1.928 C18.584,2.152 20.184,2.844 20.551,4.929 L17.394,4.929 L17.394,1.928 L17.394,1.928 Z M4.973,4.929 L1.815,4.929 C2.182,2.844 3.782,2.152 4.973,1.928 L4.973,4.929 L4.973,4.929 Z" id="Fill-4"></path>
                                <path d="M8.525,9.384 C8.23,9.384 7.991,9.623 7.991,9.918 C7.991,10.212 8.23,10.452 8.525,10.452 C8.819,10.452 9.059,10.212 9.059,9.918 C9.059,9.623 8.819,9.384 8.525,9.384" id="Fill-5"></path>
                                <path d="M11.183,9.384 C10.888,9.384 10.649,9.623 10.649,9.918 C10.649,10.212 10.888,10.452 11.183,10.452 C11.478,10.452 11.717,10.212 11.717,9.918 C11.717,9.623 11.478,9.384 11.183,9.384" id="Fill-6"></path>
                                <path d="M13.842,9.384 C13.547,9.384 13.308,9.623 13.308,9.918 C13.308,10.212 13.547,10.452 13.842,10.452 C14.136,10.452 14.375,10.212 14.375,9.918 C14.375,9.623 14.136,9.384 13.842,9.384" id="Fill-7"></path>
                                <path d="M8.525,11.206 C8.23,11.206 7.991,11.445 7.991,11.74 C7.991,12.035 8.23,12.274 8.525,12.274 C8.819,12.274 9.059,12.035 9.059,11.74 C9.059,11.445 8.819,11.206 8.525,11.206" id="Fill-8"></path>
                                <path d="M11.183,11.206 C10.888,11.206 10.649,11.445 10.649,11.74 C10.649,12.035 10.888,12.274 11.183,12.274 C11.478,12.274 11.717,12.035 11.717,11.74 C11.717,11.445 11.478,11.206 11.183,11.206" id="Fill-9"></path>
                                <path d="M13.842,11.206 C13.547,11.206 13.308,11.445 13.308,11.74 C13.308,12.035 13.547,12.274 13.842,12.274 C14.136,12.274 14.375,12.035 14.375,11.74 C14.375,11.445 14.136,11.206 13.842,11.206" id="Fill-10"></path>
                            </g>
                            <g id="colour" transform="translate(108.000000, 304.000000)">
                                <path d="M31.342,0 L4.851,0 C2.176,0 0,2.176 0,4.851 L0,31.342 C0,34.017 2.176,36.193 4.851,36.193 L31.342,36.193 C34.016,36.193 36.193,34.017 36.193,31.342 L36.193,4.851 C36.193,2.176 34.016,0 31.342,0 L31.342,0 Z M34.634,4.851 L34.634,8.659 L18.876,8.659 L18.876,1.559 L31.342,1.559 C33.157,1.559 34.634,3.036 34.634,4.851 L34.634,4.851 Z M18.876,10.218 L34.634,10.218 L34.634,17.318 L18.876,17.318 L18.876,10.218 Z M18.876,18.876 L34.634,18.876 L34.634,25.976 L18.876,25.976 L18.876,18.876 Z M1.558,18.876 L17.317,18.876 L17.317,25.976 L1.558,25.976 L1.558,18.876 Z M1.558,10.218 L17.317,10.218 L17.317,17.318 L1.558,17.318 L1.558,10.218 Z M1.558,4.851 C1.558,3.036 3.036,1.559 4.851,1.559 L17.317,1.559 L17.317,8.659 L1.558,8.659 L1.558,4.851 L1.558,4.851 Z M1.558,31.342 L1.558,27.535 L17.317,27.535 L17.317,34.634 L4.851,34.634 C3.036,34.634 1.558,33.157 1.558,31.342 L1.558,31.342 Z M34.634,31.342 C34.634,33.157 33.157,34.634 31.342,34.634 L18.876,34.634 L18.876,27.535 L34.634,27.535 L34.634,31.342 L34.634,31.342 Z" id="Imported-Layers"></path>
                            </g>
                            <g id="room" transform="translate(211.000000, 304.000000)">
                                <path d="M36.274,10.819 L35.928,10.157 L18.612,0.089 L17.881,0.089 L0.556,10.155 L0.201,10.808 L0.315,28.049 L0.604,28.617 L17.96,38.649 L18.689,38.649 L36.087,28.632 L36.397,28.057 L36.274,10.819 L36.274,10.819 Z M11.403,23.311 L25.198,23.311 L29.743,25.931 L29.743,25.918 L29.845,25.977 L6.797,25.977 L11.403,23.311 L11.403,23.311 Z M28.244,23.257 L26.3,22.139 L24.61,21.162 L24.862,10.042 L28.494,12.15 L28.244,23.257 L28.244,23.257 Z M14.096,21.752 L18.287,19.327 L22.494,21.752 L14.096,21.752 L14.096,21.752 Z M1.763,11.256 L17.467,2.132 L17.467,18.001 L3.095,26.336 L1.867,27.023 L1.763,11.256 L1.763,11.256 Z M18.325,37.06 L16.464,35.984 L20.194,35.984 L18.325,37.06 L18.325,37.06 Z M22.901,34.425 L13.781,34.425 L13.781,34.433 L9.156,31.76 L27.53,31.76 L22.901,34.425 L22.901,34.425 Z M30.237,30.201 L6.459,30.201 L2.977,28.188 L4.104,27.535 L32.554,27.535 L32.935,27.754 L33.699,28.208 L30.237,30.201 L30.237,30.201 Z M29.783,24.143 L30.073,11.265 L23.363,7.369 L23.071,20.281 L19.025,17.954 L19.025,2.132 L34.719,11.257 L34.831,27.068 L29.783,24.143 L29.783,24.143 Z" id="Fill-1"></path>
                                <path d="M14.308,15.732 L14.56,15.176 L14.56,8.31 L13.481,7.671 L6.69,11.679 L6.449,12.238 L6.449,19.089 L7.512,19.738 L14.308,15.732 L14.308,15.732 Z M8.008,12.711 L13.002,9.764 L13.002,14.693 L8.008,17.637 L8.008,12.711 L8.008,12.711 Z" id="Fill-2"></path>
                            </g>
                            <g id="finish" transform="translate(314.000000, 305.000000)">
                                <path d="M29.414,0.7 L6.12,0.7 C5.985,0.7 5.853,0.711 5.72,0.72 C2.948,0.918 0.731,3.137 0.538,5.91 C0.529,6.04 0.519,6.17 0.519,6.302 L0.519,30.482 C0.519,30.615 0.529,30.744 0.538,30.874 C0.672,32.796 1.776,34.452 3.366,35.354 C4.18,35.817 5.119,36.084 6.12,36.084 L29.414,36.084 C32.503,36.084 35.016,33.571 35.016,30.482 L35.016,6.302 C35.016,3.213 32.503,0.7 29.414,0.7 L29.414,0.7 Z M16.988,12.66 L16.988,34.525 L6.12,34.525 C3.891,34.525 2.077,32.712 2.077,30.482 L2.077,6.302 C2.077,4.072 3.891,2.259 6.12,2.259 L16.988,2.259 L16.988,12.66 L16.988,12.66 Z M33.458,30.482 C33.458,32.712 31.644,34.525 29.414,34.525 L18.546,34.525 L18.546,26.163 L31.351,13.361 C31.656,13.057 31.656,12.564 31.352,12.259 C31.047,11.955 30.553,11.954 30.249,12.259 L18.546,23.959 L18.546,19.642 L22.262,15.823 L31.351,6.736 C31.656,6.432 31.656,5.939 31.352,5.634 C31.047,5.33 30.553,5.329 30.249,5.634 L22.927,12.954 C22.878,12.986 22.824,13.01 22.782,13.054 L21.145,14.736 L18.546,17.334 L18.546,12.966 L23.899,7.465 C24.199,7.156 24.192,6.663 23.884,6.363 C23.575,6.062 23.081,6.069 22.782,6.378 L18.546,10.731 L18.546,2.259 L29.414,2.259 C31.644,2.259 33.458,4.072 33.458,6.302 L33.458,30.482 L33.458,30.482 Z" id="Fill-1"></path>
                                <path d="M27.408,21.768 L21.834,27.495 C21.534,27.804 21.541,28.297 21.85,28.597 C22.001,28.745 22.197,28.818 22.393,28.818 C22.596,28.818 22.799,28.739 22.952,28.582 L28.525,22.855 C28.825,22.546 28.818,22.053 28.51,21.752 C28.201,21.451 27.707,21.458 27.408,21.768" id="Fill-2"></path>
                                <path d="M4.522,4.012 C4.092,4.012 3.743,4.361 3.743,4.791 L3.743,6.336 C3.743,6.766 4.092,7.115 4.522,7.115 C4.953,7.115 5.302,6.766 5.302,6.336 L5.302,4.791 C5.302,4.361 4.953,4.012 4.522,4.012" id="Fill-3"></path>
                                <path d="M7.865,7.115 C8.295,7.115 8.644,6.766 8.644,6.336 L8.644,4.791 C8.644,4.361 8.295,4.012 7.865,4.012 C7.434,4.012 7.085,4.361 7.085,4.791 L7.085,6.336 C7.085,6.766 7.434,7.115 7.865,7.115" id="Fill-4"></path>
                                <path d="M11.207,7.115 C11.638,7.115 11.986,6.766 11.986,6.336 L11.986,4.791 C11.986,4.361 11.638,4.012 11.207,4.012 C10.776,4.012 10.428,4.361 10.428,4.791 L10.428,6.336 C10.428,6.766 10.776,7.115 11.207,7.115" id="Fill-5"></path>
                                <path d="M14.55,7.115 C14.98,7.115 15.329,6.766 15.329,6.336 L15.329,4.791 C15.329,4.361 14.98,4.012 14.55,4.012 C14.119,4.012 13.77,4.361 13.77,4.791 L13.77,6.336 C13.77,6.766 14.119,7.115 14.55,7.115" id="Fill-6"></path>
                                <path d="M4.522,8.37 C4.092,8.37 3.743,8.719 3.743,9.149 L3.743,10.694 C3.743,11.124 4.092,11.473 4.522,11.473 C4.953,11.473 5.302,11.124 5.302,10.694 L5.302,9.149 C5.302,8.719 4.953,8.37 4.522,8.37" id="Fill-7"></path>
                                <path d="M7.865,11.473 C8.295,11.473 8.644,11.124 8.644,10.694 L8.644,9.149 C8.644,8.719 8.295,8.37 7.865,8.37 C7.434,8.37 7.085,8.719 7.085,9.149 L7.085,10.694 C7.085,11.124 7.434,11.473 7.865,11.473" id="Fill-8"></path>
                                <path d="M11.207,11.473 C11.638,11.473 11.986,11.124 11.986,10.694 L11.986,9.149 C11.986,8.719 11.638,8.37 11.207,8.37 C10.776,8.37 10.428,8.719 10.428,9.149 L10.428,10.694 C10.428,11.124 10.776,11.473 11.207,11.473" id="Fill-9"></path>
                                <path d="M14.55,11.473 C14.98,11.473 15.329,11.124 15.329,10.694 L15.329,9.149 C15.329,8.719 14.98,8.37 14.55,8.37 C14.119,8.37 13.77,8.719 13.77,9.149 L13.77,10.694 C13.77,11.124 14.119,11.473 14.55,11.473" id="Fill-10"></path>
                                <path d="M4.522,12.728 C4.092,12.728 3.743,13.077 3.743,13.507 L3.743,15.052 C3.743,15.482 4.092,15.831 4.522,15.831 C4.953,15.831 5.302,15.482 5.302,15.052 L5.302,13.507 C5.302,13.077 4.953,12.728 4.522,12.728" id="Fill-11"></path>
                                <path d="M7.865,15.831 C8.295,15.831 8.644,15.482 8.644,15.052 L8.644,13.507 C8.644,13.077 8.295,12.728 7.865,12.728 C7.434,12.728 7.085,13.077 7.085,13.507 L7.085,15.052 C7.085,15.482 7.434,15.831 7.865,15.831" id="Fill-12"></path>
                                <path d="M11.207,15.831 C11.638,15.831 11.986,15.482 11.986,15.052 L11.986,13.507 C11.986,13.077 11.638,12.728 11.207,12.728 C10.776,12.728 10.428,13.077 10.428,13.507 L10.428,15.052 C10.428,15.482 10.776,15.831 11.207,15.831" id="Fill-13"></path>
                                <path d="M14.55,15.831 C14.98,15.831 15.329,15.482 15.329,15.052 L15.329,13.507 C15.329,13.077 14.98,12.728 14.55,12.728 C14.119,12.728 13.77,13.077 13.77,13.507 L13.77,15.052 C13.77,15.482 14.119,15.831 14.55,15.831" id="Fill-14"></path>
                                <path d="M4.522,17.085 C4.092,17.085 3.743,17.435 3.743,17.865 L3.743,19.41 C3.743,19.84 4.092,20.189 4.522,20.189 C4.953,20.189 5.302,19.84 5.302,19.41 L5.302,17.865 C5.302,17.435 4.953,17.085 4.522,17.085" id="Fill-15"></path>
                                <path d="M7.865,20.189 C8.295,20.189 8.644,19.84 8.644,19.41 L8.644,17.865 C8.644,17.435 8.295,17.085 7.865,17.085 C7.434,17.085 7.085,17.435 7.085,17.865 L7.085,19.41 C7.085,19.84 7.434,20.189 7.865,20.189" id="Fill-16"></path>
                                <path d="M11.207,20.189 C11.638,20.189 11.986,19.84 11.986,19.41 L11.986,17.865 C11.986,17.435 11.638,17.085 11.207,17.085 C10.776,17.085 10.428,17.435 10.428,17.865 L10.428,19.41 C10.428,19.84 10.776,20.189 11.207,20.189" id="Fill-17"></path>
                                <path d="M14.55,20.189 C14.98,20.189 15.329,19.84 15.329,19.41 L15.329,17.865 C15.329,17.435 14.98,17.085 14.55,17.085 C14.119,17.085 13.77,17.435 13.77,17.865 L13.77,19.41 C13.77,19.84 14.119,20.189 14.55,20.189" id="Fill-18"></path>
                                <path d="M4.522,21.443 C4.092,21.443 3.743,21.793 3.743,22.223 L3.743,23.768 C3.743,24.198 4.092,24.547 4.522,24.547 C4.953,24.547 5.302,24.198 5.302,23.768 L5.302,22.223 C5.302,21.793 4.953,21.443 4.522,21.443" id="Fill-19"></path>
                                <path d="M7.865,24.547 C8.295,24.547 8.644,24.198 8.644,23.768 L8.644,22.223 C8.644,21.793 8.295,21.443 7.865,21.443 C7.434,21.443 7.085,21.793 7.085,22.223 L7.085,23.768 C7.085,24.198 7.434,24.547 7.865,24.547" id="Fill-20"></path>
                                <path d="M11.207,24.547 C11.638,24.547 11.986,24.198 11.986,23.768 L11.986,22.223 C11.986,21.793 11.638,21.443 11.207,21.443 C10.776,21.443 10.428,21.793 10.428,22.223 L10.428,23.768 C10.428,24.198 10.776,24.547 11.207,24.547" id="Fill-21"></path>
                                <path d="M14.55,24.547 C14.98,24.547 15.329,24.198 15.329,23.768 L15.329,22.223 C15.329,21.793 14.98,21.443 14.55,21.443 C14.119,21.443 13.77,21.793 13.77,22.223 L13.77,23.768 C13.77,24.198 14.119,24.547 14.55,24.547" id="Fill-22"></path>
                                <path d="M4.522,25.801 C4.092,25.801 3.743,26.15 3.743,26.581 L3.743,28.125 C3.743,28.556 4.092,28.905 4.522,28.905 C4.953,28.905 5.302,28.556 5.302,28.125 L5.302,26.581 C5.302,26.15 4.953,25.801 4.522,25.801" id="Fill-23"></path>
                                <path d="M7.865,28.905 C8.295,28.905 8.644,28.556 8.644,28.125 L8.644,26.581 C8.644,26.15 8.295,25.801 7.865,25.801 C7.434,25.801 7.085,26.15 7.085,26.581 L7.085,28.125 C7.085,28.556 7.434,28.905 7.865,28.905" id="Fill-24"></path>
                                <path d="M11.207,28.905 C11.638,28.905 11.986,28.556 11.986,28.125 L11.986,26.581 C11.986,26.15 11.638,25.801 11.207,25.801 C10.776,25.801 10.428,26.15 10.428,26.581 L10.428,28.125 C10.428,28.556 10.776,28.905 11.207,28.905" id="Fill-25"></path>
                                <path d="M14.55,28.905 C14.98,28.905 15.329,28.556 15.329,28.125 L15.329,26.581 C15.329,26.15 14.98,25.801 14.55,25.801 C14.119,25.801 13.77,26.15 13.77,26.581 L13.77,28.125 C13.77,28.556 14.119,28.905 14.55,28.905" id="Fill-26"></path>
                                <path d="M4.522,30.159 C4.092,30.159 3.743,30.508 3.743,30.939 L3.743,32.483 C3.743,32.914 4.092,33.263 4.522,33.263 C4.953,33.263 5.302,32.914 5.302,32.483 L5.302,30.939 C5.302,30.508 4.953,30.159 4.522,30.159" id="Fill-27"></path>
                                <path d="M7.865,33.263 C8.295,33.263 8.644,32.914 8.644,32.483 L8.644,30.939 C8.644,30.508 8.295,30.159 7.865,30.159 C7.434,30.159 7.085,30.508 7.085,30.939 L7.085,32.483 C7.085,32.914 7.434,33.263 7.865,33.263" id="Fill-28"></path>
                                <path d="M11.207,33.263 C11.638,33.263 11.986,32.914 11.986,32.483 L11.986,30.939 C11.986,30.508 11.638,30.159 11.207,30.159 C10.776,30.159 10.428,30.508 10.428,30.939 L10.428,32.483 C10.428,32.914 10.776,33.263 11.207,33.263" id="Fill-29"></path>
                                <path d="M14.55,33.263 C14.98,33.263 15.329,32.914 15.329,32.483 L15.329,30.939 C15.329,30.508 14.98,30.159 14.55,30.159 C14.119,30.159 13.77,30.508 13.77,30.939 L13.77,32.483 C13.77,32.914 14.119,33.263 14.55,33.263" id="Fill-30"></path>
                            </g>
                            <g id="flat-matt" transform="translate(417.000000, 305.000000)">
                                <path d="M29.671943,0.0405541311 L6.09240313,0.0405541311 C2.99660826,0.0405541311 0.478343305,2.55881909 0.478343305,5.65461396 L0.478343305,30.132208 C0.478343305,33.2280028 2.99660826,35.7462678 6.09240313,35.7462678 L29.671943,35.7462678 C32.7677379,35.7462678 35.2864915,33.2280028 35.2864915,30.132208 L35.2864915,5.65461396 C35.2864915,2.55881909 32.7677379,0.0405541311 29.671943,0.0405541311 L29.671943,0.0405541311 Z M33.8206795,30.132208 C33.8206795,32.4193632 31.9595869,34.2804558 29.671943,34.2804558 L27.2201282,34.2804558 L31.8608889,29.6172194 C32.1838561,29.2932749 32.1823903,28.7690028 31.8584459,28.4460356 C31.5345014,28.123557 31.0097407,28.1245342 30.6872621,28.4489672 L24.8841125,34.2804558 L19.1679345,34.2804558 L30.9349843,22.4562393 C31.2579516,22.1322949 31.2564858,21.6075342 30.9325413,21.2850556 C30.6081083,20.9625769 30.0838362,20.9635541 29.7613575,21.2879872 L16.8319188,34.2804558 L6.09240313,34.2804558 C3.80524786,34.2804558 1.94415527,32.4193632 1.94415527,30.132208 L1.94415527,26.6074188 L12.8561481,15.6973803 C13.1424701,15.4110584 13.1424701,14.9468846 12.8561481,14.6610513 C12.5703148,14.3747293 12.106141,14.3747293 11.8198191,14.6610513 L1.94415527,24.5347607 L1.94415527,19.9008405 L12.8561481,8.99080199 C13.1424701,8.70496866 13.1424701,8.24079487 12.8561481,7.95447293 C12.5703148,7.668151 12.106141,7.668151 11.8198191,7.95447293 L1.94415527,17.8281823 L1.94415527,13.1908419 L5.31259117,9.72908262 C5.59451567,9.43934046 5.58816382,8.97516667 5.29793305,8.69275356 C5.00819088,8.41082906 4.54401709,8.41718091 4.26160399,8.70692308 L1.94415527,11.0888675 L1.94415527,5.65461396 C1.94415527,3.36745869 3.80524786,1.5063661 6.09240313,1.5063661 L22.3761083,1.5063661 L17.911245,5.97025214 C17.6249231,6.25608547 17.6249231,6.72025926 17.911245,7.0065812 C18.0539174,7.14974217 18.2415413,7.22107835 18.4291652,7.22107835 C18.6167892,7.22107835 18.8044131,7.14974217 18.9475741,7.0065812 L24.4487664,1.5063661 L29.0836638,1.5063661 L17.911245,12.6763419 C17.6249231,12.9621752 17.6249231,13.426349 17.911245,13.7126709 C18.0539174,13.8558319 18.2415413,13.9276567 18.4291652,13.9276567 C18.6167892,13.9276567 18.8044131,13.8558319 18.9475741,13.7126709 L30.9520855,1.71060256 C32.6148048,2.25148718 33.8206795,3.81404274 33.8206795,5.65461396 L33.8206795,30.132208 L33.8206795,30.132208 Z" id="Fill-1"></path>
                                <path d="M30.6706496,6.66797863 L25.0297165,12.4657536 C24.7473034,12.7559843 24.7536553,13.2196695 25.043886,13.5020826 C25.1860698,13.6408462 25.3707621,13.7097393 25.5549658,13.7097393 C25.7455214,13.7097393 25.9365655,13.6354715 26.0802151,13.4879131 L31.7216368,7.68964957 C32.0035613,7.39990741 31.9972094,6.93573362 31.7074672,6.65332051 C31.4177251,6.37139601 30.9535513,6.37774786 30.6706496,6.66797863" id="Fill-2"></path>
                                <path d="M21.2791923,21.1067151 L15.6739274,26.9411353 C15.357312,27.270943 15.3675726,27.7947265 15.6973803,28.1118305 C15.8581311,28.2662293 16.0643219,28.3424516 16.2710014,28.3424516 C16.4884302,28.3424516 16.7053704,28.2579231 16.8680755,28.0883775 L22.4738291,22.2539573 C22.7904444,21.9241496 22.7796952,21.4003661 22.4498875,21.0832621 C22.1200798,20.7656695 21.5962963,20.7764188 21.2791923,21.1067151" id="Fill-3"></path>
                                <path d="M11.3874046,21.8420641 L5.74598291,27.6403276 C5.4635698,27.9305584 5.46992165,28.3942436 5.76015242,28.6766567 C5.90282479,28.8149316 6.08702849,28.8843134 6.27123219,28.8843134 C6.46227635,28.8843134 6.65283191,28.8100456 6.79648148,28.6624872 L12.4379031,22.8642236 C12.7203162,22.5739929 12.7134758,22.1103077 12.4237336,21.827406 C12.1335028,21.5459701 11.6698177,21.5513447 11.3874046,21.8420641" id="Fill-4"></path>
                            </g>
                            <g id="matt" transform="translate(5.000000, 406.000000)">
                                <path d="M29.9249786,0.0405541311 L6.34592735,0.0405541311 C3.25013248,0.0405541311 0.731378917,2.55930769 0.731378917,5.65510256 L0.731378917,30.1317194 C0.731378917,33.2275142 3.25013248,35.7462678 6.34592735,35.7462678 L29.9249786,35.7462678 C33.0207735,35.7462678 35.5395271,33.2275142 35.5395271,30.1317194 L35.5395271,5.65510256 C35.5395271,2.55930769 33.0207735,0.0405541311 29.9249786,0.0405541311 L29.9249786,0.0405541311 Z M34.0737151,25.4728803 L25.1664644,34.2804558 L15.6562764,34.2804558 L34.0737151,16.0696966 L34.0737151,25.4728803 L34.0737151,25.4728803 Z M34.0737151,30.1317194 C34.0737151,32.4193632 32.2126225,34.2804558 29.9249786,34.2804558 L27.250849,34.2804558 L34.0737151,27.5343006 L34.0737151,30.1317194 L34.0737151,30.1317194 Z M13.5718917,34.2804558 L6.34592735,34.2804558 C5.36481054,34.2804558 4.46431339,33.9364786 3.75339459,33.3653006 L33.6383689,3.81599715 C33.9144302,4.37105128 34.0737151,4.99402137 34.0737151,5.65510256 L34.0737151,14.0082764 L13.5718917,34.2804558 L13.5718917,34.2804558 Z M2.19719088,22.219755 L23.1455983,1.5063661 L29.9249786,1.5063661 C31.018963,1.5063661 32.0122949,1.93487179 32.7539957,2.62917806 L2.78937892,32.2571467 C2.41608547,31.6346652 2.19719088,30.9090883 2.19719088,30.1317194 L2.19719088,22.219755 L2.19719088,22.219755 Z M2.19719088,10.6945641 L11.4894615,1.5063661 L21.0612137,1.5063661 L2.19719088,20.1588234 L2.19719088,10.6945641 L2.19719088,10.6945641 Z M2.19719088,5.65510256 C2.19719088,3.36745869 4.05828348,1.5063661 6.34592735,1.5063661 L9.40507692,1.5063661 L2.19719088,8.63314387 L2.19719088,5.65510256 L2.19719088,5.65510256 Z" id="Fill-5"></path>
                            </g>
                            <g id="silk" transform="translate(108.000000, 406.000000)">
                                <path d="M30.1780142,0.0405541311 L6.59896296,0.0405541311 C3.50316809,0.0405541311 0.98441453,2.55881909 0.98441453,5.65461396 L0.98441453,30.1317194 C0.98441453,33.2275142 3.50316809,35.7462678 6.59896296,35.7462678 L30.1780142,35.7462678 C33.2738091,35.7462678 35.7925627,33.2275142 35.7925627,30.1317194 L35.7925627,5.65461396 C35.7925627,2.55881909 33.2738091,0.0405541311 30.1780142,0.0405541311 L30.1780142,0.0405541311 Z M34.3267507,30.1317194 C34.3267507,32.4188746 32.4656581,34.2804558 30.1780142,34.2804558 L6.59896296,34.2804558 C4.31131909,34.2804558 2.4502265,32.4188746 2.4502265,30.1317194 L2.4502265,5.65461396 C2.4502265,3.36697009 4.31131909,1.5063661 6.59896296,1.5063661 L30.1780142,1.5063661 C32.4656581,1.5063661 34.3267507,3.36697009 34.3267507,5.65461396 L34.3267507,30.1317194 L34.3267507,30.1317194 Z" id="Fill-6"></path>
                                <path d="M9.38644872,21.7379915 C8.59442165,21.7379915 7.95288462,22.3795285 7.95288462,23.1715556 C7.95288462,23.963094 8.59442165,24.6051197 9.38644872,24.6051197 C10.1779872,24.6051197 10.8200128,23.963094 10.8200128,23.1715556 C10.8200128,22.3795285 10.1779872,21.7379915 9.38644872,21.7379915" id="Fill-7"></path>
                                <path d="M30.1560271,4.20443732 C28.9682308,4.20443732 28.0056809,5.16747578 28.0056809,6.35527208 C28.0056809,7.54257977 28.9682308,8.50561823 30.1560271,8.50561823 C31.3438234,8.50561823 32.3063732,7.54257977 32.3063732,6.35527208 C32.3063732,5.16747578 31.3438234,4.20443732 30.1560271,4.20443732" id="Fill-8"></path>
                                <path d="M28.0779943,12.1637963 C26.4944288,12.1637963 25.2108661,13.447359 25.2108661,15.0309245 C25.2108661,16.61449 26.4944288,17.8980527 28.0779943,17.8980527 C29.6615598,17.8980527 30.9451225,16.61449 30.9451225,15.0309245 C30.9451225,13.447359 29.6615598,12.1637963 28.0779943,12.1637963" id="Fill-9"></path>
                                <path d="M20.8803689,3.97919088 C19.2538063,3.97919088 17.9350641,5.29793305 17.9350641,6.92498433 C17.9350641,8.55154701 19.2538063,9.87028917 20.8803689,9.87028917 C22.5074202,9.87028917 23.8261624,8.55154701 23.8261624,6.92498433 C23.8261624,5.29793305 22.5074202,3.97919088 20.8803689,3.97919088" id="Fill-10"></path>
                                <path d="M17.7572123,14.4128405 C15.6322735,14.4128405 13.9094558,16.1356581 13.9094558,18.2610855 C13.9094558,20.3860242 15.6322735,22.1088419 17.7572123,22.1088419 C19.8826396,22.1088419 21.6054573,20.3860242 21.6054573,18.2610855 C21.6054573,16.1356581 19.8826396,14.4128405 17.7572123,14.4128405" id="Fill-11"></path>
                                <path d="M10.5561667,15.4838604 C10.5561667,13.9002949 9.27260399,12.6162436 7.68903846,12.6162436 C6.10596154,12.6162436 4.82191026,13.9002949 4.82191026,15.4838604 C4.82191026,17.0669373 6.10596154,18.3509886 7.68903846,18.3509886 C9.27260399,18.3509886 10.5561667,17.0669373 10.5561667,15.4838604" id="Fill-12"></path>
                                <path d="M8.18301709,28.0566182 C6.9952208,28.0566182 6.03267094,29.0191681 6.03267094,30.2069644 C6.03267094,31.3942721 6.9952208,32.3573105 8.18301709,32.3573105 C9.37081339,32.3573105 10.3333632,31.3942721 10.3333632,30.2069644 C10.3333632,29.0191681 9.37081339,28.0566182 8.18301709,28.0566182" id="Fill-13"></path>
                                <path d="M16.3236481,27.2416268 C15.5321097,27.2416268 14.890084,27.8836524 14.890084,28.6751909 C14.890084,29.4672179 15.5321097,30.108755 16.3236481,30.108755 C17.1156752,30.108755 17.7572123,29.4672179 17.7572123,28.6751909 C17.7572123,27.8836524 17.1156752,27.2416268 16.3236481,27.2416268" id="Fill-14"></path>
                                <path d="M27.8473732,21.1189302 C26.6600655,21.1189302 25.6970271,22.0814801 25.6970271,23.2692764 C25.6970271,24.4570726 26.6600655,25.4196225 27.8473732,25.4196225 C29.0351695,25.4196225 29.9977194,24.4570726 29.9977194,23.2692764 C29.9977194,22.0814801 29.0351695,21.1189302 27.8473732,21.1189302" id="Fill-15"></path>
                                <path d="M22.313933,26.2688162 C21.9181638,26.2688162 21.597151,26.5898291 21.597151,26.9855983 C21.597151,27.3818561 21.9181638,27.7023803 22.313933,27.7023803 C22.7097023,27.7023803 23.0307151,27.3818561 23.0307151,26.9855983 C23.0307151,26.5898291 22.7097023,26.2688162 22.313933,26.2688162" id="Fill-16"></path>
                                <path d="M12.8721496,9.42907977 C12.4763803,9.42907977 12.1553675,9.75009259 12.1553675,10.1458618 C12.1553675,10.5416311 12.4763803,10.8626439 12.8721496,10.8626439 C13.2684074,10.8626439 13.5889316,10.5416311 13.5889316,10.1458618 C13.5889316,9.75009259 13.2684074,9.42907977 12.8721496,9.42907977" id="Fill-17"></path>
                            </g>
                            <g id="soft-sheen" transform="translate(211.000000, 406.000000)">
                                <path d="M20.2917123,9.17353989 L20.2917123,9.17353989 C19.3452863,9.17353989 18.5781781,9.94064815 18.5781781,10.8870741 C18.5781781,11.8335 19.3452863,12.6006083 20.2917123,12.6006083 C21.2381382,12.6006083 22.0052464,11.8335 22.0052464,10.8870741 C22.0052464,9.94064815 21.2381382,9.17353989 20.2917123,9.17353989" id="Fill-18"></path>
                                <path d="M27.5631168,4.32609972 C26.6166909,4.32609972 25.8495826,5.09320798 25.8495826,6.0396339 C25.8495826,6.98605983 26.6166909,7.75316809 27.5631168,7.75316809 C28.5095427,7.75316809 29.276651,6.98605983 29.276651,6.0396339 C29.276651,5.09320798 28.5095427,4.32609972 27.5631168,4.32609972" id="Fill-19"></path>
                                <path d="M20.2917123,18.8684202 L20.2917123,18.8684202 C19.3452863,18.8684202 18.5781781,19.6360171 18.5781781,20.5819544 L18.5781781,20.582443 C18.5781781,21.5288689 19.3452863,22.2959772 20.2917123,22.2959772 C21.2381382,22.2959772 22.0052464,21.5288689 22.0052464,20.582443 L22.0052464,20.5819544 C22.0052464,19.6360171 21.2381382,18.8684202 20.2917123,18.8684202" id="Fill-20"></path>
                                <path d="M27.5631168,14.0209801 C26.6166909,14.0209801 25.8495826,14.7880883 25.8495826,15.7345142 C25.8495826,16.6809402 26.6166909,17.448537 27.5631168,17.448537 C28.5095427,17.448537 29.276651,16.6809402 29.276651,15.7345142 C29.276651,14.7880883 28.5095427,14.0209801 27.5631168,14.0209801" id="Fill-21"></path>
                                <path d="M20.2917123,28.5637892 L20.2917123,28.5637892 C19.3452863,28.5637892 18.5781781,29.3308974 18.5781781,30.2773234 C18.5781781,31.2237493 19.3452863,31.9908575 20.2917123,31.9908575 C21.2381382,31.9908575 22.0052464,31.2237493 22.0052464,30.2773234 C22.0052464,29.3308974 21.2381382,28.5637892 20.2917123,28.5637892" id="Fill-22"></path>
                                <path d="M27.5631168,23.716349 C26.6166909,23.716349 25.8495826,24.4834573 25.8495826,25.4298832 C25.8495826,26.3763091 26.6166909,27.1434174 27.5631168,27.1434174 C28.5095427,27.1434174 29.276651,26.3763091 29.276651,25.4298832 C29.276651,24.4834573 28.5095427,23.716349 27.5631168,23.716349" id="Fill-23"></path>
                                <path d="M5.74890313,9.17353989 L5.74890313,9.17353989 C4.80247721,9.17353989 4.03536895,9.94064815 4.03536895,10.8870741 C4.03536895,11.8335 4.80247721,12.6006083 5.74890313,12.6006083 C6.69532906,12.6006083 7.46292593,11.8335 7.46292593,10.8870741 C7.46243732,9.94064815 6.69532906,9.17353989 5.74890313,9.17353989" id="Fill-24"></path>
                                <path d="M13.0203077,4.32609972 C12.0738818,4.32609972 11.3067735,5.09320798 11.3067735,6.0396339 C11.3067735,6.98605983 12.0738818,7.75316809 13.0203077,7.75316809 C13.9667336,7.75316809 14.7343305,6.98605983 14.7343305,6.0396339 C14.7343305,5.09320798 13.9667336,4.32609972 13.0203077,4.32609972" id="Fill-25"></path>
                                <path d="M5.74890313,18.8684202 L5.74890313,18.8684202 C4.80247721,18.8684202 4.03536895,19.6360171 4.03536895,20.5819544 L4.03536895,20.582443 C4.03536895,21.5288689 4.80247721,22.2959772 5.74890313,22.2959772 C6.69532906,22.2959772 7.46292593,21.5288689 7.46292593,20.582443 L7.46243732,20.5819544 C7.46243732,19.6360171 6.69532906,18.8684202 5.74890313,18.8684202" id="Fill-26"></path>
                                <path d="M13.0203077,14.0209801 C12.0738818,14.0209801 11.3067735,14.7880883 11.3067735,15.7345142 C11.3067735,16.6809402 12.0738818,17.448537 13.0203077,17.448537 C13.9667336,17.448537 14.7343305,16.6809402 14.7343305,15.7345142 C14.7343305,14.7880883 13.9667336,14.0209801 13.0203077,14.0209801" id="Fill-27"></path>
                                <path d="M5.74890313,28.5637892 L5.74890313,28.5637892 C4.80247721,28.5637892 4.03536895,29.3308974 4.03536895,30.2773234 C4.03536895,31.2237493 4.80247721,31.9908575 5.74890313,31.9908575 C6.69532906,31.9908575 7.46292593,31.2237493 7.46292593,30.2773234 C7.46243732,29.3308974 6.69532906,28.5637892 5.74890313,28.5637892" id="Fill-28"></path>
                                <path d="M13.0203077,23.716349 C12.0738818,23.716349 11.3067735,24.4834573 11.3067735,25.4298832 C11.3067735,26.3763091 12.0738818,27.1434174 13.0203077,27.1434174 C13.9667336,27.1434174 14.7343305,26.3763091 14.7343305,25.4298832 C14.7343305,24.4834573 13.9667336,23.716349 13.0203077,23.716349" id="Fill-29"></path>
                                <path d="M29.4315385,0.0405541311 L5.85199858,0.0405541311 C2.7562037,0.0405541311 0.237450142,2.55930769 0.237450142,5.65510256 L0.237450142,30.1317194 C0.237450142,33.2275142 2.7562037,35.7462678 5.85199858,35.7462678 L29.4315385,35.7462678 C32.5273333,35.7462678 35.0455983,33.2275142 35.0455983,30.1317194 L35.0455983,5.65510256 C35.0455983,2.55930769 32.5273333,0.0405541311 29.4315385,0.0405541311 L29.4315385,0.0405541311 Z M33.5797863,9.72712821 C33.2973732,10.0329943 33.1209872,10.438047 33.1209872,10.8870741 C33.1209872,11.3361011 33.2973732,11.7416425 33.5797863,12.0470199 L33.5797863,19.4224972 C33.2973732,19.7278746 33.1209872,20.133416 33.1209872,20.5819544 L33.1209872,20.582443 C33.1209872,21.0314701 33.2973732,21.4365228 33.5797863,21.7419003 L33.5797863,29.1173775 C33.2973732,29.4232436 33.1209872,29.8282963 33.1209872,30.2773234 C33.1209872,30.6379131 33.2328775,30.971141 33.423433,31.2472023 C32.9343405,32.9939615 31.332208,34.2804558 29.4315385,34.2804558 L29.0455413,34.2804558 C28.7504245,33.7635128 28.200745,33.4112293 27.5631168,33.4112293 C26.9254886,33.4112293 26.3758091,33.7635128 26.0806923,34.2804558 L14.5027322,34.2804558 C14.2076154,33.7635128 13.6579359,33.4112293 13.0203077,33.4112293 C12.3826795,33.4112293 11.833,33.7635128 11.5378832,34.2804558 L5.85199858,34.2804558 C5.81730769,34.2804558 5.78359402,34.2760584 5.74890313,34.2750812 C3.55800285,34.2208462 1.78681339,32.462849 1.71059117,30.2773234 C1.70912536,30.228463 1.70326211,30.1810684 1.70326211,30.1317194 L1.70326211,5.65510256 C1.70326211,3.96550997 2.72053561,2.5109359 4.17315527,1.86451282 C4.4345584,2.47673362 5.04140456,2.90572792 5.74890313,2.90572792 C6.58783618,2.90572792 7.28311966,2.30230199 7.43116667,1.5063661 L18.6099373,1.5063661 C18.7574957,2.30230199 19.4527792,2.90572792 20.2917123,2.90572792 C21.1306453,2.90572792 21.8259288,2.30230199 21.9734872,1.5063661 L29.4315385,1.5063661 C31.7191823,1.5063661 33.5797863,3.36745869 33.5797863,5.65510256 L33.5797863,9.72712821 L33.5797863,9.72712821 Z" id="Fill-30"></path>
                            </g>
                        </g>
                    </g>
                </g>
            </g>
        </g>
    </g>
</svg>